<svg xmlns="http://www.w3.org/2000/svg" xmlns:xlink="http://www.w3.org/1999/xlink" width="113" height="113" viewBox="0 0 113 113">
  <defs>
    <filter id="Trazado_982547" x="0" y="0" width="113" height="113" filterUnits="userSpaceOnUse">
      <feOffset dy="3" input="SourceAlpha"/>
      <feGaussianBlur stdDeviation="3" result="blur"/>
      <feFlood flood-opacity="0.161"/>
      <feComposite operator="in" in2="blur"/>
      <feComposite in="SourceGraphic"/>
    </filter>
  </defs>
  <g id="Grupo_1225231" data-name="Grupo 1225231" transform="translate(-793.49 -1388.359)">
    <g id="Grupo_1224603" data-name="Grupo 1224603" transform="translate(0 -3685.062)">
      <g id="Grupo_1209312" data-name="Grupo 1209312" transform="translate(0 3843.205)">
        <g id="Grupo_1208492" data-name="Grupo 1208492" transform="translate(0 -4397.209)">
          <g id="Grupo_1177675" data-name="Grupo 1177675" transform="translate(-4493 3707.152)">
            <g id="Grupo_1176928" data-name="Grupo 1176928" transform="translate(5295.49 1926.273)">
              <g id="Grupo_1172322" data-name="Grupo 1172322" transform="translate(0 0)">
                <g id="Grupo_1164700" data-name="Grupo 1164700">
                  <g id="Grupo_1160931" data-name="Grupo 1160931">
                    <g id="Grupo_1160749" data-name="Grupo 1160749">
                      <g id="Grupo_1158891" data-name="Grupo 1158891">
                        <g id="Grupo_1157406" data-name="Grupo 1157406">
                          <g id="Grupo_1155793" data-name="Grupo 1155793">
                            <g id="Grupo_1154704" data-name="Grupo 1154704">
                              <g id="Grupo_1150790" data-name="Grupo 1150790">
                                <g id="Grupo_1154214" data-name="Grupo 1154214">
                                  <g id="Grupo_1152583" data-name="Grupo 1152583">
                                    <g id="Grupo_1146973" data-name="Grupo 1146973">
                                      <g id="Grupo_1146954" data-name="Grupo 1146954">
                                        <g transform="matrix(1, 0, 0, 1, -9, -6)" filter="url(#Trazado_982547)">
                                          <g id="Trazado_982547-2" data-name="Trazado 982547" transform="translate(9 6)" fill="#fcf8db">
                                            <path d="M 47.5000114440918 93.49987030029297 C 41.28938293457031 93.49987030029297 35.26534652709961 92.28384399414062 29.5951976776123 89.88558959960938 C 24.11773109436035 87.56881713867188 19.19814491271973 84.25183868408203 14.97310447692871 80.02680206298828 C 10.74805164337158 75.80176544189453 7.43107795715332 70.88218688964844 5.114304542541504 65.40472412109375 C 2.716038227081299 59.73458862304688 1.500011444091797 53.71054840087891 1.500011444091797 47.49993515014648 C 1.500011444091797 41.28932189941406 2.716038227081299 35.26528167724609 5.114304542541504 29.59514808654785 C 7.43107795715332 24.1176815032959 10.74805164337158 19.1981086730957 14.97310447692871 14.97306823730469 C 19.19814491271973 10.74802875518799 24.11773109436035 7.431055068969727 29.5951976776123 5.11428165435791 C 35.26534652709961 2.716028451919556 41.28938293457031 1.500001788139343 47.5000114440918 1.500001788139343 C 53.71063995361328 1.500001788139343 59.73467636108398 2.716028451919556 65.40482330322266 5.11428165435791 C 70.88229370117188 7.431055068969727 75.8018798828125 10.74802875518799 80.02691650390625 14.97306823730469 C 84.25196838378906 19.1981086730957 87.56894683837891 24.1176815032959 89.88571929931641 29.59514808654785 C 92.28398132324219 35.26528167724609 93.50001525878906 41.28932189941406 93.50001525878906 47.49993515014648 C 93.50001525878906 53.71054840087891 92.28398132324219 59.73458862304688 89.88571929931641 65.40472412109375 C 87.56894683837891 70.88218688964844 84.25196838378906 75.80176544189453 80.02691650390625 80.02680206298828 C 75.8018798828125 84.25183868408203 70.88229370117188 87.56881713867188 65.40482330322266 89.88558959960938 C 59.73467636108398 92.28384399414062 53.71063995361328 93.49987030029297 47.5000114440918 93.49987030029297 Z" stroke="none"/>
                                            <path d="M 47.5000114440918 3 C 41.49122619628906 3 35.66378021240234 4.1761474609375 30.17951965332031 6.495796203613281 C 24.880859375 8.7369384765625 20.12153625488281 11.94596862792969 16.03376770019531 16.03373718261719 C 11.94598388671875 20.12149047851562 8.736968994140625 24.88081359863281 6.495811462402344 30.17947387695312 C 4.176162719726562 35.66371917724609 3.000007629394531 41.49116516113281 3.000007629394531 47.49993515014648 C 3.000007629394531 53.50870513916016 4.176162719726562 59.33615112304688 6.495811462402344 64.82039642333984 C 8.736968994140625 70.11905670166016 11.94598388671875 74.87837982177734 16.03376770019531 78.96613311767578 C 20.12153625488281 83.05390167236328 24.880859375 86.26293182373047 30.17951965332031 88.50407409667969 C 35.66378021240234 90.82372283935547 41.49122619628906 91.99987030029297 47.5000114440918 91.99987030029297 C 53.50879669189453 91.99987030029297 59.33624267578125 90.82372283935547 64.82050323486328 88.50407409667969 C 70.11916351318359 86.26293182373047 74.87848663330078 83.05390167236328 78.96625518798828 78.96613311767578 C 83.05403900146484 74.87837982177734 86.2630615234375 70.11905670166016 88.50421142578125 64.82039642333984 C 90.82386016845703 59.33615112304688 92.00001525878906 53.50870513916016 92.00001525878906 47.49993515014648 C 92.00001525878906 41.49116516113281 90.82386016845703 35.66371917724609 88.50421142578125 30.17947387695312 C 86.2630615234375 24.88081359863281 83.05403900146484 20.12149047851562 78.96625518798828 16.03373718261719 C 74.87848663330078 11.94596862792969 70.11916351318359 8.7369384765625 64.82050323486328 6.495796203613281 C 59.33624267578125 4.1761474609375 53.50879669189453 3 47.5000114440918 3 M 47.5000114440918 0 C 73.73353576660156 0 95.00001525878906 21.26644134521484 95.00001525878906 47.49993515014648 C 95.00001525878906 73.73342895507812 73.73353576660156 94.99987030029297 47.5000114440918 94.99987030029297 C 21.26648712158203 94.99987030029297 7.62939453125e-06 73.73342895507812 7.62939453125e-06 47.49993515014648 C 7.62939453125e-06 21.26644134521484 21.26648712158203 0 47.5000114440918 0 Z" stroke="none" fill="#83793c"/>
                                          </g>
                                        </g>
                                      </g>
                                    </g>
                                  </g>
                                </g>
                              </g>
                            </g>
                          </g>
                        </g>
                      </g>
                    </g>
                  </g>
                </g>
              </g>
            </g>
          </g>
        </g>
      </g>
    </g>
    <g id="Page-1" transform="translate(819.215 1409.073)">
      <g id="_031---Teaching-Targets" data-name="031---Teaching-Targets" transform="translate(-0.001 0)">
        <path id="Shape" d="M49.049,41.282A22.484,22.484,0,0,1,35.6,61.892a22.186,22.186,0,0,1-9.077,1.915,22.511,22.511,0,0,1-14.64-39.631V24.3a24.889,24.889,0,0,1,6.1-2.32,34.55,34.55,0,0,1,8.537-1.059A30.57,30.57,0,0,1,41.166,24.3v-.124a22.524,22.524,0,0,1,7.174,11.532h.011a22.174,22.174,0,0,1,.7,5.575Z" transform="translate(-0.621 2.639)" fill="#eb6371"/>
        <path id="Shape-2" data-name="Shape" d="M51.552,8.883l-2.252,1.5L41.417,15.64a30.57,30.57,0,0,0-14.64-3.379,30.57,30.57,0,0,0-14.64,3.379L2,8.883,26.776,1,49.5,8.23Z" transform="translate(-0.873 0.126)" fill="#6692aa"/>
        <path id="Shape-3" data-name="Shape" d="M40.281,14.379V25.551a30.57,30.57,0,0,0-14.64-3.379A34.55,34.55,0,0,0,17.1,23.231a24.889,24.889,0,0,0-6.1,2.32V14.379A30.57,30.57,0,0,1,25.64,11,30.57,30.57,0,0,1,40.281,14.379Z" transform="translate(0.263 1.387)" fill="#4d7693"/>
        <path id="Shape-4" data-name="Shape" d="M47.54,24.631H43.216a1.16,1.16,0,0,1-1.194-1.351l.732-3.379a1.2,1.2,0,0,1,1.194-.9h2.861A1.2,1.2,0,0,1,48,19.9l.732,3.379a1.16,1.16,0,0,1-1.194,1.351Z" transform="translate(4.176 2.398)" fill="#ffc17d"/>
        <circle id="Oval" cx="13.514" cy="13.514" r="13.514" transform="translate(12.389 30.407)" fill="#e5e8eb"/>
        <circle id="Oval-2" data-name="Oval" cx="5.631" cy="5.631" r="5.631" transform="translate(20.273 38.291)" fill="#eb6371"/>
        <path id="Shape-5" data-name="Shape" d="M58.01,45.262H54.046a1.126,1.126,0,0,1-.88-.422L49,39.631l4.167-5.209a1.126,1.126,0,0,1,.88-.422H58.01a1.126,1.126,0,0,1,1.126,1.126v9.01A1.126,1.126,0,0,1,58.01,45.262Z" transform="translate(5.058 4.291)" fill="#eb6371"/>
        <g id="Grupo_1225230" data-name="Grupo 1225230">
          <path id="Shape-6" data-name="Shape" d="M8.126,38A1.126,1.126,0,0,0,7,39.126q0,.6.037,1.2a1.126,1.126,0,0,0,1.126,1.056h.071a1.126,1.126,0,0,0,1.054-1.194q-.036-.526-.036-1.059A1.126,1.126,0,0,0,8.126,38Z" transform="translate(-0.242 4.795)"/>
          <path id="Shape-7" data-name="Shape" d="M7.856,44.479a19.3,19.3,0,0,0,9.81,11.229,1.107,1.107,0,0,0,.494.113,1.126,1.126,0,0,0,.494-2.14A17.033,17.033,0,0,1,10,43.771a1.126,1.126,0,1,0-2.14.7Z" transform="translate(-0.141 5.426)"/>
          <path id="Shape-8" data-name="Shape" d="M22.111,56.139a1.238,1.238,0,0,0,.143.009,1.126,1.126,0,0,0,.141-2.243c-.355-.045-.706-.1-1.055-.168a1.127,1.127,0,0,0-.426,2.213c.4.077.794.137,1.2.189Z" transform="translate(1.399 6.779)"/>
          <path id="Shape-9" data-name="Shape" d="M67.445,42.8H66.319V39.417a2.252,2.252,0,0,0-2.252-2.252H60.1a2.238,2.238,0,0,0-1.758.845L54.516,42.8h-4a23.161,23.161,0,0,0-.7-4.73,1.373,1.373,0,0,0-.046-.141,23.537,23.537,0,0,0-7.1-11.608V16.369l7.883-5.256v9.158h-.309a2.326,2.326,0,0,0-2.293,1.79l-.73,3.391a2.2,2.2,0,0,0,.45,1.844,2.365,2.365,0,0,0,1.842.859h4.329a2.365,2.365,0,0,0,1.841-.865,2.2,2.2,0,0,0,.45-1.844V25.44l-.728-3.379a2.327,2.327,0,0,0-2.294-1.79H52.8V9.01c0-.019-.01-.036-.011-.055a.777.777,0,0,0,0-.1,1.137,1.137,0,0,0-.068-.237c-.007-.018-.009-.037-.017-.055a1.089,1.089,0,0,0-.213-.315c-.024-.026-.052-.046-.078-.07a1.09,1.09,0,0,0-.241-.162.843.843,0,0,0-.1-.05c-.02-.008-.036-.02-.056-.027L46.389,6.145a1.126,1.126,0,0,0-.679,2.147l3.4,1.081-7.622,5.081-.034-.017-.113-.055c-.1-.051-.209-.1-.329-.16l-.158-.074c-.123-.057-.255-.113-.394-.179l-.187-.082c-.163-.071-.338-.144-.521-.218l-.149-.062c-.244-.1-.5-.2-.782-.3l-.065-.023q-.376-.137-.788-.276l-.264-.084c-.225-.072-.45-.144-.69-.215-.113-.034-.225-.065-.338-.1q-.355-.1-.732-.2c-.113-.03-.225-.062-.351-.091-.306-.078-.624-.151-.949-.225-.069-.015-.133-.032-.2-.046q-.6-.128-1.239-.241c-.1-.018-.216-.034-.323-.052-.322-.054-.65-.1-.988-.151-.155-.021-.315-.041-.474-.061-.3-.037-.614-.072-.929-.1-.173-.017-.347-.034-.523-.048-.338-.028-.676-.05-1.019-.069-.16-.009-.318-.02-.481-.027-.51-.019-1.028-.033-1.561-.033s-1.051.014-1.561.035c-.163.007-.321.018-.482.027-.345.019-.685.041-1.014.069-.177.015-.351.032-.525.048q-.472.045-.926.1c-.16.02-.321.039-.479.061-.338.046-.66.1-.98.15-.113.018-.225.035-.331.054q-.637.113-1.232.239l-.225.051c-.319.07-.631.143-.931.218-.124.03-.242.063-.364.095q-.368.1-.716.2c-.113.034-.235.068-.35.1q-.347.1-.67.208l-.282.091c-.266.089-.518.177-.76.265l-.095.034c-.274.1-.529.2-.771.3l-.177.073c-.172.071-.338.14-.492.206l-.2.09c-.133.06-.259.113-.377.171l-.17.08c-.113.055-.218.1-.315.154l-.121.06-.033.016L4.7,9.372,26.9,2.309,40.079,6.5a1.126,1.126,0,0,0,.676-2.147L27.24.053a1.126,1.126,0,0,0-.682,0L1.782,7.936a1.126,1.126,0,0,0-.28,2.01l9.635,6.423V26.32a23.5,23.5,0,0,0-7.883,17.6A23.741,23.741,0,0,0,4,49.833a1.126,1.126,0,0,0,2.181-.563,21.55,21.55,0,0,1,.194-11.4A21.193,21.193,0,0,1,12.6,28.011a1.126,1.126,0,0,0,.235-.1,24.256,24.256,0,0,1,5.806-2.2A33.455,33.455,0,0,1,26.9,24.686,29.851,29.851,0,0,1,40.965,27.9a1.071,1.071,0,0,0,.235.106A21.407,21.407,0,0,1,47.62,38.62a1.314,1.314,0,0,0,.05.151,20.729,20.729,0,0,1,.6,4.024H41.486a14.641,14.641,0,1,0,0,2.252h6.773A21.37,21.37,0,0,1,35.519,63.5,20.958,20.958,0,0,1,26.9,65.319a21.362,21.362,0,0,1-17.877-9.63,1.126,1.126,0,1,0-1.88,1.239A23.6,23.6,0,0,0,26.9,67.571a23.205,23.205,0,0,0,9.53-2.009A23.621,23.621,0,0,0,50.511,45.048h4l3.829,4.785a2.235,2.235,0,0,0,1.758.846h3.964a2.252,2.252,0,0,0,2.252-2.252V45.048h1.126a1.126,1.126,0,0,0,0-2.252ZM53.2,22.536l.728,3.35-4.5.028.818-3.391Zm-35.116.992c-.45.113-.881.236-1.292.359-.125.037-.242.074-.363.113-.3.092-.577.184-.847.276-.1.035-.2.069-.3.1-.338.119-.659.239-.952.354l-.184.075q-.354.142-.658.274c-.033.015-.074.03-.106.045V16.442c.126-.063.271-.134.44-.213l.077-.035c.127-.06.268-.122.417-.187l.146-.063c.15-.064.312-.132.481-.2l.146-.06c.45-.178.956-.365,1.523-.552l.233-.075c.209-.066.425-.134.649-.2l.319-.092q.327-.092.676-.182l.338-.088c.267-.066.544-.131.827-.194.084-.018.166-.038.251-.056q.554-.118,1.146-.225c.09-.016.186-.03.278-.045q.459-.078.94-.144c.143-.02.291-.038.437-.056q.428-.052.869-.1c.161-.016.322-.03.485-.044.309-.026.625-.047.944-.064.15-.009.3-.019.45-.026.466-.016.947-.029,1.442-.029s.974.014,1.447.033c.152.007.3.017.45.026.319.017.635.038.944.064.163.014.324.028.485.044q.443.044.868.1c.146.018.3.036.438.056.321.044.632.092.938.143.092.016.19.029.282.046q.591.1,1.144.225l.258.059c.279.063.554.126.819.193l.338.089c.225.059.45.119.664.18l.325.095c.225.065.431.131.637.2l.244.079c.563.186,1.069.372,1.512.547l.172.071c.159.063.312.127.45.187l.168.073c.137.06.268.113.386.172l.106.05q.246.113.429.206v8.678l-.052-.023c-.252-.113-.534-.225-.837-.348l-.225-.088c-.33-.128-.676-.259-1.064-.391-.041-.015-.086-.028-.127-.042-.368-.126-.762-.25-1.178-.373-.074-.023-.145-.045-.225-.066-.444-.128-.913-.252-1.405-.371-.1-.025-.2-.047-.3-.071-.517-.119-1.052-.234-1.618-.338L33.287,23c-.545-.1-1.116-.182-1.7-.259l-.338-.043q-.9-.113-1.871-.173c-.128-.009-.258-.015-.387-.023-.676-.038-1.374-.065-2.1-.065a35.656,35.656,0,0,0-8.8,1.091ZM60.1,39.417h3.964V42.8H57.4ZM26.9,56.31A12.388,12.388,0,1,1,39.233,42.8H33.558a6.757,6.757,0,1,0,0,2.252h5.675A12.4,12.4,0,0,1,26.9,56.31Zm0-11.262h4.345a4.5,4.5,0,1,1,0-2.252H26.9a1.126,1.126,0,1,0,0,2.252Zm37.164,3.379H60.1l-2.7-3.379h6.666Z" transform="translate(-0.999 0)"/>
        </g>
      </g>
    </g>
  </g>
</svg>
