<svg xmlns="http://www.w3.org/2000/svg" xmlns:xlink="http://www.w3.org/1999/xlink" width="113" height="113" viewBox="0 0 113 113">
  <defs>
    <filter id="Trazado_982547" x="0" y="0" width="113" height="113" filterUnits="userSpaceOnUse">
      <feOffset dy="3" input="SourceAlpha"/>
      <feGaussianBlur stdDeviation="3" result="blur"/>
      <feFlood flood-opacity="0.161"/>
      <feComposite operator="in" in2="blur"/>
      <feComposite in="SourceGraphic"/>
    </filter>
  </defs>
  <g id="Grupo_1225232" data-name="Grupo 1225232" transform="translate(-1112 -1388.359)">
    <g id="Grupo_1224604" data-name="Grupo 1224604" transform="translate(0 -3685.062)">
      <g id="Grupo_1209313" data-name="Grupo 1209313" transform="translate(0 3843.205)">
        <g id="Grupo_1209049" data-name="Grupo 1209049">
          <g id="Grupo_1208493" data-name="Grupo 1208493" transform="translate(0 -4397.209)">
            <g id="Grupo_1202104" data-name="Grupo 1202104" transform="translate(0 -1149.226)">
              <g id="Grupo_1201923" data-name="Grupo 1201923" transform="translate(-4174.49 4856.378)">
                <g id="Grupo_1176928" data-name="Grupo 1176928" transform="translate(5295.49 1926.273)">
                  <g id="Grupo_1172322" data-name="Grupo 1172322" transform="translate(0 0)">
                    <g id="Grupo_1164700" data-name="Grupo 1164700">
                      <g id="Grupo_1160931" data-name="Grupo 1160931">
                        <g id="Grupo_1160749" data-name="Grupo 1160749">
                          <g id="Grupo_1158891" data-name="Grupo 1158891">
                            <g id="Grupo_1157406" data-name="Grupo 1157406">
                              <g id="Grupo_1155793" data-name="Grupo 1155793">
                                <g id="Grupo_1154704" data-name="Grupo 1154704">
                                  <g id="Grupo_1150790" data-name="Grupo 1150790">
                                    <g id="Grupo_1154214" data-name="Grupo 1154214">
                                      <g id="Grupo_1152583" data-name="Grupo 1152583">
                                        <g id="Grupo_1146973" data-name="Grupo 1146973">
                                          <g id="Grupo_1146954" data-name="Grupo 1146954">
                                            <g transform="matrix(1, 0, 0, 1, -9, -6)" filter="url(#Trazado_982547)">
                                              <g id="Trazado_982547-2" data-name="Trazado 982547" transform="translate(9 6)" fill="#fcf8db">
                                                <path d="M 47.5000114440918 93.49987030029297 C 41.28938293457031 93.49987030029297 35.26534652709961 92.28384399414062 29.5951976776123 89.88558959960938 C 24.11773109436035 87.56881713867188 19.19814491271973 84.25183868408203 14.97310447692871 80.02680206298828 C 10.74805164337158 75.80176544189453 7.43107795715332 70.88218688964844 5.114304542541504 65.40472412109375 C 2.716038227081299 59.73458862304688 1.500011444091797 53.71054840087891 1.500011444091797 47.49993515014648 C 1.500011444091797 41.28932189941406 2.716038227081299 35.26528167724609 5.114304542541504 29.59514808654785 C 7.43107795715332 24.1176815032959 10.74805164337158 19.1981086730957 14.97310447692871 14.97306823730469 C 19.19814491271973 10.74802875518799 24.11773109436035 7.431055068969727 29.5951976776123 5.11428165435791 C 35.26534652709961 2.716028451919556 41.28938293457031 1.500001788139343 47.5000114440918 1.500001788139343 C 53.71063995361328 1.500001788139343 59.73467636108398 2.716028451919556 65.40482330322266 5.11428165435791 C 70.88229370117188 7.431055068969727 75.8018798828125 10.74802875518799 80.02691650390625 14.97306823730469 C 84.25196838378906 19.1981086730957 87.56894683837891 24.1176815032959 89.88571929931641 29.59514808654785 C 92.28398132324219 35.26528167724609 93.50001525878906 41.28932189941406 93.50001525878906 47.49993515014648 C 93.50001525878906 53.71054840087891 92.28398132324219 59.73458862304688 89.88571929931641 65.40472412109375 C 87.56894683837891 70.88218688964844 84.25196838378906 75.80176544189453 80.02691650390625 80.02680206298828 C 75.8018798828125 84.25183868408203 70.88229370117188 87.56881713867188 65.40482330322266 89.88558959960938 C 59.73467636108398 92.28384399414062 53.71063995361328 93.49987030029297 47.5000114440918 93.49987030029297 Z" stroke="none"/>
                                                <path d="M 47.5000114440918 3 C 41.49122619628906 3 35.66378021240234 4.1761474609375 30.17951965332031 6.495796203613281 C 24.880859375 8.7369384765625 20.12153625488281 11.94596862792969 16.03376770019531 16.03373718261719 C 11.94598388671875 20.12149047851562 8.736968994140625 24.88081359863281 6.495811462402344 30.17947387695312 C 4.176162719726562 35.66371917724609 3.000007629394531 41.49116516113281 3.000007629394531 47.49993515014648 C 3.000007629394531 53.50870513916016 4.176162719726562 59.33615112304688 6.495811462402344 64.82039642333984 C 8.736968994140625 70.11905670166016 11.94598388671875 74.87837982177734 16.03376770019531 78.96613311767578 C 20.12153625488281 83.05390167236328 24.880859375 86.26293182373047 30.17951965332031 88.50407409667969 C 35.66378021240234 90.82372283935547 41.49122619628906 91.99987030029297 47.5000114440918 91.99987030029297 C 53.50879669189453 91.99987030029297 59.33624267578125 90.82372283935547 64.82050323486328 88.50407409667969 C 70.11916351318359 86.26293182373047 74.87848663330078 83.05390167236328 78.96625518798828 78.96613311767578 C 83.05403900146484 74.87837982177734 86.2630615234375 70.11905670166016 88.50421142578125 64.82039642333984 C 90.82386016845703 59.33615112304688 92.00001525878906 53.50870513916016 92.00001525878906 47.49993515014648 C 92.00001525878906 41.49116516113281 90.82386016845703 35.66371917724609 88.50421142578125 30.17947387695312 C 86.2630615234375 24.88081359863281 83.05403900146484 20.12149047851562 78.96625518798828 16.03373718261719 C 74.87848663330078 11.94596862792969 70.11916351318359 8.7369384765625 64.82050323486328 6.495796203613281 C 59.33624267578125 4.1761474609375 53.50879669189453 3 47.5000114440918 3 M 47.5000114440918 0 C 73.73353576660156 0 95.00001525878906 21.26644134521484 95.00001525878906 47.49993515014648 C 95.00001525878906 73.73342895507812 73.73353576660156 94.99987030029297 47.5000114440918 94.99987030029297 C 21.26648712158203 94.99987030029297 7.62939453125e-06 73.73342895507812 7.62939453125e-06 47.49993515014648 C 7.62939453125e-06 21.26644134521484 21.26648712158203 0 47.5000114440918 0 Z" stroke="none" fill="#83793c"/>
                                              </g>
                                            </g>
                                          </g>
                                        </g>
                                      </g>
                                    </g>
                                  </g>
                                </g>
                              </g>
                            </g>
                          </g>
                        </g>
                      </g>
                    </g>
                  </g>
                </g>
              </g>
            </g>
          </g>
        </g>
      </g>
    </g>
    <path id="Trazado_1056778" data-name="Trazado 1056778" d="M74.152,109.431H72.114c.012-.064.025-.119.037-.183a34.606,34.606,0,0,1,4.7-5.729C81.053,99.063,85.821,94,87.964,83.1c.032-.156.006-.275.146-.357l1.567,6.727c-.007.1-.011.2-.011.3a4.6,4.6,0,0,0,2.606,4.146,3.49,3.49,0,0,0,2.672.421,14.341,14.341,0,0,1,5.719.43c-8.245,2.215-19.291,6.534-26.51,14.661Zm-9.635,0C57.3,101.3,46.251,96.985,38.006,94.77a14.341,14.341,0,0,1,5.719-.43,3.49,3.49,0,0,0,2.672-.421A4.6,4.6,0,0,0,49,89.774c0-.1,0-.2-.011-.3l1.567-6.727c.139.082.114.2.146.357,2.143,10.9,6.911,15.961,11.117,20.418a34.615,34.615,0,0,1,4.7,5.729c.012.064.025.119.037.183ZM44.4,87.348a2.43,2.43,0,1,0,2.428,2.425A2.43,2.43,0,0,0,44.4,87.348Zm24.931-2.169A2.764,2.764,0,1,1,72.1,82.416a2.77,2.77,0,0,1-2.765,2.764Zm.249,24.252c.162-.329.332-.65.511-.97.446-2.187.794-4.082,1.108-5.793,1.742-9.472,2.269-12.337,11.39-23.026.253-.3-.117-.859-.3-.723l-8.852,6.223a4.938,4.938,0,0,1-4.11,2.206,5.706,5.706,0,0,1-1.143-.134,4.764,4.764,0,0,1-2.966-2.072l-8.852-6.223c-.177-.134-.551.423-.3.723C65.2,90.332,65.723,93.2,67.466,102.668c.315,1.711.662,3.606,1.108,5.8q.268.467.511.961ZM68.5,64.332,51.645,76.467v4.4a2.4,2.4,0,0,1,1.2,1.858c2.027,10.25,6.559,15.064,10.559,19.31.745.787,1.476,1.565,2.173,2.352C63.65,94.165,63.711,91.931,54.424,81.052a2.64,2.64,0,0,1,.121-3.514,2.3,2.3,0,0,1,3.078-.394l6.8,4.777a4.936,4.936,0,0,1,9.824,0l6.8-4.777a2.3,2.3,0,0,1,3.078.394,2.64,2.64,0,0,1,.121,3.514c-9.192,10.767-9.28,13.147-11.15,23.337.7-.787,1.427-1.565,2.172-2.352,4-4.246,8.532-9.06,10.558-19.31a2.4,2.4,0,0,1,1.2-1.858v-4.4L70.173,64.332a1.419,1.419,0,0,0-1.678,0ZM45.486,78.224a1.224,1.224,0,1,1-1.432-1.986l22.477-16.19a4.75,4.75,0,0,1,5.607,0l12.091,8.713a1.089,1.089,0,0,0,1.721-.879V64.4a1,1,0,0,1,.716-.238h1.986a1,1,0,0,1,.716.238v7.5a1.1,1.1,0,0,0,.452.888l4.8,3.45a1.224,1.224,0,1,1-1.432,1.986l-21.74-15.65a3.552,3.552,0,0,0-4.217,0Zm48.78,9.124a2.43,2.43,0,1,0,2.428,2.425A2.43,2.43,0,0,0,94.265,87.348Zm9.647,7.138c-.1-.394-.381-1.464-4.216-2.142-.456-.082-.962-.156-1.484-.211a4.6,4.6,0,0,0-7.029-5.766L90.153,81.94a1.841,1.841,0,0,0-.866-1.19A.407.407,0,0,0,89.2,80.7V78.032l2.717,1.958a3.4,3.4,0,1,0,3.971-5.519l-4.345-3.121V64.359a2.641,2.641,0,0,0-2.888-2.37H86.665a2.64,2.64,0,0,0-2.888,2.37v1.4l-10.37-7.468a6.865,6.865,0,0,0-8.145,0L42.784,74.472a3.4,3.4,0,1,0,3.971,5.519l2.717-1.958V80.7a.416.416,0,0,0-.091.046,1.84,1.84,0,0,0-.866,1.19l-1.032,4.429a4.6,4.6,0,0,0-7.029,5.766c-.522.055-1.027.128-1.483.211-3.835.677-4.111,1.748-4.216,2.142-.186.723.041,1.693,2.181,2.251,8.121,2.123,19.27,6.36,26.264,14.487a1.09,1.09,0,0,0,.823.375H74.645a1.089,1.089,0,0,0,.823-.375c6.994-8.127,18.143-12.364,26.263-14.487,2.14-.558,2.367-1.529,2.181-2.251ZM84.791,48.133a2.789,2.789,0,0,1,2.108.961,1.093,1.093,0,0,0,1.633,0,2.8,2.8,0,0,1,4.91,1.849c0,2.782-2.985,6.287-5.727,7.715-2.741-1.428-5.727-4.933-5.727-7.715A2.811,2.811,0,0,1,84.791,48.133Zm2.486,12.721a1.091,1.091,0,0,0,.877,0c3.6-1.592,7.46-5.958,7.46-9.911a4.981,4.981,0,0,0-7.9-4.027,4.981,4.981,0,0,0-7.9,4.027C79.817,54.9,83.674,59.262,87.277,60.854Z" transform="translate(1099.166 1363.077)" fill-rule="evenodd"/>
  </g>
</svg>
