<svg xmlns="http://www.w3.org/2000/svg" xmlns:xlink="http://www.w3.org/1999/xlink" width="113" height="113" viewBox="0 0 113 113">
  <defs>
    <filter id="Trazado_982547" x="0" y="0" width="113" height="113" filterUnits="userSpaceOnUse">
      <feOffset dy="3" input="SourceAlpha"/>
      <feGaussianBlur stdDeviation="3" result="blur"/>
      <feFlood flood-opacity="0.161"/>
      <feComposite operator="in" in2="blur"/>
      <feComposite in="SourceGraphic"/>
    </filter>
  </defs>
  <g id="Grupo_1225403" data-name="Grupo 1225403" transform="translate(-454 -1378.359)">
    <g id="Grupo_1224606" data-name="Grupo 1224606" transform="translate(-658 -3695.062)">
      <g id="Grupo_1209313" data-name="Grupo 1209313" transform="translate(0 3843.205)">
        <g id="Grupo_1209049" data-name="Grupo 1209049">
          <g id="Grupo_1208493" data-name="Grupo 1208493" transform="translate(0 -4397.209)">
            <g id="Grupo_1202104" data-name="Grupo 1202104" transform="translate(0 -1149.226)">
              <g id="Grupo_1201923" data-name="Grupo 1201923" transform="translate(-4174.49 4856.378)">
                <g id="Grupo_1176928" data-name="Grupo 1176928" transform="translate(5295.49 1926.273)">
                  <g id="Grupo_1172322" data-name="Grupo 1172322" transform="translate(0 0)">
                    <g id="Grupo_1164700" data-name="Grupo 1164700">
                      <g id="Grupo_1160931" data-name="Grupo 1160931">
                        <g id="Grupo_1160749" data-name="Grupo 1160749">
                          <g id="Grupo_1158891" data-name="Grupo 1158891">
                            <g id="Grupo_1157406" data-name="Grupo 1157406">
                              <g id="Grupo_1155793" data-name="Grupo 1155793">
                                <g id="Grupo_1154704" data-name="Grupo 1154704">
                                  <g id="Grupo_1150790" data-name="Grupo 1150790">
                                    <g id="Grupo_1154214" data-name="Grupo 1154214">
                                      <g id="Grupo_1152583" data-name="Grupo 1152583">
                                        <g id="Grupo_1146973" data-name="Grupo 1146973">
                                          <g id="Grupo_1146954" data-name="Grupo 1146954">
                                            <g transform="matrix(1, 0, 0, 1, -9, -6)" filter="url(#Trazado_982547)">
                                              <g id="Trazado_982547-2" data-name="Trazado 982547" transform="translate(9 6)" fill="#fcf8db">
                                                <path d="M 47.5000114440918 93.49987030029297 C 41.28938293457031 93.49987030029297 35.26534652709961 92.28384399414062 29.5951976776123 89.88558959960938 C 24.11773109436035 87.56881713867188 19.19814491271973 84.25183868408203 14.97310447692871 80.02680206298828 C 10.74805164337158 75.80176544189453 7.43107795715332 70.88218688964844 5.114304542541504 65.40472412109375 C 2.716038227081299 59.73458862304688 1.500011444091797 53.71054840087891 1.500011444091797 47.49993515014648 C 1.500011444091797 41.28932189941406 2.716038227081299 35.26528167724609 5.114304542541504 29.59514808654785 C 7.43107795715332 24.1176815032959 10.74805164337158 19.1981086730957 14.97310447692871 14.97306823730469 C 19.19814491271973 10.74802875518799 24.11773109436035 7.431055068969727 29.5951976776123 5.11428165435791 C 35.26534652709961 2.716028451919556 41.28938293457031 1.500001788139343 47.5000114440918 1.500001788139343 C 53.71063995361328 1.500001788139343 59.73467636108398 2.716028451919556 65.40482330322266 5.11428165435791 C 70.88229370117188 7.431055068969727 75.8018798828125 10.74802875518799 80.02691650390625 14.97306823730469 C 84.25196838378906 19.1981086730957 87.56894683837891 24.1176815032959 89.88571929931641 29.59514808654785 C 92.28398132324219 35.26528167724609 93.50001525878906 41.28932189941406 93.50001525878906 47.49993515014648 C 93.50001525878906 53.71054840087891 92.28398132324219 59.73458862304688 89.88571929931641 65.40472412109375 C 87.56894683837891 70.88218688964844 84.25196838378906 75.80176544189453 80.02691650390625 80.02680206298828 C 75.8018798828125 84.25183868408203 70.88229370117188 87.56881713867188 65.40482330322266 89.88558959960938 C 59.73467636108398 92.28384399414062 53.71063995361328 93.49987030029297 47.5000114440918 93.49987030029297 Z" stroke="none"/>
                                                <path d="M 47.5000114440918 3 C 41.49122619628906 3 35.66378021240234 4.1761474609375 30.17951965332031 6.495796203613281 C 24.880859375 8.7369384765625 20.12153625488281 11.94596862792969 16.03376770019531 16.03373718261719 C 11.94598388671875 20.12149047851562 8.736968994140625 24.88081359863281 6.495811462402344 30.17947387695312 C 4.176162719726562 35.66371917724609 3.000007629394531 41.49116516113281 3.000007629394531 47.49993515014648 C 3.000007629394531 53.50870513916016 4.176162719726562 59.33615112304688 6.495811462402344 64.82039642333984 C 8.736968994140625 70.11905670166016 11.94598388671875 74.87837982177734 16.03376770019531 78.96613311767578 C 20.12153625488281 83.05390167236328 24.880859375 86.26293182373047 30.17951965332031 88.50407409667969 C 35.66378021240234 90.82372283935547 41.49122619628906 91.99987030029297 47.5000114440918 91.99987030029297 C 53.50879669189453 91.99987030029297 59.33624267578125 90.82372283935547 64.82050323486328 88.50407409667969 C 70.11916351318359 86.26293182373047 74.87848663330078 83.05390167236328 78.96625518798828 78.96613311767578 C 83.05403900146484 74.87837982177734 86.2630615234375 70.11905670166016 88.50421142578125 64.82039642333984 C 90.82386016845703 59.33615112304688 92.00001525878906 53.50870513916016 92.00001525878906 47.49993515014648 C 92.00001525878906 41.49116516113281 90.82386016845703 35.66371917724609 88.50421142578125 30.17947387695312 C 86.2630615234375 24.88081359863281 83.05403900146484 20.12149047851562 78.96625518798828 16.03373718261719 C 74.87848663330078 11.94596862792969 70.11916351318359 8.7369384765625 64.82050323486328 6.495796203613281 C 59.33624267578125 4.1761474609375 53.50879669189453 3 47.5000114440918 3 M 47.5000114440918 0 C 73.73353576660156 0 95.00001525878906 21.26644134521484 95.00001525878906 47.49993515014648 C 95.00001525878906 73.73342895507812 73.73353576660156 94.99987030029297 47.5000114440918 94.99987030029297 C 21.26648712158203 94.99987030029297 7.62939453125e-06 73.73342895507812 7.62939453125e-06 47.49993515014648 C 7.62939453125e-06 21.26644134521484 21.26648712158203 0 47.5000114440918 0 Z" stroke="none" fill="#83793c"/>
                                              </g>
                                            </g>
                                          </g>
                                        </g>
                                      </g>
                                    </g>
                                  </g>
                                </g>
                              </g>
                            </g>
                          </g>
                        </g>
                      </g>
                    </g>
                  </g>
                </g>
              </g>
            </g>
          </g>
        </g>
      </g>
    </g>
    <g id="equal_7457214" transform="translate(470.796 1389.654)">
      <path id="Trazado_1056779" data-name="Trazado 1056779" d="M8.564,360.5H71.845a1.064,1.064,0,0,1,1.064,1.064v2.127a1.064,1.064,0,0,1-1.064,1.064H8.564A1.064,1.064,0,0,1,7.5,363.688v-2.127A1.064,1.064,0,0,1,8.564,360.5Z" transform="translate(0 -306.54)" fill="#528fd8"/>
      <path id="Trazado_1056780" data-name="Trazado 1056780" d="M468.348,360.5h-4.254a1.063,1.063,0,0,1,1.064,1.064v2.127a1.063,1.063,0,0,1-1.064,1.064h4.254a1.063,1.063,0,0,0,1.064-1.064v-2.127A1.063,1.063,0,0,0,468.348,360.5Z" transform="translate(-396.503 -306.54)" fill="#0573ce"/>
      <g id="Grupo_1225234" data-name="Grupo 1225234" transform="translate(7.5 22.848)">
        <g id="Grupo_1225233" data-name="Grupo 1225233" transform="translate(0 0)">
          <path id="Trazado_1056781" data-name="Trazado 1056781" d="M41.741,203.34h0a7.977,7.977,0,0,1-7.977-7.977V184.728H49.717v10.636A7.977,7.977,0,0,1,41.741,203.34Z" transform="translate(-30.307 -176.751)" fill="#fed2a4"/>
          <path id="Trazado_1056782" data-name="Trazado 1056782" d="M85.2,184.729v10.636a7.98,7.98,0,0,1-5.982,7.725,7.994,7.994,0,0,0,1.994.251h0a7.977,7.977,0,0,0,7.977-7.977V184.729Z" transform="translate(-69.783 -176.752)" fill="#ffbd86"/>
          <path id="Trazado_1056783" data-name="Trazado 1056783" d="M10.159,230.453h.8v-5.318h-.8A2.659,2.659,0,0,0,7.5,227.794h0A2.659,2.659,0,0,0,10.159,230.453Z" transform="translate(-7.5 -211.841)" fill="#f6a96c"/>
          <path id="Trazado_1056784" data-name="Trazado 1056784" d="M155.782,230.453h-.8v-5.318h.8a2.659,2.659,0,0,1,2.659,2.659h0A2.659,2.659,0,0,1,155.782,230.453Z" transform="translate(-135.574 -211.841)" fill="#f6a96c"/>
          <path id="Trazado_1056785" data-name="Trazado 1056785" d="M33.343,136.084v-3.192a6.381,6.381,0,0,0-3.584-5.735l-.719-.351h0a4.426,4.426,0,0,0-4.07-2.687H21.112a9.572,9.572,0,0,0-9.572,9.572v2.393a1.33,1.33,0,0,0,1.329,1.329H24a6.381,6.381,0,0,0,4.652-2.013l.384-.409,1.378,2.422h1.6A1.33,1.33,0,0,0,33.343,136.084Z" transform="translate(-11.008 -124.119)" fill="#d77f4a"/>
          <path id="Trazado_1056786" data-name="Trazado 1056786" d="M108.154,132.58l-.719-.351a4.418,4.418,0,0,0-1.506-1.865,15.063,15.063,0,0,1,.139,2.036,14.886,14.886,0,0,1-4.252,10.436h.584a6.381,6.381,0,0,0,4.652-2.013l.384-.409,1.378,2.422h1.6a1.33,1.33,0,0,0,1.329-1.329v-3.192A6.381,6.381,0,0,0,108.154,132.58Z" transform="translate(-89.403 -129.542)" fill="#c86d36"/>
        </g>
      </g>
      <g id="Grupo_1225237" data-name="Grupo 1225237" transform="translate(48.447 22.848)">
        <circle id="Elipse_13571" data-name="Elipse 13571" cx="4.254" cy="4.254" r="4.254" transform="translate(0 18.612)" fill="#feb237"/>
        <circle id="Elipse_13572" data-name="Elipse 13572" cx="4.254" cy="4.254" r="4.254" transform="translate(15.953 18.612)" fill="#feb237"/>
        <g id="Grupo_1225236" data-name="Grupo 1225236" transform="translate(0.798 0)">
          <g id="Grupo_1225235" data-name="Grupo 1225235">
            <path id="Trazado_1056787" data-name="Trazado 1056787" d="M358.932,203.34h0a7.977,7.977,0,0,1-7.977-7.977V184.728h15.953v10.636A7.977,7.977,0,0,1,358.932,203.34Z" transform="translate(-347.498 -176.751)" fill="#fed2a4"/>
            <path id="Trazado_1056788" data-name="Trazado 1056788" d="M402.4,184.729v10.636a7.98,7.98,0,0,1-5.982,7.725,7.994,7.994,0,0,0,1.994.251h0a7.977,7.977,0,0,0,7.977-7.977V184.729Z" transform="translate(-386.974 -176.752)" fill="#ffbd86"/>
            <path id="Trazado_1056789" data-name="Trazado 1056789" d="M327.35,230.453h.8v-5.318h-.8a2.659,2.659,0,0,0-2.659,2.659h0A2.659,2.659,0,0,0,327.35,230.453Z" transform="translate(-324.691 -211.841)" fill="#f6a96c"/>
            <path id="Trazado_1056790" data-name="Trazado 1056790" d="M472.973,230.453h-.8v-5.318h.8a2.659,2.659,0,0,1,2.659,2.659h0A2.659,2.659,0,0,1,472.973,230.453Z" transform="translate(-452.765 -211.841)" fill="#f6a96c"/>
            <path id="Trazado_1056791" data-name="Trazado 1056791" d="M339.633,124.119h0a10.9,10.9,0,0,0-10.9,10.9v2.393H334.6a6.381,6.381,0,0,0,4.652-2.013l.384-.409.384.409a6.381,6.381,0,0,0,4.652,2.013h5.866V135.02A10.9,10.9,0,0,0,339.633,124.119Z" transform="translate(-328.2 -124.119)" fill="#ffc344"/>
            <path id="Trazado_1056792" data-name="Trazado 1056792" d="M432.185,131.822a12.133,12.133,0,0,1-2.162,11.722,6.378,6.378,0,0,0,2.606.558H438.5V141.71A10.9,10.9,0,0,0,432.185,131.822Z" transform="translate(-416.161 -130.808)" fill="#feb237"/>
          </g>
        </g>
      </g>
      <path id="Trazado_1056793" data-name="Trazado 1056793" d="M191.248,351.622l-7.4-22.081a1.6,1.6,0,0,0-1.513-1.088h-5.3a1.6,1.6,0,0,0-1.513,1.088l-7.4,22.081Z" transform="translate(-139.478 -278.713)" fill="#ffe177"/>
      <path id="Trazado_1056794" data-name="Trazado 1056794" d="M218.553,378.853c.02.324.031.65.031.978a15.9,15.9,0,0,1-12.641,15.558H224.1Z" transform="translate(-172.327 -322.481)" fill="#ffd15b"/>
      <circle id="Elipse_13573" data-name="Elipse 13573" cx="1.994" cy="1.994" r="1.994" transform="translate(38.21 54.09)" fill="#528fd8"/>
      <circle id="Elipse_13574" data-name="Elipse 13574" cx="10.636" cy="10.636" r="10.636" transform="translate(29.569 7.5)" fill="#bbec6c"/>
      <path id="Trazado_1056795" data-name="Trazado 1056795" d="M202.436,20.074a10.633,10.633,0,0,1-14.675,14.675,10.634,10.634,0,1,0,14.675-14.675Z" transform="translate(-156.537 -10.919)" fill="#a2e62e"/>
      <g id="Grupo_1225238" data-name="Grupo 1225238" transform="translate(35.285 12.979)">
        <path id="Trazado_1056796" data-name="Trazado 1056796" d="M227.4,52.591h-7.711a1.064,1.064,0,0,1-1.064-1.064V50.2a1.064,1.064,0,0,1,1.064-1.064H227.4a1.064,1.064,0,0,1,1.064,1.064v1.329A1.064,1.064,0,0,1,227.4,52.591Z" transform="translate(-218.625 -49.134)" fill="#dff6fd"/>
        <path id="Trazado_1056797" data-name="Trazado 1056797" d="M227.4,104.686h-7.711a1.064,1.064,0,0,1-1.064-1.064v-1.329a1.064,1.064,0,0,1,1.064-1.064H227.4a1.064,1.064,0,0,1,1.064,1.064v1.329A1.064,1.064,0,0,1,227.4,104.686Z" transform="translate(-218.625 -94.373)" fill="#dff6fd"/>
      </g>
      <path id="Trazado_1056798" data-name="Trazado 1056798" d="M49.717,265.542a7.977,7.977,0,0,1-7.977,7.977h0a7.977,7.977,0,0,1-7.977-7.977" transform="translate(-22.807 -224.082)" fill="none" stroke="#000" stroke-linecap="round" stroke-linejoin="round" stroke-miterlimit="10" stroke-width="1.2"/>
      <path id="Trazado_1056799" data-name="Trazado 1056799" d="M10.159,230.453h.8v-5.318h-.8A2.659,2.659,0,0,0,7.5,227.794h0A2.659,2.659,0,0,0,10.159,230.453Z" transform="translate(0 -188.993)" fill="none" stroke="#000" stroke-linecap="round" stroke-linejoin="round" stroke-miterlimit="10" stroke-width="1.2"/>
      <path id="Trazado_1056800" data-name="Trazado 1056800" d="M155.782,230.453h-.8v-5.318h.8a2.659,2.659,0,0,1,2.659,2.659h0A2.659,2.659,0,0,1,155.782,230.453Z" transform="translate(-128.074 -188.993)" fill="none" stroke="#000" stroke-linecap="round" stroke-linejoin="round" stroke-miterlimit="10" stroke-width="1.2"/>
      <path id="Trazado_1056801" data-name="Trazado 1056801" d="M33.343,136.084v-3.192a6.381,6.381,0,0,0-3.584-5.735l-.719-.351h0a4.426,4.426,0,0,0-4.07-2.687H21.112a9.572,9.572,0,0,0-9.572,9.572v2.393a1.33,1.33,0,0,0,1.329,1.329H24a6.381,6.381,0,0,0,4.652-2.013l.384-.409,1.378,2.422h1.6A1.33,1.33,0,0,0,33.343,136.084Z" transform="translate(-3.508 -101.271)" fill="none" stroke="#000" stroke-linecap="round" stroke-linejoin="round" stroke-miterlimit="10" stroke-width="1.2"/>
      <line id="Línea_1047" data-name="Línea 1047" x1="1.028" y2="2.718" transform="translate(17.793 33.425)" fill="none" stroke="#000" stroke-linecap="round" stroke-linejoin="round" stroke-miterlimit="10" stroke-width="1.2"/>
      <line id="Línea_1048" data-name="Línea 1048" x1="0.726" y2="1.919" transform="translate(14.005 34.223)" fill="none" stroke="#000" stroke-linecap="round" stroke-linejoin="round" stroke-miterlimit="10" stroke-width="1.2"/>
      <path id="Trazado_1056802" data-name="Trazado 1056802" d="M322.884,265.542a4.254,4.254,0,1,0,3.534,6.625" transform="translate(-270.183 -224.082)" fill="none" stroke="#000" stroke-linecap="round" stroke-linejoin="round" stroke-miterlimit="10" stroke-width="1.2"/>
      <path id="Trazado_1056803" data-name="Trazado 1056803" d="M445.325,272.167a4.255,4.255,0,1,0,3.534-6.625" transform="translate(-380.204 -224.082)" fill="none" stroke="#000" stroke-linecap="round" stroke-linejoin="round" stroke-miterlimit="10" stroke-width="1.2"/>
      <path id="Trazado_1056804" data-name="Trazado 1056804" d="M350.955,209.156H353.9a6.381,6.381,0,0,0,4.652-2.013l.384-.409.384.409a6.381,6.381,0,0,0,4.652,2.013h2.941" transform="translate(-298.254 -173.013)" fill="none" stroke="#000" stroke-linecap="round" stroke-linejoin="round" stroke-miterlimit="10" stroke-width="1.2"/>
      <path id="Trazado_1056805" data-name="Trazado 1056805" d="M328.73,138.345v-3.324a10.9,10.9,0,0,1,16.965-9.06" transform="translate(-278.954 -101.272)" fill="none" stroke="#000" stroke-linecap="round" stroke-linejoin="round" stroke-miterlimit="10" stroke-width="1.2"/>
      <path id="Trazado_1056806" data-name="Trazado 1056806" d="M481.85,163.11a10.837,10.837,0,0,1,1.652,5.77V172.2" transform="translate(-411.922 -135.131)" fill="none" stroke="#000" stroke-linecap="round" stroke-linejoin="round" stroke-miterlimit="10" stroke-width="1.2"/>
      <path id="Trazado_1056807" data-name="Trazado 1056807" d="M366.908,265.542a7.977,7.977,0,0,1-7.977,7.977h0a7.977,7.977,0,0,1-7.977-7.977" transform="translate(-298.254 -224.082)" fill="none" stroke="#000" stroke-linecap="round" stroke-linejoin="round" stroke-miterlimit="10" stroke-width="1.2"/>
      <path id="Trazado_1056808" data-name="Trazado 1056808" d="M327.35,230.453h.8v-5.318h-.8a2.659,2.659,0,0,0-2.659,2.659h0A2.659,2.659,0,0,0,327.35,230.453Z" transform="translate(-275.447 -188.993)" fill="none" stroke="#000" stroke-linecap="round" stroke-linejoin="round" stroke-miterlimit="10" stroke-width="1.2"/>
      <path id="Trazado_1056809" data-name="Trazado 1056809" d="M472.973,230.453h-.8v-5.318h.8a2.659,2.659,0,0,1,2.659,2.659h0A2.659,2.659,0,0,1,472.973,230.453Z" transform="translate(-403.521 -188.993)" fill="none" stroke="#000" stroke-linecap="round" stroke-linejoin="round" stroke-miterlimit="10" stroke-width="1.2"/>
      <path id="Trazado_1056810" data-name="Trazado 1056810" d="M295.6,360.5h26.429a1.063,1.063,0,0,1,1.063,1.063v2.127a1.064,1.064,0,0,1-1.063,1.063h-25" transform="translate(-250.184 -306.543)" fill="none" stroke="#000" stroke-linecap="round" stroke-linejoin="round" stroke-miterlimit="10" stroke-width="1.2"/>
      <path id="Trazado_1056811" data-name="Trazado 1056811" d="M13.187,360.5H8.563A1.063,1.063,0,0,0,7.5,361.563v2.127a1.064,1.064,0,0,0,1.063,1.063h25" transform="translate(0 -306.543)" fill="none" stroke="#000" stroke-linecap="round" stroke-linejoin="round" stroke-miterlimit="10" stroke-width="1.2"/>
      <line id="Línea_1049" data-name="Línea 1049" x1="17.2" transform="translate(17.793 53.957)" fill="none" stroke="#000" stroke-linecap="round" stroke-linejoin="round" stroke-miterlimit="10" stroke-width="1.2"/>
      <path id="Trazado_1056812" data-name="Trazado 1056812" d="M189.693,346.972l1.558,4.647H168.12l7.4-22.081a1.594,1.594,0,0,1,1.512-1.088h5.3a1.594,1.594,0,0,1,1.512,1.088l4.381,13.067" transform="translate(-139.481 -278.711)" fill="none" stroke="#000" stroke-linecap="round" stroke-linejoin="round" stroke-miterlimit="10" stroke-width="1.2"/>
      <line id="Línea_1050" data-name="Línea 1050" x2="31.109" transform="translate(24.65 72.908)" fill="none" stroke="#000" stroke-linecap="round" stroke-linejoin="round" stroke-miterlimit="10" stroke-width="1.2"/>
      <circle id="Elipse_13575" data-name="Elipse 13575" cx="1.994" cy="1.994" r="1.994" transform="translate(38.21 54.09)" fill="none" stroke="#000" stroke-linecap="round" stroke-linejoin="round" stroke-miterlimit="10" stroke-width="1.2"/>
      <circle id="Elipse_13576" data-name="Elipse 13576" cx="10.636" cy="10.636" r="10.636" transform="translate(29.569 7.5)" fill="none" stroke="#000" stroke-linecap="round" stroke-linejoin="round" stroke-miterlimit="10" stroke-width="1.2"/>
      <path id="Trazado_1056813" data-name="Trazado 1056813" d="M227.4,52.591h-7.711a1.064,1.064,0,0,1-1.064-1.064V50.2a1.064,1.064,0,0,1,1.064-1.064H227.4a1.064,1.064,0,0,1,1.064,1.064v1.329A1.064,1.064,0,0,1,227.4,52.591Z" transform="translate(-183.34 -36.155)" fill="none" stroke="#000" stroke-linecap="round" stroke-linejoin="round" stroke-miterlimit="10" stroke-width="1.2"/>
      <path id="Trazado_1056814" data-name="Trazado 1056814" d="M227.4,104.686h-7.711a1.064,1.064,0,0,1-1.064-1.064v-1.329a1.064,1.064,0,0,1,1.064-1.064H227.4a1.064,1.064,0,0,1,1.064,1.064v1.329A1.064,1.064,0,0,1,227.4,104.686Z" transform="translate(-183.34 -81.394)" fill="none" stroke="#000" stroke-linecap="round" stroke-linejoin="round" stroke-miterlimit="10" stroke-width="1.2"/>
    </g>
  </g>
</svg>
