<svg xmlns="http://www.w3.org/2000/svg" xmlns:xlink="http://www.w3.org/1999/xlink" width="113" height="113" viewBox="0 0 113 113">
  <defs>
    <filter id="Trazado_982547" x="0" y="0" width="113" height="113" filterUnits="userSpaceOnUse">
      <feOffset dy="3" input="SourceAlpha"/>
      <feGaussianBlur stdDeviation="3" result="blur"/>
      <feFlood flood-opacity="0.161"/>
      <feComposite operator="in" in2="blur"/>
      <feComposite in="SourceGraphic"/>
    </filter>
  </defs>
  <g id="Grupo_1225405" data-name="Grupo 1225405" transform="translate(-454 -1806.359)">
    <g id="Grupo_1224608" data-name="Grupo 1224608" transform="translate(-658 -3267.062)">
      <g id="Grupo_1209313" data-name="Grupo 1209313" transform="translate(0 3843.205)">
        <g id="Grupo_1209049" data-name="Grupo 1209049">
          <g id="Grupo_1208493" data-name="Grupo 1208493" transform="translate(0 -4397.209)">
            <g id="Grupo_1202104" data-name="Grupo 1202104" transform="translate(0 -1149.226)">
              <g id="Grupo_1201923" data-name="Grupo 1201923" transform="translate(-4174.49 4856.378)">
                <g id="Grupo_1176928" data-name="Grupo 1176928" transform="translate(5295.49 1926.273)">
                  <g id="Grupo_1172322" data-name="Grupo 1172322" transform="translate(0 0)">
                    <g id="Grupo_1164700" data-name="Grupo 1164700">
                      <g id="Grupo_1160931" data-name="Grupo 1160931">
                        <g id="Grupo_1160749" data-name="Grupo 1160749">
                          <g id="Grupo_1158891" data-name="Grupo 1158891">
                            <g id="Grupo_1157406" data-name="Grupo 1157406">
                              <g id="Grupo_1155793" data-name="Grupo 1155793">
                                <g id="Grupo_1154704" data-name="Grupo 1154704">
                                  <g id="Grupo_1150790" data-name="Grupo 1150790">
                                    <g id="Grupo_1154214" data-name="Grupo 1154214">
                                      <g id="Grupo_1152583" data-name="Grupo 1152583">
                                        <g id="Grupo_1146973" data-name="Grupo 1146973">
                                          <g id="Grupo_1146954" data-name="Grupo 1146954">
                                            <g transform="matrix(1, 0, 0, 1, -9, -6)" filter="url(#Trazado_982547)">
                                              <g id="Trazado_982547-2" data-name="Trazado 982547" transform="translate(9 6)" fill="#fcf8db">
                                                <path d="M 47.5000114440918 93.49987030029297 C 41.28938293457031 93.49987030029297 35.26534652709961 92.28384399414062 29.5951976776123 89.88558959960938 C 24.11773109436035 87.56881713867188 19.19814491271973 84.25183868408203 14.97310447692871 80.02680206298828 C 10.74805164337158 75.80176544189453 7.43107795715332 70.88218688964844 5.114304542541504 65.40472412109375 C 2.716038227081299 59.73458862304688 1.500011444091797 53.71054840087891 1.500011444091797 47.49993515014648 C 1.500011444091797 41.28932189941406 2.716038227081299 35.26528167724609 5.114304542541504 29.59514808654785 C 7.43107795715332 24.1176815032959 10.74805164337158 19.1981086730957 14.97310447692871 14.97306823730469 C 19.19814491271973 10.74802875518799 24.11773109436035 7.431055068969727 29.5951976776123 5.11428165435791 C 35.26534652709961 2.716028451919556 41.28938293457031 1.500001788139343 47.5000114440918 1.500001788139343 C 53.71063995361328 1.500001788139343 59.73467636108398 2.716028451919556 65.40482330322266 5.11428165435791 C 70.88229370117188 7.431055068969727 75.8018798828125 10.74802875518799 80.02691650390625 14.97306823730469 C 84.25196838378906 19.1981086730957 87.56894683837891 24.1176815032959 89.88571929931641 29.59514808654785 C 92.28398132324219 35.26528167724609 93.50001525878906 41.28932189941406 93.50001525878906 47.49993515014648 C 93.50001525878906 53.71054840087891 92.28398132324219 59.73458862304688 89.88571929931641 65.40472412109375 C 87.56894683837891 70.88218688964844 84.25196838378906 75.80176544189453 80.02691650390625 80.02680206298828 C 75.8018798828125 84.25183868408203 70.88229370117188 87.56881713867188 65.40482330322266 89.88558959960938 C 59.73467636108398 92.28384399414062 53.71063995361328 93.49987030029297 47.5000114440918 93.49987030029297 Z" stroke="none"/>
                                                <path d="M 47.5000114440918 3 C 41.49122619628906 3 35.66378021240234 4.1761474609375 30.17951965332031 6.495796203613281 C 24.880859375 8.7369384765625 20.12153625488281 11.94596862792969 16.03376770019531 16.03373718261719 C 11.94598388671875 20.12149047851562 8.736968994140625 24.88081359863281 6.495811462402344 30.17947387695312 C 4.176162719726562 35.66371917724609 3.000007629394531 41.49116516113281 3.000007629394531 47.49993515014648 C 3.000007629394531 53.50870513916016 4.176162719726562 59.33615112304688 6.495811462402344 64.82039642333984 C 8.736968994140625 70.11905670166016 11.94598388671875 74.87837982177734 16.03376770019531 78.96613311767578 C 20.12153625488281 83.05390167236328 24.880859375 86.26293182373047 30.17951965332031 88.50407409667969 C 35.66378021240234 90.82372283935547 41.49122619628906 91.99987030029297 47.5000114440918 91.99987030029297 C 53.50879669189453 91.99987030029297 59.33624267578125 90.82372283935547 64.82050323486328 88.50407409667969 C 70.11916351318359 86.26293182373047 74.87848663330078 83.05390167236328 78.96625518798828 78.96613311767578 C 83.05403900146484 74.87837982177734 86.2630615234375 70.11905670166016 88.50421142578125 64.82039642333984 C 90.82386016845703 59.33615112304688 92.00001525878906 53.50870513916016 92.00001525878906 47.49993515014648 C 92.00001525878906 41.49116516113281 90.82386016845703 35.66371917724609 88.50421142578125 30.17947387695312 C 86.2630615234375 24.88081359863281 83.05403900146484 20.12149047851562 78.96625518798828 16.03373718261719 C 74.87848663330078 11.94596862792969 70.11916351318359 8.7369384765625 64.82050323486328 6.495796203613281 C 59.33624267578125 4.1761474609375 53.50879669189453 3 47.5000114440918 3 M 47.5000114440918 0 C 73.73353576660156 0 95.00001525878906 21.26644134521484 95.00001525878906 47.49993515014648 C 95.00001525878906 73.73342895507812 73.73353576660156 94.99987030029297 47.5000114440918 94.99987030029297 C 21.26648712158203 94.99987030029297 7.62939453125e-06 73.73342895507812 7.62939453125e-06 47.49993515014648 C 7.62939453125e-06 21.26644134521484 21.26648712158203 0 47.5000114440918 0 Z" stroke="none" fill="#83793c"/>
                                              </g>
                                            </g>
                                          </g>
                                        </g>
                                      </g>
                                    </g>
                                  </g>
                                </g>
                              </g>
                            </g>
                          </g>
                        </g>
                      </g>
                    </g>
                  </g>
                </g>
              </g>
            </g>
          </g>
        </g>
      </g>
    </g>
    <g id="mind_14752669" transform="translate(417.306 1815.412)">
      <g id="Grupo_1225241" data-name="Grupo 1225241" transform="translate(67.134 7.5)">
        <path id="Trazado_1056843" data-name="Trazado 1056843" d="M121.35,275a30.9,30.9,0,0,0,2.383,8.469,27.48,27.48,0,0,0,3.6,5.717,2.115,2.115,0,0,1-.245,2.9,19.3,19.3,0,0,1-5.509,3.38,18.6,18.6,0,0,1-11.125,1.169H94.959a18.6,18.6,0,0,1-11.125-1.169,19.3,19.3,0,0,1-5.509-3.38,2.115,2.115,0,0,1-.245-2.9,27.475,27.475,0,0,0,3.6-5.717A30.9,30.9,0,0,0,84.06,275Z" transform="translate(-76.145 -237.382)" fill="#da9d81"/>
        <path id="Trazado_1056844" data-name="Trazado 1056844" d="M147.721,294.343c-3.018-4.275-5.242-10.406-5.066-13.907V275h-32.24v5.436c.176,3.5-2.048,9.632-5.066,13.907a21.184,21.184,0,0,0,2.315,1.119,18.6,18.6,0,0,0,11.125,1.169h15.492a18.6,18.6,0,0,0,11.125-1.169A21.171,21.171,0,0,0,147.721,294.343Z" transform="translate(-99.976 -237.382)" fill="#c7856a"/>
        <circle id="Elipse_13579" data-name="Elipse 13579" cx="6.263" cy="6.263" r="6.263" transform="translate(0 32.685)" fill="#ffbe9c"/>
        <circle id="Elipse_13580" data-name="Elipse 13580" cx="6.263" cy="6.263" r="6.263" transform="translate(40.595 32.685)" fill="#ffcabd"/>
        <path id="Trazado_1056845" data-name="Trazado 1056845" d="M159.964,390.788a4.4,4.4,0,0,0,4.207-5.714,18.615,18.615,0,0,0-35.429,0,4.4,4.4,0,0,0,4.207,5.714Z" transform="translate(-119.896 -320.895)" fill="#ff96c0"/>
        <path id="Trazado_1056846" data-name="Trazado 1056846" d="M203.088,372.179l-8.659,8.261a27.811,27.811,0,0,0,17.317,0Z" transform="translate(-176.528 -320.895)" fill="#ff71a7"/>
        <path id="Trazado_1056847" data-name="Trazado 1056847" d="M193.908,382.193a14.419,14.419,0,0,1,1.212,3.463,22.931,22.931,0,0,1,.55,3.264,2.619,2.619,0,0,1-3.344,2.748,18.332,18.332,0,0,1-4.835-2.281,16.533,16.533,0,0,1-3.612-3.178,16.533,16.533,0,0,1-3.612,3.178,18.33,18.33,0,0,1-4.835,2.281,2.619,2.619,0,0,1-3.344-2.748,22.962,22.962,0,0,1,.55-3.264,14.419,14.419,0,0,1,1.212-3.463Z" transform="translate(-157.318 -329.5)" fill="#eeecff"/>
        <path id="Trazado_1056848" data-name="Trazado 1056848" d="M195.973,385.656a14.418,14.418,0,0,0-1.212-3.463H174.7a14.418,14.418,0,0,0-1.212,3.463c-.168.7-.314,1.44-.421,2.179a26.186,26.186,0,0,0,6.988,2.2c.36-.206.716-.422,1.063-.651a16.537,16.537,0,0,0,3.612-3.178,16.53,16.53,0,0,0,3.612,3.178c.347.229.7.446,1.063.651a26.186,26.186,0,0,0,6.988-2.2C196.287,387.1,196.141,386.355,195.973,385.656Z" transform="translate(-158.171 -329.5)" fill="#d3d3ff"/>
        <path id="Trazado_1056849" data-name="Trazado 1056849" d="M133.574,146.177a20.44,20.44,0,0,1,13.376,4.912,18.845,18.845,0,0,1,6.659,14.312,16.889,16.889,0,0,1-4.5,11.638,22.2,22.2,0,0,1-31.078,0,16.89,16.89,0,0,1-4.5-11.638,18.845,18.845,0,0,1,6.659-14.312A20.44,20.44,0,0,1,133.574,146.177Z" transform="translate(-107.014 -126.675)" fill="#ffdcce"/>
        <path id="Trazado_1056850" data-name="Trazado 1056850" d="M134,163.2a20.38,20.38,0,0,0,16.009-8.793,19.613,19.613,0,0,0-3.063-3.321,20.667,20.667,0,0,0-26.751,0A18.845,18.845,0,0,0,113.54,165.4a16.889,16.889,0,0,0,4.5,11.638,20.969,20.969,0,0,0,15.539,6.345,24.332,24.332,0,0,0,2.791-.16c-5.315-4.156-5.221-14.833-3.251-19.406A1.012,1.012,0,0,1,134,163.2Z" transform="translate(-107.014 -126.673)" fill="#ffcabd"/>
        <path id="Trazado_1056851" data-name="Trazado 1056851" d="M124.713,151.166a16.489,16.489,0,0,1,9.789,2.954,16.788,16.788,0,0,1,5.743,7.723,2.116,2.116,0,0,1-1.97,2.862,25.573,25.573,0,0,1-8-1.373,20.463,20.463,0,0,1-8.183-4.982h-8.671a20.464,20.464,0,0,1-8.183,4.982,25.577,25.577,0,0,1-8,1.373,2.116,2.116,0,0,1-1.97-2.862,16.788,16.788,0,0,1,5.743-7.723,16.489,16.489,0,0,1,9.789-2.954Z" transform="translate(-91.201 -130.962)" fill="#da9d81"/>
        <path id="Trazado_1056852" data-name="Trazado 1056852" d="M159.751,155.406a14.891,14.891,0,0,0-1.55-1.286,16.489,16.489,0,0,0-9.789-2.954h-13.9a16.489,16.489,0,0,0-9.789,2.954,15.013,15.013,0,0,0-2,1.733,20.512,20.512,0,0,0,6.119,7.514l.106-.035a20.463,20.463,0,0,0,8.184-4.982H145.8a20.285,20.285,0,0,0,7.836,4.859A20.5,20.5,0,0,0,159.751,155.406Z" transform="translate(-114.9 -130.962)" fill="#c7856a"/>
        <circle id="Elipse_13581" data-name="Elipse 13581" cx="16.162" cy="16.162" r="16.162" transform="translate(10.069 0)" fill="#59d5ff"/>
        <path id="Trazado_1056853" data-name="Trazado 1056853" d="M154.895,7.5a16.162,16.162,0,0,0,0,32.324q.582,0,1.154-.041c-1.718-1.533-1.773-5.32-.528-6.419l.266-18.069c-1.044-1.6-1.488-5.652-.022-7.771Q155.333,7.5,154.895,7.5Z" transform="translate(-128.664 -7.5)" fill="#00c4fc"/>
        <path id="Trazado_1056854" data-name="Trazado 1056854" d="M196.985,58.083l-1.376-.626a1.456,1.456,0,0,1-.782-.876l-.607-1.869a1.456,1.456,0,0,1,.118-1.168l.745-1.315a1.457,1.457,0,0,0-.411-1.9l-2.746-2a1.457,1.457,0,0,0-1.931.2l-1.02,1.115a1.456,1.456,0,0,1-1.075.473h-1.965a1.456,1.456,0,0,1-1.075-.473l-1.02-1.115a1.457,1.457,0,0,0-1.931-.2l-2.746,2a1.457,1.457,0,0,0-.411,1.9l.745,1.315a1.457,1.457,0,0,1,.118,1.168l-.607,1.869a1.457,1.457,0,0,1-.782.876l-1.376.626a1.457,1.457,0,0,0-.782,1.776l1.049,3.229a1.456,1.456,0,0,0,1.677.977l1.481-.3a1.457,1.457,0,0,1,1.148.249l1.59,1.155a1.457,1.457,0,0,1,.591,1.015l.17,1.5a1.457,1.457,0,0,0,1.447,1.293h3.395a1.457,1.457,0,0,0,1.447-1.293l.17-1.5a1.456,1.456,0,0,1,.591-1.015l1.59-1.155a1.456,1.456,0,0,1,1.148-.249l1.481.3a1.457,1.457,0,0,0,1.677-.977l1.049-3.229A1.456,1.456,0,0,0,196.985,58.083Z" transform="translate(-160.686 -42.355)" fill="#5d84d9"/>
        <path id="Trazado_1056855" data-name="Trazado 1056855" d="M187.2,60.674l.048-5.117c-.913-.617-1.407-3.864-.181-5.435h-1.131a1.456,1.456,0,0,1-1.075-.473l-1.02-1.115a1.456,1.456,0,0,0-1.931-.2l-2.746,2a1.457,1.457,0,0,0-.411,1.9l.745,1.315a1.457,1.457,0,0,1,.118,1.168l-.607,1.869a1.457,1.457,0,0,1-.782.876l-1.376.626a1.457,1.457,0,0,0-.782,1.776l1.049,3.229a1.456,1.456,0,0,0,1.677.977l1.481-.3a1.457,1.457,0,0,1,1.148.249l1.59,1.155a1.457,1.457,0,0,1,.591,1.015l.17,1.5a1.457,1.457,0,0,0,1.447,1.293h2.468C186.451,67.784,185.834,62.285,187.2,60.674Z" transform="translate(-160.686 -42.356)" fill="#0070c7"/>
        <circle id="Elipse_13582" data-name="Elipse 13582" cx="2.879" cy="2.879" r="2.879" transform="translate(23.351 12.884)" fill="#eeecff"/>
      </g>
      <g id="Grupo_1225244" data-name="Grupo 1225244" transform="translate(67.134 7.5)">
        <path id="Trazado_1056856" data-name="Trazado 1056856" d="M167.928,14.1a16.088,16.088,0,1,0,2.3,4.434" transform="translate(-128.664 -7.5)" fill="none" stroke="#000" stroke-linecap="round" stroke-linejoin="round" stroke-miterlimit="10" stroke-width="1.2"/>
        <path id="Trazado_1056857" data-name="Trazado 1056857" d="M196.985,58.083l-1.376-.626a1.456,1.456,0,0,1-.782-.876l-.607-1.869a1.456,1.456,0,0,1,.118-1.168l.745-1.315a1.457,1.457,0,0,0-.411-1.9l-2.746-2a1.457,1.457,0,0,0-1.931.2l-1.02,1.115a1.456,1.456,0,0,1-1.075.473h-1.965a1.456,1.456,0,0,1-1.075-.473l-1.02-1.115a1.457,1.457,0,0,0-1.931-.2l-2.746,2a1.457,1.457,0,0,0-.411,1.9l.745,1.315a1.457,1.457,0,0,1,.118,1.168l-.607,1.869a1.457,1.457,0,0,1-.782.876l-1.376.626a1.457,1.457,0,0,0-.782,1.776l1.049,3.229a1.456,1.456,0,0,0,1.677.977l1.481-.3a1.457,1.457,0,0,1,1.148.249l1.59,1.155a1.457,1.457,0,0,1,.591,1.015l.17,1.5a1.457,1.457,0,0,0,1.447,1.293h3.395a1.457,1.457,0,0,0,1.447-1.293l.17-1.5a1.456,1.456,0,0,1,.591-1.015l1.59-1.155a1.456,1.456,0,0,1,1.148-.249l1.481.3a1.457,1.457,0,0,0,1.677-.977l1.049-3.229A1.456,1.456,0,0,0,196.985,58.083Z" transform="translate(-160.686 -42.355)" fill="none" stroke="#000" stroke-linecap="round" stroke-linejoin="round" stroke-miterlimit="10" stroke-width="1.2"/>
        <circle id="Elipse_13583" data-name="Elipse 13583" cx="2.879" cy="2.879" r="2.879" transform="translate(23.351 12.884)" fill="none" stroke="#000" stroke-linecap="round" stroke-linejoin="round" stroke-miterlimit="10" stroke-width="1.2"/>
        <g id="Grupo_1225242" data-name="Grupo 1225242" transform="translate(3.938 21.957)">
          <path id="Trazado_1056858" data-name="Trazado 1056858" d="M102.455,165.687a14.746,14.746,0,0,0-1.435.912,16.788,16.788,0,0,0-5.743,7.723,2.116,2.116,0,0,0,1.97,2.862,25.577,25.577,0,0,0,8-1.373,23.007,23.007,0,0,0,4.427-2.03" transform="translate(-95.14 -165.399)" fill="none" stroke="#000" stroke-linecap="round" stroke-linejoin="round" stroke-miterlimit="10" stroke-width="1.2"/>
          <path id="Trazado_1056859" data-name="Trazado 1056859" d="M311.291,171.827a22.8,22.8,0,0,0,4.743,2.223,25.577,25.577,0,0,0,8,1.373A2.116,2.116,0,0,0,326,172.56a16.787,16.787,0,0,0-5.743-7.723,14.735,14.735,0,0,0-1.98-1.2" transform="translate(-280.894 -163.637)" fill="none" stroke="#000" stroke-linecap="round" stroke-linejoin="round" stroke-miterlimit="10" stroke-width="1.2"/>
        </g>
        <path id="Trazado_1056860" data-name="Trazado 1056860" d="M114.23,247.206a18.515,18.515,0,0,0-.69,5.016,16.889,16.889,0,0,0,4.5,11.638,22.2,22.2,0,0,0,31.078,0,16.889,16.889,0,0,0,4.5-11.638,18.516,18.516,0,0,0-.69-5.016" transform="translate(-107.014 -213.496)" fill="none" stroke="#000" stroke-linecap="round" stroke-linejoin="round" stroke-miterlimit="10" stroke-width="1.2"/>
        <path id="Trazado_1056861" data-name="Trazado 1056861" d="M71.549,241.893a6.263,6.263,0,0,0,3.273,12.083" transform="translate(-67.134 -208.931)" fill="none" stroke="#000" stroke-linecap="round" stroke-linejoin="round" stroke-miterlimit="10" stroke-width="1.2"/>
        <path id="Trazado_1056862" data-name="Trazado 1056862" d="M393.469,241.893a6.263,6.263,0,0,1-3.273,12.083" transform="translate(-344.764 -208.931)" fill="none" stroke="#000" stroke-linecap="round" stroke-linejoin="round" stroke-miterlimit="10" stroke-width="1.2"/>
        <path id="Trazado_1056863" data-name="Trazado 1056863" d="M194.531,392.381c.207.592.41,1.287.59,2.031a22.951,22.951,0,0,1,.55,3.264,2.619,2.619,0,0,1-3.344,2.748,18.338,18.338,0,0,1-4.835-2.281,16.534,16.534,0,0,1-3.612-3.178,16.534,16.534,0,0,1-3.612,3.178,18.334,18.334,0,0,1-4.835,2.281,2.619,2.619,0,0,1-3.344-2.748,22.968,22.968,0,0,1,.55-3.264c.179-.744.383-1.439.59-2.031" transform="translate(-157.319 -338.256)" fill="none" stroke="#000" stroke-linecap="round" stroke-linejoin="round" stroke-miterlimit="10" stroke-width="1.2"/>
        <path id="Trazado_1056864" data-name="Trazado 1056864" d="M227.385,412.216h17.532a4.4,4.4,0,0,0,4.207-5.714,18.644,18.644,0,0,0-6.845-9.388" transform="translate(-204.849 -342.324)" fill="none" stroke="#000" stroke-linecap="round" stroke-linejoin="round" stroke-miterlimit="10" stroke-width="1.2"/>
        <path id="Trazado_1056865" data-name="Trazado 1056865" d="M135.587,397.114a18.646,18.646,0,0,0-6.845,9.388,4.4,4.4,0,0,0,4.207,5.714h4.472" transform="translate(-119.896 -342.323)" fill="none" stroke="#000" stroke-linecap="round" stroke-linejoin="round" stroke-miterlimit="10" stroke-width="1.2"/>
        <path id="Trazado_1056866" data-name="Trazado 1056866" d="M364.339,342.93a21.526,21.526,0,0,0,3.635-1.131,19.3,19.3,0,0,0,5.509-3.38,2.115,2.115,0,0,0,.245-2.9,27.475,27.475,0,0,1-3.6-5.717q-.2-.437-.387-.886" transform="translate(-322.543 -283.718)" fill="none" stroke="#000" stroke-linecap="round" stroke-linejoin="round" stroke-miterlimit="10" stroke-width="1.2"/>
        <path id="Trazado_1056867" data-name="Trazado 1056867" d="M82.063,328.918q-.186.449-.387.886a27.481,27.481,0,0,1-3.6,5.717,2.116,2.116,0,0,0,.245,2.9,19.3,19.3,0,0,0,5.509,3.38,21.52,21.52,0,0,0,3.635,1.131" transform="translate(-76.144 -283.717)" fill="none" stroke="#000" stroke-linecap="round" stroke-linejoin="round" stroke-miterlimit="10" stroke-width="1.2"/>
        <g id="Grupo_1225243" data-name="Grupo 1225243" transform="translate(15.973 38.856)">
          <path id="Trazado_1056868" data-name="Trazado 1056868" d="M184.585,285.736a1.936,1.936,0,0,0-3.872,0" transform="translate(-180.713 -283.8)" fill="none" stroke="#000" stroke-linecap="round" stroke-linejoin="round" stroke-miterlimit="10" stroke-width="1.2"/>
          <path id="Trazado_1056869" data-name="Trazado 1056869" d="M303.757,285.736a1.936,1.936,0,0,1,3.872,0" transform="translate(-286.453 -283.8)" fill="none" stroke="#000" stroke-linecap="round" stroke-linejoin="round" stroke-miterlimit="10" stroke-width="1.2"/>
          <path id="Trazado_1056870" data-name="Trazado 1056870" d="M241.4,313.653a2.721,2.721,0,0,0,4.107,0" transform="translate(-232.865 -309.455)" fill="none" stroke="#000" stroke-linecap="round" stroke-linejoin="round" stroke-miterlimit="10" stroke-width="1.2"/>
        </g>
      </g>
    </g>
  </g>
</svg>
