<svg xmlns="http://www.w3.org/2000/svg" xmlns:xlink="http://www.w3.org/1999/xlink" width="113" height="113" viewBox="0 0 113 113">
  <defs>
    <filter id="Trazado_982547" x="0" y="0" width="113" height="113" filterUnits="userSpaceOnUse">
      <feOffset dy="3" input="SourceAlpha"/>
      <feGaussianBlur stdDeviation="3" result="blur"/>
      <feFlood flood-opacity="0.161"/>
      <feComposite operator="in" in2="blur"/>
      <feComposite in="SourceGraphic"/>
    </filter>
  </defs>
  <g id="Grupo_1224562" data-name="Grupo 1224562" transform="translate(-793.49 -1733.957)">
    <g id="Grupo_1209304" data-name="Grupo 1209304" transform="translate(0 503.742)">
      <g id="Grupo_1208492" data-name="Grupo 1208492" transform="translate(0 -4397.209)">
        <g id="Grupo_1177675" data-name="Grupo 1177675" transform="translate(-4493 3707.152)">
          <g id="Grupo_1176928" data-name="Grupo 1176928" transform="translate(5295.49 1926.273)">
            <g id="Grupo_1172322" data-name="Grupo 1172322" transform="translate(0 0)">
              <g id="Grupo_1164700" data-name="Grupo 1164700">
                <g id="Grupo_1160931" data-name="Grupo 1160931">
                  <g id="Grupo_1160749" data-name="Grupo 1160749">
                    <g id="Grupo_1158891" data-name="Grupo 1158891">
                      <g id="Grupo_1157406" data-name="Grupo 1157406">
                        <g id="Grupo_1155793" data-name="Grupo 1155793">
                          <g id="Grupo_1154704" data-name="Grupo 1154704">
                            <g id="Grupo_1150790" data-name="Grupo 1150790">
                              <g id="Grupo_1154214" data-name="Grupo 1154214">
                                <g id="Grupo_1152583" data-name="Grupo 1152583">
                                  <g id="Grupo_1146973" data-name="Grupo 1146973">
                                    <g id="Grupo_1146954" data-name="Grupo 1146954">
                                      <g transform="matrix(1, 0, 0, 1, -9, -6)" filter="url(#Trazado_982547)">
                                        <g id="Trazado_982547-2" data-name="Trazado 982547" transform="translate(9 6)" fill="#fcf8db">
                                          <path d="M 47.5000114440918 93.49987030029297 C 41.28938293457031 93.49987030029297 35.26534652709961 92.28384399414062 29.5951976776123 89.88558959960938 C 24.11773109436035 87.56881713867188 19.19814491271973 84.25183868408203 14.97310447692871 80.02680206298828 C 10.74805164337158 75.80176544189453 7.43107795715332 70.88218688964844 5.114304542541504 65.40472412109375 C 2.716038227081299 59.73458862304688 1.500011444091797 53.71054840087891 1.500011444091797 47.49993515014648 C 1.500011444091797 41.28932189941406 2.716038227081299 35.26528167724609 5.114304542541504 29.59514808654785 C 7.43107795715332 24.1176815032959 10.74805164337158 19.1981086730957 14.97310447692871 14.97306823730469 C 19.19814491271973 10.74802875518799 24.11773109436035 7.431055068969727 29.5951976776123 5.11428165435791 C 35.26534652709961 2.716028451919556 41.28938293457031 1.500001788139343 47.5000114440918 1.500001788139343 C 53.71063995361328 1.500001788139343 59.73467636108398 2.716028451919556 65.40482330322266 5.11428165435791 C 70.88229370117188 7.431055068969727 75.8018798828125 10.74802875518799 80.02691650390625 14.97306823730469 C 84.25196838378906 19.1981086730957 87.56894683837891 24.1176815032959 89.88571929931641 29.59514808654785 C 92.28398132324219 35.26528167724609 93.50001525878906 41.28932189941406 93.50001525878906 47.49993515014648 C 93.50001525878906 53.71054840087891 92.28398132324219 59.73458862304688 89.88571929931641 65.40472412109375 C 87.56894683837891 70.88218688964844 84.25196838378906 75.80176544189453 80.02691650390625 80.02680206298828 C 75.8018798828125 84.25183868408203 70.88229370117188 87.56881713867188 65.40482330322266 89.88558959960938 C 59.73467636108398 92.28384399414062 53.71063995361328 93.49987030029297 47.5000114440918 93.49987030029297 Z" stroke="none"/>
                                          <path d="M 47.5000114440918 3 C 41.49122619628906 3 35.66378021240234 4.1761474609375 30.17951965332031 6.495796203613281 C 24.880859375 8.7369384765625 20.12153625488281 11.94596862792969 16.03376770019531 16.03373718261719 C 11.94598388671875 20.12149047851562 8.736968994140625 24.88081359863281 6.495811462402344 30.17947387695312 C 4.176162719726562 35.66371917724609 3.000007629394531 41.49116516113281 3.000007629394531 47.49993515014648 C 3.000007629394531 53.50870513916016 4.176162719726562 59.33615112304688 6.495811462402344 64.82039642333984 C 8.736968994140625 70.11905670166016 11.94598388671875 74.87837982177734 16.03376770019531 78.96613311767578 C 20.12153625488281 83.05390167236328 24.880859375 86.26293182373047 30.17951965332031 88.50407409667969 C 35.66378021240234 90.82372283935547 41.49122619628906 91.99987030029297 47.5000114440918 91.99987030029297 C 53.50879669189453 91.99987030029297 59.33624267578125 90.82372283935547 64.82050323486328 88.50407409667969 C 70.11916351318359 86.26293182373047 74.87848663330078 83.05390167236328 78.96625518798828 78.96613311767578 C 83.05403900146484 74.87837982177734 86.2630615234375 70.11905670166016 88.50421142578125 64.82039642333984 C 90.82386016845703 59.33615112304688 92.00001525878906 53.50870513916016 92.00001525878906 47.49993515014648 C 92.00001525878906 41.49116516113281 90.82386016845703 35.66371917724609 88.50421142578125 30.17947387695312 C 86.2630615234375 24.88081359863281 83.05403900146484 20.12149047851562 78.96625518798828 16.03373718261719 C 74.87848663330078 11.94596862792969 70.11916351318359 8.7369384765625 64.82050323486328 6.495796203613281 C 59.33624267578125 4.1761474609375 53.50879669189453 3 47.5000114440918 3 M 47.5000114440918 0 C 73.73353576660156 0 95.00001525878906 21.26644134521484 95.00001525878906 47.49993515014648 C 95.00001525878906 73.73342895507812 73.73353576660156 94.99987030029297 47.5000114440918 94.99987030029297 C 21.26648712158203 94.99987030029297 7.62939453125e-06 73.73342895507812 7.62939453125e-06 47.49993515014648 C 7.62939453125e-06 21.26644134521484 21.26648712158203 0 47.5000114440918 0 Z" stroke="none" fill="#83793c"/>
                                        </g>
                                      </g>
                                    </g>
                                  </g>
                                </g>
                              </g>
                            </g>
                          </g>
                        </g>
                      </g>
                    </g>
                  </g>
                </g>
              </g>
            </g>
          </g>
        </g>
      </g>
    </g>
    <g id="financial-profit_9843718" transform="translate(817.101 1727.906)">
      <path id="Trazado_1056334" data-name="Trazado 1056334" d="M8.7,282.506h8.742a1.7,1.7,0,0,1,1.7,1.7v18.165a1.705,1.705,0,0,1-1.7,1.7H8.7a1.705,1.705,0,0,1-1.7-1.7V284.2a1.7,1.7,0,0,1,1.7-1.7Z" transform="translate(-6.101 -219.55)" fill="#56a5e6" fill-rule="evenodd"/>
      <path id="Trazado_1056335" data-name="Trazado 1056335" d="M371.874,206.192h4.594v21.094h-4.594Z" transform="translate(-324.098 -153.04)" fill="#ffba57"/>
      <path id="Trazado_1056336" data-name="Trazado 1056336" d="M430.235,172.659h4.594V198.1h-4.594Z" transform="translate(-374.961 -123.815)" fill="#3bb54a"/>
      <path id="Trazado_1056337" data-name="Trazado 1056337" d="M312.986,239.24h4.6v16.935h-4.6Z" transform="translate(-272.776 -181.842)" fill="#feda43" stroke="#feda43" stroke-miterlimit="10" stroke-width="0.227"/>
      <path id="Trazado_1056338" data-name="Trazado 1056338" d="M70.146,37.983l.74,2.66a10.6,10.6,0,0,1,1.874.776l2.4-1.357a12.956,12.956,0,0,1,3.3,3.3l-1.357,2.4a10.382,10.382,0,0,1,.776,1.874l2.66.737a12.947,12.947,0,0,1,0,4.672l-2.66.737a10.375,10.375,0,0,1-.776,1.874l1.357,2.4a12.952,12.952,0,0,1-3.3,3.3l-2.4-1.36a10.611,10.611,0,0,1-1.874.779l-.74,2.66a13.139,13.139,0,0,1-4.669,0l-.74-2.66a10.355,10.355,0,0,1-1.874-.779l-2.4,1.36a13.023,13.023,0,0,1-3.3-3.305l1.36-2.4a10.376,10.376,0,0,1-.776-1.874l-2.66-.737a12.947,12.947,0,0,1,0-4.672l2.66-.737a10.381,10.381,0,0,1,.776-1.874l-1.36-2.4a13.027,13.027,0,0,1,3.3-3.3l2.4,1.357a10.6,10.6,0,0,1,1.874-.776l.74-2.66A13.147,13.147,0,0,1,70.146,37.983Z" transform="translate(-47.819 -6.259)" fill="#ffba57" fill-rule="evenodd"/>
      <path id="Trazado_1056339" data-name="Trazado 1056339" d="M109.473,101.2a6.8,6.8,0,1,0-6.8-6.8A6.8,6.8,0,0,0,109.473,101.2Z" transform="translate(-89.481 -49.68)" fill="#eaf6ff" fill-rule="evenodd"/>
      <path id="Trazado_1056340" data-name="Trazado 1056340" d="M4.364,65.015a1.029,1.029,0,0,0-1.029,1.029V81.429a1.029,1.029,0,1,0,2.058,0V66.044a1.028,1.028,0,0,0-1.029-1.029Zm0,0a1.029,1.029,0,0,0-1.029,1.029V81.429a1.029,1.029,0,1,0,2.058,0V66.044a1.028,1.028,0,0,0-1.029-1.029Zm0,0a1.029,1.029,0,0,0-1.029,1.029V81.429a1.029,1.029,0,1,0,2.058,0V66.044a1.028,1.028,0,0,0-1.029-1.029Zm0,0a1.029,1.029,0,0,0-1.029,1.029V81.429a1.029,1.029,0,1,0,2.058,0V66.044a1.028,1.028,0,0,0-1.029-1.029Zm0,0a1.029,1.029,0,0,0-1.029,1.029V81.429a1.029,1.029,0,1,0,2.058,0V66.044a1.028,1.028,0,0,0-1.029-1.029Zm0,0a1.029,1.029,0,0,0-1.029,1.029V81.429a1.029,1.029,0,1,0,2.058,0V66.044a1.028,1.028,0,0,0-1.029-1.029ZM56.21,76.94h-.049l-16.751.79a4.852,4.852,0,0,0-1.679-3.812L25.353,63.247a1.032,1.032,0,0,0-.874-.23L14.347,65.04V62.824A1.028,1.028,0,0,0,13.32,61.8H1.029A1.029,1.029,0,0,0,0,62.824V84.648a1.029,1.029,0,0,0,1.029,1.029H13.32a1.028,1.028,0,0,0,1.028-1.029V81.416h2.844L25.6,88.279a1.031,1.031,0,0,0,.65.231.952.952,0,0,0,.135-.009L54.8,84.761l.058-.009c.211-.041.429-.077.649-.113a8.154,8.154,0,0,0,2.806-.826,3.349,3.349,0,0,0,1.665-3.105A3.771,3.771,0,0,0,56.21,76.94ZM12.291,83.619H2.057V63.853H12.291Zm42.875-1.01c-.226.037-.45.075-.667.116L26.561,86.4,18.208,79.59a1.023,1.023,0,0,0-.65-.231h-3.21V67.138L24.39,65.133l12,10.346a2.839,2.839,0,0,1,.294,3.945,2.807,2.807,0,0,1-3.947.29L26.842,74.63A1.029,1.029,0,1,0,25.5,76.189l5.893,5.085a4.87,4.87,0,0,0,6.848-.506,4.79,4.79,0,0,0,.64-.952L56.232,79a1.71,1.71,0,0,1,1.684,1.71C57.916,81.963,57.3,82.255,55.165,82.609Zm-50.8-.152a1.029,1.029,0,0,0,1.029-1.029V66.044a1.029,1.029,0,1,0-2.058,0V81.429a1.03,1.03,0,0,0,1.029,1.029Zm0-17.443a1.029,1.029,0,0,0-1.029,1.029V81.429a1.029,1.029,0,1,0,2.058,0V66.044a1.028,1.028,0,0,0-1.029-1.029Zm0,0a1.029,1.029,0,0,0-1.029,1.029V81.429a1.029,1.029,0,1,0,2.058,0V66.044a1.028,1.028,0,0,0-1.029-1.029Zm0,0a1.029,1.029,0,0,0-1.029,1.029V81.429a1.029,1.029,0,1,0,2.058,0V66.044a1.028,1.028,0,0,0-1.029-1.029Zm0,0a1.029,1.029,0,0,0-1.029,1.029V81.429a1.029,1.029,0,1,0,2.058,0V66.044a1.028,1.028,0,0,0-1.029-1.029Zm0,0a1.029,1.029,0,0,0-1.029,1.029V81.429a1.029,1.029,0,1,0,2.058,0V66.044a1.028,1.028,0,0,0-1.029-1.029Zm0,0a1.029,1.029,0,0,0-1.029,1.029V81.429a1.029,1.029,0,1,0,2.058,0V66.044a1.028,1.028,0,0,0-1.029-1.029Zm55.17-16.992H55.606a1.029,1.029,0,0,0-1.029,1.029V74.073A1.029,1.029,0,0,0,55.606,75.1h3.928a1.03,1.03,0,0,0,1.029-1.029V49.051A1.03,1.03,0,0,0,59.534,48.022ZM58.505,73.044H56.634V50.08h1.872ZM52,52.418H48.075a1.028,1.028,0,0,0-1.028,1.029V74.073A1.029,1.029,0,0,0,48.075,75.1H52a1.03,1.03,0,0,0,1.029-1.029V53.447A1.029,1.029,0,0,0,52,52.418ZM50.975,73.044H49.1V54.475h1.872Zm-6.5-16.415h-3.93a1.028,1.028,0,0,0-1.028,1.029V74.073A1.029,1.029,0,0,0,40.543,75.1h3.93A1.03,1.03,0,0,0,45.5,74.073V57.657a1.029,1.029,0,0,0-1.029-1.029ZM43.444,73.044H41.572V58.685h1.872Zm22.2-34.022a1.029,1.029,0,0,0-.892-.514H56.93a1.028,1.028,0,0,0,0,2.057h3.981L34.88,55.593a1.029,1.029,0,1,0,1.029,1.782L61.938,42.348l-1.987,3.444a1.028,1.028,0,1,0,1.782,1.028l3.908-6.769a1.03,1.03,0,0,0,0-1.03ZM19.995,36.807a7.911,7.911,0,1,0,7.911,7.911,7.911,7.911,0,0,0-7.911-7.911Zm0,13.765a5.854,5.854,0,1,1,5.853-5.854A5.855,5.855,0,0,1,19.995,50.572Zm0-13.765a7.911,7.911,0,1,0,7.911,7.911A7.911,7.911,0,0,0,19.995,36.807Zm0,13.765a5.854,5.854,0,1,1,5.853-5.854A5.855,5.855,0,0,1,19.995,50.572Zm0-13.765a7.911,7.911,0,1,0,7.911,7.911A7.911,7.911,0,0,0,19.995,36.807Zm0,13.765a5.854,5.854,0,1,1,5.853-5.854A5.855,5.855,0,0,1,19.995,50.572Zm0-13.765a7.911,7.911,0,1,0,7.911,7.911A7.911,7.911,0,0,0,19.995,36.807Zm0,13.765a5.854,5.854,0,1,1,5.853-5.854A5.855,5.855,0,0,1,19.995,50.572Zm0-13.765a7.911,7.911,0,1,0,7.911,7.911A7.911,7.911,0,0,0,19.995,36.807Zm0,13.765a5.854,5.854,0,1,1,5.853-5.854A5.855,5.855,0,0,1,19.995,50.572Zm0-13.765a7.911,7.911,0,1,0,7.911,7.911A7.911,7.911,0,0,0,19.995,36.807Zm0,13.765a5.854,5.854,0,1,1,5.853-5.854A5.855,5.855,0,0,1,19.995,50.572Zm13.9-8.4a1.024,1.024,0,0,0-.737-.808l-2.163-.6c-.126-.348-.267-.691-.424-1.023l1.1-1.957a1.026,1.026,0,0,0-.05-1.091,14.15,14.15,0,0,0-3.6-3.6,1.029,1.029,0,0,0-1.092-.049l-1.951,1.106c-.335-.159-.677-.3-1.023-.425l-.6-2.162a1.028,1.028,0,0,0-.809-.737,14.21,14.21,0,0,0-5.1,0,1.029,1.029,0,0,0-.8.736l-.6,2.162c-.346.125-.687.266-1.023.425L13.061,33.04a1.028,1.028,0,0,0-1.093.049,14.209,14.209,0,0,0-3.6,3.6,1.029,1.029,0,0,0-.05,1.092L9.422,39.74c-.158.337-.3.678-.424,1.024l-2.163.6a1.03,1.03,0,0,0-.736.8,14.183,14.183,0,0,0,0,5.1,1.028,1.028,0,0,0,.736.8l2.163.6c.123.346.266.687.424,1.024L8.316,51.648a1.031,1.031,0,0,0,.049,1.092,14.173,14.173,0,0,0,3.6,3.6,1.029,1.029,0,0,0,1.092.05l1.955-1.1c.333.155.674.3,1.024.424l.6,2.163a1.03,1.03,0,0,0,.808.737,14.134,14.134,0,0,0,5.093,0,1.028,1.028,0,0,0,.809-.737l.6-2.163c.349-.126.691-.269,1.023-.424l1.953,1.1a1.026,1.026,0,0,0,1.091-.05,14.114,14.114,0,0,0,3.6-3.6,1.031,1.031,0,0,0,.049-1.092l-1.1-1.951q.235-.5.424-1.023l2.163-.6a1.03,1.03,0,0,0,.739-.808,14.457,14.457,0,0,0,.227-2.546,14.271,14.271,0,0,0-.229-2.546Zm-1.927,4.1-2.05.569a1.032,1.032,0,0,0-.709.689,9.734,9.734,0,0,1-.71,1.716,1.032,1.032,0,0,0,.011.99l1.047,1.851a12.051,12.051,0,0,1-2.192,2.193l-1.852-1.047a1.031,1.031,0,0,0-.991-.013,9.716,9.716,0,0,1-1.715.712,1.028,1.028,0,0,0-.688.708l-.569,2.052a11.98,11.98,0,0,1-3.1,0l-.569-2.052a1.028,1.028,0,0,0-.689-.708,9.719,9.719,0,0,1-1.715-.712,1.031,1.031,0,0,0-.991.013l-1.855,1.047a12.128,12.128,0,0,1-2.193-2.192l1.049-1.851a1.03,1.03,0,0,0,.013-.992,9.513,9.513,0,0,1-.709-1.711,1.031,1.031,0,0,0-.71-.694l-2.053-.57a12.182,12.182,0,0,1,0-3.1l2.053-.569a1.029,1.029,0,0,0,.71-.694,9.547,9.547,0,0,1,.709-1.711,1.031,1.031,0,0,0-.012-.991l-1.049-1.854a12.118,12.118,0,0,1,2.192-2.192l1.854,1.05a1.03,1.03,0,0,0,.992.013,9.419,9.419,0,0,1,1.71-.71,1.024,1.024,0,0,0,.694-.709l.57-2.053a12.084,12.084,0,0,1,3.1,0l.569,2.052a1.025,1.025,0,0,0,.694.709,9.416,9.416,0,0,1,1.71.71,1.03,1.03,0,0,0,.992-.013l1.851-1.05a12.088,12.088,0,0,1,2.191,2.193L28.5,39.206a1.026,1.026,0,0,0-.011.989,9.729,9.729,0,0,1,.71,1.716,1.032,1.032,0,0,0,.709.689l2.05.569a12.341,12.341,0,0,1,0,3.1Zm-11.968-9.46a7.911,7.911,0,1,0,7.911,7.911A7.911,7.911,0,0,0,19.995,36.807Zm0,13.765a5.854,5.854,0,1,1,5.853-5.854A5.855,5.855,0,0,1,19.995,50.572Zm0-13.765a7.911,7.911,0,1,0,7.911,7.911A7.911,7.911,0,0,0,19.995,36.807Zm0,13.765a5.854,5.854,0,1,1,5.853-5.854A5.855,5.855,0,0,1,19.995,50.572Zm0-13.765a7.911,7.911,0,1,0,7.911,7.911A7.911,7.911,0,0,0,19.995,36.807Zm0,13.765a5.854,5.854,0,1,1,5.853-5.854A5.855,5.855,0,0,1,19.995,50.572Zm0-13.765a7.911,7.911,0,1,0,7.911,7.911A7.911,7.911,0,0,0,19.995,36.807Zm0,13.765a5.854,5.854,0,1,1,5.853-5.854A5.855,5.855,0,0,1,19.995,50.572Zm0-13.765a7.911,7.911,0,1,0,7.911,7.911A7.911,7.911,0,0,0,19.995,36.807Zm0,13.765a5.854,5.854,0,1,1,5.853-5.854A5.855,5.855,0,0,1,19.995,50.572Zm0-13.765a7.911,7.911,0,1,0,7.911,7.911A7.911,7.911,0,0,0,19.995,36.807Zm0,13.765a5.854,5.854,0,1,1,5.853-5.854A5.855,5.855,0,0,1,19.995,50.572Zm0-13.765a7.911,7.911,0,1,0,7.911,7.911A7.911,7.911,0,0,0,19.995,36.807Zm0,13.765a5.854,5.854,0,1,1,5.853-5.854A5.855,5.855,0,0,1,19.995,50.572Z" transform="translate(0 0)" fill="#231f20"/>
      <path id="Trazado_1056341" data-name="Trazado 1056341" d="M155.24,315.026c0,1.255-.619,1.547-2.751,1.9-.226.037-.45.075-.667.116l-27.939,3.678-8.353-6.813a1.023,1.023,0,0,0-.65-.231H111.67V301.455l10.043-2.005,12,10.346a2.839,2.839,0,0,1,.294,3.945,2.807,2.807,0,0,1-3.947.29l-5.893-5.084a1.029,1.029,0,1,0-1.344,1.558l5.893,5.085a4.871,4.871,0,0,0,6.849-.506,4.79,4.79,0,0,0,.64-.952l17.353-.817A1.711,1.711,0,0,1,155.24,315.026Z" transform="translate(-97.323 -234.317)" fill="#fbbd80"/>
    </g>
  </g>
</svg>
