<svg xmlns="http://www.w3.org/2000/svg" xmlns:xlink="http://www.w3.org/1999/xlink" width="113" height="113" viewBox="0 0 113 113">
  <defs>
    <filter id="Trazado_982547" x="0" y="0" width="113" height="113" filterUnits="userSpaceOnUse">
      <feOffset dy="3" input="SourceAlpha"/>
      <feGaussianBlur stdDeviation="3" result="blur"/>
      <feFlood flood-opacity="0.161"/>
      <feComposite operator="in" in2="blur"/>
      <feComposite in="SourceGraphic"/>
    </filter>
  </defs>
  <g id="Grupo_1224570" data-name="Grupo 1224570" transform="translate(-457 -1740.957)">
    <g id="Grupo_1224569" data-name="Grupo 1224569">
      <g id="Grupo_1209306" data-name="Grupo 1209306" transform="translate(-655 510.742)">
        <g id="Grupo_1209049" data-name="Grupo 1209049">
          <g id="Grupo_1208493" data-name="Grupo 1208493" transform="translate(0 -4397.209)">
            <g id="Grupo_1202104" data-name="Grupo 1202104" transform="translate(0 -1149.226)">
              <g id="Grupo_1201923" data-name="Grupo 1201923" transform="translate(-4174.49 4856.378)">
                <g id="Grupo_1176928" data-name="Grupo 1176928" transform="translate(5295.49 1926.273)">
                  <g id="Grupo_1172322" data-name="Grupo 1172322" transform="translate(0 0)">
                    <g id="Grupo_1164700" data-name="Grupo 1164700">
                      <g id="Grupo_1160931" data-name="Grupo 1160931">
                        <g id="Grupo_1160749" data-name="Grupo 1160749">
                          <g id="Grupo_1158891" data-name="Grupo 1158891">
                            <g id="Grupo_1157406" data-name="Grupo 1157406">
                              <g id="Grupo_1155793" data-name="Grupo 1155793">
                                <g id="Grupo_1154704" data-name="Grupo 1154704">
                                  <g id="Grupo_1150790" data-name="Grupo 1150790">
                                    <g id="Grupo_1154214" data-name="Grupo 1154214">
                                      <g id="Grupo_1152583" data-name="Grupo 1152583">
                                        <g id="Grupo_1146973" data-name="Grupo 1146973">
                                          <g id="Grupo_1146954" data-name="Grupo 1146954">
                                            <g transform="matrix(1, 0, 0, 1, -9, -6)" filter="url(#Trazado_982547)">
                                              <g id="Trazado_982547-2" data-name="Trazado 982547" transform="translate(9 6)" fill="#fcf8db">
                                                <path d="M 47.5000114440918 93.49987030029297 C 41.28938293457031 93.49987030029297 35.26534652709961 92.28384399414062 29.5951976776123 89.88558959960938 C 24.11773109436035 87.56881713867188 19.19814491271973 84.25183868408203 14.97310447692871 80.02680206298828 C 10.74805164337158 75.80176544189453 7.43107795715332 70.88218688964844 5.114304542541504 65.40472412109375 C 2.716038227081299 59.73458862304688 1.500011444091797 53.71054840087891 1.500011444091797 47.49993515014648 C 1.500011444091797 41.28932189941406 2.716038227081299 35.26528167724609 5.114304542541504 29.59514808654785 C 7.43107795715332 24.1176815032959 10.74805164337158 19.1981086730957 14.97310447692871 14.97306823730469 C 19.19814491271973 10.74802875518799 24.11773109436035 7.431055068969727 29.5951976776123 5.11428165435791 C 35.26534652709961 2.716028451919556 41.28938293457031 1.500001788139343 47.5000114440918 1.500001788139343 C 53.71063995361328 1.500001788139343 59.73467636108398 2.716028451919556 65.40482330322266 5.11428165435791 C 70.88229370117188 7.431055068969727 75.8018798828125 10.74802875518799 80.02691650390625 14.97306823730469 C 84.25196838378906 19.1981086730957 87.56894683837891 24.1176815032959 89.88571929931641 29.59514808654785 C 92.28398132324219 35.26528167724609 93.50001525878906 41.28932189941406 93.50001525878906 47.49993515014648 C 93.50001525878906 53.71054840087891 92.28398132324219 59.73458862304688 89.88571929931641 65.40472412109375 C 87.56894683837891 70.88218688964844 84.25196838378906 75.80176544189453 80.02691650390625 80.02680206298828 C 75.8018798828125 84.25183868408203 70.88229370117188 87.56881713867188 65.40482330322266 89.88558959960938 C 59.73467636108398 92.28384399414062 53.71063995361328 93.49987030029297 47.5000114440918 93.49987030029297 Z" stroke="none"/>
                                                <path d="M 47.5000114440918 3 C 41.49122619628906 3 35.66378021240234 4.1761474609375 30.17951965332031 6.495796203613281 C 24.880859375 8.7369384765625 20.12153625488281 11.94596862792969 16.03376770019531 16.03373718261719 C 11.94598388671875 20.12149047851562 8.736968994140625 24.88081359863281 6.495811462402344 30.17947387695312 C 4.176162719726562 35.66371917724609 3.000007629394531 41.49116516113281 3.000007629394531 47.49993515014648 C 3.000007629394531 53.50870513916016 4.176162719726562 59.33615112304688 6.495811462402344 64.82039642333984 C 8.736968994140625 70.11905670166016 11.94598388671875 74.87837982177734 16.03376770019531 78.96613311767578 C 20.12153625488281 83.05390167236328 24.880859375 86.26293182373047 30.17951965332031 88.50407409667969 C 35.66378021240234 90.82372283935547 41.49122619628906 91.99987030029297 47.5000114440918 91.99987030029297 C 53.50879669189453 91.99987030029297 59.33624267578125 90.82372283935547 64.82050323486328 88.50407409667969 C 70.11916351318359 86.26293182373047 74.87848663330078 83.05390167236328 78.96625518798828 78.96613311767578 C 83.05403900146484 74.87837982177734 86.2630615234375 70.11905670166016 88.50421142578125 64.82039642333984 C 90.82386016845703 59.33615112304688 92.00001525878906 53.50870513916016 92.00001525878906 47.49993515014648 C 92.00001525878906 41.49116516113281 90.82386016845703 35.66371917724609 88.50421142578125 30.17947387695312 C 86.2630615234375 24.88081359863281 83.05403900146484 20.12149047851562 78.96625518798828 16.03373718261719 C 74.87848663330078 11.94596862792969 70.11916351318359 8.7369384765625 64.82050323486328 6.495796203613281 C 59.33624267578125 4.1761474609375 53.50879669189453 3 47.5000114440918 3 M 47.5000114440918 0 C 73.73353576660156 0 95.00001525878906 21.26644134521484 95.00001525878906 47.49993515014648 C 95.00001525878906 73.73342895507812 73.73353576660156 94.99987030029297 47.5000114440918 94.99987030029297 C 21.26648712158203 94.99987030029297 7.62939453125e-06 73.73342895507812 7.62939453125e-06 47.49993515014648 C 7.62939453125e-06 21.26644134521484 21.26648712158203 0 47.5000114440918 0 Z" stroke="none" fill="#83793c"/>
                                              </g>
                                            </g>
                                          </g>
                                        </g>
                                      </g>
                                    </g>
                                  </g>
                                </g>
                              </g>
                            </g>
                          </g>
                        </g>
                      </g>
                    </g>
                  </g>
                </g>
              </g>
            </g>
          </g>
        </g>
      </g>
      <g id="management_11268784" transform="translate(465.113 1751.605)">
        <g id="Grupo_1224568" data-name="Grupo 1224568" transform="translate(15.563 9.285)">
          <g id="Grupo_1224564" data-name="Grupo 1224564" transform="translate(13.983 0)">
            <path id="Trazado_1056342" data-name="Trazado 1056342" d="M144.526,20.273a16.083,16.083,0,0,1,4.709,1.952l3.06-1.359,3.606,3.606-1.359,3.059a16.082,16.082,0,0,1,1.952,4.71l3.122,1.2v5.1l-3.122,1.2a16.078,16.078,0,0,1-1.952,4.709l1.359,3.06-3.606,3.606-3.059-1.359a16.079,16.079,0,0,1-4.71,1.952l-1.2,3.122h-5.1l-1.2-3.122a16.081,16.081,0,0,1-4.709-1.952l-3.06,1.359-3.606-3.606,1.359-3.059a16.085,16.085,0,0,1-1.952-4.71l-3.122-1.2v-5.1l3.122-1.2a16.078,16.078,0,0,1,1.952-4.709l-1.359-3.06,3.606-3.606,3.06,1.359a16.08,16.08,0,0,1,4.709-1.952l1.2-3.122h5.1Z" transform="translate(-121.932 -17.151)" fill="#ffe177" fill-rule="evenodd"/>
            <path id="Trazado_1056343" data-name="Trazado 1056343" d="M174.207,49.759l-3.06,1.359-.471-.471,2.869-1.274q.327.2.662.386Zm12.212-29.487a16.083,16.083,0,0,1,4.709,1.952l-.87.386a21.213,21.213,0,0,0-5.371-2.338l-1.2-3.122h1.532Zm4.71,29.487a16.079,16.079,0,0,1-4.71,1.952l-1.2,3.122h-1.532l1.2-3.122a21.2,21.2,0,0,0,5.372-2.339ZM170.676,21.337l.471-.471,3.06,1.359q-.335.185-.662.386Zm22.451,0,1.061-.471,3.606,3.606-1.359,3.059a16.083,16.083,0,0,1,1.953,4.71l3.122,1.2v5.1l-3.122,1.2a16.078,16.078,0,0,1-1.952,4.709l1.359,3.06-3.606,3.606-1.061-.471,3.135-3.135-1.359-3.06a16.08,16.08,0,0,0,1.952-4.709l3.122-1.2v-5.1l-3.122-1.2a16.075,16.075,0,0,0-1.952-4.71l1.359-3.059Z" transform="translate(-163.826 -17.15)" fill="#ffd064" fill-rule="evenodd"/>
            <ellipse id="Elipse_13551" data-name="Elipse 13551" cx="10.209" cy="10.209" rx="10.209" ry="10.209" transform="translate(4.587 16.519) rotate(-35.804)" fill="#eceff1"/>
            <path id="Trazado_1056344" data-name="Trazado 1056344" d="M193.565,78.575a10.209,10.209,0,0,0,0,20.419q.41,0,.812-.032a10.21,10.21,0,0,1,0-20.354Q193.975,78.576,193.565,78.575Z" transform="translate(-174.724 -69.942)" fill="#d1d1d6" fill-rule="evenodd"/>
          </g>
          <g id="Grupo_1224565" data-name="Grupo 1224565" transform="translate(35.545 14.06)">
            <path id="Trazado_1056345" data-name="Trazado 1056345" d="M305.308,166.112l-.02-13.243c0-2.485.324-4.821,2.17-6.485,2.058-1.855,5.8-4.664,8.679-8.069a3.183,3.183,0,0,1,4.4,0c1.211,1.211,1.251,2.848,0,4.4l.98-1.206a7.143,7.143,0,0,0,1.715-4.681l-.049-12.749c-.038-9.91,7.237-7.163,7.331-3.821l.665,23.47a7.331,7.331,0,0,1-2.243,5.56l-10.616,10.616v6.2a2.169,2.169,0,0,1-2.165,2.165h-8.686A2.169,2.169,0,0,1,305.308,166.112Z" transform="translate(-301.081 -117.194)" fill="#f6dccd" fill-rule="evenodd"/>
            <path id="Trazado_1056346" data-name="Trazado 1056346" d="M305.307,321.744l-.02-13.243c0-2.485.324-4.821,2.17-6.485,1.1-.992,2.684-2.258,4.359-3.742v25.631h-4.344A2.169,2.169,0,0,1,305.307,321.744Z" transform="translate(-301.08 -272.825)" fill="#f1cbbc" fill-rule="evenodd"/>
            <path id="Trazado_1056347" data-name="Trazado 1056347" d="M277.021,445.367l18.45.159a1.627,1.627,0,0,1,1.608,1.636l-.03,3.552a1.627,1.627,0,0,1-1.636,1.608l-18.45-.159a1.627,1.627,0,0,1-1.608-1.636l.031-3.552A1.627,1.627,0,0,1,277.021,445.367Z" transform="translate(-275.355 -399.246)" fill="#d1d1d6" fill-rule="evenodd"/>
            <path id="Trazado_1056348" data-name="Trazado 1056348" d="M289.4,446.744l3.266.028,3.229.028a1.627,1.627,0,0,1,1.608,1.63l.011-1.269a1.627,1.627,0,0,0-1.608-1.636l-3.24-.028-6.506-.056-6.513-.056-2.19-.019a1.628,1.628,0,0,0-1.595,1.261l3.792.033,6.506.056,3.24.028Z" transform="translate(-275.793 -399.246)" fill="#b1b1b5" fill-rule="evenodd"/>
          </g>
          <g id="Grupo_1224566" data-name="Grupo 1224566" transform="translate(0 14.06)">
            <path id="Trazado_1056349" data-name="Trazado 1056349" d="M48.313,166.112l.02-13.243c0-2.485-.325-4.821-2.17-6.485-2.058-1.855-5.8-4.664-8.679-8.069a3.183,3.183,0,0,0-4.4,0c-1.211,1.211-1.251,2.848,0,4.4l-.98-1.206a7.144,7.144,0,0,1-1.715-4.681l.049-12.749c.038-9.91-7.237-7.163-7.331-3.821l-.665,23.47a7.331,7.331,0,0,0,2.243,5.56L35.3,159.908v6.2a2.169,2.169,0,0,0,2.165,2.165h8.686a2.169,2.169,0,0,0,2.165-2.162Z" transform="translate(-22.435 -117.194)" fill="#f6dccd" fill-rule="evenodd"/>
            <path id="Trazado_1056350" data-name="Trazado 1056350" d="M166.764,321.744l.02-13.243c0-2.485-.325-4.821-2.17-6.485-1.1-.992-2.684-2.258-4.359-3.742v25.631H164.6A2.169,2.169,0,0,0,166.764,321.744Z" transform="translate(-140.886 -272.825)" fill="#f1cbbc" fill-rule="evenodd"/>
            <path id="Trazado_1056351" data-name="Trazado 1056351" d="M102.122,445.367l-18.45.159a1.627,1.627,0,0,0-1.608,1.636l.03,3.552a1.627,1.627,0,0,0,1.636,1.608l18.45-.159a1.627,1.627,0,0,0,1.608-1.636l-.031-3.552A1.627,1.627,0,0,0,102.122,445.367Z" transform="translate(-73.684 -399.246)" fill="#d1d1d6" fill-rule="evenodd"/>
            <path id="Trazado_1056352" data-name="Trazado 1056352" d="M90.178,446.744l-3.266.028-3.229.028a1.627,1.627,0,0,0-1.608,1.63l-.011-1.269a1.627,1.627,0,0,1,1.608-1.636l3.24-.028,6.506-.056,6.513-.056,2.19-.019a1.628,1.628,0,0,1,1.595,1.261l-3.792.033-6.506.056-3.24.028Z" transform="translate(-73.684 -399.246)" fill="#b1b1b5" fill-rule="evenodd"/>
          </g>
          <g id="Grupo_1224567" data-name="Grupo 1224567" transform="translate(25.933 16.511)">
            <path id="Trazado_1056353" data-name="Trazado 1056353" d="M219.878,147.471H207.387a.423.423,0,0,0-.422.422v7.624a10.2,10.2,0,0,0,13.334.388v-8.012A.422.422,0,0,0,219.878,147.471Z" transform="translate(-206.965 -145.667)" fill="#9facba" fill-rule="evenodd"/>
            <path id="Trazado_1056354" data-name="Trazado 1056354" d="M219.878,147.471H207.387a.423.423,0,0,0-.422.422V149.3a.422.422,0,0,1,.422-.422h12.491a.422.422,0,0,1,.422.422v-1.405A.422.422,0,0,0,219.878,147.471Z" transform="translate(-206.965 -145.667)" fill="#8d9ca8" fill-rule="evenodd"/>
            <path id="Trazado_1056355" data-name="Trazado 1056355" d="M235.683,134.634h4.538a.422.422,0,0,1,.422.422v11.808a10.251,10.251,0,0,1-5.381-.122V135.056A.422.422,0,0,1,235.683,134.634Z" transform="translate(-231.284 -134.634)" fill="#65788e" fill-rule="evenodd"/>
            <path id="Trazado_1056356" data-name="Trazado 1056356" d="M252.339,134.634h1.405a.422.422,0,0,1,.422.422v11.808a10.218,10.218,0,0,1-2.466.3q-.354,0-.7-.024a10.2,10.2,0,0,0,1.764-.277V135.056A.422.422,0,0,0,252.339,134.634Z" transform="translate(-244.809 -134.634)" fill="#5b6c80" fill-rule="evenodd"/>
          </g>
        </g>
        <path id="Trazado_1056357" data-name="Trazado 1056357" d="M48.387,18.891a9.07,9.07,0,0,1,7.568,14.077v-5.53a1.125,1.125,0,0,0-1.125-1.124H51.977v-.68a1.123,1.123,0,0,0-1.124-1.124H49.288V23.6a1.124,1.124,0,1,0-2.248,0v.913H45.472a1.124,1.124,0,0,0-1.125,1.124v.68H41.5a1.124,1.124,0,0,0-1.124,1.124v4.777a9.07,9.07,0,0,1,8.015-13.324Zm3.591,9.672V36.3a9.015,9.015,0,0,0,1.728-.986V28.563Zm-5.381,8.3a9.043,9.043,0,0,0,3.133.078V26.759H46.6Zm-2.248-.774V28.563H42.621v6.4A9.078,9.078,0,0,0,44.348,36.089Zm4.039,3.2A11.324,11.324,0,1,0,37.063,27.966,11.338,11.338,0,0,0,48.387,39.29Zm-17.718-13.1v3.556l2.4.924a1.125,1.125,0,0,1,.69.789,14.936,14.936,0,0,0,1.816,4.38,1.128,1.128,0,0,1,.07,1.046L34.6,39.237l2.514,2.514,2.354-1.045a1.126,1.126,0,0,1,1.047.07A14.934,14.934,0,0,0,44.9,42.591a1.128,1.128,0,0,1,.789.69l.925,2.4h3.556l.925-2.4a1.125,1.125,0,0,1,.788-.69,14.918,14.918,0,0,0,4.381-1.816,1.124,1.124,0,0,1,1.046-.07l2.353,1.045,2.514-2.514-1.046-2.354a1.127,1.127,0,0,1,.07-1.046,14.875,14.875,0,0,0,1.816-4.38,1.125,1.125,0,0,1,.691-.789l2.4-.925V26.188l-2.4-.924a1.123,1.123,0,0,1-.69-.789,14.944,14.944,0,0,0-1.816-4.38,1.121,1.121,0,0,1-.071-1.046l1.044-2.354L59.658,14.18,57.3,15.226a1.125,1.125,0,0,1-1.046-.071,14.958,14.958,0,0,0-4.379-1.816,1.123,1.123,0,0,1-.79-.69l-.925-2.4H46.609l-.925,2.4a1.125,1.125,0,0,1-.789.689,14.975,14.975,0,0,0-4.381,1.816,1.123,1.123,0,0,1-1.045.071L37.115,14.18,34.6,16.694l1.046,2.354a1.127,1.127,0,0,1-.07,1.046,14.94,14.94,0,0,0-1.816,4.38,1.124,1.124,0,0,1-.69.789Zm-1.527,5.377,2.58.994A17.177,17.177,0,0,0,33.356,36.5L32.234,39.03a1.122,1.122,0,0,0,.231,1.251l3.606,3.606a1.126,1.126,0,0,0,1.252.233L39.854,43a17.15,17.15,0,0,0,3.941,1.634l.994,2.582a1.125,1.125,0,0,0,1.05.72h5.1a1.124,1.124,0,0,0,1.049-.72l.994-2.581A17.117,17.117,0,0,0,56.922,43l2.53,1.123a1.125,1.125,0,0,0,1.251-.233l3.606-3.606a1.126,1.126,0,0,0,.233-1.251L63.418,36.5a17.183,17.183,0,0,0,1.635-3.941l2.582-.994a1.123,1.123,0,0,0,.72-1.049v-5.1a1.124,1.124,0,0,0-.72-1.049l-2.582-.994a17.085,17.085,0,0,0-1.635-3.943L64.542,16.9a1.126,1.126,0,0,0-.233-1.251L60.7,12.044a1.124,1.124,0,0,0-1.251-.232l-2.53,1.123A17.165,17.165,0,0,0,52.98,11.3l-.994-2.582A1.124,1.124,0,0,0,50.938,8h-5.1a1.125,1.125,0,0,0-1.05.72L43.794,11.3a17.157,17.157,0,0,0-3.941,1.634l-2.53-1.123a1.126,1.126,0,0,0-1.252.232l-3.606,3.606a1.122,1.122,0,0,0-.231,1.251l1.122,2.53a17.241,17.241,0,0,0-1.634,3.942l-2.58.994a1.125,1.125,0,0,0-.722,1.049v5.1a1.124,1.124,0,0,0,.722,1.049ZM43.3,72.584a1.117,1.117,0,1,1-1.45-.625A1.118,1.118,0,0,1,43.3,72.584Zm.731,2.713a.527.527,0,0,0,.515-.523l-.031-3.6a.522.522,0,0,0-.519-.513h0l-18.676.16a.524.524,0,0,0-.513.523l.029,3.6a.52.52,0,0,0,.523.513ZM29.708,66.1V68.54l10.933-.094.014-9.474c0-2.117-.216-4.277-1.826-5.727-.529-.476-1.162-1.011-1.9-1.631a57.819,57.819,0,0,1-6.94-6.583,2.081,2.081,0,0,0-2.857.005,1.93,1.93,0,0,0-.153,2.638c1.216,1.4,2.436,2.582,3.714,3.824.554.537,1.125,1.092,1.715,1.683a1.124,1.124,0,1,1-1.59,1.59c-.579-.579-1.144-1.128-1.692-1.659-1.22-1.186-2.389-2.321-3.567-3.646a1.158,1.158,0,0,1-.226-.225c-.048-.064-.094-.128-.139-.192-.24-.279-.481-.565-.722-.863a8.312,8.312,0,0,1-1.987-5.452l.049-12.906c.013-3.632-1.008-5.817-2.732-5.844h-.034A2.459,2.459,0,0,0,17.363,26L16.69,49.757a6.316,6.316,0,0,0,1.942,4.8L29.378,65.3a1.124,1.124,0,0,1,.331.8Zm16.223,3.113a2.749,2.749,0,0,0-1.961-.8l-1.081.009.014-9.451c0-2.512-.3-5.355-2.569-7.4-.556-.5-1.236-1.074-1.954-1.68a55.71,55.71,0,0,1-6.726-6.38,1.094,1.094,0,0,0-.105-.108,4.36,4.36,0,0,0-6.005.04,4.7,4.7,0,0,0-.638.789,6.107,6.107,0,0,1-.17-1.491l.049-12.906c.028-7.443-3.777-8.083-4.945-8.1a4.692,4.692,0,0,0-4.723,4.2l-.673,23.759a8.6,8.6,0,0,0,2.6,6.455L27.459,66.565V68.56l-2.165.019a2.768,2.768,0,0,0-2.742,2.79l.03,3.6a2.769,2.769,0,0,0,2.766,2.743h.024l18.675-.161a2.771,2.771,0,0,0,2.744-2.79l-.031-3.6a2.749,2.749,0,0,0-.829-1.947Zm7.546,3.371a1.117,1.117,0,1,1,.626,1.451A1.118,1.118,0,0,1,53.477,72.584Zm2.658-4.137,10.933.094V66.1a1.123,1.123,0,0,1,.329-.8L78.143,54.558a6.317,6.317,0,0,0,1.942-4.8L79.412,26a2.468,2.468,0,0,0-2.442-2.012c-1.725.028-2.746,2.212-2.732,5.844l.05,12.906A8.323,8.323,0,0,1,72.3,48.188q-.364.446-.724.863c-.045.064-.091.128-.139.192a1.12,1.12,0,0,1-.226.224c-1.177,1.325-2.346,2.46-3.567,3.646-.547.531-1.113,1.08-1.692,1.659a1.124,1.124,0,1,1-1.589-1.59c.59-.591,1.162-1.146,1.715-1.683,1.279-1.242,2.5-2.427,3.716-3.824a1.93,1.93,0,0,0-.153-2.638,2.083,2.083,0,0,0-2.859-.005,57.973,57.973,0,0,1-6.938,6.584c-.735.619-1.37,1.154-1.9,1.629-1.611,1.451-1.83,3.61-1.826,5.728Zm15.84,2.9a.525.525,0,0,0-.513-.523l-18.677-.16h0a.522.522,0,0,0-.517.513l-.03,3.6a.524.524,0,0,0,.513.523l18.677.161h0a.526.526,0,0,0,.519-.513Zm7.757-15.2a8.6,8.6,0,0,0,2.6-6.456l-.673-23.758A4.694,4.694,0,0,0,77,21.736h-.069c-1.166.019-4.972.658-4.944,8.1l.049,12.906a6.184,6.184,0,0,1-.171,1.491,4.631,4.631,0,0,0-.638-.789,4.36,4.36,0,0,0-6.005-.04,1.479,1.479,0,0,0-.105.108,55.7,55.7,0,0,1-6.726,6.38c-.718.606-1.4,1.179-1.953,1.68-2.27,2.046-2.572,4.889-2.568,7.4l.014,9.451L52.8,68.417H52.78a2.771,2.771,0,0,0-2.766,2.743l-.03,3.6a2.77,2.77,0,0,0,2.742,2.79l18.677.161h.024a2.77,2.77,0,0,0,2.766-2.743l.031-3.6a2.77,2.77,0,0,0-2.743-2.79l-2.164-.019V66.565Z" fill="#242222" fill-rule="evenodd"/>
      </g>
    </g>
  </g>
</svg>
