<svg xmlns="http://www.w3.org/2000/svg" xmlns:xlink="http://www.w3.org/1999/xlink" width="113" height="113" viewBox="0 0 113 113">
  <defs>
    <filter id="Trazado_982547" x="0" y="0" width="113" height="113" filterUnits="userSpaceOnUse">
      <feOffset dy="3" input="SourceAlpha"/>
      <feGaussianBlur stdDeviation="3" result="blur"/>
      <feFlood flood-opacity="0.161"/>
      <feComposite operator="in" in2="blur"/>
      <feComposite in="SourceGraphic"/>
    </filter>
  </defs>
  <g id="Grupo_1224572" data-name="Grupo 1224572" transform="translate(-802 -1740.957)">
    <g id="Grupo_1209307" data-name="Grupo 1209307" transform="translate(-310 510.742)">
      <g id="Grupo_1209049" data-name="Grupo 1209049">
        <g id="Grupo_1208493" data-name="Grupo 1208493" transform="translate(0 -4397.209)">
          <g id="Grupo_1202104" data-name="Grupo 1202104" transform="translate(0 -1149.226)">
            <g id="Grupo_1201923" data-name="Grupo 1201923" transform="translate(-4174.49 4856.378)">
              <g id="Grupo_1176928" data-name="Grupo 1176928" transform="translate(5295.49 1926.273)">
                <g id="Grupo_1172322" data-name="Grupo 1172322" transform="translate(0 0)">
                  <g id="Grupo_1164700" data-name="Grupo 1164700">
                    <g id="Grupo_1160931" data-name="Grupo 1160931">
                      <g id="Grupo_1160749" data-name="Grupo 1160749">
                        <g id="Grupo_1158891" data-name="Grupo 1158891">
                          <g id="Grupo_1157406" data-name="Grupo 1157406">
                            <g id="Grupo_1155793" data-name="Grupo 1155793">
                              <g id="Grupo_1154704" data-name="Grupo 1154704">
                                <g id="Grupo_1150790" data-name="Grupo 1150790">
                                  <g id="Grupo_1154214" data-name="Grupo 1154214">
                                    <g id="Grupo_1152583" data-name="Grupo 1152583">
                                      <g id="Grupo_1146973" data-name="Grupo 1146973">
                                        <g id="Grupo_1146954" data-name="Grupo 1146954">
                                          <g transform="matrix(1, 0, 0, 1, -9, -6)" filter="url(#Trazado_982547)">
                                            <g id="Trazado_982547-2" data-name="Trazado 982547" transform="translate(9 6)" fill="#fcf8db">
                                              <path d="M 47.5000114440918 93.49987030029297 C 41.28938293457031 93.49987030029297 35.26534652709961 92.28384399414062 29.5951976776123 89.88558959960938 C 24.11773109436035 87.56881713867188 19.19814491271973 84.25183868408203 14.97310447692871 80.02680206298828 C 10.74805164337158 75.80176544189453 7.43107795715332 70.88218688964844 5.114304542541504 65.40472412109375 C 2.716038227081299 59.73458862304688 1.500011444091797 53.71054840087891 1.500011444091797 47.49993515014648 C 1.500011444091797 41.28932189941406 2.716038227081299 35.26528167724609 5.114304542541504 29.59514808654785 C 7.43107795715332 24.1176815032959 10.74805164337158 19.1981086730957 14.97310447692871 14.97306823730469 C 19.19814491271973 10.74802875518799 24.11773109436035 7.431055068969727 29.5951976776123 5.11428165435791 C 35.26534652709961 2.716028451919556 41.28938293457031 1.500001788139343 47.5000114440918 1.500001788139343 C 53.71063995361328 1.500001788139343 59.73467636108398 2.716028451919556 65.40482330322266 5.11428165435791 C 70.88229370117188 7.431055068969727 75.8018798828125 10.74802875518799 80.02691650390625 14.97306823730469 C 84.25196838378906 19.1981086730957 87.56894683837891 24.1176815032959 89.88571929931641 29.59514808654785 C 92.28398132324219 35.26528167724609 93.50001525878906 41.28932189941406 93.50001525878906 47.49993515014648 C 93.50001525878906 53.71054840087891 92.28398132324219 59.73458862304688 89.88571929931641 65.40472412109375 C 87.56894683837891 70.88218688964844 84.25196838378906 75.80176544189453 80.02691650390625 80.02680206298828 C 75.8018798828125 84.25183868408203 70.88229370117188 87.56881713867188 65.40482330322266 89.88558959960938 C 59.73467636108398 92.28384399414062 53.71063995361328 93.49987030029297 47.5000114440918 93.49987030029297 Z" stroke="none"/>
                                              <path d="M 47.5000114440918 3 C 41.49122619628906 3 35.66378021240234 4.1761474609375 30.17951965332031 6.495796203613281 C 24.880859375 8.7369384765625 20.12153625488281 11.94596862792969 16.03376770019531 16.03373718261719 C 11.94598388671875 20.12149047851562 8.736968994140625 24.88081359863281 6.495811462402344 30.17947387695312 C 4.176162719726562 35.66371917724609 3.000007629394531 41.49116516113281 3.000007629394531 47.49993515014648 C 3.000007629394531 53.50870513916016 4.176162719726562 59.33615112304688 6.495811462402344 64.82039642333984 C 8.736968994140625 70.11905670166016 11.94598388671875 74.87837982177734 16.03376770019531 78.96613311767578 C 20.12153625488281 83.05390167236328 24.880859375 86.26293182373047 30.17951965332031 88.50407409667969 C 35.66378021240234 90.82372283935547 41.49122619628906 91.99987030029297 47.5000114440918 91.99987030029297 C 53.50879669189453 91.99987030029297 59.33624267578125 90.82372283935547 64.82050323486328 88.50407409667969 C 70.11916351318359 86.26293182373047 74.87848663330078 83.05390167236328 78.96625518798828 78.96613311767578 C 83.05403900146484 74.87837982177734 86.2630615234375 70.11905670166016 88.50421142578125 64.82039642333984 C 90.82386016845703 59.33615112304688 92.00001525878906 53.50870513916016 92.00001525878906 47.49993515014648 C 92.00001525878906 41.49116516113281 90.82386016845703 35.66371917724609 88.50421142578125 30.17947387695312 C 86.2630615234375 24.88081359863281 83.05403900146484 20.12149047851562 78.96625518798828 16.03373718261719 C 74.87848663330078 11.94596862792969 70.11916351318359 8.7369384765625 64.82050323486328 6.495796203613281 C 59.33624267578125 4.1761474609375 53.50879669189453 3 47.5000114440918 3 M 47.5000114440918 0 C 73.73353576660156 0 95.00001525878906 21.26644134521484 95.00001525878906 47.49993515014648 C 95.00001525878906 73.73342895507812 73.73353576660156 94.99987030029297 47.5000114440918 94.99987030029297 C 21.26648712158203 94.99987030029297 7.62939453125e-06 73.73342895507812 7.62939453125e-06 47.49993515014648 C 7.62939453125e-06 21.26644134521484 21.26648712158203 0 47.5000114440918 0 Z" stroke="none" fill="#83793c"/>
                                            </g>
                                          </g>
                                        </g>
                                      </g>
                                    </g>
                                  </g>
                                </g>
                              </g>
                            </g>
                          </g>
                        </g>
                      </g>
                    </g>
                  </g>
                </g>
              </g>
            </g>
          </g>
        </g>
      </g>
    </g>
    <g id="teamwork_1466823" transform="translate(826.554 1766.053)">
      <path id="Trazado_1056358" data-name="Trazado 1056358" d="M329.478,233.144l2.514.948a4.1,4.1,0,0,1,2.679,3.854v6.42h-6.183v-5.153H318.183v5.153H312v-6.42a4.1,4.1,0,0,1,2.679-3.854l2.514-.948,3.05-1.144,3.092,4.122L326.428,232Zm0,0" transform="translate(-271.81 -202.115)" fill="#ff826e"/>
      <path id="Trazado_1056359" data-name="Trazado 1056359" d="M182.672,373.946v6.42h-6.183v-5.153H166.183v5.153H160v-6.42a4.1,4.1,0,0,1,2.679-3.854L168.244,368a3.092,3.092,0,0,0,6.183,0l5.565,2.092A4.1,4.1,0,0,1,182.672,373.946Zm0,0" transform="translate(-139.39 -320.595)" fill="#b4dd7f"/>
      <path id="Trazado_1056360" data-name="Trazado 1056360" d="M19.336,236.122,22.427,232l5.565,2.092a4.1,4.1,0,0,1,2.679,3.854v6.42H24.488v-5.153H14.183v5.153H8v-6.42a4.1,4.1,0,0,1,2.679-3.854L16.244,232Zm0,0" transform="translate(-6.97 -202.115)" fill="#ff826e"/>
      <path id="Trazado_1056361" data-name="Trazado 1056361" d="M370.305,288v8.244H360V288Zm0,0" transform="translate(-313.627 -250.901)" fill="#e6e9ed"/>
      <path id="Trazado_1056362" data-name="Trazado 1056362" d="M218.305,424v8.244H208V424Zm0,0" transform="translate(-181.207 -369.382)" fill="#e6e9ed"/>
      <path id="Trazado_1056363" data-name="Trazado 1056363" d="M66.305,288v8.244H56V288Zm0,0" transform="translate(-48.787 -250.901)" fill="#e6e9ed"/>
      <path id="Trazado_1056364" data-name="Trazado 1056364" d="M200.488,217.038v3.329a3.1,3.1,0,0,0-3.092-3.092h-.175a7.044,7.044,0,0,1-4.978-2.061,7.045,7.045,0,0,1-4.978,2.061h-.175A3.087,3.087,0,0,0,184,220.366v-4.122a8.244,8.244,0,0,1,16.488,0Zm0,0" transform="translate(-160.298 -181.206)" fill="#fcd770"/>
      <path id="Trazado_1056365" data-name="Trazado 1056365" d="M431.214,175.214a3.466,3.466,0,0,1-.907,1.031,4.981,4.981,0,0,1-3.215,1.031l-.041.113L424,176.244v-2.061a4.854,4.854,0,0,0,.557-.474,5.151,5.151,0,0,0,1.4-2.628l.1.01A3.087,3.087,0,0,0,429.153,168v2.236A7.045,7.045,0,0,0,431.214,175.214Zm0,0" transform="translate(-369.383 -146.359)" fill="#b27946"/>
      <path id="Trazado_1056366" data-name="Trazado 1056366" d="M327.214,174.183v2.061l-3.05,1.144-.041-.113A4.465,4.465,0,0,1,320,175.214a7.044,7.044,0,0,0,2.061-4.978V168a3.1,3.1,0,0,0,3.092,3.092l.1-.01A5.167,5.167,0,0,0,327.214,174.183Zm0,0" transform="translate(-278.779 -146.359)" fill="#b27946"/>
      <path id="Trazado_1056367" data-name="Trazado 1056367" d="M352.488,80.244v4.122a3.1,3.1,0,0,0-3.092-3.092h-.175a7.045,7.045,0,0,1-4.978-2.061,7.045,7.045,0,0,1-4.978,2.061h-.175A3.087,3.087,0,0,0,336,84.366V80.244a8.244,8.244,0,1,1,16.488,0Zm0,0" transform="translate(-292.718 -62.725)" fill="#b27946"/>
      <path id="Trazado_1056368" data-name="Trazado 1056368" d="M48.488,80.244v4.122A3.1,3.1,0,0,0,45.4,81.275H35.092A3.087,3.087,0,0,0,32,84.366V80.244a8.244,8.244,0,0,1,16.488,0Zm0,0" transform="translate(-27.878 -62.725)" fill="#b27946"/>
      <g id="Grupo_1224571" data-name="Grupo 1224571" transform="translate(4.122 16.489)">
        <path id="Trazado_1056369" data-name="Trazado 1056369" d="M227.092,353.031c.639,0,1.247-.113,3.092-1.031v2.061a3.092,3.092,0,0,1-6.183,0V352A5.093,5.093,0,0,0,227.092,353.031Zm0,0" transform="translate(-199.267 -323.145)" fill="#f0d0b4"/>
        <path id="Trazado_1056370" data-name="Trazado 1056370" d="M290.394,283.092a3.087,3.087,0,0,1-3.092,3.092l-.1-.01a4.744,4.744,0,0,0,.1-1.02V280a3.1,3.1,0,0,1,3.092,3.092Zm0,0" transform="translate(-254.326 -260.42)" fill="#f0d0b4"/>
        <path id="Trazado_1056371" data-name="Trazado 1056371" d="M218.305,266.061v5.153a4.746,4.746,0,0,1-.1,1.02,5.151,5.151,0,0,1-1.4,2.628,4.854,4.854,0,0,1-.557.474c-1.845.917-2.453,1.031-3.092,1.031a5.093,5.093,0,0,1-3.092-1.031,5.167,5.167,0,0,1-1.958-3.1,4.744,4.744,0,0,1-.1-1.02v-5.153h.175A7.044,7.044,0,0,0,213.153,264a7.044,7.044,0,0,0,4.978,2.061Zm0,0" transform="translate(-185.328 -246.481)" fill="#f0d0b4"/>
        <path id="Trazado_1056372" data-name="Trazado 1056372" d="M187.092,285.153a4.743,4.743,0,0,0,.1,1.02l-.1.01a3.092,3.092,0,1,1,0-6.183Zm0,0" transform="translate(-164.42 -260.42)" fill="#f0d0b4"/>
        <path id="Trazado_1056373" data-name="Trazado 1056373" d="M379.092,217.031c.639,0,1.247-.113,3.092-1.031v2.061l-3.092,4.122L376,218.061V216A5.093,5.093,0,0,0,379.092,217.031Zm0,0" transform="translate(-331.687 -204.664)" fill="#f0d0b4"/>
        <path id="Trazado_1056374" data-name="Trazado 1056374" d="M442.394,147.092a3.087,3.087,0,0,1-3.092,3.092l-.1-.01a4.743,4.743,0,0,0,.1-1.02V144a3.1,3.1,0,0,1,3.092,3.092Zm0,0" transform="translate(-386.746 -141.939)" fill="#f0d0b4"/>
        <path id="Trazado_1056375" data-name="Trazado 1056375" d="M370.305,130.061v5.153a4.746,4.746,0,0,1-.1,1.02,5.151,5.151,0,0,1-1.4,2.628,4.859,4.859,0,0,1-.557.474c-1.845.917-2.453,1.031-3.092,1.031a5.093,5.093,0,0,1-3.092-1.031,5.167,5.167,0,0,1-1.958-3.1,4.744,4.744,0,0,1-.1-1.02v-5.153h.175A7.044,7.044,0,0,0,365.153,128a7.044,7.044,0,0,0,4.978,2.061Zm0,0" transform="translate(-317.749 -128)" fill="#f0d0b4"/>
        <path id="Trazado_1056376" data-name="Trazado 1056376" d="M339.092,149.153a4.743,4.743,0,0,0,.1,1.02l-.1.01a3.092,3.092,0,0,1,0-6.183Zm0,0" transform="translate(-296.84 -141.939)" fill="#f0d0b4"/>
        <path id="Trazado_1056377" data-name="Trazado 1056377" d="M75.092,217.031c.639,0,1.247-.113,3.092-1.031v2.061l-3.092,4.122L72,218.061V216A5.093,5.093,0,0,0,75.092,217.031Zm0,0" transform="translate(-66.847 -204.664)" fill="#f0d0b4"/>
        <path id="Trazado_1056378" data-name="Trazado 1056378" d="M138.394,147.092a3.087,3.087,0,0,1-3.092,3.092l-.1-.01a4.744,4.744,0,0,0,.1-1.02V144a3.1,3.1,0,0,1,3.092,3.092Zm0,0" transform="translate(-121.906 -141.939)" fill="#f0d0b4"/>
        <path id="Trazado_1056379" data-name="Trazado 1056379" d="M66.305,144v5.153a4.744,4.744,0,0,1-.1,1.02,5.151,5.151,0,0,1-1.4,2.628,4.855,4.855,0,0,1-.557.474c-1.845.917-2.453,1.031-3.092,1.031a5.093,5.093,0,0,1-3.092-1.031,5.167,5.167,0,0,1-1.958-3.1,4.745,4.745,0,0,1-.1-1.02V144Zm0,0" transform="translate(-52.908 -141.939)" fill="#f0d0b4"/>
        <path id="Trazado_1056380" data-name="Trazado 1056380" d="M35.092,149.153a4.745,4.745,0,0,0,.1,1.02l-.1.01a3.092,3.092,0,1,1,0-6.183Zm0,0" transform="translate(-32 -141.939)" fill="#f0d0b4"/>
      </g>
      <path id="Trazado_1056381" data-name="Trazado 1056381" d="M40.244,12.122v4.122H34.061A2.067,2.067,0,0,1,32,14.183V10.061A2.067,2.067,0,0,1,34.061,8h6.183Zm0,0" transform="translate(-27.878 -6.969)" fill="#aab2bd"/>
      <path id="Trazado_1056382" data-name="Trazado 1056382" d="M96,8h39.16v4.122H96Zm0,0" transform="translate(-83.634 -6.969)" fill="#b4dd7f"/>
      <path id="Trazado_1056383" data-name="Trazado 1056383" d="M96,40h39.16v4.122H96Zm0,0" transform="translate(-83.634 -34.847)" fill="#fcd770"/>
      <path id="Trazado_1056384" data-name="Trazado 1056384" d="M408.244,12.122,400,16.244V8Zm0,0" transform="translate(-348.474 -6.969)" fill="#969faa"/>
      <path id="Trazado_1056385" data-name="Trazado 1056385" d="M63.892,35.834a5.168,5.168,0,0,0-3.018-4.673,4.87,4.87,0,0,0,1.879-1.846l.332-.665-.525-.525A5.962,5.962,0,0,1,60.8,23.878V17.519a9.283,9.283,0,0,0-6.073-8.694l7.347-3.673L51.769,0H6.183A3.1,3.1,0,0,0,3.091,3.092V7.214a3.1,3.1,0,0,0,3.092,3.092H6.55a9.256,9.256,0,0,0-3.458,7.214v4.122a4.121,4.121,0,0,0,3.427,4.052,6.193,6.193,0,0,0,1.726,2.6v.873l-4.9,1.837A5.177,5.177,0,0,0,0,35.834v7.449H6.183v3.092H18.549V43.282h6.183v-.573a4.052,4.052,0,0,0,1.366.5,6.193,6.193,0,0,0,1.726,2.605v.873l-4.9,1.837a5.178,5.178,0,0,0-3.344,4.825V60.8h6.183v3.092H38.129V60.8h6.183V53.353a5.181,5.181,0,0,0-3.344-4.826l-4.9-1.836v-.873a6.181,6.181,0,0,0,1.726-2.6,4.053,4.053,0,0,0,1.366-.5v.573h6.183v3.092H57.709V43.282h6.183ZM47.4,29.171l-2.061.773v-.059a3.9,3.9,0,0,1-2.785-.983,7.974,7.974,0,0,0,1.649-3.769,4.107,4.107,0,0,0,1.471.561A6.194,6.194,0,0,0,47.4,28.3Zm-6.655,2.964a9.266,9.266,0,0,0-17.605,0,5.1,5.1,0,0,0-1.755-1.127l-4.9-1.837V28.3a6.181,6.181,0,0,0,1.726-2.6,4.121,4.121,0,0,0,3.427-4.052V17.519a9.256,9.256,0,0,0-3.458-7.214H45.71a9.256,9.256,0,0,0-3.458,7.214v6.359a5.968,5.968,0,0,1-1.759,4.248l-.525.526.332.665a4.882,4.882,0,0,0,1.879,1.845,5.076,5.076,0,0,0-1.429.973Zm-3.65,2.9h-.176a5.968,5.968,0,0,1-4.248-1.759l-.729-.729-.729.729a5.968,5.968,0,0,1-4.248,1.759h-.176a4.077,4.077,0,0,0-2.061.573v-.573a7.214,7.214,0,1,1,14.427,0v.573a4.077,4.077,0,0,0-2.061-.573ZM8.244,23.7V19.58h8.244V23.7a4.122,4.122,0,0,1-8.244,0Zm10.305-3.836a2.043,2.043,0,0,1,0,3.549ZM13.4,6.183H50.5V8.244H13.4ZM50.5,4.122H13.4V2.061H50.5Zm7.214,19.294V19.866a2.043,2.043,0,0,1,0,3.549Zm-6.183,4.408A4.126,4.126,0,0,1,47.4,23.7V19.509a7.977,7.977,0,0,0,4.122-1.645,7.96,7.96,0,0,0,4.122,1.645V23.7A4.126,4.126,0,0,1,51.526,27.824Zm-6.183-4.408a2.043,2.043,0,0,1,0-3.549Zm4.122,6.109a6.067,6.067,0,0,0,4.122,0v.018l-2.061,2.748-2.061-2.748ZM55.648,28.3a6.181,6.181,0,0,0,1.726-2.6,4.1,4.1,0,0,0,1.471-.561A7.975,7.975,0,0,0,60.493,28.9a3.891,3.891,0,0,1-2.784.984v.059l-2.061-.773ZM58.74,17.519v.573a4.077,4.077,0,0,0-2.061-.573H56.5a5.968,5.968,0,0,1-4.248-1.759l-.729-.729-.729.729a5.966,5.966,0,0,1-4.248,1.759h-.176a4.077,4.077,0,0,0-2.061.573v-.573a7.214,7.214,0,1,1,14.427,0ZM52.556,7.607V2.7l4.91,2.455Zm-47.4-.393V3.092A1.033,1.033,0,0,1,6.183,2.061h5.153V8.244H6.183A1.033,1.033,0,0,1,5.152,7.214Zm7.214,3.092a7.222,7.222,0,0,1,7.214,7.214v.573a4.077,4.077,0,0,0-2.061-.573H7.213a4.077,4.077,0,0,0-2.061.573v-.573A7.222,7.222,0,0,1,12.366,10.305ZM5.152,21.641a2.055,2.055,0,0,1,1.031-1.775v3.549a2.055,2.055,0,0,1-1.031-1.775Zm7.214,8.244a6.153,6.153,0,0,0,2.061-.361v.018l-2.061,2.748L10.3,29.542v-.018A6.153,6.153,0,0,0,12.366,29.885Zm4.122,14.427H8.244V38.13h8.244Zm6.183-3.092H18.549V36.069H6.183v5.153H2.061V35.834a3.1,3.1,0,0,1,2.006-2.895l4.847-1.817,3.452,4.6,3.452-4.6,4.847,1.818a3.1,3.1,0,0,1,2.006,2.894Zm2.061-2.061a2.055,2.055,0,0,1,1.031-1.775v3.549a2.055,2.055,0,0,1-1.031-1.775ZM36.068,61.832H27.824V55.648h8.244Zm6.183-8.479V58.74H38.129V53.587H25.763V58.74H21.641V53.352a3.107,3.107,0,0,1,2.006-2.9l4.436-1.663a4.1,4.1,0,0,0,7.727,0l4.436,1.663A3.1,3.1,0,0,1,42.251,53.352ZM34.007,47.4a2.061,2.061,0,1,1-4.122,0v-.361a6.067,6.067,0,0,0,4.122,0Zm-2.061-2.061a4.126,4.126,0,0,1-4.122-4.122V37.028a7.977,7.977,0,0,0,4.122-1.645,7.977,7.977,0,0,0,4.122,1.645v4.193A4.126,4.126,0,0,1,31.946,45.343Zm6.183-4.408V37.385a2.043,2.043,0,0,1,0,3.549Zm17.519,3.378H47.4V38.13h8.244Zm6.183-3.092H57.709V36.069H45.343v5.153H41.221V35.834a3.1,3.1,0,0,1,2.006-2.895l4.847-1.817,3.452,4.6,3.452-4.6,4.847,1.818a3.1,3.1,0,0,1,2.006,2.894Zm0,0"/>
      <path id="Trazado_1056386" data-name="Trazado 1056386" d="M232,448h4.122v2.061H232Zm0,0" transform="translate(-202.115 -390.29)"/>
      <path id="Trazado_1056387" data-name="Trazado 1056387" d="M80,312h4.122v2.061H80Zm0,0" transform="translate(-69.695 -271.809)"/>
      <path id="Trazado_1056388" data-name="Trazado 1056388" d="M384,312h4.122v2.061H384Zm0,0" transform="translate(-334.535 -271.809)"/>
    </g>
  </g>
</svg>
