<svg xmlns="http://www.w3.org/2000/svg" xmlns:xlink="http://www.w3.org/1999/xlink" width="113" height="113" viewBox="0 0 113 113">
  <defs>
    <filter id="Trazado_982547" x="0" y="0" width="113" height="113" filterUnits="userSpaceOnUse">
      <feOffset dy="3" input="SourceAlpha"/>
      <feGaussianBlur stdDeviation="3" result="blur"/>
      <feFlood flood-opacity="0.161"/>
      <feComposite operator="in" in2="blur"/>
      <feComposite in="SourceGraphic"/>
    </filter>
  </defs>
  <g id="Grupo_1224598" data-name="Grupo 1224598" transform="translate(-793.49 -5073.421)">
    <g id="Grupo_1209312" data-name="Grupo 1209312" transform="translate(0 3843.205)">
      <g id="Grupo_1208492" data-name="Grupo 1208492" transform="translate(0 -4397.209)">
        <g id="Grupo_1177675" data-name="Grupo 1177675" transform="translate(-4493 3707.152)">
          <g id="Grupo_1176928" data-name="Grupo 1176928" transform="translate(5295.49 1926.273)">
            <g id="Grupo_1172322" data-name="Grupo 1172322" transform="translate(0 0)">
              <g id="Grupo_1164700" data-name="Grupo 1164700">
                <g id="Grupo_1160931" data-name="Grupo 1160931">
                  <g id="Grupo_1160749" data-name="Grupo 1160749">
                    <g id="Grupo_1158891" data-name="Grupo 1158891">
                      <g id="Grupo_1157406" data-name="Grupo 1157406">
                        <g id="Grupo_1155793" data-name="Grupo 1155793">
                          <g id="Grupo_1154704" data-name="Grupo 1154704">
                            <g id="Grupo_1150790" data-name="Grupo 1150790">
                              <g id="Grupo_1154214" data-name="Grupo 1154214">
                                <g id="Grupo_1152583" data-name="Grupo 1152583">
                                  <g id="Grupo_1146973" data-name="Grupo 1146973">
                                    <g id="Grupo_1146954" data-name="Grupo 1146954">
                                      <g transform="matrix(1, 0, 0, 1, -9, -6)" filter="url(#Trazado_982547)">
                                        <g id="Trazado_982547-2" data-name="Trazado 982547" transform="translate(9 6)" fill="#fcf8db">
                                          <path d="M 47.5000114440918 93.49987030029297 C 41.28938293457031 93.49987030029297 35.26534652709961 92.28384399414062 29.5951976776123 89.88558959960938 C 24.11773109436035 87.56881713867188 19.19814491271973 84.25183868408203 14.97310447692871 80.02680206298828 C 10.74805164337158 75.80176544189453 7.43107795715332 70.88218688964844 5.114304542541504 65.40472412109375 C 2.716038227081299 59.73458862304688 1.500011444091797 53.71054840087891 1.500011444091797 47.49993515014648 C 1.500011444091797 41.28932189941406 2.716038227081299 35.26528167724609 5.114304542541504 29.59514808654785 C 7.43107795715332 24.1176815032959 10.74805164337158 19.1981086730957 14.97310447692871 14.97306823730469 C 19.19814491271973 10.74802875518799 24.11773109436035 7.431055068969727 29.5951976776123 5.11428165435791 C 35.26534652709961 2.716028451919556 41.28938293457031 1.500001788139343 47.5000114440918 1.500001788139343 C 53.71063995361328 1.500001788139343 59.73467636108398 2.716028451919556 65.40482330322266 5.11428165435791 C 70.88229370117188 7.431055068969727 75.8018798828125 10.74802875518799 80.02691650390625 14.97306823730469 C 84.25196838378906 19.1981086730957 87.56894683837891 24.1176815032959 89.88571929931641 29.59514808654785 C 92.28398132324219 35.26528167724609 93.50001525878906 41.28932189941406 93.50001525878906 47.49993515014648 C 93.50001525878906 53.71054840087891 92.28398132324219 59.73458862304688 89.88571929931641 65.40472412109375 C 87.56894683837891 70.88218688964844 84.25196838378906 75.80176544189453 80.02691650390625 80.02680206298828 C 75.8018798828125 84.25183868408203 70.88229370117188 87.56881713867188 65.40482330322266 89.88558959960938 C 59.73467636108398 92.28384399414062 53.71063995361328 93.49987030029297 47.5000114440918 93.49987030029297 Z" stroke="none"/>
                                          <path d="M 47.5000114440918 3 C 41.49122619628906 3 35.66378021240234 4.1761474609375 30.17951965332031 6.495796203613281 C 24.880859375 8.7369384765625 20.12153625488281 11.94596862792969 16.03376770019531 16.03373718261719 C 11.94598388671875 20.12149047851562 8.736968994140625 24.88081359863281 6.495811462402344 30.17947387695312 C 4.176162719726562 35.66371917724609 3.000007629394531 41.49116516113281 3.000007629394531 47.49993515014648 C 3.000007629394531 53.50870513916016 4.176162719726562 59.33615112304688 6.495811462402344 64.82039642333984 C 8.736968994140625 70.11905670166016 11.94598388671875 74.87837982177734 16.03376770019531 78.96613311767578 C 20.12153625488281 83.05390167236328 24.880859375 86.26293182373047 30.17951965332031 88.50407409667969 C 35.66378021240234 90.82372283935547 41.49122619628906 91.99987030029297 47.5000114440918 91.99987030029297 C 53.50879669189453 91.99987030029297 59.33624267578125 90.82372283935547 64.82050323486328 88.50407409667969 C 70.11916351318359 86.26293182373047 74.87848663330078 83.05390167236328 78.96625518798828 78.96613311767578 C 83.05403900146484 74.87837982177734 86.2630615234375 70.11905670166016 88.50421142578125 64.82039642333984 C 90.82386016845703 59.33615112304688 92.00001525878906 53.50870513916016 92.00001525878906 47.49993515014648 C 92.00001525878906 41.49116516113281 90.82386016845703 35.66371917724609 88.50421142578125 30.17947387695312 C 86.2630615234375 24.88081359863281 83.05403900146484 20.12149047851562 78.96625518798828 16.03373718261719 C 74.87848663330078 11.94596862792969 70.11916351318359 8.7369384765625 64.82050323486328 6.495796203613281 C 59.33624267578125 4.1761474609375 53.50879669189453 3 47.5000114440918 3 M 47.5000114440918 0 C 73.73353576660156 0 95.00001525878906 21.26644134521484 95.00001525878906 47.49993515014648 C 95.00001525878906 73.73342895507812 73.73353576660156 94.99987030029297 47.5000114440918 94.99987030029297 C 21.26648712158203 94.99987030029297 7.62939453125e-06 73.73342895507812 7.62939453125e-06 47.49993515014648 C 7.62939453125e-06 21.26644134521484 21.26648712158203 0 47.5000114440918 0 Z" stroke="none" fill="#83793c"/>
                                        </g>
                                      </g>
                                    </g>
                                  </g>
                                </g>
                              </g>
                            </g>
                          </g>
                        </g>
                      </g>
                    </g>
                  </g>
                </g>
              </g>
            </g>
          </g>
        </g>
      </g>
    </g>
    <g id="board_1731639_2_" data-name="board_1731639 (2)" transform="translate(818.877 5093.808)">
      <path id="Trazado_1056488" data-name="Trazado 1056488" d="M212.044,302.022a6.022,6.022,0,1,0-9.033,5.21v6.834h6.022v-6.834A6.013,6.013,0,0,0,212.044,302.022Zm0,0" transform="translate(-174.909 -258.865)" fill="#b8cbd9"/>
      <path id="Trazado_1056489" data-name="Trazado 1056489" d="M200,302.022a6.013,6.013,0,0,0,3.011,5.21v.726c3.959-.618,7.025-4.832,7.025-9.95,0-.163-.013-.321-.019-.483a6.015,6.015,0,0,0-10.017,4.5Zm0,0" transform="translate(-174.909 -258.865)" fill="#e8eff4"/>
      <path id="Trazado_1056490" data-name="Trazado 1056490" d="M224,408h6.022v4.015H224Zm0,0" transform="translate(-195.898 -356.815)" fill="#4472b2"/>
      <path id="Trazado_1056491" data-name="Trazado 1056491" d="M120,24h32.116V46.08H120Zm0,0" transform="translate(-104.945 -20.989)" fill="#b8cbd9"/>
      <path id="Trazado_1056492" data-name="Trazado 1056492" d="M120,42.434a20.426,20.426,0,0,0,8.029,1.639A19.826,19.826,0,0,0,148.1,24.5c0-.17-.021-.333-.026-.5H120Zm0,0" transform="translate(-104.945 -20.99)" fill="#e8eff4"/>
      <path id="Trazado_1056493" data-name="Trazado 1056493" d="M192,8h14.051v4.015H192Zm0,0" transform="translate(-167.913 -6.996)" fill="#674025"/>
      <path id="Trazado_1056494" data-name="Trazado 1056494" d="M151.025,200,144,207.025h5.018L156.044,200" transform="translate(-125.935 -174.909)" fill="#976947"/>
      <path id="Trazado_1056495" data-name="Trazado 1056495" d="M261.018,200l7.025,7.025h-5.018L256,200" transform="translate(-223.884 -174.909)" fill="#976947"/>
      <path id="Trazado_1056496" data-name="Trazado 1056496" d="M120,344h2.007a2.007,2.007,0,1,1,0,4.015H120" transform="translate(-104.945 -300.844)" fill="#efbe9a"/>
      <path id="Trazado_1056497" data-name="Trazado 1056497" d="M26.065,418.036v-4.015A6.022,6.022,0,0,0,20.044,408H14.022A6.022,6.022,0,0,0,8,414.022v4.015" transform="translate(-6.996 -356.815)" fill="#d1a339"/>
      <path id="Trazado_1056498" data-name="Trazado 1056498" d="M23.055,418.036v-4.015A6.022,6.022,0,0,0,17.033,408H14.022A6.022,6.022,0,0,0,8,414.022v4.015" transform="translate(-6.996 -356.815)" fill="#f0d365"/>
      <g id="Grupo_1224601" data-name="Grupo 1224601" transform="translate(1.004 39.142)">
        <path id="Trazado_1056499" data-name="Trazado 1056499" d="M56,408v1a3.011,3.011,0,1,0,6.022,0v-1" transform="translate(-49.978 -395.956)" fill="#db9b7c"/>
        <path id="Trazado_1056500" data-name="Trazado 1056500" d="M12.015,344H10.007a2.007,2.007,0,1,0,0,4.015h2.007" transform="translate(-8 -339.985)" fill="#db9b7c"/>
        <path id="Trazado_1056501" data-name="Trazado 1056501" d="M50.036,312v7.025a5.018,5.018,0,1,1-10.036,0V312" transform="translate(-35.985 -312)" fill="#db9b7c"/>
      </g>
      <path id="Trazado_1056502" data-name="Trazado 1056502" d="M44.015,323.942a5.018,5.018,0,0,0,4.015-4.917V312H40v7.025A5.018,5.018,0,0,0,44.015,323.942Zm0,0" transform="translate(-34.982 -272.858)" fill="#efbe9a"/>
      <path id="Trazado_1056503" data-name="Trazado 1056503" d="M34.036,284.015c0,2.217-3.8,4.015-6.022,4.015H24v-4.015A4.015,4.015,0,0,1,28.015,280h6.022a4.015,4.015,0,0,1,4.015,4.015v4.015a4.015,4.015,0,0,1-4.015-4.015" transform="translate(-20.989 -244.873)" fill="#a66d43"/>
      <path id="Trazado_1056504" data-name="Trazado 1056504" d="M34.036,284.015a3.986,3.986,0,0,0,.172,1.1,4.474,4.474,0,0,0,.074-5.09c-.083,0-.162-.025-.246-.025H28.015A4.015,4.015,0,0,0,24,284.015v3.021a8.366,8.366,0,0,0,4.015.994C30.232,288.029,34.036,286.232,34.036,284.015Zm0,0" transform="translate(-20.989 -244.873)" fill="#c18e59"/>
      <path id="Trazado_1056505" data-name="Trazado 1056505" d="M456,344h2.007a2.007,2.007,0,1,1,0,4.015H456" transform="translate(-398.793 -300.844)" fill="#efbe9a"/>
      <path id="Trazado_1056506" data-name="Trazado 1056506" d="M362.065,418.036v-4.015A6.022,6.022,0,0,0,356.044,408h-6.022A6.022,6.022,0,0,0,344,414.022v4.015" transform="translate(-300.844 -356.815)" fill="#b64f86"/>
      <path id="Trazado_1056507" data-name="Trazado 1056507" d="M359.055,418.036v-4.015A6.022,6.022,0,0,0,353.033,408h-3.011A6.022,6.022,0,0,0,344,414.022v4.015" transform="translate(-300.844 -356.815)" fill="#e087a6"/>
      <path id="Trazado_1056508" data-name="Trazado 1056508" d="M392,408v1a3.011,3.011,0,1,0,6.022,0v-1" transform="translate(-342.822 -356.815)" fill="#db9b7c"/>
      <path id="Trazado_1056509" data-name="Trazado 1056509" d="M348.015,344h-2.007a2.007,2.007,0,1,0,0,4.015h2.007" transform="translate(-300.844 -300.844)" fill="#db9b7c"/>
      <path id="Trazado_1056510" data-name="Trazado 1056510" d="M386.036,312v7.025a5.018,5.018,0,0,1-10.036,0V312" transform="translate(-328.829 -272.858)" fill="#db9b7c"/>
      <path id="Trazado_1056511" data-name="Trazado 1056511" d="M380.015,323.942a5.018,5.018,0,0,0,4.015-4.917V312H376v7.025A5.018,5.018,0,0,0,380.015,323.942Zm0,0" transform="translate(-328.829 -272.858)" fill="#efbe9a"/>
      <path id="Trazado_1056512" data-name="Trazado 1056512" d="M370.036,284.015c0,2.217-3.8,4.015-6.022,4.015H360v-4.015A4.015,4.015,0,0,1,364.015,280h6.022a4.015,4.015,0,0,1,4.015,4.015v4.015a4.015,4.015,0,0,1-4.015-4.015" transform="translate(-314.836 -244.873)" fill="#a66d43"/>
      <path id="Trazado_1056513" data-name="Trazado 1056513" d="M370.036,284.015a3.985,3.985,0,0,0,.172,1.1,4.474,4.474,0,0,0,.074-5.09c-.083,0-.162-.025-.246-.025h-6.022A4.015,4.015,0,0,0,360,284.015v3.021a8.366,8.366,0,0,0,4.015.994C366.232,288.029,370.036,286.232,370.036,284.015Zm0,0" transform="translate(-314.836 -244.873)" fill="#c18e59"/>
      <path id="Trazado_1056514" data-name="Trazado 1056514" d="M31.055,282.036a5.019,5.019,0,0,1-4.268-2.383,9.388,9.388,0,0,1-5.768,2.383H17a1,1,0,0,1-1-1v-4.015A5.024,5.024,0,0,1,21.018,272H27.04a5.024,5.024,0,0,1,5.018,5.018v4.015A1,1,0,0,1,31.055,282.036Zm-13.047-2.007h3.011c1.981,0,5.018-1.615,5.018-3.011a1,1,0,1,1,2.007,0,3.017,3.017,0,0,0,2.007,2.839v-2.839a3.015,3.015,0,0,0-3.011-3.011H21.018a3.015,3.015,0,0,0-3.011,3.011Zm0,0" transform="translate(-13.993 -237.876)"/>
      <path id="Trazado_1056515" data-name="Trazado 1056515" d="M38.022,346.036A6.028,6.028,0,0,1,32,340.015V337h2.007v3.011a4.015,4.015,0,0,0,8.029,0V336h2.007v4.015A6.028,6.028,0,0,1,38.022,346.036Zm0,0" transform="translate(-27.985 -293.847)"/>
      <path id="Trazado_1056516" data-name="Trazado 1056516" d="M5.018,342.022H3.011a3.011,3.011,0,0,1,0-6.022h1v2.007h-1a1,1,0,1,0,0,2.007H5.018Zm0,0" transform="translate(0 -293.847)"/>
      <path id="Trazado_1056517" data-name="Trazado 1056517" d="M122.007,342.022H120v-2.007h2.007a1,1,0,1,0,0-2.007h-1V336h1a3.011,3.011,0,1,1,0,6.022Zm0,0" transform="translate(-104.945 -293.847)"/>
      <path id="Trazado_1056518" data-name="Trazado 1056518" d="M19.069,412.044H1a1,1,0,0,1-1-1v-4.015A7.034,7.034,0,0,1,7.025,400h6.022a7.034,7.034,0,0,1,7.025,7.025v4.015A1,1,0,0,1,19.069,412.044ZM2.007,410.036H18.065v-3.011a5.024,5.024,0,0,0-5.018-5.018H7.025a5.024,5.024,0,0,0-5.018,5.018Zm0,0" transform="translate(0 -349.818)"/>
      <path id="Trazado_1056519" data-name="Trazado 1056519" d="M52.015,413.018A4.019,4.019,0,0,1,48,409v-1h2.007v1a2.007,2.007,0,0,0,4.015,0v-1h2.007v1A4.019,4.019,0,0,1,52.015,413.018Zm0,0" transform="translate(-41.978 -356.815)"/>
      <path id="Trazado_1056520" data-name="Trazado 1056520" d="M32,448h2.007v5.018H32Zm0,0" transform="translate(-27.985 -391.796)"/>
      <path id="Trazado_1056521" data-name="Trazado 1056521" d="M112,448h2.007v5.018H112Zm0,0" transform="translate(-97.949 -391.796)"/>
      <path id="Trazado_1056522" data-name="Trazado 1056522" d="M367.055,282.036a5.019,5.019,0,0,1-4.268-2.383,9.388,9.388,0,0,1-5.768,2.383H353a1,1,0,0,1-1-1v-4.015A5.024,5.024,0,0,1,357.018,272h6.022a5.024,5.024,0,0,1,5.018,5.018v4.015A1,1,0,0,1,367.055,282.036Zm-13.047-2.007h3.011c1.981,0,5.018-1.615,5.018-3.011a1,1,0,1,1,2.007,0,3.017,3.017,0,0,0,2.007,2.839v-2.839a3.015,3.015,0,0,0-3.011-3.011h-6.022a3.015,3.015,0,0,0-3.011,3.011Zm0,0" transform="translate(-307.84 -237.876)"/>
      <path id="Trazado_1056523" data-name="Trazado 1056523" d="M374.022,346.036A6.028,6.028,0,0,1,368,340.015V337h2.007v3.011a4.015,4.015,0,0,0,8.029,0V336h2.007v4.015A6.028,6.028,0,0,1,374.022,346.036Zm0,0" transform="translate(-321.833 -293.847)"/>
      <path id="Trazado_1056524" data-name="Trazado 1056524" d="M341.018,342.022h-2.007a3.011,3.011,0,0,1,0-6.022h1v2.007h-1a1,1,0,1,0,0,2.007h2.007Zm0,0" transform="translate(-293.847 -293.847)"/>
      <path id="Trazado_1056525" data-name="Trazado 1056525" d="M458.007,342.022H456v-2.007h2.007a1,1,0,1,0,0-2.007h-1V336h1a3.011,3.011,0,1,1,0,6.022Zm0,0" transform="translate(-398.793 -293.847)"/>
      <path id="Trazado_1056526" data-name="Trazado 1056526" d="M355.069,412.044H337a1,1,0,0,1-1-1v-4.015A7.034,7.034,0,0,1,343.025,400h6.022a7.034,7.034,0,0,1,7.025,7.025v4.015A1,1,0,0,1,355.069,412.044Zm-17.062-2.007h16.058v-3.011a5.024,5.024,0,0,0-5.018-5.018h-6.022a5.024,5.024,0,0,0-5.018,5.018Zm0,0" transform="translate(-293.847 -349.818)"/>
      <path id="Trazado_1056527" data-name="Trazado 1056527" d="M388.015,413.018A4.019,4.019,0,0,1,384,409v-1h2.007v1a2.007,2.007,0,0,0,4.015,0v-1h2.007v1A4.019,4.019,0,0,1,388.015,413.018Zm0,0" transform="translate(-335.826 -356.815)"/>
      <path id="Trazado_1056528" data-name="Trazado 1056528" d="M368,448h2.007v5.018H368Zm0,0" transform="translate(-321.833 -391.796)"/>
      <path id="Trazado_1056529" data-name="Trazado 1056529" d="M448,448h2.007v5.018H448Zm0,0" transform="translate(-391.796 -391.796)"/>
      <path id="Trazado_1056530" data-name="Trazado 1056530" d="M199.055,6.022H185a1,1,0,0,1-1-1V1a1,1,0,0,1,1-1h14.051a1,1,0,0,1,1,1V5.018A1,1,0,0,1,199.055,6.022ZM186.007,4.015h12.044V2.007H186.007Zm0,0" transform="translate(-160.916)"/>
      <path id="Trazado_1056531" data-name="Trazado 1056531" d="M145.12,40.087H113a1,1,0,0,1-1-1V17a1,1,0,0,1,1-1h9.033v2.007h-8.029V38.08h30.109V18.007h-8.029V16h9.033a1,1,0,0,1,1,1v22.08A1,1,0,0,1,145.12,40.087Zm0,0" transform="translate(-97.949 -13.993)"/>
      <path id="Trazado_1056532" data-name="Trazado 1056532" d="M144,64h16.058v2.007H144Zm0,0" transform="translate(-125.935 -55.971)"/>
      <path id="Trazado_1056533" data-name="Trazado 1056533" d="M144,96h16.058v2.007H144Zm0,0" transform="translate(-125.935 -83.956)"/>
      <path id="Trazado_1056534" data-name="Trazado 1056534" d="M144,128h26.095v2.007H144Zm0,0" transform="translate(-125.935 -111.942)"/>
      <path id="Trazado_1056535" data-name="Trazado 1056535" d="M144,160h26.095v2.007H144Zm0,0" transform="translate(-125.935 -139.927)"/>
      <path id="Trazado_1056536" data-name="Trazado 1056536" d="M298.363,59.141a1.025,1.025,0,0,1-.133-.009,1,1,0,0,1-.819-.678l-1-3.011,1.9-.635.355,1.065,2.877-4.315,1.67,1.113L299.2,58.694a1,1,0,0,1-.835.447Zm0,0" transform="translate(-259.221 -45.09)"/>
      <path id="Trazado_1056537" data-name="Trazado 1056537" d="M142.02,203.082H137a1,1,0,0,1-.71-1.713l7.025-7.025,1.419,1.419-5.312,5.312h2.18l6.731-6.731,1.419,1.419-7.025,7.025A1,1,0,0,1,142.02,203.082Zm0,0" transform="translate(-118.937 -169.962)"/>
      <path id="Trazado_1056538" data-name="Trazado 1056538" d="M263.1,203.082h-5.018a1,1,0,0,1-.71-.294l-7.025-7.025,1.419-1.419,6.731,6.731h2.18l-5.312-5.312,1.419-1.419,7.025,7.025a1,1,0,0,1-.71,1.713Zm0,0" transform="translate(-218.937 -169.962)"/>
      <path id="Trazado_1056539" data-name="Trazado 1056539" d="M202.036,308.073h-6.022a1,1,0,0,1-1-1v-6.285a7.025,7.025,0,1,1,8.029,0v6.285A1,1,0,0,1,202.036,308.073Zm-5.018-2.007h4.015v-5.831a1,1,0,0,1,.5-.868,5.018,5.018,0,1,0-5.016,0,1,1,0,0,1,.5.868Zm0,0" transform="translate(-167.913 -251.869)"/>
      <path id="Trazado_1056540" data-name="Trazado 1056540" d="M200,400h12.044v2.007H200Zm0,0" transform="translate(-174.909 -349.818)"/>
      <path id="Trazado_1056541" data-name="Trazado 1056541" d="M240,440h2.007v3.011H240Zm0,0" transform="translate(-209.891 -384.8)"/>
      <path id="Trazado_1056542" data-name="Trazado 1056542" d="M240,336h2.007v9.033H240Zm0,0" transform="translate(-209.891 -293.847)"/>
      <path id="Trazado_1056543" data-name="Trazado 1056543" d="M152,352h7.025v2.007H152Zm0,0" transform="translate(-132.931 -307.84)"/>
      <path id="Trazado_1056544" data-name="Trazado 1056544" d="M288,352h7.025v2.007H288Zm0,0" transform="translate(-251.869 -307.84)"/>
    </g>
  </g>
</svg>
