<svg xmlns="http://www.w3.org/2000/svg" xmlns:xlink="http://www.w3.org/1999/xlink" width="113" height="113" viewBox="0 0 113 113">
  <defs>
    <filter id="Trazado_982547" x="0" y="0" width="113" height="113" filterUnits="userSpaceOnUse">
      <feOffset dy="3" input="SourceAlpha"/>
      <feGaussianBlur stdDeviation="3" result="blur"/>
      <feFlood flood-opacity="0.161"/>
      <feComposite operator="in" in2="blur"/>
      <feComposite in="SourceGraphic"/>
    </filter>
  </defs>
  <g id="Grupo_1224611" data-name="Grupo 1224611" transform="translate(-764 -5080.421)">
    <g id="Grupo_1209315" data-name="Grupo 1209315" transform="translate(-348 3850.205)">
      <g id="Grupo_1209049" data-name="Grupo 1209049">
        <g id="Grupo_1208493" data-name="Grupo 1208493" transform="translate(0 -4397.209)">
          <g id="Grupo_1202104" data-name="Grupo 1202104" transform="translate(0 -1149.226)">
            <g id="Grupo_1201923" data-name="Grupo 1201923" transform="translate(-4174.49 4856.378)">
              <g id="Grupo_1176928" data-name="Grupo 1176928" transform="translate(5295.49 1926.273)">
                <g id="Grupo_1172322" data-name="Grupo 1172322" transform="translate(0 0)">
                  <g id="Grupo_1164700" data-name="Grupo 1164700">
                    <g id="Grupo_1160931" data-name="Grupo 1160931">
                      <g id="Grupo_1160749" data-name="Grupo 1160749">
                        <g id="Grupo_1158891" data-name="Grupo 1158891">
                          <g id="Grupo_1157406" data-name="Grupo 1157406">
                            <g id="Grupo_1155793" data-name="Grupo 1155793">
                              <g id="Grupo_1154704" data-name="Grupo 1154704">
                                <g id="Grupo_1150790" data-name="Grupo 1150790">
                                  <g id="Grupo_1154214" data-name="Grupo 1154214">
                                    <g id="Grupo_1152583" data-name="Grupo 1152583">
                                      <g id="Grupo_1146973" data-name="Grupo 1146973">
                                        <g id="Grupo_1146954" data-name="Grupo 1146954">
                                          <g transform="matrix(1, 0, 0, 1, -9, -6)" filter="url(#Trazado_982547)">
                                            <g id="Trazado_982547-2" data-name="Trazado 982547" transform="translate(9 6)" fill="#fcf8db">
                                              <path d="M 47.5000114440918 93.49987030029297 C 41.28938293457031 93.49987030029297 35.26534652709961 92.28384399414062 29.5951976776123 89.88558959960938 C 24.11773109436035 87.56881713867188 19.19814491271973 84.25183868408203 14.97310447692871 80.02680206298828 C 10.74805164337158 75.80176544189453 7.43107795715332 70.88218688964844 5.114304542541504 65.40472412109375 C 2.716038227081299 59.73458862304688 1.500011444091797 53.71054840087891 1.500011444091797 47.49993515014648 C 1.500011444091797 41.28932189941406 2.716038227081299 35.26528167724609 5.114304542541504 29.59514808654785 C 7.43107795715332 24.1176815032959 10.74805164337158 19.1981086730957 14.97310447692871 14.97306823730469 C 19.19814491271973 10.74802875518799 24.11773109436035 7.431055068969727 29.5951976776123 5.11428165435791 C 35.26534652709961 2.716028451919556 41.28938293457031 1.500001788139343 47.5000114440918 1.500001788139343 C 53.71063995361328 1.500001788139343 59.73467636108398 2.716028451919556 65.40482330322266 5.11428165435791 C 70.88229370117188 7.431055068969727 75.8018798828125 10.74802875518799 80.02691650390625 14.97306823730469 C 84.25196838378906 19.1981086730957 87.56894683837891 24.1176815032959 89.88571929931641 29.59514808654785 C 92.28398132324219 35.26528167724609 93.50001525878906 41.28932189941406 93.50001525878906 47.49993515014648 C 93.50001525878906 53.71054840087891 92.28398132324219 59.73458862304688 89.88571929931641 65.40472412109375 C 87.56894683837891 70.88218688964844 84.25196838378906 75.80176544189453 80.02691650390625 80.02680206298828 C 75.8018798828125 84.25183868408203 70.88229370117188 87.56881713867188 65.40482330322266 89.88558959960938 C 59.73467636108398 92.28384399414062 53.71063995361328 93.49987030029297 47.5000114440918 93.49987030029297 Z" stroke="none"/>
                                              <path d="M 47.5000114440918 3 C 41.49122619628906 3 35.66378021240234 4.1761474609375 30.17951965332031 6.495796203613281 C 24.880859375 8.7369384765625 20.12153625488281 11.94596862792969 16.03376770019531 16.03373718261719 C 11.94598388671875 20.12149047851562 8.736968994140625 24.88081359863281 6.495811462402344 30.17947387695312 C 4.176162719726562 35.66371917724609 3.000007629394531 41.49116516113281 3.000007629394531 47.49993515014648 C 3.000007629394531 53.50870513916016 4.176162719726562 59.33615112304688 6.495811462402344 64.82039642333984 C 8.736968994140625 70.11905670166016 11.94598388671875 74.87837982177734 16.03376770019531 78.96613311767578 C 20.12153625488281 83.05390167236328 24.880859375 86.26293182373047 30.17951965332031 88.50407409667969 C 35.66378021240234 90.82372283935547 41.49122619628906 91.99987030029297 47.5000114440918 91.99987030029297 C 53.50879669189453 91.99987030029297 59.33624267578125 90.82372283935547 64.82050323486328 88.50407409667969 C 70.11916351318359 86.26293182373047 74.87848663330078 83.05390167236328 78.96625518798828 78.96613311767578 C 83.05403900146484 74.87837982177734 86.2630615234375 70.11905670166016 88.50421142578125 64.82039642333984 C 90.82386016845703 59.33615112304688 92.00001525878906 53.50870513916016 92.00001525878906 47.49993515014648 C 92.00001525878906 41.49116516113281 90.82386016845703 35.66371917724609 88.50421142578125 30.17947387695312 C 86.2630615234375 24.88081359863281 83.05403900146484 20.12149047851562 78.96625518798828 16.03373718261719 C 74.87848663330078 11.94596862792969 70.11916351318359 8.7369384765625 64.82050323486328 6.495796203613281 C 59.33624267578125 4.1761474609375 53.50879669189453 3 47.5000114440918 3 M 47.5000114440918 0 C 73.73353576660156 0 95.00001525878906 21.26644134521484 95.00001525878906 47.49993515014648 C 95.00001525878906 73.73342895507812 73.73353576660156 94.99987030029297 47.5000114440918 94.99987030029297 C 21.26648712158203 94.99987030029297 7.62939453125e-06 73.73342895507812 7.62939453125e-06 47.49993515014648 C 7.62939453125e-06 21.26644134521484 21.26648712158203 0 47.5000114440918 0 Z" stroke="none" fill="#83793c"/>
                                            </g>
                                          </g>
                                        </g>
                                      </g>
                                    </g>
                                  </g>
                                </g>
                              </g>
                            </g>
                          </g>
                        </g>
                      </g>
                    </g>
                  </g>
                </g>
              </g>
            </g>
          </g>
        </g>
      </g>
    </g>
    <g id="refresh_11255015" transform="translate(780.103 5098.192)">
      <g id="Grupo_1224602" data-name="Grupo 1224602" transform="translate(4.27 0.007)">
        <path id="Trazado_1056545" data-name="Trazado 1056545" d="M46.5,12.291,38.659,7.01l.032,2.682-1.78.443A33.892,33.892,0,0,0,11.789,48.911l4.43-1.665a29.227,29.227,0,0,1,19.5-31.933l3.026-1.028.04,3.208Z" transform="translate(-10.294 -6.033)" fill="#686868" fill-rule="evenodd"/>
        <path id="Trazado_1056546" data-name="Trazado 1056546" d="M5.765,43.862a.977.977,0,0,1-.962-.806A34.844,34.844,0,0,1,30.65,3.161l1.03-.256L31.658,1A.977.977,0,0,1,33.18.174l7.84,5.281a.977.977,0,0,1,0,1.62l-7.709,5.2a.977.977,0,0,1-1.523-.8l-.023-1.862-1.751.6A28.249,28.249,0,0,0,11.162,41.076a.977.977,0,0,1-.623,1.058L6.109,43.8a.978.978,0,0,1-.344.062ZM33.634,2.835l.01.819a.977.977,0,0,1-.741.96l-1.78.443a32.8,32.8,0,0,0-24.9,31.894,33.242,33.242,0,0,0,.318,4.6l2.581-.97A30.207,30.207,0,0,1,29.386,8.362l3.026-1.028a.977.977,0,0,1,1.291.913l.017,1.4,5.007-3.378Z" transform="translate(-4.27 -0.007)"/>
      </g>
      <g id="Grupo_1224603" data-name="Grupo 1224603" transform="translate(48.947 3.366)">
        <path id="Trazado_1056547" data-name="Trazado 1056547" d="M346.578,79.448l8.489-4.149-2.338-1.313.506-1.764a33.9,33.9,0,0,0-21.016-41.145l-.775,4.668a29.256,29.256,0,0,1,17.9,32.862l-.625,3.133-2.8-1.57Z" transform="translate(-330.467 -30.099)" fill="#686868" fill-rule="evenodd"/>
        <path id="Trazado_1056548" data-name="Trazado 1056548" d="M340.552,74.4a.977.977,0,0,1-.975-.909l-.653-9.28a.977.977,0,0,1,1.453-.92l1.623.911.362-1.813a28.278,28.278,0,0,0-17.305-31.763.977.977,0,0,1-.6-1.068l.775-4.667a.977.977,0,0,1,1.3-.758,34.844,34.844,0,0,1,21.62,42.332l-.293,1.021,1.664.935a.977.977,0,0,1-.05,1.73L340.98,74.3a.971.971,0,0,1-.429.1ZM341,65.885l.424,6.026,5.514-2.7-.714-.4a.977.977,0,0,1-.461-1.121l.506-1.764A32.8,32.8,0,0,0,331.1,28.42a33.292,33.292,0,0,0-4.139-2.024l-.452,2.719a30.231,30.231,0,0,1,17.77,33.66l-.625,3.133a.977.977,0,0,1-1.436.661Z" transform="translate(-324.441 -24.077)"/>
      </g>
      <g id="Grupo_1224604" data-name="Grupo 1224604" transform="translate(10.911 49.799)">
        <path id="Trazado_1056549" data-name="Trazado 1056549" d="M59.513,363.835l-.649,9.43L61.17,371.9l1.274,1.321A33.863,33.863,0,0,0,103.707,379a34.47,34.47,0,0,0,4.877-3.418l-3.655-3.006a29.228,29.228,0,0,1-37.411-.926l-2.4-2.1,2.761-1.638Z" transform="translate(-57.887 -362.858)" fill="#686868" fill-rule="evenodd"/>
        <path id="Trazado_1056550" data-name="Trazado 1056550" d="M80.714,378.486a34.753,34.753,0,0,1-25-10.613l-.737-.765-1.641.974a.977.977,0,0,1-1.473-.907l.649-9.43a.977.977,0,0,1,1.4-.811l8.366,4.078a.977.977,0,0,1,.07,1.719l-1.6.951,1.388,1.217a28.252,28.252,0,0,0,36.161.894.977.977,0,0,1,1.227.012l3.655,3.006a.977.977,0,0,1,.007,1.5,35.555,35.555,0,0,1-5.015,3.515,35.025,35.025,0,0,1-17.459,4.659ZM55.145,364.9a.976.976,0,0,1,.7.3l1.274,1.321a32.8,32.8,0,0,0,40.072,5.619,33.634,33.634,0,0,0,3.82-2.578l-2.129-1.751a30.182,30.182,0,0,1-38.035-1.44l-2.4-2.1a.977.977,0,0,1,.146-1.575l1.2-.713-5.434-2.649-.421,6.126.7-.418A.973.973,0,0,1,55.145,364.9Z" transform="translate(-51.862 -356.835)"/>
      </g>
      <g id="Grupo_1224605" data-name="Grupo 1224605" transform="translate(15.29 12.519)">
        <path id="Trazado_1056551" data-name="Trazado 1056551" d="M113.332,142.846a23.088,23.088,0,1,0-23.088-23.088A23.136,23.136,0,0,0,113.332,142.846Z" transform="translate(-89.267 -95.693)" fill="#e4f5fd" fill-rule="evenodd"/>
        <path id="Trazado_1056552" data-name="Trazado 1056552" d="M107.308,137.8a24.065,24.065,0,1,1,24.069-24.065A24.092,24.092,0,0,1,107.308,137.8Zm0-46.176a22.111,22.111,0,1,0,22.115,22.111A22.136,22.136,0,0,0,107.308,91.622Z" transform="translate(-83.243 -89.668)"/>
      </g>
      <g id="Grupo_1224606" data-name="Grupo 1224606" transform="translate(40.336 31.968)">
        <path id="Trazado_1056553" data-name="Trazado 1056553" d="M269.734,236.049h5.205v15.992h-5.205Z" transform="translate(-268.757 -235.072)" fill="#00c8c8" fill-rule="evenodd"/>
        <path id="Trazado_1056554" data-name="Trazado 1056554" d="M268.915,246.993H263.71a.977.977,0,0,1-.977-.977V230.024a.977.977,0,0,1,.977-.977h5.205a.977.977,0,0,1,.977.977v15.992A.977.977,0,0,1,268.915,246.993Zm-4.229-1.954h3.251V231h-3.251Z" transform="translate(-262.733 -229.047)"/>
      </g>
      <g id="Grupo_1224607" data-name="Grupo 1224607" transform="translate(49.169 25.924)">
        <path id="Trazado_1056555" data-name="Trazado 1056555" d="M338.237,200.081v14.691h-5.205V192.736h5.205Z" transform="translate(-332.055 -191.759)" fill="#9cdd05" fill-rule="evenodd"/>
        <path id="Trazado_1056556" data-name="Trazado 1056556" d="M332.212,209.724h-5.205a.977.977,0,0,1-.977-.977V186.711a.977.977,0,0,1,.977-.977h5.205a.977.977,0,0,1,.977.977v22.036A.977.977,0,0,1,332.212,209.724Zm-4.228-1.954h3.251V187.688h-3.251Z" transform="translate(-326.03 -185.734)"/>
      </g>
      <g id="Grupo_1224608" data-name="Grupo 1224608" transform="translate(31.5 38)">
        <path id="Trazado_1056557" data-name="Trazado 1056557" d="M206.408,279.278h5.205v9.96h-5.205Z" transform="translate(-205.431 -278.301)" fill="#fdbf00" fill-rule="evenodd"/>
        <path id="Trazado_1056558" data-name="Trazado 1056558" d="M205.589,284.19h-5.205a.977.977,0,0,1-.977-.977v-9.96a.977.977,0,0,1,.977-.977h5.205a.977.977,0,0,1,.977.977v9.96A.977.977,0,0,1,205.589,284.19Zm-4.228-1.954h3.251V274.23h-3.251Z" transform="translate(-199.407 -272.276)"/>
      </g>
      <g id="Grupo_1224609" data-name="Grupo 1224609" transform="translate(22.386 23.258)">
        <path id="Trazado_1056559" data-name="Trazado 1056559" d="M154.677,178.429l-11.914,6.879L141.1,182.42l11.914-6.879-1.1-1.91,7.064.392-3.192,6.317Z" transform="translate(-140.121 -172.654)" fill="#559b38" fill-rule="evenodd"/>
        <path id="Trazado_1056560" data-name="Trazado 1056560" d="M136.738,180.261a.977.977,0,0,1-.846-.489l-1.665-2.887a.977.977,0,0,1,.358-1.334l11.068-6.39-.615-1.064a.977.977,0,0,1,.9-1.464l7.065.392a.977.977,0,0,1,.818,1.416l-3.192,6.317a.977.977,0,0,1-1.718.048l-.615-1.065-11.068,6.39a.977.977,0,0,1-.489.131Zm-.331-3.507.689,1.195,11.067-6.39a.977.977,0,0,1,1.335.358l.2.346,1.7-3.371-3.769-.209.2.346a.977.977,0,0,1-.358,1.335Z" transform="translate(-134.096 -166.63)" fill="#010101"/>
      </g>
      <g id="Grupo_1224610" data-name="Grupo 1224610" transform="translate(22.663 44.289)">
        <path id="Trazado_1056561" data-name="Trazado 1056561" d="M143.082,324.349h5.205v3.671h-5.205Z" transform="translate(-142.105 -323.372)" fill="#ff3980" fill-rule="evenodd"/>
        <path id="Trazado_1056562" data-name="Trazado 1056562" d="M142.263,322.972h-5.205a.977.977,0,0,1-.977-.977v-3.671a.977.977,0,0,1,.977-.977h5.205a.977.977,0,0,1,.977.977v3.671A.977.977,0,0,1,142.263,322.972Zm-4.229-1.954h3.251V319.3h-3.251Z" transform="translate(-136.081 -317.347)"/>
      </g>
    </g>
  </g>
</svg>
