<svg xmlns="http://www.w3.org/2000/svg" xmlns:xlink="http://www.w3.org/1999/xlink" width="103" height="103" viewBox="0 0 103 103">
  <defs>
    <filter id="Trazado_904820" x="0" y="0" width="103" height="103" filterUnits="userSpaceOnUse">
      <feOffset dy="3" input="SourceAlpha"/>
      <feGaussianBlur stdDeviation="3" result="blur"/>
      <feFlood flood-opacity="0.161"/>
      <feComposite operator="in" in2="blur"/>
      <feComposite in="SourceGraphic"/>
    </filter>
  </defs>
  <g id="Grupo_1209317" data-name="Grupo 1209317" transform="translate(-166 -1650)">
    <g id="Grupo_1208498" data-name="Grupo 1208498" transform="translate(175 1656)">
      <g id="Grupo_1207936" data-name="Grupo 1207936" transform="translate(0 0)">
        <g id="Grupo_1201662" data-name="Grupo 1201662">
          <g id="Grupo_1173585" data-name="Grupo 1173585">
            <g id="Grupo_1173428" data-name="Grupo 1173428">
              <g id="Grupo_1171958" data-name="Grupo 1171958">
                <g id="Grupo_1167341" data-name="Grupo 1167341">
                  <g id="Grupo_1166792" data-name="Grupo 1166792">
                    <g transform="matrix(1, 0, 0, 1, -9, -6)" filter="url(#Trazado_904820)">
                      <g id="Trazado_904820-2" data-name="Trazado 904820" transform="translate(9 6)" fill="#effbfe">
                        <path d="M 42.49999618530273 83.49997711181641 C 36.96437454223633 83.49997711181641 31.59512519836426 82.41616058349609 26.54140853881836 80.27861785888672 C 21.65933799743652 78.21367645263672 17.27447891235352 75.25721740722656 13.50861930847168 71.49135589599609 C 9.742773056030273 67.72550964355469 6.786302089691162 63.34065246582031 4.721360683441162 58.45858001708984 C 2.583819627761841 53.40486145019531 1.499996185302734 48.03561401367188 1.499996185302734 42.49999237060547 C 1.499996185302734 36.96437072753906 2.583819627761841 31.59512138366699 4.721360683441162 26.54140472412109 C 6.786302089691162 21.65933418273926 9.742773056030273 17.27447509765625 13.50861930847168 13.50861549377441 C 17.27447891235352 9.742769241333008 21.65933799743652 6.786310195922852 26.54140853881836 4.721368789672852 C 31.59512519836426 2.58382773399353 36.96437454223633 1.500004172325134 42.49999618530273 1.500004172325134 C 48.03561782836914 1.500004172325134 53.40486526489258 2.58382773399353 58.45858383178711 4.721368789672852 C 63.34065628051758 6.786310195922852 67.72551727294922 9.742769241333008 71.49137115478516 13.50861549377441 C 75.25721740722656 17.27447509765625 78.21369171142578 21.65933418273926 80.27863311767578 26.54140472412109 C 82.41617584228516 31.59512138366699 83.5 36.96437072753906 83.5 42.49999237060547 C 83.5 48.03561401367188 82.41617584228516 53.40486145019531 80.27863311767578 58.45858001708984 C 78.21369171142578 63.34065246582031 75.25721740722656 67.72550964355469 71.49137115478516 71.49135589599609 C 67.72551727294922 75.25721740722656 63.34065628051758 78.21367645263672 58.45858383178711 80.27861785888672 C 53.40486526489258 82.41616058349609 48.03561782836914 83.49997711181641 42.49999618530273 83.49997711181641 Z" stroke="none"/>
                        <path d="M 42.49999618530273 2.999992370605469 C 37.16621017456055 2.999992370605469 31.99355697631836 4.043952941894531 27.1257438659668 6.102874755859375 C 22.42246246337891 8.092178344726562 18.19786071777344 10.94069671630859 14.56927490234375 14.56927490234375 C 10.94070434570312 18.19786071777344 8.092185974121094 22.42245864868164 6.102874755859375 27.12572479248047 C 4.043952941894531 31.99355316162109 2.999992370605469 37.16620635986328 2.999992370605469 42.49999237060547 C 2.999992370605469 47.83377838134766 4.043952941894531 53.00641632080078 6.102874755859375 57.87424468994141 C 8.092185974121094 62.5775260925293 10.94070434570312 66.8021240234375 14.56927490234375 70.43070220947266 C 18.19786071777344 74.05927276611328 22.42246246337891 76.90779113769531 27.1257438659668 78.89710998535156 C 31.99355697631836 80.95601654052734 37.16621017456055 81.99997711181641 42.49999618530273 81.99997711181641 C 47.83378219604492 81.99997711181641 53.00643539428711 80.95601654052734 57.87425231933594 78.89710998535156 C 62.57752990722656 76.90779113769531 66.80213165283203 74.05927276611328 70.43071746826172 70.43070220947266 C 74.05928802490234 66.8021240234375 76.90780639648438 62.5775260925293 78.89711761474609 57.87424468994141 C 80.95603942871094 53.00641632080078 82 47.83377838134766 82 42.49999237060547 C 82 37.16620635986328 80.95603942871094 31.99355316162109 78.89711761474609 27.12572479248047 C 76.90780639648438 22.42245864868164 74.05928802490234 18.19786071777344 70.43071746826172 14.56927490234375 C 66.80213165283203 10.94069671630859 62.57752990722656 8.092178344726562 57.87425231933594 6.102874755859375 C 53.00643539428711 4.043952941894531 47.83378219604492 2.999992370605469 42.49999618530273 2.999992370605469 M 42.49999618530273 -7.62939453125e-06 C 65.97209167480469 -7.62939453125e-06 85 19.02788543701172 85 42.49999237060547 C 85 65.97208404541016 65.97209167480469 84.99997711181641 42.49999618530273 84.99997711181641 C 19.02790069580078 84.99997711181641 -7.62939453125e-06 65.97208404541016 -7.62939453125e-06 42.49999237060547 C -7.62939453125e-06 19.02788543701172 19.02790069580078 -7.62939453125e-06 42.49999618530273 -7.62939453125e-06 Z" stroke="none" fill="#6ae2f6"/>
                      </g>
                    </g>
                  </g>
                </g>
              </g>
            </g>
          </g>
        </g>
      </g>
    </g>
    <g id="inspire-idea_14781822_1_" data-name="inspire-idea_14781822 (1)" transform="translate(183.57 1664.044)">
      <g id="Grupo_1173811" data-name="Grupo 1173811" transform="translate(7.75 7.5)">
        <path id="Trazado_1030754" data-name="Trazado 1030754" d="M118.589,345.833V342a2.332,2.332,0,0,0,1.9-2.291v-6.594h12.044v6.594a2.332,2.332,0,0,0,1.9,2.291l.328,3.3Z" transform="translate(-106.9 -298.776)" fill="#ca6e59"/>
        <path id="Trazado_1030755" data-name="Trazado 1030755" d="M61.049,17.879c0,7.588-4.083,16.6-14.478,13.62L37.9,27.553a3.425,3.425,0,0,1-.226-5.065l.875-.241.605-.6a3.619,3.619,0,0,1,.725-6.208.319.319,0,0,0,.187-.371,3.436,3.436,0,0,1-.1-.809,3.344,3.344,0,0,1,3.307-3.379,3.31,3.31,0,0,1,.643.064,1.57,1.57,0,0,1,.25-.253,1.336,1.336,0,0,0,.555-1.165,3.727,3.727,0,0,1,5.222-.369.315.315,0,0,0,.472-.076,3.272,3.272,0,0,1,5.6,0,.315.315,0,0,0,.473.075,3.714,3.714,0,0,1,.743-.493C61.049,9.818,61.049,15.141,61.049,17.879Z" transform="translate(-33.611 -7.5)" fill="#73788c"/>
        <path id="Trazado_1030756" data-name="Trazado 1030756" d="M153.843,31.36a3.4,3.4,0,0,1-1.237,2.634l-9.92,5.391h-8.868l-3.178-1.446A15.582,15.582,0,0,0,141.3,15.1a3.691,3.691,0,0,1,1.679-.4,3.742,3.742,0,0,1,2.8,1.264l.174.851.631.567a3.308,3.308,0,0,1,.642-.064,3.344,3.344,0,0,1,3.308,3.379,3.454,3.454,0,0,1-.174,1.081,3.615,3.615,0,0,1,.99,6.307A3.368,3.368,0,0,1,153.843,31.36Z" transform="translate(-117.681 -13.941)" fill="#5e6577"/>
        <path id="Trazado_1030757" data-name="Trazado 1030757" d="M68.9,200.452a5.774,5.774,0,0,0,4.4-5.607h0a2.3,2.3,0,0,0-2.3-2.3H68.9l-23.127,0h-2.1a2.3,2.3,0,0,0-2.3,2.3h0a5.773,5.773,0,0,0,4.4,5.607Z" transform="translate(-37.829 -173.035)" fill="#ca6e59"/>
        <path id="Trazado_1030758" data-name="Trazado 1030758" d="M100.467,130.957a2.284,2.284,0,0,1,2.983.983,9.171,9.171,0,0,0,.765,1.162l.5.663c.211.616.681,3.492,1.332,3.492v8.759a7.307,7.307,0,0,1-2.5,5.5l-4.537,3.971a4.871,4.871,0,0,1-3.207,1.2H93.115a4.871,4.871,0,0,1-3.207-1.2l-4.537-3.971a7.307,7.307,0,0,1-2.5-5.5v-8.759a1.551,1.551,0,0,0,1.441-1.06l1-3.9a2.284,2.284,0,0,1,3.146-1.32l.146.07,1.176.45a13.015,13.015,0,0,0,9.314,0l1.175-.45Z" transform="translate(-74.953 -117.743)" fill="#d78878"/>
        <path id="Trazado_1030759" data-name="Trazado 1030759" d="M170.739,300.206c-2.5,0-2.613-2.309-2.571-3.147a.316.316,0,0,1,.316-.3h4.5a.315.315,0,0,1,.316.307C173.324,297.911,173.159,300.206,170.739,300.206Z" transform="translate(-151.246 -266.256)" fill="#eaf6ff"/>
        <path id="Trazado_1030760" data-name="Trazado 1030760" d="M14.686,439.952l-6.619-.015a.316.316,0,0,1-.316-.316v-5.877a.317.317,0,0,1,.17-.282,10.229,10.229,0,0,1,2.758-.949l.762-.153,6.726,2.495Z" transform="translate(-7.75 -387.556)" fill="#9be69d"/>
        <path id="Trazado_1030761" data-name="Trazado 1030761" d="M298.329,435.341l-2.553,4.167-8.814.006-3.189-5.585c.035-.036,6.447-2.049,6.447-2.049l.436.083a10.232,10.232,0,0,1,2.882,1.014Z" transform="translate(-254.664 -387.127)" fill="#9be69d"/>
        <path id="Trazado_1030762" data-name="Trazado 1030762" d="M122.707,418.39l.963,4.839-3.482,4.215-10.572.012-4.01-4.42,1.5-4.621A10.828,10.828,0,0,0,122.707,418.39Z" transform="translate(-95.287 -375.059)" fill="#eaf6ff"/>
        <path id="Trazado_1030763" data-name="Trazado 1030763" d="M49.547,409.326l-2.88-10.354a1.159,1.159,0,0,0-1.454-.8l-6.4,1.951a.5.5,0,0,0-.314.684l1.35,3.058a.317.317,0,0,0,.219.181l3.29.755a.316.316,0,0,1,.189.489l-1.785,2.559a.316.316,0,0,0-.038.288l.43,1.188Z" transform="translate(-35.217 -356.93)" fill="#bbf49b"/>
        <path id="Trazado_1030764" data-name="Trazado 1030764" d="M243.879,409.11l2.883-10.366a1.158,1.158,0,0,1,1.454-.8l6.4,1.95a.5.5,0,0,1,.314.684l-1.35,3.058a.316.316,0,0,1-.219.181l-3.29.754a.316.316,0,0,0-.189.49l1.786,2.559a.316.316,0,0,1,.038.288l-.432,1.2Z" transform="translate(-218.978 -356.726)" fill="#bbf49b"/>
        <g id="Grupo_1173808" data-name="Grupo 1173808" transform="translate(39.038 28.607)">
          <path id="Trazado_1030765" data-name="Trazado 1030765" d="M390.464,387.922v4.056a12.353,12.353,0,0,1-.278,2.459,8.632,8.632,0,0,1-1,1.8c-.639,1.076-.359,2.183-.355,3.434l-.81.518h-7.992v-1.736a4.361,4.361,0,0,0-1.147-2.947,3.61,3.61,0,0,1-.948-2.436v-1.747a2.139,2.139,0,0,1,.913-1.753Z" transform="translate(-377.933 -376.411)" fill="#d78878"/>
          <g id="Grupo_1173807" data-name="Grupo 1173807" transform="translate(9.754 6.809)">
            <path id="Trazado_1030766" data-name="Trazado 1030766" d="M473.2,344.03v4.021a.843.843,0,0,1-.339.755c-.253.253-1.142-.134-1.528-.131l-.688-.735-.222-2.614.73-.563a1.414,1.414,0,0,1,1.377-1.412C473,343.523,473.2,343.761,473.2,344.03Z" transform="translate(-470.425 -343.35)" fill="#d78878"/>
            <path id="Trazado_1030767" data-name="Trazado 1030767" d="M481.7,344.753v3.177a1.415,1.415,0,0,1-2.559.831l-.091-.1a1.415,1.415,0,0,0,1.4-1.415v-3.174a1.406,1.406,0,0,0-.206-.735h.038A1.414,1.414,0,0,1,481.7,344.753Z" transform="translate(-478.144 -343.34)" fill="#ca6e59"/>
          </g>
          <path id="Trazado_1030768" data-name="Trazado 1030768" d="M476.784,386.87v4.23a6.9,6.9,0,0,1-.97,3.527,6.9,6.9,0,0,0-.969,3.554l0,.745a.316.316,0,0,1-.316.318h-.973l0-1.063a6.911,6.911,0,0,1,.97-3.554,6.9,6.9,0,0,0,.97-3.527v-4.047Z" transform="translate(-463.47 -375.47)" fill="#ca6e59"/>
          <path id="Trazado_1030769" data-name="Trazado 1030769" d="M391.482,281.388v11.423c0,.82-1.342,1.491-2.163,1.491l.7-1.863-.964-.917V281.388a1.493,1.493,0,0,1,.88-1.358A1.379,1.379,0,0,1,391.482,281.388Z" transform="translate(-387.879 -279.897)" fill="#d78878"/>
          <path id="Trazado_1030770" data-name="Trazado 1030770" d="M417.758,332.209v3.748c0,.6-.981,1.127-1.5,1.36a1.5,1.5,0,0,1-.883-1.36l-.364-.081v-3.538l.364-.129a1.494,1.494,0,0,1,.883-1.359C417.509,331.01,417.758,331.606,417.758,332.209Z" transform="translate(-411.101 -325.358)" fill="#d78878"/>
          <path id="Trazado_1030771" data-name="Trazado 1030771" d="M447.362,332.209v3.975c0,.6-1.091,1.126-1.61,1.359a1.493,1.493,0,0,1-.883-1.359l-.355-.227V332.37l.355-.161a1.494,1.494,0,0,1,.883-1.359C447.166,331.042,447.362,331.606,447.362,332.209Z" transform="translate(-437.493 -325.358)" fill="#d78878"/>
          <path id="Trazado_1030772" data-name="Trazado 1030772" d="M399.616,280.261v10.815a.674.674,0,0,1-1.344,0V280.261a1.5,1.5,0,0,0-.878-1.358,1.469,1.469,0,0,1,.612-.133h.119A1.5,1.5,0,0,1,399.616,280.261Z" transform="translate(-395.342 -278.77)" fill="#ca6e59"/>
          <path id="Trazado_1030773" data-name="Trazado 1030773" d="M429.054,331.091v3.748a1.5,1.5,0,0,1-1.491,1.492h-.12a1.457,1.457,0,0,1-.608-.132,1.5,1.5,0,0,0,.883-1.36v-3.748a1.5,1.5,0,0,0-.883-1.359,1.458,1.458,0,0,1,.608-.132h.12A1.5,1.5,0,0,1,429.054,331.091Z" transform="translate(-421.677 -324.24)" fill="#ca6e59"/>
          <path id="Trazado_1030774" data-name="Trazado 1030774" d="M458.474,331.091v3.975a1.5,1.5,0,0,1-1.492,1.491h-.119a1.453,1.453,0,0,1-.609-.132,1.494,1.494,0,0,0,.882-1.359v-3.975a1.5,1.5,0,0,0-.882-1.359,1.454,1.454,0,0,1,.609-.132h.119A1.5,1.5,0,0,1,458.474,331.091Z" transform="translate(-447.995 -324.24)" fill="#ca6e59"/>
          <path id="Trazado_1030775" data-name="Trazado 1030775" d="M399.521,367.114a3.207,3.207,0,0,1-.068.657c-.277,1.326-2.251,1.491-3.649,1.636a4.462,4.462,0,0,0-2.643-.36c-.836.259-1.361,1.6-1.374,1.592l-2.738-1.432v-1.348l2.643-1.9a2.962,2.962,0,0,1,1.692-.551l4.388-.041A1.75,1.75,0,0,1,399.521,367.114Z" transform="translate(-387.878 -356.234)" fill="#ca6e59"/>
          <path id="Trazado_1030776" data-name="Trazado 1030776" d="M390.615,381.07l1.249-1.68a.317.317,0,0,1,.216-.125l2.7-.327a2.141,2.141,0,0,0,1.476-2.054.72.72,0,0,0-.725-.7h-3.97a2.68,2.68,0,0,0-1.537.484l-3.426,2.4Z" transform="translate(-385.682 -365.907)" fill="#d78878"/>
        </g>
        <g id="Grupo_1173810" data-name="Grupo 1173810" transform="translate(28.976 1.491)">
          <path id="Trazado_1030777" data-name="Trazado 1030777" d="M303.669,30.084a12.285,12.285,0,0,1-12.2,12.474c-2.225,0-7.111-1.633-7.746-3.406l.12-.485a.313.313,0,0,0-.027-.22,11.515,11.515,0,0,1,17.83-13.94A10.931,10.931,0,0,1,303.669,30.084Z" transform="translate(-282.516 -21.635)" fill="#eaf6ff"/>
          <path id="Trazado_1030778" data-name="Trazado 1030778" d="M306.509,59.941a11.533,11.533,0,0,1-17.284,7.364.314.314,0,0,0-.224-.041l-4.749.9a.317.317,0,0,1-.367-.387l1.056-4.271a12.418,12.418,0,0,0,17.923-14.646A11.487,11.487,0,0,1,306.509,59.941Z" transform="translate(-283.733 -45.993)" fill="#d8ecfe"/>
          <g id="Grupo_1173809" data-name="Grupo 1173809" transform="translate(5.573 2.869)">
            <path id="Trazado_1030779" data-name="Trazado 1030779" d="M345.884,55.435c0,3.085-3.241,6.07-6.39,6.07-.478,0-.994.325-1.828-.907a6.71,6.71,0,0,0-.825-1.451,5.716,5.716,0,0,1,3.225-9.464C344.394,49.682,345.884,52.69,345.884,55.435Z" transform="translate(-335.361 -49.593)" fill="#ffe177"/>
            <path id="Trazado_1030780" data-name="Trazado 1030780" d="M364.868,54.553a5.7,5.7,0,0,1-1.454,3.808,6.9,6.9,0,0,0-1.384,4.115v.357l-5.754.019v-.316a9.66,9.66,0,0,0-.707-3.144,5.788,5.788,0,0,0,1.385.166c3.149,0,5.876-2.05,5.876-5.136a5.62,5.62,0,0,0-4.686-5.5,5.72,5.72,0,0,1,6.725,5.627Z" transform="translate(-353.437 -48.837)" fill="#ffd15b"/>
            <path id="Trazado_1030781" data-name="Trazado 1030781" d="M366.831,179.51l.895,1.747c0,.948-.568,1.747-2.61,1.747h-.448a1.716,1.716,0,0,1-1.716-1.716V179.51h3.879Z" transform="translate(-360.042 -165.73)" fill="#5e6577"/>
            <path id="Trazado_1030782" data-name="Trazado 1030782" d="M386.922,179.511v1.778a1.716,1.716,0,0,1-1.716,1.716h-1.731a1.715,1.715,0,0,0,1.715-1.716v-1.778Z" transform="translate(-378.4 -165.731)" fill="#4d5263"/>
            <path id="Trazado_1030783" data-name="Trazado 1030783" d="M354.293,160.587c0,.38.23.81,0,1.06a6.911,6.911,0,0,1-2.294.544h-4.221a1.328,1.328,0,0,1-1.274-1.375,1.433,1.433,0,0,1,.373-.974,1.228,1.228,0,0,1,.9-.4H352C352.7,159.439,354.293,159.826,354.293,160.587Z" transform="translate(-345.329 -147.775)" fill="#73788c"/>
            <path id="Trazado_1030784" data-name="Trazado 1030784" d="M402.2,160.815a1.431,1.431,0,0,1-.373.973,1.228,1.228,0,0,1-.9.4h-2.311a1.226,1.226,0,0,0,.9-.4,1.431,1.431,0,0,0,.373-.973,1.328,1.328,0,0,0-1.274-1.376h2.311A1.328,1.328,0,0,1,402.2,160.815Z" transform="translate(-391.941 -147.775)" fill="#5e6577"/>
          </g>
        </g>
      </g>
      <g id="Grupo_1173820" data-name="Grupo 1173820" transform="translate(7.75 7.5)">
        <g id="Grupo_1173812" data-name="Grupo 1173812" transform="translate(3.546 19.517)">
          <path id="Trazado_1030785" data-name="Trazado 1030785" d="M45.721,200.467a5.773,5.773,0,0,1-4.345-5.594h0a2.3,2.3,0,0,1,2.3-2.3h2.1" transform="translate(-41.376 -192.577)" fill="none" stroke="#000" stroke-linecap="round" stroke-linejoin="round" stroke-miterlimit="10" stroke-width="1"/>
          <path id="Trazado_1030786" data-name="Trazado 1030786" d="M307.076,232.041a5.783,5.783,0,0,1-4.019,3.721" transform="translate(-275.461 -227.879)" fill="none" stroke="#000" stroke-linecap="round" stroke-linejoin="round" stroke-miterlimit="10" stroke-width="1"/>
        </g>
        <path id="Trazado_1030787" data-name="Trazado 1030787" d="M209.872,132.233a13.013,13.013,0,0,0,2.829-.733l1.176-.45.2-.092a2.284,2.284,0,0,1,3.133,1.327" transform="translate(-188.557 -117.743)" fill="none" stroke="#000" stroke-linecap="round" stroke-linejoin="round" stroke-miterlimit="10" stroke-width="1"/>
        <path id="Trazado_1030788" data-name="Trazado 1030788" d="M106.046,141.646v4.5a7.307,7.307,0,0,1-2.5,5.5l-4.537,3.971a4.871,4.871,0,0,1-3.207,1.2H93.115a4.871,4.871,0,0,1-3.207-1.2l-4.537-3.971a7.306,7.306,0,0,1-2.5-5.5V137.39a1.551,1.551,0,0,0,1.441-1.06l1-3.9a2.284,2.284,0,0,1,3.146-1.32l.146.07,1.176.45a13.005,13.005,0,0,0,2.812.73" transform="translate(-74.953 -117.875)" fill="none" stroke="#000" stroke-linecap="round" stroke-linejoin="round" stroke-miterlimit="10" stroke-width="1"/>
        <g id="Grupo_1173814" data-name="Grupo 1173814" transform="translate(12.815 18.515)">
          <g id="Grupo_1173813" data-name="Grupo 1173813">
            <path id="Trazado_1030789" data-name="Trazado 1030789" d="M184.306,262.089a2.445,2.445,0,0,1-2.217,0" transform="translate(-176.519 -253.756)" fill="none" stroke="#000" stroke-linecap="round" stroke-linejoin="round" stroke-miterlimit="10" stroke-width="1"/>
            <path id="Trazado_1030790" data-name="Trazado 1030790" d="M133.321,183.592a4.218,4.218,0,0,0-4.055,0" transform="translate(-129.266 -183.073)" fill="none" stroke="#000" stroke-linecap="round" stroke-linejoin="round" stroke-miterlimit="10" stroke-width="1"/>
            <path id="Trazado_1030791" data-name="Trazado 1030791" d="M221.541,183.592a4.218,4.218,0,0,0-4.055,0" transform="translate(-208.183 -183.073)" fill="none" stroke="#000" stroke-linecap="round" stroke-linejoin="round" stroke-miterlimit="10" stroke-width="1"/>
            <line id="Línea_813" data-name="Línea 813" y1="1.796" transform="translate(11.331 3.045)" fill="none" stroke="#000" stroke-linecap="round" stroke-linejoin="round" stroke-miterlimit="10" stroke-width="1"/>
            <line id="Línea_814" data-name="Línea 814" y1="1.796" transform="translate(2.027 3.045)" fill="none" stroke="#000" stroke-linecap="round" stroke-linejoin="round" stroke-miterlimit="10" stroke-width="1"/>
          </g>
          <path id="Trazado_1030792" data-name="Trazado 1030792" d="M170.74,300.206c-3.056,0-2.545-3.446-2.545-3.446h5.09S173.7,300.206,170.74,300.206Z" transform="translate(-164.06 -284.771)" fill="none" stroke="#000" stroke-linecap="round" stroke-linejoin="round" stroke-miterlimit="10" stroke-width="1"/>
        </g>
        <path id="Trazado_1030793" data-name="Trazado 1030793" d="M65.676,12.061a3.261,3.261,0,0,0-3.157-1.118,3.8,3.8,0,0,0-3.6-2.683,3.735,3.735,0,0,0-2.708,1.166,3.279,3.279,0,0,0-5.973,0,3.735,3.735,0,0,0-2.708-1.166,3.8,3.8,0,0,0-3.6,2.683,3.259,3.259,0,0,0-.643-.064,3.343,3.343,0,0,0-3.308,3.378,3.438,3.438,0,0,0,.174,1.081,3.616,3.616,0,0,0-.99,6.308A3.407,3.407,0,0,0,37.9,27.553" transform="translate(-33.615 -7.5)" fill="none" stroke="#000" stroke-linecap="round" stroke-linejoin="round" stroke-miterlimit="10" stroke-width="1"/>
        <path id="Trazado_1030794" data-name="Trazado 1030794" d="M61.819,142.246a3.311,3.311,0,0,1-1.492-.6" transform="translate(-54.782 -127.495)" fill="none" stroke="#000" stroke-linecap="round" stroke-linejoin="round" stroke-miterlimit="10" stroke-width="1"/>
        <path id="Trazado_1030795" data-name="Trazado 1030795" d="M105.6,40.2a3.139,3.139,0,0,1,1.989,1.322" transform="translate(-95.281 -36.751)" fill="none" stroke="#000" stroke-linecap="round" stroke-linejoin="round" stroke-miterlimit="10" stroke-width="1"/>
        <path id="Trazado_1030796" data-name="Trazado 1030796" d="M268.144,40.183a3.143,3.143,0,0,0-1.6,1.217" transform="translate(-239.255 -36.736)" fill="none" stroke="#000" stroke-linecap="round" stroke-linejoin="round" stroke-miterlimit="10" stroke-width="1"/>
        <path id="Trazado_1030797" data-name="Trazado 1030797" d="M302.868,33.525q-.053.334-.126.669a11.872,11.872,0,0,1-17.9,7.515l-5.511,1.05,1.361-5.509A11.841,11.841,0,0,1,289.164,20" transform="translate(-250.659 -18.684)" fill="none" stroke="#000" stroke-linecap="round" stroke-linejoin="round" stroke-miterlimit="10" stroke-width="1"/>
        <path id="Trazado_1030798" data-name="Trazado 1030798" d="M407.545,19.544q.425.061.852.153a11.855,11.855,0,0,1,9.2,9.728" transform="translate(-365.384 -18.274)" fill="none" stroke="#000" stroke-linecap="round" stroke-linejoin="round" stroke-miterlimit="10" stroke-width="1"/>
        <g id="Grupo_1173815" data-name="Grupo 1173815" transform="translate(34.548 4.362)">
          <path id="Trazado_1030799" data-name="Trazado 1030799" d="M337.839,60.329a6.74,6.74,0,0,0-1.006-1.935,5.709,5.709,0,1,1,8.488-.029,7.043,7.043,0,0,0-1.023,1.941" transform="translate(-335.355 -48.863)" fill="none" stroke="#000" stroke-linecap="round" stroke-linejoin="round" stroke-miterlimit="10" stroke-width="1"/>
          <line id="Línea_815" data-name="Línea 815" y1="4.197" transform="translate(5.709 7.246)" fill="none" stroke="#000" stroke-linecap="round" stroke-linejoin="round" stroke-miterlimit="10" stroke-width="1"/>
          <path id="Trazado_1030800" data-name="Trazado 1030800" d="M368.523,186.134v.65a2.109,2.109,0,0,1-2.109,2.109h-1.387a2.109,2.109,0,0,1-2.109-2.109v-.65" transform="translate(-360.011 -171.658)" fill="none" stroke="#000" stroke-linecap="round" stroke-linejoin="round" stroke-miterlimit="10" stroke-width="1"/>
          <path id="Trazado_1030801" data-name="Trazado 1030801" d="M355.992,160.567H350.31a1.443,1.443,0,0,1-1.443-1.443v-.085a1.443,1.443,0,0,1,1.443-1.443h5.682a1.443,1.443,0,0,1,1.443,1.443v.085A1.444,1.444,0,0,1,355.992,160.567Z" transform="translate(-347.442 -146.129)" fill="none" stroke="#000" stroke-linecap="round" stroke-linejoin="round" stroke-miterlimit="10" stroke-width="1"/>
          <line id="Línea_816" data-name="Línea 816" x2="3.655" transform="translate(3.958 7.237)" fill="none" stroke="#000" stroke-linecap="round" stroke-linejoin="round" stroke-miterlimit="10" stroke-width="1"/>
        </g>
        <path id="Trazado_1030802" data-name="Trazado 1030802" d="M346.53,432.2l.265.051a10.213,10.213,0,0,1,2.881,1.014" transform="translate(-310.804 -387.408)" fill="none" stroke="#000" stroke-linecap="round" stroke-linejoin="round" stroke-miterlimit="10" stroke-width="1"/>
        <path id="Trazado_1030803" data-name="Trazado 1030803" d="M250.768,358.351v3.932a2.332,2.332,0,0,0,1.9,2.291" transform="translate(-225.14 -321.352)" fill="none" stroke="#000" stroke-linecap="round" stroke-linejoin="round" stroke-miterlimit="10" stroke-width="1"/>
        <path id="Trazado_1030804" data-name="Trazado 1030804" d="M118.589,417.362h0a10.83,10.83,0,0,0,15.834,0h0" transform="translate(-106.9 -374.14)" fill="none" stroke="#000" stroke-linecap="round" stroke-linejoin="round" stroke-miterlimit="10" stroke-width="1"/>
        <path id="Trazado_1030805" data-name="Trazado 1030805" d="M11.093,366.225l-.415.083a10.211,10.211,0,0,0-2.928,1.039m13.584-9v3.932a2.332,2.332,0,0,1-1.9,2.291l-.121.023" transform="translate(-7.75 -321.352)" fill="none" stroke="#000" stroke-linecap="round" stroke-linejoin="round" stroke-miterlimit="10" stroke-width="1"/>
        <g id="Grupo_1173816" data-name="Grupo 1173816" transform="translate(2.948 41.194)">
          <path id="Trazado_1030806" data-name="Trazado 1030806" d="M45.57,404.922l-1.655-5.95a1.159,1.159,0,0,0-1.454-.8l-6.4,1.951a.5.5,0,0,0-.314.684l1.415,3.2,3.9.9-2.147,3.077.487,1.358" transform="translate(-35.703 -398.124)" fill="none" stroke="#000" stroke-linecap="round" stroke-linejoin="round" stroke-miterlimit="10" stroke-width="1"/>
          <line id="Línea_817" data-name="Línea 817" x1="0.24" y1="0.863" transform="translate(10.856 10.355)" fill="none" stroke="#000" stroke-linecap="round" stroke-linejoin="round" stroke-miterlimit="10" stroke-width="1"/>
          <path id="Trazado_1030807" data-name="Trazado 1030807" d="M244.868,409.343l2.884-10.37a1.158,1.158,0,0,1,1.454-.8l6.4,1.95a.5.5,0,0,1,.313.684l-1.415,3.2-3.9.895,2.147,3.078-.487,1.357" transform="translate(-222.81 -398.125)" fill="none" stroke="#000" stroke-linecap="round" stroke-linejoin="round" stroke-miterlimit="10" stroke-width="1"/>
        </g>
        <g id="Grupo_1173819" data-name="Grupo 1173819" transform="translate(39.045 28.637)">
          <g id="Grupo_1173817" data-name="Grupo 1173817" transform="translate(10.484 6.809)">
            <path id="Trazado_1030808" data-name="Trazado 1030808" d="M480.242,345.039a1.413,1.413,0,0,0-1.413-1.413h0a1.415,1.415,0,0,0-1.415,1.415v3.174a1.415,1.415,0,0,0,1.415,1.415h0a1.415,1.415,0,0,0,1.415-1.415Z" transform="translate(-477.412 -343.626)" fill="none" stroke="#000" stroke-linecap="round" stroke-linejoin="round" stroke-miterlimit="10" stroke-width="1"/>
            <path id="Trazado_1030809" data-name="Trazado 1030809" d="M490.831,400.563" transform="translate(-489.416 -394.559)" fill="none" stroke="#000" stroke-linecap="round" stroke-linejoin="round" stroke-miterlimit="10" stroke-width="1"/>
          </g>
          <g id="Grupo_1173818" data-name="Grupo 1173818" transform="translate(11.374 11.439)">
            <path id="Trazado_1030810" data-name="Trazado 1030810" d="M487.8,387.53v4.229a6.87,6.87,0,0,1-.97,3.489h0a6.9,6.9,0,0,0-.97,3.554l0,1.063" transform="translate(-485.858 -387.53)" fill="none" stroke="#000" stroke-linecap="round" stroke-linejoin="round" stroke-miterlimit="10" stroke-width="1"/>
          </g>
          <path id="Trazado_1030811" data-name="Trazado 1030811" d="M433.859,414.75a5.785,5.785,0,0,1,1.236,5.29l-.044.169" transform="translate(-427.968 -400.44)" fill="none" stroke="#000" stroke-linecap="round" stroke-linejoin="round" stroke-miterlimit="10" stroke-width="1"/>
          <path id="Trazado_1030812" data-name="Trazado 1030812" d="M389.115,291.964V280.548a1.5,1.5,0,0,1,1.491-1.491h.12a1.5,1.5,0,0,1,1.491,1.491v9.275" transform="translate(-387.943 -279.057)" fill="none" stroke="#000" stroke-linecap="round" stroke-linejoin="round" stroke-miterlimit="10" stroke-width="1"/>
          <path id="Trazado_1030813" data-name="Trazado 1030813" d="M418.532,331.384a1.5,1.5,0,0,1,1.491-1.491h.12a1.5,1.5,0,0,1,1.491,1.491v3.395" transform="translate(-414.258 -324.532)" fill="none" stroke="#000" stroke-linecap="round" stroke-linejoin="round" stroke-miterlimit="10" stroke-width="1"/>
          <path id="Trazado_1030814" data-name="Trazado 1030814" d="M447.947,334.742v-3.358a1.5,1.5,0,0,1,1.491-1.491h.12a1.5,1.5,0,0,1,1.491,1.491v1.424" transform="translate(-440.571 -324.532)" fill="none" stroke="#000" stroke-linecap="round" stroke-linejoin="round" stroke-miterlimit="10" stroke-width="1"/>
          <path id="Trazado_1030815" data-name="Trazado 1030815" d="M382.933,381.359l1.33-1.789,2.664-.343a2.141,2.141,0,0,0,1.476-2.034.725.725,0,0,0-.725-.724h-3.8a2.68,2.68,0,0,0-1.537.484l-3.426,2.4A2.141,2.141,0,0,0,378,381.1v1.747a3.605,3.605,0,0,0,.948,2.436,4.362,4.362,0,0,1,1.147,2.948v1.735" transform="translate(-377.999 -366.195)" fill="none" stroke="#000" stroke-linecap="round" stroke-linejoin="round" stroke-miterlimit="10" stroke-width="1"/>
        </g>
      </g>
    </g>
  </g>
</svg>
