<svg xmlns="http://www.w3.org/2000/svg" xmlns:xlink="http://www.w3.org/1999/xlink" width="98" height="98" viewBox="0 0 98 98">
  <defs>
    <filter id="Trazado_982547" x="0" y="0" width="98" height="98" filterUnits="userSpaceOnUse">
      <feOffset dy="3" input="SourceAlpha"/>
      <feGaussianBlur stdDeviation="3" result="blur"/>
      <feFlood flood-opacity="0.161"/>
      <feComposite operator="in" in2="blur"/>
      <feComposite in="SourceGraphic"/>
    </filter>
    <clipPath id="clip-path">
      <path id="path8121" d="M0-682.665H48.414v48.414H0Z" transform="translate(0 682.665)"/>
    </clipPath>
  </defs>
  <g id="Grupo_1224526" data-name="Grupo 1224526" transform="translate(-196 -1204.181)">
    <g id="Grupo_1209204" data-name="Grupo 1209204" transform="translate(0 -5396.464)">
      <g id="Grupo_1208715" data-name="Grupo 1208715" transform="translate(5 4679.811)">
        <g id="Grupo_1208171" data-name="Grupo 1208171" transform="translate(0 -2047.18)">
          <g id="Grupo_1207739" data-name="Grupo 1207739" transform="translate(0 1882.462)">
            <g id="Grupo_1207712" data-name="Grupo 1207712">
              <g id="Grupo_1207285" data-name="Grupo 1207285" transform="translate(0 344.552)">
                <g id="Grupo_1206883" data-name="Grupo 1206883" transform="translate(0 -209)">
                  <g id="Grupo_1204569" data-name="Grupo 1204569" transform="translate(-81 -1890.336)">
                    <g id="Grupo_1203962" data-name="Grupo 1203962" transform="translate(281 3846.336)">
                      <g id="Grupo_1203498" data-name="Grupo 1203498" transform="translate(0)">
                        <g id="Grupo_1202589" data-name="Grupo 1202589">
                          <g id="Grupo_1172010" data-name="Grupo 1172010">
                            <g id="Grupo_1171046" data-name="Grupo 1171046">
                              <g id="Grupo_1148525" data-name="Grupo 1148525">
                                <g transform="matrix(1, 0, 0, 1, -9, -6)" filter="url(#Trazado_982547)">
                                  <g id="Trazado_982547-2" data-name="Trazado 982547" transform="translate(9 6)" fill="#fdfbec">
                                    <path d="M 39.99999237060547 78.49998474121094 C 34.8018684387207 78.49998474121094 29.76002502441406 77.48226165771484 25.0145263671875 75.47508239746094 C 20.43014717102051 73.53604888916016 16.31264877319336 70.75984954833984 12.77639198303223 67.22359466552734 C 9.240137100219727 63.68733596801758 6.463936805725098 59.5698356628418 4.524903297424316 54.98546981811523 C 2.517725706100464 50.23995971679688 1.500003457069397 45.19811630249023 1.500003457069397 39.99999237060547 C 1.500003457069397 34.8018684387207 2.517725706100464 29.76002502441406 4.524903297424316 25.0145263671875 C 6.463936805725098 20.43014717102051 9.240137100219727 16.31264877319336 12.77639198303223 12.77639198303223 C 16.31264877319336 9.240137100219727 20.43014717102051 6.463936805725098 25.0145263671875 4.524903297424316 C 29.76002502441406 2.517725706100464 34.8018684387207 1.500003457069397 39.99999237060547 1.500003457069397 C 45.19811630249023 1.500003457069397 50.23995971679688 2.517725706100464 54.98546981811523 4.524903297424316 C 59.5698356628418 6.463936805725098 63.68733596801758 9.240137100219727 67.22359466552734 12.77639198303223 C 70.75984954833984 16.31264877319336 73.53604888916016 20.43014717102051 75.47508239746094 25.0145263671875 C 77.48226165771484 29.76002502441406 78.49998474121094 34.8018684387207 78.49998474121094 39.99999237060547 C 78.49998474121094 45.19812393188477 77.48226165771484 50.23995971679688 75.47508239746094 54.98546981811523 C 73.53604888916016 59.5698356628418 70.75984954833984 63.68733596801758 67.22359466552734 67.22359466552734 C 63.68733596801758 70.75984954833984 59.5698356628418 73.53604888916016 54.98546981811523 75.47508239746094 C 50.23995971679688 77.48226165771484 45.19812393188477 78.49998474121094 39.99999237060547 78.49998474121094 Z" stroke="none"/>
                                    <path d="M 39.99999237060547 2.999992370605469 C 35.00370025634766 2.999992370605469 30.1584587097168 3.97784423828125 25.59884643554688 5.906402587890625 C 21.19327163696289 7.769805908203125 17.23603057861328 10.43805694580078 13.83704376220703 13.83704376220703 C 10.43805694580078 17.23603057861328 7.769805908203125 21.19327163696289 5.906402587890625 25.59884643554688 C 3.97784423828125 30.1584587097168 2.999992370605469 35.00370025634766 2.999992370605469 39.99999237060547 C 2.999992370605469 44.99628448486328 3.97784423828125 49.84152603149414 5.906402587890625 54.40113830566406 C 7.769805908203125 58.80671310424805 10.43805694580078 62.76395416259766 13.83704376220703 66.16294097900391 C 17.23603057861328 69.56191253662109 21.19327163696289 72.23016357421875 25.59884643554688 74.09356689453125 C 30.1584587097168 76.02212524414062 35.00370025634766 76.99997711181641 39.99999237060547 76.99997711181641 C 44.99628448486328 76.99997711181641 49.84152603149414 76.02212524414062 54.40113830566406 74.09356689453125 C 58.80671310424805 72.23016357421875 62.76395416259766 69.56191253662109 66.16294097900391 66.16294097900391 C 69.56191253662109 62.76395416259766 72.23016357421875 58.80671310424805 74.09356689453125 54.40113830566406 C 76.02212524414062 49.84152603149414 76.99997711181641 44.99628448486328 76.99997711181641 39.99999237060547 C 76.99997711181641 35.00370025634766 76.02212524414062 30.1584587097168 74.09356689453125 25.59884643554688 C 72.23016357421875 21.19327163696289 69.56191253662109 17.23603057861328 66.16294097900391 13.83704376220703 C 62.76395416259766 10.43805694580078 58.80671310424805 7.769805908203125 54.40113830566406 5.906402587890625 C 49.84152603149414 3.97784423828125 44.99628448486328 2.999992370605469 39.99999237060547 2.999992370605469 M 39.99999237060547 -7.62939453125e-06 C 62.09137725830078 -7.62939453125e-06 79.99997711181641 17.90860748291016 79.99997711181641 39.99999237060547 C 79.99997711181641 62.09137725830078 62.09137725830078 79.99997711181641 39.99999237060547 79.99997711181641 C 17.90860748291016 79.99997711181641 -7.62939453125e-06 62.09137725830078 -7.62939453125e-06 39.99999237060547 C -7.62939453125e-06 17.90860748291016 17.90860748291016 -7.62939453125e-06 39.99999237060547 -7.62939453125e-06 Z" stroke="none" fill="#83793c"/>
                                  </g>
                                </g>
                              </g>
                            </g>
                          </g>
                        </g>
                      </g>
                    </g>
                  </g>
                </g>
              </g>
              <g id="g8115" transform="translate(215.793 2790.01)">
                <g id="g8117" transform="translate(0 -682.665)">
                  <g id="g8119" clip-path="url(#clip-path)">
                    <g id="g8125" transform="translate(-33.259 0.709)">
                      <path id="path8127" d="M-338.457-377.826h-25.835v-25.108c5.31-7.679,37.755-5.416,25.835,25.108" transform="translate(364.292 406.667)" fill="#fbdf63"/>
                    </g>
                    <g id="g8129" transform="translate(-33.259 0.709)">
                      <path id="path8131" d="M-338.457-377.826h-.619c6.164-24.728-15.887-30.6-25.216-24.374v-.734c5.31-7.679,37.755-5.416,25.835,25.108" transform="translate(364.292 406.667)" fill="#f9d11f"/>
                    </g>
                  </g>
                </g>
                <g id="g8265" transform="translate(0 -682.665)">
                  <g id="g8267" clip-path="url(#clip-path)">
                    <g id="g8273" transform="translate(-33.259 51.036)">
                      <path id="path8275" d="M-338.457-377.654h-25.835v-25.1c5.31-7.676,37.755-5.413,25.835,25.1" transform="translate(364.292 406.481)" fill="#003343"/>
                    </g>
                    <g id="g8277" transform="translate(-33.259 51.036)">
                      <path id="path8279" d="M-338.457-377.654h-.619c6.164-24.717-15.887-30.585-25.216-24.362v-.734c5.31-7.676,37.755-5.413,25.835,25.1" transform="translate(364.292 406.481)" fill="#002439"/>
                    </g>
                  </g>
                </g>
                <g id="g8281" transform="translate(0 -682.665)">
                  <g id="g8283" clip-path="url(#clip-path)">
                    <g id="g8289" transform="translate(17.066 51.014)">
                      <path id="path8291" d="M-338.457-377.826h-25.835v-25.108c5.31-7.679,37.755-5.416,25.835,25.108" transform="translate(364.292 406.667)" fill="#ff7e50"/>
                    </g>
                    <g id="g8293" transform="translate(17.066 51.014)">
                      <path id="path8295" d="M-338.457-377.826h-.619c6.164-24.728-15.887-30.6-25.216-24.374v-.734c5.31-7.679,37.755-5.416,25.835,25.108" transform="translate(364.292 406.667)" fill="#ff6247"/>
                    </g>
                    <g id="g8297" transform="translate(2.941 54.225)">
                      <path id="path8299" d="M-233.028-131.751v15.573h-14.6c-12.2-25.649,14.6-34.273,14.6-15.573" transform="translate(250.816 141.808)" fill="#ffa68a"/>
                    </g>
                    <g id="g8301" transform="translate(2.941 54.225)">
                      <path id="path8303" d="M-233.028-131.751c-.9-16.1-20.23-9.82-14.176,15.573h-.427c-12.2-25.649,14.6-34.273,14.6-15.573" transform="translate(250.816 141.808)" fill="#ff7e50"/>
                    </g>
                  </g>
                </g>
              </g>
            </g>
          </g>
        </g>
      </g>
    </g>
    <g id="higher-education_15710482" transform="translate(215.948 1221.388)">
      <path id="Trazado_1056179" data-name="Trazado 1056179" d="M60.678,101.6,82.6,90.388l18.86,11.066L81.105,113.193,62.64,102a2.954,2.954,0,0,0-1.962-.4Z" transform="translate(-51.07 -77.849)" fill="#4eb1fc" fill-rule="evenodd"/>
      <path id="Trazado_1056180" data-name="Trazado 1056180" d="M124.566,120.815l-18.813,10.852L88.031,120.921,107.65,110.89Z" transform="translate(-75.717 -96.323)" fill="#85caff" fill-rule="evenodd"/>
      <path id="Trazado_1056181" data-name="Trazado 1056181" d="M247.608,214.01l20.351-11.739a7.748,7.748,0,0,0-2.115,5.827L245.54,220.169q-.506-3.048,2.069-6.158Z" transform="translate(-217.572 -178.666)" fill="#d1d1d6" fill-rule="evenodd"/>
      <path id="Trazado_1056182" data-name="Trazado 1056182" d="M247.62,222.094l18.813-10.852a7.265,7.265,0,0,0-1.347,4.219l-2.576,1.531-17.04,10.13a8.2,8.2,0,0,1,2.151-5.029Z" transform="translate(-217.584 -186.75)" fill="#dcdde1" fill-rule="evenodd"/>
      <path id="Trazado_1056183" data-name="Trazado 1056183" d="M39.994,210.417l17.69,10.726q-.506-3.048,2.069-6.158l-18.466-11.2C37.829,201.791,34.285,207.12,39.994,210.417Z" transform="translate(-29.717 -179.641)" fill="#dcdde1" fill-rule="evenodd"/>
      <path id="Trazado_1056184" data-name="Trazado 1056184" d="M65.456,220.019a8.2,8.2,0,0,1,2.151-5.029l-18.466-11.2a2.847,2.847,0,0,0-2.536-.241c-1.416,1.349-1.495,4.234,2.1,6.312l16.746,10.154Z" transform="translate(-37.571 -179.646)" fill="#eceff1" fill-rule="evenodd"/>
      <path id="Trazado_1056185" data-name="Trazado 1056185" d="M189.479,58.633h17.077v7.134a1.029,1.029,0,0,1-.549.924,17.115,17.115,0,0,1-15.979,0,1.029,1.029,0,0,1-.549-.924Z" transform="translate(-167.132 -49.235)" fill="#7986bf" fill-rule="evenodd"/>
      <path id="Trazado_1056186" data-name="Trazado 1056186" d="M189.478,58.633h15.278v6.719a1.029,1.029,0,0,1-.549.924,15.664,15.664,0,0,1-7.583,1.31,19.261,19.261,0,0,1-7.147-2.021V58.633Z" transform="translate(-167.131 -49.235)" fill="#909cd1" fill-rule="evenodd"/>
      <path id="Trazado_1056187" data-name="Trazado 1056187" d="M135.8,14.485l12.752-3.417a2.624,2.624,0,0,1,1.419,0l12.752,3.417a.577.577,0,0,1,0,1.115l-12.752,3.417a2.624,2.624,0,0,1-1.419,0L135.8,15.6a.577.577,0,0,1,0-1.115Z" transform="translate(-118.38 -6.286)" fill="#3d4a75" fill-rule="evenodd"/>
      <path id="Trazado_1056188" data-name="Trazado 1056188" d="M176.072,14.173l-11.588,3.1a2.624,2.624,0,0,1-1.419,0l-11.588-3.1,11.588-3.1a2.624,2.624,0,0,1,1.419,0Z" transform="translate(-132.889 -6.286)" fill="#5d689e" fill-rule="evenodd"/>
      <path id="Trazado_1056189" data-name="Trazado 1056189" d="M396.267,114.066l1.345,1.345a.543.543,0,0,1,.165.4v5.182a.187.187,0,0,1-.32.132L396,119.668l-1.454,1.454a.187.187,0,0,1-.32-.132v-5.182a.543.543,0,0,1,.165-.4l1.345-1.345A.375.375,0,0,1,396.267,114.066Z" transform="translate(-351.63 -99.087)" fill="#fcdb35" fill-rule="evenodd"/>
      <path id="Trazado_1056190" data-name="Trazado 1056190" d="M397.1,122.439,395.667,121l-1.438,1.438v-4.955a.543.543,0,0,1,.165-.4l1.27-1.27,1.27,1.27a.543.543,0,0,1,.165.4v4.955Z" transform="translate(-351.631 -100.763)" fill="#ffeb87" fill-rule="evenodd"/>
      <path id="Trazado_1056191" data-name="Trazado 1056191" d="M50.781,305.819l1.345,2.262L34.258,318.7l-10.545-6.269L10.984,320v4.585l12.729-7.567,10.545,6.269L54.14,311.469l1.345,2.262a.4.4,0,0,0,.7-.042l3.227-7.272a.4.4,0,0,0-.33-.555l-7.93-.64a.4.4,0,0,0-.372.6Z" transform="translate(-6.291 -271.434)" fill="#2dd62d" fill-rule="evenodd"/>
      <path id="Trazado_1056192" data-name="Trazado 1056192" d="M50.781,305.817l1.345,2.262L34.258,318.7l-10.545-6.269L10.984,320v3.424l12.665-7.529,10.545,6.269L53.63,310.609l1.345,2.262a.4.4,0,0,0,.7-.042l3.1-6.993-7.626-.616a.4.4,0,0,0-.372.6Z" transform="translate(-6.291 -271.432)" fill="#43f043" fill-rule="evenodd"/>
      <path id="Trazado_1056193" data-name="Trazado 1056193" d="M49.5,41.448,48.447,39.68a.7.7,0,0,0-.424-.316.69.69,0,0,0-.525.075L27.969,51.047,17.777,44.989a.693.693,0,0,0-.707,0L5.387,51.933V48.959L17.424,41.8l10.191,6.059a.694.694,0,0,0,.708,0L46.19,37.241a.692.692,0,0,0,.242-.949L45.38,34.524l6.942.56L49.5,41.448Zm4.2-7.182a1.1,1.1,0,0,0-.849-.528l-7.932-.64A1.087,1.087,0,0,0,43.9,34.737l.991,1.668L27.97,46.463,17.777,40.4a.693.693,0,0,0-.707,0L4.341,47.97A.693.693,0,0,0,4,48.565v4.586a.692.692,0,0,0,1.046.595L17.424,46.39l10.191,6.058a.7.7,0,0,0,.708,0L47.61,40.983l.99,1.668a1.089,1.089,0,0,0,1.931-.115l3.227-7.272a1.1,1.1,0,0,0-.057-1ZM34.368,28.355a.69.69,0,0,1-.951.233l-11.2-6.79a.693.693,0,1,1,.718-1.184l11.2,6.79a.691.691,0,0,1,.234.951ZM30.7,30.382a.692.692,0,0,0-.234-.952l-11.2-6.79a.692.692,0,1,0-.718,1.184l11.2,6.79a.691.691,0,0,0,.951-.232ZM9.054,24.673a2.245,2.245,0,0,0-1.086,1.957c0,.749.346,2.207,2.665,3.546l.013.008L27.2,40.222a8.541,8.541,0,0,1,1.812-4.69L11.227,24.747a2.381,2.381,0,0,0-1.187-.341A1.951,1.951,0,0,0,9.054,24.673ZM30,13.4a3.283,3.283,0,0,0,1.777,0l6.945-1.861v5.22a16.375,16.375,0,0,1-15.667,0v-5.22L30,13.4Zm.358-7.95L18.015,8.76l12.341,3.307a1.957,1.957,0,0,0,1.061,0L43.758,8.76,31.417,5.454A1.929,1.929,0,0,0,30.356,5.454ZM45.448,20.692l-.606-.607a.693.693,0,0,0-.979,0l-.607.607V16.8l1.1-1.1,1.1,1.1ZM43.659,10.221v4.22l-1.586,1.586a.692.692,0,0,0-.2.49v1.3L40.1,16.778V11.173l3.554-.952ZM30.046,34.539,49,23.6l-2.255-1.322a.881.881,0,0,1-1.421.249l-.977-.977-.977.977a.882.882,0,0,1-1.5-.623V19.419L39.4,17.968a17.747,17.747,0,0,1-16.99.02L11.732,23.447c.064.033.13.067.194.1l.012.008,18.108,10.98ZM28.58,40.33,47.542,29.058a7.331,7.331,0,0,1,.723-3.429L30.493,35.879A7.435,7.435,0,0,0,28.58,40.33ZM9.934,31.373,27.61,42.091a.686.686,0,0,0,.712,0h0L48.618,30.028a.685.685,0,0,0,.334-.672,7.139,7.139,0,0,1,1.959-5.306h0a.716.716,0,0,0,.162-.438.7.7,0,0,0-.343-.6l-3.9-2.286V16.516a.69.69,0,0,0-.2-.49l-1.586-1.586V9.714a1.272,1.272,0,0,0-.513-2.18L31.775,4.116a3.3,3.3,0,0,0-1.777,0L17.242,7.534a1.27,1.27,0,0,0,0,2.453l4.427,1.186v5.639L9.4,23.084a3.364,3.364,0,0,0-1.041.39,3.634,3.634,0,0,0-1.778,3.156c0,1.047.436,3.056,3.351,4.742Z" transform="translate(0 0)" fill-rule="evenodd"/>
    </g>
  </g>
</svg>
