<svg xmlns="http://www.w3.org/2000/svg" xmlns:xlink="http://www.w3.org/1999/xlink" width="98" height="98" viewBox="0 0 98 98">
  <defs>
    <filter id="Trazado_982547" x="0" y="0" width="98" height="98" filterUnits="userSpaceOnUse">
      <feOffset dy="3" input="SourceAlpha"/>
      <feGaussianBlur stdDeviation="3" result="blur"/>
      <feFlood flood-opacity="0.161"/>
      <feComposite operator="in" in2="blur"/>
      <feComposite in="SourceGraphic"/>
    </filter>
    <clipPath id="clip-path">
      <path id="path8121" d="M0-682.665H48.414v48.414H0Z" transform="translate(0 682.665)"/>
    </clipPath>
  </defs>
  <g id="Grupo_1224533" data-name="Grupo 1224533" transform="translate(-616 -1204.181)">
    <g id="Grupo_1209298" data-name="Grupo 1209298" transform="translate(420 -5396.464)">
      <g id="Grupo_1208715" data-name="Grupo 1208715" transform="translate(5 4679.811)">
        <g id="Grupo_1208171" data-name="Grupo 1208171" transform="translate(0 -2047.18)">
          <g id="Grupo_1207739" data-name="Grupo 1207739" transform="translate(0 1882.462)">
            <g id="Grupo_1207712" data-name="Grupo 1207712">
              <g id="Grupo_1207285" data-name="Grupo 1207285" transform="translate(0 344.552)">
                <g id="Grupo_1206883" data-name="Grupo 1206883" transform="translate(0 -209)">
                  <g id="Grupo_1204569" data-name="Grupo 1204569" transform="translate(-81 -1890.336)">
                    <g id="Grupo_1203962" data-name="Grupo 1203962" transform="translate(281 3846.336)">
                      <g id="Grupo_1203498" data-name="Grupo 1203498" transform="translate(0)">
                        <g id="Grupo_1202589" data-name="Grupo 1202589">
                          <g id="Grupo_1172010" data-name="Grupo 1172010">
                            <g id="Grupo_1171046" data-name="Grupo 1171046">
                              <g id="Grupo_1148525" data-name="Grupo 1148525">
                                <g transform="matrix(1, 0, 0, 1, -9, -6)" filter="url(#Trazado_982547)">
                                  <g id="Trazado_982547-2" data-name="Trazado 982547" transform="translate(9 6)" fill="#fdfbec">
                                    <path d="M 39.99999237060547 78.49998474121094 C 34.8018684387207 78.49998474121094 29.76002502441406 77.48226165771484 25.0145263671875 75.47508239746094 C 20.43014717102051 73.53604888916016 16.31264877319336 70.75984954833984 12.77639198303223 67.22359466552734 C 9.240137100219727 63.68733596801758 6.463936805725098 59.5698356628418 4.524903297424316 54.98546981811523 C 2.517725706100464 50.23995971679688 1.500003457069397 45.19811630249023 1.500003457069397 39.99999237060547 C 1.500003457069397 34.8018684387207 2.517725706100464 29.76002502441406 4.524903297424316 25.0145263671875 C 6.463936805725098 20.43014717102051 9.240137100219727 16.31264877319336 12.77639198303223 12.77639198303223 C 16.31264877319336 9.240137100219727 20.43014717102051 6.463936805725098 25.0145263671875 4.524903297424316 C 29.76002502441406 2.517725706100464 34.8018684387207 1.500003457069397 39.99999237060547 1.500003457069397 C 45.19811630249023 1.500003457069397 50.23995971679688 2.517725706100464 54.98546981811523 4.524903297424316 C 59.5698356628418 6.463936805725098 63.68733596801758 9.240137100219727 67.22359466552734 12.77639198303223 C 70.75984954833984 16.31264877319336 73.53604888916016 20.43014717102051 75.47508239746094 25.0145263671875 C 77.48226165771484 29.76002502441406 78.49998474121094 34.8018684387207 78.49998474121094 39.99999237060547 C 78.49998474121094 45.19812393188477 77.48226165771484 50.23995971679688 75.47508239746094 54.98546981811523 C 73.53604888916016 59.5698356628418 70.75984954833984 63.68733596801758 67.22359466552734 67.22359466552734 C 63.68733596801758 70.75984954833984 59.5698356628418 73.53604888916016 54.98546981811523 75.47508239746094 C 50.23995971679688 77.48226165771484 45.19812393188477 78.49998474121094 39.99999237060547 78.49998474121094 Z" stroke="none"/>
                                    <path d="M 39.99999237060547 2.999992370605469 C 35.00370025634766 2.999992370605469 30.1584587097168 3.97784423828125 25.59884643554688 5.906402587890625 C 21.19327163696289 7.769805908203125 17.23603057861328 10.43805694580078 13.83704376220703 13.83704376220703 C 10.43805694580078 17.23603057861328 7.769805908203125 21.19327163696289 5.906402587890625 25.59884643554688 C 3.97784423828125 30.1584587097168 2.999992370605469 35.00370025634766 2.999992370605469 39.99999237060547 C 2.999992370605469 44.99628448486328 3.97784423828125 49.84152603149414 5.906402587890625 54.40113830566406 C 7.769805908203125 58.80671310424805 10.43805694580078 62.76395416259766 13.83704376220703 66.16294097900391 C 17.23603057861328 69.56191253662109 21.19327163696289 72.23016357421875 25.59884643554688 74.09356689453125 C 30.1584587097168 76.02212524414062 35.00370025634766 76.99997711181641 39.99999237060547 76.99997711181641 C 44.99628448486328 76.99997711181641 49.84152603149414 76.02212524414062 54.40113830566406 74.09356689453125 C 58.80671310424805 72.23016357421875 62.76395416259766 69.56191253662109 66.16294097900391 66.16294097900391 C 69.56191253662109 62.76395416259766 72.23016357421875 58.80671310424805 74.09356689453125 54.40113830566406 C 76.02212524414062 49.84152603149414 76.99997711181641 44.99628448486328 76.99997711181641 39.99999237060547 C 76.99997711181641 35.00370025634766 76.02212524414062 30.1584587097168 74.09356689453125 25.59884643554688 C 72.23016357421875 21.19327163696289 69.56191253662109 17.23603057861328 66.16294097900391 13.83704376220703 C 62.76395416259766 10.43805694580078 58.80671310424805 7.769805908203125 54.40113830566406 5.906402587890625 C 49.84152603149414 3.97784423828125 44.99628448486328 2.999992370605469 39.99999237060547 2.999992370605469 M 39.99999237060547 -7.62939453125e-06 C 62.09137725830078 -7.62939453125e-06 79.99997711181641 17.90860748291016 79.99997711181641 39.99999237060547 C 79.99997711181641 62.09137725830078 62.09137725830078 79.99997711181641 39.99999237060547 79.99997711181641 C 17.90860748291016 79.99997711181641 -7.62939453125e-06 62.09137725830078 -7.62939453125e-06 39.99999237060547 C -7.62939453125e-06 17.90860748291016 17.90860748291016 -7.62939453125e-06 39.99999237060547 -7.62939453125e-06 Z" stroke="none" fill="#83793c"/>
                                  </g>
                                </g>
                              </g>
                            </g>
                          </g>
                        </g>
                      </g>
                    </g>
                  </g>
                </g>
              </g>
              <g id="g8115" transform="translate(215.793 2790.01)">
                <g id="g8117" transform="translate(0 -682.665)">
                  <g id="g8119" clip-path="url(#clip-path)">
                    <g id="g8125" transform="translate(-33.259 0.709)">
                      <path id="path8127" d="M-338.457-377.826h-25.835v-25.108c5.31-7.679,37.755-5.416,25.835,25.108" transform="translate(364.292 406.667)" fill="#fbdf63"/>
                    </g>
                    <g id="g8129" transform="translate(-33.259 0.709)">
                      <path id="path8131" d="M-338.457-377.826h-.619c6.164-24.728-15.887-30.6-25.216-24.374v-.734c5.31-7.679,37.755-5.416,25.835,25.108" transform="translate(364.292 406.667)" fill="#f9d11f"/>
                    </g>
                  </g>
                </g>
                <g id="g8265" transform="translate(0 -682.665)">
                  <g id="g8267" clip-path="url(#clip-path)">
                    <g id="g8273" transform="translate(-33.259 51.036)">
                      <path id="path8275" d="M-338.457-377.654h-25.835v-25.1c5.31-7.676,37.755-5.413,25.835,25.1" transform="translate(364.292 406.481)" fill="#003343"/>
                    </g>
                    <g id="g8277" transform="translate(-33.259 51.036)">
                      <path id="path8279" d="M-338.457-377.654h-.619c6.164-24.717-15.887-30.585-25.216-24.362v-.734c5.31-7.676,37.755-5.413,25.835,25.1" transform="translate(364.292 406.481)" fill="#002439"/>
                    </g>
                  </g>
                </g>
                <g id="g8281" transform="translate(0 -682.665)">
                  <g id="g8283" clip-path="url(#clip-path)">
                    <g id="g8289" transform="translate(17.066 51.014)">
                      <path id="path8291" d="M-338.457-377.826h-25.835v-25.108c5.31-7.679,37.755-5.416,25.835,25.108" transform="translate(364.292 406.667)" fill="#ff7e50"/>
                    </g>
                    <g id="g8293" transform="translate(17.066 51.014)">
                      <path id="path8295" d="M-338.457-377.826h-.619c6.164-24.728-15.887-30.6-25.216-24.374v-.734c5.31-7.679,37.755-5.416,25.835,25.108" transform="translate(364.292 406.667)" fill="#ff6247"/>
                    </g>
                    <g id="g8297" transform="translate(2.941 54.225)">
                      <path id="path8299" d="M-233.028-131.751v15.573h-14.6c-12.2-25.649,14.6-34.273,14.6-15.573" transform="translate(250.816 141.808)" fill="#ffa68a"/>
                    </g>
                    <g id="g8301" transform="translate(2.941 54.225)">
                      <path id="path8303" d="M-233.028-131.751c-.9-16.1-20.23-9.82-14.176,15.573h-.427c-12.2-25.649,14.6-34.273,14.6-15.573" transform="translate(250.816 141.808)" fill="#ff7e50"/>
                    </g>
                  </g>
                </g>
              </g>
            </g>
          </g>
        </g>
      </g>
    </g>
    <g id="higher-education_10789585" transform="translate(630.029 1175.128)">
      <g id="Grupo_1224532" data-name="Grupo 1224532" transform="translate(8.893 53.398)">
        <g id="Grupo_1224527" data-name="Grupo 1224527" transform="translate(8.854 0)">
          <path id="Trazado_1056194" data-name="Trazado 1056194" d="M366.92,178.046l1.914,1.105v5.838l-1.914-1.439-1.914,1.439v-5.838Z" transform="translate(-335.199 -165.026)" fill="#ffe177" fill-rule="evenodd"/>
          <path id="Trazado_1056195" data-name="Trazado 1056195" d="M149.652,93.771l11.387.28V104.18a.984.984,0,0,1-.811.975c-12.344,2.286-8.806,2.286-21.15,0a.984.984,0,0,1-.812-.975V94.051Z" transform="translate(-133.575 -90.087)" fill="#837683" fill-rule="evenodd"/>
          <path id="Trazado_1056196" data-name="Trazado 1056196" d="M161.039,104.354v1.771a.984.984,0,0,1-.811.975c-12.344,2.286-8.806,2.286-21.15,0a.984.984,0,0,1-.811-.975V96l1.529-.038v9.5c11.489,2.151,8.335,2.107,20.433-.134A.984.984,0,0,0,161.039,104.354Z" transform="translate(-133.576 -92.032)" fill="#685e68" fill-rule="evenodd"/>
          <path id="Trazado_1056197" data-name="Trazado 1056197" d="M112,60.51l15.929,4.231a.2.2,0,0,1,0,.384L112,69.357,96.076,65.125a.2.2,0,0,1,0-.384Z" transform="translate(-95.929 -60.51)" fill="#837683" fill-rule="evenodd"/>
          <path id="Trazado_1056198" data-name="Trazado 1056198" d="M124.928,91.5l3.007.8a.2.2,0,0,1,0,.384l-15.929,4.231L96.076,92.68a.2.2,0,0,1,0-.384l3.007-.8,12.922,3.433Z" transform="translate(-95.929 -88.064)" fill="#685e68" fill-rule="evenodd"/>
        </g>
        <g id="Grupo_1224528" data-name="Grupo 1224528" transform="translate(7.367 34.043)">
          <path id="Trazado_1056199" data-name="Trazado 1056199" d="M82.5,377.094h36.034a4.634,4.634,0,1,0,0-9.268H82.505a7.2,7.2,0,0,1,0,9.268Z" transform="translate(-82.505 -367.826)" fill="#8ac9fe" fill-rule="evenodd"/>
          <path id="Trazado_1056200" data-name="Trazado 1056200" d="M82.5,377.094h36.034a4.634,4.634,0,0,0,4.582-5.324,4.651,4.651,0,0,1-4.582,3.944H83.416a7.292,7.292,0,0,1-.911,1.38Zm.911-9.268a7.174,7.174,0,0,1,.777,3.254q0,.349-.033.69a7.212,7.212,0,0,0-1.655-3.944Z" transform="translate(-82.505 -367.826)" fill="#60b7ff" fill-rule="evenodd"/>
        </g>
        <g id="Grupo_1224529" data-name="Grupo 1224529" transform="translate(2.733 24.775)">
          <path id="Trazado_1056201" data-name="Trazado 1056201" d="M81.34,284.161H45.307a4.634,4.634,0,0,0,0,9.268H81.34a7.2,7.2,0,0,1,0-9.268Z" transform="translate(-40.673 -284.161)" fill="#ffe177" fill-rule="evenodd"/>
          <path id="Trazado_1056202" data-name="Trazado 1056202" d="M81.34,293.429H45.307a4.633,4.633,0,0,1-4.582-5.324,4.651,4.651,0,0,0,4.582,3.944H80.43A7.291,7.291,0,0,0,81.34,293.429Zm-.911-9.268a7.175,7.175,0,0,0-.777,3.254q0,.349.033.69a7.212,7.212,0,0,1,1.655-3.944Z" transform="translate(-40.673 -284.161)" fill="#ffd064" fill-rule="evenodd"/>
        </g>
        <g id="Grupo_1224530" data-name="Grupo 1224530" transform="translate(44.994 6.052)">
          <path id="Trazado_1056203" data-name="Trazado 1056203" d="M426.477,115.243l3.811,4.489a.277.277,0,0,1-.211.456H428.3v9.3a.555.555,0,0,1-.554.554h-2.965a.555.555,0,0,1-.554-.554v-9.3h-1.775a.277.277,0,0,1-.211-.456l3.811-4.489A.277.277,0,0,1,426.477,115.243Z" transform="translate(-422.177 -115.146)" fill="#8ac9fe" fill-rule="evenodd"/>
          <path id="Trazado_1056204" data-name="Trazado 1056204" d="M454.853,115.243l3.811,4.489a.277.277,0,0,1-.211.456h-1.108a.277.277,0,0,0,.211-.456l-3.469-4.085.343-.4A.277.277,0,0,1,454.853,115.243Zm1.825,4.945H455.57v9.3a.555.555,0,0,1-.554.554h1.108a.555.555,0,0,0,.554-.554Z" transform="translate(-450.553 -115.146)" fill="#60b7ff" fill-rule="evenodd"/>
        </g>
        <g id="Grupo_1224531" data-name="Grupo 1224531" transform="translate(0 6.052)">
          <path id="Trazado_1056205" data-name="Trazado 1056205" d="M20.3,115.243l3.811,4.489a.277.277,0,0,1-.211.456H22.125v9.3a.555.555,0,0,1-.554.554H18.606a.555.555,0,0,1-.554-.554v-9.3H16.277a.277.277,0,0,1-.211-.456l3.811-4.489A.277.277,0,0,1,20.3,115.243Z" transform="translate(-16 -115.146)" fill="#8ac9fe" fill-rule="evenodd"/>
          <path id="Trazado_1056206" data-name="Trazado 1056206" d="M48.677,115.243l3.811,4.489a.277.277,0,0,1-.211.456H51.17a.277.277,0,0,0,.211-.456l-3.469-4.085.343-.4A.277.277,0,0,1,48.677,115.243Zm1.825,4.945H49.394v9.3a.555.555,0,0,1-.554.554h1.108a.555.555,0,0,0,.554-.554Z" transform="translate(-44.377 -115.146)" fill="#60b7ff" fill-rule="evenodd"/>
        </g>
      </g>
      <path id="Trazado_1056207" data-name="Trazado 1056207" d="M10.487,63.606l2.5-2.938,2.495,2.938h-.459a.887.887,0,0,0-.886.886v8.967h-2.3V64.492a.886.886,0,0,0-.886-.886Zm3.978,11.626a1.441,1.441,0,0,0,1.439-1.44V65.378h.889a1.162,1.162,0,0,0,.886-1.915l-3.81-4.489a1.163,1.163,0,0,0-1.774,0L8.284,63.463a1.163,1.163,0,0,0,.887,1.916h.888v8.414a1.442,1.442,0,0,0,1.44,1.44ZM60.012,63.606a.886.886,0,0,0-.886.886v8.967h-2.3V64.492a.886.886,0,0,0-.886-.886h-.459l2.495-2.938,2.495,2.938Zm2.662-.143-3.811-4.489a1.163,1.163,0,0,0-1.774,0l-3.811,4.489a1.162,1.162,0,0,0,.886,1.915h.89v8.414a1.441,1.441,0,0,0,1.439,1.44h2.965a1.442,1.442,0,0,0,1.44-1.44V65.378h.888a1.163,1.163,0,0,0,.887-1.915Zm-28.85-9.149,13.2,3.506-13.2,3.506-13.2-3.506Zm10.5,13.264V60.372L34.051,63.1a.887.887,0,0,1-.455,0L23.324,60.372v7.206c1.623.3,2.987.564,4.111.782,6.389,1.235,6.389,1.235,12.778,0C41.337,68.142,42.7,67.878,44.324,67.578ZM50.5,71.586l-.5-.373a.885.885,0,0,0-1.065,0l-.5.373V68.034l1.028-.593,1.027.593ZM16.944,58.677a.886.886,0,0,1,0-1.713L33.6,52.541a.885.885,0,0,1,.455,0L50.7,56.964a.886.886,0,0,1,0,1.713l-.348.093v7.136l1.47.849a.884.884,0,0,1,.443.767v5.838a.885.885,0,0,1-1.417.708L49.469,73.03l-1.383,1.039a.886.886,0,0,1-1.418-.709V67.522a.884.884,0,0,1,.443-.767l1.471-.849V59.241L46.1,59.9v8.415a.887.887,0,0,1-.728.872c-1.938.354-3.536.663-4.82.911a36.678,36.678,0,0,1-6.725.966A36.7,36.7,0,0,1,27.1,70.1c-1.284-.248-2.882-.557-4.82-.911a.886.886,0,0,1-.727-.872V59.9Zm35.35,37.145H17.911a8.114,8.114,0,0,0,.873-2.862H49.256a.886.886,0,1,0,0-1.773H18.784a8.116,8.116,0,0,0-.873-2.861H52.294a3.748,3.748,0,0,1,0,7.5ZM16.261,86.554a3.748,3.748,0,1,1,0-7.5H50.642a8.135,8.135,0,0,0-.873,2.862H19.3a.886.886,0,1,0,0,1.773H49.77a8.137,8.137,0,0,0,.873,2.862H16.261Zm36.481.02a6.311,6.311,0,0,1,.233-7.833.886.886,0,0,0-.68-1.455H16.261a5.519,5.519,0,0,0-.447,11.021,6.315,6.315,0,0,1-.233,7.832.887.887,0,0,0,.679,1.455H52.294a5.519,5.519,0,0,0,.447-11.02Z" fill-rule="evenodd"/>
    </g>
  </g>
</svg>
