<svg xmlns="http://www.w3.org/2000/svg" width="398.85" height="109.026" viewBox="0 0 398.85 109.026">
  <g id="Grupo_1224559" data-name="Grupo 1224559" transform="translate(-1021 -1355.467)">
    <g id="Grupo_1224556" data-name="Grupo 1224556" transform="translate(0 21.385)">
      <rect id="Rect치ngulo_421947" data-name="Rect치ngulo 421947" width="398.85" height="49.23" rx="5" transform="translate(1021 1365.893)" fill="#d9c332"/>
      <rect id="Rect치ngulo_418854" data-name="Rect치ngulo 418854" width="333.15" height="87.23" rx="5" transform="translate(1053.85 1346.893)" fill="#27454a"/>
    </g>
    <g id="Grupo_1224558" data-name="Grupo 1224558" transform="translate(17.281)">
      <g id="explanation_1642369" transform="translate(1088.524 1355.467)">
        <path id="Trazado_1056260" data-name="Trazado 1056260" d="M139.871,143.033V47.992H68.143L53.8,62.338v80.695Zm0,0" transform="translate(-41.587 -37.235)" fill="#5da364"/>
        <path id="Trazado_1056261" data-name="Trazado 1056261" d="M176.556,24.131h21.519a3.6,3.6,0,0,0,3.586-3.586v-5.38a3.6,3.6,0,0,0-3.586-3.586H172.97a3.586,3.586,0,1,0-7.173,0v8.966a3.6,3.6,0,0,0,3.586,3.586Z" transform="translate(-128.482 -6.201)" fill="#efccbf"/>
        <path id="Trazado_1056262" data-name="Trazado 1056262" d="M269.8,111.992A23.265,23.265,0,0,1,293.109,135.3H269.8Zm0,0" transform="translate(-209.17 -86.889)" fill="#f7d289"/>
        <path id="Trazado_1056263" data-name="Trazado 1056263" d="M165.8,399.992h52v3.586h-52Zm0,0" transform="translate(-128.482 -310.333)" fill="#538457"/>
        <path id="Trazado_1056264" data-name="Trazado 1056264" d="M165.8,431.992h52v3.586h-52Zm0,0" transform="translate(-128.482 -335.16)" fill="#538457"/>
        <path id="Trazado_1056265" data-name="Trazado 1056265" d="M53.8,62.338H68.143V47.992Zm0,0" transform="translate(-41.587 -37.235)" fill="#538457"/>
        <path id="Trazado_1056266" data-name="Trazado 1056266" d="M269.8,274.89v-26.9H294.9v1.793A25.178,25.178,0,0,1,269.8,274.89Zm0,0" transform="translate(-209.17 -192.404)" fill="#f7d289"/>
        <path id="Trazado_1056267" data-name="Trazado 1056267" d="M293.8,271.992h3.586v3.586H293.8Zm0,0" transform="translate(-227.79 -211.024)" fill="#d3af6e"/>
        <path id="Trazado_1056268" data-name="Trazado 1056268" d="M325.8,271.992h3.586v3.586H325.8Zm0,0" transform="translate(-252.618 -211.024)" fill="#d3af6e"/>
        <path id="Trazado_1056269" data-name="Trazado 1056269" d="M293.8,303.992h3.586v3.586H293.8Zm0,0" transform="translate(-227.79 -235.852)" fill="#d3af6e"/>
        <g id="Grupo_1224557" data-name="Grupo 1224557" transform="translate(42.695 5.378)">
          <path id="Trazado_1056270" data-name="Trazado 1056270" d="M285.8,23.992h3.586V36.545H285.8Zm0,0" transform="translate(-264.278 -23.992)" fill="#d8b4ad"/>
          <path id="Trazado_1056271" data-name="Trazado 1056271" d="M253.8,23.992h3.586V36.545H253.8Zm0,0" transform="translate(-239.451 -23.992)" fill="#d8b4ad"/>
          <path id="Trazado_1056272" data-name="Trazado 1056272" d="M221.8,23.992h3.586V36.545H221.8Zm0,0" transform="translate(-214.624 -23.992)" fill="#d8b4ad"/>
          <path id="Trazado_1056273" data-name="Trazado 1056273" d="M189.8,23.992h3.586V36.545H189.8Zm0,0" transform="translate(-189.797 -23.992)" fill="#d8b4ad"/>
        </g>
        <path id="Trazado_1056274" data-name="Trazado 1056274" d="M280.736,123.992,269.8,134.931v5.022l13.987-13.988a17.8,17.8,0,0,0-3.048-1.973Zm0,0" transform="translate(-209.17 -96.199)" fill="#d3af6e"/>
        <path id="Trazado_1056275" data-name="Trazado 1056275" d="M304.584,153.594,290.6,167.581h5.021l10.939-10.938a17.755,17.755,0,0,0-1.973-3.049Zm0,0" transform="translate(-225.308 -119.166)" fill="#d3af6e"/>
        <path id="Trazado_1056276" data-name="Trazado 1056276" d="M141.109,111.992H144.7V135.3H117.8A23.265,23.265,0,0,1,141.109,111.992Zm0,0" transform="translate(-91.241 -86.889)" fill="#3a6289"/>
        <path id="Trazado_1056277" data-name="Trazado 1056277" d="M57.083,208.933,45.248,197.1,53.5,188.85a3.468,3.468,0,0,0,0-5.022l-.359-.358a3.466,3.466,0,0,0-5.021,0L25.522,206.064v5.38L5.8,231.169l14.346,14.346,19.725-19.725h3.945a3.54,3.54,0,0,0,2.51-1.075l10.759-10.759a3.468,3.468,0,0,0,0-5.022Zm0,0" transform="translate(-4.346 -141.51)" fill="#efccbf"/>
        <path id="Trazado_1056278" data-name="Trazado 1056278" d="M93.8,271.165v-3.586a3.6,3.6,0,0,1,3.586-3.586h5.38a3.586,3.586,0,1,1,0,7.173Zm0,0" transform="translate(-72.621 -204.818)" fill="#d8b4ad"/>
        <path id="Trazado_1056279" data-name="Trazado 1056279" d="M53.75,320.386l9-9,14.328,14.328-9,9Zm0,0" transform="translate(-41.551 -241.586)" fill="#878b9b"/>
        <path id="Trazado_1056280" data-name="Trazado 1056280" d="M168.258,263.783l5.325-5.325,2.536,2.536-5.325,5.325Zm0,0" transform="translate(-130.391 -200.523)" fill="#d8b4ad"/>
        <path id="Trazado_1056281" data-name="Trazado 1056281" d="M184.3,289.158l7.227-7.228,2.537,2.537-7.228,7.227Zm0,0" transform="translate(-142.835 -218.735)" fill="#d8b4ad"/>
        <path id="Trazado_1056282" data-name="Trazado 1056282" d="M5.793,362.2l10.778-10.779L30.9,365.75,20.121,376.529Zm0,0" transform="translate(-4.343 -272.65)" fill="#4a4a56"/>
        <path id="Trazado_1056283" data-name="Trazado 1056283" d="M74.973,8.964a5.284,5.284,0,0,0-5.38-5.38H45.922A5.249,5.249,0,0,0,39.108.357a5.393,5.393,0,0,0-3.586,5.021V8.964H25.839L10.417,24.386v53.8L.195,88.4l2.511,2.51,9.5-9.5L23.686,92.887,9.161,106.337l2.511,2.69L36.239,86.073h3.228a4.882,4.882,0,0,0,3.765-1.614L53.992,73.7a5.2,5.2,0,0,0,0-7.531L43.412,55.588l6.993-6.993a5.2,5.2,0,0,0,0-7.531l-.358-.359a5.2,5.2,0,0,0-7.532,0L25.839,57.381H24.762a5.284,5.284,0,0,0-5.38,5.38v6.456L14,74.6V26.9H28.349V12.551h7.173v1.793a5.283,5.283,0,0,0,5.38,5.38H69.593a5.283,5.283,0,0,0,5.38-5.38V12.551H96.491V104H21.176v3.586h78.9V8.964Zm-50.21,52h5.38a1.793,1.793,0,1,1,0,3.586H28.349V68.14h1.793a5.283,5.283,0,0,0,5.38-5.38,5.414,5.414,0,0,0-4.663-5.38L45.026,43.215a1.735,1.735,0,0,1,2.511,0l.358.359a1.734,1.734,0,0,1,0,2.51l-9.5,9.5,3.586,3.586L37.853,63.3l2.511,2.51,4.124-4.124,2.869,2.868-5.918,5.918,2.511,2.51,5.917-5.917,1.614,1.614a1.734,1.734,0,0,1,0,2.51L40.722,81.949a1.625,1.625,0,0,1-1.255.538H36.239l-13.27-13.27V62.761a1.694,1.694,0,0,1,1.793-1.793ZM21.176,72.445,33.011,84.279l-6.635,6.276L14.72,78.9ZM16.514,23.31l8.249-8.248V23.31ZM53.454,7.171H57.04v8.966H53.454Zm-3.586,8.966H46.281V7.171h3.586ZM60.627,7.171h3.586v8.966H60.627ZM39.108,14.344V5.378a1.793,1.793,0,1,1,3.586,0V16.137H40.9A1.694,1.694,0,0,1,39.108,14.344Zm32.278,0a1.694,1.694,0,0,1-1.793,1.793H67.8V7.171h1.793a1.694,1.694,0,0,1,1.793,1.793Zm0,0" transform="translate(0 0)"/>
        <path id="Trazado_1056284" data-name="Trazado 1056284" d="M263.59,103.992H261.8v26.9h26.9V129.1A25.179,25.179,0,0,0,263.59,103.992Zm9.5,5.918-7.71,7.71V107.578a22.66,22.66,0,0,1,7.71,2.332Zm-7.71,12.732L276.322,111.7a19.19,19.19,0,0,1,4.663,4.663L270.046,127.3h-4.663Zm9.683,4.662,7.711-7.71a19.907,19.907,0,0,1,2.151,7.71Zm0,0" transform="translate(-202.963 -80.682)"/>
        <path id="Trazado_1056285" data-name="Trazado 1056285" d="M140.282,118.338V103.992h-1.793a28.78,28.78,0,0,0-28.691,26.72l3.586.179A25.069,25.069,0,0,1,136.7,107.578v10.759Zm0,0" transform="translate(-85.034 -80.682)"/>
        <path id="Trazado_1056286" data-name="Trazado 1056286" d="M165.8,399.992h52v3.586h-52Zm0,0" transform="translate(-128.482 -310.333)"/>
        <path id="Trazado_1056287" data-name="Trazado 1056287" d="M165.8,431.992h52v3.586h-52Zm0,0" transform="translate(-128.482 -335.16)"/>
        <path id="Trazado_1056288" data-name="Trazado 1056288" d="M261.8,270.477h1.793a26.862,26.862,0,0,0,26.9-26.9v-3.586H261.8Zm3.586-26.9H286.9a23.425,23.425,0,0,1-21.519,23.312Zm0,0" transform="translate(-202.963 -186.197)"/>
        <path id="Trazado_1056289" data-name="Trazado 1056289" d="M293.8,271.992h3.586v3.586H293.8Zm0,0" transform="translate(-227.79 -211.024)"/>
        <path id="Trazado_1056290" data-name="Trazado 1056290" d="M325.8,271.992h3.586v3.586H325.8Zm0,0" transform="translate(-252.618 -211.024)"/>
        <path id="Trazado_1056291" data-name="Trazado 1056291" d="M293.8,303.992h3.586v3.586H293.8Zm0,0" transform="translate(-227.79 -235.852)"/>
      </g>
      <g id="consulting_4351735_1_" data-name="consulting_4351735 (1)" transform="translate(1209 1355.467)">
        <path id="Trazado_1056292" data-name="Trazado 1056292" d="M105.365,65.742V41.623H95.028a42.758,42.758,0,0,0-3.578-8.652l7.306-7.306L81.7,8.61l-7.306,7.306a42.758,42.758,0,0,0-8.653-3.58V2H41.623V12.336a42.758,42.758,0,0,0-8.652,3.578l-7.306-7.3L8.61,25.665l7.306,7.306a42.758,42.758,0,0,0-3.58,8.652H2V65.742H12.336a42.758,42.758,0,0,0,3.578,8.652L8.61,81.7,25.665,98.754l7.306-7.306a42.759,42.759,0,0,0,8.652,3.58v10.336H65.742V95.028a42.758,42.758,0,0,0,8.652-3.578L81.7,98.756,98.754,81.7l-7.306-7.306a42.759,42.759,0,0,0,3.58-8.653Z" transform="translate(1.445 1.445)" fill="#df9743"/>
        <path id="Trazado_1056293" data-name="Trazado 1056293" d="M84.223,32.971l7.306-7.306L74.474,8.61l-7.306,7.306a42.759,42.759,0,0,0-8.652-3.58V2H34.4V12.336a42.758,42.758,0,0,0-8.652,3.578L18.855,9.024A51.672,51.672,0,0,0,89.389,79.561l-5.168-5.168A42.759,42.759,0,0,0,87.8,65.742H98.139V41.623H87.8a42.758,42.758,0,0,0-3.58-8.652Z" transform="translate(8.671 1.445)" fill="#f8ae48"/>
        <ellipse id="Elipse_13549" data-name="Elipse 13549" cx="29" cy="29.5" rx="29" ry="29.5" transform="translate(26 25.533)" fill="#b57128"/>
        <path id="Trazado_1056294" data-name="Trazado 1056294" d="M41.39,15a29.154,29.154,0,0,0-13.909,3.511,29.287,29.287,0,0,0,34.71,46.383A29.287,29.287,0,0,0,41.39,15Z" transform="translate(13.738 10.841)" fill="#cb812e"/>
        <path id="Trazado_1056295" data-name="Trazado 1056295" d="M39.287,36.245v6.469L15.168,51.328,10,80.614H85.8L80.632,51.328,56.514,42.714V36.245" transform="translate(7.227 26.196)" fill="#606060"/>
        <path id="Trazado_1056296" data-name="Trazado 1056296" d="M75,51.328,50.88,42.714V36.245H42.267v1.3l-8.614,3.077v2.091L17.89,48.344a24.933,24.933,0,0,0,24.83,27.1H79.254Z" transform="translate(12.861 26.196)" fill="#848484"/>
        <path id="Trazado_1056297" data-name="Trazado 1056297" d="M38.49,80.614A52.947,52.947,0,0,0,53.958,45.162L47.1,42.714V36.245H29.876v6.469l-6.855,2.448v.012A52.928,52.928,0,0,0,38.49,80.614Z" transform="translate(16.638 26.196)" fill="#99fff7"/>
        <path id="Trazado_1056298" data-name="Trazado 1056298" fill="#99fff7"/>
        <path id="Trazado_1056299" data-name="Trazado 1056299" d="M40,33.614h2.584a4.307,4.307,0,1,0,0-8.614H40" transform="translate(28.91 18.069)" fill="#c89a94"/>
        <path id="Trazado_1056300" data-name="Trazado 1056300" d="M44.227,42.714l0-6.469H27v6.469l8.614,8.612Z" transform="translate(19.514 26.196)" fill="#fee2d6"/>
        <path id="Trazado_1056301" data-name="Trazado 1056301" d="M44.227,36.245H27V39.1a12.042,12.042,0,0,0,17.227,0Z" transform="translate(19.514 26.196)" fill="#e1b2ab"/>
        <path id="Trazado_1056302" data-name="Trazado 1056302" d="M21,34.534v-11.2A10.336,10.336,0,0,1,31.336,13H45.118a6.891,6.891,0,0,1,6.891,6.891A6.891,6.891,0,0,1,58.9,26.782v7.763" transform="translate(15.178 9.396)" fill="#4d4d4d"/>
        <path id="Trazado_1056303" data-name="Trazado 1056303" d="M56.732,26.782a6.891,6.891,0,0,0-6.891-6.891A6.891,6.891,0,0,0,42.95,13H29.168a10.266,10.266,0,0,0-4.248.922A10.278,10.278,0,0,0,24,18.168a11.2,11.2,0,0,0,11.2,11.2H56.732Z" transform="translate(17.346 9.396)" fill="#606060"/>
        <path id="Trazado_1056304" data-name="Trazado 1056304" d="M51.564,26.891V37.227a13.782,13.782,0,0,1-27.564,0V26.891H35.246A12.466,12.466,0,0,0,46.4,20Z" transform="translate(17.346 14.455)" fill="#e1b2ab"/>
        <path id="Trazado_1056305" data-name="Trazado 1056305" d="M35.246,28.891H24v6.891a13.782,13.782,0,1,0,27.564,0V28.891L46.4,22A12.466,12.466,0,0,1,35.246,28.891Z" transform="translate(17.346 15.9)" fill="#fee2d6"/>
        <path id="Trazado_1056306" data-name="Trazado 1056306" d="M26.891,33.614H24.307a4.307,4.307,0,0,1,0-8.614h2.584" transform="translate(14.455 18.069)" fill="#c89a94"/>
        <path id="Trazado_1056307" data-name="Trazado 1056307" d="M24.561,41.5l4.2,14,8.614-6.893L28.763,40Z" transform="translate(17.751 28.91)" fill="#606060"/>
        <path id="Trazado_1056308" data-name="Trazado 1056308" d="M44.815,41.5l-4.2,14L32,48.612,40.614,40Z" transform="translate(23.128 28.91)" fill="#606060"/>
        <path id="Trazado_1056309" data-name="Trazado 1056309" d="M38.37,66.259,36.076,49.045H31.69L29.4,66.259l4.488,5.1Z" transform="translate(21.245 35.447)" fill="#ee5b30"/>
        <path id="Trazado_1056310" data-name="Trazado 1056310" d="M17,51h3.445V69.95H17Z" transform="translate(12.287 36.86)" fill="#4d4d4d"/>
        <path id="Trazado_1056311" data-name="Trazado 1056311" d="M45,51h3.445V69.95H45Z" transform="translate(32.523 36.86)" fill="#4d4d4d"/>
        <path id="Trazado_1056312" data-name="Trazado 1056312" d="M39.889,49.445l-5.558,4.169-5.558-4.169L34.332,45Z" transform="translate(20.796 32.523)" fill="#e6e6e6"/>
        <path id="Trazado_1056313" data-name="Trazado 1056313" fill="#6d6d6d"/>
        <path id="Trazado_1056314" data-name="Trazado 1056314" d="M106.087,40.623H97.022a44.528,44.528,0,0,0-2.734-6.612L100.7,27.6a1.723,1.723,0,0,0,0-2.436L83.64,8.113a1.723,1.723,0,0,0-2.436,0L74.8,14.522a44.527,44.527,0,0,0-6.612-2.734V2.723A1.723,1.723,0,0,0,66.464,1H42.346a1.723,1.723,0,0,0-1.723,1.723v9.065a44.526,44.526,0,0,0-6.612,2.734L27.6,8.115a1.723,1.723,0,0,0-2.436,0L8.113,25.17a1.723,1.723,0,0,0,0,2.436l6.407,6.407a44.526,44.526,0,0,0-2.732,6.61H2.723A1.723,1.723,0,0,0,1,42.346V66.464a1.723,1.723,0,0,0,1.723,1.723h9.065A44.526,44.526,0,0,0,14.522,74.8L8.115,81.206a1.723,1.723,0,0,0,0,2.436l9.013,9.008L14.81,105.788a1.723,1.723,0,0,0,1.7,2.022h75.8a1.723,1.723,0,0,0,1.7-2.022L91.683,92.65l9.012-9.01a1.723,1.723,0,0,0,0-2.436L94.288,74.8a44.525,44.525,0,0,0,2.734-6.61h9.065a1.723,1.723,0,0,0,1.723-1.723V42.346A1.723,1.723,0,0,0,106.087,40.623ZM23.2,78.086,37.35,73.03a54.449,54.449,0,0,0,13.122,31.335H32.009V87.137H28.564v17.227H18.558ZM69.91,44.069h.861a2.584,2.584,0,0,1,0,5.168H69.91Zm.861-3.445H69.91a1.723,1.723,0,0,0-.345-1.034L64.4,32.7a1.723,1.723,0,0,0-2.929.264,10.681,10.681,0,0,1-9.6,5.938H40.623A1.723,1.723,0,0,0,38.9,40.623h-.861a5.931,5.931,0,0,0-.861.088v-8.7A8.624,8.624,0,0,1,45.791,23.4H59.573a5.168,5.168,0,0,1,5.168,5.168,1.723,1.723,0,0,0,1.723,1.723,5.168,5.168,0,0,1,5.168,5.168v5.256a5.883,5.883,0,0,0-.861-.088ZM45.345,70.177l6.476,6.479L46.7,80.751l-3-9.992Zm8.19,16.711a1.594,1.594,0,0,0,1.74,0l1.812,13.6q-1.275,1.6-2.682,3.115-1.409-1.509-2.682-3.115ZM54.4,83.27,51.65,81.2l2.755-2.2,2.746,2.2Zm-10.264.925a1.723,1.723,0,0,0,1.137,1.151,1.8,1.8,0,0,0,1.6-.308l2.014-1.612,1.488,1.118-1.58,11.849a50.993,50.993,0,0,1-7.971-23.279ZM60.011,96.4l-1.58-11.849,1.488-1.118,2.014,1.612a1.739,1.739,0,0,0,2.739-.86l3.321-11.07a51.021,51.021,0,0,1-7.975,23.276ZM62.094,80.76l-5.1-4.1,6.481-6.479,1.635.582Zm-.8-13.286-6.891,6.891-6.891-6.891V64.828a15.332,15.332,0,0,0,13.782,0Zm-6.891-4.455A12.073,12.073,0,0,1,42.346,50.96V42.346h9.523a14.1,14.1,0,0,0,11.279-5.571L66.464,41.2V50.96A12.073,12.073,0,0,1,54.405,63.019ZM38.9,49.237h-.861a2.584,2.584,0,1,1,0-5.168H38.9Zm-5.168-6.789a6.019,6.019,0,0,0,4.307,10.235H39a15.465,15.465,0,0,0,5.065,9.8v4.5L32.506,71.116a27.433,27.433,0,0,1,1.227-34.889Zm46.514,61.917V87.137H76.8v17.227H58.338A54.449,54.449,0,0,0,71.46,73.03l14.159,5.056,4.632,26.279Zm24.118-39.623H95.751a1.723,1.723,0,0,0-1.654,1.24,41.274,41.274,0,0,1-3.437,8.305,1.723,1.723,0,0,0,.293,2.047l6.088,6.09-6.088,6.092L88.832,76.5a1.723,1.723,0,0,0-1.118-1.323l-8.007-2.86a30.992,30.992,0,0,0-.3-36.262L76.628,38.1A27.505,27.505,0,0,1,76.3,71.1L64.742,66.981v-4.5a15.46,15.46,0,0,0,5.067-9.8h.963a6.021,6.021,0,0,0,4.307-10.237V35.455a8.627,8.627,0,0,0-7.036-8.469,8.631,8.631,0,0,0-8.469-7.036H45.791A12.059,12.059,0,0,0,33.768,31.3a30.923,30.923,0,0,0-4.66,41.019L21.1,75.183a1.723,1.723,0,0,0-1.116,1.323L17.859,88.515l-6.09-6.092,6.088-6.09a1.723,1.723,0,0,0,.293-2.047,41.273,41.273,0,0,1-3.437-8.305,1.723,1.723,0,0,0-1.654-1.24H4.445V44.069h8.614a1.723,1.723,0,0,0,1.654-1.24,41.274,41.274,0,0,1,3.437-8.305,1.723,1.723,0,0,0-.293-2.047l-6.088-6.09L26.386,11.769l6.09,6.088a1.723,1.723,0,0,0,2.047.293,41.273,41.273,0,0,1,8.305-3.437,1.723,1.723,0,0,0,1.24-1.654V4.446H64.742v8.614a1.723,1.723,0,0,0,1.24,1.654,41.274,41.274,0,0,1,8.305,3.437,1.723,1.723,0,0,0,2.047-.293l6.09-6.088L97.041,26.386l-6.088,6.09a1.723,1.723,0,0,0-.293,2.047A41.274,41.274,0,0,1,94.1,42.828a1.723,1.723,0,0,0,1.654,1.24h8.614Z" transform="translate(0.723 0.723)"/>
      </g>
    </g>
  </g>
</svg>
