<svg xmlns="http://www.w3.org/2000/svg" xmlns:xlink="http://www.w3.org/1999/xlink" width="113" height="113" viewBox="0 0 113 113">
  <defs>
    <filter id="Trazado_982547" x="0" y="0" width="113" height="113" filterUnits="userSpaceOnUse">
      <feOffset dy="3" input="SourceAlpha"/>
      <feGaussianBlur stdDeviation="3" result="blur"/>
      <feFlood flood-opacity="0.161"/>
      <feComposite operator="in" in2="blur"/>
      <feComposite in="SourceGraphic"/>
    </filter>
  </defs>
  <g id="Grupo_1224700" data-name="Grupo 1224700" transform="translate(-900.509 -9333.793)">
    <g id="Grupo_1224466" data-name="Grupo 1224466" transform="translate(0 5557)">
      <g id="Grupo_1224223" data-name="Grupo 1224223" transform="translate(0 1822.041)">
        <g id="Grupo_1224093" data-name="Grupo 1224093" transform="translate(226.51 -2620.317)">
          <g id="Grupo_1223184" data-name="Grupo 1223184" transform="translate(683 4581.069)">
            <g id="Grupo_1211216" data-name="Grupo 1211216" transform="translate(0)">
              <g id="Grupo_1210737" data-name="Grupo 1210737">
                <g id="Grupo_1210537" data-name="Grupo 1210537">
                  <g id="Grupo_1164202" data-name="Grupo 1164202">
                    <g id="Grupo_1158168" data-name="Grupo 1158168">
                      <g id="Grupo_1152576" data-name="Grupo 1152576">
                        <g id="Grupo_1148633" data-name="Grupo 1148633">
                          <g id="Grupo_1148525" data-name="Grupo 1148525">
                            <g transform="matrix(1, 0, 0, 1, -9, -6)" filter="url(#Trazado_982547)">
                              <g id="Trazado_982547-2" data-name="Trazado 982547" transform="translate(9 6)" fill="#fdfbec">
                                <path d="M 47.49999618530273 93.5 C 41.28936767578125 93.5 35.26533126831055 92.28396606445312 29.59518241882324 89.88570404052734 C 24.11771583557129 87.56893157958984 19.19812965393066 84.251953125 14.97308921813965 80.02690124511719 C 10.74803638458252 75.80186462402344 7.431062698364258 70.88227844238281 5.114289283752441 65.40480804443359 C 2.716022968292236 59.73466110229492 1.499996185302734 53.71062469482422 1.499996185302734 47.49999618530273 C 1.499996185302734 41.28936767578125 2.716022968292236 35.26533126831055 5.114289283752441 29.59518241882324 C 7.431062698364258 24.11771583557129 10.74803638458252 19.19812965393066 14.97308921813965 14.97308921813965 C 19.19812965393066 10.74803638458252 24.11771583557129 7.431062698364258 29.59518241882324 5.114289283752441 C 35.26533126831055 2.716022968292236 41.28936767578125 1.499996185302734 47.49999618530273 1.499996185302734 C 53.71062469482422 1.499996185302734 59.73466110229492 2.716022968292236 65.40480804443359 5.114289283752441 C 70.88227844238281 7.431062698364258 75.80186462402344 10.74803638458252 80.02690124511719 14.97308921813965 C 84.251953125 19.19812965393066 87.56893157958984 24.11771583557129 89.88570404052734 29.59518241882324 C 92.28396606445312 35.26533126831055 93.5 41.28936767578125 93.5 47.49999618530273 C 93.5 53.71062469482422 92.28396606445312 59.73466110229492 89.88570404052734 65.40480804443359 C 87.56893157958984 70.88227844238281 84.251953125 75.80186462402344 80.02690124511719 80.02690124511719 C 75.80186462402344 84.251953125 70.88227844238281 87.56893157958984 65.40480804443359 89.88570404052734 C 59.73466110229492 92.28396606445312 53.71062469482422 93.5 47.49999618530273 93.5 Z" stroke="none"/>
                                <path d="M 47.49999618530273 2.999992370605469 C 41.4912109375 2.999992370605469 35.66376495361328 4.1761474609375 30.17950439453125 6.495796203613281 C 24.88084411621094 8.736953735351562 20.12152099609375 11.94598388671875 16.03375244140625 16.03375244140625 C 11.94598388671875 20.12152099609375 8.736953735351562 24.88084411621094 6.495796203613281 30.17950439453125 C 4.1761474609375 35.66376495361328 2.999992370605469 41.4912109375 2.999992370605469 47.49999618530273 C 2.999992370605469 53.50878143310547 4.1761474609375 59.33622741699219 6.495796203613281 64.82048797607422 C 8.736953735351562 70.11914825439453 11.94598388671875 74.87847137451172 16.03375244140625 78.96623992919922 C 20.12152099609375 83.05400848388672 24.88084411621094 86.26304626464844 30.17950439453125 88.50419616699219 C 35.66376495361328 90.82384490966797 41.4912109375 92 47.49999618530273 92 C 53.50878143310547 92 59.33622741699219 90.82384490966797 64.82048797607422 88.50419616699219 C 70.11914825439453 86.26304626464844 74.87847137451172 83.05400848388672 78.96623992919922 78.96623992919922 C 83.05400848388672 74.87847137451172 86.26304626464844 70.11914825439453 88.50419616699219 64.82048797607422 C 90.82384490966797 59.33622741699219 92 53.50878143310547 92 47.49999618530273 C 92 41.4912109375 90.82384490966797 35.66376495361328 88.50419616699219 30.17950439453125 C 86.26304626464844 24.88084411621094 83.05400848388672 20.12152099609375 78.96623992919922 16.03375244140625 C 74.87847137451172 11.94598388671875 70.11914825439453 8.736953735351562 64.82048797607422 6.495796203613281 C 59.33622741699219 4.1761474609375 53.50878143310547 2.999992370605469 47.49999618530273 2.999992370605469 M 47.49999618530273 -7.62939453125e-06 C 73.7335205078125 -7.62939453125e-06 95 21.26647186279297 95 47.49999618530273 C 95 73.7335205078125 73.7335205078125 95 47.49999618530273 95 C 21.26647186279297 95 -7.62939453125e-06 73.7335205078125 -7.62939453125e-06 47.49999618530273 C -7.62939453125e-06 21.26647186279297 21.26647186279297 -7.62939453125e-06 47.49999618530273 -7.62939453125e-06 Z" stroke="none" fill="#83793c"/>
                              </g>
                            </g>
                          </g>
                        </g>
                      </g>
                    </g>
                  </g>
                </g>
              </g>
            </g>
          </g>
        </g>
      </g>
    </g>
    <g id="accountant_3889680" transform="translate(928.51 9355.51)">
      <g id="Grupo_1224698" data-name="Grupo 1224698" transform="translate(0.951 0.951)">
        <g id="Grupo_1224684" data-name="Grupo 1224684" transform="translate(39.955 45.662)">
          <path id="Trazado_1056662" data-name="Trazado 1056662" d="M43,49h5.708V60.416H43Z" transform="translate(-43 -49)" fill="#ffeaa7"/>
        </g>
        <g id="Grupo_1224685" data-name="Grupo 1224685" transform="translate(30.442 49.467)">
          <path id="Trazado_1056663" data-name="Trazado 1056663" d="M33,53h5.708v7.61H33Z" transform="translate(-33 -53)" fill="#ffeaa7"/>
        </g>
        <g id="Grupo_1224686" data-name="Grupo 1224686" transform="translate(49.467 41.857)">
          <path id="Trazado_1056664" data-name="Trazado 1056664" d="M53,45h5.708V60.221H53Z" transform="translate(-53 -45)" fill="#ffeaa7"/>
        </g>
        <g id="Grupo_1224687" data-name="Grupo 1224687" transform="translate(45.662 29.49)">
          <path id="Trazado_1056665" data-name="Trazado 1056665" d="M58.513,32l-4.756,4.756L49,32Z" transform="translate(-49 -32)" fill="#ef7385"/>
        </g>
        <g id="Grupo_1224688" data-name="Grupo 1224688" transform="translate(17.123)">
          <path id="Trazado_1056666" data-name="Trazado 1056666" d="M49.442,13.367v5.708l-2.416.771a13.822,13.822,0,0,1-1.18,2.873l1.161,2.245L42.963,29l-2.245-1.151a13.821,13.821,0,0,1-2.873,1.18l-.771,2.416H31.367L30.6,29.025a13.089,13.089,0,0,1-2.083-.8v-.59a13.128,13.128,0,0,0-.771-4.462,9.5,9.5,0,1,0-3.035-6.954,9.841,9.841,0,0,0,.323,2.445A13.2,13.2,0,0,0,19,14.879V13.367l2.416-.771A13.821,13.821,0,0,1,22.6,9.723L21.435,7.478l4.043-4.043L27.723,4.6A13.821,13.821,0,0,1,30.6,3.416L31.367,1h5.708l.771,2.416A13.821,13.821,0,0,1,40.718,4.6l2.245-1.161,4.043,4.043L45.846,9.723a13.822,13.822,0,0,1,1.18,2.873Z" transform="translate(-19 -1)" fill="#ffc729"/>
        </g>
        <g id="Grupo_1224689" data-name="Grupo 1224689" transform="translate(22.831 5.708)">
          <path id="Trazado_1056667" data-name="Trazado 1056667" d="M34.513,7a9.513,9.513,0,1,1-6.478,16.467,13.345,13.345,0,0,0-2.711-4.509A9.841,9.841,0,0,1,25,16.513,9.516,9.516,0,0,1,34.513,7Z" transform="translate(-25 -7)" fill="#fcd770"/>
        </g>
        <g id="Grupo_1224690" data-name="Grupo 1224690" transform="translate(13.318 31.393)">
          <path id="Trazado_1056668" data-name="Trazado 1056668" d="M16.9,46.367a7.608,7.608,0,0,0,7.61-7.61v-1.9h.951A2.858,2.858,0,0,0,28.318,34V48.269a5.714,5.714,0,0,1-4.053,5.46,9.522,9.522,0,0,0-2.54-4.576A9.5,9.5,0,0,0,15,46.367Z" transform="translate(-15 -34)" fill="#b27946"/>
        </g>
        <g id="Grupo_1224691" data-name="Grupo 1224691" transform="translate(0 31.393)">
          <path id="Trazado_1056669" data-name="Trazado 1056669" d="M1,48.269V34a2.858,2.858,0,0,0,2.854,2.854h.951v1.9a7.608,7.608,0,0,0,7.61,7.61h1.9a9.366,9.366,0,0,0-3.729.761,9.532,9.532,0,0,0-5.537,6.6A5.714,5.714,0,0,1,1,48.269Z" transform="translate(-1 -34)" fill="#b27946"/>
        </g>
        <g id="Grupo_1224692" data-name="Grupo 1224692" transform="translate(0 13.318)">
          <path id="Trazado_1056670" data-name="Trazado 1056670" d="M24.155,19.347a13.345,13.345,0,0,1,2.711,4.509,13.128,13.128,0,0,1,.771,4.462v4.756a2.85,2.85,0,0,0-2.854-2.854h-.951V26.416A7.929,7.929,0,0,1,16.316,21l-.1-.295a10.326,10.326,0,0,1-9.237,5.708H4.805v3.805H3.854A2.85,2.85,0,0,0,1,33.075V28.318A13.328,13.328,0,0,1,18.123,15.552v.01A13.2,13.2,0,0,1,24.155,19.347Z" transform="translate(-1 -15)" fill="#b27946"/>
        </g>
        <g id="Grupo_1224693" data-name="Grupo 1224693" transform="translate(3.805 44.521)">
          <path id="Trazado_1056671" data-name="Trazado 1056671" d="M19.269,60.357H5V56.552a9.367,9.367,0,0,1,.247-2.15,9.532,9.532,0,0,1,5.537-6.6,3.806,3.806,0,0,0,7.458,0,9.373,9.373,0,0,1,3,2.026,9.522,9.522,0,0,1,2.54,4.576,9.368,9.368,0,0,1,.247,2.15v3.805Z" transform="translate(-5 -47.8)" fill="#ef7385"/>
        </g>
        <g id="Grupo_1224694" data-name="Grupo 1224694" transform="translate(9.589 43.76)">
          <path id="Trazado_1056672" data-name="Trazado 1056672" d="M18.538,47.761a3.806,3.806,0,0,1-7.458,0,9.517,9.517,0,0,1,7.458,0Z" transform="translate(-11.08 -47)" fill="#f0d0b4"/>
        </g>
        <g id="Grupo_1224695" data-name="Grupo 1224695" transform="translate(0 19.026)">
          <path id="Trazado_1056673" data-name="Trazado 1056673" d="M24.782,30.513h-.951V26.708a7.929,7.929,0,0,1-7.515-5.413l-.1-.295a10.326,10.326,0,0,1-9.237,5.708H4.805v3.805H3.854a2.854,2.854,0,0,0,0,5.708h.951v1.9a7.608,7.608,0,0,0,7.61,7.61h3.805a7.608,7.608,0,0,0,7.61-7.61v-1.9h.951a2.854,2.854,0,0,0,0-5.708Z" transform="translate(-1 -21)" fill="#f0d0b4"/>
        </g>
        <g id="Grupo_1224696" data-name="Grupo 1224696" transform="translate(15.221 27.588)">
          <ellipse id="Elipse_13559" data-name="Elipse 13559" cx="3.5" cy="4" rx="3.5" ry="4" transform="translate(0.318 -0.049)" fill="#69d6f4"/>
        </g>
        <g id="Grupo_1224697" data-name="Grupo 1224697" transform="translate(3.805 27.588)">
          <circle id="Elipse_13560" data-name="Elipse 13560" cx="4" cy="4" r="4" transform="translate(-0.266 -0.049)" fill="#69d6f4"/>
        </g>
      </g>
      <g id="Grupo_1224699" data-name="Grupo 1224699" transform="translate(0 0)">
        <path id="Trazado_1056674" data-name="Trazado 1056674" d="M35.756,19.513h-1.9a.952.952,0,0,1-.951-.951H31a2.857,2.857,0,0,0,2.854,2.854v1.9h1.9v-1.9a2.854,2.854,0,1,0,0-5.708h-1.9a.951.951,0,1,1,0-1.9h1.9a.952.952,0,0,1,.951.951h1.9A2.857,2.857,0,0,0,35.756,11.9V10h-1.9v1.9a2.854,2.854,0,0,0,0,5.708h1.9a.951.951,0,1,1,0,1.9Z" transform="translate(-1.51 -0.487)"/>
        <path id="Trazado_1056675" data-name="Trazado 1056675" d="M18.61,40h-1.9A1.9,1.9,0,1,1,12.9,40H11a3.805,3.805,0,0,0,7.61,0Z" transform="translate(-0.536 -1.948)"/>
        <path id="Trazado_1056676" data-name="Trazado 1056676" d="M57.078,57.078V41.857h-7.61V57.078h-1.9V45.662h-7.61V57.078h-1.9v-7.61h-7.61v7.61H24.734V54.224a10.533,10.533,0,0,0-.127-1.55,6.6,6.6,0,0,0,3.933-6.061v-.557L37.1,37.494l6.659,6.659L58.423,29.49H44.317L50.025,35.2,43.76,41.463,37.1,34.8l-8.562,8.562V29.6c.125.046.252.1.375.139l.834,2.6h7.1l.833-2.6a14.225,14.225,0,0,0,2.12-.874l2.425,1.248L47.24,25.1l-1.248-2.425a14.285,14.285,0,0,0,.874-2.12l2.6-.835v-7.1l-2.6-.833a14.285,14.285,0,0,0-.874-2.12L47.24,7.245,42.223,2.228,39.8,3.476a14.249,14.249,0,0,0-2.12-.874L36.843,0h-7.1l-.833,2.6a14.208,14.208,0,0,0-2.12.874L24.368,2.227,19.351,7.244,20.6,9.669a14.285,14.285,0,0,0-.874,2.12l-2.6.835v.982A14.27,14.27,0,0,0,0,27.588V46.614a6.6,6.6,0,0,0,3.933,6.061,10.533,10.533,0,0,0-.127,1.55v2.854H0v1.9H58.98v-1.9ZM48.91,31.393h4.92l-2.46,2.46ZM51.37,43.76h3.805V57.078H51.37Zm-9.513,3.805h3.805v9.513H41.857ZM32.344,51.37h3.805v5.708H32.344Zm-8.2-.588a10.513,10.513,0,0,0-4.831-5.724A8.568,8.568,0,0,0,24.734,37.1v-.951a3.766,3.766,0,0,0,1.9-.529V46.614A4.784,4.784,0,0,1,24.14,50.782ZM12.367,43.76A6.667,6.667,0,0,1,5.708,37.1v-.976a4.707,4.707,0,0,0,2.854.976,4.765,4.765,0,0,0,4.66-3.805h2.095a4.765,4.765,0,0,0,4.66,3.805,4.707,4.707,0,0,0,2.854-.976V37.1a6.667,6.667,0,0,1-6.659,6.659ZM24.734,30.442a1.9,1.9,0,0,1,0,3.805Zm-1.9-1.878a4.707,4.707,0,0,0-2.854-.976,4.765,4.765,0,0,0-4.66,3.805H13.222a4.765,4.765,0,0,0-4.66-3.805,4.707,4.707,0,0,0-2.854.976V26.636H6.937a11.209,11.209,0,0,0,9.079-4.582,8.857,8.857,0,0,0,6.815,4.532Zm0,3.78a2.854,2.854,0,1,1-2.854-2.854A2.857,2.857,0,0,1,22.831,32.344Zm-11.416,0A2.854,2.854,0,1,1,8.562,29.49,2.857,2.857,0,0,1,11.416,32.344Zm-7.61,1.9a1.9,1.9,0,0,1,0-3.805ZM14.269,45.662a8.511,8.511,0,0,1,2.514.379,2.836,2.836,0,0,1-5.029,0A8.511,8.511,0,0,1,14.269,45.662ZM25,18.212a8.577,8.577,0,1,1,2.6,4.331A14.263,14.263,0,0,0,25,18.212Zm-5.973-4.2,2.241-.718.139-.492a12.375,12.375,0,0,1,1.1-2.66l.25-.445L21.677,7.608l3.056-3.055L26.82,5.628l.446-.249a12.265,12.265,0,0,1,2.661-1.1l.492-.139.716-2.24h4.32l.717,2.241.492.139a12.313,12.313,0,0,1,2.661,1.1l.446.249,2.087-1.074,3.056,3.055L43.839,9.7l.25.445a12.376,12.376,0,0,1,1.1,2.66l.139.492,2.241.717v4.32l-2.241.718-.139.492a12.376,12.376,0,0,1-1.1,2.66l-.25.445,1.075,2.088-3.056,3.055L39.77,26.715l-.445.249a12.234,12.234,0,0,1-2.661,1.1l-.492.139-.716,2.241h-4.32l-.717-2.24-.492-.139a11.572,11.572,0,0,1-1.39-.512,14.2,14.2,0,0,0-.187-2.171,10.455,10.455,0,1,0-5.518-9.208c0,.01,0,.019,0,.029a14.232,14.232,0,0,0-3.807-2.05Zm-4.756,1.209A12.381,12.381,0,0,1,26.636,27.588v1.48a3.766,3.766,0,0,0-1.9-.529V24.734h-.951a6.96,6.96,0,0,1-6.611-4.765L16.349,17.5l-1.027,2.054a9.323,9.323,0,0,1-8.385,5.183H3.805v3.805a3.766,3.766,0,0,0-1.9.529v-1.48A12.381,12.381,0,0,1,14.269,15.221ZM1.9,46.614V35.62a3.766,3.766,0,0,0,1.9.529V37.1a8.569,8.569,0,0,0,5.424,7.958A10.51,10.51,0,0,0,4.4,50.782a4.784,4.784,0,0,1-2.5-4.169Zm8.39,10.464-.734-3.672.806-1.611-1.7-.851-1.1,2.2.788,3.938H5.708V54.224a8.561,8.561,0,0,1,4.31-7.421,4.724,4.724,0,0,0,8.5,0,8.561,8.561,0,0,1,4.31,7.421v2.854H20.187l.788-3.938-1.1-2.195-1.7.851.806,1.611-.735,3.671H10.293Z" transform="translate(0 0)"/>
        <ellipse id="Elipse_13561" data-name="Elipse 13561" cx="0.5" cy="1" rx="0.5" ry="1" transform="translate(19.49 31.49)"/>
        <circle id="Elipse_13562" data-name="Elipse 13562" cx="1" cy="1" r="1" transform="translate(7.49 31.49)"/>
        <circle id="Elipse_13563" data-name="Elipse 13563" cx="1" cy="1" r="1" transform="translate(13.49 51.49)"/>
        <circle id="Elipse_13564" data-name="Elipse 13564" cx="1" cy="1" r="1" transform="translate(13.49 55.49)"/>
        <path id="Trazado_1056677" data-name="Trazado 1056677" d="M13.054,2.638,11.709,1.293l-8.84,8.84L1.638,8.9.293,10.249l2.575,2.575Z" transform="translate(-0.014 -0.063)"/>
        <path id="Trazado_1056678" data-name="Trazado 1056678" d="M16,10h1.9v1.9H16Z" transform="translate(-0.779 -0.487)"/>
        <path id="Trazado_1056679" data-name="Trazado 1056679" d="M12,10h1.9v1.9H12Z" transform="translate(-0.584 -0.487)"/>
        <path id="Trazado_1056680" data-name="Trazado 1056680" d="M8,10H9.9v1.9H8Z" transform="translate(-0.39 -0.487)"/>
      </g>
    </g>
  </g>
</svg>
