<svg xmlns="http://www.w3.org/2000/svg" xmlns:xlink="http://www.w3.org/1999/xlink" width="113" height="113" viewBox="0 0 113 113">
  <defs>
    <filter id="Trazado_982547" x="0" y="0" width="113" height="113" filterUnits="userSpaceOnUse">
      <feOffset dy="3" input="SourceAlpha"/>
      <feGaussianBlur stdDeviation="3" result="blur"/>
      <feFlood flood-opacity="0.161"/>
      <feComposite operator="in" in2="blur"/>
      <feComposite in="SourceGraphic"/>
    </filter>
  </defs>
  <g id="Grupo_1224702" data-name="Grupo 1224702" transform="translate(-1215.509 -9333.793)">
    <g id="Grupo_1224516" data-name="Grupo 1224516" transform="translate(0 5557)">
      <g id="Grupo_1224240" data-name="Grupo 1224240" transform="translate(0 1822.041)">
        <g id="Grupo_1224094" data-name="Grupo 1224094" transform="translate(541.51 -2620.317)">
          <g id="Grupo_1223184" data-name="Grupo 1223184" transform="translate(683 4581.069)">
            <g id="Grupo_1211216" data-name="Grupo 1211216" transform="translate(0)">
              <g id="Grupo_1210737" data-name="Grupo 1210737">
                <g id="Grupo_1210537" data-name="Grupo 1210537">
                  <g id="Grupo_1164202" data-name="Grupo 1164202">
                    <g id="Grupo_1158168" data-name="Grupo 1158168">
                      <g id="Grupo_1152576" data-name="Grupo 1152576">
                        <g id="Grupo_1148633" data-name="Grupo 1148633">
                          <g id="Grupo_1148525" data-name="Grupo 1148525">
                            <g transform="matrix(1, 0, 0, 1, -9, -6)" filter="url(#Trazado_982547)">
                              <g id="Trazado_982547-2" data-name="Trazado 982547" transform="translate(9 6)" fill="#fdfbec">
                                <path d="M 47.49999618530273 93.5 C 41.28936767578125 93.5 35.26533126831055 92.28396606445312 29.59518241882324 89.88570404052734 C 24.11771583557129 87.56893157958984 19.19812965393066 84.251953125 14.97308921813965 80.02690124511719 C 10.74803638458252 75.80186462402344 7.431062698364258 70.88227844238281 5.114289283752441 65.40480804443359 C 2.716022968292236 59.73466110229492 1.499996185302734 53.71062469482422 1.499996185302734 47.49999618530273 C 1.499996185302734 41.28936767578125 2.716022968292236 35.26533126831055 5.114289283752441 29.59518241882324 C 7.431062698364258 24.11771583557129 10.74803638458252 19.19812965393066 14.97308921813965 14.97308921813965 C 19.19812965393066 10.74803638458252 24.11771583557129 7.431062698364258 29.59518241882324 5.114289283752441 C 35.26533126831055 2.716022968292236 41.28936767578125 1.499996185302734 47.49999618530273 1.499996185302734 C 53.71062469482422 1.499996185302734 59.73466110229492 2.716022968292236 65.40480804443359 5.114289283752441 C 70.88227844238281 7.431062698364258 75.80186462402344 10.74803638458252 80.02690124511719 14.97308921813965 C 84.251953125 19.19812965393066 87.56893157958984 24.11771583557129 89.88570404052734 29.59518241882324 C 92.28396606445312 35.26533126831055 93.5 41.28936767578125 93.5 47.49999618530273 C 93.5 53.71062469482422 92.28396606445312 59.73466110229492 89.88570404052734 65.40480804443359 C 87.56893157958984 70.88227844238281 84.251953125 75.80186462402344 80.02690124511719 80.02690124511719 C 75.80186462402344 84.251953125 70.88227844238281 87.56893157958984 65.40480804443359 89.88570404052734 C 59.73466110229492 92.28396606445312 53.71062469482422 93.5 47.49999618530273 93.5 Z" stroke="none"/>
                                <path d="M 47.49999618530273 2.999992370605469 C 41.4912109375 2.999992370605469 35.66376495361328 4.1761474609375 30.17950439453125 6.495796203613281 C 24.88084411621094 8.736953735351562 20.12152099609375 11.94598388671875 16.03375244140625 16.03375244140625 C 11.94598388671875 20.12152099609375 8.736953735351562 24.88084411621094 6.495796203613281 30.17950439453125 C 4.1761474609375 35.66376495361328 2.999992370605469 41.4912109375 2.999992370605469 47.49999618530273 C 2.999992370605469 53.50878143310547 4.1761474609375 59.33622741699219 6.495796203613281 64.82048797607422 C 8.736953735351562 70.11914825439453 11.94598388671875 74.87847137451172 16.03375244140625 78.96623992919922 C 20.12152099609375 83.05400848388672 24.88084411621094 86.26304626464844 30.17950439453125 88.50419616699219 C 35.66376495361328 90.82384490966797 41.4912109375 92 47.49999618530273 92 C 53.50878143310547 92 59.33622741699219 90.82384490966797 64.82048797607422 88.50419616699219 C 70.11914825439453 86.26304626464844 74.87847137451172 83.05400848388672 78.96623992919922 78.96623992919922 C 83.05400848388672 74.87847137451172 86.26304626464844 70.11914825439453 88.50419616699219 64.82048797607422 C 90.82384490966797 59.33622741699219 92 53.50878143310547 92 47.49999618530273 C 92 41.4912109375 90.82384490966797 35.66376495361328 88.50419616699219 30.17950439453125 C 86.26304626464844 24.88084411621094 83.05400848388672 20.12152099609375 78.96623992919922 16.03375244140625 C 74.87847137451172 11.94598388671875 70.11914825439453 8.736953735351562 64.82048797607422 6.495796203613281 C 59.33622741699219 4.1761474609375 53.50878143310547 2.999992370605469 47.49999618530273 2.999992370605469 M 47.49999618530273 -7.62939453125e-06 C 73.7335205078125 -7.62939453125e-06 95 21.26647186279297 95 47.49999618530273 C 95 73.7335205078125 73.7335205078125 95 47.49999618530273 95 C 21.26647186279297 95 -7.62939453125e-06 73.7335205078125 -7.62939453125e-06 47.49999618530273 C -7.62939453125e-06 21.26647186279297 21.26647186279297 -7.62939453125e-06 47.49999618530273 -7.62939453125e-06 Z" stroke="none" fill="#83793c"/>
                              </g>
                            </g>
                          </g>
                        </g>
                      </g>
                    </g>
                  </g>
                </g>
              </g>
            </g>
          </g>
        </g>
      </g>
    </g>
    <g id="Filled_outline" data-name="Filled outline" transform="translate(1173.955 9339.44)">
      <path id="Trazado_1056681" data-name="Trazado 1056681" d="M100.287,152.587A5.559,5.559,0,0,0,97.8,152H85.309A5.309,5.309,0,0,0,80,157.309v3.185h5.309v10.618H98.051V160.494h5.309V157.56a5.56,5.56,0,0,0-3.073-4.973Z" transform="translate(-6.938 -117.951)" fill="#348fd9"/>
      <path id="Trazado_1056682" data-name="Trazado 1056682" d="M216,216h5.309v15.927H216Z" transform="translate(-124.887 -173.457)" fill="#fec093"/>
      <path id="Trazado_1056683" data-name="Trazado 1056683" d="M144,152h6.371v1.062a3.185,3.185,0,0,1-6.371,0Z" transform="translate(-62.444 -117.951)" fill="#fec093"/>
      <path id="Trazado_1056684" data-name="Trazado 1056684" d="M120,296h12.742v21.236H120Z" transform="translate(-41.629 -242.839)" fill="#7a432a"/>
      <path id="Trazado_1056685" data-name="Trazado 1056685" d="M98.124,456h7.433v4.247H98.124a2.124,2.124,0,1,1,0-4.247Z" transform="translate(-20.815 -381.602)" fill="#d6d6d4"/>
      <path id="Trazado_1056686" data-name="Trazado 1056686" d="M2.124,0H9.556V4.247H2.124A2.124,2.124,0,1,1,2.124,0Z" transform="translate(94.298 78.645) rotate(180)" fill="#d6d6d4"/>
      <path id="Trazado_1056687" data-name="Trazado 1056687" d="M80,216h5.309v16.989H80Z" transform="translate(-6.938 -173.457)" fill="#fec093"/>
      <path id="Trazado_1056688" data-name="Trazado 1056688" d="M132.742,38.371v3.185a6.371,6.371,0,0,1-6.371,6.371c-.1,0-.194,0-.289-.007A6.371,6.371,0,0,1,120,41.556V38.371A6.371,6.371,0,0,1,126.371,32q.281,0,.553.024A6.372,6.372,0,0,1,132.742,38.371Z" transform="translate(-41.629 -13.878)" fill="#fec9a3"/>
      <path id="Trazado_1056689" data-name="Trazado 1056689" d="M172.48,38.527v3.185a6.371,6.371,0,0,1-6.371,6.371c-.1,0-.194,0-.289-.007a9.518,9.518,0,0,0,2.433-6.37V37.46a9.507,9.507,0,0,0-1.59-5.28,6.372,6.372,0,0,1,5.817,6.347Z" transform="translate(-81.368 -14.034)" fill="#fec093"/>
      <path id="Trazado_1056690" data-name="Trazado 1056690" d="M120,45.309V43.185A3.185,3.185,0,0,1,123.185,40Z" transform="translate(-41.629 -20.816)" fill="#804a32"/>
      <path id="Trazado_1056691" data-name="Trazado 1056691" d="M132.742,28.247v3.185l-4.247-3.185h-5.309A3.185,3.185,0,0,1,120,25.062V24h8.494A4.247,4.247,0,0,1,132.742,28.247Z" transform="translate(-41.629 -6.94)" fill="#92563a"/>
      <path id="Trazado_1056692" data-name="Trazado 1056692" d="M299.113,178.545H280l2.774-9.244.411-1.374V152h12.742v15.927Z" transform="translate(-180.393 -117.951)" fill="#7eb457"/>
      <path id="Trazado_1056693" data-name="Trazado 1056693" d="M299.113,191.676H280l2.774-9.244c4.953-3.252,9.507-8.175,13.153-15.291v13.918Z" transform="translate(-180.393 -131.082)" fill="#79ad54"/>
      <path id="Trazado_1056694" data-name="Trazado 1056694" d="M312,352h5.309v13.8H312Z" transform="translate(-208.146 -291.406)" fill="#fec093"/>
      <path id="Trazado_1056695" data-name="Trazado 1056695" d="M352,352h5.309v13.8H352Z" transform="translate(-242.837 -291.406)" fill="#fec093"/>
      <path id="Trazado_1056696" data-name="Trazado 1056696" d="M291.185,456l-1.92.64a1.851,1.851,0,0,0,.585,3.607h6.643V456Z" transform="translate(-187.331 -381.602)" fill="#7eb457"/>
      <path id="Trazado_1056697" data-name="Trazado 1056697" d="M357.309,456l1.92.64a1.851,1.851,0,0,1-.585,3.607H352V456Z" transform="translate(-242.837 -381.602)" fill="#7eb457"/>
      <g id="Grupo_1224701" data-name="Grupo 1224701" transform="translate(94.298 34.049)">
        <path id="Trazado_1056698" data-name="Trazado 1056698" d="M365.309,152v5.309l2.943,5.15a1.526,1.526,0,0,1-1.325,2.283H360v4.247h7.9a5.9,5.9,0,0,0,5.16-8.77l-3.019-5.435A5.414,5.414,0,0,0,365.309,152Z" transform="translate(-344.073 -152)" fill="#fec9a3"/>
        <path id="Trazado_1056699" data-name="Trazado 1056699" d="M248.494,152v5.309l-2.943,5.15a1.526,1.526,0,0,0,1.325,2.283H253.8v4.247h-7.9a5.9,5.9,0,0,1-5.16-8.77l3.019-5.435A5.414,5.414,0,0,1,248.494,152Z" transform="translate(-240 -152)" fill="#fec9a3"/>
        <path id="Trazado_1056700" data-name="Trazado 1056700" d="M331.185,156.247a2.72,2.72,0,0,1-2.639-2.06L328,152h6.371l-.547,2.187A2.72,2.72,0,0,1,331.185,156.247Z" transform="translate(-316.32 -152)" fill="#fec9a3"/>
      </g>
      <path id="Trazado_1056701" data-name="Trazado 1056701" d="M379.185,40H376v4.247h3.185v4.247a4.247,4.247,0,0,0,4.247,4.247V44.247A4.247,4.247,0,0,0,379.185,40Z" transform="translate(-263.651 -20.816)" fill="#f7a116"/>
      <path id="Trazado_1056702" data-name="Trazado 1056702" d="M316.742,38.371v3.185a6.37,6.37,0,0,1-5.7,6.335,6.276,6.276,0,0,1-.672.036A6.371,6.371,0,0,1,304,41.556V38.371A6.371,6.371,0,0,1,310.371,32c.155,0,.309.005.462.017a6.371,6.371,0,0,1,5.909,6.354Z" transform="translate(-201.208 -13.878)" fill="#fec9a3"/>
      <path id="Trazado_1056703" data-name="Trazado 1056703" d="M361.389,38.484v3.185a6.37,6.37,0,0,1-5.7,6.335,9.512,9.512,0,0,0,1.869-5.677V38.08a9.509,9.509,0,0,0-2.08-5.95A6.371,6.371,0,0,1,361.389,38.484Z" transform="translate(-245.855 -13.991)" fill="#fec093"/>
      <path id="Trazado_1056704" data-name="Trazado 1056704" d="M304,32.494a11.466,11.466,0,0,0,8.494-4.247,7.252,7.252,0,0,0,4.247,4.247V30.371a6.371,6.371,0,1,0-12.742,0Z" transform="translate(-201.208 -6.94)" fill="#ffb531"/>
      <path id="Trazado_1056705" data-name="Trazado 1056705" d="M312,352h10.618v2.124H312Z" transform="translate(-208.146 -291.406)" fill="#feb784"/>
      <path id="Trazado_1056706" data-name="Trazado 1056706" d="M152.989,283.113H136l1.509-6.792.615-2.765V264h12.742v9.556Z" transform="translate(-55.506 -215.086)" fill="#f59898"/>
      <path id="Trazado_1056707" data-name="Trazado 1056707" d="M160,408h10.618v6.371H160Z" transform="translate(-76.32 -339.973)" fill="#fec9a3"/>
      <path id="Trazado_1056708" data-name="Trazado 1056708" d="M151.433,460.247H145.5a1.5,1.5,0,0,1-1.062-2.563L146.124,456h5.309Z" transform="translate(-62.444 -381.602)" fill="#f59898"/>
      <path id="Trazado_1056709" data-name="Trazado 1056709" d="M200,460.247h5.931a1.5,1.5,0,0,0,1.062-2.563L205.309,456H200Z" transform="translate(-111.011 -381.602)" fill="#f59898"/>
      <path id="Trazado_1056710" data-name="Trazado 1056710" d="M120,186.618v-6.371A4.247,4.247,0,0,1,124.247,176h3.185v4.247h-3.185v2.124A4.247,4.247,0,0,1,120,186.618Z" transform="translate(-41.629 -138.766)" fill="#f57707"/>
      <path id="Trazado_1056711" data-name="Trazado 1056711" d="M164.742,158.371v2.124a6.371,6.371,0,1,1-12.742,0v-2.124a6.371,6.371,0,0,1,12.742,0Z" transform="translate(-69.382 -117.951)" fill="#fec9a3"/>
      <path id="Trazado_1056712" data-name="Trazado 1056712" d="M212.433,158.813v2.124a6.374,6.374,0,0,1-4.247,6.008,9.514,9.514,0,0,0,.949-4.156v-4.247a9.516,9.516,0,0,0-2.145-6.032A6.372,6.372,0,0,1,212.433,158.813Z" transform="translate(-117.073 -118.393)" fill="#fec093"/>
      <path id="Trazado_1056713" data-name="Trazado 1056713" d="M164.742,151.433h-.931a5.607,5.607,0,0,1-5.44-4.247,5.607,5.607,0,0,1-5.44,4.247H152v-1.062a6.371,6.371,0,1,1,12.742,0Z" transform="translate(-69.382 -111.013)" fill="#f98500"/>
      <path id="Trazado_1056714" data-name="Trazado 1056714" d="M160,408h10.618v2.124H160Z" transform="translate(-76.32 -339.973)" fill="#feb784"/>
      <path id="Trazado_1056715" data-name="Trazado 1056715" d="M152.989,283.113H136l1.509-6.792A35.883,35.883,0,0,0,150.471,264h.394v9.556Z" transform="translate(-55.506 -215.086)" fill="#ed9191"/>
      <path id="Trazado_1056716" data-name="Trazado 1056716" d="M267.113,252.247v3.185h-4.247V261.8H252.247v-6.371H248v-3.185A4.247,4.247,0,0,1,252.247,248h10.618a4.243,4.243,0,0,1,4.247,4.247Z" transform="translate(-152.64 -201.209)" fill="#348fd9"/>
      <path id="Trazado_1056717" data-name="Trazado 1056717" d="M280,352h10.618v13.8H280Z" transform="translate(-180.393 -291.406)" fill="#7a432a"/>
      <path id="Trazado_1056718" data-name="Trazado 1056718" d="M294.865,256.193v3.185h-4.247v6.371H280v-.67a36.251,36.251,0,0,0,12.8-12.529A4.249,4.249,0,0,1,294.865,256.193Z" transform="translate(-180.393 -205.156)" fill="#3086cd"/>
      <path id="Trazado_1056719" data-name="Trazado 1056719" d="M248,304h4.247v9.556H248Z" transform="translate(-152.64 -249.777)" fill="#fec9a3"/>
      <path id="Trazado_1056720" data-name="Trazado 1056720" d="M360,304h4.247v9.556H360Z" transform="translate(-249.775 -249.777)" fill="#fec9a3"/>
      <path id="Trazado_1056721" data-name="Trazado 1056721" d="M271.433,460.247h-5.464a1.969,1.969,0,0,1-.88-3.73l1.035-.518h5.309Z" transform="translate(-166.517 -381.602)" fill="#d6d6d4"/>
      <path id="Trazado_1056722" data-name="Trazado 1056722" d="M325.464,460.247H320V456h5.309l1.035.518a1.969,1.969,0,0,1-.88,3.73Z" transform="translate(-215.084 -381.602)" fill="#d6d6d4"/>
      <path id="Trazado_1056723" data-name="Trazado 1056723" d="M284.742,142.371v2.124a6.371,6.371,0,0,1-5.921,6.355q-.223.016-.45.016A6.371,6.371,0,0,1,272,144.494v-2.124A6.371,6.371,0,0,1,278.371,136a6.126,6.126,0,0,1,.646.033A6.371,6.371,0,0,1,284.742,142.371Z" transform="translate(-173.455 -104.075)" fill="#fec9a3"/>
      <path id="Trazado_1056724" data-name="Trazado 1056724" d="M329.311,142.588v2.124a6.371,6.371,0,0,1-5.921,6.355,9.5,9.5,0,0,0,1.694-5.431v-4.247a9.513,9.513,0,0,0-1.5-5.138A6.371,6.371,0,0,1,329.311,142.588Z" transform="translate(-218.024 -104.292)" fill="#fec093"/>
      <path id="Trazado_1056725" data-name="Trazado 1056725" d="M282.145,137.062s-1.062,4.247,3.185,5.309a6.37,6.37,0,0,0-12.652-1.064C273.526,141.291,280.158,141.035,282.145,137.062Z" transform="translate(-174.044 -104.075)" fill="#92563a"/>
      <rect id="Rect치ngulo_421951" data-name="Rect치ngulo 421951" width="2.124" height="4.247" rx="1.062" transform="translate(98.545 51.038)" fill="#2a71ad"/>
      <rect id="Rect치ngulo_421952" data-name="Rect치ngulo 421952" width="2.124" height="4.247" rx="1.062" transform="translate(109.163 51.038)" fill="#2a71ad"/>
      <path id="Trazado_1056726" data-name="Trazado 1056726" d="M114.124,279.927h3.185V264A5.309,5.309,0,0,0,112,269.309V277.8A2.124,2.124,0,0,0,114.124,279.927Z" transform="translate(-34.691 -215.086)" fill="#fec9a3"/>
      <path id="Trazado_1056727" data-name="Trazado 1056727" d="M360,376h4.247v2.124H360Z" transform="translate(-249.775 -312.221)" fill="#feb784"/>
      <path id="Trazado_1056728" data-name="Trazado 1056728" d="M144,88h2.124v2.124H144Z" transform="translate(-62.444 -62.446)"/>
      <path id="Trazado_1056729" data-name="Trazado 1056729" d="M176,88h2.124v2.124H176Z" transform="translate(-90.196 -62.446)"/>
      <path id="Trazado_1056730" data-name="Trazado 1056730" d="M360,88h2.124v2.124H360Z" transform="translate(-249.775 -62.446)"/>
      <path id="Trazado_1056731" data-name="Trazado 1056731" d="M125.09,45.134a6.966,6.966,0,0,0-.222-1.746c-.148-.572-3.673-7.071-3.673-7.071a6.481,6.481,0,0,0-5.661-3.33h-1.184a7.525,7.525,0,0,0,1.392-1.869,5.3,5.3,0,0,0,4.039,1.869,1.062,1.062,0,0,0,1.062-1.062V23.431a5.308,5.308,0,0,0-5.31-5.309h-1.175a7.428,7.428,0,0,0-12.627,5.309v4.247a7.419,7.419,0,0,0,.9,3.546,7.467,7.467,0,0,0-4.209,3.462,6.436,6.436,0,0,0-1.291,1.631l-.86,1.549A7.455,7.455,0,0,0,90.7,32.126a7.405,7.405,0,0,0,1.478-4.448V21.307A5.315,5.315,0,0,0,86.865,16H78.371a1.062,1.062,0,0,0-1.062,1.062v1.062a4.22,4.22,0,0,0,.571,2.123,4.236,4.236,0,0,0-.571,2.124v5.309a7.409,7.409,0,0,0,2.238,5.309H78.371A6.378,6.378,0,0,0,72,39.358V59.532a1.062,1.062,0,0,0,1.062,1.062h3.185v2.124a3.178,3.178,0,0,0,1.062,2.372v8.246a3.185,3.185,0,0,0,0,6.371H94.92a2.562,2.562,0,0,0,2.146-1.166,3.026,3.026,0,0,0,2.386,1.166h16.354a2.913,2.913,0,0,0,.921-5.677l-1.193-.4V61.656h3.185a1.062,1.062,0,0,0,1.017-1.367L117.28,52.1h.845A6.973,6.973,0,0,0,125.09,45.134Zm-5.752-7.785,3.019,5.437a4.841,4.841,0,0,1-4.233,7.19h-2.7a5.288,5.288,0,0,0-.958-2.124h2.682a2.588,2.588,0,0,0,2.247-3.871l-2.8-4.905V35.242A4.358,4.358,0,0,1,119.339,37.349ZM103.854,63.78v9.556h-3.185V61.656h8.494v11.68h-3.185V63.78ZM96.16,66.965H81.818l.236-1.062h.564a1.062,1.062,0,0,0,1.062-1.062V49.976H94.3v13.8a1.062,1.062,0,0,0,1.062,1.062h.328Zm-2.924,6.371H90.051V69.089h3.185Zm-8.494-4.247h3.185v4.247H84.742ZM79.433,41.482a3.187,3.187,0,0,1,2.179-3.023,7.455,7.455,0,0,0-.056.9v4.247a3.191,3.191,0,0,1-2.124,3Zm3.185-6.371h.276c-.084.121-.166.243-.243.369A2.124,2.124,0,0,1,82.618,35.111Zm27.253,1.283a2.705,2.705,0,0,1-.708-1.28A5.3,5.3,0,0,1,109.871,36.394Zm.354,2.68V40.42a5.309,5.309,0,1,1-10.618,0V38.3c0-.017,0-.034,0-.051a19.375,19.375,0,0,0,3.619-.629,11.205,11.205,0,0,0,3.909-1.857A4.82,4.82,0,0,0,110.225,39.074ZM99.607,47.852h10.618a3.189,3.189,0,0,1,3.185,3.185v2.124h-2.124V51.038h-2.124v8.494h-8.494V51.038H98.545v2.124H96.422V51.038A3.189,3.189,0,0,1,99.607,47.852ZM94.3,42.543a5.288,5.288,0,0,1-.834,2.859,5.31,5.31,0,0,1-9.784-2.859V41.478a6.657,6.657,0,0,0,5.309-2.8,6.657,6.657,0,0,0,5.309,2.8Zm-11.68,5.309a6.375,6.375,0,0,0-1.235.121,5.352,5.352,0,0,0,1.376-1.384,7.485,7.485,0,0,0,1.035,1.263ZM78.371,62.718V54.223a4.255,4.255,0,0,1,3.185-4.113V63.78H79.433A1.063,1.063,0,0,1,78.371,62.718Zm18.051,0V55.285h2.124v7.433Zm14.865,10.618V64.841h2.124v8.494Zm2.124-10.618h-2.124V55.285h2.124ZM116.6,43.357l.959,1.678a.465.465,0,0,1-.4.694H116.6Zm-2.124-4v6.371h-4.362a7.409,7.409,0,0,0,2.238-5.309V38.3c0-.216-.011-.428-.029-.639a3.787,3.787,0,0,0,.513-1.163l.345-1.383h1.3Zm4.247-15.927v7.251a3.191,3.191,0,0,1-2.124-3V23.431a7.386,7.386,0,0,0-.71-3.166A3.184,3.184,0,0,1,118.72,23.431Zm-14.865,0a5.309,5.309,0,0,1,10.618,0,1.454,1.454,0,0,1-.047.362,6.632,6.632,0,0,1-2.131-2.821,1.062,1.062,0,0,0-1.857-.3,10.13,10.13,0,0,1-6.583,3.718Zm0,4.247V26.537a13.636,13.636,0,0,0,2.124-.441v1.582H108.1V25.554h-.616a11.553,11.553,0,0,0,3.56-2.363,8.031,8.031,0,0,0,3.427,3.083v1.4a5.331,5.331,0,0,1-4.438,5.237,7.4,7.4,0,0,0-5.119-2.051,5.292,5.292,0,0,1-1.062-3.185Zm1.062,5.309a5.287,5.287,0,0,1,1.735.292c-1.439,1.751-4.305,2.529-6.551,2.788a5.315,5.315,0,0,1,4.817-3.08Zm-7.433,7.071v.362a7.387,7.387,0,0,0,1.22,4.074,2.54,2.54,0,0,0-.058,1.324,5.3,5.3,0,0,0-2.784,1.461,4.791,4.791,0,0,1-.389-1.1,7.409,7.409,0,0,0,.949-3.634V41.97Zm-3.185-.7a4.538,4.538,0,0,1-4.279-3.441,1.062,1.062,0,0,0-2.06,0,4.538,4.538,0,0,1-4.279,3.441,5.309,5.309,0,1,1,10.618,0ZM86.865,18.122a3.189,3.189,0,0,1,3.185,3.185v1.062L87.5,20.458a1.062,1.062,0,0,0-.637-.212H81.556a2.126,2.126,0,0,1-2.124-2.124Zm-7.433,9.556V24.787l1.48-2.466a4.267,4.267,0,0,0,.643.049h4.955l3.539,2.655v2.655a5.289,5.289,0,0,1-2.263,4.346,7.379,7.379,0,0,0-2.584.941c-.154.013-.309.023-.463.023A5.315,5.315,0,0,1,79.433,27.678Zm-5.309,11.68a4.252,4.252,0,0,1,4.247-4.247h2.124a4.238,4.238,0,0,0,.24,1.406,5.314,5.314,0,0,0-3.426,4.965H74.124Zm0,19.113V43.605h3.185v7.1a6.333,6.333,0,0,0-1.062,3.516V58.47ZM79.433,65.9h.446L79.458,67.8a1.062,1.062,0,0,0,1.037,1.292h2.124v4.247H79.433ZM76.247,76.521a1.059,1.059,0,0,1,1.062-1.062h3.819a2.525,2.525,0,0,0-.594,2.124H77.309A1.063,1.063,0,0,1,76.247,76.521Zm6.811,1.062a.44.44,0,0,1-.311-.751l1.373-1.373h3.808v2.124Zm11.862,0H90.051V75.459h3.808l1.373,1.373a.44.44,0,0,1-.311.751Zm1.814-2.25,0,0L95.36,73.958V69.089h2.124A1.062,1.062,0,0,0,98.52,67.8l-.657-2.955h.682v8.9l-.448.224a3.018,3.018,0,0,0-1.362,1.367Zm1.811,1.343a.9.9,0,0,1,.5-.811l.811-.406h4v2.124h-4.4a.908.908,0,0,1-.907-.907Zm7.433.907V75.459h4l.811.406a.907.907,0,0,1-.406,1.718Zm10.618-.79a.787.787,0,0,1-.79.79h-2.535a3.047,3.047,0,0,0-.114-2.124H114.3l1.756.585a.789.789,0,0,1,.54.749Zm-1.062-17.261V53.671l1.758,5.861Z" transform="translate(0 0)"/>
      <path id="Trazado_1056732" data-name="Trazado 1056732" d="M176,208h2.124v2.124H176Z" transform="translate(-90.196 -166.518)"/>
      <path id="Trazado_1056733" data-name="Trazado 1056733" d="M208,208h2.124v2.124H208Z" transform="translate(-117.949 -166.518)"/>
      <path id="Trazado_1056734" data-name="Trazado 1056734" d="M296,192h2.124v2.124H296Z" transform="translate(-194.269 -152.642)"/>
      <path id="Trazado_1056735" data-name="Trazado 1056735" d="M328,192h2.124v2.124H328Z" transform="translate(-222.022 -152.642)"/>
    </g>
  </g>
</svg>
