<svg xmlns="http://www.w3.org/2000/svg" xmlns:xlink="http://www.w3.org/1999/xlink" width="98" height="98" viewBox="0 0 98 98">
  <defs>
    <filter id="Trazado_982547" x="0" y="-0.001" width="98" height="98" filterUnits="userSpaceOnUse">
      <feOffset dy="3" input="SourceAlpha"/>
      <feGaussianBlur stdDeviation="3" result="blur"/>
      <feFlood flood-opacity="0.161"/>
      <feComposite operator="in" in2="blur"/>
      <feComposite in="SourceGraphic"/>
    </filter>
    <clipPath id="clip-path">
      <path id="path8121" d="M0-682.665H48.414v48.414H0Z" transform="translate(0 682.665)"/>
    </clipPath>
  </defs>
  <g id="Grupo_1224704" data-name="Grupo 1224704" transform="translate(-185.575 -9832.182)">
    <g id="Grupo_1224517" data-name="Grupo 1224517" transform="translate(-10.425 3231.536)">
      <g id="Grupo_1208715" data-name="Grupo 1208715" transform="translate(5 4679.811)">
        <g id="Grupo_1208171" data-name="Grupo 1208171" transform="translate(0 -2047.18)">
          <g id="Grupo_1207739" data-name="Grupo 1207739" transform="translate(0 1882.462)">
            <g id="Grupo_1207712" data-name="Grupo 1207712">
              <g id="Grupo_1207285" data-name="Grupo 1207285" transform="translate(0 344.552)">
                <g id="Grupo_1206883" data-name="Grupo 1206883" transform="translate(0 -209)">
                  <g id="Grupo_1204569" data-name="Grupo 1204569" transform="translate(-81 -1890.336)">
                    <g id="Grupo_1203962" data-name="Grupo 1203962" transform="translate(281 3846.336)">
                      <g id="Grupo_1203498" data-name="Grupo 1203498" transform="translate(0)">
                        <g id="Grupo_1202589" data-name="Grupo 1202589">
                          <g id="Grupo_1172010" data-name="Grupo 1172010">
                            <g id="Grupo_1171046" data-name="Grupo 1171046">
                              <g id="Grupo_1148525" data-name="Grupo 1148525">
                                <g transform="matrix(1, 0, 0, 1, -9, -6)" filter="url(#Trazado_982547)">
                                  <g id="Trazado_982547-2" data-name="Trazado 982547" transform="translate(9 6)" fill="#fdfbec">
                                    <path d="M 39.99999237060547 78.49998474121094 C 34.8018684387207 78.49998474121094 29.76002502441406 77.48226165771484 25.0145263671875 75.47508239746094 C 20.43014717102051 73.53604888916016 16.31264877319336 70.75984954833984 12.77639198303223 67.22359466552734 C 9.240137100219727 63.68733596801758 6.463936805725098 59.5698356628418 4.524903297424316 54.98546981811523 C 2.517725706100464 50.23995971679688 1.500003457069397 45.19811630249023 1.500003457069397 39.99999237060547 C 1.500003457069397 34.8018684387207 2.517725706100464 29.76002502441406 4.524903297424316 25.0145263671875 C 6.463936805725098 20.43014717102051 9.240137100219727 16.31264877319336 12.77639198303223 12.77639198303223 C 16.31264877319336 9.240137100219727 20.43014717102051 6.463936805725098 25.0145263671875 4.524903297424316 C 29.76002502441406 2.517725706100464 34.8018684387207 1.500003457069397 39.99999237060547 1.500003457069397 C 45.19811630249023 1.500003457069397 50.23995971679688 2.517725706100464 54.98546981811523 4.524903297424316 C 59.5698356628418 6.463936805725098 63.68733596801758 9.240137100219727 67.22359466552734 12.77639198303223 C 70.75984954833984 16.31264877319336 73.53604888916016 20.43014717102051 75.47508239746094 25.0145263671875 C 77.48226165771484 29.76002502441406 78.49998474121094 34.8018684387207 78.49998474121094 39.99999237060547 C 78.49998474121094 45.19812393188477 77.48226165771484 50.23995971679688 75.47508239746094 54.98546981811523 C 73.53604888916016 59.5698356628418 70.75984954833984 63.68733596801758 67.22359466552734 67.22359466552734 C 63.68733596801758 70.75984954833984 59.5698356628418 73.53604888916016 54.98546981811523 75.47508239746094 C 50.23995971679688 77.48226165771484 45.19812393188477 78.49998474121094 39.99999237060547 78.49998474121094 Z" stroke="none"/>
                                    <path d="M 39.99999237060547 2.999992370605469 C 35.00370025634766 2.999992370605469 30.1584587097168 3.97784423828125 25.59884643554688 5.906402587890625 C 21.19327163696289 7.769805908203125 17.23603057861328 10.43805694580078 13.83704376220703 13.83704376220703 C 10.43805694580078 17.23603057861328 7.769805908203125 21.19327163696289 5.906402587890625 25.59884643554688 C 3.97784423828125 30.1584587097168 2.999992370605469 35.00370025634766 2.999992370605469 39.99999237060547 C 2.999992370605469 44.99628448486328 3.97784423828125 49.84152603149414 5.906402587890625 54.40113830566406 C 7.769805908203125 58.80671310424805 10.43805694580078 62.76395416259766 13.83704376220703 66.16294097900391 C 17.23603057861328 69.56191253662109 21.19327163696289 72.23016357421875 25.59884643554688 74.09356689453125 C 30.1584587097168 76.02212524414062 35.00370025634766 76.99997711181641 39.99999237060547 76.99997711181641 C 44.99628448486328 76.99997711181641 49.84152603149414 76.02212524414062 54.40113830566406 74.09356689453125 C 58.80671310424805 72.23016357421875 62.76395416259766 69.56191253662109 66.16294097900391 66.16294097900391 C 69.56191253662109 62.76395416259766 72.23016357421875 58.80671310424805 74.09356689453125 54.40113830566406 C 76.02212524414062 49.84152603149414 76.99997711181641 44.99628448486328 76.99997711181641 39.99999237060547 C 76.99997711181641 35.00370025634766 76.02212524414062 30.1584587097168 74.09356689453125 25.59884643554688 C 72.23016357421875 21.19327163696289 69.56191253662109 17.23603057861328 66.16294097900391 13.83704376220703 C 62.76395416259766 10.43805694580078 58.80671310424805 7.769805908203125 54.40113830566406 5.906402587890625 C 49.84152603149414 3.97784423828125 44.99628448486328 2.999992370605469 39.99999237060547 2.999992370605469 M 39.99999237060547 -7.62939453125e-06 C 62.09137725830078 -7.62939453125e-06 79.99997711181641 17.90860748291016 79.99997711181641 39.99999237060547 C 79.99997711181641 62.09137725830078 62.09137725830078 79.99997711181641 39.99999237060547 79.99997711181641 C 17.90860748291016 79.99997711181641 -7.62939453125e-06 62.09137725830078 -7.62939453125e-06 39.99999237060547 C -7.62939453125e-06 17.90860748291016 17.90860748291016 -7.62939453125e-06 39.99999237060547 -7.62939453125e-06 Z" stroke="none" fill="#83793c"/>
                                  </g>
                                </g>
                              </g>
                            </g>
                          </g>
                        </g>
                      </g>
                    </g>
                  </g>
                </g>
              </g>
              <g id="g8115" transform="translate(215.793 2790.01)">
                <g id="g8117" transform="translate(0 -682.665)">
                  <g id="g8119" clip-path="url(#clip-path)">
                    <g id="g8125" transform="translate(-33.259 0.709)">
                      <path id="path8127" d="M-338.457-377.826h-25.835v-25.108c5.31-7.679,37.755-5.416,25.835,25.108" transform="translate(364.292 406.667)" fill="#fbdf63"/>
                    </g>
                    <g id="g8129" transform="translate(-33.259 0.709)">
                      <path id="path8131" d="M-338.457-377.826h-.619c6.164-24.728-15.887-30.6-25.216-24.374v-.734c5.31-7.679,37.755-5.416,25.835,25.108" transform="translate(364.292 406.667)" fill="#f9d11f"/>
                    </g>
                  </g>
                </g>
                <g id="g8265" transform="translate(0 -682.665)">
                  <g id="g8267" clip-path="url(#clip-path)">
                    <g id="g8273" transform="translate(-33.259 51.036)">
                      <path id="path8275" d="M-338.457-377.654h-25.835v-25.1c5.31-7.676,37.755-5.413,25.835,25.1" transform="translate(364.292 406.481)" fill="#003343"/>
                    </g>
                    <g id="g8277" transform="translate(-33.259 51.036)">
                      <path id="path8279" d="M-338.457-377.654h-.619c6.164-24.717-15.887-30.585-25.216-24.362v-.734c5.31-7.676,37.755-5.413,25.835,25.1" transform="translate(364.292 406.481)" fill="#002439"/>
                    </g>
                  </g>
                </g>
                <g id="g8281" transform="translate(0 -682.665)">
                  <g id="g8283" clip-path="url(#clip-path)">
                    <g id="g8289" transform="translate(17.066 51.014)">
                      <path id="path8291" d="M-338.457-377.826h-25.835v-25.108c5.31-7.679,37.755-5.416,25.835,25.108" transform="translate(364.292 406.667)" fill="#ff7e50"/>
                    </g>
                    <g id="g8293" transform="translate(17.066 51.014)">
                      <path id="path8295" d="M-338.457-377.826h-.619c6.164-24.728-15.887-30.6-25.216-24.374v-.734c5.31-7.679,37.755-5.416,25.835,25.108" transform="translate(364.292 406.667)" fill="#ff6247"/>
                    </g>
                    <g id="g8297" transform="translate(2.941 54.225)">
                      <path id="path8299" d="M-233.028-131.751v15.573h-14.6c-12.2-25.649,14.6-34.273,14.6-15.573" transform="translate(250.816 141.808)" fill="#ffa68a"/>
                    </g>
                    <g id="g8301" transform="translate(2.941 54.225)">
                      <path id="path8303" d="M-233.028-131.751c-.9-16.1-20.23-9.82-14.176,15.573h-.427c-12.2-25.649,14.6-34.273,14.6-15.573" transform="translate(250.816 141.808)" fill="#ff7e50"/>
                    </g>
                  </g>
                </g>
              </g>
            </g>
          </g>
        </g>
      </g>
    </g>
    <g id="management_18092017" transform="translate(178.256 9806.975)">
      <g id="Grupo_1224703" data-name="Grupo 1224703" transform="translate(26.906 41.826)">
        <path id="Trazado_1056736" data-name="Trazado 1056736" d="M226.081,195.03h1.5a.8.8,0,0,1,.8.8v.587a.78.78,0,0,0,.591.766,8.41,8.41,0,0,1,1.984.823.784.784,0,0,0,.962-.127l.414-.41a.8.8,0,0,1,1.126,0l1.061,1.061a.8.8,0,0,1,0,1.126l-.41.414a.782.782,0,0,0-.127.961,8.2,8.2,0,0,1,.82,1.984.791.791,0,0,0,.77.591h.587a.8.8,0,0,1,.8.8v1.5a.8.8,0,0,1-.8.8h-.587a.793.793,0,0,0-.77.591,8.144,8.144,0,0,1-.82,1.988.784.784,0,0,0,.127.962l.41.414a.8.8,0,0,1,0,1.126l-1.061,1.061a.8.8,0,0,1-1.126,0l-.414-.414a.789.789,0,0,0-.962-.127,8.156,8.156,0,0,1-1.984.823.791.791,0,0,0-.591.77v.583a.8.8,0,0,1-.8.8h-1.5a.8.8,0,0,1-.8-.8V213.9a.792.792,0,0,0-.593-.77,8.243,8.243,0,0,1-1.984-.823.787.787,0,0,0-.961.127l-.414.414a.8.8,0,0,1-1.126,0l-1.061-1.061a.8.8,0,0,1,0-1.126l.414-.414a.8.8,0,0,0,.127-.962,8.12,8.12,0,0,1-.823-1.988.791.791,0,0,0-.77-.591h-.583a.8.8,0,0,1-.8-.8v-1.5a.8.8,0,0,1,.8-.8h.583a.793.793,0,0,0,.77-.591,8.242,8.242,0,0,1,.823-1.984.793.793,0,0,0-.127-.961l-.414-.414a.8.8,0,0,1,0-1.126l1.061-1.061a.8.8,0,0,1,1.126,0l.414.41a.782.782,0,0,0,.961.127,8.319,8.319,0,0,1,1.984-.823.782.782,0,0,0,.593-.766v-.587A.8.8,0,0,1,226.081,195.03Z" transform="translate(-191.873 -175.14)" fill="gray" fill-rule="evenodd"/>
        <path id="Trazado_1056737" data-name="Trazado 1056737" d="M259.932,233.04A4.962,4.962,0,1,1,254.97,238,4.963,4.963,0,0,1,259.932,233.04Z" transform="translate(-224.961 -208.012)" fill="#b3b4b4" fill-rule="evenodd"/>
        <path id="Trazado_1056738" data-name="Trazado 1056738" d="M269.631,245.985a4.965,4.965,0,0,1-8.353,5.177C259.251,246.789,266.5,242.176,269.631,245.985Z" transform="translate(-230.112 -217.983)" fill="#e6e6e6" fill-rule="evenodd"/>
        <path id="Trazado_1056739" data-name="Trazado 1056739" d="M238.17,47.88a6.608,6.608,0,1,1-6.61,6.606A6.606,6.606,0,0,1,238.17,47.88Z" transform="translate(-204.715 -47.88)" fill="#74cddd" fill-rule="evenodd"/>
        <path id="Trazado_1056740" data-name="Trazado 1056740" d="M266.83,74.04a2.128,2.128,0,1,1-2.13,2.126A2.127,2.127,0,0,1,266.83,74.04Z" transform="translate(-233.376 -70.504)" fill="#f9b5b2" fill-rule="evenodd"/>
        <path id="Trazado_1056741" data-name="Trazado 1056741" d="M254.735,105.54h1.529a3.146,3.146,0,0,1,3.139,3.135v1.05a6.611,6.611,0,0,1-7.8-.072v-.977A3.143,3.143,0,0,1,254.735,105.54Z" transform="translate(-222.046 -97.746)" fill="#e41f27" fill-rule="evenodd"/>
        <path id="Trazado_1056742" data-name="Trazado 1056742" d="M238.17,369.98a6.608,6.608,0,1,1-6.61,6.606A6.606,6.606,0,0,1,238.17,369.98Z" transform="translate(-204.715 -326.442)" fill="#74cddd" fill-rule="evenodd"/>
        <path id="Trazado_1056743" data-name="Trazado 1056743" d="M266.83,396.12a2.13,2.13,0,1,1-2.13,2.13A2.13,2.13,0,0,1,266.83,396.12Z" transform="translate(-233.376 -349.048)" fill="#f9b5b2" fill-rule="evenodd"/>
        <path id="Trazado_1056744" data-name="Trazado 1056744" d="M254.735,427.64h1.529a3.146,3.146,0,0,1,3.139,3.135v1.05a6.611,6.611,0,0,1-7.8-.072v-.977A3.143,3.143,0,0,1,254.735,427.64Z" transform="translate(-222.046 -376.308)" fill="#feea3a" fill-rule="evenodd"/>
        <path id="Trazado_1056745" data-name="Trazado 1056745" d="M391.81,213.48a6.608,6.608,0,1,1-6.61,6.606A6.606,6.606,0,0,1,391.81,213.48Z" transform="translate(-337.588 -191.096)" fill="#74cddd" fill-rule="evenodd"/>
        <path id="Trazado_1056746" data-name="Trazado 1056746" d="M420.47,239.61a2.128,2.128,0,1,1-2.13,2.13A2.13,2.13,0,0,1,420.47,239.61Z" transform="translate(-366.248 -213.694)" fill="#f9b5b2" fill-rule="evenodd"/>
        <path id="Trazado_1056747" data-name="Trazado 1056747" d="M408.357,271.11h1.529a3.15,3.15,0,0,1,3.139,3.139v1.05a6.607,6.607,0,0,1-7.8-.076v-.973A3.148,3.148,0,0,1,408.357,271.11Z" transform="translate(-354.902 -240.936)" fill="#5fbb46" fill-rule="evenodd"/>
        <path id="Trazado_1056748" data-name="Trazado 1056748" d="M47.479,241.8H41.405c-1.882,0-8.406.639-8.445,5.687v7.475c0,1.073.95,1.644,2.028,1.64v5.368h18.9V256.6c1.023-.111,2.015-.574,2.015-1.64v-7.475C55.908,242.834,49.364,241.8,47.479,241.8Z" transform="translate(-32.96 -215.588)" fill="#69cad3" fill-rule="evenodd"/>
        <path id="Trazado_1056749" data-name="Trazado 1056749" d="M47.9,241.8H41.829c-1.777,0-7.7.574-8.379,4.893a18.264,18.264,0,0,0,14.985,11.165,16.322,16.322,0,0,0,5.881-.422V256.6c1.023-.111,2.015-.574,2.015-1.64v-7.475C56.332,242.834,49.788,241.8,47.9,241.8Z" transform="translate(-33.384 -215.588)" fill="#9cd9e4" fill-rule="evenodd"/>
        <path id="Trazado_1056750" data-name="Trazado 1056750" d="M99.4,213.71H92.55v5.241L95.8,222.2h.355l3.249-3.249Z" transform="translate(-84.495 -191.295)" fill="#f598a2" fill-rule="evenodd"/>
        <path id="Trazado_1056751" data-name="Trazado 1056751" d="M79.586,164.3c-5.572,0-5.716-8.376-5.716-8.376,2.464-4.108,11.411-.862,11.414-.862.123.134.111.092.111.326C85.395,160.312,82.794,164.3,79.586,164.3Z" transform="translate(-68.34 -139.522)" fill="#f598a2" fill-rule="evenodd"/>
        <path id="Trazado_1056752" data-name="Trazado 1056752" d="M95.548,153.861a21.986,21.986,0,0,1,6.7,1.215c.123.134.111.092.111.326,0,4.081-1.79,7.521-4.227,8.579-5.008-1.878-5.077-7.771-4.252-8.694A3.5,3.5,0,0,1,95.548,153.861Z" transform="translate(-85.306 -139.534)" fill="#f9b5b2" fill-rule="evenodd"/>
        <path id="Trazado_1056753" data-name="Trazado 1056753" d="M77.984,112.931a5.062,5.062,0,0,1-1.613-2.168q-3.8,1.7-6.61-.524A1.608,1.608,0,0,0,68.118,110a4.693,4.693,0,0,0-2.87,3.6c-.931-1.984-1.75-9.5,2.157-8.308,1.279-4.916,13.9-2.9,10.578,7.632Z" transform="translate(-60.216 -95.334)" fill="#6dcff1" fill-rule="evenodd"/>
        <path id="Trazado_1056754" data-name="Trazado 1056754" d="M83.845,128.468a5.062,5.062,0,0,1-1.613-2.168q-3.8,1.7-6.61-.524a1.608,1.608,0,0,0-1.644-.234,4.721,4.721,0,0,0-2.671,2.8c-.242-2.744.245-5.885,2.878-5.085.9-3.487,7.529-3.483,10.108.579A9.937,9.937,0,0,1,83.845,128.468Z" transform="translate(-66.077 -110.87)" fill="#3ab6e9" fill-rule="evenodd"/>
        <path id="Trazado_1056755" data-name="Trazado 1056755" d="M153.21,171.138c3.594.23,4.384-4.575,1.836-4.288a1.326,1.326,0,0,0-1.073.793A8.594,8.594,0,0,1,153.21,171.138Z" transform="translate(-136.956 -150.758)" fill="#f9b5b2" fill-rule="evenodd"/>
        <path id="Trazado_1056756" data-name="Trazado 1056756" d="M57.678,169.429c-3.594.157-4.284-4.659-1.744-4.325a1.563,1.563,0,0,1,1.211.77A8.669,8.669,0,0,0,57.678,169.429Z" transform="translate(-51.515 -149.244)" fill="#f9b5b2" fill-rule="evenodd"/>
        <path id="Trazado_1056757" data-name="Trazado 1056757" d="M124.215,252.75l-.073-5.51-5.062,2.77Z" transform="translate(-107.439 -220.293)" fill="#ffc60b" fill-rule="evenodd"/>
        <path id="Trazado_1056758" data-name="Trazado 1056758" d="M94.618,336.272l-.138,1.475h.015l1.36,2.126L97.214,342l1.356-2.126,1.36-2.126h.015l-.318-3.406a13.576,13.576,0,0,0-2.452.942A8.239,8.239,0,0,1,94.618,336.272Z" transform="translate(-86.164 -295.619)" fill="#ffc60b" fill-rule="evenodd"/>
        <path id="Trazado_1056759" data-name="Trazado 1056759" d="M102.843,267.28H99.713l-.533,6.035a33.08,33.08,0,0,1,4.154-.451Z" transform="translate(-90.229 -237.624)" fill="#ffc60b" fill-rule="evenodd"/>
        <path id="Trazado_1056760" data-name="Trazado 1056760" d="M77.27,252.351l.073-5.511,5.061,2.775Z" transform="translate(-71.281 -219.947)" fill="#ffc60b" fill-rule="evenodd"/>
        <path id="Trazado_1056761" data-name="Trazado 1056761" d="M105.494,256.37h-1.253a1.066,1.066,0,0,0-1.061,1.065v2.326a1.066,1.066,0,0,0,1.061,1.061h1.253a1.066,1.066,0,0,0,1.061-1.061v-2.326A1.066,1.066,0,0,0,105.494,256.37Z" transform="translate(-93.688 -228.188)" fill="#ffc60b" fill-rule="evenodd"/>
      </g>
      <path id="Trazado_1056762" data-name="Trazado 1056762" d="M38.712,70.954H37.459a.119.119,0,0,0-.115.119V73.4a.122.122,0,0,0,.115.119h1.253a.122.122,0,0,0,.115-.119V71.073A.119.119,0,0,0,38.712,70.954Zm-1.253-1.892h1.253a2,2,0,0,1,1.387.56,1.991,1.991,0,0,0,.77-.529V66.741a5.31,5.31,0,0,1-4.962.372v1.982l.364.364A1.962,1.962,0,0,1,37.459,69.062Zm3.26,2.367v.207l2,1.065-.031-2.349Zm-.03,2.326c0,.023-.008.046-.011.065l.2,2.318a8.878,8.878,0,0,1,3.452.647V74.969a.945.945,0,0,1-1.092.146ZM38.915,75.4A12.564,12.564,0,0,1,37,75.356l-.092,1.038,2.076-.219Zm-3.463-3.6v-.643l-1.56-.854-.031,2.349Zm-.238,2.265-1.873,1a.946.946,0,0,1-1.272-.38v2.54l2.916-.541Zm-3.245-.935.05-3.69c-2.074.57-4.15,1.759-4.169,4.284h0V81.2h0c0,.533.62.708,1.057.693.8-.061,1.652-.065,2.491-.069,2.168-.008,4.177-.034,6.042-1.142,1.28-.766,4.636-1.552,6.127-2.218a7,7,0,0,0-3.3-.491,1.115,1.115,0,0,1-.222.035,33.367,33.367,0,0,0-3.962.433.929.929,0,0,1-.295.023l-4.44.816a.944.944,0,0,1-1.169-.919V73.555A.947.947,0,0,1,31.968,73.13Zm4.269,10.1L36.2,83.7l1.763,2.759L39.72,83.7l-.176-1.886c-1.446.51-1.737.965-3.308,1.418Zm-1.955.635.027-.268c-1.5.157-2.935.077-4.43.13v3.533h6.353l-1.709-2.678A.938.938,0,0,1,34.282,83.869Zm7.1-2.651,0,.034a13.657,13.657,0,0,0,6.295.656c.468-.065,1.23-.169,1.23-.708V73.725c0-2.433-2.345-3.655-4.346-4.238l.046,3.429a.948.948,0,0,1,1.617.67v4.789a.944.944,0,0,1-.524.846,2.156,2.156,0,0,1-.472.46A15.324,15.324,0,0,1,41.379,81.219Zm.195,2.076c.058.6.165.846-.2,1.31l-1.7,2.659h7.218V83.872a15.232,15.232,0,0,1-5.32-.577ZM33.965,61.716a7.694,7.694,0,0,0,1.207,2.456,3.626,3.626,0,0,0,2.98,1.487c2.074,0,3.479-2.084,4.154-3.858a.331.331,0,0,1,.019-.046,11.246,11.246,0,0,0,.624-2.778c-.107-.161-.219-.337-.33-.529a6.7,6.7,0,0,1-6.79-1,.683.683,0,0,0-.67-.069,3.73,3.73,0,0,0-1.031.633,3.64,3.64,0,0,0-.666.747v.523a14.6,14.6,0,0,0,.5,2.437ZM32.386,62.93c-2.82-.307-4.188-3.314-3.214-5.1a2.029,2.029,0,0,1,1.1-.973c-.138-1.7-.05-4,1.073-5.257a2.575,2.575,0,0,1,2.157-.873c1.2-2.31,4.334-2.8,6.821-2.168a8.2,8.2,0,0,1,2.763,1.284,7.585,7.585,0,0,1,3.039,7.288c2.418,1.011,1.379,5.712-2.329,6.015a9.8,9.8,0,0,1-1.015,1.763l-.015.023V67.2c3.333.433,8.039,2.153,8.039,6.529V81.2a2.511,2.511,0,0,1-2.015,2.414v4.6a.946.946,0,0,1-.946.946H28.934a.948.948,0,0,1-.946-.946V83.668A2.521,2.521,0,0,1,25.964,81.2h0V73.725h0A5.589,5.589,0,0,1,28.466,69a12.154,12.154,0,0,1,5.549-1.827V65.732c-.119-.127-.23-.261-.337-.4a8.949,8.949,0,0,1-1.292-2.4Zm-.211-5.981a1.917,1.917,0,0,1,.226.1,4.548,4.548,0,0,1,3.162-1.625,3.6,3.6,0,0,0-.33-1.146,3.639,3.639,0,0,0-1.5-1.613,1.387,1.387,0,0,0-.556-.05c-.456.065-.689.57-.827,1.023A9.075,9.075,0,0,0,32.175,56.949Zm-.6,2.414,0-.606c-.192-.127-.633-.238-.747-.027a1.491,1.491,0,0,0,.123,1.184,2.039,2.039,0,0,0,.843.889Zm12.947,1.625a2.024,2.024,0,0,0,1.011-1.556c.027-.38-.038-.62-.437-.574a.341.341,0,0,0-.253.146A13.974,13.974,0,0,1,44.524,60.988Zm-.426-3.77.119-.058c.869-7.032-7.188-8.341-8.939-5.729A5.556,5.556,0,0,1,37.463,56.3a5.176,5.176,0,0,0,5.18.111.946.946,0,0,1,1.268.437C43.973,56.976,44.034,57.1,44.1,57.218ZM38.4,82.3c-.038.023-.077.042-.111.065M83.737,71.5A4.119,4.119,0,0,1,85.811,74a5.662,5.662,0,1,0-9.369,0,4.115,4.115,0,0,1,2.074-2.5,3.074,3.074,0,1,1,5.222,0Zm2.03,5.281A.87.87,0,0,1,85.5,77a8.71,8.71,0,1,1,.265-.226ZM81.891,72.95H80.362a2.2,2.2,0,0,0-2.191,2.188v.479a5.588,5.588,0,0,0,5.912.031v-.51a2.2,2.2,0,0,0-2.192-2.188Zm.072-3.912a1.182,1.182,0,1,0,0,1.671A1.184,1.184,0,0,0,81.962,69.039ZM47.972,54.229A.942.942,0,1,1,47,52.613a23.823,23.823,0,0,1,3.87-1.865.944.944,0,1,1,.666,1.767,22.263,22.263,0,0,0-3.567,1.715Zm20.565-1.146a.945.945,0,1,1,.777-1.723A24.239,24.239,0,0,1,80.356,61.491a.941.941,0,0,1-1.641.923A22.275,22.275,0,0,0,68.537,53.083ZM80.606,79.824a.943.943,0,1,1,1.8.547A24.173,24.173,0,0,1,70.667,94.613a.943.943,0,0,1-.889-1.663A22.271,22.271,0,0,0,80.606,79.824ZM51.3,94.042a.942.942,0,0,1-.677,1.759,24.4,24.4,0,0,1-4.682-2.444.943.943,0,1,1,1.049-1.568A21.8,21.8,0,0,0,51.3,94.042Zm9.05-1.832a1.183,1.183,0,1,0-1.176-1.184A1.184,1.184,0,0,0,60.353,92.211Zm2.617.445a4.112,4.112,0,0,1,2.073,2.5,5.662,5.662,0,1,0-9.369,0,4.107,4.107,0,0,1,2.074-2.5,3.076,3.076,0,1,1,5.222,0ZM65,97.933a.869.869,0,0,1-.265.226,7.479,7.479,0,0,1-2.015,1A7.614,7.614,0,1,1,65,97.933ZM61.123,94.1H59.594A2.2,2.2,0,0,0,57.4,96.293v.478a5.588,5.588,0,0,0,5.912.031v-.51A2.2,2.2,0,0,0,61.123,94.1ZM62.97,49.117a4.123,4.123,0,0,1,2.073,2.5,5.662,5.662,0,1,0-9.369,0,4.118,4.118,0,0,1,2.074-2.5,3.076,3.076,0,1,1,5.222,0ZM65,54.394a.943.943,0,0,1-.265.23,8.893,8.893,0,1,1,.265-.23Zm-3.878-3.828H59.594A2.2,2.2,0,0,0,57.4,52.755v.483a5.585,5.585,0,0,0,5.912.027v-.51A2.2,2.2,0,0,0,61.123,50.566Zm.073-3.912a1.183,1.183,0,1,0,0,1.675A1.184,1.184,0,0,0,61.2,46.654Zm.681,19.254a5.908,5.908,0,1,1-5.908,5.908A5.909,5.909,0,0,1,61.877,65.908Zm2.84,3.068a4.017,4.017,0,1,0,0,5.683A4.018,4.018,0,0,0,64.717,68.976Zm-3.6-8.2h1.5a1.744,1.744,0,0,1,1.74,1.744v.472a9.333,9.333,0,0,1,2,.827,2.023,2.023,0,0,1,1.567-.839v0a1.754,1.754,0,0,1,1.234.51l1.13,1.138a1.735,1.735,0,0,1-.073,2.387l0,0-.334.334a9.133,9.133,0,0,1,.831,2,2.021,2.021,0,0,1,1.7.51,1.737,1.737,0,0,1,.514,1.234v1.5a1.748,1.748,0,0,1-1.744,1.744v0H70.72l-.36,1.031h0a8.819,8.819,0,0,1-.476.977,2.028,2.028,0,0,1,.843,1.567,1.732,1.732,0,0,1-.514,1.23l0,0-1.138,1.13A1.735,1.735,0,0,1,66.7,80.2v0l-.337-.334a8.815,8.815,0,0,1-.977.472v0a9.4,9.4,0,0,1-1.027.357,2.02,2.02,0,0,1-.51,1.7,1.727,1.727,0,0,1-1.23.514h-1.5a1.748,1.748,0,0,1-1.744-1.744V80.7a9.2,9.2,0,0,1-2-.831,2.036,2.036,0,0,1-1.567.843v0a1.743,1.743,0,0,1-1.234-.506L53.44,79.064a1.732,1.732,0,0,1,.069-2.387h0l.337-.337a8.94,8.94,0,0,1-.831-2,2.025,2.025,0,0,1-1.7-.51,1.74,1.74,0,0,1-.51-1.23v-1.5a1.745,1.745,0,0,1,1.744-1.744h.472l.357-1.027h0a10.186,10.186,0,0,1,.476-.977A2.023,2.023,0,0,1,53,65.78h0a1.739,1.739,0,0,1,.514-1.23l0,0,1.138-1.126a1.736,1.736,0,0,1,2.391.065l.334.334a9.237,9.237,0,0,1,2.007-.831v-.468h0a1.745,1.745,0,0,1,1.742-1.746Zm1.353,1.894H61.261V63.1h0a1.741,1.741,0,0,1-1.295,1.682,7.189,7.189,0,0,0-1.759.729,1.739,1.739,0,0,1-2.1-.276l-.307-.307-.85.85.307.307v0a1.733,1.733,0,0,1,.276,2.1,7.224,7.224,0,0,0-.422.858h0c-.322.781-.295,1.349-.927,1.836a2.077,2.077,0,0,1-1.491.36v1.2a2.071,2.071,0,0,1,1.491.357c.633.483.6,1.046.931,1.836s.743,1.176.639,1.955a2.049,2.049,0,0,1-.8,1.314l.85.85a2.086,2.086,0,0,1,1.314-.8c.777-.1,1.161.314,1.955.639s1.353.3,1.836.931a2.087,2.087,0,0,1,.36,1.495h1.2a2.081,2.081,0,0,1,.357-1.495c.483-.629,1.046-.6,1.836-.931l0,0,.854-.426a1.744,1.744,0,0,1,2.1.276l.307.307.85-.85-.307-.307h0a1.735,1.735,0,0,1-.28-2.1,7.222,7.222,0,0,0,.422-.858l0,0c.326-.785.295-1.353.927-1.84a1.733,1.733,0,0,1,1.057-.357v0h.437V71.241a2.09,2.09,0,0,1-1.495-.36c-.633-.483-.6-1.046-.927-1.836s-.747-1.176-.643-1.955a2.087,2.087,0,0,1,.8-1.314l-.85-.85a2.041,2.041,0,0,1-1.314.8c-.777.1-1.157-.311-1.955-.639s-1.353-.3-1.836-.931A2.076,2.076,0,0,1,62.468,62.667Z"/>
      <path id="Trazado_1056763" data-name="Trazado 1056763" d="M303.048,252.4a1.266,1.266,0,1,1-1.268,1.268A1.266,1.266,0,0,1,303.048,252.4Z" transform="translate(-238.537 -182.929)" fill="#fff" fill-rule="evenodd"/>
      <path id="Trazado_1056764" data-name="Trazado 1056764" d="M321.857,230.29a.585.585,0,0,1,0,1.169.585.585,0,1,1,0-1.169Z" transform="translate(-255.393 -163.807)" fill="#b3b4b4" fill-rule="evenodd"/>
    </g>
  </g>
</svg>
