<svg xmlns="http://www.w3.org/2000/svg" xmlns:xlink="http://www.w3.org/1999/xlink" width="98" height="98" viewBox="0 0 98 98">
  <defs>
    <filter id="Trazado_982547" x="0" y="-0.001" width="98" height="98" filterUnits="userSpaceOnUse">
      <feOffset dy="3" input="SourceAlpha"/>
      <feGaussianBlur stdDeviation="3" result="blur"/>
      <feFlood flood-opacity="0.161"/>
      <feComposite operator="in" in2="blur"/>
      <feComposite in="SourceGraphic"/>
    </filter>
    <clipPath id="clip-path">
      <path id="path8121" d="M0-682.665H48.414v48.414H0Z" transform="translate(0 682.665)"/>
    </clipPath>
  </defs>
  <g id="Grupo_1224711" data-name="Grupo 1224711" transform="translate(-1021.288 -9832.182)">
    <g id="Grupo_1224519" data-name="Grupo 1224519" transform="translate(825.288 3231.536)">
      <g id="Grupo_1208715" data-name="Grupo 1208715" transform="translate(5 4679.811)">
        <g id="Grupo_1208171" data-name="Grupo 1208171" transform="translate(0 -2047.18)">
          <g id="Grupo_1207739" data-name="Grupo 1207739" transform="translate(0 1882.462)">
            <g id="Grupo_1207712" data-name="Grupo 1207712">
              <g id="Grupo_1207285" data-name="Grupo 1207285" transform="translate(0 344.552)">
                <g id="Grupo_1206883" data-name="Grupo 1206883" transform="translate(0 -209)">
                  <g id="Grupo_1204569" data-name="Grupo 1204569" transform="translate(-81 -1890.336)">
                    <g id="Grupo_1203962" data-name="Grupo 1203962" transform="translate(281 3846.336)">
                      <g id="Grupo_1203498" data-name="Grupo 1203498" transform="translate(0)">
                        <g id="Grupo_1202589" data-name="Grupo 1202589">
                          <g id="Grupo_1172010" data-name="Grupo 1172010">
                            <g id="Grupo_1171046" data-name="Grupo 1171046">
                              <g id="Grupo_1148525" data-name="Grupo 1148525">
                                <g transform="matrix(1, 0, 0, 1, -9, -6)" filter="url(#Trazado_982547)">
                                  <g id="Trazado_982547-2" data-name="Trazado 982547" transform="translate(9 6)" fill="#fdfbec">
                                    <path d="M 39.99999237060547 78.49998474121094 C 34.8018684387207 78.49998474121094 29.76002502441406 77.48226165771484 25.0145263671875 75.47508239746094 C 20.43014717102051 73.53604888916016 16.31264877319336 70.75984954833984 12.77639198303223 67.22359466552734 C 9.240137100219727 63.68733596801758 6.463936805725098 59.5698356628418 4.524903297424316 54.98546981811523 C 2.517725706100464 50.23995971679688 1.500003457069397 45.19811630249023 1.500003457069397 39.99999237060547 C 1.500003457069397 34.8018684387207 2.517725706100464 29.76002502441406 4.524903297424316 25.0145263671875 C 6.463936805725098 20.43014717102051 9.240137100219727 16.31264877319336 12.77639198303223 12.77639198303223 C 16.31264877319336 9.240137100219727 20.43014717102051 6.463936805725098 25.0145263671875 4.524903297424316 C 29.76002502441406 2.517725706100464 34.8018684387207 1.500003457069397 39.99999237060547 1.500003457069397 C 45.19811630249023 1.500003457069397 50.23995971679688 2.517725706100464 54.98546981811523 4.524903297424316 C 59.5698356628418 6.463936805725098 63.68733596801758 9.240137100219727 67.22359466552734 12.77639198303223 C 70.75984954833984 16.31264877319336 73.53604888916016 20.43014717102051 75.47508239746094 25.0145263671875 C 77.48226165771484 29.76002502441406 78.49998474121094 34.8018684387207 78.49998474121094 39.99999237060547 C 78.49998474121094 45.19812393188477 77.48226165771484 50.23995971679688 75.47508239746094 54.98546981811523 C 73.53604888916016 59.5698356628418 70.75984954833984 63.68733596801758 67.22359466552734 67.22359466552734 C 63.68733596801758 70.75984954833984 59.5698356628418 73.53604888916016 54.98546981811523 75.47508239746094 C 50.23995971679688 77.48226165771484 45.19812393188477 78.49998474121094 39.99999237060547 78.49998474121094 Z" stroke="none"/>
                                    <path d="M 39.99999237060547 2.999992370605469 C 35.00370025634766 2.999992370605469 30.1584587097168 3.97784423828125 25.59884643554688 5.906402587890625 C 21.19327163696289 7.769805908203125 17.23603057861328 10.43805694580078 13.83704376220703 13.83704376220703 C 10.43805694580078 17.23603057861328 7.769805908203125 21.19327163696289 5.906402587890625 25.59884643554688 C 3.97784423828125 30.1584587097168 2.999992370605469 35.00370025634766 2.999992370605469 39.99999237060547 C 2.999992370605469 44.99628448486328 3.97784423828125 49.84152603149414 5.906402587890625 54.40113830566406 C 7.769805908203125 58.80671310424805 10.43805694580078 62.76395416259766 13.83704376220703 66.16294097900391 C 17.23603057861328 69.56191253662109 21.19327163696289 72.23016357421875 25.59884643554688 74.09356689453125 C 30.1584587097168 76.02212524414062 35.00370025634766 76.99997711181641 39.99999237060547 76.99997711181641 C 44.99628448486328 76.99997711181641 49.84152603149414 76.02212524414062 54.40113830566406 74.09356689453125 C 58.80671310424805 72.23016357421875 62.76395416259766 69.56191253662109 66.16294097900391 66.16294097900391 C 69.56191253662109 62.76395416259766 72.23016357421875 58.80671310424805 74.09356689453125 54.40113830566406 C 76.02212524414062 49.84152603149414 76.99997711181641 44.99628448486328 76.99997711181641 39.99999237060547 C 76.99997711181641 35.00370025634766 76.02212524414062 30.1584587097168 74.09356689453125 25.59884643554688 C 72.23016357421875 21.19327163696289 69.56191253662109 17.23603057861328 66.16294097900391 13.83704376220703 C 62.76395416259766 10.43805694580078 58.80671310424805 7.769805908203125 54.40113830566406 5.906402587890625 C 49.84152603149414 3.97784423828125 44.99628448486328 2.999992370605469 39.99999237060547 2.999992370605469 M 39.99999237060547 -7.62939453125e-06 C 62.09137725830078 -7.62939453125e-06 79.99997711181641 17.90860748291016 79.99997711181641 39.99999237060547 C 79.99997711181641 62.09137725830078 62.09137725830078 79.99997711181641 39.99999237060547 79.99997711181641 C 17.90860748291016 79.99997711181641 -7.62939453125e-06 62.09137725830078 -7.62939453125e-06 39.99999237060547 C -7.62939453125e-06 17.90860748291016 17.90860748291016 -7.62939453125e-06 39.99999237060547 -7.62939453125e-06 Z" stroke="none" fill="#83793c"/>
                                  </g>
                                </g>
                              </g>
                            </g>
                          </g>
                        </g>
                      </g>
                    </g>
                  </g>
                </g>
              </g>
              <g id="g8115" transform="translate(215.793 2790.01)">
                <g id="g8117" transform="translate(0 -682.665)">
                  <g id="g8119" clip-path="url(#clip-path)">
                    <g id="g8125" transform="translate(-33.259 0.709)">
                      <path id="path8127" d="M-338.457-377.826h-25.835v-25.108c5.31-7.679,37.755-5.416,25.835,25.108" transform="translate(364.292 406.667)" fill="#fbdf63"/>
                    </g>
                    <g id="g8129" transform="translate(-33.259 0.709)">
                      <path id="path8131" d="M-338.457-377.826h-.619c6.164-24.728-15.887-30.6-25.216-24.374v-.734c5.31-7.679,37.755-5.416,25.835,25.108" transform="translate(364.292 406.667)" fill="#f9d11f"/>
                    </g>
                  </g>
                </g>
                <g id="g8265" transform="translate(0 -682.665)">
                  <g id="g8267" clip-path="url(#clip-path)">
                    <g id="g8273" transform="translate(-33.259 51.036)">
                      <path id="path8275" d="M-338.457-377.654h-25.835v-25.1c5.31-7.676,37.755-5.413,25.835,25.1" transform="translate(364.292 406.481)" fill="#003343"/>
                    </g>
                    <g id="g8277" transform="translate(-33.259 51.036)">
                      <path id="path8279" d="M-338.457-377.654h-.619c6.164-24.717-15.887-30.585-25.216-24.362v-.734c5.31-7.676,37.755-5.413,25.835,25.1" transform="translate(364.292 406.481)" fill="#002439"/>
                    </g>
                  </g>
                </g>
                <g id="g8281" transform="translate(0 -682.665)">
                  <g id="g8283" clip-path="url(#clip-path)">
                    <g id="g8289" transform="translate(17.066 51.014)">
                      <path id="path8291" d="M-338.457-377.826h-25.835v-25.108c5.31-7.679,37.755-5.416,25.835,25.108" transform="translate(364.292 406.667)" fill="#ff7e50"/>
                    </g>
                    <g id="g8293" transform="translate(17.066 51.014)">
                      <path id="path8295" d="M-338.457-377.826h-.619c6.164-24.728-15.887-30.6-25.216-24.374v-.734c5.31-7.679,37.755-5.416,25.835,25.108" transform="translate(364.292 406.667)" fill="#ff6247"/>
                    </g>
                    <g id="g8297" transform="translate(2.941 54.225)">
                      <path id="path8299" d="M-233.028-131.751v15.573h-14.6c-12.2-25.649,14.6-34.273,14.6-15.573" transform="translate(250.816 141.808)" fill="#ffa68a"/>
                    </g>
                    <g id="g8301" transform="translate(2.941 54.225)">
                      <path id="path8303" d="M-233.028-131.751c-.9-16.1-20.23-9.82-14.176,15.573h-.427c-12.2-25.649,14.6-34.273,14.6-15.573" transform="translate(250.816 141.808)" fill="#ff7e50"/>
                    </g>
                  </g>
                </g>
              </g>
            </g>
          </g>
        </g>
      </g>
    </g>
    <g id="connectivity_8083296" transform="translate(1037.407 9845.619)">
      <path id="Trazado_1056822" data-name="Trazado 1056822" d="M77.362,452.191h-36.2A2.159,2.159,0,0,1,39,450.032v-2.747a.785.785,0,0,1,.785-.785H78.735a.785.785,0,0,1,.785.785v2.747A2.159,2.159,0,0,1,77.362,452.191Z" transform="translate(-28.409 -395.929)" fill="#a8d3d8"/>
      <path id="Trazado_1056823" data-name="Trazado 1056823" d="M404.317,446.5h-2.943a.785.785,0,0,1,.785.785v2.747A2.159,2.159,0,0,1,400,452.191h2.943a2.159,2.159,0,0,0,2.159-2.158v-2.747A.785.785,0,0,0,404.317,446.5Z" transform="translate(-353.991 -395.929)" fill="#8ebac5"/>
      <path id="Trazado_1056824" data-name="Trazado 1056824" d="M200.5,446.7h8.83v1.782a.965.965,0,0,1-.965.965h-6.9a.965.965,0,0,1-.965-.965V446.7Z" transform="translate(-174.064 -396.112)" fill="#fdb441"/>
      <path id="Trazado_1056825" data-name="Trazado 1056825" d="M102.877,241.771H72.462a1.962,1.962,0,0,1-1.962-1.962V221.462a1.962,1.962,0,0,1,1.962-1.962h30.415a1.962,1.962,0,0,1,1.962,1.962v18.347A1.962,1.962,0,0,1,102.877,241.771Z" transform="translate(-56.819 -191.2)" fill="#3692bc"/>
      <path id="Trazado_1056826" data-name="Trazado 1056826" d="M373.443,219.5H370.5a1.962,1.962,0,0,1,1.962,1.962v18.347a1.962,1.962,0,0,1-1.962,1.962h2.943a1.962,1.962,0,0,0,1.962-1.962V221.462A1.962,1.962,0,0,0,373.443,219.5Z" transform="translate(-327.385 -191.2)" fill="#0681af"/>
      <path id="Trazado_1056827" data-name="Trazado 1056827" d="M100.5,265.612v-15.84a.272.272,0,0,1,.272-.272H128.68a.272.272,0,0,1,.272.272v15.84a.272.272,0,0,1-.272.272H100.772A.273.273,0,0,1,100.5,265.612Z" transform="translate(-83.876 -218.257)" fill="#edf9d9"/>
      <path id="Trazado_1056828" data-name="Trazado 1056828" d="M360.667,249.5h-2.943a.272.272,0,0,1,.272.272v15.84a.272.272,0,0,1-.272.272h2.943a.272.272,0,0,0,.272-.272v-15.84A.272.272,0,0,0,360.667,249.5Z" transform="translate(-315.863 -218.257)" fill="#d5efc8"/>
      <path id="Trazado_1056829" data-name="Trazado 1056829" d="M366.007,33.7h-12.1A1.406,1.406,0,0,1,352.5,32.29V8.906A1.406,1.406,0,0,1,353.906,7.5h12.1a1.406,1.406,0,0,1,1.406,1.406V32.29A1.406,1.406,0,0,1,366.007,33.7Z" transform="translate(-311.151)" fill="#edf9d9"/>
      <path id="Trazado_1056830" data-name="Trazado 1056830" d="M463.11,7.5h-2.943a1.406,1.406,0,0,1,1.406,1.406V32.29a1.406,1.406,0,0,1-1.406,1.406h2.943a1.406,1.406,0,0,0,1.406-1.406V8.906A1.406,1.406,0,0,0,463.11,7.5Z" transform="translate(-408.255)" fill="#d5efc8"/>
      <path id="Trazado_1056831" data-name="Trazado 1056831" d="M366.007,235.719h-12.1a1.406,1.406,0,0,1-1.406-1.406V231.5h14.913v2.813A1.406,1.406,0,0,1,366.007,235.719Z" transform="translate(-311.151 -202.023)" fill="#3692bc"/>
      <path id="Trazado_1056832" data-name="Trazado 1056832" d="M461.573,231.5v2.813a1.406,1.406,0,0,1-1.406,1.406h2.943a1.406,1.406,0,0,0,1.406-1.406V231.5Z" transform="translate(-408.255 -202.023)" fill="#0681af"/>
      <path id="Trazado_1056833" data-name="Trazado 1056833" d="M9.6,86H28.951a2.1,2.1,0,0,1,2.1,2.112v15.343a2.1,2.1,0,0,1-2.1,2.112H24.494a.432.432,0,0,0-.36.193l-2.328,3.493a.215.215,0,0,1-.358,0l-2.328-3.493a.433.433,0,0,0-.36-.193H9.6a2.1,2.1,0,0,1-2.1-2.112V88.112A2.1,2.1,0,0,1,9.6,86Z" transform="translate(0 -70.798)" fill="#eaf6ff"/>
      <g id="Grupo_1224707" data-name="Grupo 1224707" transform="translate(20.156 15.202)">
        <path id="Trazado_1056834" data-name="Trazado 1056834" d="M137.535,285.637,136.5,287.19l1.293,1.94a.215.215,0,0,0,.358,0l2.328-3.493a.433.433,0,0,1,.36-.193h-2.943A.433.433,0,0,0,137.535,285.637Z" transform="translate(-136.5 -265.876)" fill="#d8ecfe"/>
        <path id="Trazado_1056835" data-name="Trazado 1056835" d="M199.082,86h-2.943a2.1,2.1,0,0,1,2.1,2.112v15.343a2.1,2.1,0,0,1-2.1,2.112h2.943a2.1,2.1,0,0,0,2.1-2.112V88.112A2.1,2.1,0,0,0,199.082,86Z" transform="translate(-190.288 -86)" fill="#d8ecfe"/>
      </g>
      <circle id="Elipse_13565" data-name="Elipse 13565" cx="1.668" cy="1.668" r="1.668" transform="translate(17.131 23.206)" fill="#eaf6ff"/>
      <path id="Trazado_1056836" data-name="Trazado 1056836" d="M74.749,128.792l-.932-1.877a.9.9,0,0,0-1.2-.4l-1.381.685a.2.2,0,0,1-.283-.176v-1.54a.9.9,0,0,0-.9-.9h-2.1a.9.9,0,0,0-.9.9v1.539a.2.2,0,0,1-.283.176l-1.381-.685a.9.9,0,0,0-1.2.4l-.932,1.877a.9.9,0,0,0,.4,1.2l.609.3a.2.2,0,0,1,0,.352l-.609.3a.9.9,0,0,0-.4,1.2l.932,1.877a.9.9,0,0,0,1.2.4l1.382-.685a.2.2,0,0,1,.283.176v1.539a.9.9,0,0,0,.9.9h2.1a.9.9,0,0,0,.9-.9v-1.54a.2.2,0,0,1,.283-.176l1.382.685a.9.9,0,0,0,1.2-.4l.933-1.878a.9.9,0,0,0-.4-1.2l-.609-.3a.2.2,0,0,1,0-.352l.609-.3A.9.9,0,0,0,74.749,128.792Z" transform="translate(-50.206 -105.597)" fill="#eaf6ff"/>
      <circle id="Elipse_13566" data-name="Elipse 13566" cx="1.668" cy="1.668" r="1.668" transform="translate(17.131 23.206)" fill="#eaf6ff"/>
      <path id="Trazado_1056837" data-name="Trazado 1056837" d="M74.749,128.792l-.932-1.877a.9.9,0,0,0-1.2-.4l-1.381.685a.2.2,0,0,1-.283-.176v-1.54a.9.9,0,0,0-.9-.9h-2.1a.9.9,0,0,0-.9.9v1.539a.2.2,0,0,1-.283.176l-1.381-.685a.9.9,0,0,0-1.2.4l-.932,1.877a.9.9,0,0,0,.4,1.2l.609.3a.2.2,0,0,1,0,.352l-.609.3a.9.9,0,0,0-.4,1.2l.932,1.877a.9.9,0,0,0,1.2.4l1.382-.685a.2.2,0,0,1,.283.176v1.539a.9.9,0,0,0,.9.9h2.1a.9.9,0,0,0,.9-.9v-1.54a.2.2,0,0,1,.283-.176l1.382.685a.9.9,0,0,0,1.2-.4l.933-1.878a.9.9,0,0,0-.4-1.2l-.609-.3a.2.2,0,0,1,0-.352l.609-.3A.9.9,0,0,0,74.749,128.792Z" transform="translate(-50.206 -105.597)" fill="#a8d3d8"/>
      <circle id="Elipse_13567" data-name="Elipse 13567" cx="1.668" cy="1.668" r="1.668" transform="translate(17.131 23.206)" fill="#fdb441"/>
      <path id="Trazado_1056838" data-name="Trazado 1056838" d="M252.512,330.387H243.97a.326.326,0,0,1-.326-.326v-5.235a.326.326,0,0,1,.326-.326h8.543a.326.326,0,0,1,.326.326v5.235A.326.326,0,0,1,252.512,330.387Z" transform="translate(-212.975 -285.898)" fill="#fe7ab6"/>
      <path id="Trazado_1056839" data-name="Trazado 1056839" d="M306.978,324.5h-2.943a.326.326,0,0,1,.326.326v5.235a.326.326,0,0,1-.326.326h2.943a.326.326,0,0,0,.326-.326v-5.235A.326.326,0,0,0,306.978,324.5Z" transform="translate(-267.441 -285.898)" fill="#fe5ca7"/>
      <g id="Grupo_1224710" data-name="Grupo 1224710" transform="translate(7.5 7.5)">
        <path id="Trazado_1056840" data-name="Trazado 1056840" d="M67.453,452.191H41.158A2.159,2.159,0,0,1,39,450.032v-2.747a.785.785,0,0,1,.785-.785H78.735a.785.785,0,0,1,.785.785v2.747a2.159,2.159,0,0,1-2.158,2.158H70.919" transform="translate(-35.909 -403.429)" fill="none" stroke="#000" stroke-linecap="round" stroke-linejoin="round" stroke-miterlimit="10" stroke-width="1.2"/>
        <path id="Trazado_1056841" data-name="Trazado 1056841" d="M200.5,446.7h8.83v1.782a.965.965,0,0,1-.965.965h-6.9a.965.965,0,0,1-.965-.965V446.7Z" transform="translate(-181.564 -403.612)" fill="none" stroke="#000" stroke-linecap="round" stroke-linejoin="round" stroke-miterlimit="10" stroke-width="1.2"/>
        <line id="Línea_1015" data-name="Línea 1015" x2="10.007" transform="translate(23.661 20.8)" fill="none" stroke="#000" stroke-linecap="round" stroke-linejoin="round" stroke-miterlimit="10" stroke-width="1.2"/>
        <path id="Trazado_1056842" data-name="Trazado 1056842" d="M104.839,276v14.766a1.962,1.962,0,0,1-1.962,1.962H72.462a1.962,1.962,0,0,1-1.962-1.962V277.077" transform="translate(-64.319 -249.655)" fill="none" stroke="#000" stroke-linecap="round" stroke-linejoin="round" stroke-miterlimit="10" stroke-width="1.2"/>
        <line id="Línea_1016" data-name="Línea 1016" x2="9.931" transform="translate(23.738 23.743)" fill="none" stroke="#000" stroke-linecap="round" stroke-linejoin="round" stroke-miterlimit="10" stroke-width="1.2"/>
        <path id="Trazado_1056843" data-name="Trazado 1056843" d="M128.953,276v13.513a.272.272,0,0,1-.272.272H100.772a.272.272,0,0,1-.272-.272V277.077" transform="translate(-91.376 -249.655)" fill="none" stroke="#000" stroke-linecap="round" stroke-linejoin="round" stroke-miterlimit="10" stroke-width="1.2"/>
        <g id="Grupo_1224708" data-name="Grupo 1224708" transform="translate(8.082 45.916)">
          <line id="Línea_1017" data-name="Línea 1017" x2="1.314" fill="none" stroke="#000" stroke-linecap="round" stroke-linejoin="round" stroke-miterlimit="10" stroke-width="1.2"/>
          <line id="Línea_1018" data-name="Línea 1018" x2="1.314" transform="translate(3.943)" fill="none" stroke="#000" stroke-linecap="round" stroke-linejoin="round" stroke-miterlimit="10" stroke-width="1.2"/>
        </g>
        <path id="Trazado_1056844" data-name="Trazado 1056844" d="M367.413,32.29a1.406,1.406,0,0,1-1.406,1.406h-12.1A1.406,1.406,0,0,1,352.5,32.29V8.906A1.406,1.406,0,0,1,353.906,7.5h12.1a1.406,1.406,0,0,1,1.406,1.406V32.29Z" transform="translate(-318.651 -7.5)" fill="none" stroke="#000" stroke-linecap="round" stroke-linejoin="round" stroke-miterlimit="10" stroke-width="1.2"/>
        <line id="Línea_1019" data-name="Línea 1019" x2="14.433" transform="translate(34.094 21.977)" fill="none" stroke="#000" stroke-linecap="round" stroke-linejoin="round" stroke-miterlimit="10" stroke-width="1.2"/>
        <path id="Trazado_1056845" data-name="Trazado 1056845" d="M398,52.424l3.052,2.449,3.341-4.705" transform="translate(-359.687 -45.982)" fill="none" stroke="#000" stroke-linecap="round" stroke-linejoin="round" stroke-miterlimit="10" stroke-width="1.2"/>
        <path id="Trazado_1056846" data-name="Trazado 1056846" d="M453.439,276v4.045a3.618,3.618,0,0,0,1.06,2.559l1.145,1.145a1.657,1.657,0,0,1,.485,1.172v8.87a1.657,1.657,0,0,1-1.657,1.657H452" transform="translate(-408.389 -249.655)" fill="none" stroke="#000" stroke-linecap="round" stroke-linejoin="round" stroke-miterlimit="10" stroke-width="1.2"/>
        <g id="Grupo_1224709" data-name="Grupo 1224709" transform="translate(38.018 13.098)">
          <line id="Línea_1020" data-name="Línea 1020" x2="3.287" fill="none" stroke="#000" stroke-linecap="round" stroke-linejoin="round" stroke-miterlimit="10" stroke-width="1.2"/>
          <line id="Línea_1021" data-name="Línea 1021" x2="6.426" transform="translate(0 2.355)" fill="none" stroke="#000" stroke-linecap="round" stroke-linejoin="round" stroke-miterlimit="10" stroke-width="1.2"/>
          <line id="Línea_1022" data-name="Línea 1022" x2="6.426" transform="translate(0 4.709)" fill="none" stroke="#000" stroke-linecap="round" stroke-linejoin="round" stroke-miterlimit="10" stroke-width="1.2"/>
        </g>
        <path id="Trazado_1056847" data-name="Trazado 1056847" d="M14.875,86H28.951a2.1,2.1,0,0,1,2.1,2.112v15.343a2.1,2.1,0,0,1-2.1,2.112H24.494a.432.432,0,0,0-.36.193l-2.328,3.493a.215.215,0,0,1-.358,0l-2.328-3.493a.433.433,0,0,0-.36-.193H9.6a2.1,2.1,0,0,1-2.1-2.112V88.112A2.1,2.1,0,0,1,9.6,86h1.791" transform="translate(-7.5 -78.298)" fill="none" stroke="#000" stroke-linecap="round" stroke-linejoin="round" stroke-miterlimit="10" stroke-width="1.2"/>
        <circle id="Elipse_13568" data-name="Elipse 13568" cx="1.668" cy="1.668" r="1.668" transform="translate(9.631 15.706)" fill="none" stroke="#000" stroke-linecap="round" stroke-linejoin="round" stroke-miterlimit="10" stroke-width="1.2"/>
        <path id="Trazado_1056848" data-name="Trazado 1056848" d="M74.749,128.792l-.932-1.877a.9.9,0,0,0-1.2-.4l-1.381.685a.2.2,0,0,1-.283-.176v-1.54a.9.9,0,0,0-.9-.9h-2.1a.9.9,0,0,0-.9.9v1.539a.2.2,0,0,1-.283.176l-1.381-.685a.9.9,0,0,0-1.2.4l-.932,1.877a.9.9,0,0,0,.4,1.2l.609.3a.2.2,0,0,1,0,.352l-.609.3a.9.9,0,0,0-.4,1.2l.932,1.877a.9.9,0,0,0,1.2.4l1.382-.685a.2.2,0,0,1,.283.176v1.539a.9.9,0,0,0,.9.9h2.1a.9.9,0,0,0,.9-.9v-1.54a.2.2,0,0,1,.283-.176l1.382.685a.9.9,0,0,0,1.2-.4l.933-1.878a.9.9,0,0,0-.4-1.2l-.609-.3a.2.2,0,0,1,0-.352l.609-.3A.9.9,0,0,0,74.749,128.792Z" transform="translate(-57.706 -113.097)" fill="none" stroke="#000" stroke-linecap="round" stroke-linejoin="round" stroke-miterlimit="10" stroke-width="1.2"/>
        <circle id="Elipse_13569" data-name="Elipse 13569" cx="1.668" cy="1.668" r="1.668" transform="translate(9.631 15.706)" fill="none" stroke="#000" stroke-linecap="round" stroke-linejoin="round" stroke-miterlimit="10" stroke-width="1.2"/>
        <path id="Trazado_1056849" data-name="Trazado 1056849" d="M74.749,128.792l-.932-1.877a.9.9,0,0,0-1.2-.4l-1.381.685a.2.2,0,0,1-.283-.176v-1.54a.9.9,0,0,0-.9-.9h-2.1a.9.9,0,0,0-.9.9v1.539a.2.2,0,0,1-.283.176l-1.381-.685a.9.9,0,0,0-1.2.4l-.932,1.877a.9.9,0,0,0,.4,1.2l.609.3a.2.2,0,0,1,0,.352l-.609.3a.9.9,0,0,0-.4,1.2l.932,1.877a.9.9,0,0,0,1.2.4l1.382-.685a.2.2,0,0,1,.283.176v1.539a.9.9,0,0,0,.9.9h2.1a.9.9,0,0,0,.9-.9v-1.54a.2.2,0,0,1,.283-.176l1.382.685a.9.9,0,0,0,1.2-.4l.933-1.878a.9.9,0,0,0-.4-1.2l-.609-.3a.2.2,0,0,1,0-.352l.609-.3A.9.9,0,0,0,74.749,128.792Z" transform="translate(-57.706 -113.097)" fill="none" stroke="#000" stroke-linecap="round" stroke-linejoin="round" stroke-miterlimit="10" stroke-width="1.2"/>
        <path id="Trazado_1056850" data-name="Trazado 1056850" d="M252.512,330.387H243.97a.326.326,0,0,1-.326-.326v-5.235a.326.326,0,0,1,.326-.326h8.543a.326.326,0,0,1,.326.326v5.235A.326.326,0,0,1,252.512,330.387Z" transform="translate(-220.475 -293.398)" fill="none" stroke="#000" stroke-linecap="round" stroke-linejoin="round" stroke-miterlimit="10" stroke-width="1.2"/>
      </g>
    </g>
  </g>
</svg>
