<svg xmlns="http://www.w3.org/2000/svg" xmlns:xlink="http://www.w3.org/1999/xlink" width="98" height="98" viewBox="0 0 98 98">
  <defs>
    <filter id="Trazado_982547" x="0" y="0" width="98" height="98" filterUnits="userSpaceOnUse">
      <feOffset dy="3" input="SourceAlpha"/>
      <feGaussianBlur stdDeviation="3" result="blur"/>
      <feFlood flood-opacity="0.161"/>
      <feComposite operator="in" in2="blur"/>
      <feComposite in="SourceGraphic"/>
    </filter>
    <clipPath id="clip-path">
      <path id="path8121" d="M0-682.665H48.414v48.414H0Z" transform="translate(0 682.665)"/>
    </clipPath>
  </defs>
  <g id="Grupo_1225288" data-name="Grupo 1225288" transform="translate(-196 -2389.801)">
    <g id="Grupo_1224526" data-name="Grupo 1224526" transform="translate(0 1185.62)">
      <g id="Grupo_1209204" data-name="Grupo 1209204" transform="translate(0 -5396.464)">
        <g id="Grupo_1208715" data-name="Grupo 1208715" transform="translate(5 4679.811)">
          <g id="Grupo_1208171" data-name="Grupo 1208171" transform="translate(0 -2047.18)">
            <g id="Grupo_1207739" data-name="Grupo 1207739" transform="translate(0 1882.462)">
              <g id="Grupo_1207712" data-name="Grupo 1207712">
                <g id="Grupo_1207285" data-name="Grupo 1207285" transform="translate(0 344.552)">
                  <g id="Grupo_1206883" data-name="Grupo 1206883" transform="translate(0 -209)">
                    <g id="Grupo_1204569" data-name="Grupo 1204569" transform="translate(-81 -1890.336)">
                      <g id="Grupo_1203962" data-name="Grupo 1203962" transform="translate(281 3846.336)">
                        <g id="Grupo_1203498" data-name="Grupo 1203498" transform="translate(0)">
                          <g id="Grupo_1202589" data-name="Grupo 1202589">
                            <g id="Grupo_1172010" data-name="Grupo 1172010">
                              <g id="Grupo_1171046" data-name="Grupo 1171046">
                                <g id="Grupo_1148525" data-name="Grupo 1148525">
                                  <g transform="matrix(1, 0, 0, 1, -9, -6)" filter="url(#Trazado_982547)">
                                    <g id="Trazado_982547-2" data-name="Trazado 982547" transform="translate(9 6)" fill="#fdfbec">
                                      <path d="M 39.99999237060547 78.49998474121094 C 34.8018684387207 78.49998474121094 29.76002502441406 77.48226165771484 25.0145263671875 75.47508239746094 C 20.43014717102051 73.53604888916016 16.31264877319336 70.75984954833984 12.77639198303223 67.22359466552734 C 9.240137100219727 63.68733596801758 6.463936805725098 59.5698356628418 4.524903297424316 54.98546981811523 C 2.517725706100464 50.23995971679688 1.500003457069397 45.19811630249023 1.500003457069397 39.99999237060547 C 1.500003457069397 34.8018684387207 2.517725706100464 29.76002502441406 4.524903297424316 25.0145263671875 C 6.463936805725098 20.43014717102051 9.240137100219727 16.31264877319336 12.77639198303223 12.77639198303223 C 16.31264877319336 9.240137100219727 20.43014717102051 6.463936805725098 25.0145263671875 4.524903297424316 C 29.76002502441406 2.517725706100464 34.8018684387207 1.500003457069397 39.99999237060547 1.500003457069397 C 45.19811630249023 1.500003457069397 50.23995971679688 2.517725706100464 54.98546981811523 4.524903297424316 C 59.5698356628418 6.463936805725098 63.68733596801758 9.240137100219727 67.22359466552734 12.77639198303223 C 70.75984954833984 16.31264877319336 73.53604888916016 20.43014717102051 75.47508239746094 25.0145263671875 C 77.48226165771484 29.76002502441406 78.49998474121094 34.8018684387207 78.49998474121094 39.99999237060547 C 78.49998474121094 45.19812393188477 77.48226165771484 50.23995971679688 75.47508239746094 54.98546981811523 C 73.53604888916016 59.5698356628418 70.75984954833984 63.68733596801758 67.22359466552734 67.22359466552734 C 63.68733596801758 70.75984954833984 59.5698356628418 73.53604888916016 54.98546981811523 75.47508239746094 C 50.23995971679688 77.48226165771484 45.19812393188477 78.49998474121094 39.99999237060547 78.49998474121094 Z" stroke="none"/>
                                      <path d="M 39.99999237060547 2.999992370605469 C 35.00370025634766 2.999992370605469 30.1584587097168 3.97784423828125 25.59884643554688 5.906402587890625 C 21.19327163696289 7.769805908203125 17.23603057861328 10.43805694580078 13.83704376220703 13.83704376220703 C 10.43805694580078 17.23603057861328 7.769805908203125 21.19327163696289 5.906402587890625 25.59884643554688 C 3.97784423828125 30.1584587097168 2.999992370605469 35.00370025634766 2.999992370605469 39.99999237060547 C 2.999992370605469 44.99628448486328 3.97784423828125 49.84152603149414 5.906402587890625 54.40113830566406 C 7.769805908203125 58.80671310424805 10.43805694580078 62.76395416259766 13.83704376220703 66.16294097900391 C 17.23603057861328 69.56191253662109 21.19327163696289 72.23016357421875 25.59884643554688 74.09356689453125 C 30.1584587097168 76.02212524414062 35.00370025634766 76.99997711181641 39.99999237060547 76.99997711181641 C 44.99628448486328 76.99997711181641 49.84152603149414 76.02212524414062 54.40113830566406 74.09356689453125 C 58.80671310424805 72.23016357421875 62.76395416259766 69.56191253662109 66.16294097900391 66.16294097900391 C 69.56191253662109 62.76395416259766 72.23016357421875 58.80671310424805 74.09356689453125 54.40113830566406 C 76.02212524414062 49.84152603149414 76.99997711181641 44.99628448486328 76.99997711181641 39.99999237060547 C 76.99997711181641 35.00370025634766 76.02212524414062 30.1584587097168 74.09356689453125 25.59884643554688 C 72.23016357421875 21.19327163696289 69.56191253662109 17.23603057861328 66.16294097900391 13.83704376220703 C 62.76395416259766 10.43805694580078 58.80671310424805 7.769805908203125 54.40113830566406 5.906402587890625 C 49.84152603149414 3.97784423828125 44.99628448486328 2.999992370605469 39.99999237060547 2.999992370605469 M 39.99999237060547 -7.62939453125e-06 C 62.09137725830078 -7.62939453125e-06 79.99997711181641 17.90860748291016 79.99997711181641 39.99999237060547 C 79.99997711181641 62.09137725830078 62.09137725830078 79.99997711181641 39.99999237060547 79.99997711181641 C 17.90860748291016 79.99997711181641 -7.62939453125e-06 62.09137725830078 -7.62939453125e-06 39.99999237060547 C -7.62939453125e-06 17.90860748291016 17.90860748291016 -7.62939453125e-06 39.99999237060547 -7.62939453125e-06 Z" stroke="none" fill="#83793c"/>
                                    </g>
                                  </g>
                                </g>
                              </g>
                            </g>
                          </g>
                        </g>
                      </g>
                    </g>
                  </g>
                </g>
                <g id="g8115" transform="translate(215.793 2790.01)">
                  <g id="g8117" transform="translate(0 -682.665)">
                    <g id="g8119" clip-path="url(#clip-path)">
                      <g id="g8125" transform="translate(-33.259 0.709)">
                        <path id="path8127" d="M-338.457-377.826h-25.835v-25.108c5.31-7.679,37.755-5.416,25.835,25.108" transform="translate(364.292 406.667)" fill="#fbdf63"/>
                      </g>
                      <g id="g8129" transform="translate(-33.259 0.709)">
                        <path id="path8131" d="M-338.457-377.826h-.619c6.164-24.728-15.887-30.6-25.216-24.374v-.734c5.31-7.679,37.755-5.416,25.835,25.108" transform="translate(364.292 406.667)" fill="#f9d11f"/>
                      </g>
                    </g>
                  </g>
                  <g id="g8265" transform="translate(0 -682.665)">
                    <g id="g8267" clip-path="url(#clip-path)">
                      <g id="g8273" transform="translate(-33.259 51.036)">
                        <path id="path8275" d="M-338.457-377.654h-25.835v-25.1c5.31-7.676,37.755-5.413,25.835,25.1" transform="translate(364.292 406.481)" fill="#003343"/>
                      </g>
                      <g id="g8277" transform="translate(-33.259 51.036)">
                        <path id="path8279" d="M-338.457-377.654h-.619c6.164-24.717-15.887-30.585-25.216-24.362v-.734c5.31-7.676,37.755-5.413,25.835,25.1" transform="translate(364.292 406.481)" fill="#002439"/>
                      </g>
                    </g>
                  </g>
                  <g id="g8281" transform="translate(0 -682.665)">
                    <g id="g8283" clip-path="url(#clip-path)">
                      <g id="g8289" transform="translate(17.066 51.014)">
                        <path id="path8291" d="M-338.457-377.826h-25.835v-25.108c5.31-7.679,37.755-5.416,25.835,25.108" transform="translate(364.292 406.667)" fill="#ff7e50"/>
                      </g>
                      <g id="g8293" transform="translate(17.066 51.014)">
                        <path id="path8295" d="M-338.457-377.826h-.619c6.164-24.728-15.887-30.6-25.216-24.374v-.734c5.31-7.679,37.755-5.416,25.835,25.108" transform="translate(364.292 406.667)" fill="#ff6247"/>
                      </g>
                      <g id="g8297" transform="translate(2.941 54.225)">
                        <path id="path8299" d="M-233.028-131.751v15.573h-14.6c-12.2-25.649,14.6-34.273,14.6-15.573" transform="translate(250.816 141.808)" fill="#ffa68a"/>
                      </g>
                      <g id="g8301" transform="translate(2.941 54.225)">
                        <path id="path8303" d="M-233.028-131.751c-.9-16.1-20.23-9.82-14.176,15.573h-.427c-12.2-25.649,14.6-34.273,14.6-15.573" transform="translate(250.816 141.808)" fill="#ff7e50"/>
                      </g>
                    </g>
                  </g>
                </g>
              </g>
            </g>
          </g>
        </g>
      </g>
    </g>
    <g id="parchment_3519106" transform="translate(217.14 2412.792)">
      <g id="Grupo_1225286" data-name="Grupo 1225286" transform="translate(1.689 1.813)">
        <g id="Grupo_1225276" data-name="Grupo 1225276" transform="translate(6.505)">
          <path id="Trazado_1056952" data-name="Trazado 1056952" d="M45.779,2v8.132H10V2Z" transform="translate(-10 -2)" fill="#dfb28b"/>
        </g>
        <g id="Grupo_1225277" data-name="Grupo 1225277" transform="translate(42.284)">
          <path id="Trazado_1056953" data-name="Trazado 1056953" d="M57.253,8.505v.813a.816.816,0,0,1-.813.813H54V2h2.439a.816.816,0,0,1,.813.813V8.505Z" transform="translate(-54 -2)" fill="#cf9e76"/>
        </g>
        <g id="Grupo_1225278" data-name="Grupo 1225278" transform="translate(3.253)">
          <path id="Trazado_1056954" data-name="Trazado 1056954" d="M9.253,2v8.132H6.813A.816.816,0,0,1,6,9.318V2.813A.816.816,0,0,1,6.813,2Z" transform="translate(-6 -2)" fill="#cf9e76"/>
        </g>
        <g id="Grupo_1225279" data-name="Grupo 1225279" transform="translate(45.537 1.626)">
          <path id="Trazado_1056955" data-name="Trazado 1056955" d="M60.439,4.813l.813,1.626-.813,1.626L58,8.879V4Z" transform="translate(-58 -4)" fill="#b27946"/>
        </g>
        <g id="Grupo_1225280" data-name="Grupo 1225280" transform="translate(0 1.626)">
          <path id="Trazado_1056956" data-name="Trazado 1056956" d="M5.253,4V8.879L2.813,8.066,2,6.439l.813-1.626Z" transform="translate(-2 -4)" fill="#b27946"/>
        </g>
        <g id="Grupo_1225281" data-name="Grupo 1225281" transform="translate(8.132 8.132)">
          <path id="Trazado_1056957" data-name="Trazado 1056957" d="M12,12V42.9h.951a5.558,5.558,0,0,0,3.928-1.626l4.066,11.384H44.526V12Z" transform="translate(-12 -12)" fill="#e6e9ed"/>
        </g>
        <g id="Grupo_1225282" data-name="Grupo 1225282" transform="translate(8.132 37.405)">
          <path id="Trazado_1056958" data-name="Trazado 1056958" d="M16.879,48l4.066,11.384L12,49.626h.951A5.558,5.558,0,0,0,16.879,48Z" transform="translate(-12 -48)" fill="#fcd770"/>
        </g>
        <g id="Grupo_1225283" data-name="Grupo 1225283" transform="translate(26.021 34.152)">
          <path id="Trazado_1056959" data-name="Trazado 1056959" d="M39.692,44A5.692,5.692,0,1,1,34,49.692,5.688,5.688,0,0,1,39.692,44Z" transform="translate(-34 -44)" fill="#fcd770"/>
        </g>
        <g id="Grupo_1225284" data-name="Grupo 1225284" transform="translate(29.274 37.405)">
          <circle id="Elipse_13584" data-name="Elipse 13584" cx="2.439" cy="2.439" r="2.439" fill="#ffeaa7"/>
        </g>
        <g id="Grupo_1225285" data-name="Grupo 1225285" transform="translate(0 19.516)">
          <path id="Trazado_1056960" data-name="Trazado 1056960" d="M21,27.269a16.62,16.62,0,0,0-5.977-1.26C14.88,26,14.75,26,14.612,26a18.077,18.077,0,0,0-4.025.455c-.154.033-.3.065-.455.106a18.112,18.112,0,0,0-6.513,3.106L2,30.879l1.618,1.212a18.1,18.1,0,0,0,5.2,2.724c.431.146.87.268,1.309.382.154.041.3.073.455.106a18.077,18.077,0,0,0,4.025.455,16.641,16.641,0,0,0,11.783-4.879,16.656,16.656,0,0,0-5.4-3.61Z" transform="translate(-2 -26)" fill="#b4dd7f"/>
        </g>
      </g>
      <g id="Grupo_1225287" data-name="Grupo 1225287" transform="translate(0.333 1)">
        <path id="Trazado_1056961" data-name="Trazado 1056961" d="M51.387,5.879,50.241,3.588l-2.2-.734V2.626A1.628,1.628,0,0,0,46.412,1H5.754A1.628,1.628,0,0,0,4.128,2.626v.228l-2.2.734L.779,5.879,1.925,8.17l2.2.734v.228a1.628,1.628,0,0,0,1.626,1.626H9.007V21.286a19.175,19.175,0,0,0-6.189,3.059L.333,26.208l2.485,1.863A19.159,19.159,0,0,0,9.007,31.13V41.16l9.4,10.255H43.159V10.758h3.253a1.628,1.628,0,0,0,1.626-1.626V8.9l2.2-.734ZM3.078,6.841,2.6,5.879l.481-.962,1.05-.35V7.191ZM43.159,2.626V9.132H9.007V2.626Zm-37.405,0H7.381V9.132H5.754Zm18.16,24.395a15.72,15.72,0,0,1-9.61,3.253,17.311,17.311,0,0,1-2.348-.173l3.079-3.079Zm-4-1.626-3.033-3.033a15.669,15.669,0,0,1,7.033,3.033ZM14.3,22.142l.061,0,3.249,3.25H15.036l-3.079-3.079a17.3,17.3,0,0,1,2.348-.173ZM3.044,26.208l.749-.562a17.6,17.6,0,0,1,6.23-2.963l2.713,2.712H5.754v1.626h6.982l-2.713,2.713a17.6,17.6,0,0,1-6.23-2.963ZM11.61,41.594a6.439,6.439,0,0,0,2.71-1.019l2.326,6.513Zm29.923,8.195h-22.2l-4.3-12.054-.908.908a4.772,4.772,0,0,1-3.351,1.388h-.14V31.525A18.981,18.981,0,0,0,14.3,31.9,17.339,17.339,0,0,0,26.4,27.021h1.117a7.465,7.465,0,0,1,5.314,2.2l1.15-1.15a9.082,9.082,0,0,0-6.464-2.678H26.4A17.341,17.341,0,0,0,14.3,20.516a18.987,18.987,0,0,0-3.671.375V10.758h30.9ZM44.786,9.132V2.626h1.626l0,6.505Zm4.3-2.291-1.05.35V4.567l1.05.35.481.962Z" transform="translate(-0.333 -1)"/>
        <path id="Trazado_1056962" data-name="Trazado 1056962" d="M40.253,47a3.253,3.253,0,1,0,3.253,3.253A3.256,3.256,0,0,0,40.253,47Zm0,4.879a1.626,1.626,0,1,1,1.626-1.626A1.628,1.628,0,0,1,40.253,51.879Z" transform="translate(-7.184 -9.595)"/>
        <path id="Trazado_1056963" data-name="Trazado 1056963" d="M39.505,43a6.505,6.505,0,1,0,6.505,6.505A6.513,6.513,0,0,0,39.505,43Zm0,11.384a4.879,4.879,0,1,1,4.879-4.879A4.884,4.884,0,0,1,39.505,54.384Z" transform="translate(-6.437 -8.848)"/>
        <path id="Trazado_1056964" data-name="Trazado 1056964" d="M29,47h1.626v1.626H29Z" transform="translate(-5.689 -9.595)"/>
        <path id="Trazado_1056965" data-name="Trazado 1056965" d="M25,47h1.626v1.626H25Z" transform="translate(-4.942 -9.595)"/>
        <path id="Trazado_1056966" data-name="Trazado 1056966" d="M21,47h1.626v1.626H21Z" transform="translate(-4.195 -9.595)"/>
        <path id="Trazado_1056967" data-name="Trazado 1056967" d="M43,37h4.879v1.626H43Z" transform="translate(-8.305 -7.726)"/>
        <path id="Trazado_1056968" data-name="Trazado 1056968" d="M35,37h4.879v1.626H35Z" transform="translate(-6.81 -7.726)"/>
        <path id="Trazado_1056969" data-name="Trazado 1056969" d="M15,15h4.879v1.626H15Z" transform="translate(-3.073 -3.616)"/>
        <path id="Trazado_1056970" data-name="Trazado 1056970" d="M23,15H44.142v1.626H23Z" transform="translate(-4.568 -3.616)"/>
        <path id="Trazado_1056971" data-name="Trazado 1056971" d="M19,19h4.879v1.626H19Z" transform="translate(-3.821 -4.363)"/>
        <path id="Trazado_1056972" data-name="Trazado 1056972" d="M27,19H44.889v1.626H27Z" transform="translate(-5.316 -4.363)"/>
        <path id="Trazado_1056973" data-name="Trazado 1056973" d="M31,23H45.637v1.626H31Z" transform="translate(-6.063 -5.111)"/>
        <path id="Trazado_1056974" data-name="Trazado 1056974" d="M35,27H46.384v1.626H35Z" transform="translate(-6.81 -5.858)"/>
      </g>
    </g>
  </g>
</svg>
