<svg xmlns="http://www.w3.org/2000/svg" xmlns:xlink="http://www.w3.org/1999/xlink" width="113" height="113" viewBox="0 0 113 113">
  <defs>
    <filter id="Trazado_982547" x="0" y="0" width="113" height="113" filterUnits="userSpaceOnUse">
      <feOffset dy="3" input="SourceAlpha"/>
      <feGaussianBlur stdDeviation="3" result="blur"/>
      <feFlood flood-opacity="0.161"/>
      <feComposite operator="in" in2="blur"/>
      <feComposite in="SourceGraphic"/>
    </filter>
  </defs>
  <g id="Grupo_1225291" data-name="Grupo 1225291" transform="translate(-271 -4690.76)">
    <g id="Grupo_1225173" data-name="Grupo 1225173" transform="translate(0 -50.236)">
      <g id="Grupo_1224643" data-name="Grupo 1224643" transform="translate(0 1927)">
        <g id="Grupo_1224291" data-name="Grupo 1224291" transform="translate(0 859.245)">
          <g id="Grupo_1224091" data-name="Grupo 1224091" transform="translate(-84.49 -2620.317)">
            <g id="Grupo_1223183" data-name="Grupo 1223183" transform="translate(364.49 4581.069)">
              <g id="Grupo_1211217" data-name="Grupo 1211217" transform="translate(0)">
                <g id="Grupo_1210736" data-name="Grupo 1210736">
                  <g id="Grupo_1210537" data-name="Grupo 1210537">
                    <g id="Grupo_1164202" data-name="Grupo 1164202">
                      <g id="Grupo_1158168" data-name="Grupo 1158168">
                        <g id="Grupo_1152576" data-name="Grupo 1152576">
                          <g id="Grupo_1148633" data-name="Grupo 1148633">
                            <g id="Grupo_1148525" data-name="Grupo 1148525">
                              <g transform="matrix(1, 0, 0, 1, -9, -6)" filter="url(#Trazado_982547)">
                                <g id="Trazado_982547-2" data-name="Trazado 982547" transform="translate(9 6)" fill="#fdfbec">
                                  <path d="M 47.49999618530273 93.5 C 41.28936767578125 93.5 35.26533126831055 92.28396606445312 29.59518241882324 89.88570404052734 C 24.11771583557129 87.56893157958984 19.19812965393066 84.251953125 14.97308921813965 80.02690124511719 C 10.74803638458252 75.80186462402344 7.431062698364258 70.88227844238281 5.114289283752441 65.40480804443359 C 2.716022968292236 59.73466110229492 1.499996185302734 53.71062469482422 1.499996185302734 47.49999618530273 C 1.499996185302734 41.28936767578125 2.716022968292236 35.26533126831055 5.114289283752441 29.59518241882324 C 7.431062698364258 24.11771583557129 10.74803638458252 19.19812965393066 14.97308921813965 14.97308921813965 C 19.19812965393066 10.74803638458252 24.11771583557129 7.431062698364258 29.59518241882324 5.114289283752441 C 35.26533126831055 2.716022968292236 41.28936767578125 1.499996185302734 47.49999618530273 1.499996185302734 C 53.71062469482422 1.499996185302734 59.73466110229492 2.716022968292236 65.40480804443359 5.114289283752441 C 70.88227844238281 7.431062698364258 75.80186462402344 10.74803638458252 80.02690124511719 14.97308921813965 C 84.251953125 19.19812965393066 87.56893157958984 24.11771583557129 89.88570404052734 29.59518241882324 C 92.28396606445312 35.26533126831055 93.5 41.28936767578125 93.5 47.49999618530273 C 93.5 53.71062469482422 92.28396606445312 59.73466110229492 89.88570404052734 65.40480804443359 C 87.56893157958984 70.88227844238281 84.251953125 75.80186462402344 80.02690124511719 80.02690124511719 C 75.80186462402344 84.251953125 70.88227844238281 87.56893157958984 65.40480804443359 89.88570404052734 C 59.73466110229492 92.28396606445312 53.71062469482422 93.5 47.49999618530273 93.5 Z" stroke="none"/>
                                  <path d="M 47.49999618530273 2.999992370605469 C 41.4912109375 2.999992370605469 35.66376495361328 4.1761474609375 30.17950439453125 6.495796203613281 C 24.88084411621094 8.736953735351562 20.12152099609375 11.94598388671875 16.03375244140625 16.03375244140625 C 11.94598388671875 20.12152099609375 8.736953735351562 24.88084411621094 6.495796203613281 30.17950439453125 C 4.1761474609375 35.66376495361328 2.999992370605469 41.4912109375 2.999992370605469 47.49999618530273 C 2.999992370605469 53.50878143310547 4.1761474609375 59.33622741699219 6.495796203613281 64.82048797607422 C 8.736953735351562 70.11914825439453 11.94598388671875 74.87847137451172 16.03375244140625 78.96623992919922 C 20.12152099609375 83.05400848388672 24.88084411621094 86.26304626464844 30.17950439453125 88.50419616699219 C 35.66376495361328 90.82384490966797 41.4912109375 92 47.49999618530273 92 C 53.50878143310547 92 59.33622741699219 90.82384490966797 64.82048797607422 88.50419616699219 C 70.11914825439453 86.26304626464844 74.87847137451172 83.05400848388672 78.96623992919922 78.96623992919922 C 83.05400848388672 74.87847137451172 86.26304626464844 70.11914825439453 88.50419616699219 64.82048797607422 C 90.82384490966797 59.33622741699219 92 53.50878143310547 92 47.49999618530273 C 92 41.4912109375 90.82384490966797 35.66376495361328 88.50419616699219 30.17950439453125 C 86.26304626464844 24.88084411621094 83.05400848388672 20.12152099609375 78.96623992919922 16.03375244140625 C 74.87847137451172 11.94598388671875 70.11914825439453 8.736953735351562 64.82048797607422 6.495796203613281 C 59.33622741699219 4.1761474609375 53.50878143310547 2.999992370605469 47.49999618530273 2.999992370605469 M 47.49999618530273 -7.62939453125e-06 C 73.7335205078125 -7.62939453125e-06 95 21.26647186279297 95 47.49999618530273 C 95 73.7335205078125 73.7335205078125 95 47.49999618530273 95 C 21.26647186279297 95 -7.62939453125e-06 73.7335205078125 -7.62939453125e-06 47.49999618530273 C -7.62939453125e-06 21.26647186279297 21.26647186279297 -7.62939453125e-06 47.49999618530273 -7.62939453125e-06 Z" stroke="none" fill="#83793c"/>
                                </g>
                              </g>
                            </g>
                          </g>
                        </g>
                      </g>
                    </g>
                  </g>
                </g>
              </g>
            </g>
          </g>
        </g>
      </g>
    </g>
    <g id="cube_9013453" transform="translate(294.664 4708.665)">
      <rect id="Rectángulo_422004" data-name="Rectángulo 422004" width="29" height="29" rx="3" transform="translate(33.336 33.336)" fill="#f06681"/>
      <path id="Trazado_1056975" data-name="Trazado 1056975" d="M36.092,34A2.092,2.092,0,0,0,34,36.092V60.151a3.12,3.12,0,0,0,.146.9,3.121,3.121,0,0,0,.9.146H58.059A3.138,3.138,0,0,0,61.2,58.059V35.046a3.12,3.12,0,0,0-.146-.9,3.12,3.12,0,0,0-.9-.146Z" transform="translate(1.428 1.428)" fill="#e83c50"/>
      <path id="Trazado_1056976" data-name="Trazado 1056976" d="M53.645,50.461H39L46.322,40Z" transform="translate(1.658 1.704)" fill="#3cb046"/>
      <path id="Trazado_1056977" data-name="Trazado 1056977" d="M52.007,44.368H40.5L46.253,36Z" transform="translate(1.727 1.52)" fill="#68c870"/>
      <path id="Trazado_1056978" data-name="Trazado 1056978" d="M44,50h4.184v6.276H44Z" transform="translate(1.888 2.165)" fill="#9b6249"/>
      <rect id="Rectángulo_422005" data-name="Rectángulo 422005" width="30" height="29" rx="3" transform="translate(18.336 4.336)" fill="#ffe796"/>
      <path id="Trazado_1056979" data-name="Trazado 1056979" d="M22.092,6A2.092,2.092,0,0,0,20,8.092V32.151a3.12,3.12,0,0,0,.146.9,3.12,3.12,0,0,0,.9.146H44.059A3.138,3.138,0,0,0,47.2,30.059V7.046a3.12,3.12,0,0,0-.146-.9,3.12,3.12,0,0,0-.9-.146Z" transform="translate(0.783 0.138)" fill="#ffd85a"/>
      <rect id="Rectángulo_422006" data-name="Rectángulo 422006" width="29" height="29" rx="3" transform="translate(4.336 33.336)" fill="#68c870"/>
      <path id="Trazado_1056980" data-name="Trazado 1056980" d="M8.092,34A2.092,2.092,0,0,0,6,36.092V60.151a3.12,3.12,0,0,0,.146.9,3.121,3.121,0,0,0,.9.146H30.059A3.138,3.138,0,0,0,33.2,58.059V35.046a3.12,3.12,0,0,0-.146-.9,3.12,3.12,0,0,0-.9-.146Z" transform="translate(0.138 1.428)" fill="#3cb046"/>
      <path id="Trazado_1056981" data-name="Trazado 1056981" d="M26.191,47.725c0,4.333-3.513,8.966-7.845,8.966S10.5,52.058,10.5,47.725,14.013,41,18.345,41,26.191,43.391,26.191,47.725Z" transform="translate(0.345 1.75)" fill="#e83c50"/>
      <circle id="Elipse_13585" data-name="Elipse 13585" cx="2" cy="2" r="2" transform="translate(14.336 46.336)" fill="#f06681"/>
      <path id="Trazado_1056982" data-name="Trazado 1056982" d="M59.487,32.29H48.445a4.141,4.141,0,0,0,.582-2.092V7.184A4.184,4.184,0,0,0,44.842,3H21.829a4.184,4.184,0,0,0-4.184,4.184V30.2a4.141,4.141,0,0,0,.582,2.092H7.184A4.184,4.184,0,0,0,3,36.474V59.487a4.184,4.184,0,0,0,4.184,4.184H30.2a4.157,4.157,0,0,0,3.138-1.446,4.157,4.157,0,0,0,3.138,1.446H59.487a4.184,4.184,0,0,0,4.184-4.184V36.474A4.184,4.184,0,0,0,59.487,32.29Zm-27.2,27.2A2.092,2.092,0,0,1,30.2,61.579H7.184a2.092,2.092,0,0,1-2.092-2.092V36.474a2.092,2.092,0,0,1,2.092-2.092H30.2a2.092,2.092,0,0,1,2.092,2.092ZM21.829,32.29A2.092,2.092,0,0,1,19.737,30.2V7.184a2.092,2.092,0,0,1,2.092-2.092H44.842a2.092,2.092,0,0,1,2.092,2.092V30.2a2.092,2.092,0,0,1-2.092,2.092Zm39.75,27.2a2.092,2.092,0,0,1-2.092,2.092H36.474a2.092,2.092,0,0,1-2.092-2.092V36.474a2.092,2.092,0,0,1,2.092-2.092H59.487a2.092,2.092,0,0,1,2.092,2.092Z" transform="translate(0 0)"/>
      <path id="Trazado_1056983" data-name="Trazado 1056983" d="M51.307,45.461h.815a1.046,1.046,0,0,0,.862-1.639L47.23,35.453a1.046,1.046,0,0,0-1.724,0l-5.753,8.368a1.046,1.046,0,0,0,.862,1.639h.815l-3.243,4.631a1.046,1.046,0,0,0,.859,1.645H43.23v5.23a1.046,1.046,0,0,0,1.046,1.046h4.184a1.046,1.046,0,0,0,1.046-1.046v-5.23h4.184a1.046,1.046,0,0,0,.857-1.645Zm-4.938-7.568,3.766,5.476H42.6Zm1.046,18.029H45.322V51.737h2.092Zm-6.359-6.276,2.929-4.184h4.768l2.929,4.184Z" transform="translate(1.612 1.474)"/>
      <path id="Trazado_1056984" data-name="Trazado 1056984" d="M19.447,40.275a3.537,3.537,0,0,1,2.413-3.238A1.047,1.047,0,0,0,21.2,35.05a5.62,5.62,0,0,0-3.843,5.219C12.615,40.651,9.5,43.658,9.5,48c0,4.73,3.8,10.016,8.891,10.016S27.283,52.728,27.283,48c0-4.333-3.107-7.338-7.836-7.726ZM18.391,55.921c-3.83,0-6.8-4.257-6.8-7.92,0-4.192,3.661-5.679,6.8-5.679s6.8,1.487,6.8,5.679C25.191,51.664,22.221,55.921,18.391,55.921Z" transform="translate(0.299 1.474)"/>
      <path id="Trazado_1056985" data-name="Trazado 1056985" d="M37.306,12.97a1.046,1.046,0,0,0,1.479,0l1.353-1.353,1.353,1.353a1.046,1.046,0,1,0,1.479-1.479l-1.353-1.352L42.97,8.786a1.046,1.046,0,1,0-1.479-1.479L40.138,8.659,38.786,7.306a1.046,1.046,0,1,0-1.479,1.479l1.353,1.352-1.353,1.353a1.046,1.046,0,0,0,0,1.479Z" transform="translate(1.566 0.184)"/>
      <path id="Trazado_1056986" data-name="Trazado 1056986" d="M21.306,12.97a1.046,1.046,0,0,0,1.479,0l1.353-1.353,1.353,1.353a1.046,1.046,0,1,0,1.479-1.479l-1.353-1.352L26.97,8.786a1.046,1.046,0,1,0-1.479-1.479L24.138,8.659,22.786,7.306a1.046,1.046,0,1,0-1.479,1.479l1.353,1.352-1.353,1.353a1.046,1.046,0,0,0,0,1.479Z" transform="translate(0.829 0.184)"/>
      <path id="Trazado_1056987" data-name="Trazado 1056987" d="M34.97,15.306a1.046,1.046,0,0,0-1.479,0l-1.353,1.353-1.353-1.353a1.046,1.046,0,1,0-1.479,1.479l1.353,1.352-1.353,1.353a1.046,1.046,0,1,0,1.479,1.479l1.352-1.353,1.353,1.353a1.046,1.046,0,1,0,1.479-1.479l-1.353-1.352,1.353-1.353a1.046,1.046,0,0,0,0-1.479Z" transform="translate(1.197 0.553)"/>
      <path id="Trazado_1056988" data-name="Trazado 1056988" d="M42.97,23.306a1.046,1.046,0,0,0-1.479,0l-1.353,1.353-1.353-1.353a1.046,1.046,0,1,0-1.479,1.479l1.353,1.352-1.353,1.353a1.046,1.046,0,1,0,1.479,1.479l1.352-1.353,1.353,1.353a1.046,1.046,0,1,0,1.479-1.479l-1.353-1.352,1.353-1.353A1.046,1.046,0,0,0,42.97,23.306Z" transform="translate(1.566 0.921)"/>
      <path id="Trazado_1056989" data-name="Trazado 1056989" d="M40.138,21.276A3.138,3.138,0,1,0,37,18.138,3.138,3.138,0,0,0,40.138,21.276Zm0-4.184a1.046,1.046,0,1,1-1.046,1.046A1.046,1.046,0,0,1,40.138,17.092Z" transform="translate(1.566 0.553)"/>
      <path id="Trazado_1056990" data-name="Trazado 1056990" d="M32.138,7a3.138,3.138,0,1,0,3.138,3.138A3.138,3.138,0,0,0,32.138,7Zm0,4.184a1.046,1.046,0,1,1,1.046-1.046A1.046,1.046,0,0,1,32.138,11.184Z" transform="translate(1.197 0.184)"/>
      <path id="Trazado_1056991" data-name="Trazado 1056991" d="M24.138,23a3.138,3.138,0,1,0,3.138,3.138A3.138,3.138,0,0,0,24.138,23Zm0,4.184a1.046,1.046,0,1,1,1.046-1.046A1.046,1.046,0,0,1,24.138,27.184Z" transform="translate(0.829 0.921)"/>
    </g>
  </g>
</svg>
