<svg xmlns="http://www.w3.org/2000/svg" xmlns:xlink="http://www.w3.org/1999/xlink" width="113" height="113" viewBox="0 0 113 113">
  <defs>
    <filter id="Trazado_982547" x="0" y="0" width="113" height="113" filterUnits="userSpaceOnUse">
      <feOffset dy="3" input="SourceAlpha"/>
      <feGaussianBlur stdDeviation="3" result="blur"/>
      <feFlood flood-opacity="0.161"/>
      <feComposite operator="in" in2="blur"/>
      <feComposite in="SourceGraphic"/>
    </filter>
  </defs>
  <g id="Grupo_1225293" data-name="Grupo 1225293" transform="translate(-585.509 -4690.76)">
    <g id="Grupo_1225176" data-name="Grupo 1225176" transform="translate(0 -50.236)">
      <g id="Grupo_1224647" data-name="Grupo 1224647" transform="translate(0 1927)">
        <g id="Grupo_1224292" data-name="Grupo 1224292" transform="translate(0 859.245)">
          <g id="Grupo_1224092" data-name="Grupo 1224092" transform="translate(-88.49 -2620.317)">
            <g id="Grupo_1223184" data-name="Grupo 1223184" transform="translate(683 4581.069)">
              <g id="Grupo_1211216" data-name="Grupo 1211216" transform="translate(0)">
                <g id="Grupo_1210737" data-name="Grupo 1210737">
                  <g id="Grupo_1210537" data-name="Grupo 1210537">
                    <g id="Grupo_1164202" data-name="Grupo 1164202">
                      <g id="Grupo_1158168" data-name="Grupo 1158168">
                        <g id="Grupo_1152576" data-name="Grupo 1152576">
                          <g id="Grupo_1148633" data-name="Grupo 1148633">
                            <g id="Grupo_1148525" data-name="Grupo 1148525">
                              <g transform="matrix(1, 0, 0, 1, -9, -6)" filter="url(#Trazado_982547)">
                                <g id="Trazado_982547-2" data-name="Trazado 982547" transform="translate(9 6)" fill="#fdfbec">
                                  <path d="M 47.49999618530273 93.5 C 41.28936767578125 93.5 35.26533126831055 92.28396606445312 29.59518241882324 89.88570404052734 C 24.11771583557129 87.56893157958984 19.19812965393066 84.251953125 14.97308921813965 80.02690124511719 C 10.74803638458252 75.80186462402344 7.431062698364258 70.88227844238281 5.114289283752441 65.40480804443359 C 2.716022968292236 59.73466110229492 1.499996185302734 53.71062469482422 1.499996185302734 47.49999618530273 C 1.499996185302734 41.28936767578125 2.716022968292236 35.26533126831055 5.114289283752441 29.59518241882324 C 7.431062698364258 24.11771583557129 10.74803638458252 19.19812965393066 14.97308921813965 14.97308921813965 C 19.19812965393066 10.74803638458252 24.11771583557129 7.431062698364258 29.59518241882324 5.114289283752441 C 35.26533126831055 2.716022968292236 41.28936767578125 1.499996185302734 47.49999618530273 1.499996185302734 C 53.71062469482422 1.499996185302734 59.73466110229492 2.716022968292236 65.40480804443359 5.114289283752441 C 70.88227844238281 7.431062698364258 75.80186462402344 10.74803638458252 80.02690124511719 14.97308921813965 C 84.251953125 19.19812965393066 87.56893157958984 24.11771583557129 89.88570404052734 29.59518241882324 C 92.28396606445312 35.26533126831055 93.5 41.28936767578125 93.5 47.49999618530273 C 93.5 53.71062469482422 92.28396606445312 59.73466110229492 89.88570404052734 65.40480804443359 C 87.56893157958984 70.88227844238281 84.251953125 75.80186462402344 80.02690124511719 80.02690124511719 C 75.80186462402344 84.251953125 70.88227844238281 87.56893157958984 65.40480804443359 89.88570404052734 C 59.73466110229492 92.28396606445312 53.71062469482422 93.5 47.49999618530273 93.5 Z" stroke="none"/>
                                  <path d="M 47.49999618530273 2.999992370605469 C 41.4912109375 2.999992370605469 35.66376495361328 4.1761474609375 30.17950439453125 6.495796203613281 C 24.88084411621094 8.736953735351562 20.12152099609375 11.94598388671875 16.03375244140625 16.03375244140625 C 11.94598388671875 20.12152099609375 8.736953735351562 24.88084411621094 6.495796203613281 30.17950439453125 C 4.1761474609375 35.66376495361328 2.999992370605469 41.4912109375 2.999992370605469 47.49999618530273 C 2.999992370605469 53.50878143310547 4.1761474609375 59.33622741699219 6.495796203613281 64.82048797607422 C 8.736953735351562 70.11914825439453 11.94598388671875 74.87847137451172 16.03375244140625 78.96623992919922 C 20.12152099609375 83.05400848388672 24.88084411621094 86.26304626464844 30.17950439453125 88.50419616699219 C 35.66376495361328 90.82384490966797 41.4912109375 92 47.49999618530273 92 C 53.50878143310547 92 59.33622741699219 90.82384490966797 64.82048797607422 88.50419616699219 C 70.11914825439453 86.26304626464844 74.87847137451172 83.05400848388672 78.96623992919922 78.96623992919922 C 83.05400848388672 74.87847137451172 86.26304626464844 70.11914825439453 88.50419616699219 64.82048797607422 C 90.82384490966797 59.33622741699219 92 53.50878143310547 92 47.49999618530273 C 92 41.4912109375 90.82384490966797 35.66376495361328 88.50419616699219 30.17950439453125 C 86.26304626464844 24.88084411621094 83.05400848388672 20.12152099609375 78.96623992919922 16.03375244140625 C 74.87847137451172 11.94598388671875 70.11914825439453 8.736953735351562 64.82048797607422 6.495796203613281 C 59.33622741699219 4.1761474609375 53.50878143310547 2.999992370605469 47.49999618530273 2.999992370605469 M 47.49999618530273 -7.62939453125e-06 C 73.7335205078125 -7.62939453125e-06 95 21.26647186279297 95 47.49999618530273 C 95 73.7335205078125 73.7335205078125 95 47.49999618530273 95 C 21.26647186279297 95 -7.62939453125e-06 73.7335205078125 -7.62939453125e-06 47.49999618530273 C -7.62939453125e-06 21.26647186279297 21.26647186279297 -7.62939453125e-06 47.49999618530273 -7.62939453125e-06 Z" stroke="none" fill="#83793c"/>
                                </g>
                              </g>
                            </g>
                          </g>
                        </g>
                      </g>
                    </g>
                  </g>
                </g>
              </g>
            </g>
          </g>
        </g>
      </g>
    </g>
    <g id="early_17859540" transform="translate(581.214 4645.699)">
      <g id="Grupo_1225292" data-name="Grupo 1225292" transform="translate(27.043 68.495)">
        <path id="Trazado_1056992" data-name="Trazado 1056992" d="M346.743,87.353a9.024,9.024,0,0,1-8.627-1.812,6.976,6.976,0,0,0-2.786-9.134c.042-.149.086-.3.132-.447C343.095,70.769,341.2,84.156,346.743,87.353Z" transform="translate(-289.979 -74.777)" fill="#8c5021" fill-rule="evenodd"/>
        <path id="Trazado_1056993" data-name="Trazado 1056993" d="M67.184,296.707l-.306,2.012,2.3,1.943,5.771-.566.744,3.312-6.378,2.39L64.5,304.254l.086,3.9-.025-.243a23.681,23.681,0,0,0-6.042-1.263,24.115,24.115,0,0,0-4.362.042c.735-4.478,4.724-9.542,8.39-10.865a4.735,4.735,0,0,0,3.087,1.143,4.685,4.685,0,0,0,1.547-.257Z" transform="translate(-50.987 -262.661)" fill="#41ade2" fill-rule="evenodd"/>
        <path id="Trazado_1056994" data-name="Trazado 1056994" d="M60.286,307.5c-.71-.009-1.412.012-2.1.065.732-4.3,4.443-9.125,7.982-10.648a4.781,4.781,0,0,0,2.262.939,16.408,16.408,0,0,0-6.318,9.686C61.5,307.508,60.884,307.494,60.286,307.5Z" transform="translate(-54.413 -263.596)" fill="#4185b0" fill-rule="evenodd"/>
        <path id="Trazado_1056995" data-name="Trazado 1056995" d="M63.884,368.8l.025.243,2.045,2.522a3.888,3.888,0,0,1,.786,3.444c-.3,1.25-.965,2.721-2.246,2.73l-10.379.068-.527-3.963,2.075-.225c-2.037-1.4-2.577-3.636-2.186-6.038a23.983,23.983,0,0,1,4.362-.042A23.6,23.6,0,0,1,63.884,368.8Z" transform="translate(-50.307 -323.556)" fill="#00989f" fill-rule="evenodd"/>
        <path id="Trazado_1056996" data-name="Trazado 1056996" d="M104.3,371.606l.03.243,2.042,2.522a3.888,3.888,0,0,1,.786,3.444c-.294,1.25-.962,2.721-2.246,2.73l-2.033.009c.336-1.02.557-2.147.7-2.739.294-1.25-.281-2.267-.786-3.444l-1.553-3.611A22.34,22.34,0,0,1,104.3,371.606Z" transform="translate(-91.005 -326.359)" fill="#157d7e" fill-rule="evenodd"/>
        <path id="Trazado_1056997" data-name="Trazado 1056997" d="M192.791,321.9c-.2.055-.378.115-.561.187l.081-.009.744,3.312c1.421.294,3.819-1.284,3.44-2.624C196.219,321.787,194.561,321.4,192.791,321.9Z" transform="translate(-168.345 -284.641)" fill="#fcccb1" fill-rule="evenodd"/>
        <path id="Trazado_1056998" data-name="Trazado 1056998" d="M35.791,409.85c-1.535,0-2.781.944-2.781,2.114,0,1.634,2.679,2.267,3.611,1.854l-.383-3.938A2.917,2.917,0,0,0,35.791,409.85Z" transform="translate(-33.01 -359.586)" fill="#fcccb1" fill-rule="evenodd"/>
        <path id="Trazado_1056999" data-name="Trazado 1056999" d="M103.6,228.54a4.789,4.789,0,0,0-4.775,4.775V235a4.775,4.775,0,1,0,9.55,0v-1.688A4.786,4.786,0,0,0,103.6,228.54Z" transform="translate(-88.956 -205.474)" fill="#eab295" fill-rule="evenodd"/>
        <path id="Trazado_1057000" data-name="Trazado 1057000" d="M103.6,228.54a4.789,4.789,0,0,0-4.775,4.775V235a4.776,4.776,0,0,0,1.739,3.678,4.652,4.652,0,0,0,.651.042,4.789,4.789,0,0,0,4.775-4.775V232.26a4.783,4.783,0,0,0-1.739-3.678A4.893,4.893,0,0,0,103.6,228.54Z" transform="translate(-88.956 -205.474)" fill="#fcccb1" fill-rule="evenodd"/>
        <path id="Trazado_1057001" data-name="Trazado 1057001" d="M191.451,147.162,181.99,159.21c-1.28,1.634,2.177,4.971,4.176,2.747l5.613-6.251c1.748-1.947,4,3.113,2.853,5.889L190.5,171.643h24.056l-5.2-10.618c-1.092-2.237.128-7.267,2.564-5.91l1.479.825a4.245,4.245,0,0,0,5.46-1.127l7.57-9.887c1.761-2.3-1.659-4.92-3.563-2.828l-6.909,7.607-4.937-2.7a12.422,12.422,0,0,0-6.216-1.586h-.689a7.025,7.025,0,0,1-5.7,0h-1.05C195.419,145.418,192.642,145.644,191.451,147.162Z" transform="translate(-159.406 -131.349)" fill="#fdcc9a" fill-rule="evenodd"/>
        <path id="Trazado_1057002" data-name="Trazado 1057002" d="M208.3,159.6l-6.765,8.611,3.581,3.843,3.512-3.912c1.748-1.947,4,3.113,2.853,5.889l-4.137,10.048h24.056l-5.2-10.618c-1.092-2.237.128-7.267,2.564-5.91l1.479.825a4.245,4.245,0,0,0,5.46-1.127l5.9-7.7-3.189-3.581-5.613,6.174-4.937-2.7a12.422,12.422,0,0,0-6.216-1.586h-.689a7.025,7.025,0,0,1-5.7,0H214.2C212.263,157.859,209.487,158.085,208.3,159.6Z" transform="translate(-176.25 -143.79)" fill="#0eacb3" fill-rule="evenodd"/>
        <path id="Trazado_1057003" data-name="Trazado 1057003" d="M212.95,182.294l1.866,2,3.512-3.912c1.748-1.947,4,3.113,2.853,5.889l-4.137,10.048H241.1L235.9,185.7c-1.092-2.237.128-7.267,2.564-5.91l1.479.825a4.245,4.245,0,0,0,5.46-1.127l5.9-7.7-1.268-1.421L242.5,178.4l-4.937-2.7a12.422,12.422,0,0,0-6.216-1.586h-.689a7.025,7.025,0,0,1-5.7,0H223.9c-1.935,0-4.712.225-5.9,1.743Z" transform="translate(-185.957 -156.03)" fill="#68c7c1" fill-rule="evenodd"/>
        <path id="Trazado_1057004" data-name="Trazado 1057004" d="M317.98,343.38h18.4a2.612,2.612,0,1,1,0,5.225H320.595a2.62,2.62,0,0,1-2.615-2.61Z" transform="translate(-275.232 -303.087)" fill="#fdcc9a" fill-rule="evenodd"/>
        <path id="Trazado_1057005" data-name="Trazado 1057005" d="M272.3,79.41A6.988,6.988,0,1,1,265.29,86.4,6.995,6.995,0,0,1,272.3,79.41Z" transform="translate(-230.446 -78.715)" fill="#e4a978" fill-rule="evenodd"/>
        <path id="Trazado_1057006" data-name="Trazado 1057006" d="M282.446,79.41a6.985,6.985,0,0,1,6.443,9.728,7,7,0,0,1-11.1-7.964A6.97,6.97,0,0,1,282.446,79.41Z" transform="translate(-240.594 -78.715)" fill="#fdcc9a" fill-rule="evenodd"/>
        <path id="Trazado_1057007" data-name="Trazado 1057007" d="M291.447,79.41a7,7,0,0,1,7,6.986,6.653,6.653,0,0,1-.081,1.059,8.57,8.57,0,0,1-9.257-4,9.626,9.626,0,0,1-1.293-3.041A7,7,0,0,1,291.447,79.41Z" transform="translate(-249.596 -78.715)" fill="#ac6327" fill-rule="evenodd"/>
        <path id="Trazado_1057008" data-name="Trazado 1057008" d="M266.47,343.38H274.2v2.615a2.621,2.621,0,0,0,2.619,2.61H269.2a2.726,2.726,0,0,1-2.726-2.714Z" transform="translate(-231.449 -303.087)" fill="#fdcc9a" fill-rule="evenodd"/>
        <path id="Trazado_1057009" data-name="Trazado 1057009" d="M187.16,410.93h16.41v4.979H187.16Z" transform="translate(-164.036 -360.504)" fill="#ca3d27" fill-rule="evenodd"/>
        <path id="Trazado_1057010" data-name="Trazado 1057010" d="M219.11,410.93h11.617v4.979H219.11Z" transform="translate(-191.193 -360.504)" fill="#f04d24" fill-rule="evenodd"/>
        <path id="Trazado_1057011" data-name="Trazado 1057011" d="M220.375,313.7l6.93,9.605H213.44Z" transform="translate(-186.374 -277.859)" fill="#ca3d27" fill-rule="evenodd"/>
        <path id="Trazado_1057012" data-name="Trazado 1057012" d="M247.269,333.85l4.754,6.582h-9.5Z" transform="translate(-211.091 -294.986)" fill="#f04d24" fill-rule="evenodd"/>
        <path id="Trazado_1057013" data-name="Trazado 1057013" d="M204.96,377.73h16.41v4.979H204.96Z" transform="translate(-179.166 -332.284)" fill="#00b2ca" fill-rule="evenodd"/>
        <path id="Trazado_1057014" data-name="Trazado 1057014" d="M238.98,377.73h11.306v4.979H238.98Z" transform="translate(-208.082 -332.284)" fill="#59caec" fill-rule="evenodd"/>
      </g>
      <path id="Trazado_1057015" data-name="Trazado 1057015" d="M66.577,117.87H68.2v-2.879H53.887v2.879Zm2.67,2.1h-1.62V123.9a1.053,1.053,0,0,1-1.05,1.05H50.167a1.05,1.05,0,0,1-1.05-1.05v-4.979a1.047,1.047,0,0,1,1.05-1.05h1.62v-3.929a1.047,1.047,0,0,1,1.05-1.05h.74l4.026-5.579,3.7-8.972a5.314,5.314,0,0,0-.872-4.716c-.246-.255-.162-.158-.239-.072L54.579,99.8c-2.892,3.219-7.9-1.391-5.778-4.1l9.461-12.047c1.071-1.361,2.981-1.863,4.7-2.045a8.042,8.042,0,0,1,9.049-12.847c3.347-2.25,5.273-1.518,6.68.552,2.012,2.955,2.531,9.058,5.634,10.843a1.046,1.046,0,0,1-.209,1.905v0a10.071,10.071,0,0,1-8.641-1.263,8.028,8.028,0,0,1-.728.885,13.406,13.406,0,0,1,4.4,1.539l4.214,2.3,6.362-7a3.384,3.384,0,0,1,5.537.809A3.04,3.04,0,0,1,94.89,82.7l-7.574,9.89A5.292,5.292,0,0,1,80.516,94l-1.476-.825c-.323-.183-.485-.1-.74.269a5.216,5.216,0,0,0-.378,4.265l4.911,10.027h5.358a3.663,3.663,0,0,1,0,7.327h-17.9v3.857A1.046,1.046,0,0,1,69.247,119.971Zm-13.088-7.081h9.767l-4.881-6.765Zm12.349,0h.554a3.638,3.638,0,0,1-.32-1.488v-1.565H66.305Zm-7.02-9.5a1.057,1.057,0,0,1,.417.353l2.883,4H80.508l-4.457-9.109c-1.122-2.283-.387-7.136,2.3-7.612,1.947-.345,3.053,1.991,5.412,1.5a3.18,3.18,0,0,0,1.892-1.2l5.37-7.016-1.838-2.067-4.83,5.315a1.046,1.046,0,0,1-1.335.179l-4.877-2.666a11.425,11.425,0,0,0-5.715-1.454h-.476a8.123,8.123,0,0,1-6.128,0h-.837c-1.425,0-4.125.128-5.078,1.34L53.7,92.863l2.186,2.348,2.751-3.062a2.123,2.123,0,0,1,3.3.009,7.419,7.419,0,0,1,1.305,6.979Zm4.04,16.584H51.217v2.879h14.31Zm8.84-41.443a10.139,10.139,0,0,1-9.649-6.591,5.953,5.953,0,1,0,9.649,6.591Zm-7.859-7.795a8.576,8.576,0,0,0,4.622,5.115,6.788,6.788,0,0,0,3.713.524A5.955,5.955,0,0,0,66.508,70.733ZM74.04,70a8.025,8.025,0,0,1,2.42,8.942,7.97,7.97,0,0,0,5.018,1.484c-2.394-2.879-3.02-7.727-4.515-9.925C76.361,69.62,75.507,69.266,74.04,70Zm14.155,39.84H70.842V111.4a1.571,1.571,0,0,0,1.569,1.56H88.195a1.562,1.562,0,0,0,0-3.125ZM90.606,80.68l1.718,1.931.9-1.178c.948-1.238-.944-2.594-1.952-1.484ZM54.483,96.775,52.39,94.529,50.451,97c-.417.531,1.451,2.649,2.568,1.4ZM41.692,92.612a3.738,3.738,0,0,0-3.725,3.725v1.688a3.725,3.725,0,0,0,7.45,0V96.337A3.732,3.732,0,0,0,41.692,92.612Zm-4.112-.392a5.817,5.817,0,0,1,9.937,4.115v1.688a5.835,5.835,0,0,1-3.33,5.259l-.128.851,1.514,1.275,5.111-.5.519-.17a6.041,6.041,0,0,1,2.934-.132c2.441.575,2.867,2.93.906,4.566a5.329,5.329,0,0,1-1.889,1,3.753,3.753,0,0,1-1.284.141l-6.132,2.3a1.041,1.041,0,0,1-.684.017h0l-3.41-1.094.042,2.067,1.82,2.241a4.953,4.953,0,0,1,.995,4.346c-.383,1.611-1.323,3.525-3.261,3.537l-10.379.068a8.468,8.468,0,0,1-.927.106c-1.713,0-3.938-1.046-3.938-3.032s2.1-3.282,4.121-3.147c-2.483-3.75-.2-9.13,2.339-12.412a15.47,15.47,0,0,1,4.436-4,5.787,5.787,0,0,1-1.02-3.282V96.336a5.8,5.8,0,0,1,1.715-4.115Zm4.4,11.621a5.789,5.789,0,0,1-3.537-.987c-3,1.391-5.88,5.231-6.884,8.518a25.612,25.612,0,0,1,8.008.932l-.039-1.56-2.084-1.034a1.047,1.047,0,1,1,.927-1.878l2.589,1.289,4.388,1.4,5.183-1.943-.341-1.518-4.856.476v0a1.035,1.035,0,0,1-.77-.239l-2.232-1.88C41.731,104.952,41.888,104.468,41.981,103.842Zm-12.569,16c-.575.09-1.319.468-1.319,1.029,0,.536,1.085.863,1.578.914Zm23.171-11.681c.557-.158,1.5-.728,1.6-1.217.026-.128-.221-.221-.519-.29a3.624,3.624,0,0,0-1.421,0Zm-19.8,9.385h3.483a1.05,1.05,0,1,1,0,2.1H32.116l-.612.065.269,1.986,9.457-.06c.668,0,1.092-1.352,1.224-1.922a2.832,2.832,0,0,0-.575-2.547l-2.109-2.607a21.28,21.28,0,0,0-2.3-.612,24.025,24.025,0,0,0-6.311-.455,4.458,4.458,0,0,0,1.626,4.052Z" transform="translate(0 0)"/>
    </g>
  </g>
</svg>
