<svg xmlns="http://www.w3.org/2000/svg" xmlns:xlink="http://www.w3.org/1999/xlink" width="113" height="113" viewBox="0 0 113 113">
  <defs>
    <filter id="Trazado_982547" x="0" y="0" width="113" height="113" filterUnits="userSpaceOnUse">
      <feOffset dy="3" input="SourceAlpha"/>
      <feGaussianBlur stdDeviation="3" result="blur"/>
      <feFlood flood-opacity="0.161"/>
      <feComposite operator="in" in2="blur"/>
      <feComposite in="SourceGraphic"/>
    </filter>
  </defs>
  <g id="Grupo_1225295" data-name="Grupo 1225295" transform="translate(-900.509 -4690.76)">
    <g id="Grupo_1225177" data-name="Grupo 1225177" transform="translate(0 -50.236)">
      <g id="Grupo_1224648" data-name="Grupo 1224648" transform="translate(0 1927)">
        <g id="Grupo_1224293" data-name="Grupo 1224293" transform="translate(0 859.245)">
          <g id="Grupo_1224093" data-name="Grupo 1224093" transform="translate(226.51 -2620.317)">
            <g id="Grupo_1223184" data-name="Grupo 1223184" transform="translate(683 4581.069)">
              <g id="Grupo_1211216" data-name="Grupo 1211216" transform="translate(0)">
                <g id="Grupo_1210737" data-name="Grupo 1210737">
                  <g id="Grupo_1210537" data-name="Grupo 1210537">
                    <g id="Grupo_1164202" data-name="Grupo 1164202">
                      <g id="Grupo_1158168" data-name="Grupo 1158168">
                        <g id="Grupo_1152576" data-name="Grupo 1152576">
                          <g id="Grupo_1148633" data-name="Grupo 1148633">
                            <g id="Grupo_1148525" data-name="Grupo 1148525">
                              <g transform="matrix(1, 0, 0, 1, -9, -6)" filter="url(#Trazado_982547)">
                                <g id="Trazado_982547-2" data-name="Trazado 982547" transform="translate(9 6)" fill="#fdfbec">
                                  <path d="M 47.49999618530273 93.5 C 41.28936767578125 93.5 35.26533126831055 92.28396606445312 29.59518241882324 89.88570404052734 C 24.11771583557129 87.56893157958984 19.19812965393066 84.251953125 14.97308921813965 80.02690124511719 C 10.74803638458252 75.80186462402344 7.431062698364258 70.88227844238281 5.114289283752441 65.40480804443359 C 2.716022968292236 59.73466110229492 1.499996185302734 53.71062469482422 1.499996185302734 47.49999618530273 C 1.499996185302734 41.28936767578125 2.716022968292236 35.26533126831055 5.114289283752441 29.59518241882324 C 7.431062698364258 24.11771583557129 10.74803638458252 19.19812965393066 14.97308921813965 14.97308921813965 C 19.19812965393066 10.74803638458252 24.11771583557129 7.431062698364258 29.59518241882324 5.114289283752441 C 35.26533126831055 2.716022968292236 41.28936767578125 1.499996185302734 47.49999618530273 1.499996185302734 C 53.71062469482422 1.499996185302734 59.73466110229492 2.716022968292236 65.40480804443359 5.114289283752441 C 70.88227844238281 7.431062698364258 75.80186462402344 10.74803638458252 80.02690124511719 14.97308921813965 C 84.251953125 19.19812965393066 87.56893157958984 24.11771583557129 89.88570404052734 29.59518241882324 C 92.28396606445312 35.26533126831055 93.5 41.28936767578125 93.5 47.49999618530273 C 93.5 53.71062469482422 92.28396606445312 59.73466110229492 89.88570404052734 65.40480804443359 C 87.56893157958984 70.88227844238281 84.251953125 75.80186462402344 80.02690124511719 80.02690124511719 C 75.80186462402344 84.251953125 70.88227844238281 87.56893157958984 65.40480804443359 89.88570404052734 C 59.73466110229492 92.28396606445312 53.71062469482422 93.5 47.49999618530273 93.5 Z" stroke="none"/>
                                  <path d="M 47.49999618530273 2.999992370605469 C 41.4912109375 2.999992370605469 35.66376495361328 4.1761474609375 30.17950439453125 6.495796203613281 C 24.88084411621094 8.736953735351562 20.12152099609375 11.94598388671875 16.03375244140625 16.03375244140625 C 11.94598388671875 20.12152099609375 8.736953735351562 24.88084411621094 6.495796203613281 30.17950439453125 C 4.1761474609375 35.66376495361328 2.999992370605469 41.4912109375 2.999992370605469 47.49999618530273 C 2.999992370605469 53.50878143310547 4.1761474609375 59.33622741699219 6.495796203613281 64.82048797607422 C 8.736953735351562 70.11914825439453 11.94598388671875 74.87847137451172 16.03375244140625 78.96623992919922 C 20.12152099609375 83.05400848388672 24.88084411621094 86.26304626464844 30.17950439453125 88.50419616699219 C 35.66376495361328 90.82384490966797 41.4912109375 92 47.49999618530273 92 C 53.50878143310547 92 59.33622741699219 90.82384490966797 64.82048797607422 88.50419616699219 C 70.11914825439453 86.26304626464844 74.87847137451172 83.05400848388672 78.96623992919922 78.96623992919922 C 83.05400848388672 74.87847137451172 86.26304626464844 70.11914825439453 88.50419616699219 64.82048797607422 C 90.82384490966797 59.33622741699219 92 53.50878143310547 92 47.49999618530273 C 92 41.4912109375 90.82384490966797 35.66376495361328 88.50419616699219 30.17950439453125 C 86.26304626464844 24.88084411621094 83.05400848388672 20.12152099609375 78.96623992919922 16.03375244140625 C 74.87847137451172 11.94598388671875 70.11914825439453 8.736953735351562 64.82048797607422 6.495796203613281 C 59.33622741699219 4.1761474609375 53.50878143310547 2.999992370605469 47.49999618530273 2.999992370605469 M 47.49999618530273 -7.62939453125e-06 C 73.7335205078125 -7.62939453125e-06 95 21.26647186279297 95 47.49999618530273 C 95 73.7335205078125 73.7335205078125 95 47.49999618530273 95 C 21.26647186279297 95 -7.62939453125e-06 73.7335205078125 -7.62939453125e-06 47.49999618530273 C -7.62939453125e-06 21.26647186279297 21.26647186279297 -7.62939453125e-06 47.49999618530273 -7.62939453125e-06 Z" stroke="none" fill="#83793c"/>
                                </g>
                              </g>
                            </g>
                          </g>
                        </g>
                      </g>
                    </g>
                  </g>
                </g>
              </g>
            </g>
          </g>
        </g>
      </g>
    </g>
    <g id="filledoutline" transform="translate(927.383 4714.154)">
      <path id="Trazado_1057016" data-name="Trazado 1057016" d="M34.641,43.057l-.009-.019a9.43,9.43,0,0,1-4.8,2.586c.009.112.037.225.037.347.009.2.019.384.019.581a11.87,11.87,0,0,1-5.472,10.307,12.38,12.38,0,0,1-7.927,1.808,14.206,14.206,0,0,1-5.641-1.808A15.57,15.57,0,0,1,3.26,46.552a12.3,12.3,0,0,1-.2-1.312,11.911,11.911,0,0,1,12.7-13.38c.122,0,.234.028.347.037a9.43,9.43,0,0,1,2.586-4.8l-.019-.009a7.221,7.221,0,0,1,5.163-2.08,8.879,8.879,0,0,1,6.231,2.661l3.992,3.992c3.308,3.308,3.57,8.4.581,11.394Z" transform="translate(-0.062 -1.45)" fill="#ffc200"/>
      <circle id="Elipse_13586" data-name="Elipse 13586" cx="4.704" cy="4.704" r="4.704" transform="translate(19.318 31.493)" fill="#e6af00"/>
      <path id="Trazado_1057017" data-name="Trazado 1057017" d="M54.863,3,50.206,8.987,26.924,30.938l3.992,3.992L52.867,11.648l5.987-4.657Z" transform="translate(-1.571 -0.064)" fill="#ffc200"/>
      <g id="Grupo_1225294" data-name="Grupo 1225294" transform="translate(3.198 1.999)">
        <path id="Trazado_1057018" data-name="Trazado 1057018" d="M54.714,5.092a.727.727,0,0,0,.071.048l1.149-1.477L54.541,2.275A.937.937,0,1,0,53.216,3.6Z" transform="translate(-6.408 -2)" fill="#e6af00"/>
        <path id="Trazado_1057019" data-name="Trazado 1057019" d="M53.471,6.883,52.412,5.825A.937.937,0,1,0,51.087,7.15l1.225,1.225Z" transform="translate(-6.274 -2.224)" fill="#e6af00"/>
        <path id="Trazado_1057020" data-name="Trazado 1057020" d="M56.927,10.35l-1.491,1.159L56.7,12.773a.937.937,0,0,0,1.326-1.325Z" transform="translate(-6.566 -2.526)" fill="#e6af00"/>
        <path id="Trazado_1057021" data-name="Trazado 1057021" d="M61.553,9.3,60.122,7.865,58.631,9.022l1.593,1.593A.937.937,0,0,0,61.55,9.29Z" transform="translate(-6.767 -2.369)" fill="#e6af00"/>
        <path id="Trazado_1057022" data-name="Trazado 1057022" d="M13.4,44.617l5.321,5.321a1.882,1.882,0,0,0,2.661,0l1.331-1.331L14.73,40.625,13.4,41.956a1.882,1.882,0,0,0,0,2.661Z" transform="translate(-3.883 -4.433)" fill="#e6af00"/>
        <path id="Trazado_1057023" data-name="Trazado 1057023" d="M29.91,48a11.87,11.87,0,0,1-5.472,10.307H10.87A15.57,15.57,0,0,1,3.28,48Z" transform="translate(-3.28 -4.898)" fill="#e6af00"/>
      </g>
      <path id="Trazado_1057024" data-name="Trazado 1057024" d="M18.953,50.4a1.882,1.882,0,0,0,2.661,0l1.331-1.331L21.872,48H16.551Z" transform="translate(-0.918 -2.898)" fill="#cc9b00"/>
      <path id="Trazado_1057025" data-name="Trazado 1057025" d="M3,50H57.346V60.307H3Z" transform="translate(-0.064 -3.024)" fill="#1493cc"/>
      <path id="Trazado_1057026" data-name="Trazado 1057026" d="M30.766,38.121a5.641,5.641,0,1,0-5.641,5.641,5.641,5.641,0,0,0,5.641-5.641Zm-9.408,0a3.767,3.767,0,1,1,3.767,3.767,3.767,3.767,0,0,1-3.767-3.767Z" transform="translate(-1.103 -1.921)"/>
      <path id="Trazado_1057027" data-name="Trazado 1057027" d="M3.934,43.7a11.227,11.227,0,0,1,2.965-9,11.094,11.094,0,0,1,8.751-3.347c.017,0,.11.012.125.012.066.009.13.019.195.023a.937.937,0,0,0,.993-.742,8.527,8.527,0,0,1,2.328-4.323.816.816,0,0,0,.112-.137A6.318,6.318,0,0,1,23.775,24.5a7.98,7.98,0,0,1,5.569,2.387l3.992,3.992c2.887,2.888,3.186,7.3.708,9.932a.961.961,0,0,0-.14.115,8.375,8.375,0,0,1-3.171,2.007l.626,1.765a10.228,10.228,0,0,0,3.727-2.306.93.93,0,0,0,.155-.125c3.191-3.186,3.092-8.527-.1-12.192L51.929,12.278l.785-.611.579.579a.937.937,0,1,0,1.325-1.325l-.413-.413,1.5-1.169.912.912a.937.937,0,1,0,1.325-1.325l-.75-.75.656-.513a.937.937,0,0,0,.087-1.406L53.943,2.267A.921.921,0,0,0,53.232,2a.937.937,0,0,0-.681.36l-.513.656-.75-.75a.937.937,0,1,0-1.325,1.325l.913.913L49.708,6l-.413-.414a.938.938,0,1,0-1.326,1.326l.58.579-.607.781-17.8,16.794a9.8,9.8,0,0,0-6.364-2.445,8.159,8.159,0,0,0-5.825,2.355.925.925,0,0,0-.12.15,10.345,10.345,0,0,0-2.5,4.326,12.939,12.939,0,0,0-9.784,3.935A13.076,13.076,0,0,0,2.069,43.884ZM53.378,4.349,55.869,6.84l-4.5,3.5L49.88,8.845ZM48.614,10.23,49.989,11.6,33.837,28.727l-2.343-2.343Z" transform="translate(0)"/>
      <path id="Trazado_1057028" data-name="Trazado 1057028" d="M14.008,39.9,12.681,41.23a2.8,2.8,0,0,0,0,3.981l2.4,2.4L16.4,46.286l-2.4-2.4a.924.924,0,0,1,0-1.322l.668-.668L19.977,47.2,21.3,45.873,15.333,39.9a.937.937,0,0,0-1.325,0Z" transform="translate(-0.622 -2.371)"/>
      <path id="Trazado_1057029" data-name="Trazado 1057029" d="M58.22,60.244V49.937A.937.937,0,0,0,57.283,49H2.937A.937.937,0,0,0,2,49.937V60.244a.937.937,0,0,0,.937.937H57.283A.937.937,0,0,0,58.22,60.244Zm-1.874-.937H3.874V50.874H8.559v4.685h1.874V50.874h1.874v4.685h1.874V50.874h4.685v4.685H20.74V50.874h1.874v4.685h1.874V50.874h1.874v4.685h1.874V50.874h4.685v4.685H34.8V50.874h1.874v4.685h1.874V50.874h4.685v4.685H45.1V50.874h1.874v4.685H48.85V50.874h1.874v4.685H52.6V50.874h3.748Z" transform="translate(-0.001 -2.961)"/>
      <path id="Trazado_1057030" data-name="Trazado 1057030" d="M56.5,43.181V33.887l3.162,2.53,1.171-1.464-4.685-3.748a.937.937,0,0,0-1.523.732V40.75a4.755,4.755,0,0,0-1.874-.379C50.646,40.37,49,41.6,49,43.181s1.646,2.811,3.748,2.811S56.5,44.757,56.5,43.181Zm-5.622,0c0-.382.73-.937,1.874-.937s1.874.555,1.874.937-.73.937-1.874.937S50.874,43.563,50.874,43.181Z" transform="translate(-2.962 -1.827)"/>
      <path id="Trazado_1057031" data-name="Trazado 1057031" d="M5.748,16.992c2.1,0,3.748-1.235,3.748-2.811V7.622h9.37v4.123a4.755,4.755,0,0,0-1.874-.375c-2.1,0-3.748,1.235-3.748,2.811s1.646,2.811,3.748,2.811,3.748-1.235,3.748-2.811V2.937A.937.937,0,0,0,19.8,2H8.559a.937.937,0,0,0-.937.937v8.808a4.755,4.755,0,0,0-1.874-.375C3.646,11.37,2,12.605,2,14.181S3.646,16.992,5.748,16.992Zm11.244-1.874c-1.144,0-1.874-.555-1.874-.937s.73-.937,1.874-.937,1.874.555,1.874.937S18.136,15.118,16.992,15.118ZM9.5,3.874h9.37V5.748H9.5Zm-3.748,9.37c1.144,0,1.874.555,1.874.937s-.73.937-1.874.937-1.874-.555-1.874-.937S4.6,13.244,5.748,13.244Z" transform="translate(-0.001 -0.001)"/>
    </g>
  </g>
</svg>
