<svg xmlns="http://www.w3.org/2000/svg" xmlns:xlink="http://www.w3.org/1999/xlink" width="113" height="113" viewBox="0 0 113 113">
  <defs>
    <filter id="Trazado_982547" x="0" y="0" width="113" height="113" filterUnits="userSpaceOnUse">
      <feOffset dy="3" input="SourceAlpha"/>
      <feGaussianBlur stdDeviation="3" result="blur"/>
      <feFlood flood-opacity="0.161"/>
      <feComposite operator="in" in2="blur"/>
      <feComposite in="SourceGraphic"/>
    </filter>
  </defs>
  <g id="Grupo_1225296" data-name="Grupo 1225296" transform="translate(-1216.232 -4690.76)">
    <g id="Grupo_1225179" data-name="Grupo 1225179" transform="translate(0 -50.236)">
      <g id="Grupo_1224650" data-name="Grupo 1224650" transform="translate(0 1927)">
        <g id="Grupo_1224294" data-name="Grupo 1224294" transform="translate(0.723 859.245)">
          <g id="Grupo_1224094" data-name="Grupo 1224094" transform="translate(541.51 -2620.317)">
            <g id="Grupo_1223184" data-name="Grupo 1223184" transform="translate(683 4581.069)">
              <g id="Grupo_1211216" data-name="Grupo 1211216" transform="translate(0)">
                <g id="Grupo_1210737" data-name="Grupo 1210737">
                  <g id="Grupo_1210537" data-name="Grupo 1210537">
                    <g id="Grupo_1164202" data-name="Grupo 1164202">
                      <g id="Grupo_1158168" data-name="Grupo 1158168">
                        <g id="Grupo_1152576" data-name="Grupo 1152576">
                          <g id="Grupo_1148633" data-name="Grupo 1148633">
                            <g id="Grupo_1148525" data-name="Grupo 1148525">
                              <g transform="matrix(1, 0, 0, 1, -9, -6)" filter="url(#Trazado_982547)">
                                <g id="Trazado_982547-2" data-name="Trazado 982547" transform="translate(9 6)" fill="#fdfbec">
                                  <path d="M 47.49999618530273 93.5 C 41.28936767578125 93.5 35.26533126831055 92.28396606445312 29.59518241882324 89.88570404052734 C 24.11771583557129 87.56893157958984 19.19812965393066 84.251953125 14.97308921813965 80.02690124511719 C 10.74803638458252 75.80186462402344 7.431062698364258 70.88227844238281 5.114289283752441 65.40480804443359 C 2.716022968292236 59.73466110229492 1.499996185302734 53.71062469482422 1.499996185302734 47.49999618530273 C 1.499996185302734 41.28936767578125 2.716022968292236 35.26533126831055 5.114289283752441 29.59518241882324 C 7.431062698364258 24.11771583557129 10.74803638458252 19.19812965393066 14.97308921813965 14.97308921813965 C 19.19812965393066 10.74803638458252 24.11771583557129 7.431062698364258 29.59518241882324 5.114289283752441 C 35.26533126831055 2.716022968292236 41.28936767578125 1.499996185302734 47.49999618530273 1.499996185302734 C 53.71062469482422 1.499996185302734 59.73466110229492 2.716022968292236 65.40480804443359 5.114289283752441 C 70.88227844238281 7.431062698364258 75.80186462402344 10.74803638458252 80.02690124511719 14.97308921813965 C 84.251953125 19.19812965393066 87.56893157958984 24.11771583557129 89.88570404052734 29.59518241882324 C 92.28396606445312 35.26533126831055 93.5 41.28936767578125 93.5 47.49999618530273 C 93.5 53.71062469482422 92.28396606445312 59.73466110229492 89.88570404052734 65.40480804443359 C 87.56893157958984 70.88227844238281 84.251953125 75.80186462402344 80.02690124511719 80.02690124511719 C 75.80186462402344 84.251953125 70.88227844238281 87.56893157958984 65.40480804443359 89.88570404052734 C 59.73466110229492 92.28396606445312 53.71062469482422 93.5 47.49999618530273 93.5 Z" stroke="none"/>
                                  <path d="M 47.49999618530273 2.999992370605469 C 41.4912109375 2.999992370605469 35.66376495361328 4.1761474609375 30.17950439453125 6.495796203613281 C 24.88084411621094 8.736953735351562 20.12152099609375 11.94598388671875 16.03375244140625 16.03375244140625 C 11.94598388671875 20.12152099609375 8.736953735351562 24.88084411621094 6.495796203613281 30.17950439453125 C 4.1761474609375 35.66376495361328 2.999992370605469 41.4912109375 2.999992370605469 47.49999618530273 C 2.999992370605469 53.50878143310547 4.1761474609375 59.33622741699219 6.495796203613281 64.82048797607422 C 8.736953735351562 70.11914825439453 11.94598388671875 74.87847137451172 16.03375244140625 78.96623992919922 C 20.12152099609375 83.05400848388672 24.88084411621094 86.26304626464844 30.17950439453125 88.50419616699219 C 35.66376495361328 90.82384490966797 41.4912109375 92 47.49999618530273 92 C 53.50878143310547 92 59.33622741699219 90.82384490966797 64.82048797607422 88.50419616699219 C 70.11914825439453 86.26304626464844 74.87847137451172 83.05400848388672 78.96623992919922 78.96623992919922 C 83.05400848388672 74.87847137451172 86.26304626464844 70.11914825439453 88.50419616699219 64.82048797607422 C 90.82384490966797 59.33622741699219 92 53.50878143310547 92 47.49999618530273 C 92 41.4912109375 90.82384490966797 35.66376495361328 88.50419616699219 30.17950439453125 C 86.26304626464844 24.88084411621094 83.05400848388672 20.12152099609375 78.96623992919922 16.03375244140625 C 74.87847137451172 11.94598388671875 70.11914825439453 8.736953735351562 64.82048797607422 6.495796203613281 C 59.33622741699219 4.1761474609375 53.50878143310547 2.999992370605469 47.49999618530273 2.999992370605469 M 47.49999618530273 -7.62939453125e-06 C 73.7335205078125 -7.62939453125e-06 95 21.26647186279297 95 47.49999618530273 C 95 73.7335205078125 73.7335205078125 95 47.49999618530273 95 C 21.26647186279297 95 -7.62939453125e-06 73.7335205078125 -7.62939453125e-06 47.49999618530273 C -7.62939453125e-06 21.26647186279297 21.26647186279297 -7.62939453125e-06 47.49999618530273 -7.62939453125e-06 Z" stroke="none" fill="#83793c"/>
                                </g>
                              </g>
                            </g>
                          </g>
                        </g>
                      </g>
                    </g>
                  </g>
                </g>
              </g>
            </g>
          </g>
        </g>
      </g>
    </g>
    <g id="awe_708668" transform="translate(1203.051 4710.068)">
      <circle id="Elipse_13587" data-name="Elipse 13587" cx="3.005" cy="3.005" r="3.005" transform="translate(51.01 1.002)" fill="#60312c"/>
      <path id="Trazado_1057032" data-name="Trazado 1057032" d="M117.077,68.329s-4.575,0-4.575,0v9.906a6.009,6.009,0,0,0,4.575-9.906Z" transform="translate(-58.487 -59.202)" fill="#a45e43"/>
      <path id="Trazado_1057033" data-name="Trazado 1057033" d="M75.367,69.96l-6.43-1.626a6.009,6.009,0,0,0,4.575,9.906c1.106,0,2-2.691,2-6.01A16.792,16.792,0,0,0,75.367,69.96Z" transform="translate(-19.497 -59.207)" fill="#c27749"/>
      <path id="Trazado_1057034" data-name="Trazado 1057034" d="M112.5,52.5l1.855,3.741a6.469,6.469,0,0,0,2.72-1.626A5.993,5.993,0,0,0,112.5,52.5Z" transform="translate(-58.487 -45.487)" fill="#40211d"/>
      <path id="Trazado_1057035" data-name="Trazado 1057035" d="M82.822,52.5a5.993,5.993,0,0,0-4.575,2.115,6.466,6.466,0,0,0,6.43,1.626C84.379,54.046,83.661,52.5,82.822,52.5Z" transform="translate(-28.807 -45.487)" fill="#60312c"/>
      <path id="Trazado_1057036" data-name="Trazado 1057036" d="M111.509,172.5H107.5v16.027h6.678V175.17A2.671,2.671,0,0,0,111.509,172.5Z" transform="translate(-54.155 -149.46)" fill="#2dade3"/>
      <path id="Trazado_1057037" data-name="Trazado 1057037" d="M72.844,172.5H70.173A2.671,2.671,0,0,0,67.5,175.17v13.356h8.014V175.17A2.671,2.671,0,0,0,72.844,172.5Z" transform="translate(-19.497 -149.46)" fill="#49c9ff"/>
      <path id="Trazado_1057038" data-name="Trazado 1057038" d="M131.509,262.5H127.5l2,12.021h4.007V267.8A7.981,7.981,0,0,0,131.509,262.5Z" transform="translate(-71.483 -227.439)" fill="#ff4128"/>
      <path id="Trazado_1057039" data-name="Trazado 1057039" d="M62.519,262.5H54.505a7.981,7.981,0,0,0-2,5.3v6.723H64.523V267.8A7.981,7.981,0,0,0,62.519,262.5Z" transform="translate(-6.501 -227.439)" fill="#ff6337"/>
      <path id="Trazado_1057040" data-name="Trazado 1057040" d="M339.5,22.5V54.554a16.027,16.027,0,1,0,0-32.055Z" transform="translate(-255.168 -19.494)" fill="#fff0d3"/>
      <path id="Trazado_1057041" data-name="Trazado 1057041" d="M214.625,38.526c0-8.838-5.392-16.027-12.021-16.027a16.051,16.051,0,0,0-15.881,13.865L181.5,38.526l5.222,2.163A16.051,16.051,0,0,0,202.6,54.554C209.233,54.554,214.625,47.364,214.625,38.526Z" transform="translate(-118.271 -19.494)" fill="#fff"/>
      <path id="Trazado_1057042" data-name="Trazado 1057042" d="M339.5,52.5V76.54a12.021,12.021,0,0,0,0-24.041Z" transform="translate(-255.168 -45.487)" fill="#ffa754"/>
      <path id="Trazado_1057043" data-name="Trazado 1057043" d="M269.536,64.52c0-6.639-3.588-12.021-8.014-12.021a12.021,12.021,0,1,0,0,24.041C265.948,76.54,269.536,71.158,269.536,64.52Z" transform="translate(-177.189 -45.487)" fill="#ffcb63"/>
      <circle id="Elipse_13588" data-name="Elipse 13588" cx="3.005" cy="3.005" r="3.005" transform="translate(81.328 18.031)" fill="#353535"/>
      <circle id="Elipse_13589" data-name="Elipse 13589" cx="1.002" cy="1.002" r="1.002" transform="translate(53.013 14.024)"/>
      <path id="Trazado_1057044" data-name="Trazado 1057044" d="M64.032,23.173a1,1,0,0,0-1,1v3.339a3.01,3.01,0,0,1-2,2.833V25.711a3.677,3.677,0,0,0-3.673-3.673H55.017V19.961A7.006,7.006,0,0,0,59.388,8.523a1,1,0,0,0-.089-.1A7.066,7.066,0,0,0,57,6.678a4.007,4.007,0,1,0-5.966,0,7.05,7.05,0,0,0-2.3,1.737.989.989,0,0,0-.093.107,7.006,7.006,0,0,0,4.371,11.439v2.076H50.676A3.677,3.677,0,0,0,47,25.711v8.983a9,9,0,0,0-2,5.664V47.08a1,1,0,0,0,1,1h3.005V65.324l-3.322,1.107a1,1,0,1,0,.633,1.9L50.325,67a1,1,0,0,0,.685-.95V48.082h6.01V66.046a1,1,0,0,0,.685.95l4.007,1.336a1,1,0,1,0,.633-1.9l-3.322-1.107V48.082h3.005a1,1,0,0,0,1-1V40.358a9,9,0,0,0-2-5.664V32.421a5.017,5.017,0,0,0,4.007-4.908V24.175A1,1,0,0,0,64.032,23.173ZM57.09,9.073a5.482,5.482,0,0,1-6.15,0,4.993,4.993,0,0,1,6.15,0ZM52.012,4.007a2,2,0,1,1,2,2A2.006,2.006,0,0,1,52.012,4.007Zm-3.005,9.015a4.977,4.977,0,0,1,.625-2.42,7.485,7.485,0,0,0,8.767,0,5.008,5.008,0,1,1-9.392,2.42Zm1.67,11.019h2.337v5.476a1,1,0,0,1-1,1,1,1,0,0,0,0,2,3.009,3.009,0,0,0,3.005-3.005V24.041h2.337a1.671,1.671,0,0,1,1.67,1.67v8.348H49.007V25.711A1.671,1.671,0,0,1,50.676,24.041ZM61.027,46.079H47V40.358a7,7,0,0,1,1.474-4.3H59.553a7,7,0,0,1,1.474,4.3Z"/>
      <path id="Trazado_1057045" data-name="Trazado 1057045" d="M196.107,15a16.847,16.847,0,0,0-10.437,3.583,1,1,0,1,0,1.23,1.581A14.863,14.863,0,0,1,196.107,17a15.026,15.026,0,1,1-14.888,17.054,1,1,0,0,0-.609-.791l-2.988-1.238,2.988-1.238a1,1,0,0,0,.609-.791,14.988,14.988,0,0,1,3.024-7.178,1,1,0,0,0-1.582-1.23,17.005,17.005,0,0,0-3.34,7.564l-4.7,1.947a1,1,0,0,0,0,1.851l4.7,1.947A17.029,17.029,0,1,0,196.107,15Z" transform="translate(-111.774 -12.996)"/>
      <path id="Trazado_1057046" data-name="Trazado 1057046" d="M255.024,71.044A13.022,13.022,0,1,0,242,58.021,13.037,13.037,0,0,0,255.024,71.044Zm0-24.041a11.019,11.019,0,1,1-11.019,11.019A11.031,11.031,0,0,1,255.024,47Z" transform="translate(-170.691 -38.989)"/>
      <path id="Trazado_1057047" data-name="Trazado 1057047" d="M292,113.338a1,1,0,0,0,1-1V111a1,1,0,1,0-2,0v1.336A1,1,0,0,0,292,113.338Z" transform="translate(-213.146 -95.307)"/>
      <path id="Trazado_1057048" data-name="Trazado 1057048" d="M374,113.338a1,1,0,0,0,1-1V111a1,1,0,1,0-2,0v1.336A1,1,0,0,0,374,113.338Z" transform="translate(-284.194 -95.307)"/>
      <path id="Trazado_1057049" data-name="Trazado 1057049" d="M313.509,135.513a4.007,4.007,0,1,0-4.007-4.007A4.011,4.011,0,0,0,313.509,135.513Zm0-6.01a2,2,0,1,1-2,2A2.006,2.006,0,0,1,313.509,129.5Z" transform="translate(-229.175 -110.47)"/>
    </g>
  </g>
</svg>
