<svg xmlns="http://www.w3.org/2000/svg" xmlns:xlink="http://www.w3.org/1999/xlink" width="113" height="113" viewBox="0 0 113 113">
  <defs>
    <filter id="Trazado_982547" x="0" y="0" width="113" height="113" filterUnits="userSpaceOnUse">
      <feOffset dy="3" input="SourceAlpha"/>
      <feGaussianBlur stdDeviation="3" result="blur"/>
      <feFlood flood-opacity="0.161"/>
      <feComposite operator="in" in2="blur"/>
      <feComposite in="SourceGraphic"/>
    </filter>
    <clipPath id="clip-path">
      <path id="path165" d="M0-682.665H64.905v64.905H0Z" transform="translate(0 682.665)"/>
    </clipPath>
  </defs>
  <g id="Grupo_1225297" data-name="Grupo 1225297" transform="translate(-794.232 -5261.957)">
    <g id="Grupo_1225181" data-name="Grupo 1225181" transform="translate(0.742 3528)">
      <g id="Grupo_1209304" data-name="Grupo 1209304" transform="translate(0 503.742)">
        <g id="Grupo_1208492" data-name="Grupo 1208492" transform="translate(0 -4397.209)">
          <g id="Grupo_1177675" data-name="Grupo 1177675" transform="translate(-4493 3707.152)">
            <g id="Grupo_1176928" data-name="Grupo 1176928" transform="translate(5295.49 1926.273)">
              <g id="Grupo_1172322" data-name="Grupo 1172322" transform="translate(0 0)">
                <g id="Grupo_1164700" data-name="Grupo 1164700">
                  <g id="Grupo_1160931" data-name="Grupo 1160931">
                    <g id="Grupo_1160749" data-name="Grupo 1160749">
                      <g id="Grupo_1158891" data-name="Grupo 1158891">
                        <g id="Grupo_1157406" data-name="Grupo 1157406">
                          <g id="Grupo_1155793" data-name="Grupo 1155793">
                            <g id="Grupo_1154704" data-name="Grupo 1154704">
                              <g id="Grupo_1150790" data-name="Grupo 1150790">
                                <g id="Grupo_1154214" data-name="Grupo 1154214">
                                  <g id="Grupo_1152583" data-name="Grupo 1152583">
                                    <g id="Grupo_1146973" data-name="Grupo 1146973">
                                      <g id="Grupo_1146954" data-name="Grupo 1146954">
                                        <g transform="matrix(1, 0, 0, 1, -9, -6)" filter="url(#Trazado_982547)">
                                          <g id="Trazado_982547-2" data-name="Trazado 982547" transform="translate(9 6)" fill="#fcf8db">
                                            <path d="M 47.5000114440918 93.49987030029297 C 41.28938293457031 93.49987030029297 35.26534652709961 92.28384399414062 29.5951976776123 89.88558959960938 C 24.11773109436035 87.56881713867188 19.19814491271973 84.25183868408203 14.97310447692871 80.02680206298828 C 10.74805164337158 75.80176544189453 7.43107795715332 70.88218688964844 5.114304542541504 65.40472412109375 C 2.716038227081299 59.73458862304688 1.500011444091797 53.71054840087891 1.500011444091797 47.49993515014648 C 1.500011444091797 41.28932189941406 2.716038227081299 35.26528167724609 5.114304542541504 29.59514808654785 C 7.43107795715332 24.1176815032959 10.74805164337158 19.1981086730957 14.97310447692871 14.97306823730469 C 19.19814491271973 10.74802875518799 24.11773109436035 7.431055068969727 29.5951976776123 5.11428165435791 C 35.26534652709961 2.716028451919556 41.28938293457031 1.500001788139343 47.5000114440918 1.500001788139343 C 53.71063995361328 1.500001788139343 59.73467636108398 2.716028451919556 65.40482330322266 5.11428165435791 C 70.88229370117188 7.431055068969727 75.8018798828125 10.74802875518799 80.02691650390625 14.97306823730469 C 84.25196838378906 19.1981086730957 87.56894683837891 24.1176815032959 89.88571929931641 29.59514808654785 C 92.28398132324219 35.26528167724609 93.50001525878906 41.28932189941406 93.50001525878906 47.49993515014648 C 93.50001525878906 53.71054840087891 92.28398132324219 59.73458862304688 89.88571929931641 65.40472412109375 C 87.56894683837891 70.88218688964844 84.25196838378906 75.80176544189453 80.02691650390625 80.02680206298828 C 75.8018798828125 84.25183868408203 70.88229370117188 87.56881713867188 65.40482330322266 89.88558959960938 C 59.73467636108398 92.28384399414062 53.71063995361328 93.49987030029297 47.5000114440918 93.49987030029297 Z" stroke="none"/>
                                            <path d="M 47.5000114440918 3 C 41.49122619628906 3 35.66378021240234 4.1761474609375 30.17951965332031 6.495796203613281 C 24.880859375 8.7369384765625 20.12153625488281 11.94596862792969 16.03376770019531 16.03373718261719 C 11.94598388671875 20.12149047851562 8.736968994140625 24.88081359863281 6.495811462402344 30.17947387695312 C 4.176162719726562 35.66371917724609 3.000007629394531 41.49116516113281 3.000007629394531 47.49993515014648 C 3.000007629394531 53.50870513916016 4.176162719726562 59.33615112304688 6.495811462402344 64.82039642333984 C 8.736968994140625 70.11905670166016 11.94598388671875 74.87837982177734 16.03376770019531 78.96613311767578 C 20.12153625488281 83.05390167236328 24.880859375 86.26293182373047 30.17951965332031 88.50407409667969 C 35.66378021240234 90.82372283935547 41.49122619628906 91.99987030029297 47.5000114440918 91.99987030029297 C 53.50879669189453 91.99987030029297 59.33624267578125 90.82372283935547 64.82050323486328 88.50407409667969 C 70.11916351318359 86.26293182373047 74.87848663330078 83.05390167236328 78.96625518798828 78.96613311767578 C 83.05403900146484 74.87837982177734 86.2630615234375 70.11905670166016 88.50421142578125 64.82039642333984 C 90.82386016845703 59.33615112304688 92.00001525878906 53.50870513916016 92.00001525878906 47.49993515014648 C 92.00001525878906 41.49116516113281 90.82386016845703 35.66371917724609 88.50421142578125 30.17947387695312 C 86.2630615234375 24.88081359863281 83.05403900146484 20.12149047851562 78.96625518798828 16.03373718261719 C 74.87848663330078 11.94596862792969 70.11916351318359 8.7369384765625 64.82050323486328 6.495796203613281 C 59.33624267578125 4.1761474609375 53.50879669189453 3 47.5000114440918 3 M 47.5000114440918 0 C 73.73353576660156 0 95.00001525878906 21.26644134521484 95.00001525878906 47.49993515014648 C 95.00001525878906 73.73342895507812 73.73353576660156 94.99987030029297 47.5000114440918 94.99987030029297 C 21.26648712158203 94.99987030029297 7.62939453125e-06 73.73342895507812 7.62939453125e-06 47.49993515014648 C 7.62939453125e-06 21.26644134521484 21.26648712158203 0 47.5000114440918 0 Z" stroke="none" fill="#83793c"/>
                                          </g>
                                        </g>
                                      </g>
                                    </g>
                                  </g>
                                </g>
                              </g>
                            </g>
                          </g>
                        </g>
                      </g>
                    </g>
                  </g>
                </g>
              </g>
            </g>
          </g>
        </g>
      </g>
    </g>
    <g id="g159" transform="translate(817.28 5965.67)">
      <g id="g161" transform="translate(0 -682.665)">
        <g id="g163" clip-path="url(#clip-path)">
          <g id="g169" transform="translate(17.957 51.272)">
            <path id="path171" d="M-330.671-120.71c0-8.18-3.45-12.683-3.45-12.683h-27.843s-3.45,4.5-3.45,12.683Z" transform="translate(365.414 133.393)" fill="#ff8d9d"/>
          </g>
          <g id="g173" transform="translate(11.264 0.951)">
            <path id="path175" d="M0-229.039A24.091,24.091,0,0,1,24.064-253.1a24.091,24.091,0,0,1,24.064,24.064Z" transform="translate(0 253.103)" fill="#696eb1"/>
          </g>
          <g id="g177" transform="translate(49.394 20.592)">
            <path id="path179" d="M-108.311-54.155a5.69,5.69,0,0,1-5.69,5.69,5.69,5.69,0,0,1-5.69-5.69,5.69,5.69,0,0,1,5.69-5.69,5.69,5.69,0,0,1,5.69,5.69" transform="translate(119.69 59.845)" fill="#c7856a"/>
          </g>
          <g id="g181" transform="translate(4.132 1.003)">
            <path id="path183" d="M-281.985,0a23.9,23.9,0,0,0-10.875,3.424,6.893,6.893,0,0,0-5.2-3.031,6.89,6.89,0,0,0-7.107,4.9,6.91,6.91,0,0,1-3.738,4.412,8.114,8.114,0,0,1-1.138.411,2.151,2.151,0,0,0-.932,3.591c1.8,1.786,4.42,3.424,7.7,2.781a23.97,23.97,0,0,0-1.2,7.52h10.135a23.451,23.451,0,0,1-.238-3.327A23.27,23.27,0,0,1-281.985,0" transform="translate(311.613)" fill="#4c5698"/>
          </g>
          <g id="g185" transform="translate(15.698 11.229)">
            <path id="path187" d="M-369.322-91.019a4.208,4.208,0,0,0-4.7-3.232,35.849,35.849,0,0,1-4.894.334A33.043,33.043,0,0,1-398.1-99.789a4.229,4.229,0,0,0-5.779.807,19.543,19.543,0,0,0-4.24,12.263A19.685,19.685,0,0,0-388.64-67.167,19.629,19.629,0,0,0-368.866-86.8a19.689,19.689,0,0,0-.456-4.223" transform="translate(408.125 100.582)" fill="#da9d81"/>
          </g>
          <g id="g189" transform="translate(9.882 11.229)">
            <path id="path191" d="M-107.351-99.542a23.172,23.172,0,0,1,2.47-10.442,4.221,4.221,0,0,0-3.692,1.584,19.551,19.551,0,0,0-3.747,7.8,5.765,5.765,0,0,0-.62-.034,5.69,5.69,0,0,0-5.69,5.69,5.69,5.69,0,0,0,5.69,5.69,5.7,5.7,0,0,0,1.346-.162A19.7,19.7,0,0,0-93.329-76.586a19.75,19.75,0,0,0,3.769-.335,23.28,23.28,0,0,1-17.791-22.621" transform="translate(118.63 110)" fill="#c7856a"/>
          </g>
          <g id="g193" transform="translate(20.746 25.768)">
            <path id="path195" d="M-74.814-29.789c0,1.729-1.76,3.13-3.93,3.13s-3.93-1.4-3.93-3.13,1.76-3.13,3.93-3.13,3.93,1.4,3.93,3.13" transform="translate(82.674 32.919)" fill="#eeedff"/>
          </g>
          <g id="g197" transform="translate(42.049 25.768)">
            <path id="path199" d="M0-29.789c0,1.729,1.76,3.13,3.93,3.13s3.93-1.4,3.93-3.13-1.76-3.13-3.93-3.13S0-31.517,0-29.789" transform="translate(0 32.919)" fill="#eeedff"/>
          </g>
          <g id="g201" transform="translate(22.867 30.84)">
            <path id="path203" d="M-221.489-54.166h-6.77v-1.65a4.041,4.041,0,0,0-4.041-4.041,4.041,4.041,0,0,0-4.041,4.041v1.65h-6.77a1.65,1.65,0,0,0-1.65,1.65v20.354a1.65,1.65,0,0,0,1.65,1.65h6.77v-1.65A4.041,4.041,0,0,1-232.3-36.2a4.041,4.041,0,0,1,4.041,4.041v1.65h6.77a1.65,1.65,0,0,0,1.65-1.65V-52.516a1.65,1.65,0,0,0-1.65-1.65" transform="translate(244.759 59.857)" fill="#fce29f"/>
          </g>
          <g id="g205" transform="translate(17.957 51.272)">
            <path id="path207" d="M-73.4-68.875a17.3,17.3,0,0,1,1.576-7.236h-5.839s-3.45,4.5-3.45,12.682h8.584a17.345,17.345,0,0,1-.872-5.446" transform="translate(81.11 76.112)" fill="#e95b70"/>
          </g>
          <g id="g209" transform="translate(22.867 36.531)">
            <path id="path211" d="M-47.493-33.82a21.342,21.342,0,0,1,.3-3.553h-3.638a1.65,1.65,0,0,0-1.65,1.65V-15.37a1.65,1.65,0,0,0,1.65,1.65h6.77v-1.65a4.035,4.035,0,0,1,1.737-3.319A24.426,24.426,0,0,1-47.493-33.82" transform="translate(52.483 37.373)" fill="#ffcd71"/>
          </g>
          <g id="g213" transform="translate(15.37 46.383)">
            <path id="path215" d="M-122.125-26.046h0a4.041,4.041,0,0,0-5.129-2.519l-4.965,1.695a4.041,4.041,0,0,0-2.519,5.129,4.041,4.041,0,0,0,5.129,2.519l4.965-1.695a4.041,4.041,0,0,0,2.519-5.129" transform="translate(134.956 28.782)" fill="#da9d81"/>
          </g>
          <g id="g217" transform="translate(42.237 46.383)">
            <path id="path219" d="M-2.073-26.046h0a4.041,4.041,0,0,1,5.129-2.519L8.022-26.87a4.041,4.041,0,0,1,2.519,5.129,4.041,4.041,0,0,1-5.129,2.519L.446-20.916a4.041,4.041,0,0,1-2.519-5.129" transform="translate(2.29 28.782)" fill="#da9d81"/>
          </g>
          <g id="g221" transform="translate(15.37 48.823)">
            <path id="path223" d="M-122.122-2.817c-.035-.1-.074-.2-.115-.3a8.182,8.182,0,0,1-6.78,3.595,8.16,8.16,0,0,1-5.5-2.121,4.028,4.028,0,0,0-.219,3.128,4.041,4.041,0,0,0,5.129,2.519l4.965-1.695A4.041,4.041,0,0,0-122.122-2.817Z" transform="translate(134.953 3.113)" fill="#c7856a"/>
          </g>
          <g id="g225" transform="translate(42.237 46.562)">
            <path id="path227" d="M-104.5-67.97a8.191,8.191,0,0,1-8.122-7.141,4.034,4.034,0,0,0-2.64,2.557h0a4.041,4.041,0,0,0,2.519,5.129l4.965,1.695a4.04,4.04,0,0,0,5.1-2.447,8.215,8.215,0,0,1-1.825.207" transform="translate(115.478 75.112)" fill="#c7856a"/>
          </g>
          <g id="g229" transform="translate(26.967 24.278)">
            <path id="path231" d="M0,0V1.607" fill="none" stroke="#000" stroke-linecap="round" stroke-linejoin="round" stroke-miterlimit="10" stroke-width="1.2"/>
          </g>
          <g id="g233" transform="translate(43.689 24.278)">
            <path id="path235" d="M0,0V1.607" fill="none" stroke="#000" stroke-linecap="round" stroke-linejoin="round" stroke-miterlimit="10" stroke-width="1.2"/>
          </g>
          <g id="g237" transform="translate(33.123 25.837)">
            <path id="path239" d="M0,0A2.916,2.916,0,0,0,2.2,1a2.916,2.916,0,0,0,2.2-1" fill="none" stroke="#000" stroke-linecap="round" stroke-linejoin="round" stroke-miterlimit="10" stroke-width="1.2"/>
          </g>
          <g id="g241" transform="translate(4.132 1.379)">
            <path id="path243" d="M-178.473-29.012a6.893,6.893,0,0,0-5.2-3.03,6.89,6.89,0,0,0-7.107,4.9,6.91,6.91,0,0,1-3.738,4.412,8.113,8.113,0,0,1-1.138.411,2.151,2.151,0,0,0-.931,3.591c1.8,1.786,4.42,3.424,7.7,2.781A24.184,24.184,0,0,1-178.473-29.012Z" transform="translate(197.224 32.06)" fill="none" stroke="#000" stroke-linecap="round" stroke-linejoin="round" stroke-miterlimit="10" stroke-width="1.2"/>
          </g>
          <g id="g245" transform="translate(11.405 0.951)">
            <path id="path247" d="M-346.4-33.246a23.915,23.915,0,0,0-12.472-3.493A24.1,24.1,0,0,0-382.794-15.28a5.673,5.673,0,0,1,4.166-1.817,5.732,5.732,0,0,1,.621.034,19.551,19.551,0,0,1,3.747-7.8,4.229,4.229,0,0,1,5.779-.807,29.787,29.787,0,0,0,4.956,2.855" transform="translate(382.794 36.739)" fill="none" stroke="#000" stroke-linecap="round" stroke-linejoin="round" stroke-miterlimit="10" stroke-width="1.2"/>
          </g>
          <g id="g249" transform="translate(34.571 6.702)">
            <path id="path251" d="M0-91.917a35.058,35.058,0,0,0,10.334,1.534,35.855,35.855,0,0,0,4.894-.334,4.211,4.211,0,0,1,4.663,3.067,5.744,5.744,0,0,1,.623-.035,5.673,5.673,0,0,1,4.167,1.817,24.045,24.045,0,0,0-8.33-15.707" transform="translate(0 101.574)" fill="none" stroke="#000" stroke-linecap="round" stroke-linejoin="round" stroke-miterlimit="10" stroke-width="1.2"/>
          </g>
          <g id="g253" transform="translate(9.882 20.592)">
            <path id="path255" d="M-55.363-42.837A19.686,19.686,0,0,1-54.87-47.3a5.731,5.731,0,0,0-.62-.034,5.69,5.69,0,0,0-5.69,5.69,5.69,5.69,0,0,0,5.69,5.69,5.7,5.7,0,0,0,1.346-.162A19.453,19.453,0,0,1-55.363-42.837Z" transform="translate(61.18 47.337)" fill="none" stroke="#000" stroke-linecap="round" stroke-linejoin="round" stroke-miterlimit="10" stroke-width="1.2"/>
          </g>
          <g id="g257" transform="translate(53.748 20.592)">
            <path id="path259" d="M-12.716,0a5.775,5.775,0,0,0-.623.034c.014.055.028.109.041.165a19.7,19.7,0,0,1,.455,4.223,19.587,19.587,0,0,1-1.209,6.8,5.7,5.7,0,0,0,1.336.159,5.69,5.69,0,0,0,5.69-5.69A5.69,5.69,0,0,0-12.716,0Z" transform="translate(14.052)" fill="none" stroke="#000" stroke-linecap="round" stroke-linejoin="round" stroke-miterlimit="10" stroke-width="1.2"/>
          </g>
          <g id="g261" transform="translate(15.698 11.229)">
            <path id="path263" d="M-142.537-34.725a29.791,29.791,0,0,1-4.956-2.855,4.229,4.229,0,0,0-5.779.808,19.544,19.544,0,0,0-4.24,12.263,19.613,19.613,0,0,0,7.169,15.062v-1.974a1.65,1.65,0,0,1,1.65-1.65h6.77v-1.65a4.041,4.041,0,0,1,4.041-4.041h0a4.041,4.041,0,0,1,4.041,4.041v1.65h6.77a1.65,1.65,0,0,1,1.65,1.65v2a19.59,19.59,0,0,0,7.169-15.167,19.7,19.7,0,0,0-.456-4.223,4.208,4.208,0,0,0-4.7-3.232,35.868,35.868,0,0,1-4.894.334,35.054,35.054,0,0,1-10.334-1.534" transform="translate(157.513 38.374)" fill="none" stroke="#000" stroke-linecap="round" stroke-linejoin="round" stroke-miterlimit="10" stroke-width="1.2"/>
          </g>
          <g id="g265" transform="translate(17.957 54.494)">
            <path id="path267" d="M-304.4-13.8l-2.15-.734v3.325a1.65,1.65,0,0,1-1.65,1.65h-6.77v-1.65a4.041,4.041,0,0,0-4.041-4.041,4.041,4.041,0,0,0-4.041,4.041v1.65h-6.77a1.65,1.65,0,0,1-1.65-1.65v-3.325l-2.15.734a4.026,4.026,0,0,1-1.606.206,25.934,25.934,0,0,0-1.154,7.805h34.742a25.933,25.933,0,0,0-1.154-7.805A4.026,4.026,0,0,1-304.4-13.8Z" transform="translate(336.382 15.248)" fill="none" stroke="#000" stroke-linecap="round" stroke-linejoin="round" stroke-miterlimit="10" stroke-width="1.2"/>
          </g>
          <g id="g269" transform="translate(15.37 46.383)">
            <path id="path271" d="M-122.125-26.046h0a4.041,4.041,0,0,0-5.129-2.519l-4.965,1.695a4.041,4.041,0,0,0-2.519,5.129,4.041,4.041,0,0,0,5.129,2.519l4.965-1.695A4.041,4.041,0,0,0-122.125-26.046Z" transform="translate(134.956 28.782)" fill="none" stroke="#000" stroke-linecap="round" stroke-linejoin="round" stroke-miterlimit="10" stroke-width="1.2"/>
          </g>
          <g id="g273" transform="translate(22.867 30.84)">
            <path id="path275" d="M-210.4-222.8a4.041,4.041,0,0,1-2.519-5.129,4.041,4.041,0,0,1,5.129-2.519l.2.07v-8.489a1.65,1.65,0,0,0-1.65-1.65h-6.77v-1.65a4.041,4.041,0,0,0-4.041-4.041h0a4.041,4.041,0,0,0-4.041,4.041v1.65h-6.77a1.65,1.65,0,0,0-1.65,1.65v8.489l.2-.07a4.041,4.041,0,0,1,5.129,2.519A4.041,4.041,0,0,1-229.7-222.8l-2.815.961v3.325a1.65,1.65,0,0,0,1.65,1.65h6.77v-1.65a4.041,4.041,0,0,1,4.041-4.041,4.041,4.041,0,0,1,4.041,4.041v1.65h6.77a1.65,1.65,0,0,0,1.65-1.65v-3.325Z" transform="translate(232.51 246.211)" fill="none" stroke="#000" stroke-linecap="round" stroke-linejoin="round" stroke-miterlimit="10" stroke-width="1.2"/>
          </g>
          <g id="g277" transform="translate(42.237 46.383)">
            <path id="path279" d="M-2.073-26.046h0a4.041,4.041,0,0,1,5.129-2.519L8.022-26.87a4.041,4.041,0,0,1,2.519,5.129,4.041,4.041,0,0,1-5.129,2.519L.446-20.916A4.041,4.041,0,0,1-2.073-26.046Z" transform="translate(2.29 28.782)" fill="none" stroke="#000" stroke-linecap="round" stroke-linejoin="round" stroke-miterlimit="10" stroke-width="1.2"/>
          </g>
        </g>
      </g>
    </g>
  </g>
</svg>
