<svg xmlns="http://www.w3.org/2000/svg" xmlns:xlink="http://www.w3.org/1999/xlink" width="113" height="113" viewBox="0 0 113 113">
  <defs>
    <filter id="Trazado_982547" x="0" y="0" width="113" height="113" filterUnits="userSpaceOnUse">
      <feOffset dy="3" input="SourceAlpha"/>
      <feGaussianBlur stdDeviation="3" result="blur"/>
      <feFlood flood-opacity="0.161"/>
      <feComposite operator="in" in2="blur"/>
      <feComposite in="SourceGraphic"/>
    </filter>
  </defs>
  <g id="Grupo_1225299" data-name="Grupo 1225299" transform="translate(-1112.742 -5261.957)">
    <g id="Grupo_1225182" data-name="Grupo 1225182" transform="translate(319.252 3528)">
      <g id="Grupo_1209304" data-name="Grupo 1209304" transform="translate(0 503.742)">
        <g id="Grupo_1208492" data-name="Grupo 1208492" transform="translate(0 -4397.209)">
          <g id="Grupo_1177675" data-name="Grupo 1177675" transform="translate(-4493 3707.152)">
            <g id="Grupo_1176928" data-name="Grupo 1176928" transform="translate(5295.49 1926.273)">
              <g id="Grupo_1172322" data-name="Grupo 1172322" transform="translate(0 0)">
                <g id="Grupo_1164700" data-name="Grupo 1164700">
                  <g id="Grupo_1160931" data-name="Grupo 1160931">
                    <g id="Grupo_1160749" data-name="Grupo 1160749">
                      <g id="Grupo_1158891" data-name="Grupo 1158891">
                        <g id="Grupo_1157406" data-name="Grupo 1157406">
                          <g id="Grupo_1155793" data-name="Grupo 1155793">
                            <g id="Grupo_1154704" data-name="Grupo 1154704">
                              <g id="Grupo_1150790" data-name="Grupo 1150790">
                                <g id="Grupo_1154214" data-name="Grupo 1154214">
                                  <g id="Grupo_1152583" data-name="Grupo 1152583">
                                    <g id="Grupo_1146973" data-name="Grupo 1146973">
                                      <g id="Grupo_1146954" data-name="Grupo 1146954">
                                        <g transform="matrix(1, 0, 0, 1, -9, -6)" filter="url(#Trazado_982547)">
                                          <g id="Trazado_982547-2" data-name="Trazado 982547" transform="translate(9 6)" fill="#fcf8db">
                                            <path d="M 47.5000114440918 93.49987030029297 C 41.28938293457031 93.49987030029297 35.26534652709961 92.28384399414062 29.5951976776123 89.88558959960938 C 24.11773109436035 87.56881713867188 19.19814491271973 84.25183868408203 14.97310447692871 80.02680206298828 C 10.74805164337158 75.80176544189453 7.43107795715332 70.88218688964844 5.114304542541504 65.40472412109375 C 2.716038227081299 59.73458862304688 1.500011444091797 53.71054840087891 1.500011444091797 47.49993515014648 C 1.500011444091797 41.28932189941406 2.716038227081299 35.26528167724609 5.114304542541504 29.59514808654785 C 7.43107795715332 24.1176815032959 10.74805164337158 19.1981086730957 14.97310447692871 14.97306823730469 C 19.19814491271973 10.74802875518799 24.11773109436035 7.431055068969727 29.5951976776123 5.11428165435791 C 35.26534652709961 2.716028451919556 41.28938293457031 1.500001788139343 47.5000114440918 1.500001788139343 C 53.71063995361328 1.500001788139343 59.73467636108398 2.716028451919556 65.40482330322266 5.11428165435791 C 70.88229370117188 7.431055068969727 75.8018798828125 10.74802875518799 80.02691650390625 14.97306823730469 C 84.25196838378906 19.1981086730957 87.56894683837891 24.1176815032959 89.88571929931641 29.59514808654785 C 92.28398132324219 35.26528167724609 93.50001525878906 41.28932189941406 93.50001525878906 47.49993515014648 C 93.50001525878906 53.71054840087891 92.28398132324219 59.73458862304688 89.88571929931641 65.40472412109375 C 87.56894683837891 70.88218688964844 84.25196838378906 75.80176544189453 80.02691650390625 80.02680206298828 C 75.8018798828125 84.25183868408203 70.88229370117188 87.56881713867188 65.40482330322266 89.88558959960938 C 59.73467636108398 92.28384399414062 53.71063995361328 93.49987030029297 47.5000114440918 93.49987030029297 Z" stroke="none"/>
                                            <path d="M 47.5000114440918 3 C 41.49122619628906 3 35.66378021240234 4.1761474609375 30.17951965332031 6.495796203613281 C 24.880859375 8.7369384765625 20.12153625488281 11.94596862792969 16.03376770019531 16.03373718261719 C 11.94598388671875 20.12149047851562 8.736968994140625 24.88081359863281 6.495811462402344 30.17947387695312 C 4.176162719726562 35.66371917724609 3.000007629394531 41.49116516113281 3.000007629394531 47.49993515014648 C 3.000007629394531 53.50870513916016 4.176162719726562 59.33615112304688 6.495811462402344 64.82039642333984 C 8.736968994140625 70.11905670166016 11.94598388671875 74.87837982177734 16.03376770019531 78.96613311767578 C 20.12153625488281 83.05390167236328 24.880859375 86.26293182373047 30.17951965332031 88.50407409667969 C 35.66378021240234 90.82372283935547 41.49122619628906 91.99987030029297 47.5000114440918 91.99987030029297 C 53.50879669189453 91.99987030029297 59.33624267578125 90.82372283935547 64.82050323486328 88.50407409667969 C 70.11916351318359 86.26293182373047 74.87848663330078 83.05390167236328 78.96625518798828 78.96613311767578 C 83.05403900146484 74.87837982177734 86.2630615234375 70.11905670166016 88.50421142578125 64.82039642333984 C 90.82386016845703 59.33615112304688 92.00001525878906 53.50870513916016 92.00001525878906 47.49993515014648 C 92.00001525878906 41.49116516113281 90.82386016845703 35.66371917724609 88.50421142578125 30.17947387695312 C 86.2630615234375 24.88081359863281 83.05403900146484 20.12149047851562 78.96625518798828 16.03373718261719 C 74.87848663330078 11.94596862792969 70.11916351318359 8.7369384765625 64.82050323486328 6.495796203613281 C 59.33624267578125 4.1761474609375 53.50879669189453 3 47.5000114440918 3 M 47.5000114440918 0 C 73.73353576660156 0 95.00001525878906 21.26644134521484 95.00001525878906 47.49993515014648 C 95.00001525878906 73.73342895507812 73.73353576660156 94.99987030029297 47.5000114440918 94.99987030029297 C 21.26648712158203 94.99987030029297 7.62939453125e-06 73.73342895507812 7.62939453125e-06 47.49993515014648 C 7.62939453125e-06 21.26644134521484 21.26648712158203 0 47.5000114440918 0 Z" stroke="none" fill="#83793c"/>
                                          </g>
                                        </g>
                                      </g>
                                    </g>
                                  </g>
                                </g>
                              </g>
                            </g>
                          </g>
                        </g>
                      </g>
                    </g>
                  </g>
                </g>
              </g>
            </g>
          </g>
        </g>
      </g>
    </g>
    <g id="speaking_10754006_1_" data-name="speaking_10754006 (1)" transform="translate(1090.854 5282.694)">
      <path id="Trazado_1057050" data-name="Trazado 1057050" d="M120.447,38.967a4.774,4.774,0,0,1-4.764-4.783V12.368A4.368,4.368,0,0,1,120.051,8h29.46a4.368,4.368,0,0,1,4.368,4.368V34.183a4.774,4.774,0,0,1-4.764,4.783Z" transform="translate(-55.266 -6.908)" fill="#ff6d7a"/>
      <path id="Trazado_1057051" data-name="Trazado 1057051" d="M153.563,10.73H125.512a4.368,4.368,0,0,0-4.368,4.368V28.158a5.956,5.956,0,0,0-.8,3c0,5.917-.04,6.477.119,7.809a4.773,4.773,0,0,1-4.778-4.783V12.368A4.368,4.368,0,0,1,120.051,8h29.46a4.371,4.371,0,0,1,4.052,2.73Z" transform="translate(-55.266 -6.908)" fill="#ff8c95"/>
      <path id="Trazado_1057052" data-name="Trazado 1057052" d="M172.653,133.639c-2.713.025-6.023,1.687-8.394,1.687s-5.682-1.663-8.4-1.687a6.01,6.01,0,0,0-6.05,6.007v5.734c0,7.12,4,11.591,9.021,13.414-.044-.016-.088-.029-.131-.046a7.9,7.9,0,0,1-3.45,6.5c-1.117,13.1,19.117,13.1,18,0a7.9,7.9,0,0,1-3.45-6.494l-.039.014c4.985-1.84,8.943-6.3,8.943-13.387v-5.734A6.012,6.012,0,0,0,172.653,133.639Z" transform="translate(-84.736 -115.395)" fill="#ffebd2"/>
      <path id="Trazado_1057053" data-name="Trazado 1057053" d="M224.319,319.781a18.4,18.4,0,0,1-11.746,0,7.919,7.919,0,0,0,.322-2.207,16.046,16.046,0,0,0,11.1,0A7.911,7.911,0,0,0,224.319,319.781Z" transform="translate(-138.929 -274.217)" fill="#ffd9ad"/>
      <path id="Trazado_1057054" data-name="Trazado 1057054" d="M171.285,158.1c-8.559,4.314-21.472.071-21.472-12.725V139.64a6.01,6.01,0,0,1,6.286-6,5.965,5.965,0,0,0-2.191,4.635v5.734C153.908,154.881,163.231,159.578,171.285,158.1Z" transform="translate(-84.736 -115.39)" fill="#fff3e4"/>
      <path id="Trazado_1057055" data-name="Trazado 1057055" d="M232.788,240.967c0,5.675-8.579,5.675-8.579,0A1.967,1.967,0,0,1,226.176,239h4.645A1.967,1.967,0,0,1,232.788,240.967Z" transform="translate(-148.976 -206.373)" fill="#ff6d7a"/>
      <path id="Trazado_1057056" data-name="Trazado 1057056" d="M135.822,375.739v4.015H90.843v-4.015a7.905,7.905,0,0,1,5.332-7.466l6.278-2.16a7.924,7.924,0,0,0,1.88-.942,9.988,9.988,0,0,0,18,0,7.875,7.875,0,0,0,1.88.943l6.278,2.16a7.9,7.9,0,0,1,5.332,7.466Z" transform="translate(-33.817 -315.319)" fill="#befa91"/>
      <path id="Trazado_1057057" data-name="Trazado 1057057" d="M106.354,368.024l-4.718,1.623a7.905,7.905,0,0,0-5.332,7.466v2.65H90.843v-4.015a7.905,7.905,0,0,1,5.332-7.466l6.278-2.16a7.924,7.924,0,0,0,1.88-.942,10.05,10.05,0,0,0,2.02,2.844Z" transform="translate(-33.817 -315.328)" fill="#daffbf"/>
      <path id="Trazado_1057058" data-name="Trazado 1057058" d="M77.78,53.434a7.556,7.556,0,0,0,3.461-6.447c0-11.348-21.56-11.348-21.56,0,0,7.142,8.54,9.789,14.87,7.942A4.884,4.884,0,0,0,78.7,57.386,12.74,12.74,0,0,1,77.78,53.434Z" transform="translate(-6.909 -33.223)" fill="#cbe3fa"/>
      <path id="Trazado_1057059" data-name="Trazado 1057059" d="M63.777,49.17a7.441,7.441,0,0,0,2.565,5.749c-3.715-1.092-6.661-3.738-6.661-7.933,0-8.906,13.28-10.823,18.995-5.749-6.333-1.865-14.9.78-14.9,7.933Z" transform="translate(-6.909 -33.222)" fill="#eef7ff"/>
      <g id="Grupo_1225298" data-name="Grupo 1225298" transform="translate(51.68 0)">
        <path id="Trazado_1057060" data-name="Trazado 1057060" d="M97.028,51.921l-6.277-2.16a6.816,6.816,0,0,1-4.55-5.685c5.551-2.4,8.864-7.447,8.86-14.093V24.251a7.1,7.1,0,0,0-7.152-7.1,18.423,18.423,0,0,0-4.732.927c-3.51,1.005-3.8,1.005-7.308,0-.44-.126-.888-.254-1.338-.373a8.743,8.743,0,0,0,.894-3.943c0-6.833-6.931-10.252-13.687-9.5a3.281,3.281,0,0,1,3.048-2.077H94.246a3.28,3.28,0,0,1,3.276,3.276V27.276A3.66,3.66,0,0,1,96.7,29.6a1.092,1.092,0,1,0,1.7,1.372,5.9,5.9,0,0,0,1.3-3.7V5.461A5.467,5.467,0,0,0,94.246,0H64.785a5.468,5.468,0,0,0-5.408,4.711c-4.442,1.221-7.7,4.364-7.7,9.053,0,4.6,3.141,7.775,7.645,9.03v4.482a5.878,5.878,0,0,0,4.912,5.8,14.215,14.215,0,0,0,8.595,11,6.815,6.815,0,0,1-4.551,5.689L62,51.921a9,9,0,0,0-6.069,8.5v4.015a1.092,1.092,0,0,0,2.184,0V60.42a6.812,6.812,0,0,1,4.6-6.434c6.756-2.325,6.642-2.255,7.383-2.627a11.12,11.12,0,0,0,16.535,2.684,1.092,1.092,0,0,0-1.4-1.674,8.928,8.928,0,0,1-13.311-2.222,9.009,9.009,0,0,0,3.016-5.335,17.3,17.3,0,0,0,9.165,0,9,9,0,0,0,5.941,7.011l6.277,2.16a6.812,6.812,0,0,1,4.6,6.433v4.015a1.092,1.092,0,0,0,2.184,0V60.419A9,9,0,0,0,97.028,51.921ZM53.864,13.764c0-9.894,19.376-9.894,19.376,0a6.518,6.518,0,0,1-2.985,5.546,1.092,1.092,0,0,0-.473.977,13.826,13.826,0,0,0,.373,2.367,3.8,3.8,0,0,1-1.565-1.491,1.092,1.092,0,0,0-1.254-.506c-5.78,1.687-13.472-.653-13.472-6.893Zm12.3,16.22V26.277a1.092,1.092,0,1,0-2.184,0c0,4.057-.006,3.915.017,4.493a3.7,3.7,0,0,1-2.492-3.494V23.233a16.12,16.12,0,0,0,5.663-.276,6.006,6.006,0,0,0,4.605,2.3,1.093,1.093,0,0,0,1.029-1.506,11.645,11.645,0,0,1-.789-3.023,9.54,9.54,0,0,0,1.189-1.1c.677.156,1.377.356,2.06.552,3.926,1.124,4.585,1.124,8.511,0a16.873,16.873,0,0,1,4.192-.843,4.914,4.914,0,0,1,4.906,4.915v5.733c.011,17.7-26.718,17.7-26.707,0Z" transform="translate(-51.68 0)"/>
        <path id="Trazado_1057061" data-name="Trazado 1057061" d="M224.767,188.757v-1.9a1.092,1.092,0,0,0-2.184,0v1.9A1.092,1.092,0,0,0,224.767,188.757Z" transform="translate(-199.252 -160.411)"/>
        <path id="Trazado_1057062" data-name="Trazado 1057062" d="M274.767,188.758v-1.9a1.092,1.092,0,0,0-2.184,0v1.9A1.092,1.092,0,0,0,274.767,188.758Z" transform="translate(-242.427 -160.411)"/>
        <path id="Trazado_1057063" data-name="Trazado 1057063" d="M223.913,231h-4.645a3.063,3.063,0,0,0-3.059,3.059c0,7.143,10.763,7.1,10.763,0A3.062,3.062,0,0,0,223.913,231Zm-5.52,3.059a.876.876,0,0,1,.875-.875h4.645a.876.876,0,0,1,.875.875C224.788,238.292,218.393,238.292,218.393,234.059Z" transform="translate(-193.748 -199.465)"/>
        <path id="Trazado_1057064" data-name="Trazado 1057064" d="M98.966,75.005h6.447a1.092,1.092,0,1,0,0-2.184H98.966a1.092,1.092,0,0,0,0,2.184Z" transform="translate(-91.568 -62.88)"/>
        <path id="Trazado_1057065" data-name="Trazado 1057065" d="M107.914,115.005a1.092,1.092,0,0,0,0-2.184H98.966a1.092,1.092,0,0,0,0,2.184Z" transform="translate(-91.568 -97.419)"/>
      </g>
    </g>
  </g>
</svg>
