<svg xmlns="http://www.w3.org/2000/svg" xmlns:xlink="http://www.w3.org/1999/xlink" width="113" height="113" viewBox="0 0 113 113">
  <defs>
    <filter id="Trazado_982547" x="0" y="0" width="113" height="113" filterUnits="userSpaceOnUse">
      <feOffset dy="3" input="SourceAlpha"/>
      <feGaussianBlur stdDeviation="3" result="blur"/>
      <feFlood flood-opacity="0.161"/>
      <feComposite operator="in" in2="blur"/>
      <feComposite in="SourceGraphic"/>
    </filter>
  </defs>
  <g id="Grupo_1225412" data-name="Grupo 1225412" transform="translate(-3335.742 -9764.716)">
    <g id="Grupo_1225202" data-name="Grupo 1225202" transform="translate(3344.742 9770.716)">
      <g id="Grupo_1209304" data-name="Grupo 1209304" transform="translate(0 0)">
        <g id="Grupo_1208492" data-name="Grupo 1208492">
          <g id="Grupo_1177675" data-name="Grupo 1177675">
            <g id="Grupo_1176928" data-name="Grupo 1176928">
              <g id="Grupo_1172322" data-name="Grupo 1172322">
                <g id="Grupo_1164700" data-name="Grupo 1164700">
                  <g id="Grupo_1160931" data-name="Grupo 1160931">
                    <g id="Grupo_1160749" data-name="Grupo 1160749">
                      <g id="Grupo_1158891" data-name="Grupo 1158891">
                        <g id="Grupo_1157406" data-name="Grupo 1157406">
                          <g id="Grupo_1155793" data-name="Grupo 1155793">
                            <g id="Grupo_1154704" data-name="Grupo 1154704">
                              <g id="Grupo_1150790" data-name="Grupo 1150790">
                                <g id="Grupo_1154214" data-name="Grupo 1154214">
                                  <g id="Grupo_1152583" data-name="Grupo 1152583">
                                    <g id="Grupo_1146973" data-name="Grupo 1146973">
                                      <g id="Grupo_1146954" data-name="Grupo 1146954">
                                        <g transform="matrix(1, 0, 0, 1, -9, -6)" filter="url(#Trazado_982547)">
                                          <g id="Trazado_982547-2" data-name="Trazado 982547" transform="translate(9 6)" fill="#fcf8db">
                                            <path d="M 47.5000114440918 93.49987030029297 C 41.28938293457031 93.49987030029297 35.26534652709961 92.28384399414062 29.5951976776123 89.88558959960938 C 24.11773109436035 87.56881713867188 19.19814491271973 84.25183868408203 14.97310447692871 80.02680206298828 C 10.74805164337158 75.80176544189453 7.43107795715332 70.88218688964844 5.114304542541504 65.40472412109375 C 2.716038227081299 59.73458862304688 1.500011444091797 53.71054840087891 1.500011444091797 47.49993515014648 C 1.500011444091797 41.28932189941406 2.716038227081299 35.26528167724609 5.114304542541504 29.59514808654785 C 7.43107795715332 24.1176815032959 10.74805164337158 19.1981086730957 14.97310447692871 14.97306823730469 C 19.19814491271973 10.74802875518799 24.11773109436035 7.431055068969727 29.5951976776123 5.11428165435791 C 35.26534652709961 2.716028451919556 41.28938293457031 1.500001788139343 47.5000114440918 1.500001788139343 C 53.71063995361328 1.500001788139343 59.73467636108398 2.716028451919556 65.40482330322266 5.11428165435791 C 70.88229370117188 7.431055068969727 75.8018798828125 10.74802875518799 80.02691650390625 14.97306823730469 C 84.25196838378906 19.1981086730957 87.56894683837891 24.1176815032959 89.88571929931641 29.59514808654785 C 92.28398132324219 35.26528167724609 93.50001525878906 41.28932189941406 93.50001525878906 47.49993515014648 C 93.50001525878906 53.71054840087891 92.28398132324219 59.73458862304688 89.88571929931641 65.40472412109375 C 87.56894683837891 70.88218688964844 84.25196838378906 75.80176544189453 80.02691650390625 80.02680206298828 C 75.8018798828125 84.25183868408203 70.88229370117188 87.56881713867188 65.40482330322266 89.88558959960938 C 59.73467636108398 92.28384399414062 53.71063995361328 93.49987030029297 47.5000114440918 93.49987030029297 Z" stroke="none"/>
                                            <path d="M 47.5000114440918 3 C 41.49122619628906 3 35.66378021240234 4.1761474609375 30.17951965332031 6.495796203613281 C 24.880859375 8.7369384765625 20.12153625488281 11.94596862792969 16.03376770019531 16.03373718261719 C 11.94598388671875 20.12149047851562 8.736968994140625 24.88081359863281 6.495811462402344 30.17947387695312 C 4.176162719726562 35.66371917724609 3.000007629394531 41.49116516113281 3.000007629394531 47.49993515014648 C 3.000007629394531 53.50870513916016 4.176162719726562 59.33615112304688 6.495811462402344 64.82039642333984 C 8.736968994140625 70.11905670166016 11.94598388671875 74.87837982177734 16.03376770019531 78.96613311767578 C 20.12153625488281 83.05390167236328 24.880859375 86.26293182373047 30.17951965332031 88.50407409667969 C 35.66378021240234 90.82372283935547 41.49122619628906 91.99987030029297 47.5000114440918 91.99987030029297 C 53.50879669189453 91.99987030029297 59.33624267578125 90.82372283935547 64.82050323486328 88.50407409667969 C 70.11916351318359 86.26293182373047 74.87848663330078 83.05390167236328 78.96625518798828 78.96613311767578 C 83.05403900146484 74.87837982177734 86.2630615234375 70.11905670166016 88.50421142578125 64.82039642333984 C 90.82386016845703 59.33615112304688 92.00001525878906 53.50870513916016 92.00001525878906 47.49993515014648 C 92.00001525878906 41.49116516113281 90.82386016845703 35.66371917724609 88.50421142578125 30.17947387695312 C 86.2630615234375 24.88081359863281 83.05403900146484 20.12149047851562 78.96625518798828 16.03373718261719 C 74.87848663330078 11.94596862792969 70.11916351318359 8.7369384765625 64.82050323486328 6.495796203613281 C 59.33624267578125 4.1761474609375 53.50879669189453 3 47.5000114440918 3 M 47.5000114440918 0 C 73.73353576660156 0 95.00001525878906 21.26644134521484 95.00001525878906 47.49993515014648 C 95.00001525878906 73.73342895507812 73.73353576660156 94.99987030029297 47.5000114440918 94.99987030029297 C 21.26648712158203 94.99987030029297 7.62939453125e-06 73.73342895507812 7.62939453125e-06 47.49993515014648 C 7.62939453125e-06 21.26644134521484 21.26648712158203 0 47.5000114440918 0 Z" stroke="none" fill="#83793c"/>
                                          </g>
                                        </g>
                                      </g>
                                    </g>
                                  </g>
                                </g>
                              </g>
                            </g>
                          </g>
                        </g>
                      </g>
                    </g>
                  </g>
                </g>
              </g>
            </g>
          </g>
        </g>
      </g>
    </g>
    <g id="audience_11251420" transform="translate(3351.544 9777.027)">
      <ellipse id="Elipse_13614" data-name="Elipse 13614" cx="19.475" cy="13.601" rx="19.475" ry="13.601" transform="translate(21.722 44.89)" fill="#6b5b85"/>
      <path id="Trazado_1057294" data-name="Trazado 1057294" d="M217.955,404.354a15.752,15.752,0,0,0-10.283-10.363c-5.755,0-11.481,5.441-12.994,10.363-.706,2.3,3.745,4.622,6.149,4.622h13.688A3.585,3.585,0,0,0,217.955,404.354Z" transform="translate(-161.73 -334.101)" fill="#f2f6fc"/>
      <path id="Trazado_1057295" data-name="Trazado 1057295" d="M153.632,399.686a15.752,15.752,0,0,1,10.283-10.363,15.726,15.726,0,0,0-19.771,10.363,3.585,3.585,0,0,0,3.439,4.622h9.489A3.585,3.585,0,0,1,153.632,399.686Z" transform="translate(-117.973 -329.432)" fill="#dce1eb"/>
      <circle id="Elipse_13615" data-name="Elipse 13615" cx="5.422" cy="5.422" r="5.422" transform="translate(35.775 58.628)" fill="#ffcdbe"/>
      <path id="Trazado_1057296" data-name="Trazado 1057296" d="M215.314,175.588a5.394,5.394,0,0,0-4.54.683,1.247,1.247,0,0,1-1.393,0,5.393,5.393,0,0,0-4.54-.683c-5.892,9.264,2.59,20.591,10.517,22.837h11.155a17.544,17.544,0,0,0-11.2-22.837Z" transform="translate(-168.88 -145.103)" fill="#806e9c"/>
      <path id="Trazado_1057297" data-name="Trazado 1057297" d="M126.7,193.794A17.492,17.492,0,0,0,127.8,199.9h21.715v-7.854C139.208,189.032,139,177.063,139,177.063A17.534,17.534,0,0,0,126.7,193.794Z" transform="translate(-103.035 -146.578)" fill="#6b5b85"/>
      <circle id="Elipse_13616" data-name="Elipse 13616" cx="3.745" cy="3.745" r="3.745" transform="translate(22.821 48.359)" fill="#ffcdbe"/>
      <circle id="Elipse_13617" data-name="Elipse 13617" cx="3.745" cy="3.745" r="3.745" transform="translate(52.083 48.359)" fill="#ffdecf"/>
      <path id="Trazado_1057298" data-name="Trazado 1057298" d="M204.673,273.043a1.822,1.822,0,0,0-1.872-1.579,9.28,9.28,0,0,1-5.3-2.083.948.948,0,0,0-1.47.484,2.168,2.168,0,0,1-.542.938c-1.627,1.627-5.718.172-9.139-3.249q-.233-.233-.453-.469h0s-5.379,1.6-5.379,9.925,9.694,11.6,13.622,11.6h0a14.068,14.068,0,0,0,10.532-15.566Z" transform="translate(-149.555 -224.396)" fill="#ffeee5"/>
      <path id="Trazado_1057299" data-name="Trazado 1057299" d="M159.128,262.884a13.986,13.986,0,0,1,2.42-7.885,17.61,17.61,0,0,1-1.17-1.391,1.273,1.273,0,0,0-2.03,0,17.886,17.886,0,0,1-1.623,1.86,17.68,17.68,0,0,1-2.179,1.858,4.935,4.935,0,0,0-1.991,3.163,14.061,14.061,0,0,0,17.237,16.034A14.057,14.057,0,0,1,159.128,262.884Z" transform="translate(-125.204 -212.312)" fill="#ffdecf"/>
      <path id="Trazado_1057300" data-name="Trazado 1057300" d="M59.259,106.469A8.917,8.917,0,0,0,54.354,98.5c-2.913,0-7.617,4.483-7.617,7.965s4.256,7.964,7.615,7.964A8.916,8.916,0,0,0,59.259,106.469Z" transform="translate(-33.908 -78.668)" fill="#fff04a"/>
      <path id="Trazado_1057301" data-name="Trazado 1057301" d="M15.541,100.38a8.917,8.917,0,0,1,4.906-7.965,8.92,8.92,0,1,0,0,15.929A8.918,8.918,0,0,1,15.541,100.38Z" transform="translate(-0.001 -72.579)" fill="#ffda45"/>
      <g id="Grupo_1225365" data-name="Grupo 1225365" transform="translate(62.36 19.836)">
        <path id="Trazado_1057302" data-name="Trazado 1057302" d="M419.751,98.5c-3.2,0-7.617,4.483-7.617,7.965s4.6,7.965,7.617,7.965a8.919,8.919,0,0,0,0-15.929Z" transform="translate(-412.134 -98.504)" fill="#87c7ff"/>
      </g>
      <path id="Trazado_1057303" data-name="Trazado 1057303" d="M380.939,100.38a8.917,8.917,0,0,1,4.906-7.965,8.92,8.92,0,1,0,0,15.929A8.917,8.917,0,0,1,380.939,100.38Z" transform="translate(-315.868 -72.579)" fill="#65b1fc"/>
      <g id="Grupo_1225366" data-name="Grupo 1225366" transform="translate(35.859 8.505)">
        <path id="Trazado_1057304" data-name="Trazado 1057304" d="M226.877,14.916c-4.9,0-10.242,6.3-10.242,11.431s5.76,11.431,10.242,11.431a12.44,12.44,0,0,0,0-22.861Z" transform="translate(-216.635 -14.916)" fill="#c3dc4b"/>
      </g>
      <path id="Trazado_1057305" data-name="Trazado 1057305" d="M174.08,19.936a12.439,12.439,0,0,1,7.531-11.431,12.436,12.436,0,1,0,0,22.861A12.439,12.439,0,0,1,174.08,19.936Z" transform="translate(-135.51)" fill="#b4d241"/>
      <g id="Grupo_1225373" data-name="Grupo 1225373" transform="translate(7.512 7.5)">
        <circle id="Elipse_13618" data-name="Elipse 13618" cx="8.92" cy="8.92" r="8.92" transform="translate(0 11.381)" fill="none" stroke="#000" stroke-linecap="round" stroke-linejoin="round" stroke-miterlimit="10" stroke-width="1"/>
        <path id="Trazado_1057306" data-name="Trazado 1057306" d="M374.429,95.361a8.907,8.907,0,1,1-1.522,4.5" transform="translate(-323.364 -80.063)" fill="none" stroke="#000" stroke-linecap="round" stroke-linejoin="round" stroke-miterlimit="10" stroke-width="1"/>
        <circle id="Elipse_13619" data-name="Elipse 13619" cx="12.436" cy="12.436" r="12.436" transform="translate(21.249 0)" fill="none" stroke="#000" stroke-linecap="round" stroke-linejoin="round" stroke-miterlimit="10" stroke-width="1"/>
        <path id="Trazado_1057307" data-name="Trazado 1057307" d="M117.545,362.272c-3.228-2.427-5.2-5.679-5.2-9.253a10.035,10.035,0,0,1,1.251-4.806" transform="translate(-98.133 -302.028)" fill="none" stroke="#000" stroke-linecap="round" stroke-linejoin="round" stroke-miterlimit="10" stroke-width="1"/>
        <path id="Trazado_1057308" data-name="Trazado 1057308" d="M365.251,348.208a10.035,10.035,0,0,1,1.251,4.806c0,3.574-1.974,6.826-5.2,9.254" transform="translate(-313.342 -302.024)" fill="none" stroke="#000" stroke-linecap="round" stroke-linejoin="round" stroke-miterlimit="10" stroke-width="1"/>
        <path id="Trazado_1057309" data-name="Trazado 1057309" d="M313.729,198.349a17.551,17.551,0,0,0-11.077-18.489" transform="translate(-262.645 -156.496)" fill="none" stroke="#000" stroke-linecap="round" stroke-linejoin="round" stroke-miterlimit="10" stroke-width="1"/>
        <path id="Trazado_1057310" data-name="Trazado 1057310" d="M129.214,233.766a17.445,17.445,0,0,0-2.511,9.045,17.691,17.691,0,0,0,.131,2.153" transform="translate(-110.546 -203.095)" fill="none" stroke="#000" stroke-linecap="round" stroke-linejoin="round" stroke-miterlimit="10" stroke-width="1"/>
        <path id="Trazado_1057311" data-name="Trazado 1057311" d="M172.651,179.894a17.537,17.537,0,0,0-5.744,3.646" transform="translate(-145.3 -156.525)" fill="none" stroke="#000" stroke-linecap="round" stroke-linejoin="round" stroke-miterlimit="10" stroke-width="1"/>
        <path id="Trazado_1057312" data-name="Trazado 1057312" d="M125.654,316.12a3.745,3.745,0,1,1-1.458-7.2,3.776,3.776,0,0,1,.573.044" transform="translate(-105.143 -268.066)" fill="none" stroke="#000" stroke-linecap="round" stroke-linejoin="round" stroke-miterlimit="10" stroke-width="1"/>
        <path id="Trazado_1057313" data-name="Trazado 1057313" d="M354.178,308.987a3.745,3.745,0,1,1-.738,7.147" transform="translate(-306.548 -268.065)" fill="none" stroke="#000" stroke-linecap="round" stroke-linejoin="round" stroke-miterlimit="10" stroke-width="1"/>
        <g id="Grupo_1225368" data-name="Grupo 1225368" transform="translate(19.633 33.293)">
          <g id="Grupo_1225367" data-name="Grupo 1225367">
            <path id="Trazado_1057314" data-name="Trazado 1057314" d="M173.151,257.295a.948.948,0,0,0-1.47.484,2.169,2.169,0,0,1-.542.938c-1.627,1.627-5.718.172-9.139-3.249a17.905,17.905,0,0,1-1.623-1.86,1.273,1.273,0,0,0-2.03,0,17.884,17.884,0,0,1-1.623,1.86,17.68,17.68,0,0,1-2.179,1.858,4.935,4.935,0,0,0-1.991,3.163,14.052,14.052,0,1,0,27.768.468,1.822,1.822,0,0,0-1.872-1.579A9.278,9.278,0,0,1,173.151,257.295Z" transform="translate(-152.35 -253.104)" fill="none" stroke="#000" stroke-linecap="round" stroke-linejoin="round" stroke-miterlimit="10" stroke-width="1"/>
          </g>
        </g>
        <g id="Grupo_1225369" data-name="Grupo 1225369" transform="translate(3.385 19.452)">
          <line id="Línea_1071" data-name="Línea 1071" y2="1.063" fill="none" stroke="#000" stroke-linecap="round" stroke-linejoin="round" stroke-miterlimit="10" stroke-width="1"/>
          <line id="Línea_1072" data-name="Línea 1072" y2="1.063" transform="translate(11.069)" fill="none" stroke="#000" stroke-linecap="round" stroke-linejoin="round" stroke-miterlimit="10" stroke-width="1"/>
          <path id="Trazado_1057315" data-name="Trazado 1057315" d="M62.549,158.615a1.934,1.934,0,0,0,2.918,0" transform="translate(-58.474 -157.583)" fill="none" stroke="#000" stroke-linecap="round" stroke-linejoin="round" stroke-miterlimit="10" stroke-width="1"/>
        </g>
        <g id="Grupo_1225370" data-name="Grupo 1225370" transform="translate(52.862 19.54)">
          <line id="Línea_1073" data-name="Línea 1073" x1="0.001" y2="1.048" fill="none" stroke="#000" stroke-linecap="round" stroke-linejoin="round" stroke-miterlimit="10" stroke-width="1"/>
          <line id="Línea_1074" data-name="Línea 1074" x1="0.001" y2="1.049" transform="translate(11.176 0.011)" fill="none" stroke="#000" stroke-linecap="round" stroke-linejoin="round" stroke-miterlimit="10" stroke-width="1"/>
          <line id="Línea_1075" data-name="Línea 1075" x2="2.947" y2="0.003" transform="translate(4.114 1.518)" fill="none" stroke="#000" stroke-linecap="round" stroke-linejoin="round" stroke-miterlimit="10" stroke-width="1"/>
        </g>
        <g id="Grupo_1225371" data-name="Grupo 1225371" transform="translate(26.207 11.094)">
          <line id="Línea_1076" data-name="Línea 1076" y2="1.295" transform="translate(0 0.242)" fill="none" stroke="#000" stroke-linecap="round" stroke-linejoin="round" stroke-miterlimit="10" stroke-width="1"/>
          <path id="Trazado_1057316" data-name="Trazado 1057316" d="M239.292,100.621a2.473,2.473,0,0,0,3.732,0" transform="translate(-234.08 -99.092)" fill="none" stroke="#000" stroke-linecap="round" stroke-linejoin="round" stroke-miterlimit="10" stroke-width="1"/>
          <path id="Trazado_1057317" data-name="Trazado 1057317" d="M296.049,90.844a1.5,1.5,0,1,1,3,0" transform="translate(-283.143 -89.343)" fill="none" stroke="#000" stroke-linecap="round" stroke-linejoin="round" stroke-miterlimit="10" stroke-width="1"/>
        </g>
        <g id="Grupo_1225372" data-name="Grupo 1225372" transform="translate(25.552 42.62)">
          <line id="Línea_1077" data-name="Línea 1077" y2="1.563" fill="none" stroke="#000" stroke-linecap="round" stroke-linejoin="round" stroke-miterlimit="10" stroke-width="1"/>
          <line id="Línea_1078" data-name="Línea 1078" y2="1.563" transform="translate(16.266)" fill="none" stroke="#000" stroke-linecap="round" stroke-linejoin="round" stroke-miterlimit="10" stroke-width="1"/>
          <path id="Trazado_1057318" data-name="Trazado 1057318" d="M240.194,333.1a2.842,2.842,0,0,0,4.289,0" transform="translate(-234.205 -331.582)" fill="none" stroke="#000" stroke-linecap="round" stroke-linejoin="round" stroke-miterlimit="10" stroke-width="1"/>
        </g>
        <path id="Trazado_1057319" data-name="Trazado 1057319" d="M226.839,421.473q.017.215.017.435a5.422,5.422,0,0,1-10.844,0q0-.2.014-.395" transform="translate(-187.749 -365.357)" fill="none" stroke="#000" stroke-linecap="round" stroke-linejoin="round" stroke-miterlimit="10" stroke-width="1"/>
        <path id="Trazado_1057320" data-name="Trazado 1057320" d="M150.492,407.851a15.754,15.754,0,0,0-6.349,8.485,3.585,3.585,0,0,0,3.439,4.622h23.177a3.585,3.585,0,0,0,3.439-4.622,15.754,15.754,0,0,0-6.338-8.477" transform="translate(-125.485 -353.582)" fill="none" stroke="#000" stroke-linecap="round" stroke-linejoin="round" stroke-miterlimit="10" stroke-width="1"/>
      </g>
    </g>
  </g>
</svg>
