<svg xmlns="http://www.w3.org/2000/svg" xmlns:xlink="http://www.w3.org/1999/xlink" width="113" height="113" viewBox="0 0 113 113">
  <defs>
    <filter id="Trazado_982547" x="0" y="0" width="113" height="113" filterUnits="userSpaceOnUse">
      <feOffset dy="3" input="SourceAlpha"/>
      <feGaussianBlur stdDeviation="3" result="blur"/>
      <feFlood flood-opacity="0.161"/>
      <feComposite operator="in" in2="blur"/>
      <feComposite in="SourceGraphic"/>
    </filter>
  </defs>
  <g id="Grupo_1225303" data-name="Grupo 1225303" transform="translate(-585.509 -7597.76)">
    <g id="Grupo_1225189" data-name="Grupo 1225189" transform="translate(0 2856.764)">
      <g id="Grupo_1224647" data-name="Grupo 1224647" transform="translate(0 1927)">
        <g id="Grupo_1224292" data-name="Grupo 1224292" transform="translate(0 859.245)">
          <g id="Grupo_1224092" data-name="Grupo 1224092" transform="translate(-88.49 -2620.317)">
            <g id="Grupo_1223184" data-name="Grupo 1223184" transform="translate(683 4581.069)">
              <g id="Grupo_1211216" data-name="Grupo 1211216" transform="translate(0)">
                <g id="Grupo_1210737" data-name="Grupo 1210737">
                  <g id="Grupo_1210537" data-name="Grupo 1210537">
                    <g id="Grupo_1164202" data-name="Grupo 1164202">
                      <g id="Grupo_1158168" data-name="Grupo 1158168">
                        <g id="Grupo_1152576" data-name="Grupo 1152576">
                          <g id="Grupo_1148633" data-name="Grupo 1148633">
                            <g id="Grupo_1148525" data-name="Grupo 1148525">
                              <g transform="matrix(1, 0, 0, 1, -9, -6)" filter="url(#Trazado_982547)">
                                <g id="Trazado_982547-2" data-name="Trazado 982547" transform="translate(9 6)" fill="#fdfbec">
                                  <path d="M 47.49999618530273 93.5 C 41.28936767578125 93.5 35.26533126831055 92.28396606445312 29.59518241882324 89.88570404052734 C 24.11771583557129 87.56893157958984 19.19812965393066 84.251953125 14.97308921813965 80.02690124511719 C 10.74803638458252 75.80186462402344 7.431062698364258 70.88227844238281 5.114289283752441 65.40480804443359 C 2.716022968292236 59.73466110229492 1.499996185302734 53.71062469482422 1.499996185302734 47.49999618530273 C 1.499996185302734 41.28936767578125 2.716022968292236 35.26533126831055 5.114289283752441 29.59518241882324 C 7.431062698364258 24.11771583557129 10.74803638458252 19.19812965393066 14.97308921813965 14.97308921813965 C 19.19812965393066 10.74803638458252 24.11771583557129 7.431062698364258 29.59518241882324 5.114289283752441 C 35.26533126831055 2.716022968292236 41.28936767578125 1.499996185302734 47.49999618530273 1.499996185302734 C 53.71062469482422 1.499996185302734 59.73466110229492 2.716022968292236 65.40480804443359 5.114289283752441 C 70.88227844238281 7.431062698364258 75.80186462402344 10.74803638458252 80.02690124511719 14.97308921813965 C 84.251953125 19.19812965393066 87.56893157958984 24.11771583557129 89.88570404052734 29.59518241882324 C 92.28396606445312 35.26533126831055 93.5 41.28936767578125 93.5 47.49999618530273 C 93.5 53.71062469482422 92.28396606445312 59.73466110229492 89.88570404052734 65.40480804443359 C 87.56893157958984 70.88227844238281 84.251953125 75.80186462402344 80.02690124511719 80.02690124511719 C 75.80186462402344 84.251953125 70.88227844238281 87.56893157958984 65.40480804443359 89.88570404052734 C 59.73466110229492 92.28396606445312 53.71062469482422 93.5 47.49999618530273 93.5 Z" stroke="none"/>
                                  <path d="M 47.49999618530273 2.999992370605469 C 41.4912109375 2.999992370605469 35.66376495361328 4.1761474609375 30.17950439453125 6.495796203613281 C 24.88084411621094 8.736953735351562 20.12152099609375 11.94598388671875 16.03375244140625 16.03375244140625 C 11.94598388671875 20.12152099609375 8.736953735351562 24.88084411621094 6.495796203613281 30.17950439453125 C 4.1761474609375 35.66376495361328 2.999992370605469 41.4912109375 2.999992370605469 47.49999618530273 C 2.999992370605469 53.50878143310547 4.1761474609375 59.33622741699219 6.495796203613281 64.82048797607422 C 8.736953735351562 70.11914825439453 11.94598388671875 74.87847137451172 16.03375244140625 78.96623992919922 C 20.12152099609375 83.05400848388672 24.88084411621094 86.26304626464844 30.17950439453125 88.50419616699219 C 35.66376495361328 90.82384490966797 41.4912109375 92 47.49999618530273 92 C 53.50878143310547 92 59.33622741699219 90.82384490966797 64.82048797607422 88.50419616699219 C 70.11914825439453 86.26304626464844 74.87847137451172 83.05400848388672 78.96623992919922 78.96623992919922 C 83.05400848388672 74.87847137451172 86.26304626464844 70.11914825439453 88.50419616699219 64.82048797607422 C 90.82384490966797 59.33622741699219 92 53.50878143310547 92 47.49999618530273 C 92 41.4912109375 90.82384490966797 35.66376495361328 88.50419616699219 30.17950439453125 C 86.26304626464844 24.88084411621094 83.05400848388672 20.12152099609375 78.96623992919922 16.03375244140625 C 74.87847137451172 11.94598388671875 70.11914825439453 8.736953735351562 64.82048797607422 6.495796203613281 C 59.33622741699219 4.1761474609375 53.50878143310547 2.999992370605469 47.49999618530273 2.999992370605469 M 47.49999618530273 -7.62939453125e-06 C 73.7335205078125 -7.62939453125e-06 95 21.26647186279297 95 47.49999618530273 C 95 73.7335205078125 73.7335205078125 95 47.49999618530273 95 C 21.26647186279297 95 -7.62939453125e-06 73.7335205078125 -7.62939453125e-06 47.49999618530273 C -7.62939453125e-06 21.26647186279297 21.26647186279297 -7.62939453125e-06 47.49999618530273 -7.62939453125e-06 Z" stroke="none" fill="#83793c"/>
                                </g>
                              </g>
                            </g>
                          </g>
                        </g>
                      </g>
                    </g>
                  </g>
                </g>
              </g>
            </g>
          </g>
        </g>
      </g>
    </g>
    <g id="empathy_17787518" transform="translate(607.847 7617.051)">
      <g id="Grupo_1225302" data-name="Grupo 1225302" transform="translate(3.999 4.036)">
        <path id="Trazado_1057066" data-name="Trazado 1057066" d="M30.336,40.568c-.49.236-.814.794-.893,1.784-.011.161,0,2.76.023,3.183H16.593c.208-6.676.2-8.61-2.953-14.172-2.74-4.83-3.986-10.093-.524-15.041C15.606,12.765,20,11,24.353,10.922,31,10.8,38.44,15.422,37.437,22.857c-.157,1.166-.8,2.064-.778,3.053.016.649.947,1.865,2.24,3.843,1.1,1.7.8,2.292-.152,2.676-.75.3-2.112.382-2.142,1.428-.031,1.076.236,3.618.236,4.857,0,2.383-2.015,2.407-4.367,2.2C31.667,40.81,30.965,40.7,30.336,40.568Z" transform="translate(-11.006 -10.919)" fill="#f0e3df" fill-rule="evenodd"/>
        <path id="Trazado_1057067" data-name="Trazado 1057067" d="M141.86,246.364l-.321-.073a14.56,14.56,0,0,1-1.99-.614.983.983,0,0,0-1.274.558,21.864,21.864,0,0,0,.162,5.1h2.552c-.023-.423-.034-3.022-.023-3.183C141.046,247.158,141.371,246.6,141.86,246.364Z" transform="translate(-122.53 -216.715)" fill="#e6d6d1" fill-rule="evenodd"/>
        <path id="Trazado_1057068" data-name="Trazado 1057068" d="M115.018,10.941q.27-.014.541-.019c6.648-.123,14.087,4.5,13.085,11.935-.157,1.166-.8,2.064-.778,3.053.016.649.947,1.865,2.24,3.843,1.1,1.7.8,2.292-.152,2.676-.75.3-2.112.382-2.142,1.428-.031,1.076.236,3.618.236,4.857,0,2.171-1.673,2.384-3.749,2.251,1.288-.125,2.179-.667,2.179-2.251,0-1.238-.267-3.781-.236-4.857.03-1.046,1.392-1.126,2.142-1.428.956-.384,1.252-.972.152-2.676-1.292-1.978-2.223-3.194-2.24-3.843-.025-.989.621-1.886.778-3.053C128.025,15.8,121.379,11.281,115.018,10.941Z" transform="translate(-102.212 -10.919)" fill="#e6d6d1" fill-rule="evenodd"/>
        <path id="Trazado_1057069" data-name="Trazado 1057069" d="M278,249.41c.49.236.814.794.893,1.784.011.161,0,2.76-.023,3.183h12.873c-.208-6.676-.2-8.61,2.953-14.172,2.74-4.83,3.986-10.093.524-15.041-2.489-3.557-6.879-5.32-11.236-5.4-6.648-.123-14.087,4.5-13.085,11.935.157,1.166.8,2.064.778,3.053-.016.649-.947,1.865-2.24,3.843-1.1,1.7-.8,2.292.152,2.676.75.3,2.112.382,2.142,1.428.031,1.076-.236,3.618-.236,4.857,0,2.383,2.015,2.407,4.367,2.2.806-.107,1.508-.221,2.137-.349Z" transform="translate(-237.004 -194.049)" fill="#f0e3df" fill-rule="evenodd"/>
        <path id="Trazado_1057070" data-name="Trazado 1057070" d="M344,455.206l.321-.073a14.559,14.559,0,0,0,1.99-.614.983.983,0,0,1,1.274.558,21.857,21.857,0,0,1-.162,5.1H344.87c.023-.423.034-3.022.023-3.183-.079-.989-.4-1.548-.893-1.784Z" transform="translate(-303.002 -399.845)" fill="#e6d6d1" fill-rule="evenodd"/>
        <path id="Trazado_1057071" data-name="Trazado 1057071" d="M284.525,219.783q-.27-.014-.541-.019c-6.648-.123-14.087,4.5-13.085,11.935.157,1.166.8,2.064.778,3.053-.016.649-.947,1.865-2.24,3.843-1.1,1.7-.8,2.292.152,2.676.75.3,2.112.382,2.142,1.428.031,1.076-.236,3.618-.236,4.857,0,2.171,1.673,2.384,3.749,2.251-1.288-.125-2.179-.667-2.179-2.251,0-1.238.267-3.781.236-4.857-.03-1.046-1.392-1.126-2.142-1.428-.956-.384-1.252-.972-.152-2.676,1.292-1.978,2.223-3.194,2.24-3.843.025-.989-.621-1.886-.778-3.053-.951-7.053,5.695-11.576,12.056-11.916Z" transform="translate(-237.003 -194.049)" fill="#e6d6d1" fill-rule="evenodd"/>
        <path id="Trazado_1057072" data-name="Trazado 1057072" d="M344.625,283.526c5.814-3.372,7.975-6.762,7.666-9.64-.395-3.672-4.568-5.739-7.666-1.707-3.1-4.033-7.271-1.966-7.666,1.707C336.65,276.764,338.812,280.154,344.625,283.526Z" transform="translate(-296.803 -238.083)" fill="#ff5471" fill-rule="evenodd"/>
        <path id="Trazado_1057073" data-name="Trazado 1057073" d="M337.216,275.875a4.994,4.994,0,0,0-.258,1.139c-.294,2.739,1.65,5.942,6.851,9.152,5.637-3.327,7.736-6.663,7.431-9.5-.389-3.467-3.925-4.223-6.616-1.356-.175.217-.352.444-.52.7C341.487,272.6,338.362,273.348,337.216,275.875Z" transform="translate(-296.802 -241.212)" fill="#ff6b84" fill-rule="evenodd"/>
        <path id="Trazado_1057074" data-name="Trazado 1057074" d="M57.777,74.685c5.814-3.372,7.975-6.762,7.666-9.64-.395-3.672-4.568-5.739-7.666-1.707-3.1-4.033-7.271-1.966-7.666,1.707C49.8,67.923,51.964,71.313,57.777,74.685Z" transform="translate(-45.271 -54.954)" fill="#ff5471" fill-rule="evenodd"/>
        <path id="Trazado_1057075" data-name="Trazado 1057075" d="M50.368,67.034a4.994,4.994,0,0,0-.258,1.139c-.294,2.739,1.65,5.942,6.851,9.152C62.6,74,64.7,70.662,64.392,67.823,64,64.356,60.467,63.6,57.776,66.467c-.175.217-.352.444-.52.7-2.617-3.407-5.743-2.66-6.888-.132Z" transform="translate(-45.271 -58.083)" fill="#ff6b84" fill-rule="evenodd"/>
      </g>
      <circle id="Elipse_13590" data-name="Elipse 13590" cx="2.591" cy="2.591" r="2.591" transform="translate(48.172 21.325)" fill="#fcdb35"/>
      <circle id="Elipse_13591" data-name="Elipse 13591" cx="2.591" cy="2.591" r="2.591" transform="translate(13.914 25.875)" fill="#fcdb35"/>
      <path id="Trazado_1057076" data-name="Trazado 1057076" d="M371.895,156.81A2.591,2.591,0,1,1,374,154.265,2.591,2.591,0,0,1,371.895,156.81Z" transform="translate(-321.617 -130.349)" fill="#ffeb87" fill-rule="evenodd"/>
      <path id="Trazado_1057077" data-name="Trazado 1057077" d="M93.647,193.769a2.591,2.591,0,0,1,0-5.09,2.591,2.591,0,0,1,0,5.09Z" transform="translate(-77.627 -162.758)" fill="#ffeb87" fill-rule="evenodd"/>
      <path id="Trazado_1057078" data-name="Trazado 1057078" d="M50.763,25.055A1.139,1.139,0,1,1,51.9,23.917,1.139,1.139,0,0,1,50.763,25.055ZM18.367,3.069H16.857A14.73,14.73,0,0,0,5.3,8.875,12.146,12.146,0,0,0,3.065,17.09a19.456,19.456,0,0,0,2.712,7.876C8.858,30.4,8.8,32.139,8.6,38.622a.985.985,0,1,0,1.968.061c.217-6.957.14-9.011-3.08-14.688-3.122-5.5-3.31-10.08-.573-13.99,2.125-3.037,6.03-4.9,10.448-4.981l.241,0a13.494,13.494,0,0,1,9.775,4.1A8.228,8.228,0,0,1,29.5,13.892H25.16a5.235,5.235,0,0,0-3.643-4.511,5.068,5.068,0,0,0-5.011,1.539A5.068,5.068,0,0,0,11.5,9.381a5.251,5.251,0,0,0-3.658,4.632c-.272,2.527.926,6.422,8.174,10.627a.986.986,0,0,0,.989,0c5.659-3.283,7.631-6.376,8.094-8.778h4.358a6.128,6.128,0,0,1-.354,1.232,5.224,5.224,0,0,0-.429,1.957c.02.793.587,1.641,1.618,3.179.24.358.5.75.779,1.172a3.262,3.262,0,0,1,.542,1.114,1.352,1.352,0,0,1-.235.114c-.121.049-.3.1-.483.151-.781.22-2.232.63-2.276,2.161-.018.615.048,1.585.118,2.612.058.846.117,1.721.117,2.273,0,.684-.213.879-.282.943-.535.49-2.123.357-2.992.283a19.608,19.608,0,0,1-4.639-1.073.985.985,0,0,0-.712,1.837c.462.179.936.337,1.439.479a4.789,4.789,0,0,0-.21,1.1c-.017.253,0,2.909.022,3.3a.984.984,0,0,0,.982.931h.056a.985.985,0,0,0,.929-1.038c-.022-.384-.031-2.788-.023-3.068a2.08,2.08,0,0,1,.188-.789c.531.1,1.1.186,1.73.268l.045.005c1.689.146,3.429.2,4.515-.791a3.1,3.1,0,0,0,.921-2.395c0-.619-.061-1.528-.122-2.407-.063-.935-.129-1.9-.115-2.421v0a3.069,3.069,0,0,1,.843-.321,6.683,6.683,0,0,0,.682-.219,2.231,2.231,0,0,0,1.386-1.317,3.547,3.547,0,0,0-.776-2.812q-.426-.652-.793-1.2a12.142,12.142,0,0,1-1.286-2.147,3.759,3.759,0,0,1,.311-1.222,7.738,7.738,0,0,0,.458-1.661c.011-.081.021-.163.03-.243H49.778v5.107a3.109,3.109,0,1,0,1.97,0V14.877a.986.986,0,0,0-.985-.985H31.481a10.127,10.127,0,0,0-2.628-6.086A15.209,15.209,0,0,0,18.367,3.069ZM16.506,22.644c-4.618-2.783-7-5.762-6.711-8.42a3.3,3.3,0,0,1,2.234-2.946,2.486,2.486,0,0,1,.679-.094,4,4,0,0,1,3.017,1.823.985.985,0,0,0,1.562,0c1.112-1.447,2.46-2.077,3.7-1.729a3.3,3.3,0,0,1,2.232,2.946c.286,2.659-2.093,5.637-6.71,8.42ZM51.821,48.356c-4.617-2.783-7-5.761-6.71-8.42a3.3,3.3,0,0,1,2.232-2.947,2.524,2.524,0,0,1,.679-.094,4,4,0,0,1,3.018,1.823.985.985,0,0,0,1.562,0c1.112-1.447,2.46-2.077,3.7-1.729a3.309,3.309,0,0,1,2.233,2.947c.285,2.659-2.094,5.637-6.712,8.42Zm5.012-13.263a5.255,5.255,0,0,1,3.659,4.632c.267,2.528-.926,6.423-8.176,10.627a.982.982,0,0,1-.989,0c-7.248-4.2-8.446-8.1-8.175-10.627a5.254,5.254,0,0,1,3.658-4.632,5.067,5.067,0,0,1,5.011,1.539A5.071,5.071,0,0,1,56.833,35.094Zm4,14.613c-3.057,5.392-3.281,7.516-3.11,13.673H46.87c.01-.915.014-2.1,0-2.276a4.69,4.69,0,0,0-.207-1.093c.519-.147,1.007-.311,1.482-.5a.985.985,0,1,0-.718-1.835,19.512,19.512,0,0,1-4.676,1.088c-.87.075-2.458.208-2.991-.282-.071-.064-.284-.259-.284-.943,0-.552.059-1.428.118-2.274.07-1.027.137-2,.118-2.611-.045-1.531-1.5-1.941-2.275-2.161-.188-.053-.362-.1-.484-.151a1.455,1.455,0,0,1-.236-.115,3.292,3.292,0,0,1,.54-1.109c.28-.427.541-.819.782-1.177,1.03-1.539,1.6-2.387,1.618-3.179a5.219,5.219,0,0,0-.428-1.958,6.012,6.012,0,0,1-.357-1.252,8.2,8.2,0,0,1,2.073-6.725,13.512,13.512,0,0,1,10.017-4.093c4.416.081,8.324,1.943,10.449,4.98,2.736,3.91,2.547,8.486-.576,13.99ZM16.506,27.328a1.139,1.139,0,1,1-1.138,1.138A1.14,1.14,0,0,1,16.506,27.328Zm46.521,7.259A12.148,12.148,0,0,1,65.258,42.8a19.455,19.455,0,0,1-2.707,7.877c-3.081,5.431-3.027,7.173-2.826,13.655a1,1,0,0,1-.279.716.981.981,0,0,1-.706.3H45.867a.985.985,0,0,1-.982-1.039c.021-.385.031-2.8.022-3.07a2.041,2.041,0,0,0-.187-.787c-.532.1-1.1.186-1.73.269l-.045,0c-1.689.146-3.43.205-4.515-.791a3.1,3.1,0,0,1-.921-2.394c0-.454.033-1.065.075-1.7H16.506a.985.985,0,0,1-.985-.985V31.415a3.109,3.109,0,1,1,1.97,0V53.867H37.711c.026-.464.04-.874.033-1.153v0a3.008,3.008,0,0,0-.843-.321,7.058,7.058,0,0,1-.682-.219,2.233,2.233,0,0,1-1.386-1.317,3.544,3.544,0,0,1,.773-2.808c.287-.439.553-.836.8-1.2A12.2,12.2,0,0,0,37.689,44.7a3.767,3.767,0,0,0-.312-1.222,7.749,7.749,0,0,1-.458-1.661,10.118,10.118,0,0,1,2.554-8.3A15.334,15.334,0,0,1,51,28.767c5.045.093,9.541,2.269,12.028,5.82Z" transform="translate(0 0)" fill-rule="evenodd"/>
    </g>
  </g>
</svg>
