<svg xmlns="http://www.w3.org/2000/svg" xmlns:xlink="http://www.w3.org/1999/xlink" width="113" height="113" viewBox="0 0 113 113">
  <defs>
    <filter id="Trazado_982547" x="0" y="0" width="113" height="113" filterUnits="userSpaceOnUse">
      <feOffset dy="3" input="SourceAlpha"/>
      <feGaussianBlur stdDeviation="3" result="blur"/>
      <feFlood flood-opacity="0.161"/>
      <feComposite operator="in" in2="blur"/>
      <feComposite in="SourceGraphic"/>
    </filter>
    <clipPath id="clip-path">
      <path id="path8892" d="M0-682.665H73.026v73.026H0Z" transform="translate(0 682.665)"/>
    </clipPath>
  </defs>
  <g id="Grupo_1225330" data-name="Grupo 1225330" transform="translate(-674.251 -8067.748)">
    <g id="Grupo_1225193" data-name="Grupo 1225193" transform="translate(683.251 8073.748)">
      <g id="Grupo_1209304" data-name="Grupo 1209304" transform="translate(0)">
        <g id="Grupo_1208492" data-name="Grupo 1208492" transform="translate(0)">
          <g id="Grupo_1177675" data-name="Grupo 1177675" transform="translate(0 0)">
            <g id="Grupo_1176928" data-name="Grupo 1176928" transform="translate(0)">
              <g id="Grupo_1172322" data-name="Grupo 1172322">
                <g id="Grupo_1164700" data-name="Grupo 1164700">
                  <g id="Grupo_1160931" data-name="Grupo 1160931">
                    <g id="Grupo_1160749" data-name="Grupo 1160749">
                      <g id="Grupo_1158891" data-name="Grupo 1158891">
                        <g id="Grupo_1157406" data-name="Grupo 1157406">
                          <g id="Grupo_1155793" data-name="Grupo 1155793">
                            <g id="Grupo_1154704" data-name="Grupo 1154704">
                              <g id="Grupo_1150790" data-name="Grupo 1150790">
                                <g id="Grupo_1154214" data-name="Grupo 1154214">
                                  <g id="Grupo_1152583" data-name="Grupo 1152583">
                                    <g id="Grupo_1146973" data-name="Grupo 1146973">
                                      <g id="Grupo_1146954" data-name="Grupo 1146954">
                                        <g transform="matrix(1, 0, 0, 1, -9, -6)" filter="url(#Trazado_982547)">
                                          <g id="Trazado_982547-2" data-name="Trazado 982547" transform="translate(9 6)" fill="#fcf8db">
                                            <path d="M 47.5000114440918 93.49987030029297 C 41.28938293457031 93.49987030029297 35.26534652709961 92.28384399414062 29.5951976776123 89.88558959960938 C 24.11773109436035 87.56881713867188 19.19814491271973 84.25183868408203 14.97310447692871 80.02680206298828 C 10.74805164337158 75.80176544189453 7.43107795715332 70.88218688964844 5.114304542541504 65.40472412109375 C 2.716038227081299 59.73458862304688 1.500011444091797 53.71054840087891 1.500011444091797 47.49993515014648 C 1.500011444091797 41.28932189941406 2.716038227081299 35.26528167724609 5.114304542541504 29.59514808654785 C 7.43107795715332 24.1176815032959 10.74805164337158 19.1981086730957 14.97310447692871 14.97306823730469 C 19.19814491271973 10.74802875518799 24.11773109436035 7.431055068969727 29.5951976776123 5.11428165435791 C 35.26534652709961 2.716028451919556 41.28938293457031 1.500001788139343 47.5000114440918 1.500001788139343 C 53.71063995361328 1.500001788139343 59.73467636108398 2.716028451919556 65.40482330322266 5.11428165435791 C 70.88229370117188 7.431055068969727 75.8018798828125 10.74802875518799 80.02691650390625 14.97306823730469 C 84.25196838378906 19.1981086730957 87.56894683837891 24.1176815032959 89.88571929931641 29.59514808654785 C 92.28398132324219 35.26528167724609 93.50001525878906 41.28932189941406 93.50001525878906 47.49993515014648 C 93.50001525878906 53.71054840087891 92.28398132324219 59.73458862304688 89.88571929931641 65.40472412109375 C 87.56894683837891 70.88218688964844 84.25196838378906 75.80176544189453 80.02691650390625 80.02680206298828 C 75.8018798828125 84.25183868408203 70.88229370117188 87.56881713867188 65.40482330322266 89.88558959960938 C 59.73467636108398 92.28384399414062 53.71063995361328 93.49987030029297 47.5000114440918 93.49987030029297 Z" stroke="none"/>
                                            <path d="M 47.5000114440918 3 C 41.49122619628906 3 35.66378021240234 4.1761474609375 30.17951965332031 6.495796203613281 C 24.880859375 8.7369384765625 20.12153625488281 11.94596862792969 16.03376770019531 16.03373718261719 C 11.94598388671875 20.12149047851562 8.736968994140625 24.88081359863281 6.495811462402344 30.17947387695312 C 4.176162719726562 35.66371917724609 3.000007629394531 41.49116516113281 3.000007629394531 47.49993515014648 C 3.000007629394531 53.50870513916016 4.176162719726562 59.33615112304688 6.495811462402344 64.82039642333984 C 8.736968994140625 70.11905670166016 11.94598388671875 74.87837982177734 16.03376770019531 78.96613311767578 C 20.12153625488281 83.05390167236328 24.880859375 86.26293182373047 30.17951965332031 88.50407409667969 C 35.66378021240234 90.82372283935547 41.49122619628906 91.99987030029297 47.5000114440918 91.99987030029297 C 53.50879669189453 91.99987030029297 59.33624267578125 90.82372283935547 64.82050323486328 88.50407409667969 C 70.11916351318359 86.26293182373047 74.87848663330078 83.05390167236328 78.96625518798828 78.96613311767578 C 83.05403900146484 74.87837982177734 86.2630615234375 70.11905670166016 88.50421142578125 64.82039642333984 C 90.82386016845703 59.33615112304688 92.00001525878906 53.50870513916016 92.00001525878906 47.49993515014648 C 92.00001525878906 41.49116516113281 90.82386016845703 35.66371917724609 88.50421142578125 30.17947387695312 C 86.2630615234375 24.88081359863281 83.05403900146484 20.12149047851562 78.96625518798828 16.03373718261719 C 74.87848663330078 11.94596862792969 70.11916351318359 8.7369384765625 64.82050323486328 6.495796203613281 C 59.33624267578125 4.1761474609375 53.50879669189453 3 47.5000114440918 3 M 47.5000114440918 0 C 73.73353576660156 0 95.00001525878906 21.26644134521484 95.00001525878906 47.49993515014648 C 95.00001525878906 73.73342895507812 73.73353576660156 94.99987030029297 47.5000114440918 94.99987030029297 C 21.26648712158203 94.99987030029297 7.62939453125e-06 73.73342895507812 7.62939453125e-06 47.49993515014648 C 7.62939453125e-06 21.26644134521484 21.26648712158203 0 47.5000114440918 0 Z" stroke="none" fill="#83793c"/>
                                          </g>
                                        </g>
                                      </g>
                                    </g>
                                  </g>
                                </g>
                              </g>
                            </g>
                          </g>
                        </g>
                      </g>
                    </g>
                  </g>
                </g>
              </g>
            </g>
          </g>
        </g>
      </g>
    </g>
    <g id="g8886" transform="translate(691.239 8768.525)">
      <g id="g8888" transform="translate(0 -682.665)">
        <g id="g8890" transform="translate(0 0)" clip-path="url(#clip-path)">
          <g id="g8896" transform="translate(30.539 42.049)">
            <path id="path8898" d="M-230.971-70.457l-5.981,5.98a1.438,1.438,0,0,1-2.456-1.017v-.734H-257.2a1.439,1.439,0,0,1-1.438-1.439v-7.617a1.438,1.438,0,0,1,1.438-1.438h17.792v-.734a1.438,1.438,0,0,1,2.456-1.017l5.981,5.98a1.441,1.441,0,0,1,0,2.035" transform="translate(258.638 78.896)" fill="#1c96f9"/>
          </g>
          <g id="g8900" transform="translate(30.539 44.224)">
            <path id="path8902" d="M-138.742,0a17.491,17.491,0,0,1-9.448,7.482,7.965,7.965,0,0,0-4.065,3.012h-1.667a1.439,1.439,0,0,1-1.439-1.439V1.438A1.438,1.438,0,0,1-153.922,0Z" transform="translate(155.361 0)" fill="#1785f8"/>
          </g>
          <g id="g8904" transform="translate(49.402 42.048)">
            <path id="path8906" d="M-73.5-70.455l-5.981,5.981a1.438,1.438,0,0,1-2.456-1.017v-.734H-82.3l4.231-4.231a1.44,1.44,0,0,0,0-2.034L-82.3-76.72h.367v-.732a1.439,1.439,0,0,1,2.456-1.018l5.981,5.981a1.437,1.437,0,0,1,0,2.034" transform="translate(82.3 78.894)" fill="#1785f8"/>
          </g>
          <g id="g8908" transform="translate(30.539 42.049)">
            <path id="path8910" d="M-230.971-53.469l-5.981-5.981a1.439,1.439,0,0,0-2.456,1.017v.733H-257.2a1.439,1.439,0,0,0-1.439,1.439v7.618A1.439,1.439,0,0,0-257.2-47.2h17.792v.733a1.438,1.438,0,0,0,2.456,1.017l5.981-5.981A1.439,1.439,0,0,0-230.971-53.469Z" transform="translate(258.638 59.874)" fill="none" stroke="#000" stroke-linecap="round" stroke-linejoin="round" stroke-miterlimit="10" stroke-width="1"/>
          </g>
          <g id="g8912" transform="translate(14.093 14.367)">
            <path id="path8914" d="M0-145.71A17.454,17.454,0,0,1,17.875-163.16,17.516,17.516,0,0,1,34.9-146.131,17.461,17.461,0,0,1,22.9-129.122a7.812,7.812,0,0,0-5.443,7.4A8.727,8.727,0,0,1,8.727-113,8.727,8.727,0,0,1,0-121.724Z" transform="translate(0 163.165)" fill="#ffcec0"/>
          </g>
          <g id="g8916" transform="translate(26.765 14.367)">
            <path id="path8918" d="M-163.949-69.49l-1.895,2.641a1.509,1.509,0,0,1-2.451,0l-3.353-4.675h-4.362a7.9,7.9,0,0,1-5.6-2.317,7.906,7.906,0,0,1-1.981-3.309,17.456,17.456,0,0,1,5.2-.659,17.5,17.5,0,0,1,14.436,8.319" transform="translate(183.588 77.814)" fill="#fdb0a0"/>
          </g>
          <g id="g8920" transform="translate(14.093 18.757)">
            <path id="path8922" d="M-102.979-77.6a9.914,9.914,0,0,1-5.475,8.866v2.27a1.438,1.438,0,0,1-2.456,1.017l-2.243-2.243a9.9,9.9,0,0,1-2.162-.293v-5.848A17.4,17.4,0,0,1-109.434-86.9a9.922,9.922,0,0,1,6.455,9.3" transform="translate(115.314 86.9)" fill="#fdb0a0"/>
          </g>
          <g id="g8924" transform="translate(19.043 16.204)">
            <path id="path8926" d="M-149.826-268.86a7.812,7.812,0,0,0-5.442,7.4,8.7,8.7,0,0,1-2.556,6.171A8.7,8.7,0,0,1-164-252.736a8.689,8.689,0,0,1-3.778-.857,8.964,8.964,0,0,0,6.088-2.631,8.966,8.966,0,0,0,2.634-6.36,8.051,8.051,0,0,1,5.61-7.624,18,18,0,0,0,12.374-17.531,17.968,17.968,0,0,0-6.433-13.327,17.516,17.516,0,0,1,9.68,15.2,17.461,17.461,0,0,1-12.006,17.009" transform="translate(167.773 301.066)" fill="#fdb0a0"/>
          </g>
          <g id="g8928" transform="translate(14.093 34.142)">
            <path id="path8930" d="M0-109.609v8.536a8.727,8.727,0,0,0,8.727,8.727,8.727,8.727,0,0,0,8.727-8.727,7.812,7.812,0,0,1,5.443-7.4,17.472,17.472,0,0,0,11.855-14.268" transform="translate(0 122.738)" fill="none" stroke="#000" stroke-linecap="round" stroke-linejoin="round" stroke-miterlimit="10" stroke-width="1"/>
          </g>
          <g id="g8932" transform="translate(14.093 14.367)">
            <path id="path8934" d="M-289.31-120.993a17.533,17.533,0,0,0-16.781-14.488,17.454,17.454,0,0,0-17.875,17.449v10.169" transform="translate(323.966 135.486)" fill="none" stroke="#000" stroke-linecap="round" stroke-linejoin="round" stroke-miterlimit="10" stroke-width="1"/>
          </g>
          <g id="g8936" transform="translate(19.863 21.174)">
            <path id="path8938" d="M-162.829-28.078a11.365,11.365,0,0,0-7.793-3.36c-.1,0-.206,0-.308,0a11.475,11.475,0,0,0-11.4,11.5v2.171a6,6,0,0,0,1.758,4.243,3.592,3.592,0,0,0,2.54,1.052h0a1.964,1.964,0,0,1,1.964,1.964,1.964,1.964,0,0,1-1.964,1.964h-1.484" transform="translate(182.334 31.442)" fill="none" stroke="#000" stroke-linecap="round" stroke-linejoin="round" stroke-miterlimit="10" stroke-width="1"/>
          </g>
          <g id="g8940" transform="translate(19.863 30.097)">
            <path id="path8942" d="M-.27-17.676a9.11,9.11,0,0,1,5.812-2.117,8.963,8.963,0,0,1,8.987,8.987A8.991,8.991,0,0,1,8.461-2.3,4.318,4.318,0,0,0,5.542,1.78,2.922,2.922,0,1,1-.3,1.78V-1.831" transform="translate(0.303 19.793)" fill="none" stroke="#000" stroke-linecap="round" stroke-linejoin="round" stroke-miterlimit="10" stroke-width="1"/>
          </g>
          <g id="g8944" transform="translate(6.595 14.578)">
            <path id="path8946" d="M-165.571-82.786A9.917,9.917,0,0,0-175.635-92.7,9.958,9.958,0,0,0-185.4-83a9.914,9.914,0,0,0,9.658,10.124l2.242,2.242a1.438,1.438,0,0,0,2.456-1.017V-73.92a9.914,9.914,0,0,0,5.475-8.866" transform="translate(185.405 92.703)" fill="#fcdd45"/>
          </g>
          <g id="g8948" transform="translate(17.328 14.675)">
            <path id="path8950" d="M-75.97-81.974a9.916,9.916,0,0,1-5.475,8.866v2.27A1.438,1.438,0,0,1-83.9-69.821l-1.17-1.17a1.406,1.406,0,0,0,.334-.926V-72.9a2.257,2.257,0,0,1,1.026-1.879,9.9,9.9,0,0,0,4.449-8.272,9.915,9.915,0,0,0-5.226-8.74,9.92,9.92,0,0,1,8.518,9.819" transform="translate(85.07 91.793)" fill="#f8c52d"/>
          </g>
          <g id="g8952" transform="translate(6.595 14.578)">
            <path id="path8954" d="M-165.571-82.786A9.917,9.917,0,0,0-175.635-92.7,9.958,9.958,0,0,0-185.4-83a9.914,9.914,0,0,0,9.658,10.124l2.242,2.242a1.438,1.438,0,0,0,2.456-1.017V-73.92A9.914,9.914,0,0,0-165.571-82.786Z" transform="translate(185.405 92.703)" fill="none" stroke="#000" stroke-linecap="round" stroke-linejoin="round" stroke-miterlimit="10" stroke-width="1"/>
          </g>
          <g id="g8956" transform="translate(12.748 21.606)">
            <path id="path8958" d="M0,0V6.279" fill="none" stroke="#000" stroke-linecap="round" stroke-linejoin="round" stroke-miterlimit="10" stroke-width="1"/>
          </g>
          <g id="g8960" transform="translate(16.745 21.606)">
            <path id="path8962" d="M0,0V6.279" fill="none" stroke="#000" stroke-linecap="round" stroke-linejoin="round" stroke-miterlimit="10" stroke-width="1"/>
          </g>
          <g id="g8964" transform="translate(20.023 24.746)">
            <path id="path8966" d="M0,0V3.139" fill="none" stroke="#000" stroke-linecap="round" stroke-linejoin="round" stroke-miterlimit="10" stroke-width="1"/>
          </g>
          <g id="g8968" transform="translate(12.748 24.556)">
            <path id="path8970" d="M0,0H4" fill="none" stroke="#000" stroke-linecap="round" stroke-linejoin="round" stroke-miterlimit="10" stroke-width="1"/>
          </g>
          <g id="g8972" transform="translate(20.023 21.607)">
            <path id="path8974" d="M0-.124V-.139" transform="translate(0 0.139)" fill="none" stroke="#000" stroke-linecap="round" stroke-linejoin="round" stroke-miterlimit="10" stroke-width="1"/>
          </g>
          <g id="g8976" transform="translate(26.428 1.07)">
            <path id="path8978" d="M-267.888,0h-24.175a7.914,7.914,0,0,0-7.914,7.914,7.914,7.914,0,0,0,7.914,7.914h4.362l3.354,4.676a1.508,1.508,0,0,0,2.451,0l3.354-4.676h10.655a7.914,7.914,0,0,0,7.914-7.914A7.914,7.914,0,0,0-267.888,0" transform="translate(299.978)" fill="#23f1a8"/>
          </g>
          <g id="g8980" transform="translate(53.992 1.07)">
            <path id="path8982" d="M-103.849-66.073a7.894,7.894,0,0,0-2.318-5.6,7.894,7.894,0,0,0-5.6-2.318h-4.525a7.891,7.891,0,0,1,5.6,2.318,7.894,7.894,0,0,1,2.318,5.6,7.915,7.915,0,0,1-7.915,7.915h4.525a7.915,7.915,0,0,0,7.915-7.915" transform="translate(116.289 73.988)" fill="#26d192"/>
          </g>
          <g id="g8984" transform="translate(26.428 1.07)">
            <path id="path8986" d="M-267.888,0h-24.175a7.914,7.914,0,0,0-7.914,7.914,7.914,7.914,0,0,0,7.914,7.914h4.362l3.354,4.676a1.508,1.508,0,0,0,2.451,0l3.354-4.676h10.655a7.914,7.914,0,0,0,7.914-7.914A7.914,7.914,0,0,0-267.888,0Z" transform="translate(299.978)" fill="none" stroke="#000" stroke-linecap="round" stroke-linejoin="round" stroke-miterlimit="10" stroke-width="1"/>
          </g>
          <g id="g8988" transform="translate(36.126 7.044)">
            <path id="path8990" d="M0,0H2.828" fill="none" stroke="#000" stroke-linecap="round" stroke-linejoin="round" stroke-miterlimit="10" stroke-width="1"/>
          </g>
          <g id="g8992" transform="translate(36.126 10.925)">
            <path id="path8994" d="M0,0H20.054" fill="none" stroke="#000" stroke-linecap="round" stroke-linejoin="round" stroke-miterlimit="10" stroke-width="1"/>
          </g>
          <g id="g8996" transform="translate(43.35 7.044)">
            <path id="path8998" d="M0,0H12.83" fill="none" stroke="#000" stroke-linecap="round" stroke-linejoin="round" stroke-miterlimit="10" stroke-width="1"/>
          </g>
          <g id="g9000" transform="translate(41.781 29.229)">
            <path id="path9002" d="M-1.426,0A12.678,12.678,0,0,1-1.6,6.065" transform="translate(1.597)" fill="none" stroke="#000" stroke-linecap="round" stroke-linejoin="round" stroke-miterlimit="10" stroke-width="1"/>
          </g>
          <g id="g9004" transform="translate(18.823 57.112)">
            <path id="path9006" d="M-3.518-53.471l5.981-5.981a1.439,1.439,0,0,1,2.456,1.017v.733H22.711a1.439,1.439,0,0,1,1.439,1.439v7.618a1.439,1.439,0,0,1-1.439,1.439H4.919v.733a1.438,1.438,0,0,1-2.456,1.017l-5.981-5.981a1.438,1.438,0,0,1,0-2.034" transform="translate(3.939 59.876)" fill="#31a7fb"/>
          </g>
          <g id="g9008" transform="translate(41.584 59.287)">
            <path id="path9010" d="M-44.47-12.009v7.618a1.438,1.438,0,0,1-1.439,1.439H-49.8a1.439,1.439,0,0,0,1.439-1.439v-7.618A1.439,1.439,0,0,0-49.8-13.448h3.888a1.438,1.438,0,0,1,1.439,1.439" transform="translate(49.797 13.448)" fill="#1c96f9"/>
          </g>
          <g id="g9012" transform="translate(18.823 57.112)">
            <path id="path9014" d="M-135.471-18.155h-7.37v-.733a1.439,1.439,0,0,0-2.456-1.017l-5.981,5.981a1.439,1.439,0,0,0,0,2.034L-145.3-5.91a1.439,1.439,0,0,0,2.456-1.017V-7.66h17.792A1.439,1.439,0,0,0-123.61-9.1v-7.618a1.439,1.439,0,0,0-1.439-1.439h-5.141" transform="translate(151.699 20.33)" fill="none" stroke="#000" stroke-linecap="round" stroke-linejoin="round" stroke-miterlimit="10" stroke-width="1"/>
          </g>
        </g>
      </g>
    </g>
  </g>
</svg>
