<svg xmlns="http://www.w3.org/2000/svg" xmlns:xlink="http://www.w3.org/1999/xlink" width="113" height="113" viewBox="0 0 113 113">
  <defs>
    <filter id="Trazado_982547" x="0" y="0" width="113" height="113" filterUnits="userSpaceOnUse">
      <feOffset dy="3" input="SourceAlpha"/>
      <feGaussianBlur stdDeviation="3" result="blur"/>
      <feFlood flood-opacity="0.161"/>
      <feComposite operator="in" in2="blur"/>
      <feComposite in="SourceGraphic"/>
    </filter>
  </defs>
  <g id="Grupo_1225257" data-name="Grupo 1225257" transform="translate(-793.49 -1519.143)">
    <g id="Grupo_1224648" data-name="Grupo 1224648" transform="translate(0 -3554.277)">
      <g id="Grupo_1209312" data-name="Grupo 1209312" transform="translate(0 3843.205)">
        <g id="Grupo_1208492" data-name="Grupo 1208492" transform="translate(0 -4397.209)">
          <g id="Grupo_1177675" data-name="Grupo 1177675" transform="translate(-4493 3707.152)">
            <g id="Grupo_1176928" data-name="Grupo 1176928" transform="translate(5295.49 1926.273)">
              <g id="Grupo_1172322" data-name="Grupo 1172322" transform="translate(0 0)">
                <g id="Grupo_1164700" data-name="Grupo 1164700">
                  <g id="Grupo_1160931" data-name="Grupo 1160931">
                    <g id="Grupo_1160749" data-name="Grupo 1160749">
                      <g id="Grupo_1158891" data-name="Grupo 1158891">
                        <g id="Grupo_1157406" data-name="Grupo 1157406">
                          <g id="Grupo_1155793" data-name="Grupo 1155793">
                            <g id="Grupo_1154704" data-name="Grupo 1154704">
                              <g id="Grupo_1150790" data-name="Grupo 1150790">
                                <g id="Grupo_1154214" data-name="Grupo 1154214">
                                  <g id="Grupo_1152583" data-name="Grupo 1152583">
                                    <g id="Grupo_1146973" data-name="Grupo 1146973">
                                      <g id="Grupo_1146954" data-name="Grupo 1146954">
                                        <g transform="matrix(1, 0, 0, 1, -9, -6)" filter="url(#Trazado_982547)">
                                          <g id="Trazado_982547-2" data-name="Trazado 982547" transform="translate(9 6)" fill="#fcf8db">
                                            <path d="M 47.5000114440918 93.49987030029297 C 41.28938293457031 93.49987030029297 35.26534652709961 92.28384399414062 29.5951976776123 89.88558959960938 C 24.11773109436035 87.56881713867188 19.19814491271973 84.25183868408203 14.97310447692871 80.02680206298828 C 10.74805164337158 75.80176544189453 7.43107795715332 70.88218688964844 5.114304542541504 65.40472412109375 C 2.716038227081299 59.73458862304688 1.500011444091797 53.71054840087891 1.500011444091797 47.49993515014648 C 1.500011444091797 41.28932189941406 2.716038227081299 35.26528167724609 5.114304542541504 29.59514808654785 C 7.43107795715332 24.1176815032959 10.74805164337158 19.1981086730957 14.97310447692871 14.97306823730469 C 19.19814491271973 10.74802875518799 24.11773109436035 7.431055068969727 29.5951976776123 5.11428165435791 C 35.26534652709961 2.716028451919556 41.28938293457031 1.500001788139343 47.5000114440918 1.500001788139343 C 53.71063995361328 1.500001788139343 59.73467636108398 2.716028451919556 65.40482330322266 5.11428165435791 C 70.88229370117188 7.431055068969727 75.8018798828125 10.74802875518799 80.02691650390625 14.97306823730469 C 84.25196838378906 19.1981086730957 87.56894683837891 24.1176815032959 89.88571929931641 29.59514808654785 C 92.28398132324219 35.26528167724609 93.50001525878906 41.28932189941406 93.50001525878906 47.49993515014648 C 93.50001525878906 53.71054840087891 92.28398132324219 59.73458862304688 89.88571929931641 65.40472412109375 C 87.56894683837891 70.88218688964844 84.25196838378906 75.80176544189453 80.02691650390625 80.02680206298828 C 75.8018798828125 84.25183868408203 70.88229370117188 87.56881713867188 65.40482330322266 89.88558959960938 C 59.73467636108398 92.28384399414062 53.71063995361328 93.49987030029297 47.5000114440918 93.49987030029297 Z" stroke="none"/>
                                            <path d="M 47.5000114440918 3 C 41.49122619628906 3 35.66378021240234 4.1761474609375 30.17951965332031 6.495796203613281 C 24.880859375 8.7369384765625 20.12153625488281 11.94596862792969 16.03376770019531 16.03373718261719 C 11.94598388671875 20.12149047851562 8.736968994140625 24.88081359863281 6.495811462402344 30.17947387695312 C 4.176162719726562 35.66371917724609 3.000007629394531 41.49116516113281 3.000007629394531 47.49993515014648 C 3.000007629394531 53.50870513916016 4.176162719726562 59.33615112304688 6.495811462402344 64.82039642333984 C 8.736968994140625 70.11905670166016 11.94598388671875 74.87837982177734 16.03376770019531 78.96613311767578 C 20.12153625488281 83.05390167236328 24.880859375 86.26293182373047 30.17951965332031 88.50407409667969 C 35.66378021240234 90.82372283935547 41.49122619628906 91.99987030029297 47.5000114440918 91.99987030029297 C 53.50879669189453 91.99987030029297 59.33624267578125 90.82372283935547 64.82050323486328 88.50407409667969 C 70.11916351318359 86.26293182373047 74.87848663330078 83.05390167236328 78.96625518798828 78.96613311767578 C 83.05403900146484 74.87837982177734 86.2630615234375 70.11905670166016 88.50421142578125 64.82039642333984 C 90.82386016845703 59.33615112304688 92.00001525878906 53.50870513916016 92.00001525878906 47.49993515014648 C 92.00001525878906 41.49116516113281 90.82386016845703 35.66371917724609 88.50421142578125 30.17947387695312 C 86.2630615234375 24.88081359863281 83.05403900146484 20.12149047851562 78.96625518798828 16.03373718261719 C 74.87848663330078 11.94596862792969 70.11916351318359 8.7369384765625 64.82050323486328 6.495796203613281 C 59.33624267578125 4.1761474609375 53.50879669189453 3 47.5000114440918 3 M 47.5000114440918 0 C 73.73353576660156 0 95.00001525878906 21.26644134521484 95.00001525878906 47.49993515014648 C 95.00001525878906 73.73342895507812 73.73353576660156 94.99987030029297 47.5000114440918 94.99987030029297 C 21.26648712158203 94.99987030029297 7.62939453125e-06 73.73342895507812 7.62939453125e-06 47.49993515014648 C 7.62939453125e-06 21.26644134521484 21.26648712158203 0 47.5000114440918 0 Z" stroke="none" fill="#83793c"/>
                                          </g>
                                        </g>
                                      </g>
                                    </g>
                                  </g>
                                </g>
                              </g>
                            </g>
                          </g>
                        </g>
                      </g>
                    </g>
                  </g>
                </g>
              </g>
            </g>
          </g>
        </g>
      </g>
    </g>
    <g id="bricks_769657_1_" data-name="bricks_769657 (1)" transform="translate(815.993 1492.22)">
      <path id="Trazado_1056871" data-name="Trazado 1056871" d="M95.8,231.838a8.245,8.245,0,0,1-9.192-.122,8.164,8.164,0,0,0-3.685,6.819v.7l2.934-2.934a1.289,1.289,0,0,1,1.823,0l.743.743a1.289,1.289,0,0,1,.2,1.556h3.662a.646.646,0,0,1,.644.644.646.646,0,0,1,.644-.644H97.11a1.287,1.287,0,0,1,.334-1.242l.743-.743a1.285,1.285,0,0,1,.787-.372A8.208,8.208,0,0,0,95.8,231.838Z" transform="translate(-72.234 -154.423)" fill="#154884"/>
      <g id="Grupo_1225247" data-name="Grupo 1225247" transform="translate(10.688 77.293)" opacity="0.1">
        <path id="Trazado_1056872" data-name="Trazado 1056872" d="M86.606,231.716a8.164,8.164,0,0,0-3.685,6.819v.7l2.934-2.934a1.294,1.294,0,0,1,.114-.1,8.183,8.183,0,0,1,2.247-3.618A8.259,8.259,0,0,1,86.606,231.716Z" transform="translate(-82.921 -231.716)" fill="#37005e"/>
      </g>
      <path id="Trazado_1056873" data-name="Trazado 1056873" d="M79.411,344.137a.646.646,0,0,1-.644.644H72.829a.646.646,0,0,1-.644-.644v-2.324a.646.646,0,0,1,.644-.644h5.937a.646.646,0,0,1,.644.644Z" transform="translate(-62.881 -249.768)" fill="#fcdb80"/>
      <path id="Trazado_1056874" data-name="Trazado 1056874" d="M135.472,344.137a.646.646,0,0,1-.644.644H128.89a.646.646,0,0,1-.644-.644v-2.324a.646.646,0,0,1,.644-.644h5.937a.646.646,0,0,1,.644.644Z" transform="translate(-111.716 -249.768)" fill="#89c947"/>
      <path id="Trazado_1056875" data-name="Trazado 1056875" d="M95.583,316.107a.646.646,0,0,1-.644.644H89a.646.646,0,0,1-.644-.644v-2.324a.646.646,0,0,1,.644-.645h5.937a.646.646,0,0,1,.644.645v2.324Z" transform="translate(-76.968 -225.351)" fill="#ff6a76"/>
      <path id="Trazado_1056876" data-name="Trazado 1056876" d="M151.643,316.107a.646.646,0,0,1-.644.644h-5.937a.646.646,0,0,1-.644-.644v-2.324a.646.646,0,0,1,.644-.645H151a.646.646,0,0,1,.644.645Z" transform="translate(-125.803 -225.351)" fill="#fcdb80"/>
      <path id="Trazado_1056877" data-name="Trazado 1056877" d="M111.109,285.108h-3.662a1.28,1.28,0,0,1-1.417.608,1.284,1.284,0,0,1-1.5,1.562v.8a.646.646,0,0,0,.644.644h5.937a.646.646,0,0,0,.644-.644v-2.324A.646.646,0,0,0,111.109,285.108Z" transform="translate(-91.055 -200.933)" fill="#0481bf"/>
      <path id="Trazado_1056878" data-name="Trazado 1056878" d="M166.652,287.244a1.286,1.286,0,0,0-1.553-1.553,1.282,1.282,0,0,1-.334-.582h-3.532a.646.646,0,0,0-.644.644v2.324a.646.646,0,0,0,.644.644h5.937a.646.646,0,0,0,.644-.644v-.484A1.285,1.285,0,0,1,166.652,287.244Z" transform="translate(-139.889 -200.934)" fill="#ff6a76"/>
      <g id="Grupo_1225248" data-name="Grupo 1225248" transform="translate(10.138 81.499)">
        <path id="Trazado_1056879" data-name="Trazado 1056879" d="M82.138,264.722l-3.107,3.107a1.289,1.289,0,0,0,0,1.823l.743.743a1.288,1.288,0,0,0,2.164-1.213,1.286,1.286,0,0,0,1.553-1.553,1.288,1.288,0,0,0,1.213-2.164l-.743-.743A1.289,1.289,0,0,0,82.138,264.722Z" transform="translate(-78.654 -264.345)" fill="#ffd5b3"/>
        <path id="Trazado_1056880" data-name="Trazado 1056880" d="M198.7,270.266l-3.106-3.107a1.289,1.289,0,0,0-1.823,0l-.743.743a7.915,7.915,0,0,1,1.553,3.377,1.287,1.287,0,0,1,1.553,1.553,1.29,1.29,0,0,0,1.823,0l.743-.743A1.289,1.289,0,0,0,198.7,270.266Z" transform="translate(-177.959 -266.467)" fill="#ffd5b3"/>
      </g>
      <g id="Grupo_1225249" data-name="Grupo 1225249" transform="translate(16.749 66.507)">
        <path id="Trazado_1056881" data-name="Trazado 1056881" d="M211.95,148.035h-.7v3.879a8.469,8.469,0,0,1-.157,1.618h.858a1.8,1.8,0,0,0,1.8-1.8v-1.9A1.8,1.8,0,0,0,211.95,148.035Z" transform="translate(-200.632 -148.035)" fill="#ffb98a"/>
        <path id="Trazado_1056882" data-name="Trazado 1056882" d="M132.253,240.815a8.24,8.24,0,0,1-2.312-.331v.53a2.312,2.312,0,0,0,4.625,0v-.53A8.244,8.244,0,0,1,132.253,240.815Z" transform="translate(-129.941 -228.568)" fill="#ffb98a"/>
      </g>
      <path id="Trazado_1056883" data-name="Trazado 1056883" d="M77.858,132.946a.678.678,0,0,1-.445-.166l-2.381-2.067-1.422,1.954a.678.678,0,0,1-.548.279h-4.47a1.8,1.8,0,0,0-1.8,1.8v1.9a1.8,1.8,0,0,0,1.8,1.8H69.1a8.3,8.3,0,0,0,16.451-1.618v-3.879H77.858Z" transform="translate(-58.186 -66.438)" fill="#ffd5b3"/>
      <path id="Trazado_1056884" data-name="Trazado 1056884" d="M85.506,78.247a.678.678,0,0,1-.445-.166L82.68,76.014l-1.422,1.954a.678.678,0,0,1-.548.279h-4.46a.675.675,0,0,1-.677-.674V77.2a9.32,9.32,0,0,1,18.64,0v.373a.675.675,0,0,1-.677.674Z" transform="translate(-65.833 -11.74)" fill="#d48748"/>
      <g id="Grupo_1225250" data-name="Grupo 1225250" transform="translate(9.741 56.181)" opacity="0.1">
        <path id="Trazado_1056885" data-name="Trazado 1056885" d="M78.257,77.574V77.2a9.306,9.306,0,0,1,7.979-9.182A9.317,9.317,0,0,0,75.574,77.2v.373a.675.675,0,0,0,.677.674h2.683A.676.676,0,0,1,78.257,77.574Z" transform="translate(-75.574 -67.922)" fill="#37005e"/>
      </g>
      <path id="Trazado_1056886" data-name="Trazado 1056886" d="M336.856,237.627a8.438,8.438,0,0,1-8.333,0,8.183,8.183,0,0,0-3.973,6.13.6.6,0,1,0,1.189-.01h5.937a.646.646,0,0,1,.644.644v2.324a.646.646,0,0,1-.644.644h5.141a.641.641,0,0,1,.25.051l.507-.507a1.289,1.289,0,0,1,1.823,0l1.484,1.484v-3.73A8.17,8.17,0,0,0,336.856,237.627Z" transform="translate(-282.717 -159.572)" fill="#30a1d0"/>
      <g id="Grupo_1225251" data-name="Grupo 1225251" transform="translate(41.832 78.056)" opacity="0.1">
        <path id="Trazado_1056887" data-name="Trazado 1056887" d="M328.522,237.632a8.183,8.183,0,0,0-3.973,6.13.6.6,0,1,0,1.189-.01h1.5a8.16,8.16,0,0,1,2.943-5.4A8.426,8.426,0,0,1,328.522,237.632Z" transform="translate(-324.549 -237.632)" fill="#37005e"/>
      </g>
      <g id="Grupo_1225252" data-name="Grupo 1225252" transform="translate(38.641 65.98)">
        <path id="Trazado_1056888" data-name="Trazado 1056888" d="M371.678,243.867a8.436,8.436,0,0,1-2.371-.34v.536a2.371,2.371,0,0,0,4.742,0v-.536A8.434,8.434,0,0,1,371.678,243.867Z" transform="translate(-360.347 -230.691)" fill="#ffb98a"/>
        <path id="Trazado_1056889" data-name="Trazado 1056889" d="M302.608,148.524v-4.578h-.883a1.939,1.939,0,0,0-1.933,1.933v1.781a1.939,1.939,0,0,0,1.933,1.933h.951A8.755,8.755,0,0,1,302.608,148.524Z" transform="translate(-299.791 -143.946)" fill="#ffb98a"/>
        <path id="Trazado_1056890" data-name="Trazado 1056890" d="M454.182,143.945H453.3v4.578a8.759,8.759,0,0,1-.068,1.069h.951a1.939,1.939,0,0,0,1.933-1.933v-1.781A1.939,1.939,0,0,0,454.182,143.945Z" transform="translate(-433.454 -143.945)" fill="#ffb98a"/>
      </g>
      <path id="Trazado_1056891" data-name="Trazado 1056891" d="M321.644,144.249v4.539a8.515,8.515,0,1,0,17.029,0v-4.539Z" transform="translate(-280.186 -78.23)" fill="#ffd5b3"/>
      <g id="Grupo_1225253" data-name="Grupo 1225253" transform="translate(41.458 66.019)" opacity="0.1">
        <path id="Trazado_1056892" data-name="Trazado 1056892" d="M324.268,148.788v-4.539h-2.624v4.539a8.514,8.514,0,0,0,9.826,8.5A8.574,8.574,0,0,1,324.268,148.788Z" transform="translate(-321.644 -144.249)" fill="#37005e"/>
      </g>
      <path id="Trazado_1056893" data-name="Trazado 1056893" d="M368.505,205.251a3.135,3.135,0,0,1-2.922-1.977.56.56,0,0,1,.519-.768h4.8a.56.56,0,0,1,.519.768A3.135,3.135,0,0,1,368.505,205.251Z" transform="translate(-318.427 -128.977)" fill="#ff6a76"/>
      <path id="Trazado_1056894" data-name="Trazado 1056894" d="M323.119,61.943a9.545,9.545,0,0,0-9.556,9.533v1.075h19.112V71.476A9.545,9.545,0,0,0,323.119,61.943Z" transform="translate(-273.147 -6.532)" fill="#a75436"/>
      <g id="Grupo_1225254" data-name="Grupo 1225254" transform="translate(40.416 55.411)" opacity="0.1">
        <path id="Trazado_1056895" data-name="Trazado 1056895" d="M324.436,62.035a9.548,9.548,0,0,0-10.873,9.441v1.075H316.2V71.476A9.541,9.541,0,0,1,324.436,62.035Z" transform="translate(-313.563 -61.943)" fill="#37005e"/>
      </g>
      <path id="Trazado_1056896" data-name="Trazado 1056896" d="M63.241,372.168a.646.646,0,0,1-.644.644H56.659a.646.646,0,0,1-.644-.644v-2.324a.646.646,0,0,1,.644-.644H62.6a.646.646,0,0,1,.644.644Z" transform="translate(-48.795 -274.185)" fill="#89c947"/>
      <path id="Trazado_1056897" data-name="Trazado 1056897" d="M119.3,372.168a.646.646,0,0,1-.644.644h-5.937a.646.646,0,0,1-.644-.644v-2.324a.646.646,0,0,1,.644-.644h5.937a.646.646,0,0,1,.644.644Z" transform="translate(-97.629 -274.185)" fill="#ff6a76"/>
      <path id="Trazado_1056898" data-name="Trazado 1056898" d="M175.361,372.168a.646.646,0,0,1-.644.644h-5.937a.646.646,0,0,1-.644-.644v-2.324a.646.646,0,0,1,.644-.644h5.937a.646.646,0,0,1,.644.644Z" transform="translate(-146.463 -274.185)" fill="#0481bf"/>
      <path id="Trazado_1056899" data-name="Trazado 1056899" d="M231.423,372.168a.646.646,0,0,1-.644.644h-5.937a.646.646,0,0,1-.644-.644v-2.324a.646.646,0,0,1,.644-.644h5.937a.646.646,0,0,1,.644.644Z" transform="translate(-195.3 -274.185)" fill="#fcdb80"/>
      <path id="Trazado_1056900" data-name="Trazado 1056900" d="M287.483,372.168a.646.646,0,0,1-.645.644H280.9a.646.646,0,0,1-.644-.644v-2.324a.646.646,0,0,1,.644-.644h5.937a.646.646,0,0,1,.645.644Z" transform="translate(-244.134 -274.185)" fill="#ff6a76"/>
      <path id="Trazado_1056901" data-name="Trazado 1056901" d="M343.544,372.168a.646.646,0,0,1-.645.644h-5.937a.646.646,0,0,1-.644-.644v-2.324a.646.646,0,0,1,.644-.644H342.9a.646.646,0,0,1,.645.644Z" transform="translate(-292.969 -274.185)" fill="#89c947"/>
      <path id="Trazado_1056902" data-name="Trazado 1056902" d="M399.6,372.168a.646.646,0,0,1-.645.644h-5.937a.646.646,0,0,1-.644-.644v-2.324a.646.646,0,0,1,.644-.644h5.937a.646.646,0,0,1,.645.644Z" transform="translate(-341.803 -274.185)" fill="#0481bf"/>
      <path id="Trazado_1056903" data-name="Trazado 1056903" d="M455.665,372.168a.646.646,0,0,1-.645.644h-5.937a.646.646,0,0,1-.644-.644v-2.324a.646.646,0,0,1,.644-.644h5.937a.646.646,0,0,1,.645.644Z" transform="translate(-390.638 -274.185)" fill="#fcdb80"/>
      <path id="Trazado_1056904" data-name="Trazado 1056904" d="M191.533,344.137a.646.646,0,0,1-.644.644h-5.937a.646.646,0,0,1-.644-.644v-2.324a.646.646,0,0,1,.644-.644h5.937a.646.646,0,0,1,.644.644Z" transform="translate(-160.551 -249.768)" fill="#ff6a76"/>
      <path id="Trazado_1056905" data-name="Trazado 1056905" d="M247.593,344.137a.646.646,0,0,1-.644.644h-5.937a.646.646,0,0,1-.644-.644v-2.324a.646.646,0,0,1,.644-.644h5.937a.646.646,0,0,1,.644.644Z" transform="translate(-209.385 -249.768)" fill="#0481bf"/>
      <path id="Trazado_1056906" data-name="Trazado 1056906" d="M303.654,344.137a.646.646,0,0,1-.644.644h-5.937a.646.646,0,0,1-.645-.644v-2.324a.646.646,0,0,1,.645-.644h5.937a.646.646,0,0,1,.644.644Z" transform="translate(-258.22 -249.768)" fill="#fcdb80"/>
      <path id="Trazado_1056907" data-name="Trazado 1056907" d="M359.716,344.137a.646.646,0,0,1-.644.644h-5.937a.646.646,0,0,1-.644-.644v-2.324a.646.646,0,0,1,.644-.644h5.937a.646.646,0,0,1,.644.644Z" transform="translate(-307.056 -249.768)" fill="#ff6a76"/>
      <g id="Grupo_1225255" data-name="Grupo 1225255" transform="translate(25.84 87.788)">
        <path id="Trazado_1056908" data-name="Trazado 1056908" d="M415.676,342.03l-.743.743a7.919,7.919,0,0,0-3.377-1.553c-.016-.016-.029-.034-.044-.051h-2.318a.646.646,0,0,0-.644.644v2.324a.646.646,0,0,0,.644.644h5.937a.646.646,0,0,0,.644-.644v-2.221A1.322,1.322,0,0,1,415.676,342.03Z" transform="translate(-381.731 -337.556)" fill="#89c947"/>
        <path id="Trazado_1056909" data-name="Trazado 1056909" d="M207.7,316.107a.646.646,0,0,1-.644.644h-5.937a.646.646,0,0,1-.644-.644v-2.324a.646.646,0,0,1,.644-.645h5.937a.646.646,0,0,1,.644.645Z" transform="translate(-200.478 -313.139)" fill="#89c947"/>
      </g>
      <path id="Trazado_1056910" data-name="Trazado 1056910" d="M263.766,316.107a.646.646,0,0,1-.644.644h-5.937a.646.646,0,0,1-.644-.644v-2.324a.646.646,0,0,1,.644-.645h5.937a.646.646,0,0,1,.644.645Z" transform="translate(-223.474 -225.351)" fill="#fcdb80"/>
      <path id="Trazado_1056911" data-name="Trazado 1056911" d="M319.826,316.107a.646.646,0,0,1-.645.644h-5.937a.646.646,0,0,1-.644-.644v-2.324a.646.646,0,0,1,.644-.645h5.937a.646.646,0,0,1,.645.645Z" transform="translate(-272.308 -225.351)" fill="#89c947"/>
      <g id="Grupo_1225256" data-name="Grupo 1225256" transform="translate(35.151 84.175)">
        <path id="Trazado_1056912" data-name="Trazado 1056912" d="M375.256,315.249a1.29,1.29,0,0,1,0-1.824l.236-.236a.64.64,0,0,0-.25-.051h-5.937a.646.646,0,0,0-.644.644v2.324a.646.646,0,0,0,.644.644h5.937a.646.646,0,0,0,.644-.644v-.514A1.276,1.276,0,0,1,375.256,315.249Z" transform="translate(-356.294 -309.526)" fill="#0481bf"/>
        <path id="Trazado_1056913" data-name="Trazado 1056913" d="M279.293,285.108h-4.214a1.288,1.288,0,0,1-1.155.719h-1.051a1.3,1.3,0,0,1-.161-.011v2.26a.646.646,0,0,0,.645.644h5.937a.646.646,0,0,0,.644-.644v-2.324A.647.647,0,0,0,279.293,285.108Z" transform="translate(-272.712 -285.108)" fill="#0481bf"/>
      </g>
      <path id="Trazado_1056914" data-name="Trazado 1056914" d="M336,288.077a.646.646,0,0,1-.645.644h-5.937a.646.646,0,0,1-.645-.644v-2.324a.646.646,0,0,1,.645-.644h5.937a.646.646,0,0,1,.645.644Z" transform="translate(-286.395 -200.934)" fill="#fcdb80"/>
      <path id="Trazado_1056915" data-name="Trazado 1056915" d="M422.946,310.154l-3.107-3.107a1.289,1.289,0,0,0-1.823,0l-.743.743a7.916,7.916,0,0,1,1.553,3.377,1.287,1.287,0,0,1,1.553,1.553,1.29,1.29,0,0,0,1.824,0l.743-.743A1.29,1.29,0,0,0,422.946,310.154Z" transform="translate(-363.161 -219.715)" fill="#ffd5b3"/>
      <path id="Trazado_1056916" data-name="Trazado 1056916" d="M129,425a.646.646,0,0,1-.644.644h-5.937a.646.646,0,0,1-.644-.644v-2.324a.646.646,0,0,1,.644-.644h5.937a.646.646,0,0,1,.644.644Z" transform="translate(-106.081 -320.204)" fill="#89c947"/>
      <path id="Trazado_1056917" data-name="Trazado 1056917" d="M429.165,425a.646.646,0,0,1-.644.644h-5.937a.646.646,0,0,1-.644-.644v-2.324a.646.646,0,0,1,.644-.644h5.937a.646.646,0,0,1,.644.644Z" transform="translate(-367.554 -320.204)" fill="#ff6a76"/>
      <path id="Trazado_1056918" data-name="Trazado 1056918" d="M10.468,341.169a.646.646,0,0,1,.644.644v5.937a.646.646,0,0,1-.644.644H8.144a.646.646,0,0,1-.644-.644v-5.937a.646.646,0,0,1,.644-.644Z" transform="translate(-6.533 -249.768)" fill="#0481bf"/>
      <path id="Trazado_1056919" data-name="Trazado 1056919" d="M286.459,227.97h-2.324a.646.646,0,0,0-.644.644v.481a6.05,6.05,0,0,0,1.112,3.473,1.286,1.286,0,0,0,0,2.2,1.286,1.286,0,0,1-.076.431h1.932a.646.646,0,0,0,.645-.644v-5.937A.647.647,0,0,0,286.459,227.97Z" transform="translate(-246.951 -151.16)" fill="#ff6a76"/>
      <path id="Trazado_1056920" data-name="Trazado 1056920" d="M263.957,237.885c0,.465,0,3.928,0,4.393a1.289,1.289,0,0,0,1.289,1.289H266.3a7.91,7.91,0,0,1,1.289-3.486,1.286,1.286,0,0,1,0-2.2,1.29,1.29,0,0,0-1.289-1.29h-1.051A1.289,1.289,0,0,0,263.957,237.885Z" transform="translate(-229.935 -158.673)" fill="#ffd5b3"/>
      <path id="Trazado_1056921" data-name="Trazado 1056921" d="M143.341,172.468h.3a1.431,1.431,0,0,0,1.427-1.431v-.725a.967.967,0,1,0-1.933,0v.244a.967.967,0,0,0,.2,1.912Z" transform="translate(-124.023 -100.091)"/>
      <path id="Trazado_1056922" data-name="Trazado 1056922" d="M177.6,161.019a.967.967,0,0,0,.967-.967V158.97a.967.967,0,1,0-1.933,0v1.083A.967.967,0,0,0,177.6,161.019Z" transform="translate(-153.864 -90.211)"/>
      <path id="Trazado_1056923" data-name="Trazado 1056923" d="M118.32,161.019a.967.967,0,0,0,.967-.967V158.97a.967.967,0,1,0-1.933,0v1.083A.967.967,0,0,0,118.32,161.019Z" transform="translate(-102.227 -90.211)"/>
      <path id="Trazado_1056924" data-name="Trazado 1056924" d="M124.94,196.891a3.928,3.928,0,0,0,7.289,0,.967.967,0,0,0-1.794-.722,2,2,0,0,1-3.7,0,.967.967,0,0,0-1.794.721Z" transform="translate(-108.775 -122.93)"/>
      <path id="Trazado_1056925" data-name="Trazado 1056925" d="M380.295,169.532h.312a.967.967,0,0,0,.183-1.916v-.272a.967.967,0,0,0-1.933,0v.745A1.443,1.443,0,0,0,380.295,169.532Z" transform="translate(-330.024 -97.506)"/>
      <path id="Trazado_1056926" data-name="Trazado 1056926" d="M350.778,162.04a.967.967,0,0,0,.967-.967v-1.112a.967.967,0,0,0-1.933,0v1.112A.967.967,0,0,0,350.778,162.04Z" transform="translate(-304.723 -91.074)"/>
      <path id="Trazado_1056927" data-name="Trazado 1056927" d="M411.559,162.04a.967.967,0,0,0,.967-.967v-1.112a.967.967,0,1,0-1.933,0v1.112A.967.967,0,0,0,411.559,162.04Z" transform="translate(-357.669 -91.074)"/>
      <path id="Trazado_1056928" data-name="Trazado 1056928" d="M358.3,195.676a1.523,1.523,0,0,0-.152,1.424,4.114,4.114,0,0,0,7.638,0,1.526,1.526,0,0,0-1.417-2.095h-4.8A1.524,1.524,0,0,0,358.3,195.676Zm5.365,1.263a2.183,2.183,0,0,1-3.4,0Z" transform="translate(-311.892 -122.444)"/>
      <path id="Trazado_1056929" data-name="Trazado 1056929" d="M121.825,414.526h-5.937a1.613,1.613,0,0,0-1.611,1.611v2.324a1.613,1.613,0,0,0,1.611,1.611h5.937a1.613,1.613,0,0,0,1.611-1.611v-2.324A1.613,1.613,0,0,0,121.825,414.526Zm-.322,3.613H116.21V416.46H121.5Z" transform="translate(-99.547 -313.67)"/>
      <path id="Trazado_1056930" data-name="Trazado 1056930" d="M421.987,414.526H416.05a1.613,1.613,0,0,0-1.611,1.611v2.324a1.613,1.613,0,0,0,1.611,1.611h5.937a1.613,1.613,0,0,0,1.611-1.611v-2.324A1.613,1.613,0,0,0,421.987,414.526Zm-.322,3.613h-5.292V416.46h5.292Z" transform="translate(-361.021 -313.67)"/>
      <path id="Trazado_1056931" data-name="Trazado 1056931" d="M3.935,333.669H1.611A1.613,1.613,0,0,0,0,335.28v5.937a1.613,1.613,0,0,0,1.611,1.611H3.935a1.613,1.613,0,0,0,1.611-1.611V335.28A1.613,1.613,0,0,0,3.935,333.669Zm-.322,7.226H1.933V335.6H3.613S3.613,340.895,3.613,340.895Z" transform="translate(0 -243.235)"/>
      <path id="Trazado_1056932" data-name="Trazado 1056932" d="M106.645,94.047h-3.53V92.432a2.259,2.259,0,0,0-.383-2.677l-1.34-1.34V85.086a9.177,9.177,0,0,0-.118-1.467.967.967,0,1,0-1.908.31,7.244,7.244,0,0,1,.093,1.157V86.5a2.256,2.256,0,0,0-3.024.151l-.173.173h-3.43v-2a1.613,1.613,0,0,0-1.611-1.611H85.262a7.228,7.228,0,0,1,2.857-4.038q.382.187.782.339a3.338,3.338,0,0,0,6.667,0q.4-.152.782-.339a7.234,7.234,0,0,1,1.374,1.237.967.967,0,0,0,1.467-1.259,9.164,9.164,0,0,0-1.1-1.08,9.591,9.591,0,0,0,3.4-5.475h.135a2.9,2.9,0,0,0,2.9-2.9V67.914a2.9,2.9,0,0,0-1.775-2.673v-.3a10.481,10.481,0,0,0-1.4-5.241.967.967,0,1,0-1.674.968,8.545,8.545,0,0,1,1.143,4.273v.069h-.086c0,.013,0,.026,0,.039H97.3V64a.967.967,0,1,0-1.933,0v1.056H93.254V64a.967.967,0,1,0-1.933,0v1.056H89.206V64a.967.967,0,1,0-1.933,0v1.056H83.73c0-.013,0-.026,0-.039h-.086v-.069a8.595,8.595,0,0,1,13.49-7.036.967.967,0,1,0,1.1-1.588,10.528,10.528,0,0,0-16.526,8.624v.3a2.9,2.9,0,0,0-1.775,2.673v1.781a2.9,2.9,0,0,0,2.9,2.9h.135a9.591,9.591,0,0,0,3.4,5.476,9.152,9.152,0,0,0-2.995,4.679V77.455a1.613,1.613,0,0,0-1.611-1.611H79.447a1.613,1.613,0,0,0-1.531,1.112h-.342a2.259,2.259,0,0,0-2.256,2.256c0,.465,0,3.929,0,4.394a2.245,2.245,0,0,0,1.128,1.952v1.264h-.473a1.6,1.6,0,0,0-.644.135,1.6,1.6,0,0,0-.644-.135H74.4a2.256,2.256,0,0,0-.574-2.207l-3.107-3.107a2.242,2.242,0,0,0-1-.58,9.162,9.162,0,0,0-2.335-3.489,9.359,9.359,0,0,0,2.843-4.468h.1a2.768,2.768,0,0,0,2.765-2.764v-1.9a2.766,2.766,0,0,0-1.484-2.448c0-.008,0-.016,0-.024v-.373a10.115,10.115,0,0,0-.867-4.117.967.967,0,0,0-1.768.782,8.2,8.2,0,0,1,.7,3.335v.08H62.043l-2.3-2a.967.967,0,0,0-1.416.161l-1.335,1.835H52.97v-.08A8.357,8.357,0,0,1,66.536,58.97a.967.967,0,0,0,1.205-1.512,10.29,10.29,0,0,0-16.7,8s.008.529.018.605a2.76,2.76,0,0,0-1.15,2.239v1.9a2.768,2.768,0,0,0,2.51,2.751,9.366,9.366,0,0,0,2.663,4.316,9.1,9.1,0,0,0-3.094,6.838v.31a2.257,2.257,0,0,0,0,2.945v3.085A1.612,1.612,0,0,0,50.6,92.046v2h-.473a1.613,1.613,0,0,0-1.611,1.611v2.324a1.613,1.613,0,0,0,1.611,1.611h5.937a1.6,1.6,0,0,0,.644-.135,1.6,1.6,0,0,0,.644.135H63.29a1.6,1.6,0,0,0,.644-.135,1.6,1.6,0,0,0,.644.135h5.937a1.6,1.6,0,0,0,.644-.135,1.6,1.6,0,0,0,.644.135h5.937a1.6,1.6,0,0,0,.644-.135,1.6,1.6,0,0,0,.644.135h5.937a1.6,1.6,0,0,0,.644-.135,1.6,1.6,0,0,0,.644.135h5.937a1.6,1.6,0,0,0,.644-.135,1.6,1.6,0,0,0,.644.135h5.937a1.6,1.6,0,0,0,.644-.135,1.6,1.6,0,0,0,.644.135h5.937a1.613,1.613,0,0,0,1.611-1.611V95.659A1.613,1.613,0,0,0,106.645,94.047Zm-4.929-23.488V66.986h.075c.032,0,.063,0,.094,0a.967.967,0,0,1,.715.932v1.781a.967.967,0,0,1-.886.963C101.713,70.624,101.716,70.592,101.716,70.559ZM81.87,69.694V67.914a.967.967,0,0,1,.715-.932c.031,0,.062,0,.094,0h.075v3.573c0,.033,0,.065,0,.1A.968.968,0,0,1,81.87,69.694ZM92.235,80.75a1.405,1.405,0,0,1-1.219-.707,9.394,9.394,0,0,0,2.437,0A1.405,1.405,0,0,1,92.235,80.75ZM84.687,70.559V66.986h15.1v3.573a7.548,7.548,0,1,1-15.1,0ZM95.558,90.434H90.747V88.755h4.3A2.255,2.255,0,0,0,95.558,90.434ZM83.521,88.755h5.292v1.679H83.521ZM90.9,86.821H85.606V85.142H90.9Zm-9.449-3.752h-.632a2.23,2.23,0,0,0-.22-.563,2.266,2.266,0,0,0,0-2.2,2.257,2.257,0,0,0-.232-2.533h1.084v5.292Zm-4.2-3.858a.323.323,0,0,1,.323-.323h1.05a.322.322,0,0,1,.167.6.967.967,0,0,0,0,1.648.32.32,0,0,1,0,.549.967.967,0,0,0,0,1.648.322.322,0,0,1-.167.6h-1.05a.322.322,0,0,1-.322-.323C77.252,83.139,77.252,79.677,77.252,79.212Zm1.128,6.649h.245a2.248,2.248,0,0,0,1.646-.719h3.4v1.679H78.38ZM76.3,88.755h5.292v1.679H76.3V88.755ZM59.91,90.434H54.618v-1.55a2.24,2.24,0,0,0,.59-.13h4.7v1.679Zm-2.142-6.675a.314.314,0,0,1-.226.093.337.337,0,0,1-.078-.009A.967.967,0,0,0,56.3,85.009a.321.321,0,0,1-.084.3.315.315,0,0,1-.227.093.333.333,0,0,1-.078-.009.967.967,0,0,0-1.165,1.165.322.322,0,0,1-.54.3l-.743-.743a.323.323,0,0,1,0-.456l3.107-3.106a.323.323,0,0,1,.456,0l.743.743A.323.323,0,0,1,57.768,83.759Zm-.344,3.062c.054-.045.107-.092.157-.142a2.248,2.248,0,0,0,.576-.979,2.24,2.24,0,0,0,.96-.559h2.876v1.679h-4.57Zm4.419,1.933h5.292v1.679H61.844Zm2.084-1.933V85.142H66.54a2.221,2.221,0,0,0,1.225.873,2.241,2.241,0,0,0,.422.806Zm5.141,1.933h1.068a2.238,2.238,0,0,0,1.352.453h0a2.237,2.237,0,0,0,1.352-.453h1.519v1.679H69.069V88.755Zm3.391-2.774a.322.322,0,0,1,0,.456l-.742.743a.321.321,0,0,1-.228.094h0a.321.321,0,0,1-.312-.4.967.967,0,0,0-1.165-1.165.332.332,0,0,1-.077.009.314.314,0,0,1-.226-.093.322.322,0,0,1-.084-.3.967.967,0,0,0-1.165-1.165.337.337,0,0,1-.078.009.314.314,0,0,1-.226-.093.323.323,0,0,1,0-.456l.743-.743a.323.323,0,0,1,.457,0Zm-1.3-15.774a.833.833,0,0,1-.588.794c.013-.2.022-.408.022-.615V67.518a.832.832,0,0,1,.566.787v1.9Zm-16.711,2.76a.966.966,0,0,0-.083-1.929h-1.7a.832.832,0,0,1-.832-.831v-1.9a.832.832,0,0,1,.832-.831h.667v1.472a.967.967,0,0,0,1.933,0V67.474H57.14a1.649,1.649,0,0,0,1.33-.677l.8-1.1,1.585,1.376a1.645,1.645,0,0,0,1.079.4h6.726v2.912a7.327,7.327,0,0,1-14.211,2.581Zm8.022,6.68a1.347,1.347,0,0,1-2.294,0,9.068,9.068,0,0,0,2.294,0Zm-5.8-1.19a9.19,9.19,0,0,0,1.375.66,3.28,3.28,0,0,0,6.55,0,9.19,9.19,0,0,0,1.163-.538,7.242,7.242,0,0,1,2.025,2.71,2.274,2.274,0,0,0-.256.217l-.743.743a2.242,2.242,0,0,0-.568.958H63.606a1.6,1.6,0,0,0-.644.135,1.6,1.6,0,0,0-.644-.135H59.769a2.242,2.242,0,0,0-.634-1.273l-.743-.743a2.256,2.256,0,0,0-3.19,0L54.17,82.225A7.22,7.22,0,0,1,56.674,78.458Zm-.932,19.2H50.449v-1.68h5.292Zm-3.208-3.613V92.368h5.292v1.679ZM62.968,97.66H57.675v-1.68h5.292Zm-3.208-3.613V92.368h5.292v1.679ZM70.193,97.66H64.9v-1.68h5.292Zm-3.208-3.613V92.368h5.292v1.679ZM77.419,97.66H72.127v-1.68h5.292Zm-3.208-3.613V92.368H79.5v1.679ZM84.645,97.66H79.353v-1.68h5.292Zm-3.208-3.613V92.368h5.292v1.679ZM91.871,97.66H86.578v-1.68h5.292Zm-3.208-3.613V92.368h5.292v1.679ZM99.1,97.66H93.8v-1.68H99.1Zm-3.208-3.613V92.368h1.63a2.227,2.227,0,0,0,.7.342,2.249,2.249,0,0,0,1.047,1.337Zm4.733-1.726a.322.322,0,0,1-.541-.3.967.967,0,0,0-1.166-1.165.334.334,0,0,1-.078.009.314.314,0,0,1-.226-.093.321.321,0,0,1-.084-.3A.967.967,0,0,0,97.363,89.3a.339.339,0,0,1-.078.009.314.314,0,0,1-.226-.093.323.323,0,0,1,0-.457l.743-.743a.323.323,0,0,1,.457,0l3.106,3.106a.323.323,0,0,1,0,.457Zm5.7,5.339H101.03v-1.68h5.292Z" transform="translate(-42.263)"/>
    </g>
  </g>
</svg>
