<svg xmlns="http://www.w3.org/2000/svg" xmlns:xlink="http://www.w3.org/1999/xlink" width="113" height="113" viewBox="0 0 113 113">
  <defs>
    <filter id="Trazado_982547" x="0" y="0" width="113" height="113" filterUnits="userSpaceOnUse">
      <feOffset dy="3" input="SourceAlpha"/>
      <feGaussianBlur stdDeviation="3" result="blur"/>
      <feFlood flood-opacity="0.161"/>
      <feComposite operator="in" in2="blur"/>
      <feComposite in="SourceGraphic"/>
    </filter>
  </defs>
  <g id="Grupo_1225364" data-name="Grupo 1225364" transform="translate(-1112.742 -9764.716)">
    <g id="Grupo_1225201" data-name="Grupo 1225201" transform="translate(1121.742 9770.716)">
      <g id="Grupo_1209304" data-name="Grupo 1209304" transform="translate(0 0)">
        <g id="Grupo_1208492" data-name="Grupo 1208492">
          <g id="Grupo_1177675" data-name="Grupo 1177675">
            <g id="Grupo_1176928" data-name="Grupo 1176928">
              <g id="Grupo_1172322" data-name="Grupo 1172322">
                <g id="Grupo_1164700" data-name="Grupo 1164700">
                  <g id="Grupo_1160931" data-name="Grupo 1160931">
                    <g id="Grupo_1160749" data-name="Grupo 1160749">
                      <g id="Grupo_1158891" data-name="Grupo 1158891">
                        <g id="Grupo_1157406" data-name="Grupo 1157406">
                          <g id="Grupo_1155793" data-name="Grupo 1155793">
                            <g id="Grupo_1154704" data-name="Grupo 1154704">
                              <g id="Grupo_1150790" data-name="Grupo 1150790">
                                <g id="Grupo_1154214" data-name="Grupo 1154214">
                                  <g id="Grupo_1152583" data-name="Grupo 1152583">
                                    <g id="Grupo_1146973" data-name="Grupo 1146973">
                                      <g id="Grupo_1146954" data-name="Grupo 1146954">
                                        <g transform="matrix(1, 0, 0, 1, -9, -6)" filter="url(#Trazado_982547)">
                                          <g id="Trazado_982547-2" data-name="Trazado 982547" transform="translate(9 6)" fill="#fcf8db">
                                            <path d="M 47.5000114440918 93.49987030029297 C 41.28938293457031 93.49987030029297 35.26534652709961 92.28384399414062 29.5951976776123 89.88558959960938 C 24.11773109436035 87.56881713867188 19.19814491271973 84.25183868408203 14.97310447692871 80.02680206298828 C 10.74805164337158 75.80176544189453 7.43107795715332 70.88218688964844 5.114304542541504 65.40472412109375 C 2.716038227081299 59.73458862304688 1.500011444091797 53.71054840087891 1.500011444091797 47.49993515014648 C 1.500011444091797 41.28932189941406 2.716038227081299 35.26528167724609 5.114304542541504 29.59514808654785 C 7.43107795715332 24.1176815032959 10.74805164337158 19.1981086730957 14.97310447692871 14.97306823730469 C 19.19814491271973 10.74802875518799 24.11773109436035 7.431055068969727 29.5951976776123 5.11428165435791 C 35.26534652709961 2.716028451919556 41.28938293457031 1.500001788139343 47.5000114440918 1.500001788139343 C 53.71063995361328 1.500001788139343 59.73467636108398 2.716028451919556 65.40482330322266 5.11428165435791 C 70.88229370117188 7.431055068969727 75.8018798828125 10.74802875518799 80.02691650390625 14.97306823730469 C 84.25196838378906 19.1981086730957 87.56894683837891 24.1176815032959 89.88571929931641 29.59514808654785 C 92.28398132324219 35.26528167724609 93.50001525878906 41.28932189941406 93.50001525878906 47.49993515014648 C 93.50001525878906 53.71054840087891 92.28398132324219 59.73458862304688 89.88571929931641 65.40472412109375 C 87.56894683837891 70.88218688964844 84.25196838378906 75.80176544189453 80.02691650390625 80.02680206298828 C 75.8018798828125 84.25183868408203 70.88229370117188 87.56881713867188 65.40482330322266 89.88558959960938 C 59.73467636108398 92.28384399414062 53.71063995361328 93.49987030029297 47.5000114440918 93.49987030029297 Z" stroke="none"/>
                                            <path d="M 47.5000114440918 3 C 41.49122619628906 3 35.66378021240234 4.1761474609375 30.17951965332031 6.495796203613281 C 24.880859375 8.7369384765625 20.12153625488281 11.94596862792969 16.03376770019531 16.03373718261719 C 11.94598388671875 20.12149047851562 8.736968994140625 24.88081359863281 6.495811462402344 30.17947387695312 C 4.176162719726562 35.66371917724609 3.000007629394531 41.49116516113281 3.000007629394531 47.49993515014648 C 3.000007629394531 53.50870513916016 4.176162719726562 59.33615112304688 6.495811462402344 64.82039642333984 C 8.736968994140625 70.11905670166016 11.94598388671875 74.87837982177734 16.03376770019531 78.96613311767578 C 20.12153625488281 83.05390167236328 24.880859375 86.26293182373047 30.17951965332031 88.50407409667969 C 35.66378021240234 90.82372283935547 41.49122619628906 91.99987030029297 47.5000114440918 91.99987030029297 C 53.50879669189453 91.99987030029297 59.33624267578125 90.82372283935547 64.82050323486328 88.50407409667969 C 70.11916351318359 86.26293182373047 74.87848663330078 83.05390167236328 78.96625518798828 78.96613311767578 C 83.05403900146484 74.87837982177734 86.2630615234375 70.11905670166016 88.50421142578125 64.82039642333984 C 90.82386016845703 59.33615112304688 92.00001525878906 53.50870513916016 92.00001525878906 47.49993515014648 C 92.00001525878906 41.49116516113281 90.82386016845703 35.66371917724609 88.50421142578125 30.17947387695312 C 86.2630615234375 24.88081359863281 83.05403900146484 20.12149047851562 78.96625518798828 16.03373718261719 C 74.87848663330078 11.94596862792969 70.11916351318359 8.7369384765625 64.82050323486328 6.495796203613281 C 59.33624267578125 4.1761474609375 53.50879669189453 3 47.5000114440918 3 M 47.5000114440918 0 C 73.73353576660156 0 95.00001525878906 21.26644134521484 95.00001525878906 47.49993515014648 C 95.00001525878906 73.73342895507812 73.73353576660156 94.99987030029297 47.5000114440918 94.99987030029297 C 21.26648712158203 94.99987030029297 7.62939453125e-06 73.73342895507812 7.62939453125e-06 47.49993515014648 C 7.62939453125e-06 21.26644134521484 21.26648712158203 0 47.5000114440918 0 Z" stroke="none" fill="#83793c"/>
                                          </g>
                                        </g>
                                      </g>
                                    </g>
                                  </g>
                                </g>
                              </g>
                            </g>
                          </g>
                        </g>
                      </g>
                    </g>
                  </g>
                </g>
              </g>
            </g>
          </g>
        </g>
      </g>
    </g>
    <g id="mind_14752669_1_" data-name="mind_14752669 (1)" transform="translate(1074.992 9774.379)">
      <g id="Grupo_1225360" data-name="Grupo 1225360" transform="translate(67.134 7.5)">
        <path id="Trazado_1057266" data-name="Trazado 1057266" d="M123.089,275a32.125,32.125,0,0,0,2.478,8.805,28.574,28.574,0,0,0,3.739,5.944,2.2,2.2,0,0,1-.254,3.012,20.069,20.069,0,0,1-5.728,3.515,19.335,19.335,0,0,1-11.567,1.216H95.649a19.334,19.334,0,0,1-11.567-1.216,20.069,20.069,0,0,1-5.728-3.515,2.2,2.2,0,0,1-.254-3.012,28.567,28.567,0,0,0,3.739-5.944A32.125,32.125,0,0,0,84.316,275Z" transform="translate(-76.086 -235.885)" fill="#da9d81"/>
        <path id="Trazado_1057267" data-name="Trazado 1057267" d="M149.407,295.112c-3.138-4.445-5.45-10.819-5.267-14.46V275H110.617v5.652c.183,3.641-2.13,10.015-5.267,14.46a22.025,22.025,0,0,0,2.407,1.164,19.335,19.335,0,0,0,11.567,1.216h16.108A19.334,19.334,0,0,0,147,296.276,22.012,22.012,0,0,0,149.407,295.112Z" transform="translate(-99.762 -235.885)" fill="#c7856a"/>
        <circle id="Elipse_13609" data-name="Elipse 13609" cx="6.512" cy="6.512" r="6.512" transform="translate(0 33.985)" fill="#ffbe9c"/>
        <circle id="Elipse_13610" data-name="Elipse 13610" cx="6.512" cy="6.512" r="6.512" transform="translate(42.209 33.985)" fill="#ffcabd"/>
        <path id="Trazado_1057268" data-name="Trazado 1057268" d="M161.214,391.528a4.571,4.571,0,0,0,4.375-5.941,19.356,19.356,0,0,0-36.838,0,4.571,4.571,0,0,0,4.375,5.941Z" transform="translate(-119.553 -318.856)" fill="#ff96c0"/>
        <path id="Trazado_1057269" data-name="Trazado 1057269" d="M203.432,372.179l-9,8.59a28.918,28.918,0,0,0,18.006,0Z" transform="translate(-175.816 -318.855)" fill="#ff71a7"/>
        <path id="Trazado_1057270" data-name="Trazado 1057270" d="M194.776,382.193a14.992,14.992,0,0,1,1.26,3.6,23.845,23.845,0,0,1,.572,3.394,2.723,2.723,0,0,1-3.477,2.858,19.061,19.061,0,0,1-5.028-2.372,17.191,17.191,0,0,1-3.755-3.3,17.19,17.19,0,0,1-3.755,3.3,19.06,19.06,0,0,1-5.028,2.372,2.723,2.723,0,0,1-3.477-2.858,23.875,23.875,0,0,1,.572-3.394,14.992,14.992,0,0,1,1.26-3.6Z" transform="translate(-156.731 -327.404)" fill="#eeecff"/>
        <path id="Trazado_1057271" data-name="Trazado 1057271" d="M196.884,385.794a14.99,14.99,0,0,0-1.26-3.6H174.767a14.99,14.99,0,0,0-1.26,3.6c-.175.726-.326,1.5-.438,2.266a27.229,27.229,0,0,0,7.266,2.291c.374-.214.744-.439,1.105-.677a17.2,17.2,0,0,0,3.755-3.3,17.187,17.187,0,0,0,3.755,3.3c.361.238.731.463,1.105.677a27.229,27.229,0,0,0,7.266-2.291C197.21,387.291,197.059,386.52,196.884,385.794Z" transform="translate(-157.579 -327.405)" fill="#d3d3ff"/>
        <path id="Trazado_1057272" data-name="Trazado 1057272" d="M134.371,146.177a21.253,21.253,0,0,1,13.908,5.107,19.6,19.6,0,0,1,6.923,14.881,17.561,17.561,0,0,1-4.674,12.1,23.082,23.082,0,0,1-32.314,0,17.561,17.561,0,0,1-4.674-12.1,19.6,19.6,0,0,1,6.923-14.881A21.253,21.253,0,0,1,134.371,146.177Z" transform="translate(-106.754 -125.899)" fill="#ffdcce"/>
        <path id="Trazado_1057273" data-name="Trazado 1057273" d="M134.817,163.878a21.191,21.191,0,0,0,16.646-9.143,20.4,20.4,0,0,0-3.185-3.453,21.489,21.489,0,0,0-27.815,0,19.6,19.6,0,0,0-6.923,14.881,17.561,17.561,0,0,0,4.674,12.1,21.8,21.8,0,0,0,16.157,6.6,25.3,25.3,0,0,0,2.9-.167c-5.527-4.321-5.429-15.423-3.38-20.177A1.052,1.052,0,0,1,134.817,163.878Z" transform="translate(-106.754 -125.898)" fill="#ffcabd"/>
        <path id="Trazado_1057274" data-name="Trazado 1057274" d="M125.889,151.166a17.145,17.145,0,0,1,10.179,3.072,17.456,17.456,0,0,1,5.972,8.03,2.2,2.2,0,0,1-2.048,2.976,26.589,26.589,0,0,1-8.314-1.427,21.276,21.276,0,0,1-8.509-5.18h-9.016a21.278,21.278,0,0,1-8.509,5.18,26.593,26.593,0,0,1-8.314,1.427,2.2,2.2,0,0,1-2.048-2.976,17.456,17.456,0,0,1,5.972-8.03,17.145,17.145,0,0,1,10.179-3.072Z" transform="translate(-91.045 -130.159)" fill="#da9d81"/>
        <path id="Trazado_1057275" data-name="Trazado 1057275" d="M161.224,155.574a15.486,15.486,0,0,0-1.612-1.337,17.145,17.145,0,0,0-10.179-3.072H134.977a17.145,17.145,0,0,0-10.179,3.072,15.607,15.607,0,0,0-2.082,1.8,21.328,21.328,0,0,0,6.362,7.813l.11-.036a21.277,21.277,0,0,0,8.509-5.18h9.016a21.092,21.092,0,0,0,8.148,5.053A21.317,21.317,0,0,0,161.224,155.574Z" transform="translate(-114.589 -130.159)" fill="#c7856a"/>
        <circle id="Elipse_13611" data-name="Elipse 13611" cx="16.805" cy="16.805" r="16.805" transform="translate(10.469 0)" fill="#59d5ff"/>
        <path id="Trazado_1057276" data-name="Trazado 1057276" d="M155.538,7.5a16.8,16.8,0,1,0,0,33.61q.605,0,1.2-.043c-1.786-1.594-1.844-5.531-.549-6.675l.276-18.788c-1.086-1.665-1.548-5.877-.023-8.08Q155.993,7.5,155.538,7.5Z" transform="translate(-128.264 -7.5)" fill="#00c4fc"/>
        <path id="Trazado_1057277" data-name="Trazado 1057277" d="M197.82,58.481l-1.431-.651a1.514,1.514,0,0,1-.813-.911l-.631-1.943a1.514,1.514,0,0,1,.123-1.215l.775-1.367a1.515,1.515,0,0,0-.427-1.972l-2.856-2.075a1.515,1.515,0,0,0-2.008.2l-1.061,1.16a1.514,1.514,0,0,1-1.117.492H186.33a1.514,1.514,0,0,1-1.117-.492l-1.061-1.16a1.514,1.514,0,0,0-2.008-.2l-2.856,2.075a1.515,1.515,0,0,0-.427,1.972l.775,1.367a1.515,1.515,0,0,1,.123,1.215l-.631,1.943a1.515,1.515,0,0,1-.813.911l-1.431.651a1.515,1.515,0,0,0-.813,1.847l1.091,3.357A1.514,1.514,0,0,0,178.9,64.7l1.54-.315a1.515,1.515,0,0,1,1.193.259l1.653,1.2A1.515,1.515,0,0,1,183.9,66.9l.177,1.562a1.514,1.514,0,0,0,1.5,1.344h3.53a1.515,1.515,0,0,0,1.5-1.344L190.8,66.9a1.514,1.514,0,0,1,.615-1.055l1.653-1.2a1.514,1.514,0,0,1,1.193-.259l1.54.315a1.515,1.515,0,0,0,1.744-1.016l1.091-3.357A1.514,1.514,0,0,0,197.82,58.481Z" transform="translate(-160.077 -42.128)" fill="#5d84d9"/>
        <path id="Trazado_1057278" data-name="Trazado 1057278" d="M187.644,61.176l.05-5.32c-.95-.641-1.463-4.018-.188-5.651H186.33a1.514,1.514,0,0,1-1.117-.492l-1.061-1.16a1.514,1.514,0,0,0-2.008-.2l-2.856,2.075a1.515,1.515,0,0,0-.427,1.972l.775,1.367a1.515,1.515,0,0,1,.123,1.215l-.631,1.943a1.515,1.515,0,0,1-.813.911l-1.431.651a1.515,1.515,0,0,0-.813,1.847l1.091,3.357A1.514,1.514,0,0,0,178.9,64.7l1.54-.315a1.515,1.515,0,0,1,1.193.259l1.653,1.2A1.515,1.515,0,0,1,183.9,66.9l.177,1.562a1.514,1.514,0,0,0,1.5,1.344h2.566C186.867,68.568,186.225,62.85,187.644,61.176Z" transform="translate(-160.077 -42.13)" fill="#0070c7"/>
        <circle id="Elipse_13612" data-name="Elipse 13612" cx="2.994" cy="2.994" r="2.994" transform="translate(24.28 13.396)" fill="#eeecff"/>
      </g>
      <g id="Grupo_1225363" data-name="Grupo 1225363" transform="translate(67.134 7.5)">
        <path id="Trazado_1057279" data-name="Trazado 1057279" d="M169.089,14.365a16.728,16.728,0,1,0,2.391,4.611" transform="translate(-128.264 -7.5)" fill="none" stroke="#000" stroke-linecap="round" stroke-linejoin="round" stroke-miterlimit="10" stroke-width="1.2"/>
        <path id="Trazado_1057280" data-name="Trazado 1057280" d="M197.82,58.481l-1.431-.651a1.514,1.514,0,0,1-.813-.911l-.631-1.943a1.514,1.514,0,0,1,.123-1.215l.775-1.367a1.515,1.515,0,0,0-.427-1.972l-2.856-2.075a1.515,1.515,0,0,0-2.008.2l-1.061,1.16a1.514,1.514,0,0,1-1.117.492H186.33a1.514,1.514,0,0,1-1.117-.492l-1.061-1.16a1.514,1.514,0,0,0-2.008-.2l-2.856,2.075a1.515,1.515,0,0,0-.427,1.972l.775,1.367a1.515,1.515,0,0,1,.123,1.215l-.631,1.943a1.515,1.515,0,0,1-.813.911l-1.431.651a1.515,1.515,0,0,0-.813,1.847l1.091,3.357A1.514,1.514,0,0,0,178.9,64.7l1.54-.315a1.515,1.515,0,0,1,1.193.259l1.653,1.2A1.515,1.515,0,0,1,183.9,66.9l.177,1.562a1.514,1.514,0,0,0,1.5,1.344h3.53a1.515,1.515,0,0,0,1.5-1.344L190.8,66.9a1.514,1.514,0,0,1,.615-1.055l1.653-1.2a1.514,1.514,0,0,1,1.193-.259l1.54.315a1.515,1.515,0,0,0,1.744-1.016l1.091-3.357A1.514,1.514,0,0,0,197.82,58.481Z" transform="translate(-160.077 -42.128)" fill="none" stroke="#000" stroke-linecap="round" stroke-linejoin="round" stroke-miterlimit="10" stroke-width="1.2"/>
        <circle id="Elipse_13613" data-name="Elipse 13613" cx="2.994" cy="2.994" r="2.994" transform="translate(24.28 13.396)" fill="none" stroke="#000" stroke-linecap="round" stroke-linejoin="round" stroke-miterlimit="10" stroke-width="1.2"/>
        <g id="Grupo_1225361" data-name="Grupo 1225361" transform="translate(4.095 22.831)">
          <path id="Trazado_1057281" data-name="Trazado 1057281" d="M102.746,165.687a15.325,15.325,0,0,0-1.493.948,17.456,17.456,0,0,0-5.972,8.03,2.2,2.2,0,0,0,2.048,2.976,26.593,26.593,0,0,0,8.314-1.427,23.921,23.921,0,0,0,4.6-2.11" transform="translate(-95.14 -165.387)" fill="none" stroke="#000" stroke-linecap="round" stroke-linejoin="round" stroke-miterlimit="10" stroke-width="1.2"/>
          <path id="Trazado_1057282" data-name="Trazado 1057282" d="M311.291,172.152a23.705,23.705,0,0,0,4.932,2.311,26.6,26.6,0,0,0,8.314,1.427,2.2,2.2,0,0,0,2.048-2.976,17.455,17.455,0,0,0-5.972-8.03,15.324,15.324,0,0,0-2.059-1.248" transform="translate(-279.685 -163.637)" fill="none" stroke="#000" stroke-linecap="round" stroke-linejoin="round" stroke-miterlimit="10" stroke-width="1.2"/>
        </g>
        <path id="Trazado_1057283" data-name="Trazado 1057283" d="M114.258,247.206a19.252,19.252,0,0,0-.718,5.216,17.561,17.561,0,0,0,4.674,12.1,23.082,23.082,0,0,0,32.314,0,17.561,17.561,0,0,0,4.674-12.1,19.252,19.252,0,0,0-.718-5.216" transform="translate(-106.754 -212.156)" fill="none" stroke="#000" stroke-linecap="round" stroke-linejoin="round" stroke-miterlimit="10" stroke-width="1.2"/>
        <path id="Trazado_1057284" data-name="Trazado 1057284" d="M71.724,241.893a6.512,6.512,0,0,0,3.4,12.564" transform="translate(-67.134 -207.619)" fill="none" stroke="#000" stroke-linecap="round" stroke-linejoin="round" stroke-miterlimit="10" stroke-width="1.2"/>
        <path id="Trazado_1057285" data-name="Trazado 1057285" d="M393.6,241.893a6.512,6.512,0,0,1-3.4,12.564" transform="translate(-342.957 -207.619)" fill="none" stroke="#000" stroke-linecap="round" stroke-linejoin="round" stroke-miterlimit="10" stroke-width="1.2"/>
        <path id="Trazado_1057286" data-name="Trazado 1057286" d="M195.424,392.381c.215.615.427,1.338.613,2.112a23.867,23.867,0,0,1,.572,3.394,2.723,2.723,0,0,1-3.477,2.857,19.064,19.064,0,0,1-5.028-2.372,17.19,17.19,0,0,1-3.755-3.3,17.191,17.191,0,0,1-3.755,3.3,19.06,19.06,0,0,1-5.028,2.372,2.723,2.723,0,0,1-3.477-2.857,23.876,23.876,0,0,1,.572-3.394c.186-.774.4-1.5.613-2.112" transform="translate(-156.732 -336.103)" fill="none" stroke="#000" stroke-linecap="round" stroke-linejoin="round" stroke-miterlimit="10" stroke-width="1.2"/>
        <path id="Trazado_1057287" data-name="Trazado 1057287" d="M227.385,412.817h18.229a4.571,4.571,0,0,0,4.374-5.941,19.386,19.386,0,0,0-7.117-9.761" transform="translate(-203.953 -340.145)" fill="none" stroke="#000" stroke-linecap="round" stroke-linejoin="round" stroke-miterlimit="10" stroke-width="1.2"/>
        <path id="Trazado_1057288" data-name="Trazado 1057288" d="M135.868,397.114a19.387,19.387,0,0,0-7.117,9.761,4.571,4.571,0,0,0,4.375,5.941h4.65" transform="translate(-119.553 -340.144)" fill="none" stroke="#000" stroke-linecap="round" stroke-linejoin="round" stroke-miterlimit="10" stroke-width="1.2"/>
        <path id="Trazado_1057289" data-name="Trazado 1057289" d="M364.339,343.487a22.377,22.377,0,0,0,3.78-1.176,20.072,20.072,0,0,0,5.728-3.515,2.2,2.2,0,0,0,.254-3.012,28.567,28.567,0,0,1-3.739-5.944q-.21-.455-.4-.921" transform="translate(-320.881 -281.92)" fill="none" stroke="#000" stroke-linecap="round" stroke-linejoin="round" stroke-miterlimit="10" stroke-width="1.2"/>
        <path id="Trazado_1057290" data-name="Trazado 1057290" d="M82.24,328.918q-.193.467-.4.921a28.573,28.573,0,0,1-3.739,5.944,2.2,2.2,0,0,0,.254,3.012,20.067,20.067,0,0,0,5.728,3.515,22.376,22.376,0,0,0,3.78,1.176" transform="translate(-76.086 -281.919)" fill="none" stroke="#000" stroke-linecap="round" stroke-linejoin="round" stroke-miterlimit="10" stroke-width="1.2"/>
        <g id="Grupo_1225362" data-name="Grupo 1225362" transform="translate(16.608 40.401)">
          <path id="Trazado_1057291" data-name="Trazado 1057291" d="M184.738,285.813a2.013,2.013,0,0,0-4.025,0" transform="translate(-180.713 -283.8)" fill="none" stroke="#000" stroke-linecap="round" stroke-linejoin="round" stroke-miterlimit="10" stroke-width="1.2"/>
          <path id="Trazado_1057292" data-name="Trazado 1057292" d="M303.757,285.813a2.013,2.013,0,0,1,4.026,0" transform="translate(-285.765 -283.8)" fill="none" stroke="#000" stroke-linecap="round" stroke-linejoin="round" stroke-miterlimit="10" stroke-width="1.2"/>
          <path id="Trazado_1057293" data-name="Trazado 1057293" d="M241.4,313.653a2.829,2.829,0,0,0,4.27,0" transform="translate(-232.525 -309.288)" fill="none" stroke="#000" stroke-linecap="round" stroke-linejoin="round" stroke-miterlimit="10" stroke-width="1.2"/>
        </g>
      </g>
    </g>
  </g>
</svg>
