<svg xmlns="http://www.w3.org/2000/svg" xmlns:xlink="http://www.w3.org/1999/xlink" width="113" height="113" viewBox="0 0 113 113">
  <defs>
    <filter id="Trazado_982547" x="0" y="0" width="113" height="113" filterUnits="userSpaceOnUse">
      <feOffset dy="3" input="SourceAlpha"/>
      <feGaussianBlur stdDeviation="3" result="blur"/>
      <feFlood flood-opacity="0.161"/>
      <feComposite operator="in" in2="blur"/>
      <feComposite in="SourceGraphic"/>
    </filter>
  </defs>
  <g id="Grupo_1225415" data-name="Grupo 1225415" transform="translate(-3346.742 -5261.957)">
    <g id="Grupo_1225183" data-name="Grupo 1225183" transform="translate(2553.252 3528)">
      <g id="Grupo_1209304" data-name="Grupo 1209304" transform="translate(0 503.742)">
        <g id="Grupo_1208492" data-name="Grupo 1208492" transform="translate(0 -4397.209)">
          <g id="Grupo_1177675" data-name="Grupo 1177675" transform="translate(-4493 3707.152)">
            <g id="Grupo_1176928" data-name="Grupo 1176928" transform="translate(5295.49 1926.273)">
              <g id="Grupo_1172322" data-name="Grupo 1172322" transform="translate(0 0)">
                <g id="Grupo_1164700" data-name="Grupo 1164700">
                  <g id="Grupo_1160931" data-name="Grupo 1160931">
                    <g id="Grupo_1160749" data-name="Grupo 1160749">
                      <g id="Grupo_1158891" data-name="Grupo 1158891">
                        <g id="Grupo_1157406" data-name="Grupo 1157406">
                          <g id="Grupo_1155793" data-name="Grupo 1155793">
                            <g id="Grupo_1154704" data-name="Grupo 1154704">
                              <g id="Grupo_1150790" data-name="Grupo 1150790">
                                <g id="Grupo_1154214" data-name="Grupo 1154214">
                                  <g id="Grupo_1152583" data-name="Grupo 1152583">
                                    <g id="Grupo_1146973" data-name="Grupo 1146973">
                                      <g id="Grupo_1146954" data-name="Grupo 1146954">
                                        <g transform="matrix(1, 0, 0, 1, -9, -6)" filter="url(#Trazado_982547)">
                                          <g id="Trazado_982547-2" data-name="Trazado 982547" transform="translate(9 6)" fill="#fcf8db">
                                            <path d="M 47.5000114440918 93.49987030029297 C 41.28938293457031 93.49987030029297 35.26534652709961 92.28384399414062 29.5951976776123 89.88558959960938 C 24.11773109436035 87.56881713867188 19.19814491271973 84.25183868408203 14.97310447692871 80.02680206298828 C 10.74805164337158 75.80176544189453 7.43107795715332 70.88218688964844 5.114304542541504 65.40472412109375 C 2.716038227081299 59.73458862304688 1.500011444091797 53.71054840087891 1.500011444091797 47.49993515014648 C 1.500011444091797 41.28932189941406 2.716038227081299 35.26528167724609 5.114304542541504 29.59514808654785 C 7.43107795715332 24.1176815032959 10.74805164337158 19.1981086730957 14.97310447692871 14.97306823730469 C 19.19814491271973 10.74802875518799 24.11773109436035 7.431055068969727 29.5951976776123 5.11428165435791 C 35.26534652709961 2.716028451919556 41.28938293457031 1.500001788139343 47.5000114440918 1.500001788139343 C 53.71063995361328 1.500001788139343 59.73467636108398 2.716028451919556 65.40482330322266 5.11428165435791 C 70.88229370117188 7.431055068969727 75.8018798828125 10.74802875518799 80.02691650390625 14.97306823730469 C 84.25196838378906 19.1981086730957 87.56894683837891 24.1176815032959 89.88571929931641 29.59514808654785 C 92.28398132324219 35.26528167724609 93.50001525878906 41.28932189941406 93.50001525878906 47.49993515014648 C 93.50001525878906 53.71054840087891 92.28398132324219 59.73458862304688 89.88571929931641 65.40472412109375 C 87.56894683837891 70.88218688964844 84.25196838378906 75.80176544189453 80.02691650390625 80.02680206298828 C 75.8018798828125 84.25183868408203 70.88229370117188 87.56881713867188 65.40482330322266 89.88558959960938 C 59.73467636108398 92.28384399414062 53.71063995361328 93.49987030029297 47.5000114440918 93.49987030029297 Z" stroke="none"/>
                                            <path d="M 47.5000114440918 3 C 41.49122619628906 3 35.66378021240234 4.1761474609375 30.17951965332031 6.495796203613281 C 24.880859375 8.7369384765625 20.12153625488281 11.94596862792969 16.03376770019531 16.03373718261719 C 11.94598388671875 20.12149047851562 8.736968994140625 24.88081359863281 6.495811462402344 30.17947387695312 C 4.176162719726562 35.66371917724609 3.000007629394531 41.49116516113281 3.000007629394531 47.49993515014648 C 3.000007629394531 53.50870513916016 4.176162719726562 59.33615112304688 6.495811462402344 64.82039642333984 C 8.736968994140625 70.11905670166016 11.94598388671875 74.87837982177734 16.03376770019531 78.96613311767578 C 20.12153625488281 83.05390167236328 24.880859375 86.26293182373047 30.17951965332031 88.50407409667969 C 35.66378021240234 90.82372283935547 41.49122619628906 91.99987030029297 47.5000114440918 91.99987030029297 C 53.50879669189453 91.99987030029297 59.33624267578125 90.82372283935547 64.82050323486328 88.50407409667969 C 70.11916351318359 86.26293182373047 74.87848663330078 83.05390167236328 78.96625518798828 78.96613311767578 C 83.05403900146484 74.87837982177734 86.2630615234375 70.11905670166016 88.50421142578125 64.82039642333984 C 90.82386016845703 59.33615112304688 92.00001525878906 53.50870513916016 92.00001525878906 47.49993515014648 C 92.00001525878906 41.49116516113281 90.82386016845703 35.66371917724609 88.50421142578125 30.17947387695312 C 86.2630615234375 24.88081359863281 83.05403900146484 20.12149047851562 78.96625518798828 16.03373718261719 C 74.87848663330078 11.94596862792969 70.11916351318359 8.7369384765625 64.82050323486328 6.495796203613281 C 59.33624267578125 4.1761474609375 53.50879669189453 3 47.5000114440918 3 M 47.5000114440918 0 C 73.73353576660156 0 95.00001525878906 21.26644134521484 95.00001525878906 47.49993515014648 C 95.00001525878906 73.73342895507812 73.73353576660156 94.99987030029297 47.5000114440918 94.99987030029297 C 21.26648712158203 94.99987030029297 7.62939453125e-06 73.73342895507812 7.62939453125e-06 47.49993515014648 C 7.62939453125e-06 21.26644134521484 21.26648712158203 0 47.5000114440918 0 Z" stroke="none" fill="#83793c"/>
                                          </g>
                                        </g>
                                      </g>
                                    </g>
                                  </g>
                                </g>
                              </g>
                            </g>
                          </g>
                        </g>
                      </g>
                    </g>
                  </g>
                </g>
              </g>
            </g>
          </g>
        </g>
      </g>
    </g>
    <g id="audience_11251420_1_" data-name="audience_11251420 (1)" transform="translate(3361.758 5274.85)">
      <ellipse id="Elipse_13634" data-name="Elipse 13634" cx="19.93" cy="13.918" rx="19.93" ry="13.918" transform="translate(22.054 45.763)" fill="#6b5b85"/>
      <path id="Trazado_1057459" data-name="Trazado 1057459" d="M218.5,404.6a16.12,16.12,0,0,0-10.523-10.605c-5.889,0-11.749,5.568-13.3,10.605-.723,2.352,3.832,4.73,6.293,4.73h14.008A3.669,3.669,0,0,0,218.5,404.6Z" transform="translate(-161.138 -332.877)" fill="#f2f6fc"/>
      <path id="Trazado_1057460" data-name="Trazado 1057460" d="M153.858,399.945a16.12,16.12,0,0,1,10.523-10.605,16.093,16.093,0,0,0-20.233,10.605,3.669,3.669,0,0,0,3.519,4.73h9.71A3.669,3.669,0,0,1,153.858,399.945Z" transform="translate(-117.541 -328.226)" fill="#dce1eb"/>
      <circle id="Elipse_13635" data-name="Elipse 13635" cx="5.549" cy="5.549" r="5.549" transform="translate(36.435 59.822)" fill="#ffcdbe"/>
      <path id="Trazado_1057461" data-name="Trazado 1057461" d="M215.6,175.593a5.519,5.519,0,0,0-4.646.7,1.277,1.277,0,0,1-1.425,0,5.519,5.519,0,0,0-4.646-.7c-6.029,9.481,2.65,21.071,10.762,23.37h11.415a17.954,17.954,0,0,0-11.459-23.37Z" transform="translate(-168.262 -144.571)" fill="#806e9c"/>
      <path id="Trazado_1057462" data-name="Trazado 1057462" d="M126.7,194.185a17.9,17.9,0,0,0,1.119,6.248h22.222V192.4c-10.544-3.084-10.762-15.333-10.762-15.333A17.944,17.944,0,0,0,126.7,194.185Z" transform="translate(-102.658 -146.041)" fill="#6b5b85"/>
      <circle id="Elipse_13636" data-name="Elipse 13636" cx="3.832" cy="3.832" r="3.832" transform="translate(23.179 49.313)" fill="#ffcdbe"/>
      <circle id="Elipse_13637" data-name="Elipse 13637" cx="3.832" cy="3.832" r="3.832" transform="translate(53.124 49.313)" fill="#ffdecf"/>
      <path id="Trazado_1057463" data-name="Trazado 1057463" d="M205.237,273.182a1.865,1.865,0,0,0-1.916-1.616,9.5,9.5,0,0,1-5.422-2.132.97.97,0,0,0-1.5.5,2.219,2.219,0,0,1-.555.96c-1.665,1.665-5.852.176-9.353-3.325q-.238-.238-.463-.48h0s-5.5,1.632-5.5,10.157,9.921,11.87,13.94,11.87h0a14.4,14.4,0,0,0,10.777-15.929Z" transform="translate(-149.008 -223.575)" fill="#ffeee5"/>
      <path id="Trazado_1057464" data-name="Trazado 1057464" d="M159.286,263.113a14.313,14.313,0,0,1,2.476-8.069,18.012,18.012,0,0,1-1.2-1.423,1.3,1.3,0,0,0-2.077,0,18.3,18.3,0,0,1-1.661,1.9,18.093,18.093,0,0,1-2.23,1.9,5.05,5.05,0,0,0-2.038,3.237A14.389,14.389,0,0,0,170.2,277.07,14.385,14.385,0,0,1,159.286,263.113Z" transform="translate(-124.746 -211.534)" fill="#ffdecf"/>
      <path id="Trazado_1057465" data-name="Trazado 1057465" d="M59.552,106.655a9.126,9.126,0,0,0-5.02-8.151c-2.981,0-7.794,4.588-7.794,8.151s4.356,8.15,7.793,8.15A9.124,9.124,0,0,0,59.552,106.655Z" transform="translate(-33.784 -78.38)" fill="#fff04a"/>
      <path id="Trazado_1057466" data-name="Trazado 1057466" d="M15.728,100.588a9.126,9.126,0,0,1,5.02-8.151,9.128,9.128,0,1,0,0,16.3A9.126,9.126,0,0,1,15.728,100.588Z" transform="translate(-0.001 -72.313)" fill="#ffda45"/>
      <g id="Grupo_1225397" data-name="Grupo 1225397" transform="translate(63.641 20.124)">
        <path id="Trazado_1057467" data-name="Trazado 1057467" d="M419.928,98.5c-3.271,0-7.794,4.588-7.794,8.151s4.706,8.151,7.794,8.151a9.127,9.127,0,0,0,0-16.3Z" transform="translate(-412.134 -98.504)" fill="#87c7ff"/>
      </g>
      <path id="Trazado_1057468" data-name="Trazado 1057468" d="M381.126,100.588a9.126,9.126,0,0,1,5.02-8.151,9.128,9.128,0,1,0,0,16.3A9.126,9.126,0,0,1,381.126,100.588Z" transform="translate(-314.711 -72.313)" fill="#65b1fc"/>
      <g id="Grupo_1225398" data-name="Grupo 1225398" transform="translate(36.521 8.529)">
        <path id="Trazado_1057469" data-name="Trazado 1057469" d="M227.117,14.916c-5.019,0-10.482,6.452-10.482,11.7s5.894,11.7,10.482,11.7a12.731,12.731,0,0,0,0-23.4Z" transform="translate(-216.635 -14.916)" fill="#c3dc4b"/>
      </g>
      <path id="Trazado_1057470" data-name="Trazado 1057470" d="M174.309,20.226a12.729,12.729,0,0,1,7.707-11.7,12.726,12.726,0,1,0,0,23.4A12.729,12.729,0,0,1,174.309,20.226Z" transform="translate(-135.014)" fill="#b4d241"/>
      <g id="Grupo_1225405" data-name="Grupo 1225405" transform="translate(7.512 7.5)">
        <circle id="Elipse_13638" data-name="Elipse 13638" cx="9.128" cy="9.128" r="9.128" transform="translate(0 11.647)" fill="none" stroke="#000" stroke-linecap="round" stroke-linejoin="round" stroke-miterlimit="10" stroke-width="1"/>
        <path id="Trazado_1057471" data-name="Trazado 1057471" d="M374.465,95.453a9.116,9.116,0,1,1-1.557,4.6" transform="translate(-322.208 -79.797)" fill="none" stroke="#000" stroke-linecap="round" stroke-linejoin="round" stroke-miterlimit="10" stroke-width="1"/>
        <circle id="Elipse_13639" data-name="Elipse 13639" cx="12.726" cy="12.726" r="12.726" transform="translate(21.745)" fill="none" stroke="#000" stroke-linecap="round" stroke-linejoin="round" stroke-miterlimit="10" stroke-width="1"/>
        <path id="Trazado_1057472" data-name="Trazado 1057472" d="M117.667,362.6c-3.3-2.484-5.324-5.812-5.324-9.469a10.269,10.269,0,0,1,1.28-4.918" transform="translate(-97.801 -300.95)" fill="none" stroke="#000" stroke-linecap="round" stroke-linejoin="round" stroke-miterlimit="10" stroke-width="1"/>
        <path id="Trazado_1057473" data-name="Trazado 1057473" d="M365.343,348.208a10.269,10.269,0,0,1,1.28,4.919c0,3.658-2.02,6.986-5.324,9.47" transform="translate(-312.222 -300.945)" fill="none" stroke="#000" stroke-linecap="round" stroke-linejoin="round" stroke-miterlimit="10" stroke-width="1"/>
        <path id="Trazado_1057474" data-name="Trazado 1057474" d="M313.987,198.781a17.961,17.961,0,0,0-11.335-18.921" transform="translate(-261.71 -155.95)" fill="none" stroke="#000" stroke-linecap="round" stroke-linejoin="round" stroke-miterlimit="10" stroke-width="1"/>
        <path id="Trazado_1057475" data-name="Trazado 1057475" d="M129.273,233.766a17.852,17.852,0,0,0-2.57,9.256,18.108,18.108,0,0,0,.134,2.2" transform="translate(-110.169 -202.379)" fill="none" stroke="#000" stroke-linecap="round" stroke-linejoin="round" stroke-miterlimit="10" stroke-width="1"/>
        <path id="Trazado_1057476" data-name="Trazado 1057476" d="M172.785,179.894a17.946,17.946,0,0,0-5.878,3.731" transform="translate(-144.796 -155.98)" fill="none" stroke="#000" stroke-linecap="round" stroke-linejoin="round" stroke-miterlimit="10" stroke-width="1"/>
        <path id="Trazado_1057477" data-name="Trazado 1057477" d="M125.776,316.288a3.833,3.833,0,1,1-1.492-7.363,3.864,3.864,0,0,1,.586.045" transform="translate(-104.785 -267.112)" fill="none" stroke="#000" stroke-linecap="round" stroke-linejoin="round" stroke-miterlimit="10" stroke-width="1"/>
        <path id="Trazado_1057478" data-name="Trazado 1057478" d="M354.2,308.988a3.832,3.832,0,1,1-.755,7.313" transform="translate(-305.453 -267.111)" fill="none" stroke="#000" stroke-linecap="round" stroke-linejoin="round" stroke-miterlimit="10" stroke-width="1"/>
        <g id="Grupo_1225400" data-name="Grupo 1225400" transform="translate(20.092 34.07)">
          <g id="Grupo_1225399" data-name="Grupo 1225399">
            <path id="Trazado_1057479" data-name="Trazado 1057479" d="M173.637,257.393a.97.97,0,0,0-1.5.5,2.22,2.22,0,0,1-.555.96c-1.665,1.665-5.852.176-9.353-3.325a18.314,18.314,0,0,1-1.661-1.9,1.3,1.3,0,0,0-2.077,0,18.3,18.3,0,0,1-1.661,1.9,18.092,18.092,0,0,1-2.23,1.9,5.05,5.05,0,0,0-2.038,3.237,14.38,14.38,0,1,0,28.417.479,1.865,1.865,0,0,0-1.916-1.616A9.495,9.495,0,0,1,173.637,257.393Z" transform="translate(-152.35 -253.104)" fill="none" stroke="#000" stroke-linecap="round" stroke-linejoin="round" stroke-miterlimit="10" stroke-width="1"/>
          </g>
        </g>
        <g id="Grupo_1225401" data-name="Grupo 1225401" transform="translate(3.464 19.907)">
          <line id="Línea_1095" data-name="Línea 1095" y2="1.088" fill="none" stroke="#000" stroke-linecap="round" stroke-linejoin="round" stroke-miterlimit="10" stroke-width="1"/>
          <line id="Línea_1096" data-name="Línea 1096" y2="1.088" transform="translate(11.327)" fill="none" stroke="#000" stroke-linecap="round" stroke-linejoin="round" stroke-miterlimit="10" stroke-width="1"/>
          <path id="Trazado_1057480" data-name="Trazado 1057480" d="M62.549,158.615a1.979,1.979,0,0,0,2.986,0" transform="translate(-58.379 -157.559)" fill="none" stroke="#000" stroke-linecap="round" stroke-linejoin="round" stroke-miterlimit="10" stroke-width="1"/>
        </g>
        <g id="Grupo_1225402" data-name="Grupo 1225402" transform="translate(54.097 19.997)">
          <line id="Línea_1097" data-name="Línea 1097" x1="0.001" y2="1.073" fill="none" stroke="#000" stroke-linecap="round" stroke-linejoin="round" stroke-miterlimit="10" stroke-width="1"/>
          <line id="Línea_1098" data-name="Línea 1098" x1="0.001" y2="1.073" transform="translate(11.437 0.011)" fill="none" stroke="#000" stroke-linecap="round" stroke-linejoin="round" stroke-miterlimit="10" stroke-width="1"/>
          <line id="Línea_1099" data-name="Línea 1099" x2="3.015" y2="0.003" transform="translate(4.21 1.554)" fill="none" stroke="#000" stroke-linecap="round" stroke-linejoin="round" stroke-miterlimit="10" stroke-width="1"/>
        </g>
        <g id="Grupo_1225403" data-name="Grupo 1225403" transform="translate(26.819 11.353)">
          <line id="Línea_1100" data-name="Línea 1100" y2="1.325" transform="translate(0 0.247)" fill="none" stroke="#000" stroke-linecap="round" stroke-linejoin="round" stroke-miterlimit="10" stroke-width="1"/>
          <path id="Trazado_1057481" data-name="Trazado 1057481" d="M239.292,100.621a2.531,2.531,0,0,0,3.82,0" transform="translate(-233.958 -99.057)" fill="none" stroke="#000" stroke-linecap="round" stroke-linejoin="round" stroke-miterlimit="10" stroke-width="1"/>
          <path id="Trazado_1057482" data-name="Trazado 1057482" d="M296.049,90.879a1.536,1.536,0,0,1,3.071,0" transform="translate(-282.842 -89.343)" fill="none" stroke="#000" stroke-linecap="round" stroke-linejoin="round" stroke-miterlimit="10" stroke-width="1"/>
        </g>
        <g id="Grupo_1225404" data-name="Grupo 1225404" transform="translate(26.149 43.615)">
          <line id="Línea_1101" data-name="Línea 1101" y2="1.599" fill="none" stroke="#000" stroke-linecap="round" stroke-linejoin="round" stroke-miterlimit="10" stroke-width="1"/>
          <line id="Línea_1102" data-name="Línea 1102" y2="1.599" transform="translate(16.646)" fill="none" stroke="#000" stroke-linecap="round" stroke-linejoin="round" stroke-miterlimit="10" stroke-width="1"/>
          <path id="Trazado_1057483" data-name="Trazado 1057483" d="M240.194,333.1a2.908,2.908,0,0,0,4.389,0" transform="translate(-234.065 -331.546)" fill="none" stroke="#000" stroke-linecap="round" stroke-linejoin="round" stroke-miterlimit="10" stroke-width="1"/>
        </g>
        <path id="Trazado_1057484" data-name="Trazado 1057484" d="M227.092,421.473q.018.22.018.445a5.549,5.549,0,1,1-11.1,0q0-.2.014-.4" transform="translate(-187.089 -364.047)" fill="none" stroke="#000" stroke-linecap="round" stroke-linejoin="round" stroke-miterlimit="10" stroke-width="1"/>
        <path id="Trazado_1057485" data-name="Trazado 1057485" d="M150.643,407.851a16.122,16.122,0,0,0-6.5,8.683,3.669,3.669,0,0,0,3.519,4.73h23.718a3.669,3.669,0,0,0,3.519-4.73,16.121,16.121,0,0,0-6.486-8.675" transform="translate(-125.053 -352.315)" fill="none" stroke="#000" stroke-linecap="round" stroke-linejoin="round" stroke-miterlimit="10" stroke-width="1"/>
      </g>
    </g>
  </g>
</svg>
