<svg xmlns="http://www.w3.org/2000/svg" xmlns:xlink="http://www.w3.org/1999/xlink" width="113" height="113" viewBox="0 0 113 113">
  <defs>
    <filter id="Trazado_982547" x="0" y="0" width="113" height="113" filterUnits="userSpaceOnUse">
      <feOffset dy="3" input="SourceAlpha"/>
      <feGaussianBlur stdDeviation="3" result="blur"/>
      <feFlood flood-opacity="0.161"/>
      <feComposite operator="in" in2="blur"/>
      <feComposite in="SourceGraphic"/>
    </filter>
  </defs>
  <g id="Grupo_1225413" data-name="Grupo 1225413" transform="translate(-3673.742 -9764.716)">
    <g id="Grupo_1225203" data-name="Grupo 1225203" transform="translate(3682.742 9770.716)">
      <g id="Grupo_1209304" data-name="Grupo 1209304" transform="translate(0 0)">
        <g id="Grupo_1208492" data-name="Grupo 1208492">
          <g id="Grupo_1177675" data-name="Grupo 1177675">
            <g id="Grupo_1176928" data-name="Grupo 1176928">
              <g id="Grupo_1172322" data-name="Grupo 1172322">
                <g id="Grupo_1164700" data-name="Grupo 1164700">
                  <g id="Grupo_1160931" data-name="Grupo 1160931">
                    <g id="Grupo_1160749" data-name="Grupo 1160749">
                      <g id="Grupo_1158891" data-name="Grupo 1158891">
                        <g id="Grupo_1157406" data-name="Grupo 1157406">
                          <g id="Grupo_1155793" data-name="Grupo 1155793">
                            <g id="Grupo_1154704" data-name="Grupo 1154704">
                              <g id="Grupo_1150790" data-name="Grupo 1150790">
                                <g id="Grupo_1154214" data-name="Grupo 1154214">
                                  <g id="Grupo_1152583" data-name="Grupo 1152583">
                                    <g id="Grupo_1146973" data-name="Grupo 1146973">
                                      <g id="Grupo_1146954" data-name="Grupo 1146954">
                                        <g transform="matrix(1, 0, 0, 1, -9, -6)" filter="url(#Trazado_982547)">
                                          <g id="Trazado_982547-2" data-name="Trazado 982547" transform="translate(9 6)" fill="#fcf8db">
                                            <path d="M 47.5000114440918 93.49987030029297 C 41.28938293457031 93.49987030029297 35.26534652709961 92.28384399414062 29.5951976776123 89.88558959960938 C 24.11773109436035 87.56881713867188 19.19814491271973 84.25183868408203 14.97310447692871 80.02680206298828 C 10.74805164337158 75.80176544189453 7.43107795715332 70.88218688964844 5.114304542541504 65.40472412109375 C 2.716038227081299 59.73458862304688 1.500011444091797 53.71054840087891 1.500011444091797 47.49993515014648 C 1.500011444091797 41.28932189941406 2.716038227081299 35.26528167724609 5.114304542541504 29.59514808654785 C 7.43107795715332 24.1176815032959 10.74805164337158 19.1981086730957 14.97310447692871 14.97306823730469 C 19.19814491271973 10.74802875518799 24.11773109436035 7.431055068969727 29.5951976776123 5.11428165435791 C 35.26534652709961 2.716028451919556 41.28938293457031 1.500001788139343 47.5000114440918 1.500001788139343 C 53.71063995361328 1.500001788139343 59.73467636108398 2.716028451919556 65.40482330322266 5.11428165435791 C 70.88229370117188 7.431055068969727 75.8018798828125 10.74802875518799 80.02691650390625 14.97306823730469 C 84.25196838378906 19.1981086730957 87.56894683837891 24.1176815032959 89.88571929931641 29.59514808654785 C 92.28398132324219 35.26528167724609 93.50001525878906 41.28932189941406 93.50001525878906 47.49993515014648 C 93.50001525878906 53.71054840087891 92.28398132324219 59.73458862304688 89.88571929931641 65.40472412109375 C 87.56894683837891 70.88218688964844 84.25196838378906 75.80176544189453 80.02691650390625 80.02680206298828 C 75.8018798828125 84.25183868408203 70.88229370117188 87.56881713867188 65.40482330322266 89.88558959960938 C 59.73467636108398 92.28384399414062 53.71063995361328 93.49987030029297 47.5000114440918 93.49987030029297 Z" stroke="none"/>
                                            <path d="M 47.5000114440918 3 C 41.49122619628906 3 35.66378021240234 4.1761474609375 30.17951965332031 6.495796203613281 C 24.880859375 8.7369384765625 20.12153625488281 11.94596862792969 16.03376770019531 16.03373718261719 C 11.94598388671875 20.12149047851562 8.736968994140625 24.88081359863281 6.495811462402344 30.17947387695312 C 4.176162719726562 35.66371917724609 3.000007629394531 41.49116516113281 3.000007629394531 47.49993515014648 C 3.000007629394531 53.50870513916016 4.176162719726562 59.33615112304688 6.495811462402344 64.82039642333984 C 8.736968994140625 70.11905670166016 11.94598388671875 74.87837982177734 16.03376770019531 78.96613311767578 C 20.12153625488281 83.05390167236328 24.880859375 86.26293182373047 30.17951965332031 88.50407409667969 C 35.66378021240234 90.82372283935547 41.49122619628906 91.99987030029297 47.5000114440918 91.99987030029297 C 53.50879669189453 91.99987030029297 59.33624267578125 90.82372283935547 64.82050323486328 88.50407409667969 C 70.11916351318359 86.26293182373047 74.87848663330078 83.05390167236328 78.96625518798828 78.96613311767578 C 83.05403900146484 74.87837982177734 86.2630615234375 70.11905670166016 88.50421142578125 64.82039642333984 C 90.82386016845703 59.33615112304688 92.00001525878906 53.50870513916016 92.00001525878906 47.49993515014648 C 92.00001525878906 41.49116516113281 90.82386016845703 35.66371917724609 88.50421142578125 30.17947387695312 C 86.2630615234375 24.88081359863281 83.05403900146484 20.12149047851562 78.96625518798828 16.03373718261719 C 74.87848663330078 11.94596862792969 70.11916351318359 8.7369384765625 64.82050323486328 6.495796203613281 C 59.33624267578125 4.1761474609375 53.50879669189453 3 47.5000114440918 3 M 47.5000114440918 0 C 73.73353576660156 0 95.00001525878906 21.26644134521484 95.00001525878906 47.49993515014648 C 95.00001525878906 73.73342895507812 73.73353576660156 94.99987030029297 47.5000114440918 94.99987030029297 C 21.26648712158203 94.99987030029297 7.62939453125e-06 73.73342895507812 7.62939453125e-06 47.49993515014648 C 7.62939453125e-06 21.26644134521484 21.26648712158203 0 47.5000114440918 0 Z" stroke="none" fill="#83793c"/>
                                          </g>
                                        </g>
                                      </g>
                                    </g>
                                  </g>
                                </g>
                              </g>
                            </g>
                          </g>
                        </g>
                      </g>
                    </g>
                  </g>
                </g>
              </g>
            </g>
          </g>
        </g>
      </g>
    </g>
    <g id="talking_7609337_1_" data-name="talking_7609337 (1)" transform="translate(3693.152 9781.599)">
      <g id="Grupo_1225376" data-name="Grupo 1225376" transform="translate(7.5 7.53)">
        <path id="Trazado_1057321" data-name="Trazado 1057321" d="M40.077,22.919V29.6H14.867V22.919A12.608,12.608,0,0,1,23.991,10.8l-.046-.046a1.888,1.888,0,1,1,2.67-2.669l.859.859.857-.859A1.888,1.888,0,0,1,31,10.756l-.046.046A12.608,12.608,0,0,1,40.077,22.919Z" transform="translate(-13.975 -7.533)" fill="#eb9c8d"/>
        <path id="Trazado_1057322" data-name="Trazado 1057322" d="M31,10.756h-.48a7.383,7.383,0,0,0-7.383,7.383v6.039L23.2,29.6H14.867V22.919A12.608,12.608,0,0,1,23.991,10.8l-.046-.046a1.888,1.888,0,0,1,2.67-2.669l.859.859.857-.859A1.888,1.888,0,0,1,31,10.756Z" transform="translate(-13.975 -7.533)" fill="#d78878"/>
        <path id="Trazado_1057323" data-name="Trazado 1057323" d="M40.075,28.234V22.916A12.608,12.608,0,0,0,30.951,10.8L31,10.753a1.888,1.888,0,0,0-2.67-2.67l-.857.859-.859-.859a1.888,1.888,0,0,0-2.67,2.669l.046.046a12.609,12.609,0,0,0-9.124,12.117v5.318" transform="translate(-13.973 -7.53)" fill="none" stroke="#000" stroke-linecap="round" stroke-linejoin="round" stroke-miterlimit="10" stroke-width="1.2"/>
        <path id="Trazado_1057324" data-name="Trazado 1057324" d="M31.892,178.417H10.1a2.6,2.6,0,0,1-2.6-2.6h0a2.6,2.6,0,0,1,2.6-2.6h21.79a2.6,2.6,0,0,1,2.6,2.6h0A2.6,2.6,0,0,1,31.892,178.417Z" transform="translate(-7.5 -153.151)" fill="#ffcebf"/>
        <path id="Trazado_1057325" data-name="Trazado 1057325" d="M198.467,173.211h1.208a2.6,2.6,0,0,1,0,5.2H198.4" transform="translate(-175.283 -153.149)" fill="none" stroke="#000" stroke-linecap="round" stroke-linejoin="round" stroke-miterlimit="10" stroke-width="1.2"/>
        <path id="Trazado_1057326" data-name="Trazado 1057326" d="M11.312,173.211H10.1a2.6,2.6,0,0,0,0,5.2h1.277" transform="translate(-7.502 -153.149)" fill="none" stroke="#000" stroke-linecap="round" stroke-linejoin="round" stroke-miterlimit="10" stroke-width="1.2"/>
        <path id="Trazado_1057327" data-name="Trazado 1057327" d="M58.339,117.977v5.829a9.688,9.688,0,1,1-19.374.123v-5.952a10.219,10.219,0,0,0,8.733-4.9,1.116,1.116,0,0,1,1.907,0A10.221,10.221,0,0,0,58.339,117.977Z" transform="translate(-35.155 -99.822)" fill="#ffdfcf"/>
        <path id="Trazado_1057328" data-name="Trazado 1057328" d="M51.318,161.766a9.549,9.549,0,0,1-2.591.377,9.686,9.686,0,0,1-9.76-9.686v-5.952A10.18,10.18,0,0,0,44.318,145v7.462A9.691,9.691,0,0,0,51.318,161.766Z" transform="translate(-35.157 -128.35)" fill="#ffcebf"/>
        <path id="Trazado_1057329" data-name="Trazado 1057329" d="M46,115.178a10.2,10.2,0,0,0,1.7-2.1,1.117,1.117,0,0,1,1.907,0,10.221,10.221,0,0,0,8.734,4.905v5.829a9.687,9.687,0,1,1-19.374.122v-5.951a10.211,10.211,0,0,0,3.44-.593" transform="translate(-35.159 -99.826)" fill="none" stroke="#000" stroke-linecap="round" stroke-linejoin="round" stroke-miterlimit="10" stroke-width="1.2"/>
        <g id="Grupo_1225375" data-name="Grupo 1225375" transform="translate(10.878 20.062)">
          <line id="Línea_1079" data-name="Línea 1079" y1="1.981" fill="none" stroke="#000" stroke-linecap="round" stroke-linejoin="round" stroke-miterlimit="10" stroke-width="1.2"/>
          <line id="Línea_1080" data-name="Línea 1080" y1="1.981" transform="translate(5.238)" fill="none" stroke="#000" stroke-linecap="round" stroke-linejoin="round" stroke-miterlimit="10" stroke-width="1.2"/>
        </g>
        <path id="Trazado_1057330" data-name="Trazado 1057330" d="M93.086,221.656a4.432,4.432,0,0,0,6.268,0" transform="translate(-82.723 -195.728)" fill="none" stroke="#000" stroke-linecap="round" stroke-linejoin="round" stroke-miterlimit="10" stroke-width="1.2"/>
      </g>
      <g id="Grupo_1225378" data-name="Grupo 1225378" transform="translate(39.605 35.49)">
        <path id="Trazado_1057331" data-name="Trazado 1057331" d="M297.109,258.206a3.61,3.61,0,0,0,1.565-6.862,3.609,3.609,0,0,0-2.271-6.413c-.053,0-.1,0-.157,0a3.609,3.609,0,0,0-6.024-3.586,3.609,3.609,0,0,0-7.081,0,3.61,3.61,0,0,0-6.024,3.586c-.052,0-.1,0-.157,0a3.609,3.609,0,0,0-2.271,6.413,3.61,3.61,0,0,0,1.565,6.862" transform="translate(-272.644 -238.439)" fill="#ffe177"/>
        <path id="Trazado_1057332" data-name="Trazado 1057332" d="M286.849,271.188c0,.052,0,.1,0,.158s0,.108,0,.161h-10.6a3.61,3.61,0,0,1-1.564-6.863,3.608,3.608,0,0,1,2.271-6.413c.052,0,.1,0,.157,0a3.65,3.65,0,0,1-.157-1.055,3.608,3.608,0,0,1,5.508-3.068,3.611,3.611,0,0,0,.8,3.97,3.61,3.61,0,0,0,0,7.082,3.609,3.609,0,0,0,3.586,6.023Z" transform="translate(-272.642 -251.739)" fill="#ffc344"/>
        <path id="Trazado_1057333" data-name="Trazado 1057333" d="M274.174,257.541a3.611,3.611,0,0,1,.517-6.2,3.609,3.609,0,0,1,2.272-6.413c.052,0,.1,0,.157,0a3.609,3.609,0,0,1,6.024-3.586,3.609,3.609,0,0,1,7.082,0,3.608,3.608,0,0,1,6.023,3.586c.052,0,.1,0,.158,0a3.609,3.609,0,0,1,2.271,6.413,3.609,3.609,0,0,1,.517,6.2" transform="translate(-272.647 -238.436)" fill="none" stroke="#000" stroke-linecap="round" stroke-linejoin="round" stroke-miterlimit="10" stroke-width="1.2"/>
        <path id="Trazado_1057334" data-name="Trazado 1057334" d="M301.734,396.555H280a2.6,2.6,0,0,1-2.6-2.6h0a2.6,2.6,0,0,1,2.6-2.6h21.731a2.6,2.6,0,0,1,2.6,2.6h0A2.6,2.6,0,0,1,301.734,396.555Z" transform="translate(-276.831 -372.847)" fill="#ffcebf"/>
        <path id="Trazado_1057335" data-name="Trazado 1057335" d="M467.854,391.364h1.2a2.6,2.6,0,0,1,0,5.191h-1.274" transform="translate(-444.156 -372.846)" fill="none" stroke="#000" stroke-linecap="round" stroke-linejoin="round" stroke-miterlimit="10" stroke-width="1.2"/>
        <path id="Trazado_1057336" data-name="Trazado 1057336" d="M281.21,391.364H280a2.6,2.6,0,0,0,0,5.191h1.274" transform="translate(-276.833 -372.846)" fill="none" stroke="#000" stroke-linecap="round" stroke-linejoin="round" stroke-miterlimit="10" stroke-width="1.2"/>
        <path id="Trazado_1057337" data-name="Trazado 1057337" d="M328.11,334.483v4.034a9.661,9.661,0,1,1-19.321,0v-4.034a3.6,3.6,0,0,0,3.176-5.291,3.749,3.749,0,0,0,.492.034,3.6,3.6,0,0,0,3.451-2.579,3.6,3.6,0,0,0,5.083,0,3.6,3.6,0,0,0,3.452,2.579,3.733,3.733,0,0,0,.491-.034,3.6,3.6,0,0,0,3.177,5.291Z" transform="translate(-304.412 -315.966)" fill="#ffdfcf"/>
        <path id="Trazado_1057338" data-name="Trazado 1057338" d="M321.118,363.547a9.667,9.667,0,0,1-12.328-9.288v-4.034a3.6,3.6,0,0,0,3.176-5.291,3.748,3.748,0,0,0,.492.034,3.572,3.572,0,0,0,1.668-.41v9.7A9.665,9.665,0,0,0,321.118,363.547Z" transform="translate(-304.413 -331.708)" fill="#ffcebf"/>
        <path id="Trazado_1057339" data-name="Trazado 1057339" d="M328.11,334.483v4.034a9.661,9.661,0,1,1-19.321,0v-4.034a3.6,3.6,0,0,0,3.176-5.291,3.749,3.749,0,0,0,.492.034,3.6,3.6,0,0,0,3.451-2.579,3.6,3.6,0,0,0,5.083,0,3.6,3.6,0,0,0,3.452,2.579,3.733,3.733,0,0,0,.491-.034,3.6,3.6,0,0,0,3.177,5.291Z" transform="translate(-304.412 -315.966)" fill="none" stroke="#000" stroke-linecap="round" stroke-linejoin="round" stroke-miterlimit="10" stroke-width="1.2"/>
        <g id="Grupo_1225377" data-name="Grupo 1225377" transform="translate(11.426 18.518)">
          <line id="Línea_1081" data-name="Línea 1081" y2="1.976" fill="none" stroke="#000" stroke-linecap="round" stroke-linejoin="round" stroke-miterlimit="10" stroke-width="1.2"/>
          <line id="Línea_1082" data-name="Línea 1082" y2="1.976" transform="translate(5.223)" fill="none" stroke="#000" stroke-linecap="round" stroke-linejoin="round" stroke-miterlimit="10" stroke-width="1.2"/>
        </g>
        <path id="Trazado_1057340" data-name="Trazado 1057340" d="M357.218,429.762a.678.678,0,0,0-.665.814,3.949,3.949,0,0,0,7.729,0,.678.678,0,0,0-.665-.814Z" transform="translate(-346.38 -406.595)" fill="#fff"/>
        <path id="Trazado_1057341" data-name="Trazado 1057341" d="M357.218,429.762a.678.678,0,0,0-.665.814,3.949,3.949,0,0,0,7.729,0,.678.678,0,0,0-.665-.814Z" transform="translate(-346.38 -406.595)" fill="none" stroke="#000" stroke-linecap="round" stroke-linejoin="round" stroke-miterlimit="10" stroke-width="1.2"/>
      </g>
      <g id="Grupo_1225380" data-name="Grupo 1225380" transform="translate(40.391 7.531)">
        <path id="Trazado_1057342" data-name="Trazado 1057342" d="M306.423,9.979V24.511a2.438,2.438,0,0,1-2.438,2.438h-4.549l-6.275,3.771a1.192,1.192,0,0,1-1.807-1.022V26.95h-9.782a2.438,2.438,0,0,1-2.438-2.438V9.979a2.438,2.438,0,0,1,2.438-2.438h22.412A2.438,2.438,0,0,1,306.423,9.979Z" transform="translate(-279.134 -7.541)" fill="#e8edf2"/>
        <path id="Trazado_1057343" data-name="Trazado 1057343" d="M285.47,26.95h-3.9a2.438,2.438,0,0,1-2.438-2.438V9.979a2.438,2.438,0,0,1,2.438-2.438h3.9a2.438,2.438,0,0,0-2.438,2.438V24.511A2.438,2.438,0,0,0,285.47,26.95Z" transform="translate(-279.134 -7.541)" fill="#d9e7ec"/>
        <path id="Trazado_1057344" data-name="Trazado 1057344" d="M301.974,7.539h2.006a2.439,2.439,0,0,1,2.439,2.439V24.509a2.439,2.439,0,0,1-2.439,2.439h-4.548l-6.275,3.771a1.192,1.192,0,0,1-1.807-1.022V26.948h-9.783a2.438,2.438,0,0,1-2.439-2.439V9.978a2.438,2.438,0,0,1,2.439-2.439h16.168" transform="translate(-279.13 -7.539)" fill="none" stroke="#000" stroke-linecap="round" stroke-linejoin="round" stroke-miterlimit="10" stroke-width="1.2"/>
        <g id="Grupo_1225379" data-name="Grupo 1225379" transform="translate(3.868 7.072)">
          <line id="Línea_1083" data-name="Línea 1083" x2="19.553" fill="none" stroke="#000" stroke-linecap="round" stroke-linejoin="round" stroke-miterlimit="10" stroke-width="1.2"/>
          <line id="Línea_1084" data-name="Línea 1084" x2="19.553" transform="translate(0 4.512)" fill="none" stroke="#000" stroke-linecap="round" stroke-linejoin="round" stroke-miterlimit="10" stroke-width="1.2"/>
        </g>
      </g>
      <g id="Grupo_1225382" data-name="Grupo 1225382" transform="translate(7.5 44.351)">
        <path id="Trazado_1057345" data-name="Trazado 1057345" d="M34.789,332.526V317.995a2.438,2.438,0,0,0-2.438-2.438H27.8l-6.275-3.771a1.192,1.192,0,0,0-1.807,1.022v2.749H9.938A2.438,2.438,0,0,0,7.5,317.995v14.532a2.438,2.438,0,0,0,2.438,2.438H32.351A2.438,2.438,0,0,0,34.789,332.526Z" transform="translate(-7.5 -311.613)" fill="#e8edf2"/>
        <path id="Trazado_1057346" data-name="Trazado 1057346" d="M13.836,344.181h-3.9A2.438,2.438,0,0,0,7.5,346.619v14.532a2.438,2.438,0,0,0,2.438,2.438h3.9a2.438,2.438,0,0,1-2.438-2.438V346.619A2.438,2.438,0,0,1,13.836,344.181Z" transform="translate(-7.5 -340.237)" fill="#d9e7ec"/>
        <path id="Trazado_1057347" data-name="Trazado 1057347" d="M34.789,331.967v.561a2.439,2.439,0,0,1-2.439,2.439H9.939A2.438,2.438,0,0,1,7.5,332.527V318a2.438,2.438,0,0,1,2.439-2.439H19.72v-2.749a1.193,1.193,0,0,1,1.808-1.022l6.274,3.771h4.549A2.439,2.439,0,0,1,34.789,318v9.774" transform="translate(-7.5 -311.614)" fill="none" stroke="#000" stroke-linecap="round" stroke-linejoin="round" stroke-miterlimit="10" stroke-width="1.2"/>
        <g id="Grupo_1225381" data-name="Grupo 1225381" transform="translate(3.868 11.768)">
          <line id="Línea_1085" data-name="Línea 1085" x2="19.553" transform="translate(0 4.512)" fill="none" stroke="#000" stroke-linecap="round" stroke-linejoin="round" stroke-miterlimit="10" stroke-width="1.2"/>
          <line id="Línea_1086" data-name="Línea 1086" x2="19.553" fill="none" stroke="#000" stroke-linecap="round" stroke-linejoin="round" stroke-miterlimit="10" stroke-width="1.2"/>
        </g>
      </g>
    </g>
  </g>
</svg>
