<svg xmlns="http://www.w3.org/2000/svg" xmlns:xlink="http://www.w3.org/1999/xlink" width="113" height="113" viewBox="0 0 113 113">
  <defs>
    <filter id="Trazado_982547" x="0" y="-0.001" width="113" height="113" filterUnits="userSpaceOnUse">
      <feOffset dy="3" input="SourceAlpha"/>
      <feGaussianBlur stdDeviation="3" result="blur"/>
      <feFlood flood-opacity="0.161"/>
      <feComposite operator="in" in2="blur"/>
      <feComposite in="SourceGraphic"/>
    </filter>
  </defs>
  <g id="Grupo_1225389" data-name="Grupo 1225389" transform="translate(-271 -13125.355)">
    <g id="Grupo_1225226" data-name="Grupo 1225226" transform="translate(0 8384.358)">
      <g id="Grupo_1224643" data-name="Grupo 1224643" transform="translate(0 1927)">
        <g id="Grupo_1224291" data-name="Grupo 1224291" transform="translate(0 859.245)">
          <g id="Grupo_1224091" data-name="Grupo 1224091" transform="translate(-84.49 -2620.317)">
            <g id="Grupo_1223183" data-name="Grupo 1223183" transform="translate(364.49 4581.069)">
              <g id="Grupo_1211217" data-name="Grupo 1211217" transform="translate(0)">
                <g id="Grupo_1210736" data-name="Grupo 1210736">
                  <g id="Grupo_1210537" data-name="Grupo 1210537">
                    <g id="Grupo_1164202" data-name="Grupo 1164202">
                      <g id="Grupo_1158168" data-name="Grupo 1158168">
                        <g id="Grupo_1152576" data-name="Grupo 1152576">
                          <g id="Grupo_1148633" data-name="Grupo 1148633">
                            <g id="Grupo_1148525" data-name="Grupo 1148525">
                              <g transform="matrix(1, 0, 0, 1, -9, -6)" filter="url(#Trazado_982547)">
                                <g id="Trazado_982547-2" data-name="Trazado 982547" transform="translate(9 6)" fill="#fdfbec">
                                  <path d="M 47.49999618530273 93.5 C 41.28936767578125 93.5 35.26533126831055 92.28396606445312 29.59518241882324 89.88570404052734 C 24.11771583557129 87.56893157958984 19.19812965393066 84.251953125 14.97308921813965 80.02690124511719 C 10.74803638458252 75.80186462402344 7.431062698364258 70.88227844238281 5.114289283752441 65.40480804443359 C 2.716022968292236 59.73466110229492 1.499996185302734 53.71062469482422 1.499996185302734 47.49999618530273 C 1.499996185302734 41.28936767578125 2.716022968292236 35.26533126831055 5.114289283752441 29.59518241882324 C 7.431062698364258 24.11771583557129 10.74803638458252 19.19812965393066 14.97308921813965 14.97308921813965 C 19.19812965393066 10.74803638458252 24.11771583557129 7.431062698364258 29.59518241882324 5.114289283752441 C 35.26533126831055 2.716022968292236 41.28936767578125 1.499996185302734 47.49999618530273 1.499996185302734 C 53.71062469482422 1.499996185302734 59.73466110229492 2.716022968292236 65.40480804443359 5.114289283752441 C 70.88227844238281 7.431062698364258 75.80186462402344 10.74803638458252 80.02690124511719 14.97308921813965 C 84.251953125 19.19812965393066 87.56893157958984 24.11771583557129 89.88570404052734 29.59518241882324 C 92.28396606445312 35.26533126831055 93.5 41.28936767578125 93.5 47.49999618530273 C 93.5 53.71062469482422 92.28396606445312 59.73466110229492 89.88570404052734 65.40480804443359 C 87.56893157958984 70.88227844238281 84.251953125 75.80186462402344 80.02690124511719 80.02690124511719 C 75.80186462402344 84.251953125 70.88227844238281 87.56893157958984 65.40480804443359 89.88570404052734 C 59.73466110229492 92.28396606445312 53.71062469482422 93.5 47.49999618530273 93.5 Z" stroke="none"/>
                                  <path d="M 47.49999618530273 2.999992370605469 C 41.4912109375 2.999992370605469 35.66376495361328 4.1761474609375 30.17950439453125 6.495796203613281 C 24.88084411621094 8.736953735351562 20.12152099609375 11.94598388671875 16.03375244140625 16.03375244140625 C 11.94598388671875 20.12152099609375 8.736953735351562 24.88084411621094 6.495796203613281 30.17950439453125 C 4.1761474609375 35.66376495361328 2.999992370605469 41.4912109375 2.999992370605469 47.49999618530273 C 2.999992370605469 53.50878143310547 4.1761474609375 59.33622741699219 6.495796203613281 64.82048797607422 C 8.736953735351562 70.11914825439453 11.94598388671875 74.87847137451172 16.03375244140625 78.96623992919922 C 20.12152099609375 83.05400848388672 24.88084411621094 86.26304626464844 30.17950439453125 88.50419616699219 C 35.66376495361328 90.82384490966797 41.4912109375 92 47.49999618530273 92 C 53.50878143310547 92 59.33622741699219 90.82384490966797 64.82048797607422 88.50419616699219 C 70.11914825439453 86.26304626464844 74.87847137451172 83.05400848388672 78.96623992919922 78.96623992919922 C 83.05400848388672 74.87847137451172 86.26304626464844 70.11914825439453 88.50419616699219 64.82048797607422 C 90.82384490966797 59.33622741699219 92 53.50878143310547 92 47.49999618530273 C 92 41.4912109375 90.82384490966797 35.66376495361328 88.50419616699219 30.17950439453125 C 86.26304626464844 24.88084411621094 83.05400848388672 20.12152099609375 78.96623992919922 16.03375244140625 C 74.87847137451172 11.94598388671875 70.11914825439453 8.736953735351562 64.82048797607422 6.495796203613281 C 59.33622741699219 4.1761474609375 53.50878143310547 2.999992370605469 47.49999618530273 2.999992370605469 M 47.49999618530273 -7.62939453125e-06 C 73.7335205078125 -7.62939453125e-06 95 21.26647186279297 95 47.49999618530273 C 95 73.7335205078125 73.7335205078125 95 47.49999618530273 95 C 21.26647186279297 95 -7.62939453125e-06 73.7335205078125 -7.62939453125e-06 47.49999618530273 C -7.62939453125e-06 21.26647186279297 21.26647186279297 -7.62939453125e-06 47.49999618530273 -7.62939453125e-06 Z" stroke="none" fill="#83793c"/>
                                </g>
                              </g>
                            </g>
                          </g>
                        </g>
                      </g>
                    </g>
                  </g>
                </g>
              </g>
            </g>
          </g>
        </g>
      </g>
    </g>
    <g id="mind_14752669_2_" data-name="mind_14752669 (2)" transform="translate(233.512 13134.377)">
      <g id="Grupo_1225385" data-name="Grupo 1225385" transform="translate(67.134 7.5)">
        <path id="Trazado_1057369" data-name="Trazado 1057369" d="M122.64,275a31.807,31.807,0,0,0,2.454,8.718,28.292,28.292,0,0,0,3.7,5.885,2.178,2.178,0,0,1-.252,2.982,19.872,19.872,0,0,1-5.671,3.48,19.145,19.145,0,0,1-11.453,1.2H95.471a19.144,19.144,0,0,1-11.453-1.2,19.872,19.872,0,0,1-5.671-3.48,2.178,2.178,0,0,1-.252-2.982,28.286,28.286,0,0,0,3.7-5.885A31.808,31.808,0,0,0,84.25,275Z" transform="translate(-76.101 -236.272)" fill="#da9d81"/>
        <path id="Trazado_1057370" data-name="Trazado 1057370" d="M148.972,294.914c-3.107-4.4-5.4-10.713-5.215-14.317V275H110.565v5.6c.181,3.6-2.109,9.916-5.215,14.317a21.821,21.821,0,0,0,2.383,1.152,19.143,19.143,0,0,0,11.453,1.2h15.949a19.143,19.143,0,0,0,11.453-1.2A21.809,21.809,0,0,0,148.972,294.914Z" transform="translate(-99.817 -236.272)" fill="#c7856a"/>
        <circle id="Elipse_13620" data-name="Elipse 13620" cx="6.448" cy="6.448" r="6.448" transform="translate(0 33.649)" fill="#ffbe9c"/>
        <circle id="Elipse_13621" data-name="Elipse 13621" cx="6.448" cy="6.448" r="6.448" transform="translate(41.792 33.649)" fill="#ffcabd"/>
        <path id="Trazado_1057371" data-name="Trazado 1057371" d="M160.891,391.337a4.526,4.526,0,0,0,4.331-5.882,19.165,19.165,0,0,0-36.474,0,4.526,4.526,0,0,0,4.331,5.882Z" transform="translate(-119.642 -319.382)" fill="#ff96c0"/>
        <path id="Trazado_1057372" data-name="Trazado 1057372" d="M203.343,372.179l-8.914,8.5a28.63,28.63,0,0,0,17.828,0Z" transform="translate(-175.999 -319.381)" fill="#ff71a7"/>
        <path id="Trazado_1057373" data-name="Trazado 1057373" d="M194.552,382.193a14.843,14.843,0,0,1,1.247,3.566,23.611,23.611,0,0,1,.566,3.36,2.7,2.7,0,0,1-3.443,2.829,18.871,18.871,0,0,1-4.978-2.349,17.02,17.02,0,0,1-3.718-3.272,17.022,17.022,0,0,1-3.718,3.272,18.871,18.871,0,0,1-4.978,2.349,2.7,2.7,0,0,1-3.443-2.829,23.64,23.64,0,0,1,.566-3.36,14.844,14.844,0,0,1,1.247-3.566Z" transform="translate(-156.883 -327.945)" fill="#eeecff"/>
        <path id="Trazado_1057374" data-name="Trazado 1057374" d="M196.649,385.759a14.842,14.842,0,0,0-1.247-3.566H174.75a14.842,14.842,0,0,0-1.247,3.566c-.173.719-.323,1.482-.434,2.243a26.958,26.958,0,0,0,7.194,2.269c.371-.212.737-.435,1.094-.67a17.026,17.026,0,0,0,3.718-3.272,17.019,17.019,0,0,0,3.718,3.272c.357.236.723.459,1.094.67A26.958,26.958,0,0,0,197.082,388C196.972,387.241,196.822,386.478,196.649,385.759Z" transform="translate(-157.732 -327.945)" fill="#d3d3ff"/>
        <path id="Trazado_1057375" data-name="Trazado 1057375" d="M134.165,146.177a21.043,21.043,0,0,1,13.77,5.057,19.4,19.4,0,0,1,6.855,14.734,17.388,17.388,0,0,1-4.628,11.981,22.854,22.854,0,0,1-31.995,0,17.388,17.388,0,0,1-4.628-11.981,19.4,19.4,0,0,1,6.855-14.734A21.044,21.044,0,0,1,134.165,146.177Z" transform="translate(-106.821 -126.1)" fill="#ffdcce"/>
        <path id="Trazado_1057376" data-name="Trazado 1057376" d="M134.607,163.7a20.981,20.981,0,0,0,16.482-9.052,20.193,20.193,0,0,0-3.153-3.419,21.277,21.277,0,0,0-27.54,0,19.4,19.4,0,0,0-6.855,14.734,17.387,17.387,0,0,0,4.628,11.981,21.587,21.587,0,0,0,16,6.533,25.048,25.048,0,0,0,2.874-.165c-5.472-4.279-5.375-15.271-3.347-19.978A1.041,1.041,0,0,1,134.607,163.7Z" transform="translate(-106.821 -126.098)" fill="#ffcabd"/>
        <path id="Trazado_1057377" data-name="Trazado 1057377" d="M125.586,151.166a16.976,16.976,0,0,1,10.078,3.041,17.283,17.283,0,0,1,5.913,7.951,2.178,2.178,0,0,1-2.028,2.947,26.328,26.328,0,0,1-8.232-1.413,21.066,21.066,0,0,1-8.425-5.129h-8.927a21.067,21.067,0,0,1-8.425,5.129,26.331,26.331,0,0,1-8.232,1.413,2.178,2.178,0,0,1-2.028-2.947,17.284,17.284,0,0,1,5.913-7.951,16.976,16.976,0,0,1,10.078-3.041Z" transform="translate(-91.085 -130.366)" fill="#da9d81"/>
        <path id="Trazado_1057378" data-name="Trazado 1057378" d="M160.844,155.531a15.333,15.333,0,0,0-1.6-1.324,16.976,16.976,0,0,0-10.078-3.041H134.856a16.976,16.976,0,0,0-10.078,3.041,15.454,15.454,0,0,0-2.062,1.784,21.118,21.118,0,0,0,6.3,7.736l.109-.036a21.066,21.066,0,0,0,8.425-5.129h8.927a20.883,20.883,0,0,0,8.067,5A21.106,21.106,0,0,0,160.844,155.531Z" transform="translate(-114.669 -130.366)" fill="#c7856a"/>
        <circle id="Elipse_13622" data-name="Elipse 13622" cx="16.639" cy="16.639" r="16.639" transform="translate(10.366 0)" fill="#59d5ff"/>
        <path id="Trazado_1057379" data-name="Trazado 1057379" d="M155.372,7.5a16.639,16.639,0,1,0,0,33.278q.6,0,1.188-.043c-1.768-1.578-1.826-5.477-.544-6.609l.273-18.6c-1.075-1.648-1.532-5.819-.022-8Q155.823,7.5,155.372,7.5Z" transform="translate(-128.367 -7.5)" fill="#00c4fc"/>
        <path id="Trazado_1057380" data-name="Trazado 1057380" d="M197.6,58.378l-1.417-.644a1.5,1.5,0,0,1-.805-.9l-.625-1.924a1.5,1.5,0,0,1,.122-1.2l.767-1.354a1.5,1.5,0,0,0-.423-1.953L192.4,48.345a1.5,1.5,0,0,0-1.988.2l-1.051,1.148a1.5,1.5,0,0,1-1.106.487h-2.023a1.5,1.5,0,0,1-1.106-.487l-1.051-1.148a1.5,1.5,0,0,0-1.988-.2L179.256,50.4a1.5,1.5,0,0,0-.423,1.953l.767,1.354a1.5,1.5,0,0,1,.122,1.2l-.625,1.924a1.5,1.5,0,0,1-.805.9l-1.417.644a1.5,1.5,0,0,0-.805,1.828l1.08,3.324a1.5,1.5,0,0,0,1.726,1.006l1.525-.312a1.5,1.5,0,0,1,1.182.256l1.636,1.189a1.5,1.5,0,0,1,.609,1.045L184,68.261a1.5,1.5,0,0,0,1.49,1.331h3.495a1.5,1.5,0,0,0,1.49-1.331l.175-1.547a1.5,1.5,0,0,1,.609-1.045l1.636-1.189a1.5,1.5,0,0,1,1.182-.256l1.525.312a1.5,1.5,0,0,0,1.726-1.006l1.08-3.324A1.5,1.5,0,0,0,197.6,58.378Z" transform="translate(-160.235 -42.186)" fill="#5d84d9"/>
        <path id="Trazado_1057381" data-name="Trazado 1057381" d="M187.529,61.047l.049-5.268c-.94-.635-1.448-3.979-.186-5.6h-1.164a1.5,1.5,0,0,1-1.106-.487l-1.05-1.148a1.5,1.5,0,0,0-1.988-.2L179.256,50.4a1.5,1.5,0,0,0-.423,1.953l.767,1.354a1.5,1.5,0,0,1,.122,1.2l-.625,1.924a1.5,1.5,0,0,1-.805.9l-1.417.644a1.5,1.5,0,0,0-.805,1.828l1.08,3.324a1.5,1.5,0,0,0,1.726,1.006l1.525-.312a1.5,1.5,0,0,1,1.182.256l1.636,1.189a1.5,1.5,0,0,1,.609,1.045L184,68.263a1.5,1.5,0,0,0,1.49,1.331h2.541C186.76,68.366,186.124,62.7,187.529,61.047Z" transform="translate(-160.235 -42.188)" fill="#0070c7"/>
        <circle id="Elipse_13623" data-name="Elipse 13623" cx="2.964" cy="2.964" r="2.964" transform="translate(24.041 13.264)" fill="#eeecff"/>
      </g>
      <g id="Grupo_1225388" data-name="Grupo 1225388" transform="translate(67.134 7.5)">
        <path id="Trazado_1057382" data-name="Trazado 1057382" d="M168.79,14.3a16.563,16.563,0,1,0,2.367,4.565" transform="translate(-128.367 -7.5)" fill="none" stroke="#000" stroke-linecap="round" stroke-linejoin="round" stroke-miterlimit="10" stroke-width="1.2"/>
        <path id="Trazado_1057383" data-name="Trazado 1057383" d="M197.6,58.378l-1.417-.644a1.5,1.5,0,0,1-.805-.9l-.625-1.924a1.5,1.5,0,0,1,.122-1.2l.767-1.354a1.5,1.5,0,0,0-.423-1.953L192.4,48.345a1.5,1.5,0,0,0-1.988.2l-1.051,1.148a1.5,1.5,0,0,1-1.106.487h-2.023a1.5,1.5,0,0,1-1.106-.487l-1.051-1.148a1.5,1.5,0,0,0-1.988-.2L179.256,50.4a1.5,1.5,0,0,0-.423,1.953l.767,1.354a1.5,1.5,0,0,1,.122,1.2l-.625,1.924a1.5,1.5,0,0,1-.805.9l-1.417.644a1.5,1.5,0,0,0-.805,1.828l1.08,3.324a1.5,1.5,0,0,0,1.726,1.006l1.525-.312a1.5,1.5,0,0,1,1.182.256l1.636,1.189a1.5,1.5,0,0,1,.609,1.045L184,68.261a1.5,1.5,0,0,0,1.49,1.331h3.495a1.5,1.5,0,0,0,1.49-1.331l.175-1.547a1.5,1.5,0,0,1,.609-1.045l1.636-1.189a1.5,1.5,0,0,1,1.182-.256l1.525.312a1.5,1.5,0,0,0,1.726-1.006l1.08-3.324A1.5,1.5,0,0,0,197.6,58.378Z" transform="translate(-160.235 -42.186)" fill="none" stroke="#000" stroke-linecap="round" stroke-linejoin="round" stroke-miterlimit="10" stroke-width="1.2"/>
        <circle id="Elipse_13624" data-name="Elipse 13624" cx="2.964" cy="2.964" r="2.964" transform="translate(24.041 13.264)" fill="none" stroke="#000" stroke-linecap="round" stroke-linejoin="round" stroke-miterlimit="10" stroke-width="1.2"/>
        <g id="Grupo_1225386" data-name="Grupo 1225386" transform="translate(4.055 22.605)">
          <path id="Trazado_1057384" data-name="Trazado 1057384" d="M102.671,165.687a15.179,15.179,0,0,0-1.478.939,17.283,17.283,0,0,0-5.913,7.951,2.178,2.178,0,0,0,2.028,2.947,26.331,26.331,0,0,0,8.232-1.413,23.684,23.684,0,0,0,4.558-2.09" transform="translate(-95.14 -165.39)" fill="none" stroke="#000" stroke-linecap="round" stroke-linejoin="round" stroke-miterlimit="10" stroke-width="1.2"/>
          <path id="Trazado_1057385" data-name="Trazado 1057385" d="M311.291,172.068a23.471,23.471,0,0,0,4.883,2.288,26.332,26.332,0,0,0,8.232,1.413,2.178,2.178,0,0,0,2.028-2.947,17.283,17.283,0,0,0-5.913-7.951,15.173,15.173,0,0,0-2.038-1.236" transform="translate(-279.997 -163.637)" fill="none" stroke="#000" stroke-linecap="round" stroke-linejoin="round" stroke-miterlimit="10" stroke-width="1.2"/>
        </g>
        <path id="Trazado_1057386" data-name="Trazado 1057386" d="M114.251,247.206a19.062,19.062,0,0,0-.711,5.164,17.388,17.388,0,0,0,4.628,11.981,22.854,22.854,0,0,0,31.995,0,17.388,17.388,0,0,0,4.628-11.981,19.063,19.063,0,0,0-.711-5.164" transform="translate(-106.821 -212.502)" fill="none" stroke="#000" stroke-linecap="round" stroke-linejoin="round" stroke-miterlimit="10" stroke-width="1.2"/>
        <path id="Trazado_1057387" data-name="Trazado 1057387" d="M71.679,241.893a6.448,6.448,0,0,0,3.37,12.44" transform="translate(-67.134 -207.958)" fill="none" stroke="#000" stroke-linecap="round" stroke-linejoin="round" stroke-miterlimit="10" stroke-width="1.2"/>
        <path id="Trazado_1057388" data-name="Trazado 1057388" d="M393.566,241.893a6.448,6.448,0,0,1-3.37,12.44" transform="translate(-343.423 -207.958)" fill="none" stroke="#000" stroke-linecap="round" stroke-linejoin="round" stroke-miterlimit="10" stroke-width="1.2"/>
        <path id="Trazado_1057389" data-name="Trazado 1057389" d="M195.193,392.381c.213.609.422,1.325.607,2.091a23.631,23.631,0,0,1,.567,3.36,2.7,2.7,0,0,1-3.443,2.829,18.878,18.878,0,0,1-4.978-2.349,17.021,17.021,0,0,1-3.718-3.272,17.02,17.02,0,0,1-3.718,3.272,18.874,18.874,0,0,1-4.978,2.349,2.7,2.7,0,0,1-3.443-2.829,23.635,23.635,0,0,1,.566-3.36c.184-.766.394-1.482.607-2.091" transform="translate(-156.883 -336.658)" fill="none" stroke="#000" stroke-linecap="round" stroke-linejoin="round" stroke-miterlimit="10" stroke-width="1.2"/>
        <path id="Trazado_1057390" data-name="Trazado 1057390" d="M227.385,412.662h18.049a4.526,4.526,0,0,0,4.331-5.882,19.194,19.194,0,0,0-7.047-9.665" transform="translate(-204.184 -340.707)" fill="none" stroke="#000" stroke-linecap="round" stroke-linejoin="round" stroke-miterlimit="10" stroke-width="1.2"/>
        <path id="Trazado_1057391" data-name="Trazado 1057391" d="M135.8,397.114a19.2,19.2,0,0,0-7.047,9.665,4.526,4.526,0,0,0,4.331,5.882h4.6" transform="translate(-119.642 -340.706)" fill="none" stroke="#000" stroke-linecap="round" stroke-linejoin="round" stroke-miterlimit="10" stroke-width="1.2"/>
        <path id="Trazado_1057392" data-name="Trazado 1057392" d="M364.339,343.343a22.16,22.16,0,0,0,3.742-1.165,19.873,19.873,0,0,0,5.671-3.48,2.178,2.178,0,0,0,.252-2.982,28.286,28.286,0,0,1-3.7-5.885q-.207-.45-.4-.912" transform="translate(-321.31 -282.384)" fill="none" stroke="#000" stroke-linecap="round" stroke-linejoin="round" stroke-miterlimit="10" stroke-width="1.2"/>
        <path id="Trazado_1057393" data-name="Trazado 1057393" d="M82.194,328.918q-.191.462-.4.912a28.294,28.294,0,0,1-3.7,5.885,2.178,2.178,0,0,0,.252,2.982,19.868,19.868,0,0,0,5.671,3.48,22.153,22.153,0,0,0,3.742,1.165" transform="translate(-76.101 -282.383)" fill="none" stroke="#000" stroke-linecap="round" stroke-linejoin="round" stroke-miterlimit="10" stroke-width="1.2"/>
        <g id="Grupo_1225387" data-name="Grupo 1225387" transform="translate(16.444 40.002)">
          <path id="Trazado_1057394" data-name="Trazado 1057394" d="M184.7,285.793a1.993,1.993,0,0,0-3.986,0" transform="translate(-180.713 -283.8)" fill="none" stroke="#000" stroke-linecap="round" stroke-linejoin="round" stroke-miterlimit="10" stroke-width="1.2"/>
          <path id="Trazado_1057395" data-name="Trazado 1057395" d="M303.757,285.793a1.993,1.993,0,0,1,3.986,0" transform="translate(-285.943 -283.8)" fill="none" stroke="#000" stroke-linecap="round" stroke-linejoin="round" stroke-miterlimit="10" stroke-width="1.2"/>
          <path id="Trazado_1057396" data-name="Trazado 1057396" d="M241.4,313.653a2.8,2.8,0,0,0,4.228,0" transform="translate(-232.613 -309.331)" fill="none" stroke="#000" stroke-linecap="round" stroke-linejoin="round" stroke-miterlimit="10" stroke-width="1.2"/>
        </g>
      </g>
    </g>
  </g>
</svg>
