<svg xmlns="http://www.w3.org/2000/svg" xmlns:xlink="http://www.w3.org/1999/xlink" width="113" height="113" viewBox="0 0 113 113">
  <defs>
    <filter id="Trazado_982547" x="0" y="-0.001" width="113" height="113" filterUnits="userSpaceOnUse">
      <feOffset dy="3" input="SourceAlpha"/>
      <feGaussianBlur stdDeviation="3" result="blur"/>
      <feFlood flood-opacity="0.161"/>
      <feComposite operator="in" in2="blur"/>
      <feComposite in="SourceGraphic"/>
    </filter>
  </defs>
  <g id="Grupo_1225223" data-name="Grupo 1225223" transform="translate(-585.509 -4740.997)">
    <g id="Grupo_1224647" data-name="Grupo 1224647" transform="translate(0 1927)">
      <g id="Grupo_1224292" data-name="Grupo 1224292" transform="translate(0 859.245)">
        <g id="Grupo_1224092" data-name="Grupo 1224092" transform="translate(-88.49 -2620.317)">
          <g id="Grupo_1223184" data-name="Grupo 1223184" transform="translate(683 4581.069)">
            <g id="Grupo_1211216" data-name="Grupo 1211216" transform="translate(0)">
              <g id="Grupo_1210737" data-name="Grupo 1210737">
                <g id="Grupo_1210537" data-name="Grupo 1210537">
                  <g id="Grupo_1164202" data-name="Grupo 1164202">
                    <g id="Grupo_1158168" data-name="Grupo 1158168">
                      <g id="Grupo_1152576" data-name="Grupo 1152576">
                        <g id="Grupo_1148633" data-name="Grupo 1148633">
                          <g id="Grupo_1148525" data-name="Grupo 1148525">
                            <g transform="matrix(1, 0, 0, 1, -9, -6)" filter="url(#Trazado_982547)">
                              <g id="Trazado_982547-2" data-name="Trazado 982547" transform="translate(9 6)" fill="#fdfbec">
                                <path d="M 47.49999618530273 93.5 C 41.28936767578125 93.5 35.26533126831055 92.28396606445312 29.59518241882324 89.88570404052734 C 24.11771583557129 87.56893157958984 19.19812965393066 84.251953125 14.97308921813965 80.02690124511719 C 10.74803638458252 75.80186462402344 7.431062698364258 70.88227844238281 5.114289283752441 65.40480804443359 C 2.716022968292236 59.73466110229492 1.499996185302734 53.71062469482422 1.499996185302734 47.49999618530273 C 1.499996185302734 41.28936767578125 2.716022968292236 35.26533126831055 5.114289283752441 29.59518241882324 C 7.431062698364258 24.11771583557129 10.74803638458252 19.19812965393066 14.97308921813965 14.97308921813965 C 19.19812965393066 10.74803638458252 24.11771583557129 7.431062698364258 29.59518241882324 5.114289283752441 C 35.26533126831055 2.716022968292236 41.28936767578125 1.499996185302734 47.49999618530273 1.499996185302734 C 53.71062469482422 1.499996185302734 59.73466110229492 2.716022968292236 65.40480804443359 5.114289283752441 C 70.88227844238281 7.431062698364258 75.80186462402344 10.74803638458252 80.02690124511719 14.97308921813965 C 84.251953125 19.19812965393066 87.56893157958984 24.11771583557129 89.88570404052734 29.59518241882324 C 92.28396606445312 35.26533126831055 93.5 41.28936767578125 93.5 47.49999618530273 C 93.5 53.71062469482422 92.28396606445312 59.73466110229492 89.88570404052734 65.40480804443359 C 87.56893157958984 70.88227844238281 84.251953125 75.80186462402344 80.02690124511719 80.02690124511719 C 75.80186462402344 84.251953125 70.88227844238281 87.56893157958984 65.40480804443359 89.88570404052734 C 59.73466110229492 92.28396606445312 53.71062469482422 93.5 47.49999618530273 93.5 Z" stroke="none"/>
                                <path d="M 47.49999618530273 2.999992370605469 C 41.4912109375 2.999992370605469 35.66376495361328 4.1761474609375 30.17950439453125 6.495796203613281 C 24.88084411621094 8.736953735351562 20.12152099609375 11.94598388671875 16.03375244140625 16.03375244140625 C 11.94598388671875 20.12152099609375 8.736953735351562 24.88084411621094 6.495796203613281 30.17950439453125 C 4.1761474609375 35.66376495361328 2.999992370605469 41.4912109375 2.999992370605469 47.49999618530273 C 2.999992370605469 53.50878143310547 4.1761474609375 59.33622741699219 6.495796203613281 64.82048797607422 C 8.736953735351562 70.11914825439453 11.94598388671875 74.87847137451172 16.03375244140625 78.96623992919922 C 20.12152099609375 83.05400848388672 24.88084411621094 86.26304626464844 30.17950439453125 88.50419616699219 C 35.66376495361328 90.82384490966797 41.4912109375 92 47.49999618530273 92 C 53.50878143310547 92 59.33622741699219 90.82384490966797 64.82048797607422 88.50419616699219 C 70.11914825439453 86.26304626464844 74.87847137451172 83.05400848388672 78.96623992919922 78.96623992919922 C 83.05400848388672 74.87847137451172 86.26304626464844 70.11914825439453 88.50419616699219 64.82048797607422 C 90.82384490966797 59.33622741699219 92 53.50878143310547 92 47.49999618530273 C 92 41.4912109375 90.82384490966797 35.66376495361328 88.50419616699219 30.17950439453125 C 86.26304626464844 24.88084411621094 83.05400848388672 20.12152099609375 78.96623992919922 16.03375244140625 C 74.87847137451172 11.94598388671875 70.11914825439453 8.736953735351562 64.82048797607422 6.495796203613281 C 59.33622741699219 4.1761474609375 53.50878143310547 2.999992370605469 47.49999618530273 2.999992370605469 M 47.49999618530273 -7.62939453125e-06 C 73.7335205078125 -7.62939453125e-06 95 21.26647186279297 95 47.49999618530273 C 95 73.7335205078125 73.7335205078125 95 47.49999618530273 95 C 21.26647186279297 95 -7.62939453125e-06 73.7335205078125 -7.62939453125e-06 47.49999618530273 C -7.62939453125e-06 21.26647186279297 21.26647186279297 -7.62939453125e-06 47.49999618530273 -7.62939453125e-06 Z" stroke="none" fill="#83793c"/>
                              </g>
                            </g>
                          </g>
                        </g>
                      </g>
                    </g>
                  </g>
                </g>
              </g>
            </g>
          </g>
        </g>
      </g>
    </g>
    <g id="book_2125021" transform="translate(608.396 4766.037)">
      <path id="Trazado_1057397" data-name="Trazado 1057397" d="M57.657,7V36.6H35.947a1.98,1.98,0,0,0-1.974,1.974A1.98,1.98,0,0,1,32,40.551H60.617V7Z" transform="translate(-0.396 -0.066)" fill="#00b39d"/>
      <path id="Trazado_1057398" data-name="Trazado 1057398" d="M34,37h3.947v1.974H34Z" transform="translate(-0.422 -0.462)" fill="#009986"/>
      <path id="Trazado_1057399" data-name="Trazado 1057399" d="M35.974,3A1.98,1.98,0,0,0,34,4.974V38.525a1.98,1.98,0,0,1,1.974-1.974h21.71V3Z" transform="translate(-0.422 -0.013)" fill="#e6e7e8"/>
      <path id="Trazado_1057400" data-name="Trazado 1057400" d="M31.617,40.551H3V7H5.96V36.6H27.67a1.98,1.98,0,0,1,1.974,1.974A1.98,1.98,0,0,0,31.617,40.551Z" transform="translate(-0.013 -0.066)" fill="#00b39d"/>
      <path id="Trazado_1057401" data-name="Trazado 1057401" d="M56.789,49v5.921H41V49H56.789Z" transform="translate(-0.514 -0.62)" fill="#3d9ae2"/>
      <path id="Trazado_1057402" data-name="Trazado 1057402" d="M42,55H55.815v5.921H42Z" transform="translate(-0.528 -0.699)" fill="#78b9eb"/>
      <path id="Trazado_1057403" data-name="Trazado 1057403" d="M49.439,12.428l-3.493,3.493-3.493-3.493a1.962,1.962,0,0,1-.306-2.378,1.678,1.678,0,0,0,.306.4l3.493,3.493,3.493-3.493a1.678,1.678,0,0,0,.306-.4A1.962,1.962,0,0,1,49.439,12.428Z" transform="translate(-0.526 -0.106)" fill="#d1d3d4"/>
      <path id="Trazado_1057404" data-name="Trazado 1057404" d="M57.154,24.49a1.929,1.929,0,0,0-1.391-.582,1.98,1.98,0,0,0-1.974,1.974V21.934a1.974,1.974,0,1,0-3.947,0v-2.96a1.974,1.974,0,0,0-3.947,0v2.96a1.974,1.974,0,1,0-3.947,0v8.881a1.974,1.974,0,0,0-3.947,0V42.657L41.947,46.6v1.974H54.776V46.6l2.96-4.934V25.881A1.929,1.929,0,0,0,57.154,24.49Z" transform="translate(-0.475 -0.198)" fill="#ffc477"/>
      <path id="Trazado_1057405" data-name="Trazado 1057405" d="M33.947,6V38.565a1.974,1.974,0,0,1-3.947,0V6Z" transform="translate(-0.369 -0.053)" fill="#009986"/>
      <path id="Trazado_1057406" data-name="Trazado 1057406" d="M6,37H30.67v1.974H6Z" transform="translate(-0.053 -0.462)" fill="#009986"/>
      <path id="Trazado_1057407" data-name="Trazado 1057407" d="M27.71,3H6V36.551H27.71a1.98,1.98,0,0,1,1.974,1.974V4.974A1.98,1.98,0,0,0,27.71,3Z" transform="translate(-0.053 -0.013)" fill="#e6e7e8"/>
      <path id="Trazado_1057408" data-name="Trazado 1057408" d="M42,55H55.815v1.974H42Z" transform="translate(-0.528 -0.699)" fill="#5aaae7"/>
      <path id="Trazado_1057409" data-name="Trazado 1057409" d="M49.44,7.632a1.966,1.966,0,0,1,0,2.783l-3.493,3.493-3.493-3.493a1.974,1.974,0,0,1,2.793-2.783l.7.691.7-.691a1.974,1.974,0,0,1,2.793,0Z" transform="translate(-0.527 -0.067)" fill="#ff5023"/>
      <path id="Trazado_1057410" data-name="Trazado 1057410" d="M13.947,3V8.921L11.974,6.947,10,8.921V3Z" transform="translate(-0.106 -0.013)" fill="#ff5023"/>
      <path id="Trazado_1057411" data-name="Trazado 1057411" d="M45.235,14.593a.987.987,0,0,0,1.4,0L50.118,11.1a2.96,2.96,0,0,0,0-4.186,3.03,3.03,0,0,0-4.187,0,3.031,3.031,0,0,0-4.186,0,2.96,2.96,0,0,0,0,4.186Zm-2.092-6.28a.987.987,0,0,1,1.394,0l.7.7a.987.987,0,0,0,1.4,0l.7-.7a1.01,1.01,0,0,1,1.4,0,.987.987,0,0,1,0,1.394L45.932,12.5,43.142,9.708a.987.987,0,0,1,0-1.4Z" transform="translate(-0.513 -0.054)"/>
      <path id="Trazado_1057412" data-name="Trazado 1057412" d="M11,12H24.815v1.974H11Z" transform="translate(-0.119 -0.132)"/>
      <path id="Trazado_1057413" data-name="Trazado 1057413" d="M11,16H24.815v1.974H11Z" transform="translate(-0.119 -0.185)"/>
      <path id="Trazado_1057414" data-name="Trazado 1057414" d="M11,20H24.815v1.974H11Z" transform="translate(-0.119 -0.237)"/>
      <path id="Trazado_1057415" data-name="Trazado 1057415" d="M11,24H24.815v1.974H11Z" transform="translate(-0.119 -0.29)"/>
      <path id="Trazado_1057416" data-name="Trazado 1057416" d="M11,28H24.815v1.974H11Z" transform="translate(-0.119 -0.343)"/>
      <path id="Trazado_1057417" data-name="Trazado 1057417" d="M60.222,5.947H58.248V2.987A.987.987,0,0,0,57.261,2H35.551a2.96,2.96,0,0,0-2.96,2.96H30.617A2.96,2.96,0,0,0,27.657,2H5.947a.987.987,0,0,0-.987.987v2.96H2.987A.987.987,0,0,0,2,6.934V40.486a.987.987,0,0,0,.987.987H36.538v.987a.987.987,0,0,0,.289.7l3.658,3.658v.578a.987.987,0,0,0-.987.987V54.3a.987.987,0,0,0,.987.987v4.934a.987.987,0,0,0,.987.987H55.288a.987.987,0,0,0,.987-.987V55.288a.987.987,0,0,0,.987-.987V48.38a.987.987,0,0,0-.987-.987h-.987V46.68l2.819-4.7a.987.987,0,0,0,.141-.508h1.974a.987.987,0,0,0,.987-.987V6.934A.987.987,0,0,0,60.222,5.947ZM34.565,4.96a.987.987,0,0,1,.987-.987H56.274V22.9a2.927,2.927,0,0,0-.987-.182,2.96,2.96,0,0,0-.987.169V21.736a2.96,2.96,0,0,0-3.947-2.792v-.169a2.96,2.96,0,1,0-5.921,0v.169a2.96,2.96,0,0,0-3.947,2.792v6.09a2.96,2.96,0,0,0-3.947,2.792v4.934h-.987a2.927,2.927,0,0,0-.987.182ZM10.881,3.974h1.974V6.526l-.289-.289a.987.987,0,0,0-1.4,0l-.289.289Zm-3.947,0H8.908V8.908a.987.987,0,0,0,1.684.7l1.276-1.276,1.276,1.276a.987.987,0,0,0,1.684-.7V3.974H27.657a.987.987,0,0,1,.987.987V35.733a2.927,2.927,0,0,0-.987-.182H6.934ZM3.974,7.921H4.96V36.538a.987.987,0,0,0,.987.987h21.71a.987.987,0,0,1,.987.987,2.927,2.927,0,0,0,.182.987H3.974ZM30.617,38.512V6.934h1.974V38.512a.987.987,0,0,1-1.974,0Zm3.766.987a2.927,2.927,0,0,0,.182-.987.987.987,0,0,1,.987-.987h.987V39.5Zm20.9,9.868v3.947H41.472V49.367ZM54.3,59.235H42.459V55.288H54.3ZM56.274,41.2l-2.819,4.7a.987.987,0,0,0-.141.508v.987H42.459v-.987a.987.987,0,0,0-.289-.7l-3.658-3.658V30.617a.987.987,0,0,1,1.974,0v5.921a.987.987,0,1,0,1.974,0v-14.8a.987.987,0,0,1,1.974,0V32.591a.987.987,0,1,0,1.974,0V18.776a.987.987,0,0,1,1.974,0V32.591a.987.987,0,1,0,1.974,0V21.736a.987.987,0,0,1,1.974,0V32.591a.987.987,0,1,0,1.974,0V25.683a.987.987,0,0,1,1.974,0Zm2.96-1.7h-.987V7.921h.987Z"/>
    </g>
  </g>
</svg>
