<svg xmlns="http://www.w3.org/2000/svg" xmlns:xlink="http://www.w3.org/1999/xlink" width="113" height="113" viewBox="0 0 113 113">
  <defs>
    <filter id="Trazado_982547" x="0" y="0" width="113" height="113" filterUnits="userSpaceOnUse">
      <feOffset dy="3" input="SourceAlpha"/>
      <feGaussianBlur stdDeviation="3" result="blur"/>
      <feFlood flood-opacity="0.161"/>
      <feComposite operator="in" in2="blur"/>
      <feComposite in="SourceGraphic"/>
    </filter>
  </defs>
  <g id="Grupo_1224563" data-name="Grupo 1224563" transform="translate(-793.49 -1733.957)">
    <g id="Grupo_1209304" data-name="Grupo 1209304" transform="translate(0 503.742)">
      <g id="Grupo_1208492" data-name="Grupo 1208492" transform="translate(0 -4397.209)">
        <g id="Grupo_1177675" data-name="Grupo 1177675" transform="translate(-4493 3707.152)">
          <g id="Grupo_1176928" data-name="Grupo 1176928" transform="translate(5295.49 1926.273)">
            <g id="Grupo_1172322" data-name="Grupo 1172322" transform="translate(0 0)">
              <g id="Grupo_1164700" data-name="Grupo 1164700">
                <g id="Grupo_1160931" data-name="Grupo 1160931">
                  <g id="Grupo_1160749" data-name="Grupo 1160749">
                    <g id="Grupo_1158891" data-name="Grupo 1158891">
                      <g id="Grupo_1157406" data-name="Grupo 1157406">
                        <g id="Grupo_1155793" data-name="Grupo 1155793">
                          <g id="Grupo_1154704" data-name="Grupo 1154704">
                            <g id="Grupo_1150790" data-name="Grupo 1150790">
                              <g id="Grupo_1154214" data-name="Grupo 1154214">
                                <g id="Grupo_1152583" data-name="Grupo 1152583">
                                  <g id="Grupo_1146973" data-name="Grupo 1146973">
                                    <g id="Grupo_1146954" data-name="Grupo 1146954">
                                      <g transform="matrix(1, 0, 0, 1, -9, -6)" filter="url(#Trazado_982547)">
                                        <g id="Trazado_982547-2" data-name="Trazado 982547" transform="translate(9 6)" fill="#fcf8db">
                                          <path d="M 47.5000114440918 93.49987030029297 C 41.28938293457031 93.49987030029297 35.26534652709961 92.28384399414062 29.5951976776123 89.88558959960938 C 24.11773109436035 87.56881713867188 19.19814491271973 84.25183868408203 14.97310447692871 80.02680206298828 C 10.74805164337158 75.80176544189453 7.43107795715332 70.88218688964844 5.114304542541504 65.40472412109375 C 2.716038227081299 59.73458862304688 1.500011444091797 53.71054840087891 1.500011444091797 47.49993515014648 C 1.500011444091797 41.28932189941406 2.716038227081299 35.26528167724609 5.114304542541504 29.59514808654785 C 7.43107795715332 24.1176815032959 10.74805164337158 19.1981086730957 14.97310447692871 14.97306823730469 C 19.19814491271973 10.74802875518799 24.11773109436035 7.431055068969727 29.5951976776123 5.11428165435791 C 35.26534652709961 2.716028451919556 41.28938293457031 1.500001788139343 47.5000114440918 1.500001788139343 C 53.71063995361328 1.500001788139343 59.73467636108398 2.716028451919556 65.40482330322266 5.11428165435791 C 70.88229370117188 7.431055068969727 75.8018798828125 10.74802875518799 80.02691650390625 14.97306823730469 C 84.25196838378906 19.1981086730957 87.56894683837891 24.1176815032959 89.88571929931641 29.59514808654785 C 92.28398132324219 35.26528167724609 93.50001525878906 41.28932189941406 93.50001525878906 47.49993515014648 C 93.50001525878906 53.71054840087891 92.28398132324219 59.73458862304688 89.88571929931641 65.40472412109375 C 87.56894683837891 70.88218688964844 84.25196838378906 75.80176544189453 80.02691650390625 80.02680206298828 C 75.8018798828125 84.25183868408203 70.88229370117188 87.56881713867188 65.40482330322266 89.88558959960938 C 59.73467636108398 92.28384399414062 53.71063995361328 93.49987030029297 47.5000114440918 93.49987030029297 Z" stroke="none"/>
                                          <path d="M 47.5000114440918 3 C 41.49122619628906 3 35.66378021240234 4.1761474609375 30.17951965332031 6.495796203613281 C 24.880859375 8.7369384765625 20.12153625488281 11.94596862792969 16.03376770019531 16.03373718261719 C 11.94598388671875 20.12149047851562 8.736968994140625 24.88081359863281 6.495811462402344 30.17947387695312 C 4.176162719726562 35.66371917724609 3.000007629394531 41.49116516113281 3.000007629394531 47.49993515014648 C 3.000007629394531 53.50870513916016 4.176162719726562 59.33615112304688 6.495811462402344 64.82039642333984 C 8.736968994140625 70.11905670166016 11.94598388671875 74.87837982177734 16.03376770019531 78.96613311767578 C 20.12153625488281 83.05390167236328 24.880859375 86.26293182373047 30.17951965332031 88.50407409667969 C 35.66378021240234 90.82372283935547 41.49122619628906 91.99987030029297 47.5000114440918 91.99987030029297 C 53.50879669189453 91.99987030029297 59.33624267578125 90.82372283935547 64.82050323486328 88.50407409667969 C 70.11916351318359 86.26293182373047 74.87848663330078 83.05390167236328 78.96625518798828 78.96613311767578 C 83.05403900146484 74.87837982177734 86.2630615234375 70.11905670166016 88.50421142578125 64.82039642333984 C 90.82386016845703 59.33615112304688 92.00001525878906 53.50870513916016 92.00001525878906 47.49993515014648 C 92.00001525878906 41.49116516113281 90.82386016845703 35.66371917724609 88.50421142578125 30.17947387695312 C 86.2630615234375 24.88081359863281 83.05403900146484 20.12149047851562 78.96625518798828 16.03373718261719 C 74.87848663330078 11.94596862792969 70.11916351318359 8.7369384765625 64.82050323486328 6.495796203613281 C 59.33624267578125 4.1761474609375 53.50879669189453 3 47.5000114440918 3 M 47.5000114440918 0 C 73.73353576660156 0 95.00001525878906 21.26644134521484 95.00001525878906 47.49993515014648 C 95.00001525878906 73.73342895507812 73.73353576660156 94.99987030029297 47.5000114440918 94.99987030029297 C 21.26648712158203 94.99987030029297 7.62939453125e-06 73.73342895507812 7.62939453125e-06 47.49993515014648 C 7.62939453125e-06 21.26644134521484 21.26648712158203 0 47.5000114440918 0 Z" stroke="none" fill="#83793c"/>
                                        </g>
                                      </g>
                                    </g>
                                  </g>
                                </g>
                              </g>
                            </g>
                          </g>
                        </g>
                      </g>
                    </g>
                  </g>
                </g>
              </g>
            </g>
          </g>
        </g>
      </g>
    </g>
    <g id="profits_9108322" transform="translate(812.22 1756.008)">
      <g id="Grupo_1224560" data-name="Grupo 1224560" transform="translate(7.499 7.5)">
        <path id="Trazado_1056315" data-name="Trazado 1056315" d="M77.694,40.69V77.749h48.748V40.69Z" transform="translate(-69.284 -36.714)" fill="#dbedff"/>
        <path id="Trazado_1056316" data-name="Trazado 1056316" d="M27.4,40.69V77.749h6.419V40.69Z" transform="translate(-25.014 -36.714)" fill="#b5dcff"/>
        <path id="Trazado_1056317" data-name="Trazado 1056317" d="M237.923,230.412h5.091v8.5h-6.186v-7.406A1.1,1.1,0,0,1,237.923,230.412Z" transform="translate(-209.354 -203.706)" fill="#ff3581"/>
        <path id="Trazado_1056318" data-name="Trazado 1056318" d="M239.375,94.364l3.858-5.657a.492.492,0,0,1,.813,0l3.858,5.657a.492.492,0,0,1-.407.77h-7.717A.492.492,0,0,1,239.375,94.364Z" transform="translate(-211.519 -78.79)" fill="#60b9fe"/>
        <path id="Trazado_1056319" data-name="Trazado 1056319" d="M111.985,7.5H61.419l-.745.182-.479.749v2.686l.423.789.554.221.189.046h50.625a1.438,1.438,0,0,0,1.438-1.438v-1.8A1.438,1.438,0,0,0,111.985,7.5Z" transform="translate(-53.881 -7.501)" fill="#8479c2"/>
        <path id="Trazado_1056320" data-name="Trazado 1056320" d="M13.918,10.736v-1.8A1.438,1.438,0,0,1,15.356,7.5H8.937A1.438,1.438,0,0,0,7.5,8.939v1.8a1.438,1.438,0,0,0,1.438,1.438h6.419A1.438,1.438,0,0,1,13.918,10.736Z" transform="translate(-7.499 -7.501)" fill="#6e60b8"/>
        <path id="Trazado_1056321" data-name="Trazado 1056321" d="M111.618,343.364H60.976c-.419.105-.819.209-.819.209l-.379.639v2.961l.589.673.686.191h50.566a1.438,1.438,0,0,0,1.438-1.438v-1.8A1.438,1.438,0,0,0,111.618,343.364Z" transform="translate(-53.514 -303.126)" fill="#8479c2"/>
        <path id="Trazado_1056322" data-name="Trazado 1056322" d="M13.918,346.6v-1.8a1.438,1.438,0,0,1,1.438-1.438H8.937A1.438,1.438,0,0,0,7.5,344.8v1.8a1.438,1.438,0,0,0,1.438,1.438h6.419A1.438,1.438,0,0,1,13.918,346.6Z" transform="translate(-7.499 -303.126)" fill="#6e60b8"/>
        <path id="Trazado_1056323" data-name="Trazado 1056323" d="M286.423,194.932h5.24v12.752h-6.336V196.027A1.1,1.1,0,0,1,286.423,194.932Z" transform="translate(-252.043 -172.477)" fill="#ffd500"/>
        <path id="Trazado_1056324" data-name="Trazado 1056324" d="M334.924,159.452h5.216v17h-6.312V160.547A1.1,1.1,0,0,1,334.924,159.452Z" transform="translate(-294.734 -141.248)" fill="#a2e82d"/>
        <path id="Trazado_1056325" data-name="Trazado 1056325" d="M383.424,123.972h3.62a1.1,1.1,0,0,1,1.1,1.1v20.158h-5.81V125.067A1.1,1.1,0,0,1,383.424,123.972Z" transform="translate(-337.423 -110.018)" fill="#60b9fe"/>
      </g>
      <g id="Grupo_1224561" data-name="Grupo 1224561" transform="translate(7.499 7.5)">
        <path id="Trazado_1056326" data-name="Trazado 1056326" d="M65.6,343.364H8.938A1.438,1.438,0,0,0,7.5,344.8v1.8a1.438,1.438,0,0,0,1.438,1.438H65.6a1.438,1.438,0,0,0,1.438-1.438v-1.8A1.438,1.438,0,0,0,65.6,343.364Z" transform="translate(-7.5 -303.126)" fill="none" stroke="#000" stroke-linecap="round" stroke-linejoin="round" stroke-miterlimit="10" stroke-width="1.2"/>
        <circle id="Elipse_13550" data-name="Elipse 13550" cx="3.195" cy="3.195" r="3.195" transform="translate(26.576 53.152)" fill="none" stroke="#000" stroke-linecap="round" stroke-linejoin="round" stroke-miterlimit="10" stroke-width="1.2"/>
        <line id="Línea_1002" data-name="Línea 1002" y1="7.458" transform="translate(29.771 45.369)" fill="none" stroke="#000" stroke-linecap="round" stroke-linejoin="round" stroke-miterlimit="10" stroke-width="1.2"/>
        <path id="Trazado_1056327" data-name="Trazado 1056327" d="M27.4,46.5V82.065H82.173V46.5Z" transform="translate(-25.015 -41.828)" fill="none" stroke="#000" stroke-linecap="round" stroke-linejoin="round" stroke-miterlimit="10" stroke-width="1.2"/>
        <line id="Línea_1003" data-name="Línea 1003" x2="7.029" transform="translate(11.241 9.703)" fill="none" stroke="#000" stroke-linecap="round" stroke-linejoin="round" stroke-miterlimit="10" stroke-width="1.2"/>
        <line id="Línea_1004" data-name="Línea 1004" x2="14.057" transform="translate(7.727 13.954)" fill="none" stroke="#000" stroke-linecap="round" stroke-linejoin="round" stroke-miterlimit="10" stroke-width="1.2"/>
        <line id="Línea_1005" data-name="Línea 1005" x2="14.057" transform="translate(7.727 18.204)" fill="none" stroke="#000" stroke-linecap="round" stroke-linejoin="round" stroke-miterlimit="10" stroke-width="1.2"/>
        <line id="Línea_1006" data-name="Línea 1006" x2="14.057" transform="translate(7.727 22.455)" fill="none" stroke="#000" stroke-linecap="round" stroke-linejoin="round" stroke-miterlimit="10" stroke-width="1.2"/>
        <line id="Línea_1007" data-name="Línea 1007" x2="14.057" transform="translate(7.727 26.706)" fill="none" stroke="#000" stroke-linecap="round" stroke-linejoin="round" stroke-miterlimit="10" stroke-width="1.2"/>
        <line id="Línea_1008" data-name="Línea 1008" x2="14.057" transform="translate(7.727 30.956)" fill="none" stroke="#000" stroke-linecap="round" stroke-linejoin="round" stroke-miterlimit="10" stroke-width="1.2"/>
        <line id="Línea_1009" data-name="Línea 1009" x2="14.057" transform="translate(7.727 35.207)" fill="none" stroke="#000" stroke-linecap="round" stroke-linejoin="round" stroke-miterlimit="10" stroke-width="1.2"/>
        <path id="Trazado_1056328" data-name="Trazado 1056328" d="M334.924,159.452h4.715v17h-5.81V160.547A1.1,1.1,0,0,1,334.924,159.452Z" transform="translate(-294.734 -141.248)" fill="none" stroke="#000" stroke-linecap="round" stroke-linejoin="round" stroke-miterlimit="10" stroke-width="1.2"/>
        <path id="Trazado_1056329" data-name="Trazado 1056329" d="M286.424,194.932h4.715v12.752h-5.81V196.027A1.1,1.1,0,0,1,286.424,194.932Z" transform="translate(-252.044 -172.477)" fill="none" stroke="#000" stroke-linecap="round" stroke-linejoin="round" stroke-miterlimit="10" stroke-width="1.2"/>
        <path id="Trazado_1056330" data-name="Trazado 1056330" d="M237.924,230.412h4.715v8.5h-5.81v-7.406A1.1,1.1,0,0,1,237.924,230.412Z" transform="translate(-209.355 -203.706)" fill="none" stroke="#000" stroke-linecap="round" stroke-linejoin="round" stroke-miterlimit="10" stroke-width="1.2"/>
        <line id="Línea_1010" data-name="Línea 1010" x1="26.218" transform="translate(25.986 35.207)" fill="none" stroke="#000" stroke-linecap="round" stroke-linejoin="round" stroke-miterlimit="10" stroke-width="1.2"/>
        <path id="Trazado_1056331" data-name="Trazado 1056331" d="M239.376,94.364l3.858-5.657a.492.492,0,0,1,.813,0l3.858,5.657a.492.492,0,0,1-.407.77h-7.717A.492.492,0,0,1,239.376,94.364Z" transform="translate(-211.52 -78.79)" fill="none" stroke="#000" stroke-linecap="round" stroke-linejoin="round" stroke-miterlimit="10" stroke-width="1.2"/>
        <path id="Trazado_1056332" data-name="Trazado 1056332" d="M35.174,7.5H8.938A1.438,1.438,0,0,0,7.5,8.938v1.8a1.438,1.438,0,0,0,1.438,1.438H65.6a1.438,1.438,0,0,0,1.438-1.438v-1.8A1.438,1.438,0,0,0,65.6,7.5H39.367" transform="translate(-7.5 -7.5)" fill="none" stroke="#000" stroke-linecap="round" stroke-linejoin="round" stroke-miterlimit="10" stroke-width="1.2"/>
        <path id="Trazado_1056333" data-name="Trazado 1056333" d="M388.139,133.673v-8.606a1.1,1.1,0,0,0-1.1-1.1h-3.62a1.1,1.1,0,0,0-1.1,1.1v20.158h5.81v-7.359" transform="translate(-337.422 -110.018)" fill="none" stroke="#000" stroke-linecap="round" stroke-linejoin="round" stroke-miterlimit="10" stroke-width="1.2"/>
      </g>
    </g>
  </g>
</svg>
