<svg xmlns="http://www.w3.org/2000/svg" xmlns:xlink="http://www.w3.org/1999/xlink" width="113" height="113" viewBox="0 0 113 113">
  <defs>
    <filter id="Trazado_982547" x="0" y="0" width="113" height="113" filterUnits="userSpaceOnUse">
      <feOffset dy="3" input="SourceAlpha"/>
      <feGaussianBlur stdDeviation="3" result="blur"/>
      <feFlood flood-opacity="0.161"/>
      <feComposite operator="in" in2="blur"/>
      <feComposite in="SourceGraphic"/>
    </filter>
  </defs>
  <g id="Grupo_1224575" data-name="Grupo 1224575" transform="translate(-457 -2154.957)">
    <g id="Grupo_1209308" data-name="Grupo 1209308" transform="translate(-655 924.742)">
      <g id="Grupo_1209049" data-name="Grupo 1209049">
        <g id="Grupo_1208493" data-name="Grupo 1208493" transform="translate(0 -4397.209)">
          <g id="Grupo_1202104" data-name="Grupo 1202104" transform="translate(0 -1149.226)">
            <g id="Grupo_1201923" data-name="Grupo 1201923" transform="translate(-4174.49 4856.378)">
              <g id="Grupo_1176928" data-name="Grupo 1176928" transform="translate(5295.49 1926.273)">
                <g id="Grupo_1172322" data-name="Grupo 1172322" transform="translate(0 0)">
                  <g id="Grupo_1164700" data-name="Grupo 1164700">
                    <g id="Grupo_1160931" data-name="Grupo 1160931">
                      <g id="Grupo_1160749" data-name="Grupo 1160749">
                        <g id="Grupo_1158891" data-name="Grupo 1158891">
                          <g id="Grupo_1157406" data-name="Grupo 1157406">
                            <g id="Grupo_1155793" data-name="Grupo 1155793">
                              <g id="Grupo_1154704" data-name="Grupo 1154704">
                                <g id="Grupo_1150790" data-name="Grupo 1150790">
                                  <g id="Grupo_1154214" data-name="Grupo 1154214">
                                    <g id="Grupo_1152583" data-name="Grupo 1152583">
                                      <g id="Grupo_1146973" data-name="Grupo 1146973">
                                        <g id="Grupo_1146954" data-name="Grupo 1146954">
                                          <g transform="matrix(1, 0, 0, 1, -9, -6)" filter="url(#Trazado_982547)">
                                            <g id="Trazado_982547-2" data-name="Trazado 982547" transform="translate(9 6)" fill="#fcf8db">
                                              <path d="M 47.5000114440918 93.49987030029297 C 41.28938293457031 93.49987030029297 35.26534652709961 92.28384399414062 29.5951976776123 89.88558959960938 C 24.11773109436035 87.56881713867188 19.19814491271973 84.25183868408203 14.97310447692871 80.02680206298828 C 10.74805164337158 75.80176544189453 7.43107795715332 70.88218688964844 5.114304542541504 65.40472412109375 C 2.716038227081299 59.73458862304688 1.500011444091797 53.71054840087891 1.500011444091797 47.49993515014648 C 1.500011444091797 41.28932189941406 2.716038227081299 35.26528167724609 5.114304542541504 29.59514808654785 C 7.43107795715332 24.1176815032959 10.74805164337158 19.1981086730957 14.97310447692871 14.97306823730469 C 19.19814491271973 10.74802875518799 24.11773109436035 7.431055068969727 29.5951976776123 5.11428165435791 C 35.26534652709961 2.716028451919556 41.28938293457031 1.500001788139343 47.5000114440918 1.500001788139343 C 53.71063995361328 1.500001788139343 59.73467636108398 2.716028451919556 65.40482330322266 5.11428165435791 C 70.88229370117188 7.431055068969727 75.8018798828125 10.74802875518799 80.02691650390625 14.97306823730469 C 84.25196838378906 19.1981086730957 87.56894683837891 24.1176815032959 89.88571929931641 29.59514808654785 C 92.28398132324219 35.26528167724609 93.50001525878906 41.28932189941406 93.50001525878906 47.49993515014648 C 93.50001525878906 53.71054840087891 92.28398132324219 59.73458862304688 89.88571929931641 65.40472412109375 C 87.56894683837891 70.88218688964844 84.25196838378906 75.80176544189453 80.02691650390625 80.02680206298828 C 75.8018798828125 84.25183868408203 70.88229370117188 87.56881713867188 65.40482330322266 89.88558959960938 C 59.73467636108398 92.28384399414062 53.71063995361328 93.49987030029297 47.5000114440918 93.49987030029297 Z" stroke="none"/>
                                              <path d="M 47.5000114440918 3 C 41.49122619628906 3 35.66378021240234 4.1761474609375 30.17951965332031 6.495796203613281 C 24.880859375 8.7369384765625 20.12153625488281 11.94596862792969 16.03376770019531 16.03373718261719 C 11.94598388671875 20.12149047851562 8.736968994140625 24.88081359863281 6.495811462402344 30.17947387695312 C 4.176162719726562 35.66371917724609 3.000007629394531 41.49116516113281 3.000007629394531 47.49993515014648 C 3.000007629394531 53.50870513916016 4.176162719726562 59.33615112304688 6.495811462402344 64.82039642333984 C 8.736968994140625 70.11905670166016 11.94598388671875 74.87837982177734 16.03376770019531 78.96613311767578 C 20.12153625488281 83.05390167236328 24.880859375 86.26293182373047 30.17951965332031 88.50407409667969 C 35.66378021240234 90.82372283935547 41.49122619628906 91.99987030029297 47.5000114440918 91.99987030029297 C 53.50879669189453 91.99987030029297 59.33624267578125 90.82372283935547 64.82050323486328 88.50407409667969 C 70.11916351318359 86.26293182373047 74.87848663330078 83.05390167236328 78.96625518798828 78.96613311767578 C 83.05403900146484 74.87837982177734 86.2630615234375 70.11905670166016 88.50421142578125 64.82039642333984 C 90.82386016845703 59.33615112304688 92.00001525878906 53.50870513916016 92.00001525878906 47.49993515014648 C 92.00001525878906 41.49116516113281 90.82386016845703 35.66371917724609 88.50421142578125 30.17947387695312 C 86.2630615234375 24.88081359863281 83.05403900146484 20.12149047851562 78.96625518798828 16.03373718261719 C 74.87848663330078 11.94596862792969 70.11916351318359 8.7369384765625 64.82050323486328 6.495796203613281 C 59.33624267578125 4.1761474609375 53.50879669189453 3 47.5000114440918 3 M 47.5000114440918 0 C 73.73353576660156 0 95.00001525878906 21.26644134521484 95.00001525878906 47.49993515014648 C 95.00001525878906 73.73342895507812 73.73353576660156 94.99987030029297 47.5000114440918 94.99987030029297 C 21.26648712158203 94.99987030029297 7.62939453125e-06 73.73342895507812 7.62939453125e-06 47.49993515014648 C 7.62939453125e-06 21.26644134521484 21.26648712158203 0 47.5000114440918 0 Z" stroke="none" fill="#83793c"/>
                                            </g>
                                          </g>
                                        </g>
                                      </g>
                                    </g>
                                  </g>
                                </g>
                              </g>
                            </g>
                          </g>
                        </g>
                      </g>
                    </g>
                  </g>
                </g>
              </g>
            </g>
          </g>
        </g>
      </g>
    </g>
    <g id="raise-hand_925356" transform="translate(482.665 2158.13)">
      <path id="Trazado_1056389" data-name="Trazado 1056389" d="M144.6,78.786v3.939a.969.969,0,0,1-.968.968H102.3V77.819h41.335A.968.968,0,0,1,144.6,78.786Z" transform="translate(-89.778 -49.301)" fill="#456b93"/>
      <path id="Trazado_1056390" data-name="Trazado 1056390" d="M209.889,77.819H190.75v5.874h19.157V78.168A3.3,3.3,0,0,0,209.889,77.819Z" transform="translate(-167.402 -49.301)" fill="#3b4f66"/>
      <path id="Trazado_1056391" data-name="Trazado 1056391" d="M191.9,35.446V45.531a4.294,4.294,0,0,1-.831,2.537l-1.617,2.2V83.681a.993.993,0,0,1-.993.993H176.292a.992.992,0,0,1-.991-.993V50.8l-2.031-2.064a4.288,4.288,0,0,1-1.23-3.007V40.971H175.9v-10.6a1.234,1.234,0,0,1,1.234-1.235h1.629a1.234,1.234,0,0,1,1.233,1.235h2.968a1.233,1.233,0,0,1,1.233,1.233v.54h2.673a1.233,1.233,0,0,1,1.233,1.233v.377h2.105A1.691,1.691,0,0,1,191.9,35.446Z" transform="translate(-150.982 -6.579)" fill="#ffe6ca"/>
      <g id="Grupo_1224573" data-name="Grupo 1224573" transform="translate(21.058 34.392)">
        <rect id="Rectángulo_421948" data-name="Rectángulo 421948" width="3.685" height="1.655" fill="#ffce94"/>
        <path id="Trazado_1056392" data-name="Trazado 1056392" d="M212.827,236.419V265.59a.993.993,0,0,1-.993.993H199.671a.992.992,0,0,1-.991-.993V236.419Z" transform="translate(-195.419 -222.88)" fill="#ffce94"/>
      </g>
      <path id="Trazado_1056393" data-name="Trazado 1056393" d="M212.827,249.419V277a.993.993,0,0,1-.993.993H199.671a.992.992,0,0,1-.991-.993V249.419Z" transform="translate(-174.361 -199.897)" fill="#04a1ee"/>
      <g id="Grupo_1224574" data-name="Grupo 1224574" transform="translate(24.317 55.388)">
        <rect id="Rectángulo_421949" data-name="Rectángulo 421949" width="14.147" height="4.171" fill="#def2fc"/>
        <rect id="Rectángulo_421950" data-name="Rectángulo 421950" width="14.147" height="4.171" transform="translate(0 9.491)" fill="#def2fc"/>
        <path id="Trazado_1056394" data-name="Trazado 1056394" d="M212.827,452.419v2.732a.993.993,0,0,1-.993.993H199.671a.992.992,0,0,1-.991-.993v-2.732Z" transform="translate(-198.679 -433.437)" fill="#def2fc"/>
      </g>
      <path id="Trazado_1056395" data-name="Trazado 1056395" d="M67.636,83.69V77.816l-4.485,2.358a.654.654,0,0,0,0,1.157Z" transform="translate(-55.115 -49.298)" fill="#3b4f66"/>
      <path id="Trazado_1056396" data-name="Trazado 1056396" d="M362.136,170.316V180.4a4.294,4.294,0,0,1-.831,2.537l-1.617,2.2v16.9a.992.992,0,0,1-.993.993H346.533a.993.993,0,0,1-.993-.993V185.664L343.51,183.6a4.288,4.288,0,0,1-1.23-3.006v-7.321a2.372,2.372,0,0,1,2.372-2.372h1.486v-5.659a1.233,1.233,0,0,1,1.234-1.234H349a1.233,1.233,0,0,1,1.233,1.234H353.2a1.233,1.233,0,0,1,1.233,1.233v.54h2.672a1.234,1.234,0,0,1,1.234,1.235v.376h2.105A1.69,1.69,0,0,1,362.136,170.316Z" transform="translate(-300.385 -124.941)" fill="#ffe6ca"/>
      <path id="Trazado_1056397" data-name="Trazado 1056397" d="M383.067,366.639v13.232a.993.993,0,0,1-.993.993H369.913a.993.993,0,0,1-.993-.993V366.639Z" transform="translate(-323.764 -302.769)" fill="#ffce94"/>
      <path id="Trazado_1056398" data-name="Trazado 1056398" d="M383.064,379.639V391.28a.993.993,0,0,1-.993.993H369.91a.993.993,0,0,1-.993-.993V379.639Z" transform="translate(-323.761 -314.178)" fill="#e94141"/>
      <path id="Trazado_1056399" data-name="Trazado 1056399" d="M27.356,170.316V180.4a4.294,4.294,0,0,1-.831,2.537l-1.618,2.2v16.9a.992.992,0,0,1-.991.993H11.752a.992.992,0,0,1-.991-.993V185.664L8.73,183.6a4.288,4.288,0,0,1-1.23-3.006v-7.321A2.372,2.372,0,0,1,9.872,170.9h1.486v-5.659a1.233,1.233,0,0,1,1.234-1.234h1.629a1.233,1.233,0,0,1,1.233,1.234h2.968a1.233,1.233,0,0,1,1.233,1.233v.54h2.672a1.234,1.234,0,0,1,1.234,1.235v.376h2.105A1.691,1.691,0,0,1,27.356,170.316Z" transform="translate(-6.582 -124.941)" fill="#ffe6ca"/>
      <path id="Trazado_1056400" data-name="Trazado 1056400" d="M48.286,366.639v13.232a.992.992,0,0,1-.991.993H35.131a.992.992,0,0,1-.991-.993V366.639Z" transform="translate(-29.961 -302.769)" fill="#ffce94"/>
      <path id="Trazado_1056401" data-name="Trazado 1056401" d="M48.282,379.639V391.28a.993.993,0,0,1-.993.993H35.128a.993.993,0,0,1-.993-.993V379.639Z" transform="translate(-29.957 -314.178)" fill="#fcb043"/>
      <path id="Trazado_1056402" data-name="Trazado 1056402" d="M89.355,42.031a5.174,5.174,0,0,0,1.008-3.08V35.31h12.025a1.888,1.888,0,0,0,1.886-1.886V29.486a1.888,1.888,0,0,0-1.886-1.886H96.167a.918.918,0,1,0,0,1.836h3.072v4.038H90.364V29.436h1.681a.918.918,0,0,0,0-1.836H90.033a2.609,2.609,0,0,0-2.278-1.341H86.5a2.156,2.156,0,0,0-2.083-1.61H82.63a2.155,2.155,0,0,0-2.119-1.773H78.256a2.155,2.155,0,0,0-1.946-1.234H74.682a2.154,2.154,0,0,0-2.152,2.152V27.6H61.053c-.026,0-.052,0-.077,0h-.014a.9.9,0,0,0-.107.017l-.023.006q-.042.01-.083.025l-.026.01a.922.922,0,0,0-.088.039l-.01,0-.008,0,0,0-4.473,2.352a1.572,1.572,0,0,0,0,2.782L60.615,35.2h0l.009,0,.013.006c.026.013.052.025.079.035l.028.01q.035.012.071.022l.031.008c.024.006.049.01.073.013l.029,0a.923.923,0,0,0,.1.006h7.625v3.835A5.178,5.178,0,0,0,70.166,42.8l1.766,1.8V77.1a1.913,1.913,0,0,0,1.911,1.911H86A1.913,1.913,0,0,0,87.915,77.1V43.994Zm11.719-12.6h1.314a.05.05,0,0,1,.05.05v3.938a.05.05,0,0,1-.05.05h-1.314Zm-40.939.6v2.834l-2.695-1.417Zm1.836-.6H72.53V30.3H66.9a.918.918,0,0,0,0,1.836H72.53v1.334H61.972V29.436Zm9.5,12.073a3.353,3.353,0,0,1-.967-2.364V35.31H72.53v1.91a.918.918,0,0,0,1.836,0V23.794a.316.316,0,0,1,.316-.316H76.31a.316.316,0,0,1,.316.316V27.4a.918.918,0,1,0,1.836,0V24.712h2.049a.316.316,0,0,1,.316.316v4.361a.918.918,0,1,0,1.836,0v-2.9h1.754a.316.316,0,0,1,.316.316v.376c0,.03,0,.06,0,.089s0,.059,0,.089v3.611a.918.918,0,0,0,1.836,0V28.095h1.186a.774.774,0,0,1,.773.773V38.951a3.35,3.35,0,0,1-.653,1.994l-1.618,2.206a.919.919,0,0,0-.178.543V48.6H73.768V44.217a.919.919,0,0,0-.263-.644Zm14.6,12.961H73.768V50.441H86.079V54.47ZM73.768,65.8H86.079v2.335H73.768Zm0-1.836V60.477H86.079v3.484Zm0-5.32V56.306H86.079v2.335Zm0,11.327H86.079v3.483H73.768ZM86,77.177H73.842a.075.075,0,0,1-.075-.075V75.288H86.079V77.1A.075.075,0,0,1,86,77.177Z" transform="translate(-48.532)"/>
      <path id="Trazado_1056403" data-name="Trazado 1056403" d="M353.863,161.122h-1.255a2.156,2.156,0,0,0-2.083-1.61h-1.787a2.155,2.155,0,0,0-2.118-1.773h-2.255a2.154,2.154,0,0,0-1.946-1.234H340.79a2.154,2.154,0,0,0-2.152,2.152V163.4h-.568a3.294,3.294,0,0,0-3.29,3.29v7.32a5.178,5.178,0,0,0,1.494,3.651l1.766,1.8v16a1.913,1.913,0,0,0,1.911,1.911h12.162a1.913,1.913,0,0,0,1.911-1.911v-4.191a.918.918,0,0,0-1.836,0v4.191a.075.075,0,0,1-.075.075H339.95a.075.075,0,0,1-.075-.075V184.735h12.312v2.41a.918.918,0,1,0,1.836,0v-8.287l1.44-1.963a5.174,5.174,0,0,0,1.008-3.08V163.731A2.611,2.611,0,0,0,353.863,161.122Zm.773,12.692a3.35,3.35,0,0,1-.653,1.994l-1.618,2.206a.919.919,0,0,0-.178.543V182.9H339.876v-3.819a.918.918,0,0,0-.263-.644l-2.029-2.064a3.352,3.352,0,0,1-.967-2.364v-7.32a1.456,1.456,0,0,1,1.454-1.454h.568v6.849a.918.918,0,0,0,1.836,0V158.657a.316.316,0,0,1,.316-.316h1.629a.316.316,0,0,1,.316.316v3.611a.918.918,0,1,0,1.836,0v-2.693h2.049a.316.316,0,0,1,.316.316v4.361a.918.918,0,0,0,1.836,0v-2.9h1.754a.316.316,0,0,1,.316.316v.376c0,.03,0,.06,0,.089s0,.059,0,.089v3.611a.918.918,0,1,0,1.836,0v-2.871h1.186a.774.774,0,0,1,.773.773v10.083Z" transform="translate(-293.803 -118.356)"/>
      <path id="Trazado_1056404" data-name="Trazado 1056404" d="M19.083,161.122H17.828a2.155,2.155,0,0,0-2.083-1.61H13.958a2.155,2.155,0,0,0-2.118-1.773H9.584a2.154,2.154,0,0,0-1.946-1.234H6.01a2.154,2.154,0,0,0-2.152,2.152V163.4H3.29A3.294,3.294,0,0,0,0,166.688v7.32a5.178,5.178,0,0,0,1.494,3.651l1.766,1.8v7.934a.918.918,0,1,0,1.836,0v-2.655H17.407v10.723a.075.075,0,0,1-.075.075H5.17a.075.075,0,0,1-.075-.075v-3.946a.918.918,0,0,0-1.836,0v3.946a1.913,1.913,0,0,0,1.911,1.911H17.333a1.913,1.913,0,0,0,1.911-1.911v-16.6l1.44-1.963a5.174,5.174,0,0,0,1.008-3.08V163.73A2.612,2.612,0,0,0,19.083,161.122Zm.773,12.692a3.351,3.351,0,0,1-.653,1.994l-1.618,2.206a.919.919,0,0,0-.178.543V182.9H5.1v-3.819a.918.918,0,0,0-.263-.644L2.8,176.372a3.353,3.353,0,0,1-.967-2.364v-7.32a1.456,1.456,0,0,1,1.454-1.454h.568v6.849a.918.918,0,0,0,1.836,0V158.657a.316.316,0,0,1,.316-.316H7.638a.316.316,0,0,1,.316.316v3.611a.918.918,0,1,0,1.836,0v-2.693H11.84a.316.316,0,0,1,.316.316v4.361a.918.918,0,0,0,1.836,0v-2.9h1.754a.316.316,0,0,1,.316.316v.376c0,.03,0,.06,0,.09s0,.059,0,.089v3.611a.918.918,0,1,0,1.836,0v-2.871h1.186a.774.774,0,0,1,.773.773v10.083Z" transform="translate(0 -118.356)"/>
    </g>
  </g>
</svg>
