<svg xmlns="http://www.w3.org/2000/svg" xmlns:xlink="http://www.w3.org/1999/xlink" width="113" height="113" viewBox="0 0 113 113">
  <defs>
    <filter id="Trazado_982547" x="0" y="0" width="113" height="113" filterUnits="userSpaceOnUse">
      <feOffset dy="3" input="SourceAlpha"/>
      <feGaussianBlur stdDeviation="3" result="blur"/>
      <feFlood flood-opacity="0.161"/>
      <feComposite operator="in" in2="blur"/>
      <feComposite in="SourceGraphic"/>
    </filter>
  </defs>
  <g id="Grupo_1224596" data-name="Grupo 1224596" transform="translate(-802 -2154.957)">
    <g id="Grupo_1209309" data-name="Grupo 1209309" transform="translate(-310 924.742)">
      <g id="Grupo_1209049" data-name="Grupo 1209049">
        <g id="Grupo_1208493" data-name="Grupo 1208493" transform="translate(0 -4397.209)">
          <g id="Grupo_1202104" data-name="Grupo 1202104" transform="translate(0 -1149.226)">
            <g id="Grupo_1201923" data-name="Grupo 1201923" transform="translate(-4174.49 4856.378)">
              <g id="Grupo_1176928" data-name="Grupo 1176928" transform="translate(5295.49 1926.273)">
                <g id="Grupo_1172322" data-name="Grupo 1172322" transform="translate(0 0)">
                  <g id="Grupo_1164700" data-name="Grupo 1164700">
                    <g id="Grupo_1160931" data-name="Grupo 1160931">
                      <g id="Grupo_1160749" data-name="Grupo 1160749">
                        <g id="Grupo_1158891" data-name="Grupo 1158891">
                          <g id="Grupo_1157406" data-name="Grupo 1157406">
                            <g id="Grupo_1155793" data-name="Grupo 1155793">
                              <g id="Grupo_1154704" data-name="Grupo 1154704">
                                <g id="Grupo_1150790" data-name="Grupo 1150790">
                                  <g id="Grupo_1154214" data-name="Grupo 1154214">
                                    <g id="Grupo_1152583" data-name="Grupo 1152583">
                                      <g id="Grupo_1146973" data-name="Grupo 1146973">
                                        <g id="Grupo_1146954" data-name="Grupo 1146954">
                                          <g transform="matrix(1, 0, 0, 1, -9, -6)" filter="url(#Trazado_982547)">
                                            <g id="Trazado_982547-2" data-name="Trazado 982547" transform="translate(9 6)" fill="#fcf8db">
                                              <path d="M 47.5000114440918 93.49987030029297 C 41.28938293457031 93.49987030029297 35.26534652709961 92.28384399414062 29.5951976776123 89.88558959960938 C 24.11773109436035 87.56881713867188 19.19814491271973 84.25183868408203 14.97310447692871 80.02680206298828 C 10.74805164337158 75.80176544189453 7.43107795715332 70.88218688964844 5.114304542541504 65.40472412109375 C 2.716038227081299 59.73458862304688 1.500011444091797 53.71054840087891 1.500011444091797 47.49993515014648 C 1.500011444091797 41.28932189941406 2.716038227081299 35.26528167724609 5.114304542541504 29.59514808654785 C 7.43107795715332 24.1176815032959 10.74805164337158 19.1981086730957 14.97310447692871 14.97306823730469 C 19.19814491271973 10.74802875518799 24.11773109436035 7.431055068969727 29.5951976776123 5.11428165435791 C 35.26534652709961 2.716028451919556 41.28938293457031 1.500001788139343 47.5000114440918 1.500001788139343 C 53.71063995361328 1.500001788139343 59.73467636108398 2.716028451919556 65.40482330322266 5.11428165435791 C 70.88229370117188 7.431055068969727 75.8018798828125 10.74802875518799 80.02691650390625 14.97306823730469 C 84.25196838378906 19.1981086730957 87.56894683837891 24.1176815032959 89.88571929931641 29.59514808654785 C 92.28398132324219 35.26528167724609 93.50001525878906 41.28932189941406 93.50001525878906 47.49993515014648 C 93.50001525878906 53.71054840087891 92.28398132324219 59.73458862304688 89.88571929931641 65.40472412109375 C 87.56894683837891 70.88218688964844 84.25196838378906 75.80176544189453 80.02691650390625 80.02680206298828 C 75.8018798828125 84.25183868408203 70.88229370117188 87.56881713867188 65.40482330322266 89.88558959960938 C 59.73467636108398 92.28384399414062 53.71063995361328 93.49987030029297 47.5000114440918 93.49987030029297 Z" stroke="none"/>
                                              <path d="M 47.5000114440918 3 C 41.49122619628906 3 35.66378021240234 4.1761474609375 30.17951965332031 6.495796203613281 C 24.880859375 8.7369384765625 20.12153625488281 11.94596862792969 16.03376770019531 16.03373718261719 C 11.94598388671875 20.12149047851562 8.736968994140625 24.88081359863281 6.495811462402344 30.17947387695312 C 4.176162719726562 35.66371917724609 3.000007629394531 41.49116516113281 3.000007629394531 47.49993515014648 C 3.000007629394531 53.50870513916016 4.176162719726562 59.33615112304688 6.495811462402344 64.82039642333984 C 8.736968994140625 70.11905670166016 11.94598388671875 74.87837982177734 16.03376770019531 78.96613311767578 C 20.12153625488281 83.05390167236328 24.880859375 86.26293182373047 30.17951965332031 88.50407409667969 C 35.66378021240234 90.82372283935547 41.49122619628906 91.99987030029297 47.5000114440918 91.99987030029297 C 53.50879669189453 91.99987030029297 59.33624267578125 90.82372283935547 64.82050323486328 88.50407409667969 C 70.11916351318359 86.26293182373047 74.87848663330078 83.05390167236328 78.96625518798828 78.96613311767578 C 83.05403900146484 74.87837982177734 86.2630615234375 70.11905670166016 88.50421142578125 64.82039642333984 C 90.82386016845703 59.33615112304688 92.00001525878906 53.50870513916016 92.00001525878906 47.49993515014648 C 92.00001525878906 41.49116516113281 90.82386016845703 35.66371917724609 88.50421142578125 30.17947387695312 C 86.2630615234375 24.88081359863281 83.05403900146484 20.12149047851562 78.96625518798828 16.03373718261719 C 74.87848663330078 11.94596862792969 70.11916351318359 8.7369384765625 64.82050323486328 6.495796203613281 C 59.33624267578125 4.1761474609375 53.50879669189453 3 47.5000114440918 3 M 47.5000114440918 0 C 73.73353576660156 0 95.00001525878906 21.26644134521484 95.00001525878906 47.49993515014648 C 95.00001525878906 73.73342895507812 73.73353576660156 94.99987030029297 47.5000114440918 94.99987030029297 C 21.26648712158203 94.99987030029297 7.62939453125e-06 73.73342895507812 7.62939453125e-06 47.49993515014648 C 7.62939453125e-06 21.26644134521484 21.26648712158203 0 47.5000114440918 0 Z" stroke="none" fill="#83793c"/>
                                            </g>
                                          </g>
                                        </g>
                                      </g>
                                    </g>
                                  </g>
                                </g>
                              </g>
                            </g>
                          </g>
                        </g>
                      </g>
                    </g>
                  </g>
                </g>
              </g>
            </g>
          </g>
        </g>
      </g>
    </g>
    <g id="education_5823708" transform="translate(828 2177)">
      <g id="Grupo_1224594" data-name="Grupo 1224594">
        <g id="Grupo_1224576" data-name="Grupo 1224576">
          <path id="Trazado_1056405" data-name="Trazado 1056405" d="M51,33l-2,4-4-4-4,4-2-4a9.991,9.991,0,0,0-4,8v4H45V41H55A9.991,9.991,0,0,0,51,33Z" fill="#e6e9ed"/>
        </g>
        <g id="Grupo_1224577" data-name="Grupo 1224577">
          <path id="Trazado_1056406" data-name="Trazado 1056406" d="M51,33l-2,4-4-4h2a6.034,6.034,0,0,0,2.88-.73A9.36,9.36,0,0,1,51,33Z" fill="#ccd1d9"/>
        </g>
        <g id="Grupo_1224578" data-name="Grupo 1224578">
          <path id="Trazado_1056407" data-name="Trazado 1056407" d="M45,33l-4,4-2-4a9.36,9.36,0,0,1,1.12-.73A6.034,6.034,0,0,0,43,33Z" fill="#ccd1d9"/>
        </g>
        <g id="Grupo_1224579" data-name="Grupo 1224579">
          <path id="Trazado_1056408" data-name="Trazado 1056408" d="M45,41H55V61H45Z" fill="#ff826e"/>
        </g>
        <g id="Grupo_1224580" data-name="Grupo 1224580">
          <path id="Trazado_1056409" data-name="Trazado 1056409" d="M41,45V61H31V45H41Z" fill="#ff826e"/>
        </g>
        <g id="Grupo_1224581" data-name="Grupo 1224581">
          <path id="Trazado_1056410" data-name="Trazado 1056410" d="M27,49V61H17V51a5.944,5.944,0,0,0,4.24-1.76c.08-.08.15-.16.23-.24Z" fill="#ff826e"/>
        </g>
        <g id="Grupo_1224582" data-name="Grupo 1224582">
          <path id="Trazado_1056411" data-name="Trazado 1056411" d="M47,3V5H43V3a2.006,2.006,0,0,1,2-2,1.955,1.955,0,0,1,1.41.59A1.955,1.955,0,0,1,47,3Z" fill="#fcd770"/>
        </g>
        <g id="Grupo_1224583" data-name="Grupo 1224583">
          <path id="Trazado_1056412" data-name="Trazado 1056412" d="M61,6V9H30a1,1,0,0,1-1-1V6a1,1,0,0,1,1-1H60A1,1,0,0,1,61,6Z" fill="#aab2bd"/>
        </g>
        <g id="Grupo_1224584" data-name="Grupo 1224584">
          <path id="Trazado_1056413" data-name="Trazado 1056413" d="M57,15v9a3,3,0,0,0-3-3H53a2.006,2.006,0,0,0-2-2H45a4,4,0,0,1-4-4Z" fill="#b27946"/>
        </g>
        <g id="Grupo_1224585" data-name="Grupo 1224585">
          <path id="Trazado_1056414" data-name="Trazado 1056414" d="M57,9v6H33V9Z" fill="#ccd1d9"/>
        </g>
        <g id="Grupo_1224586" data-name="Grupo 1224586">
          <path id="Trazado_1056415" data-name="Trazado 1056415" d="M54,21a3,3,0,0,1,0,6H53V21Z" fill="#f0d0b4"/>
        </g>
        <g id="Grupo_1224587" data-name="Grupo 1224587">
          <path id="Trazado_1056416" data-name="Trazado 1056416" d="M53,21v6a5.984,5.984,0,0,1-6,6H43a5.984,5.984,0,0,1-6-6V19a4,4,0,0,1,4-4,4,4,0,0,0,4,4h6A2.006,2.006,0,0,1,53,21Z" fill="#f0d0b4"/>
        </g>
        <g id="Grupo_1224588" data-name="Grupo 1224588">
          <path id="Trazado_1056417" data-name="Trazado 1056417" d="M33,15h8a4,4,0,0,0-4,4v2H36a3,3,0,0,0-3,3V15Z" fill="#b27946"/>
        </g>
        <g id="Grupo_1224589" data-name="Grupo 1224589">
          <path id="Trazado_1056418" data-name="Trazado 1056418" d="M37,21v6H36a3,3,0,0,1,0-6Z" fill="#f0d0b4"/>
        </g>
        <g id="Grupo_1224590" data-name="Grupo 1224590">
          <path id="Trazado_1056419" data-name="Trazado 1056419" d="M21,37H9V30.84A15.992,15.992,0,1,1,29,6.42V8a1,1,0,0,0,1,1h3v8a15.974,15.974,0,0,1-8,13.84V37Z" fill="#ffeaa7"/>
        </g>
        <g id="Grupo_1224591" data-name="Grupo 1224591">
          <path id="Trazado_1056420" data-name="Trazado 1056420" d="M25,37v7a1,1,0,0,1-1,1H10a1,1,0,0,1-1-1V37H25Z" fill="#ccd1d9"/>
        </g>
        <g id="Grupo_1224592" data-name="Grupo 1224592">
          <path id="Trazado_1056421" data-name="Trazado 1056421" d="M25,15v4H22.65c-.12.28-.12.3-.24.58l1.66,1.66-2.83,2.83-1.66-1.66c-.28.12-.3.12-.58.24V25H15V22.65c-.28-.12-.3-.13-.58-.24l-1.66,1.66L9.93,21.24l1.66-1.66c-.11-.28-.12-.3-.24-.58H9V15h2.35c.12-.28.12-.3.24-.58L9.93,12.76l2.83-2.83,1.66,1.66c.28-.12.3-.12.58-.24V9h4v2.35c.28.12.3.12.58.24l1.66-1.66,2.83,2.83-1.66,1.66c.12.28.12.3.24.58Zm-6,2a2,2,0,1,0-2,2A2.006,2.006,0,0,0,19,17Z" fill="#fcd770"/>
        </g>
        <g id="Grupo_1224593" data-name="Grupo 1224593">
          <path id="Trazado_1056422" data-name="Trazado 1056422" d="M11,45H23a5.971,5.971,0,0,1-1.53,4c-.08.08-.15.16-.23.24A5.944,5.944,0,0,1,17,51,6,6,0,0,1,11,45Z" fill="#aab2bd"/>
        </g>
      </g>
      <g id="Grupo_1224595" data-name="Grupo 1224595">
        <path id="Trazado_1056423" data-name="Trazado 1056423" d="M46,28H42v2h4a4,4,0,0,0,4-4H48A2,2,0,0,1,46,28Z"/>
        <path id="Trazado_1056424" data-name="Trazado 1056424" d="M60,4H48V3a3,3,0,0,0-6,0V4H30a1.994,1.994,0,0,0-1.408.582A16.922,16.922,0,0,0,16.187.019,17.133,17.133,0,0,0,.024,16.075,16.947,16.947,0,0,0,8,31.407V44a2,2,0,0,0,2,2h.08A7,7,0,0,0,16,51.92V62H56V41a11.014,11.014,0,0,0-4.364-8.77A6.983,6.983,0,0,0,53.92,28H54a4,4,0,0,0,4-4V10h2v4h2V6a2,2,0,0,0-2-2ZM44,3a1,1,0,0,1,2,0V4H44ZM2.022,16.181A15.114,15.114,0,0,1,16.28,2.017,14.914,14.914,0,0,1,28,6.825V8a2,2,0,0,0,2,2h2v7a15.053,15.053,0,0,1-7.5,12.977l-.5.289V36H22V29.414l1.707-1.707-1.414-1.414L20,28.586V36H18V28H16v8H14V28.586l-2.293-2.293-1.414,1.414L12,29.414V36H10V30.266l-.5-.289a14.964,14.964,0,0,1-7.479-13.8ZM53.816,20A3,3,0,0,0,51,18H45a3,3,0,0,1-2.816-2H56v4.556A3.959,3.959,0,0,0,54,20ZM36,26a2,2,0,0,1,0-4Zm0-7v1a3.959,3.959,0,0,0-2,.556V16h3.026A4.948,4.948,0,0,0,36,19ZM10,44V42H24v2Zm14-4H10V38H24ZM12.1,46h9.8a5,5,0,0,1-9.8,0ZM18,51.92A6.977,6.977,0,0,0,21.889,50H26V60H18ZM40,60H32V46h8Zm6,0V42h8V60Zm7.932-20H44V60H42V44H30V60H28V48H23.315a6.937,6.937,0,0,0,.6-2H24a2,2,0,0,0,2-2V31.407a17.079,17.079,0,0,0,6.081-6.61A4,4,0,0,0,36,28h.08a6.978,6.978,0,0,0,2.284,4.23A11.011,11.011,0,0,0,34,41v1h2V41a9.01,9.01,0,0,1,2.68-6.4l2.046,4.094L45,34.414l4.274,4.274L51.32,34.6A9.011,9.011,0,0,1,53.932,40Zm-4.289-6.522-.917,1.833L47.395,33.98A6.941,6.941,0,0,0,49.643,33.478Zm-7.037.5-1.331,1.331-.916-1.833A6.917,6.917,0,0,0,42.606,33.98ZM52,27a5.006,5.006,0,0,1-5,5H43a5.006,5.006,0,0,1-5-5V19a3.005,3.005,0,0,1,2.129-2.871A5.008,5.008,0,0,0,45,20h6a1,1,0,0,1,1,1Zm2-1V22a2,2,0,0,1,0,4Zm2-12H34V10H56Zm4-6H30V6H60Z"/>
        <path id="Trazado_1056425" data-name="Trazado 1056425" d="M17,20a3,3,0,1,0-3-3A3,3,0,0,0,17,20Zm0-4a1,1,0,1,1-1,1A1,1,0,0,1,17,16Z"/>
        <path id="Trazado_1056426" data-name="Trazado 1056426" d="M12.758,25.485,14,24.243V26h6V24.243l1.242,1.242,4.243-4.243L24.242,20H26V14H24.242l1.243-1.243L21.242,8.514,20,9.757V8H14V9.757L12.758,8.515,8.515,12.758,9.758,14H8v6H9.757L8.515,21.243ZM10,16h2.018l.753-1.815-1.428-1.427,1.415-1.415,1.427,1.427L16,12.018V10h2v2.018l1.815.752,1.427-1.427,1.415,1.415-1.428,1.427L21.982,16H24v2H21.982l-.753,1.815,1.428,1.427-1.415,1.415L19.815,21.23,18,21.982V24H16V21.98l-1.814-.751-1.428,1.428-1.415-1.415,1.427-1.426L12.018,18H10Z"/>
        <path id="Trazado_1056427" data-name="Trazado 1056427" d="M12,58h2v2H12Z"/>
        <path id="Trazado_1056428" data-name="Trazado 1056428" d="M8,58h2v2H8Z"/>
        <path id="Trazado_1056429" data-name="Trazado 1056429" d="M4,58H6v2H4Z"/>
      </g>
    </g>
  </g>
</svg>
