<svg xmlns="http://www.w3.org/2000/svg" xmlns:xlink="http://www.w3.org/1999/xlink" width="113" height="113" viewBox="0 0 113 113">
  <defs>
    <filter id="Trazado_982547" x="0" y="0" width="113" height="113" filterUnits="userSpaceOnUse">
      <feOffset dy="3" input="SourceAlpha"/>
      <feGaussianBlur stdDeviation="3" result="blur"/>
      <feFlood flood-opacity="0.161"/>
      <feComposite operator="in" in2="blur"/>
      <feComposite in="SourceGraphic"/>
    </filter>
  </defs>
  <g id="Grupo_1225416" data-name="Grupo 1225416" transform="translate(-3702.742 -5261.957)">
    <g id="Grupo_1225184" data-name="Grupo 1225184" transform="translate(2909.252 3528)">
      <g id="Grupo_1209304" data-name="Grupo 1209304" transform="translate(0 503.742)">
        <g id="Grupo_1208492" data-name="Grupo 1208492" transform="translate(0 -4397.209)">
          <g id="Grupo_1177675" data-name="Grupo 1177675" transform="translate(-4493 3707.152)">
            <g id="Grupo_1176928" data-name="Grupo 1176928" transform="translate(5295.49 1926.273)">
              <g id="Grupo_1172322" data-name="Grupo 1172322" transform="translate(0 0)">
                <g id="Grupo_1164700" data-name="Grupo 1164700">
                  <g id="Grupo_1160931" data-name="Grupo 1160931">
                    <g id="Grupo_1160749" data-name="Grupo 1160749">
                      <g id="Grupo_1158891" data-name="Grupo 1158891">
                        <g id="Grupo_1157406" data-name="Grupo 1157406">
                          <g id="Grupo_1155793" data-name="Grupo 1155793">
                            <g id="Grupo_1154704" data-name="Grupo 1154704">
                              <g id="Grupo_1150790" data-name="Grupo 1150790">
                                <g id="Grupo_1154214" data-name="Grupo 1154214">
                                  <g id="Grupo_1152583" data-name="Grupo 1152583">
                                    <g id="Grupo_1146973" data-name="Grupo 1146973">
                                      <g id="Grupo_1146954" data-name="Grupo 1146954">
                                        <g transform="matrix(1, 0, 0, 1, -9, -6)" filter="url(#Trazado_982547)">
                                          <g id="Trazado_982547-2" data-name="Trazado 982547" transform="translate(9 6)" fill="#fcf8db">
                                            <path d="M 47.5000114440918 93.49987030029297 C 41.28938293457031 93.49987030029297 35.26534652709961 92.28384399414062 29.5951976776123 89.88558959960938 C 24.11773109436035 87.56881713867188 19.19814491271973 84.25183868408203 14.97310447692871 80.02680206298828 C 10.74805164337158 75.80176544189453 7.43107795715332 70.88218688964844 5.114304542541504 65.40472412109375 C 2.716038227081299 59.73458862304688 1.500011444091797 53.71054840087891 1.500011444091797 47.49993515014648 C 1.500011444091797 41.28932189941406 2.716038227081299 35.26528167724609 5.114304542541504 29.59514808654785 C 7.43107795715332 24.1176815032959 10.74805164337158 19.1981086730957 14.97310447692871 14.97306823730469 C 19.19814491271973 10.74802875518799 24.11773109436035 7.431055068969727 29.5951976776123 5.11428165435791 C 35.26534652709961 2.716028451919556 41.28938293457031 1.500001788139343 47.5000114440918 1.500001788139343 C 53.71063995361328 1.500001788139343 59.73467636108398 2.716028451919556 65.40482330322266 5.11428165435791 C 70.88229370117188 7.431055068969727 75.8018798828125 10.74802875518799 80.02691650390625 14.97306823730469 C 84.25196838378906 19.1981086730957 87.56894683837891 24.1176815032959 89.88571929931641 29.59514808654785 C 92.28398132324219 35.26528167724609 93.50001525878906 41.28932189941406 93.50001525878906 47.49993515014648 C 93.50001525878906 53.71054840087891 92.28398132324219 59.73458862304688 89.88571929931641 65.40472412109375 C 87.56894683837891 70.88218688964844 84.25196838378906 75.80176544189453 80.02691650390625 80.02680206298828 C 75.8018798828125 84.25183868408203 70.88229370117188 87.56881713867188 65.40482330322266 89.88558959960938 C 59.73467636108398 92.28384399414062 53.71063995361328 93.49987030029297 47.5000114440918 93.49987030029297 Z" stroke="none"/>
                                            <path d="M 47.5000114440918 3 C 41.49122619628906 3 35.66378021240234 4.1761474609375 30.17951965332031 6.495796203613281 C 24.880859375 8.7369384765625 20.12153625488281 11.94596862792969 16.03376770019531 16.03373718261719 C 11.94598388671875 20.12149047851562 8.736968994140625 24.88081359863281 6.495811462402344 30.17947387695312 C 4.176162719726562 35.66371917724609 3.000007629394531 41.49116516113281 3.000007629394531 47.49993515014648 C 3.000007629394531 53.50870513916016 4.176162719726562 59.33615112304688 6.495811462402344 64.82039642333984 C 8.736968994140625 70.11905670166016 11.94598388671875 74.87837982177734 16.03376770019531 78.96613311767578 C 20.12153625488281 83.05390167236328 24.880859375 86.26293182373047 30.17951965332031 88.50407409667969 C 35.66378021240234 90.82372283935547 41.49122619628906 91.99987030029297 47.5000114440918 91.99987030029297 C 53.50879669189453 91.99987030029297 59.33624267578125 90.82372283935547 64.82050323486328 88.50407409667969 C 70.11916351318359 86.26293182373047 74.87848663330078 83.05390167236328 78.96625518798828 78.96613311767578 C 83.05403900146484 74.87837982177734 86.2630615234375 70.11905670166016 88.50421142578125 64.82039642333984 C 90.82386016845703 59.33615112304688 92.00001525878906 53.50870513916016 92.00001525878906 47.49993515014648 C 92.00001525878906 41.49116516113281 90.82386016845703 35.66371917724609 88.50421142578125 30.17947387695312 C 86.2630615234375 24.88081359863281 83.05403900146484 20.12149047851562 78.96625518798828 16.03373718261719 C 74.87848663330078 11.94596862792969 70.11916351318359 8.7369384765625 64.82050323486328 6.495796203613281 C 59.33624267578125 4.1761474609375 53.50879669189453 3 47.5000114440918 3 M 47.5000114440918 0 C 73.73353576660156 0 95.00001525878906 21.26644134521484 95.00001525878906 47.49993515014648 C 95.00001525878906 73.73342895507812 73.73353576660156 94.99987030029297 47.5000114440918 94.99987030029297 C 21.26648712158203 94.99987030029297 7.62939453125e-06 73.73342895507812 7.62939453125e-06 47.49993515014648 C 7.62939453125e-06 21.26644134521484 21.26648712158203 0 47.5000114440918 0 Z" stroke="none" fill="#83793c"/>
                                          </g>
                                        </g>
                                      </g>
                                    </g>
                                  </g>
                                </g>
                              </g>
                            </g>
                          </g>
                        </g>
                      </g>
                    </g>
                  </g>
                </g>
              </g>
            </g>
          </g>
        </g>
      </g>
    </g>
    <g id="juggling_5618657_1_" data-name="juggling_5618657 (1)" transform="translate(3724.483 5280.733)">
      <g id="Grupo_1225408" data-name="Grupo 1225408" transform="translate(1.024 0.988)">
        <path id="Trazado_1057486" data-name="Trazado 1057486" d="M40.507,171.2l1.726-2.018a2.467,2.467,0,0,1,4.039,2.788l-1.894,3.462a3.332,3.332,0,0,0,.241,3.576l11.055,15-11.516,2.446-4.653-13.405A11.563,11.563,0,0,1,40.507,171.2Z" transform="translate(-34.266 -147.135)" fill="#ffcfc0"/>
        <path id="Trazado_1057487" data-name="Trazado 1057487" d="M32.863,190.123a7.414,7.414,0,0,1-.885-5.764l1.213-4.71a2.52,2.52,0,0,0-4.777-1.574L26.5,182.8a3.242,3.242,0,0,1-1.44,1.623,3.156,3.156,0,0,1-4.163-1.034l-7.7-11.753a3.189,3.189,0,0,1-.133-3.274l2.045-3.755a2.314,2.314,0,0,0-4.017-2.3l-1.932,3.218a11.594,11.594,0,0,0-.752,10.45l7.521,17.936a14.343,14.343,0,0,1,1.116,5.546v6.951H31.524l2.3-10.838A7.414,7.414,0,0,0,32.863,190.123Z" transform="translate(-7.502 -140.943)" fill="#ffe0cf"/>
        <path id="Trazado_1057488" data-name="Trazado 1057488" d="M174.635,291.039a7.414,7.414,0,0,1-.885-5.764l1.213-4.71a2.519,2.519,0,0,0-3.7-2.813,2.521,2.521,0,0,1,1.183,2.813l-1.213,4.71a7.413,7.413,0,0,0,.885,5.764,7.414,7.414,0,0,1,.958,5.453l-2.3,10.838H173.3l2.3-10.838A7.414,7.414,0,0,0,174.635,291.039Z" transform="translate(-149.274 -241.86)" fill="#ffcfc0"/>
        <path id="Trazado_1057489" data-name="Trazado 1057489" d="M357.151,171.2l-1.726-2.018a2.467,2.467,0,0,0-4.039,2.788l1.894,3.462a3.332,3.332,0,0,1-.241,3.576l-11.055,15L353.5,196.45l4.653-13.405A11.563,11.563,0,0,0,357.151,171.2Z" transform="translate(-297.921 -147.135)" fill="#ffcfc0"/>
        <path id="Trazado_1057490" data-name="Trazado 1057490" d="M304.6,190.123a7.414,7.414,0,0,0,.885-5.764l-1.213-4.71a2.52,2.52,0,0,1,4.777-1.574l1.915,4.729a3.242,3.242,0,0,0,1.44,1.623,3.156,3.156,0,0,0,4.163-1.034l7.7-11.753a3.189,3.189,0,0,0,.133-3.274l-2.045-3.755a2.314,2.314,0,0,1,4.017-2.3l1.932,3.218a11.594,11.594,0,0,1,.752,10.45l-7.521,17.936a14.343,14.343,0,0,0-1.116,5.546v6.951H305.943l-2.3-10.838A7.414,7.414,0,0,1,304.6,190.123Z" transform="translate(-264.495 -140.943)" fill="#ffe0cf"/>
        <path id="Trazado_1057491" data-name="Trazado 1057491" d="M304.6,291.039a7.414,7.414,0,0,0,.885-5.764l-1.213-4.71a2.519,2.519,0,0,1,3.7-2.813,2.521,2.521,0,0,0-1.183,2.813l1.213,4.71a7.413,7.413,0,0,1-.885,5.764,7.414,7.414,0,0,0-.958,5.453l2.3,10.838h-2.513l-2.3-10.838A7.414,7.414,0,0,1,304.6,291.039Z" transform="translate(-264.495 -241.86)" fill="#ffcfc0"/>
        <circle id="Elipse_13640" data-name="Elipse 13640" cx="5.728" cy="5.728" r="5.728" transform="translate(37.264 19.033)" fill="#60b7ff"/>
        <path id="Trazado_1057492" data-name="Trazado 1057492" d="M322.677,151.985a5.725,5.725,0,0,0-1.7.256,5.73,5.73,0,0,1,0,10.944,5.728,5.728,0,1,0,1.7-11.2Z" transform="translate(-279.685 -132.952)" fill="#26a6fe"/>
        <circle id="Elipse_13641" data-name="Elipse 13641" cx="5.728" cy="5.728" r="5.728" transform="translate(16.75 19.033)" fill="#ffe177"/>
        <path id="Trazado_1057493" data-name="Trazado 1057493" d="M166.948,151.985a5.725,5.725,0,0,0-1.7.256,5.73,5.73,0,0,1,0,10.944,5.728,5.728,0,1,0,1.7-11.2Z" transform="translate(-144.471 -132.952)" fill="#ffd15b"/>
        <g id="Grupo_1225407" data-name="Grupo 1225407" transform="translate(18.574)">
          <circle id="Elipse_13642" data-name="Elipse 13642" cx="5.728" cy="5.728" r="5.728" transform="translate(16.866 0)" fill="#ff6470"/>
          <path id="Trazado_1057494" data-name="Trazado 1057494" d="M308.829,7.5a5.725,5.725,0,0,0-1.7.256,5.73,5.73,0,0,1,0,10.944,5.728,5.728,0,1,0,1.7-11.2Z" transform="translate(-286.236 -7.5)" fill="#ff4555"/>
          <circle id="Elipse_13643" data-name="Elipse 13643" cx="5.728" cy="5.728" r="5.728" transform="translate(0 0)" fill="#6fd7a3"/>
          <path id="Trazado_1057495" data-name="Trazado 1057495" d="M180.8,7.5a5.725,5.725,0,0,0-1.7.256,5.73,5.73,0,0,1,0,10.944,5.728,5.728,0,1,0,1.7-11.2Z" transform="translate(-175.069 -7.5)" fill="#3ec3a4"/>
        </g>
      </g>
      <g id="Grupo_1225409" data-name="Grupo 1225409" transform="translate(0.041 0)">
        <path id="Trazado_1057496" data-name="Trazado 1057496" d="M26.457,178.094l1.212-4.71a3.508,3.508,0,0,0-6.649-2.191l-1.706,4.215-2.88-3.906a.988.988,0,1,0-1.591,1.172l3.236,4.39a2.178,2.178,0,0,1-2.836-.724l-7.7-11.753a2.2,2.2,0,0,1-.092-2.26l2.045-3.754a3.31,3.31,0,0,0,.4-1.6,1.48,1.48,0,0,1,2.007.061,1.484,1.484,0,0,1,.261,1.766l-1.894,3.462a4.334,4.334,0,0,0,.313,4.637l1.994,2.7a.988.988,0,1,0,1.591-1.172l-1.994-2.7A2.352,2.352,0,0,1,12,163.2l1.894-3.462a3.454,3.454,0,0,0-4.647-4.711,3.3,3.3,0,0,0-5.487.261L1.83,158.511a12.627,12.627,0,0,0-.816,11.341l7.521,17.936a13.285,13.285,0,0,1,1.039,5.164V199.9a.988.988,0,1,0,1.976,0v-6.951a15.251,15.251,0,0,0-1.193-5.928L2.837,169.088a10.643,10.643,0,0,1,.688-9.56l1.932-3.218a1.326,1.326,0,0,1,2.3,1.317l-2.045,3.755a4.17,4.17,0,0,0,.175,4.288l7.7,11.753a4.163,4.163,0,0,0,5.466,1.358,4.244,4.244,0,0,0,1.879-2.117l1.915-4.729a1.532,1.532,0,0,1,2.9.957l-1.212,4.71a8.44,8.44,0,0,0,1,6.533,6.4,6.4,0,0,1,.83,4.726L24.08,199.7a.988.988,0,0,0,1.933.41l2.3-10.838a8.363,8.363,0,0,0-1.085-6.18,6.455,6.455,0,0,1-.767-5Z" transform="translate(-0.041 -133.445)"/>
        <path id="Trazado_1057497" data-name="Trazado 1057497" d="M289.6,157.918a6.716,6.716,0,1,0-6.716-6.716A6.723,6.723,0,0,0,289.6,157.918Zm0-11.456a4.74,4.74,0,1,1-4.74,4.74A4.745,4.745,0,0,1,289.6,146.462Z" transform="translate(-245.625 -125.453)"/>
        <path id="Trazado_1057498" data-name="Trazado 1057498" d="M133.872,144.485a6.716,6.716,0,1,0,6.716,6.716A6.723,6.723,0,0,0,133.872,144.485Zm0,11.456a4.74,4.74,0,1,1,4.74-4.74A4.745,4.745,0,0,1,133.872,155.941Z" transform="translate(-110.411 -125.452)"/>
        <path id="Trazado_1057499" data-name="Trazado 1057499" d="M322.634,158.511l-1.932-3.218a3.3,3.3,0,0,0-5.488-.261,3.455,3.455,0,0,0-4.647,4.711l1.894,3.462a2.352,2.352,0,0,1-.17,2.516l-7.141,9.686-1.706-4.215a3.508,3.508,0,0,0-6.649,2.191l1.213,4.71a6.455,6.455,0,0,1-.767,5,8.363,8.363,0,0,0-1.085,6.18l2.3,10.838a.988.988,0,1,0,1.933-.41l-2.3-10.838a6.4,6.4,0,0,1,.83-4.726,8.44,8.44,0,0,0,1-6.533l-1.213-4.71a1.532,1.532,0,0,1,2.9-.957l1.915,4.729a4.242,4.242,0,0,0,1.88,2.117,4.163,4.163,0,0,0,5.466-1.358l7.7-11.753a4.17,4.17,0,0,0,.175-4.288l-2.045-3.755a1.326,1.326,0,0,1,2.3-1.317l1.932,3.218a10.643,10.643,0,0,1,.688,9.56l-3.236,7.718a.988.988,0,0,0,1.822.764l3.236-7.718a12.626,12.626,0,0,0-.816-11.34Zm-5.618,3.816a2.2,2.2,0,0,1-.092,2.259l-7.7,11.753a2.178,2.178,0,0,1-2.836.724l7.5-10.17a4.335,4.335,0,0,0,.313-4.637L312.3,158.8a1.479,1.479,0,0,1,1.362-2.188,1.463,1.463,0,0,1,.906.361,3.31,3.31,0,0,0,.4,1.6Z" transform="translate(-256.988 -133.445)"/>
        <path id="Trazado_1057500" data-name="Trazado 1057500" d="M429.885,351.451a.989.989,0,0,0-1.293.529l-2.8,6.686a15.254,15.254,0,0,0-1.192,5.928v6.951a.988.988,0,1,0,1.976,0v-6.951a13.284,13.284,0,0,1,1.039-5.164l2.8-6.686A.988.988,0,0,0,429.885,351.451Z" transform="translate(-368.669 -305.087)"/>
        <path id="Trazado_1057501" data-name="Trazado 1057501" d="M275.752,13.432a6.716,6.716,0,1,0-6.716-6.716,6.723,6.723,0,0,0,6.716,6.716Zm0-11.456a4.74,4.74,0,1,1-4.74,4.74A4.745,4.745,0,0,1,275.752,1.976Z" transform="translate(-233.601 0)"/>
        <path id="Trazado_1057502" data-name="Trazado 1057502" d="M147.791,0a6.664,6.664,0,0,0-5.373,2.687A.988.988,0,1,0,144,3.873,4.741,4.741,0,1,1,143.06,7a.988.988,0,1,0-1.973.116A6.715,6.715,0,1,0,147.791,0Z" transform="translate(-122.506 0)"/>
      </g>
    </g>
  </g>
</svg>
