<svg xmlns="http://www.w3.org/2000/svg" xmlns:xlink="http://www.w3.org/1999/xlink" width="113" height="113" viewBox="0 0 113 113">
  <defs>
    <filter id="Trazado_982547" x="0" y="0" width="113" height="113" filterUnits="userSpaceOnUse">
      <feOffset dy="3" input="SourceAlpha"/>
      <feGaussianBlur stdDeviation="3" result="blur"/>
      <feFlood flood-opacity="0.161"/>
      <feComposite operator="in" in2="blur"/>
      <feComposite in="SourceGraphic"/>
    </filter>
    <clipPath id="clip-path">
      <path id="path8075" d="M0-682.665H61.039v61.039H0Z" transform="translate(0 682.665)"/>
    </clipPath>
  </defs>
  <g id="Grupo_1225417" data-name="Grupo 1225417" transform="translate(-3346.742 -5652.957)">
    <g id="Grupo_1225185" data-name="Grupo 1225185" transform="translate(2553.252 3919)">
      <g id="Grupo_1209304" data-name="Grupo 1209304" transform="translate(0 503.742)">
        <g id="Grupo_1208492" data-name="Grupo 1208492" transform="translate(0 -4397.209)">
          <g id="Grupo_1177675" data-name="Grupo 1177675" transform="translate(-4493 3707.152)">
            <g id="Grupo_1176928" data-name="Grupo 1176928" transform="translate(5295.49 1926.273)">
              <g id="Grupo_1172322" data-name="Grupo 1172322" transform="translate(0 0)">
                <g id="Grupo_1164700" data-name="Grupo 1164700">
                  <g id="Grupo_1160931" data-name="Grupo 1160931">
                    <g id="Grupo_1160749" data-name="Grupo 1160749">
                      <g id="Grupo_1158891" data-name="Grupo 1158891">
                        <g id="Grupo_1157406" data-name="Grupo 1157406">
                          <g id="Grupo_1155793" data-name="Grupo 1155793">
                            <g id="Grupo_1154704" data-name="Grupo 1154704">
                              <g id="Grupo_1150790" data-name="Grupo 1150790">
                                <g id="Grupo_1154214" data-name="Grupo 1154214">
                                  <g id="Grupo_1152583" data-name="Grupo 1152583">
                                    <g id="Grupo_1146973" data-name="Grupo 1146973">
                                      <g id="Grupo_1146954" data-name="Grupo 1146954">
                                        <g transform="matrix(1, 0, 0, 1, -9, -6)" filter="url(#Trazado_982547)">
                                          <g id="Trazado_982547-2" data-name="Trazado 982547" transform="translate(9 6)" fill="#fcf8db">
                                            <path d="M 47.5000114440918 93.49987030029297 C 41.28938293457031 93.49987030029297 35.26534652709961 92.28384399414062 29.5951976776123 89.88558959960938 C 24.11773109436035 87.56881713867188 19.19814491271973 84.25183868408203 14.97310447692871 80.02680206298828 C 10.74805164337158 75.80176544189453 7.43107795715332 70.88218688964844 5.114304542541504 65.40472412109375 C 2.716038227081299 59.73458862304688 1.500011444091797 53.71054840087891 1.500011444091797 47.49993515014648 C 1.500011444091797 41.28932189941406 2.716038227081299 35.26528167724609 5.114304542541504 29.59514808654785 C 7.43107795715332 24.1176815032959 10.74805164337158 19.1981086730957 14.97310447692871 14.97306823730469 C 19.19814491271973 10.74802875518799 24.11773109436035 7.431055068969727 29.5951976776123 5.11428165435791 C 35.26534652709961 2.716028451919556 41.28938293457031 1.500001788139343 47.5000114440918 1.500001788139343 C 53.71063995361328 1.500001788139343 59.73467636108398 2.716028451919556 65.40482330322266 5.11428165435791 C 70.88229370117188 7.431055068969727 75.8018798828125 10.74802875518799 80.02691650390625 14.97306823730469 C 84.25196838378906 19.1981086730957 87.56894683837891 24.1176815032959 89.88571929931641 29.59514808654785 C 92.28398132324219 35.26528167724609 93.50001525878906 41.28932189941406 93.50001525878906 47.49993515014648 C 93.50001525878906 53.71054840087891 92.28398132324219 59.73458862304688 89.88571929931641 65.40472412109375 C 87.56894683837891 70.88218688964844 84.25196838378906 75.80176544189453 80.02691650390625 80.02680206298828 C 75.8018798828125 84.25183868408203 70.88229370117188 87.56881713867188 65.40482330322266 89.88558959960938 C 59.73467636108398 92.28384399414062 53.71063995361328 93.49987030029297 47.5000114440918 93.49987030029297 Z" stroke="none"/>
                                            <path d="M 47.5000114440918 3 C 41.49122619628906 3 35.66378021240234 4.1761474609375 30.17951965332031 6.495796203613281 C 24.880859375 8.7369384765625 20.12153625488281 11.94596862792969 16.03376770019531 16.03373718261719 C 11.94598388671875 20.12149047851562 8.736968994140625 24.88081359863281 6.495811462402344 30.17947387695312 C 4.176162719726562 35.66371917724609 3.000007629394531 41.49116516113281 3.000007629394531 47.49993515014648 C 3.000007629394531 53.50870513916016 4.176162719726562 59.33615112304688 6.495811462402344 64.82039642333984 C 8.736968994140625 70.11905670166016 11.94598388671875 74.87837982177734 16.03376770019531 78.96613311767578 C 20.12153625488281 83.05390167236328 24.880859375 86.26293182373047 30.17951965332031 88.50407409667969 C 35.66378021240234 90.82372283935547 41.49122619628906 91.99987030029297 47.5000114440918 91.99987030029297 C 53.50879669189453 91.99987030029297 59.33624267578125 90.82372283935547 64.82050323486328 88.50407409667969 C 70.11916351318359 86.26293182373047 74.87848663330078 83.05390167236328 78.96625518798828 78.96613311767578 C 83.05403900146484 74.87837982177734 86.2630615234375 70.11905670166016 88.50421142578125 64.82039642333984 C 90.82386016845703 59.33615112304688 92.00001525878906 53.50870513916016 92.00001525878906 47.49993515014648 C 92.00001525878906 41.49116516113281 90.82386016845703 35.66371917724609 88.50421142578125 30.17947387695312 C 86.2630615234375 24.88081359863281 83.05403900146484 20.12149047851562 78.96625518798828 16.03373718261719 C 74.87848663330078 11.94596862792969 70.11916351318359 8.7369384765625 64.82050323486328 6.495796203613281 C 59.33624267578125 4.1761474609375 53.50879669189453 3 47.5000114440918 3 M 47.5000114440918 0 C 73.73353576660156 0 95.00001525878906 21.26644134521484 95.00001525878906 47.49993515014648 C 95.00001525878906 73.73342895507812 73.73353576660156 94.99987030029297 47.5000114440918 94.99987030029297 C 21.26648712158203 94.99987030029297 7.62939453125e-06 73.73342895507812 7.62939453125e-06 47.49993515014648 C 7.62939453125e-06 21.26644134521484 21.26648712158203 0 47.5000114440918 0 Z" stroke="none" fill="#83793c"/>
                                          </g>
                                        </g>
                                      </g>
                                    </g>
                                  </g>
                                </g>
                              </g>
                            </g>
                          </g>
                        </g>
                      </g>
                    </g>
                  </g>
                </g>
              </g>
            </g>
          </g>
        </g>
      </g>
    </g>
    <g id="g8061" transform="translate(3371.723 6358.603)">
      <g id="g8063" transform="translate(38.388 -635.455)">
        <path id="path8065" d="M-194.258,0V12.637h-19.075V7.868L-208.564,0Z" transform="translate(213.333)" fill="#ffda8f"/>
      </g>
      <g id="g8067" transform="translate(3.577 -635.455)">
        <path id="path8069" d="M-145.693,0H-160V12.637h19.075V7.868Z" transform="translate(160)" fill="#9bc5ff"/>
      </g>
      <g id="g8071" transform="translate(0 -682.665)">
        <g id="g8073" clip-path="url(#clip-path)">
          <g id="g8079" transform="translate(36.004 1.192)">
            <path id="path8081" d="M-121.411,0a11.922,11.922,0,0,0-11.922,11.922V16.69h23.844V11.922A11.922,11.922,0,0,0-121.411,0" transform="translate(133.333)" fill="#ffda8f"/>
          </g>
          <g id="g8083" transform="translate(36.004 22.651)">
            <path id="path8085" d="M-194.258,0h-14.306a4.769,4.769,0,0,0-4.769,4.769V7.153h4.769v7.868h14.306V7.153h4.769V4.769A4.769,4.769,0,0,0-194.258,0" transform="translate(213.333)" fill="#9bc5ff"/>
          </g>
          <g id="g8087" transform="translate(1.192 22.651)">
            <path id="path8089" d="M-194.258,0h-14.306a4.769,4.769,0,0,0-4.769,4.769V7.153h4.769v7.868h14.306V7.153h4.769V4.769A4.769,4.769,0,0,0-194.258,0" transform="translate(213.333)" fill="#d8ec84"/>
          </g>
          <g id="g8091" transform="translate(5.961 5.961)">
            <path id="path8093" d="M0,0V7.153A7.142,7.142,0,0,0,2.879,12.89a4.7,4.7,0,0,1,1.89,3.764v.037a2.384,2.384,0,1,0,4.769,0v-.037a4.7,4.7,0,0,1,1.89-3.764,7.142,7.142,0,0,0,2.879-5.737V4.769Z" fill="#fce8d0"/>
          </g>
          <g id="g8095" transform="translate(43.157 29.804)">
            <path id="path8097" d="M-169.976,0V7.868a4.769,4.769,0,0,1-4.769,4.769h-11.922V7.868h11.922V0Z" transform="translate(186.666)" fill="#fce8d0"/>
          </g>
          <g id="g8099" transform="translate(43.157 41.813)">
            <path id="path8101" d="M-145.693-.328V5.037H-160V.268h11.922a4.749,4.749,0,0,0,2.366-.628Z" transform="translate(160 0.36)" fill="#9bc5ff"/>
          </g>
          <g id="g8103" transform="translate(40.772 8.345)">
            <path id="path8105" d="M-145.693-48.516a7.145,7.145,0,0,1-2.879,5.742,4.7,4.7,0,0,0-1.89,3.764v.037a2.384,2.384,0,0,1-2.384,2.384,2.384,2.384,0,0,1-2.384-2.384v-.037a4.7,4.7,0,0,0-1.89-3.764A7.144,7.144,0,0,1-160-48.511a2.384,2.384,0,0,1,2.384-2.384h2.384a2.384,2.384,0,0,0,2.384-2.384v.665a1.718,1.718,0,0,0,1.719,1.719h3.05a2.388,2.388,0,0,1,2.384,2.38" transform="translate(160 53.28)" fill="#fce8d0"/>
          </g>
          <path id="path8107" d="M225.274-275.494H200V-296h25.274Z" transform="translate(-182.117 330.572)" fill="#eefaff"/>
          <path id="path8109" d="M407.434-344.564h-4.769v-4.769h4.769Z" transform="translate(-366.662 379.137)" fill="#fce8d0"/>
          <g id="g8111" transform="translate(25.751 41.293)">
            <path id="path8113" d="M-71.766,0a2.692,2.692,0,0,1,2.49,2.579c0,1.264-1.168,2.718-4.769,4.888-3.6-2.17-4.769-3.624-4.769-4.888A2.692,2.692,0,0,1-76.323,0a2.594,2.594,0,0,1,2.278,1.363A2.594,2.594,0,0,1-71.766,0" transform="translate(78.813 0)" fill="#ff7b79"/>
          </g>
          <path id="path8115" d="M231.435-344.564h-4.769v-4.769h4.769Z" transform="translate(-206.399 379.137)" fill="#fce8d0"/>
          <g id="g8117" transform="translate(5.961 1.192)">
            <path id="path8119" d="M-121.411-97.129h-4.206a8.628,8.628,0,0,1-7.716-4.769,4.769,4.769,0,0,1,4.769-4.769h4.769a4.769,4.769,0,0,1,4.769,4.769v4.769Z" transform="translate(133.333 106.666)" fill="#ffda8f"/>
          </g>
          <g id="g8121" transform="translate(3.577 41.813)">
            <path id="path8123" d="M-145.693-6.4V-1.63H-160V-6.994l.018-.032a4.749,4.749,0,0,0,2.366.628Z" transform="translate(160 7.027)" fill="#d8ec84"/>
          </g>
          <g id="g8125" transform="translate(1.192 29.804)">
            <path id="path8127" d="M-169.976-80.131v4.769H-181.9a4.769,4.769,0,0,1-4.769-4.769V-88h4.769v7.868Z" transform="translate(186.666 88)" fill="#fce8d0"/>
          </g>
          <g id="g8129" transform="translate(5.961 5.961)">
            <path id="path8131" d="M0,0A8.628,8.628,0,0,0,7.716,4.769h6.59" fill="none" stroke="#000" stroke-linecap="round" stroke-linejoin="round" stroke-miterlimit="10" stroke-width="1"/>
          </g>
          <g id="g8133" transform="translate(13.114 5.961)">
            <path id="path8135" d="M0,0A4.769,4.769,0,0,0,4.769,4.769" fill="none" stroke="#000" stroke-linecap="round" stroke-linejoin="round" stroke-miterlimit="10" stroke-width="1"/>
          </g>
          <g id="g8137" transform="translate(36.004 1.192)">
            <path id="path8139" d="M-175.706-169.976h6.59v-4.769a11.921,11.921,0,0,0-11.922-11.922,11.922,11.922,0,0,0-11.922,11.922v4.769h6.59" transform="translate(192.96 186.666)" fill="none" stroke="#000" stroke-linecap="round" stroke-linejoin="round" stroke-miterlimit="10" stroke-width="1"/>
          </g>
          <g id="g8141" transform="translate(17.883 34.573)">
            <path id="path8143" d="M-257.392-128.7v7.868h-25.274v-20.505h25.274V-128.7Z" transform="translate(282.666 141.333)" fill="none" stroke="#000" stroke-linecap="round" stroke-linejoin="round" stroke-miterlimit="10" stroke-width="1"/>
          </g>
          <g id="g8145" transform="translate(30.52 55.078)">
            <path id="path8147" d="M0-48.565v-4.769" transform="translate(0 53.333)" fill="none" stroke="#000" stroke-linecap="round" stroke-linejoin="round" stroke-miterlimit="10" stroke-width="1"/>
          </g>
          <g id="g8149" transform="translate(43.157 27.42)">
            <path id="path8151" d="M-121.411,0V10.253h-11.922" transform="translate(133.333)" fill="none" stroke="#000" stroke-linecap="round" stroke-linejoin="round" stroke-miterlimit="10" stroke-width="1"/>
          </g>
          <g id="g8153" transform="translate(40.772 27.42)">
            <path id="path8155" d="M0-72.847V-80" transform="translate(0 80)" fill="none" stroke="#000" stroke-linecap="round" stroke-linejoin="round" stroke-miterlimit="10" stroke-width="1"/>
          </g>
          <g id="g8157" transform="translate(1.192 1.192)">
            <path id="path8159" d="M-169.976-420.083H-181.9a4.749,4.749,0,0,1-2.366-.628,4.765,4.765,0,0,1-2.4-4.14V-435.1a4.769,4.769,0,0,1,4.769-4.769h4.769v-.037a4.7,4.7,0,0,0-1.89-3.764,7.142,7.142,0,0,1-2.879-5.737v-7.153a4.769,4.769,0,0,1,4.769-4.769h4.769a4.769,4.769,0,0,1,4.769,4.769v7.153a7.142,7.142,0,0,1-2.879,5.737,4.7,4.7,0,0,0-1.89,3.764v.037h4.769a4.769,4.769,0,0,1,4.769,4.769v7.153" transform="translate(186.666 461.332)" fill="none" stroke="#000" stroke-linecap="round" stroke-linejoin="round" stroke-miterlimit="10" stroke-width="1"/>
          </g>
          <g id="g8161" transform="translate(10.73 22.651)">
            <path id="path8163" d="M-48.565,0a2.384,2.384,0,0,1-2.384,2.384A2.384,2.384,0,0,1-53.333,0" transform="translate(53.333)" fill="none" stroke="#000" stroke-linecap="round" stroke-linejoin="round" stroke-miterlimit="10" stroke-width="1"/>
          </g>
          <g id="g8165" transform="translate(45.541 22.651)">
            <path id="path8167" d="M-48.565,0a2.384,2.384,0,0,1-2.384,2.384A2.384,2.384,0,0,1-53.333,0" transform="translate(53.333)" fill="none" stroke="#000" stroke-linecap="round" stroke-linejoin="round" stroke-miterlimit="10" stroke-width="1"/>
          </g>
          <g id="g8169" transform="translate(36.004 29.804)">
            <path id="path8171" d="M0,0H4.769" fill="none" stroke="#000" stroke-linecap="round" stroke-linejoin="round" stroke-miterlimit="10" stroke-width="1"/>
          </g>
          <g id="g8173" transform="translate(55.078 29.804)">
            <path id="path8175" d="M0,0H4.769" fill="none" stroke="#000" stroke-linecap="round" stroke-linejoin="round" stroke-miterlimit="10" stroke-width="1"/>
          </g>
          <g id="g8177" transform="translate(43.157 47.21)">
            <path id="path8179" d="M-145.693,0H-160" transform="translate(160)" fill="none" stroke="#000" stroke-linecap="round" stroke-linejoin="round" stroke-miterlimit="10" stroke-width="1"/>
          </g>
          <g id="g8181" transform="translate(5.961 27.42)">
            <path id="path8183" d="M0,0V10.253H11.922" fill="none" stroke="#000" stroke-linecap="round" stroke-linejoin="round" stroke-miterlimit="10" stroke-width="1"/>
          </g>
          <g id="g8185" transform="translate(20.267 27.42)">
            <path id="path8187" d="M0-72.847V-80" transform="translate(0 80)" fill="none" stroke="#000" stroke-linecap="round" stroke-linejoin="round" stroke-miterlimit="10" stroke-width="1"/>
          </g>
          <g id="g8189" transform="translate(20.267 29.804)">
            <path id="path8191" d="M-48.565,0h-4.769" transform="translate(53.333)" fill="none" stroke="#000" stroke-linecap="round" stroke-linejoin="round" stroke-miterlimit="10" stroke-width="1"/>
          </g>
          <g id="g8193" transform="translate(1.192 29.804)">
            <path id="path8195" d="M-48.565,0h-4.769" transform="translate(53.333)" fill="none" stroke="#000" stroke-linecap="round" stroke-linejoin="round" stroke-miterlimit="10" stroke-width="1"/>
          </g>
          <g id="g8197" transform="translate(3.577 41.845)">
            <path id="path8199" d="M0,0V18H19.075V13.233" fill="none" stroke="#000" stroke-linecap="round" stroke-linejoin="round" stroke-miterlimit="10" stroke-width="1"/>
          </g>
          <g id="g8201" transform="translate(3.577 47.21)">
            <path id="path8203" d="M0,0H14.306" fill="none" stroke="#000" stroke-linecap="round" stroke-linejoin="round" stroke-miterlimit="10" stroke-width="1"/>
          </g>
          <g id="g8205" transform="translate(36.004 8.345)">
            <path id="path8207" d="M-72.847-347.236h11.922a4.749,4.749,0,0,0,2.366-.628,4.765,4.765,0,0,0,2.4-4.14v-10.253a4.769,4.769,0,0,0-4.769-4.769h-4.769v-.037a4.7,4.7,0,0,1,1.89-3.764,7.208,7.208,0,0,0,1.057-.968,7.128,7.128,0,0,0,1.822-4.773,2.388,2.388,0,0,0-2.384-2.38h-3.05a1.718,1.718,0,0,1-1.719-1.719v-.665a2.384,2.384,0,0,1-2.384,2.384h-2.384a2.384,2.384,0,0,0-2.384,2.384,7.114,7.114,0,0,0,.784,3.259,7.114,7.114,0,0,0,1.037,1.509,7.208,7.208,0,0,0,1.057.968,4.7,4.7,0,0,1,1.89,3.764v.037h-4.769A4.769,4.769,0,0,0-80-362.258v7.153" transform="translate(80 381.332)" fill="none" stroke="#000" stroke-linecap="round" stroke-linejoin="round" stroke-miterlimit="10" stroke-width="1"/>
          </g>
          <g id="g8209" transform="translate(13.114 51.979)">
            <path id="path8211" d="M0-80.131V-88" transform="translate(0 88)" fill="none" stroke="#000" stroke-linecap="round" stroke-linejoin="round" stroke-miterlimit="10" stroke-width="1"/>
          </g>
          <g id="g8213" transform="translate(25.751 41.293)">
            <path id="path8215" d="M-71.766,0a2.692,2.692,0,0,1,2.49,2.579c0,1.264-1.168,2.718-4.769,4.888-3.6-2.17-4.769-3.624-4.769-4.888A2.692,2.692,0,0,1-76.323,0a2.594,2.594,0,0,1,2.278,1.363A2.594,2.594,0,0,1-71.766,0Z" transform="translate(78.813 0)" fill="none" stroke="#000" stroke-linecap="round" stroke-linejoin="round" stroke-miterlimit="10" stroke-width="1"/>
          </g>
          <g id="g8217" transform="translate(46.733 58.655)">
            <path id="path8219" d="M-24.282-12.141a1.192,1.192,0,0,1-1.192,1.192,1.192,1.192,0,0,1-1.192-1.192,1.192,1.192,0,0,1,1.192-1.192,1.192,1.192,0,0,1,1.192,1.192" transform="translate(26.667 13.333)"/>
          </g>
          <g id="g8221" transform="translate(53.29 41.845)">
            <path id="path8223" d="M-42.494,0V18h-4.173" transform="translate(46.667)" fill="none" stroke="#000" stroke-linecap="round" stroke-linejoin="round" stroke-miterlimit="10" stroke-width="1"/>
          </g>
          <g id="g8225" transform="translate(38.388 55.078)">
            <path id="path8227" d="M-42.494-48.565h-4.173v-4.769" transform="translate(46.667 53.333)" fill="none" stroke="#000" stroke-linecap="round" stroke-linejoin="round" stroke-miterlimit="10" stroke-width="1"/>
          </g>
        </g>
      </g>
    </g>
  </g>
</svg>
