<svg xmlns="http://www.w3.org/2000/svg" xmlns:xlink="http://www.w3.org/1999/xlink" width="113" height="113" viewBox="0 0 113 113">
  <defs>
    <filter id="Trazado_982547" x="0" y="0" width="113" height="113" filterUnits="userSpaceOnUse">
      <feOffset dy="3" input="SourceAlpha"/>
      <feGaussianBlur stdDeviation="3" result="blur"/>
      <feFlood flood-opacity="0.161"/>
      <feComposite operator="in" in2="blur"/>
      <feComposite in="SourceGraphic"/>
    </filter>
  </defs>
  <g id="Grupo_1224599" data-name="Grupo 1224599" transform="translate(-1112 -5073.421)">
    <g id="Grupo_1209313" data-name="Grupo 1209313" transform="translate(0 3843.205)">
      <g id="Grupo_1209049" data-name="Grupo 1209049">
        <g id="Grupo_1208493" data-name="Grupo 1208493" transform="translate(0 -4397.209)">
          <g id="Grupo_1202104" data-name="Grupo 1202104" transform="translate(0 -1149.226)">
            <g id="Grupo_1201923" data-name="Grupo 1201923" transform="translate(-4174.49 4856.378)">
              <g id="Grupo_1176928" data-name="Grupo 1176928" transform="translate(5295.49 1926.273)">
                <g id="Grupo_1172322" data-name="Grupo 1172322" transform="translate(0 0)">
                  <g id="Grupo_1164700" data-name="Grupo 1164700">
                    <g id="Grupo_1160931" data-name="Grupo 1160931">
                      <g id="Grupo_1160749" data-name="Grupo 1160749">
                        <g id="Grupo_1158891" data-name="Grupo 1158891">
                          <g id="Grupo_1157406" data-name="Grupo 1157406">
                            <g id="Grupo_1155793" data-name="Grupo 1155793">
                              <g id="Grupo_1154704" data-name="Grupo 1154704">
                                <g id="Grupo_1150790" data-name="Grupo 1150790">
                                  <g id="Grupo_1154214" data-name="Grupo 1154214">
                                    <g id="Grupo_1152583" data-name="Grupo 1152583">
                                      <g id="Grupo_1146973" data-name="Grupo 1146973">
                                        <g id="Grupo_1146954" data-name="Grupo 1146954">
                                          <g transform="matrix(1, 0, 0, 1, -9, -6)" filter="url(#Trazado_982547)">
                                            <g id="Trazado_982547-2" data-name="Trazado 982547" transform="translate(9 6)" fill="#fcf8db">
                                              <path d="M 47.5000114440918 93.49987030029297 C 41.28938293457031 93.49987030029297 35.26534652709961 92.28384399414062 29.5951976776123 89.88558959960938 C 24.11773109436035 87.56881713867188 19.19814491271973 84.25183868408203 14.97310447692871 80.02680206298828 C 10.74805164337158 75.80176544189453 7.43107795715332 70.88218688964844 5.114304542541504 65.40472412109375 C 2.716038227081299 59.73458862304688 1.500011444091797 53.71054840087891 1.500011444091797 47.49993515014648 C 1.500011444091797 41.28932189941406 2.716038227081299 35.26528167724609 5.114304542541504 29.59514808654785 C 7.43107795715332 24.1176815032959 10.74805164337158 19.1981086730957 14.97310447692871 14.97306823730469 C 19.19814491271973 10.74802875518799 24.11773109436035 7.431055068969727 29.5951976776123 5.11428165435791 C 35.26534652709961 2.716028451919556 41.28938293457031 1.500001788139343 47.5000114440918 1.500001788139343 C 53.71063995361328 1.500001788139343 59.73467636108398 2.716028451919556 65.40482330322266 5.11428165435791 C 70.88229370117188 7.431055068969727 75.8018798828125 10.74802875518799 80.02691650390625 14.97306823730469 C 84.25196838378906 19.1981086730957 87.56894683837891 24.1176815032959 89.88571929931641 29.59514808654785 C 92.28398132324219 35.26528167724609 93.50001525878906 41.28932189941406 93.50001525878906 47.49993515014648 C 93.50001525878906 53.71054840087891 92.28398132324219 59.73458862304688 89.88571929931641 65.40472412109375 C 87.56894683837891 70.88218688964844 84.25196838378906 75.80176544189453 80.02691650390625 80.02680206298828 C 75.8018798828125 84.25183868408203 70.88229370117188 87.56881713867188 65.40482330322266 89.88558959960938 C 59.73467636108398 92.28384399414062 53.71063995361328 93.49987030029297 47.5000114440918 93.49987030029297 Z" stroke="none"/>
                                              <path d="M 47.5000114440918 3 C 41.49122619628906 3 35.66378021240234 4.1761474609375 30.17951965332031 6.495796203613281 C 24.880859375 8.7369384765625 20.12153625488281 11.94596862792969 16.03376770019531 16.03373718261719 C 11.94598388671875 20.12149047851562 8.736968994140625 24.88081359863281 6.495811462402344 30.17947387695312 C 4.176162719726562 35.66371917724609 3.000007629394531 41.49116516113281 3.000007629394531 47.49993515014648 C 3.000007629394531 53.50870513916016 4.176162719726562 59.33615112304688 6.495811462402344 64.82039642333984 C 8.736968994140625 70.11905670166016 11.94598388671875 74.87837982177734 16.03376770019531 78.96613311767578 C 20.12153625488281 83.05390167236328 24.880859375 86.26293182373047 30.17951965332031 88.50407409667969 C 35.66378021240234 90.82372283935547 41.49122619628906 91.99987030029297 47.5000114440918 91.99987030029297 C 53.50879669189453 91.99987030029297 59.33624267578125 90.82372283935547 64.82050323486328 88.50407409667969 C 70.11916351318359 86.26293182373047 74.87848663330078 83.05390167236328 78.96625518798828 78.96613311767578 C 83.05403900146484 74.87837982177734 86.2630615234375 70.11905670166016 88.50421142578125 64.82039642333984 C 90.82386016845703 59.33615112304688 92.00001525878906 53.50870513916016 92.00001525878906 47.49993515014648 C 92.00001525878906 41.49116516113281 90.82386016845703 35.66371917724609 88.50421142578125 30.17947387695312 C 86.2630615234375 24.88081359863281 83.05403900146484 20.12149047851562 78.96625518798828 16.03373718261719 C 74.87848663330078 11.94596862792969 70.11916351318359 8.7369384765625 64.82050323486328 6.495796203613281 C 59.33624267578125 4.1761474609375 53.50879669189453 3 47.5000114440918 3 M 47.5000114440918 0 C 73.73353576660156 0 95.00001525878906 21.26644134521484 95.00001525878906 47.49993515014648 C 95.00001525878906 73.73342895507812 73.73353576660156 94.99987030029297 47.5000114440918 94.99987030029297 C 21.26648712158203 94.99987030029297 7.62939453125e-06 73.73342895507812 7.62939453125e-06 47.49993515014648 C 7.62939453125e-06 21.26644134521484 21.26648712158203 0 47.5000114440918 0 Z" stroke="none" fill="#83793c"/>
                                            </g>
                                          </g>
                                        </g>
                                      </g>
                                    </g>
                                  </g>
                                </g>
                              </g>
                            </g>
                          </g>
                        </g>
                      </g>
                    </g>
                  </g>
                </g>
              </g>
            </g>
          </g>
        </g>
      </g>
    </g>
    <g id="time-management_7435627" transform="translate(1128.827 5084.134)">
      <path id="Trazado_1056470" data-name="Trazado 1056470" d="M67.568,53.143l-4.585-3.725a16.9,16.9,0,0,0,0-6.467l4.585-3.725a2.147,2.147,0,0,0,.505-2.739l-2.386-4.133a2.147,2.147,0,0,0-2.625-.932L57.541,33.53a16.773,16.773,0,0,0-5.6-3.237l-.933-5.831a2.147,2.147,0,0,0-2.12-1.807H44.117A2.147,2.147,0,0,0,42,24.462l-.933,5.831a16.772,16.772,0,0,0-5.6,3.237l-5.521-2.109a2.147,2.147,0,0,0-2.625.932l-2.386,4.133a2.147,2.147,0,0,0,.505,2.739l4.585,3.725a16.894,16.894,0,0,0,0,6.467l-4.585,3.725a2.147,2.147,0,0,0-.505,2.739l2.386,4.133a2.147,2.147,0,0,0,2.625.932l5.521-2.109a16.773,16.773,0,0,0,5.6,3.237L42,67.906a2.147,2.147,0,0,0,2.12,1.807H48.89a2.147,2.147,0,0,0,2.12-1.807l.933-5.831a16.773,16.773,0,0,0,5.6-3.237l5.521,2.109a2.147,2.147,0,0,0,2.625-.932l2.386-4.133A2.146,2.146,0,0,0,67.568,53.143Z" transform="translate(-14.983 -9.303)" fill="#01c0fa"/>
      <path id="Trazado_1056471" data-name="Trazado 1056471" d="M161.04,22.656a2.147,2.147,0,0,0-2.12,1.808l-.81,5.064a16.737,16.737,0,0,0-3.3.766l.933-5.829a2.146,2.146,0,0,1,2.119-1.808Z" transform="translate(-128.724 -9.304)" fill="#08a9f1"/>
      <path id="Trazado_1056472" data-name="Trazado 1056472" d="M161.04,342.8h-3.181a2.146,2.146,0,0,1-2.119-1.807l-.933-5.83a16.741,16.741,0,0,0,3.3.766l.81,5.065A2.147,2.147,0,0,0,161.04,342.8Z" transform="translate(-128.724 -282.389)" fill="#08a9f1"/>
      <path id="Trazado_1056473" data-name="Trazado 1056473" d="M37.031,92.066a23.484,23.484,0,0,0,0,27.726,16.418,16.418,0,0,1-1.562-1.209l-5.521,2.109a2.146,2.146,0,0,1-2.626-.932l-2.386-4.133a2.148,2.148,0,0,1,.506-2.74l4.585-3.724a16.9,16.9,0,0,1,0-6.468l-4.585-3.724a2.148,2.148,0,0,1-.506-2.74L27.322,92.1a2.146,2.146,0,0,1,2.626-.932l5.521,2.109A16.423,16.423,0,0,1,37.031,92.066Z" transform="translate(-14.985 -69.048)" fill="#08a9f1"/>
      <path id="Trazado_1056474" data-name="Trazado 1056474" d="M104.01,33.225l.809.309a16.758,16.758,0,0,1,5.6-3.237l.933-5.83a2.146,2.146,0,0,1,2.12-1.808h4.771a2.146,2.146,0,0,1,2.12,1.808l.933,5.83a16.758,16.758,0,0,1,5.6,3.237l5.521-2.109a2.146,2.146,0,0,1,2.625.932l2.387,4.132a2.149,2.149,0,0,1-.506,2.74l-4.584,3.724a16.943,16.943,0,0,1,0,6.469l4.465,3.627" transform="translate(-84.336 -9.307)" fill="none" stroke="#000" stroke-linecap="round" stroke-linejoin="round" stroke-miterlimit="10" stroke-width="1.2"/>
      <path id="Trazado_1056475" data-name="Trazado 1056475" d="M30.572,91.408l-.627-.24a2.146,2.146,0,0,0-2.625.932l-2.385,4.132a2.147,2.147,0,0,0,.5,2.74l4.584,3.724a16.943,16.943,0,0,0,0,6.469l-4.584,3.724a2.147,2.147,0,0,0-.5,2.74l2.385,4.132a2.144,2.144,0,0,0,2.625.932l5.521-2.108a16.777,16.777,0,0,0,5.6,3.236L42,127.653a2.146,2.146,0,0,0,2.12,1.808H48.89a2.146,2.146,0,0,0,2.12-1.808l.933-5.832a16.777,16.777,0,0,0,5.6-3.236l.339.129" transform="translate(-14.984 -69.05)" fill="none" stroke="#000" stroke-linecap="round" stroke-linejoin="round" stroke-miterlimit="10" stroke-width="1.2"/>
      <circle id="Elipse_13555" data-name="Elipse 13555" cx="11.475" cy="11.475" r="11.475" transform="translate(20.046 25.406)" fill="#dff6fd"/>
      <path id="Trazado_1056476" data-name="Trazado 1056476" d="M120.924,140.892a11.475,11.475,0,1,1,0-22.407,11.478,11.478,0,0,0,0,22.407Z" transform="translate(-86.911 -92.807)" fill="#c8effe"/>
      <circle id="Elipse_13556" data-name="Elipse 13556" cx="11.475" cy="11.475" r="11.475" transform="translate(20.046 25.406)" fill="none" stroke="#000" stroke-linecap="round" stroke-linejoin="round" stroke-miterlimit="10" stroke-width="1.2"/>
      <path id="Trazado_1056477" data-name="Trazado 1056477" d="M7.5,312.406a27.312,27.312,0,0,0,24.021,14.3" transform="translate(0 -262.504)" fill="none" stroke="#000" stroke-linecap="round" stroke-linejoin="round" stroke-miterlimit="10" stroke-width="1.2"/>
      <line id="Línea_1011" data-name="Línea 1011" y2="2.124" transform="translate(31.521 25.406)" fill="none" stroke="#000" stroke-linecap="round" stroke-linejoin="round" stroke-miterlimit="10" stroke-width="1.2"/>
      <line id="Línea_1012" data-name="Línea 1012" y2="2.124" transform="translate(31.521 46.232)" fill="none" stroke="#000" stroke-linecap="round" stroke-linejoin="round" stroke-miterlimit="10" stroke-width="1.2"/>
      <line id="Línea_1013" data-name="Línea 1013" x1="2.124" transform="translate(40.871 36.881)" fill="none" stroke="#000" stroke-linecap="round" stroke-linejoin="round" stroke-miterlimit="10" stroke-width="1.2"/>
      <line id="Línea_1014" data-name="Línea 1014" x1="2.124" transform="translate(20.046 36.881)" fill="none" stroke="#000" stroke-linecap="round" stroke-linejoin="round" stroke-miterlimit="10" stroke-width="1.2"/>
      <path id="Trazado_1056478" data-name="Trazado 1056478" d="M162.141,173.4l4.514,4.514,3.19-3.19" transform="translate(-135.134 -141.032)" fill="none" stroke="#000" stroke-linecap="round" stroke-linejoin="round" stroke-miterlimit="10" stroke-width="1.2"/>
      <path id="Trazado_1056479" data-name="Trazado 1056479" d="M291.155,270.063l-3.25-.438a11.172,11.172,0,0,0-1-2.4l1.989-2.609a1.521,1.521,0,0,0-.133-2l-1.546-1.546a1.521,1.521,0,0,0-2-.135l-2.61,1.99a10.97,10.97,0,0,0-2.4-1l-.437-3.251a1.522,1.522,0,0,0-1.508-1.318h-2.187a1.522,1.522,0,0,0-1.508,1.318l-.438,3.251a11.028,11.028,0,0,0-2.4,1l-2.608-1.99a1.521,1.521,0,0,0-2,.135l-1.546,1.546a1.521,1.521,0,0,0-.133,2l1.989,2.609a11.107,11.107,0,0,0-1,2.4l-3.25.438a1.521,1.521,0,0,0-1.319,1.508v2.186a1.521,1.521,0,0,0,1.319,1.508l3.25.438a11.1,11.1,0,0,0,1,2.4l-1.989,2.609a1.523,1.523,0,0,0,.133,2l1.546,1.545a1.521,1.521,0,0,0,2,.135l2.608-1.99a11.1,11.1,0,0,0,2.4,1l.438,3.25a1.522,1.522,0,0,0,1.508,1.318h2.187a1.522,1.522,0,0,0,1.508-1.318l.437-3.25a11.041,11.041,0,0,0,2.4-1l2.61,1.99a1.521,1.521,0,0,0,2-.135l1.546-1.545a1.523,1.523,0,0,0,.133-2l-1.989-2.609a11.183,11.183,0,0,0,1-2.4l3.25-.438a1.521,1.521,0,0,0,1.319-1.508v-2.186A1.52,1.52,0,0,0,291.155,270.063ZM277.17,278.6a5.937,5.937,0,1,1,5.938-5.936A5.937,5.937,0,0,1,277.17,278.6Z" transform="translate(-222.28 -214.402)" fill="#7a6d79"/>
      <path id="Trazado_1056480" data-name="Trazado 1056480" d="M268.276,295.265a13.767,13.767,0,0,1,4.613-10.3,11.048,11.048,0,0,0-1.155.562l-2.609-1.991a1.521,1.521,0,0,0-2,.134l-1.545,1.547a1.519,1.519,0,0,0-.133,2l1.988,2.609a11.087,11.087,0,0,0-1,2.4l-3.249.439a1.518,1.518,0,0,0-1.319,1.507v2.187a1.518,1.518,0,0,0,1.319,1.507l3.249.439a11.087,11.087,0,0,0,1,2.4l-1.988,2.609a1.521,1.521,0,0,0,.133,2l1.545,1.544a1.521,1.521,0,0,0,2,.136L271.734,305a11.067,11.067,0,0,0,1.155.562A13.768,13.768,0,0,1,268.276,295.265Z" transform="translate(-222.284 -237.004)" fill="#685e68"/>
      <path id="Trazado_1056481" data-name="Trazado 1056481" d="M291.155,270.059l-3.25-.438a11.084,11.084,0,0,0-1-2.4l1.99-2.609a1.522,1.522,0,0,0-.134-2l-1.546-1.546a1.522,1.522,0,0,0-2-.134l-2.609,1.99a11.085,11.085,0,0,0-2.4-1l-.438-3.25a1.522,1.522,0,0,0-1.508-1.319h-2.186a1.522,1.522,0,0,0-1.508,1.319l-.438,3.25a11.083,11.083,0,0,0-2.4,1l-2.609-1.99a1.522,1.522,0,0,0-2,.134l-1.546,1.546a1.522,1.522,0,0,0-.134,2l1.99,2.609a11.085,11.085,0,0,0-1,2.4l-3.25.438a1.522,1.522,0,0,0-1.319,1.508v2.186a1.522,1.522,0,0,0,1.319,1.508l3.25.438a11.078,11.078,0,0,0,1,2.4l-1.99,2.609a1.522,1.522,0,0,0,.134,2l1.546,1.546a1.522,1.522,0,0,0,2,.134l2.609-1.99a11.083,11.083,0,0,0,2.4,1l.438,3.25a1.522,1.522,0,0,0,1.508,1.319h2.186a1.522,1.522,0,0,0,1.508-1.319l.438-3.25a11.082,11.082,0,0,0,2.4-1l2.609,1.99a1.522,1.522,0,0,0,2-.134l1.546-1.546a1.522,1.522,0,0,0,.134-2l-1.99-2.609a11.084,11.084,0,0,0,1-2.4l3.25-.438a1.522,1.522,0,0,0,1.319-1.508v-2.186A1.522,1.522,0,0,0,291.155,270.059Z" transform="translate(-222.28 -214.399)" fill="none" stroke="#000" stroke-linecap="round" stroke-linejoin="round" stroke-miterlimit="10" stroke-width="1.2"/>
      <path id="Trazado_1056482" data-name="Trazado 1056482" d="M340.23,343.2a5.937,5.937,0,1,0-3.364-2.754" transform="translate(-287.158 -279.284)" fill="none" stroke="#000" stroke-linecap="round" stroke-linejoin="round" stroke-miterlimit="10" stroke-width="1.2"/>
      <path id="Trazado_1056483" data-name="Trazado 1056483" d="M399.862,148.493a2.01,2.01,0,0,1-1.624-.827l-4.448-6.107a2.01,2.01,0,0,1,3.249-2.367l2.475,3.4,3.585-7.4a2.01,2.01,0,1,1,3.618,1.752l-5.045,10.42a2.01,2.01,0,0,1-1.63,1.126C399.981,148.491,399.921,148.493,399.862,148.493Z" transform="translate(-337.225 -106.649)" fill="#86e8d0"/>
      <path id="Trazado_1056484" data-name="Trazado 1056484" d="M405.647,139.152l1.072-2.215a2.01,2.01,0,0,0-3.618-1.751l-3.585,7.4-2.475-3.4a2.01,2.01,0,0,0-3.25,2.366l4.448,6.108a2.008,2.008,0,0,0,1.625.826c.059,0,.119,0,.179-.008a2.011,2.011,0,0,0,1.63-1.126l2.075-4.286" transform="translate(-337.227 -106.647)" fill="none" stroke="#000" stroke-linecap="round" stroke-linejoin="round" stroke-miterlimit="10" stroke-width="1.2"/>
      <path id="Trazado_1056485" data-name="Trazado 1056485" d="M303.505,29.272A27.4,27.4,0,0,0,288.891,12.6" transform="translate(-245.895 -0.514)" fill="none" stroke="#000" stroke-linecap="round" stroke-linejoin="round" stroke-miterlimit="10" stroke-width="1.2"/>
      <path id="Trazado_1056486" data-name="Trazado 1056486" d="M19.861,383.028a31.388,31.388,0,0,0,13.126,8.05" transform="translate(-10.802 -324.217)" fill="none" stroke="#000" stroke-linecap="round" stroke-linejoin="round" stroke-miterlimit="10" stroke-width="1.2"/>
      <path id="Trazado_1056487" data-name="Trazado 1056487" d="M357.693,20.989a31.549,31.549,0,0,0-7.922-8.98" transform="translate(-299.095)" fill="none" stroke="#000" stroke-linecap="round" stroke-linejoin="round" stroke-miterlimit="10" stroke-width="1.2"/>
    </g>
  </g>
</svg>
