<svg xmlns="http://www.w3.org/2000/svg" xmlns:xlink="http://www.w3.org/1999/xlink" width="113" height="113" viewBox="0 0 113 113">
  <defs>
    <filter id="Trazado_982547" x="0" y="0" width="113" height="113" filterUnits="userSpaceOnUse">
      <feOffset dy="3" input="SourceAlpha"/>
      <feGaussianBlur stdDeviation="3" result="blur"/>
      <feFlood flood-opacity="0.161"/>
      <feComposite operator="in" in2="blur"/>
      <feComposite in="SourceGraphic"/>
    </filter>
  </defs>
  <g id="Grupo_1224648" data-name="Grupo 1224648" transform="translate(-271 -9333.793)">
    <g id="Grupo_1224453" data-name="Grupo 1224453" transform="translate(0 5557)">
      <g id="Grupo_1224220" data-name="Grupo 1224220" transform="translate(0 1822.041)">
        <g id="Grupo_1224091" data-name="Grupo 1224091" transform="translate(-84.49 -2620.317)">
          <g id="Grupo_1223183" data-name="Grupo 1223183" transform="translate(364.49 4581.069)">
            <g id="Grupo_1211217" data-name="Grupo 1211217" transform="translate(0)">
              <g id="Grupo_1210736" data-name="Grupo 1210736">
                <g id="Grupo_1210537" data-name="Grupo 1210537">
                  <g id="Grupo_1164202" data-name="Grupo 1164202">
                    <g id="Grupo_1158168" data-name="Grupo 1158168">
                      <g id="Grupo_1152576" data-name="Grupo 1152576">
                        <g id="Grupo_1148633" data-name="Grupo 1148633">
                          <g id="Grupo_1148525" data-name="Grupo 1148525">
                            <g transform="matrix(1, 0, 0, 1, -9, -6)" filter="url(#Trazado_982547)">
                              <g id="Trazado_982547-2" data-name="Trazado 982547" transform="translate(9 6)" fill="#fdfbec">
                                <path d="M 47.49999618530273 93.5 C 41.28936767578125 93.5 35.26533126831055 92.28396606445312 29.59518241882324 89.88570404052734 C 24.11771583557129 87.56893157958984 19.19812965393066 84.251953125 14.97308921813965 80.02690124511719 C 10.74803638458252 75.80186462402344 7.431062698364258 70.88227844238281 5.114289283752441 65.40480804443359 C 2.716022968292236 59.73466110229492 1.499996185302734 53.71062469482422 1.499996185302734 47.49999618530273 C 1.499996185302734 41.28936767578125 2.716022968292236 35.26533126831055 5.114289283752441 29.59518241882324 C 7.431062698364258 24.11771583557129 10.74803638458252 19.19812965393066 14.97308921813965 14.97308921813965 C 19.19812965393066 10.74803638458252 24.11771583557129 7.431062698364258 29.59518241882324 5.114289283752441 C 35.26533126831055 2.716022968292236 41.28936767578125 1.499996185302734 47.49999618530273 1.499996185302734 C 53.71062469482422 1.499996185302734 59.73466110229492 2.716022968292236 65.40480804443359 5.114289283752441 C 70.88227844238281 7.431062698364258 75.80186462402344 10.74803638458252 80.02690124511719 14.97308921813965 C 84.251953125 19.19812965393066 87.56893157958984 24.11771583557129 89.88570404052734 29.59518241882324 C 92.28396606445312 35.26533126831055 93.5 41.28936767578125 93.5 47.49999618530273 C 93.5 53.71062469482422 92.28396606445312 59.73466110229492 89.88570404052734 65.40480804443359 C 87.56893157958984 70.88227844238281 84.251953125 75.80186462402344 80.02690124511719 80.02690124511719 C 75.80186462402344 84.251953125 70.88227844238281 87.56893157958984 65.40480804443359 89.88570404052734 C 59.73466110229492 92.28396606445312 53.71062469482422 93.5 47.49999618530273 93.5 Z" stroke="none"/>
                                <path d="M 47.49999618530273 2.999992370605469 C 41.4912109375 2.999992370605469 35.66376495361328 4.1761474609375 30.17950439453125 6.495796203613281 C 24.88084411621094 8.736953735351562 20.12152099609375 11.94598388671875 16.03375244140625 16.03375244140625 C 11.94598388671875 20.12152099609375 8.736953735351562 24.88084411621094 6.495796203613281 30.17950439453125 C 4.1761474609375 35.66376495361328 2.999992370605469 41.4912109375 2.999992370605469 47.49999618530273 C 2.999992370605469 53.50878143310547 4.1761474609375 59.33622741699219 6.495796203613281 64.82048797607422 C 8.736953735351562 70.11914825439453 11.94598388671875 74.87847137451172 16.03375244140625 78.96623992919922 C 20.12152099609375 83.05400848388672 24.88084411621094 86.26304626464844 30.17950439453125 88.50419616699219 C 35.66376495361328 90.82384490966797 41.4912109375 92 47.49999618530273 92 C 53.50878143310547 92 59.33622741699219 90.82384490966797 64.82048797607422 88.50419616699219 C 70.11914825439453 86.26304626464844 74.87847137451172 83.05400848388672 78.96623992919922 78.96623992919922 C 83.05400848388672 74.87847137451172 86.26304626464844 70.11914825439453 88.50419616699219 64.82048797607422 C 90.82384490966797 59.33622741699219 92 53.50878143310547 92 47.49999618530273 C 92 41.4912109375 90.82384490966797 35.66376495361328 88.50419616699219 30.17950439453125 C 86.26304626464844 24.88084411621094 83.05400848388672 20.12152099609375 78.96623992919922 16.03375244140625 C 74.87847137451172 11.94598388671875 70.11914825439453 8.736953735351562 64.82048797607422 6.495796203613281 C 59.33622741699219 4.1761474609375 53.50878143310547 2.999992370605469 47.49999618530273 2.999992370605469 M 47.49999618530273 -7.62939453125e-06 C 73.7335205078125 -7.62939453125e-06 95 21.26647186279297 95 47.49999618530273 C 95 73.7335205078125 73.7335205078125 95 47.49999618530273 95 C 21.26647186279297 95 -7.62939453125e-06 73.7335205078125 -7.62939453125e-06 47.49999618530273 C -7.62939453125e-06 21.26647186279297 21.26647186279297 -7.62939453125e-06 47.49999618530273 -7.62939453125e-06 Z" stroke="none" fill="#83793c"/>
                              </g>
                            </g>
                          </g>
                        </g>
                      </g>
                    </g>
                  </g>
                </g>
              </g>
            </g>
          </g>
        </g>
      </g>
    </g>
    <g id="mediator_7018063" transform="translate(297.334 9355.127)">
      <g id="Grupo_1224646" data-name="Grupo 1224646" transform="translate(0.973 0.973)">
        <g id="Grupo_1224613" data-name="Grupo 1224613" transform="translate(14.596 34.058)">
          <path id="Trazado_1056594" data-name="Trazado 1056594" d="M134.812,292.865v6.246a3.911,3.911,0,0,0-.715-.321l-3.594-1.2-2.5-.834v-1.946a4.267,4.267,0,0,0,2.916-3.892h.977A2.92,2.92,0,0,0,134.812,288Z" transform="translate(-128 -288)" fill="#ef7385"/>
        </g>
        <g id="Grupo_1224614" data-name="Grupo 1224614" transform="translate(46.709 43.759)">
          <path id="Trazado_1056595" data-name="Trazado 1056595" d="M403.677,372.532v9.845H392v-7.785a8.544,8.544,0,0,0,5.746-6.842l2.366.788.9.3A3.89,3.89,0,0,1,403.677,372.532Z" transform="translate(-392 -367.75)" fill="#5cd6b3"/>
        </g>
        <g id="Grupo_1224615" data-name="Grupo 1224615" transform="translate(49.628 33.353)">
          <path id="Trazado_1056596" data-name="Trazado 1056596" d="M424.622,285.866a3.169,3.169,0,0,1-1.617,3.754l-.193.1a4.977,4.977,0,0,1-1.619,3.677l-2.366-.788L416,291.663v-1.946a4.271,4.271,0,0,0,2.916-3.892h.977a2.92,2.92,0,0,0,2.919-2.919,2.862,2.862,0,0,0-.072-.641l.276-.064a8.4,8.4,0,0,0,1.209,2.826A3.183,3.183,0,0,1,424.622,285.866Z" transform="translate(-416 -282.2)" fill="#b27946"/>
        </g>
        <g id="Grupo_1224616" data-name="Grupo 1224616" transform="translate(36.773 21.408)">
          <path id="Trazado_1056597" data-name="Trazado 1056597" d="M326.094,193.731v2.919a4.866,4.866,0,0,0-4.866-4.865h-.167a6.646,6.646,0,0,1-4.7-1.946,3.52,3.52,0,0,0-1.946,3.149v.743h-.973a2.919,2.919,0,0,0-2.848,2.278l-.276-.064a8.414,8.414,0,0,0,.2-1.843v-2.317a7.757,7.757,0,0,1,2.11-5.33h0A7.758,7.758,0,0,1,318.309,184H322.2a7.784,7.784,0,0,1,7.785,7.785V194.1a8.418,8.418,0,0,0,.2,1.843l-.276.064a2.918,2.918,0,0,0-2.848-2.278Z" transform="translate(-310.32 -184)" fill="#b27946"/>
        </g>
        <g id="Grupo_1224617" data-name="Grupo 1224617" transform="translate(52.544 31.139)">
          <path id="Trazado_1056598" data-name="Trazado 1056598" d="M443.794,266.278a2.862,2.862,0,0,1,.072.641,2.92,2.92,0,0,1-2.919,2.919h-.977c0-.052,0-.1,0-.158V264h.973a2.918,2.918,0,0,1,2.848,2.278Z" transform="translate(-439.97 -264)" fill="#f0d0b4"/>
        </g>
        <g id="Grupo_1224618" data-name="Grupo 1224618" transform="translate(40.87 27.247)">
          <path id="Trazado_1056599" data-name="Trazado 1056599" d="M355.677,238.812v2.761c0,.054,0,.106,0,.158a4.271,4.271,0,0,1-2.916,3.892v1.946l2.827.943a8.509,8.509,0,0,1-1.017,2.95h-9.459a8.51,8.51,0,0,1-1.017-2.95l2.827-.943v-1.946A4.271,4.271,0,0,1,344,241.731c0-.052,0-.1,0-.158v-6.424A3.52,3.52,0,0,1,345.946,232a6.646,6.646,0,0,0,4.7,1.946h.167A4.866,4.866,0,0,1,355.677,238.812Z" transform="translate(-344 -232)" fill="#f0d0b4"/>
        </g>
        <g id="Grupo_1224619" data-name="Grupo 1224619" transform="translate(41.979 46.709)">
          <path id="Trazado_1056600" data-name="Trazado 1056600" d="M353.12,392h9.459a8.538,8.538,0,0,1-4.729,3.892A8.536,8.536,0,0,1,353.12,392Z" transform="translate(-353.12 -392)" fill="#ffeaa7"/>
        </g>
        <g id="Grupo_1224620" data-name="Grupo 1224620" transform="translate(35.032 43.759)">
          <path id="Trazado_1056601" data-name="Trazado 1056601" d="M307.677,374.592v7.785H296v-9.845a3.89,3.89,0,0,1,2.661-3.692l.9-.3,2.366-.788a8.545,8.545,0,0,0,5.746,6.842Z" transform="translate(-296 -367.75)" fill="#5cd6b3"/>
        </g>
        <g id="Grupo_1224621" data-name="Grupo 1224621" transform="translate(35.032 33.353)">
          <path id="Trazado_1056602" data-name="Trazado 1056602" d="M304.758,289.717v1.946l-2.827.943-2.366.788a4.981,4.981,0,0,1-1.619-3.677l-.193-.1a3.171,3.171,0,0,1-1.22-4.594,8.368,8.368,0,0,0,1.052-2.23q.089-.3.157-.6l.276.065a2.858,2.858,0,0,0-.072.641,2.92,2.92,0,0,0,2.919,2.919h.977a4.271,4.271,0,0,0,2.916,3.892Z" transform="translate(-296 -282.2)" fill="#b27946"/>
        </g>
        <g id="Grupo_1224622" data-name="Grupo 1224622" transform="translate(36.978 31.139)">
          <path id="Trazado_1056603" data-name="Trazado 1056603" d="M315.892,269.68c0,.053,0,.106,0,.158h-.977A2.92,2.92,0,0,1,312,266.919a2.86,2.86,0,0,1,.072-.641A2.919,2.919,0,0,1,314.919,264h.973Z" transform="translate(-312 -264)" fill="#f0d0b4"/>
        </g>
        <g id="Grupo_1224623" data-name="Grupo 1224623" transform="translate(32.112 12.649)">
          <path id="Trazado_1056604" data-name="Trazado 1056604" d="M278.812,111.99v3.519a7.746,7.746,0,0,1-3.368,6.388l-.941-.314-2.5-.834V118.8a4.267,4.267,0,0,0,2.916-3.892h.977a2.92,2.92,0,0,0,2.919-2.921Z" transform="translate(-272 -111.99)" fill="#656d78"/>
        </g>
        <g id="Grupo_1224624" data-name="Grupo 1224624" transform="translate(19.462)">
          <path id="Trazado_1056605" data-name="Trazado 1056605" d="M187.462,15.785v4.864a2.919,2.919,0,0,0-2.919-2.918h-2.114a6.642,6.642,0,0,1-4.7-1.945h0a6.646,6.646,0,0,1-4.7,1.946h-2.114A2.92,2.92,0,0,0,168,20.65V15.785A7.784,7.784,0,0,1,175.785,8h3.892a7.784,7.784,0,0,1,7.785,7.785Z" transform="translate(-168 -8)" fill="#656d78"/>
        </g>
        <g id="Grupo_1224625" data-name="Grupo 1224625" transform="translate(21.408 38.924)">
          <path id="Trazado_1056606" data-name="Trazado 1056606" d="M191.785,347.462h-5.839v-9.845A3.892,3.892,0,0,0,184,334.246V328h4.865l2.919,3.892L194.7,328h3.076a3.175,3.175,0,0,0,1.6,1.849l.193.1a4.981,4.981,0,0,0,1.619,3.677l-.9.3a3.89,3.89,0,0,0-2.661,3.692v9.845Z" transform="translate(-184 -328)" fill="#969faa"/>
        </g>
        <g id="Grupo_1224626" data-name="Grupo 1224626" transform="translate(30.166 22.243)">
          <path id="Trazado_1056607" data-name="Trazado 1056607" d="M264.043,192.058a3.834,3.834,0,0,1,.879.422,7.757,7.757,0,0,0-2.11,5.33v2.317a8.418,8.418,0,0,1-.2,1.843c-.045.2-.1.4-.157.6a8.369,8.369,0,0,1-1.052,2.23,3.173,3.173,0,0,0-.376,2.745h-3.076L256,195.864l.778-1.557,1.168,1.557,2.5-5,.942.314Z" transform="translate(-256 -190.86)" fill="#ef7385"/>
        </g>
        <g id="Grupo_1224627" data-name="Grupo 1224627" transform="translate(35.028 9.731)">
          <path id="Trazado_1056608" data-name="Trazado 1056608" d="M299.866,90.918a2.92,2.92,0,0,1-2.919,2.921h-.977c0-.052,0-.1,0-.158V88h.973A2.919,2.919,0,0,1,299.866,90.918Z" transform="translate(-295.97 -88)" fill="#f0d0b4"/>
        </g>
        <g id="Grupo_1224628" data-name="Grupo 1224628" transform="translate(23.354 7.785)">
          <path id="Trazado_1056609" data-name="Trazado 1056609" d="M211.677,73.946v5.68c0,.054,0,.106,0,.158a4.267,4.267,0,0,1-2.916,3.892v1.946l-2.919,1.946-2.919-1.946V83.677A4.267,4.267,0,0,1,200,79.785c0-.052,0-.1,0-.158v-5.68h1.141a6.646,6.646,0,0,0,4.7-1.946h0a6.642,6.642,0,0,0,4.7,1.945Z" transform="translate(-200 -72)" fill="#f0d0b4"/>
        </g>
        <g id="Grupo_1224629" data-name="Grupo 1224629" transform="translate(29.193 21.408)">
          <path id="Trazado_1056610" data-name="Trazado 1056610" d="M253.421,184.834l-2.5,5-1.168-1.557L248,185.946,250.919,184Z" transform="translate(-248 -184)" fill="#ed5565"/>
        </g>
        <g id="Grupo_1224630" data-name="Grupo 1224630" transform="translate(26.274 27.247)">
          <path id="Trazado_1056611" data-name="Trazado 1056611" d="M227.892,232l1.946,11.677-2.919,3.892L224,243.677,225.946,232Z" transform="translate(-224 -232)" fill="#e6e9ed"/>
        </g>
        <g id="Grupo_1224631" data-name="Grupo 1224631" transform="translate(27.441 23.354)">
          <path id="Trazado_1056612" data-name="Trazado 1056612" d="M235.352,200l1.752,2.335-.778,1.557h-1.946l-.778-1.557Z" transform="translate(-233.6 -200)" fill="#ccd1d9"/>
        </g>
        <g id="Grupo_1224632" data-name="Grupo 1224632" transform="translate(23.772 21.408)">
          <path id="Trazado_1056613" data-name="Trazado 1056613" d="M208.851,185.946l-1.752,2.335-1.168,1.557-2.5-5,2.5-.834Z" transform="translate(-203.43 -184)" fill="#ed5565"/>
        </g>
        <g id="Grupo_1224633" data-name="Grupo 1224633" transform="translate(19.298 22.243)">
          <path id="Trazado_1056614" data-name="Trazado 1056614" d="M174.794,194.307l.778,1.557-1.946,11.677H168.76V197.81a7.757,7.757,0,0,0-2.11-5.33,3.836,3.836,0,0,1,.879-.422l2.653-.884.941-.314,2.5,5Z" transform="translate(-166.65 -190.86)" fill="#ef7385"/>
        </g>
        <g id="Grupo_1224634" data-name="Grupo 1224634" transform="translate(19.462 12.65)">
          <path id="Trazado_1056615" data-name="Trazado 1056615" d="M174.812,118.812v1.946l-2.5.834-.941.314A7.746,7.746,0,0,1,168,115.518V112a2.92,2.92,0,0,0,2.919,2.919h.977A4.267,4.267,0,0,0,174.812,118.812Z" transform="translate(-168 -112)" fill="#656d78"/>
        </g>
        <g id="Grupo_1224635" data-name="Grupo 1224635" transform="translate(19.462 9.731)">
          <path id="Trazado_1056616" data-name="Trazado 1056616" d="M171.892,93.68c0,.054,0,.106,0,.158h-.977a2.919,2.919,0,0,1,0-5.839h.973Z" transform="translate(-168 -88)" fill="#f0d0b4"/>
        </g>
        <g id="Grupo_1224636" data-name="Grupo 1224636" transform="translate(12.65 43.651)">
          <path id="Trazado_1056617" data-name="Trazado 1056617" d="M122.7,371.75V381.6h-8.758L112,371.864l.778-1.557,1.168,1.557,2.5-5,3.594,1.2a3.888,3.888,0,0,1,2.661,3.692Z" transform="translate(-112 -366.86)" fill="#fcd770"/>
        </g>
        <g id="Grupo_1224637" data-name="Grupo 1224637" transform="translate(1.946 21.408)">
          <path id="Trazado_1056618" data-name="Trazado 1056618" d="M43.462,191.785v4.865a2.92,2.92,0,0,0-2.919-2.919H39.57l-.371.741a2.18,2.18,0,0,1-4.019-.286l-.951-2.856a2.181,2.181,0,0,0-4.019-.286l-.371.741a1.944,1.944,0,0,0-1.946,1.946h-.973A2.92,2.92,0,0,0,24,196.65v-6.812a3.893,3.893,0,0,1,3.892-3.892,6.646,6.646,0,0,1,4.7-1.946h3.086a7.758,7.758,0,0,1,5.673,2.455h0a7.757,7.757,0,0,1,2.11,5.33Z" transform="translate(-24 -184)" fill="#b27946"/>
        </g>
        <g id="Grupo_1224638" data-name="Grupo 1224638" transform="translate(17.512 31.139)">
          <path id="Trazado_1056619" data-name="Trazado 1056619" d="M155.011,264.855a2.919,2.919,0,0,1-2.064,4.983h-.977c0-.052,0-.1,0-.158V264h.973A2.915,2.915,0,0,1,155.011,264.855Z" transform="translate(-151.97 -264)" fill="#f0d0b4"/>
        </g>
        <g id="Grupo_1224639" data-name="Grupo 1224639" transform="translate(5.839 27.247)">
          <path id="Trazado_1056620" data-name="Trazado 1056620" d="M67.677,235.892v5.68c0,.054,0,.106,0,.158a4.267,4.267,0,0,1-2.916,3.892v1.946l-2.919,1.946-2.919-1.946v-1.946A4.267,4.267,0,0,1,56,241.731c0-.052,0-.1,0-.158v-5.68a1.944,1.944,0,0,1,1.946-1.946l.371-.741a2.18,2.18,0,0,1,4.019.286l.951,2.856a2.18,2.18,0,0,0,4.019.286Z" transform="translate(-56 -232)" fill="#f0d0b4"/>
        </g>
        <g id="Grupo_1224640" data-name="Grupo 1224640" transform="translate(11.677 42.816)">
          <path id="Trazado_1056621" data-name="Trazado 1056621" d="M109.421,360.834l-2.5,5-1.168-1.557L104,361.946,106.919,360Z" transform="translate(-104 -360)" fill="#ffc729"/>
        </g>
        <g id="Grupo_1224641" data-name="Grupo 1224641" transform="translate(8.758 48.655)">
          <path id="Trazado_1056622" data-name="Trazado 1056622" d="M83.892,408l1.946,9.731H80L81.946,408Z" transform="translate(-80 -408)" fill="#ef7385"/>
        </g>
        <g id="Grupo_1224642" data-name="Grupo 1224642" transform="translate(9.926 44.763)">
          <path id="Trazado_1056623" data-name="Trazado 1056623" d="M91.352,376l1.752,2.335-.778,1.557H90.378l-.778-1.557Z" transform="translate(-89.6 -376)" fill="#ed5565"/>
        </g>
        <g id="Grupo_1224643" data-name="Grupo 1224643" transform="translate(6.256 42.816)">
          <path id="Trazado_1056624" data-name="Trazado 1056624" d="M64.851,361.946,63.1,364.282l-1.168,1.557-2.5-5,2.5-.834Z" transform="translate(-59.43 -360)" fill="#ffc729"/>
        </g>
        <g id="Grupo_1224644" data-name="Grupo 1224644" transform="translate(0 43.651)">
          <path id="Trazado_1056625" data-name="Trazado 1056625" d="M17.926,370.307l.778,1.557L16.758,381.6H8V371.75a3.89,3.89,0,0,1,2.661-3.692l3.594-1.2,2.5,5Z" transform="translate(-8 -366.86)" fill="#fcd770"/>
        </g>
        <g id="Grupo_1224645" data-name="Grupo 1224645" transform="translate(1.946 31.139)">
          <path id="Trazado_1056626" data-name="Trazado 1056626" d="M27.892,269.68c0,.053,0,.106,0,.158h-.977a2.919,2.919,0,1,1,0-5.839h.973Z" transform="translate(-24 -264)" fill="#f0d0b4"/>
        </g>
      </g>
      <g id="Grupo_1224647" data-name="Grupo 1224647" transform="translate(0 0)">
        <path id="Trazado_1056627" data-name="Trazado 1056627" d="M60.332,38.911a4.13,4.13,0,0,0-.7-2.3,7.422,7.422,0,0,1-1.25-4.129V30.166a8.768,8.768,0,0,0-8.758-8.758H45.736a8.722,8.722,0,0,0-5.842,2.24c-.133-.058-.267-.112-.4-.158l-1.022-.341a8.708,8.708,0,0,0,2.4-6.009V8.758A8.768,8.768,0,0,0,32.112,0H28.22a8.768,8.768,0,0,0-8.758,8.758v8.383a8.708,8.708,0,0,0,2.4,6.009l-1.022.341c-.138.046-.272.1-.4.158a8.722,8.722,0,0,0-5.842-2.24H11.51a7.563,7.563,0,0,0-5.1,1.963A4.872,4.872,0,0,0,1.946,28.22v6.812a3.9,3.9,0,0,0,3.892,3.892h.123a5.234,5.234,0,0,0,2.8,3.569v.595L3.327,44.9A4.859,4.859,0,0,0,0,49.514V60.332H60.332V49.514a4.858,4.858,0,0,0-2.9-4.448,5.98,5.98,0,0,0,.919-2.623,4.118,4.118,0,0,0,1.977-3.532Zm-14.6-15.556h3.892a6.819,6.819,0,0,1,6.812,6.812v1.5a3.868,3.868,0,0,0-1.946-.524V29.423A4.469,4.469,0,0,0,52.009,25.4l-.87,1.741a2.534,2.534,0,0,1,1.408,2.279v1.262a5.815,5.815,0,0,0-3.892-1.491h-.167a5.635,5.635,0,0,1-4.011-1.661l-.5-.5-.627.314a4.465,4.465,0,0,0-2.476,3.79H40.87a3.868,3.868,0,0,0-1.946.524v-1.5A6.819,6.819,0,0,1,45.736,23.354ZM52.3,45.383a7.564,7.564,0,0,1-.478,1.326H43.538a7.568,7.568,0,0,1-.478-1.326l2.676-.892V41.142l-.665-.222a3.292,3.292,0,0,1-2.254-3.127V31.369a2.532,2.532,0,0,1,.878-1.926,7.561,7.561,0,0,0,4.794,1.7h.167a3.9,3.9,0,0,1,3.892,3.892v2.761a3.292,3.292,0,0,1-2.254,3.127l-.665.222v3.349ZM31.139,50.434a2.924,2.924,0,0,0,1.946-2.752v-.973H31.139v.973a.973.973,0,0,1-1.946,0v-.973H27.247v.973a2.924,2.924,0,0,0,1.946,2.752v7.952H25.3V49.514a4.859,4.859,0,0,0-1.946-3.893V40.87H26.76l3.406,4.541,3.406-4.541h1.95a4.118,4.118,0,0,0,1.487,1.573,5.979,5.979,0,0,0,.919,2.623,4.858,4.858,0,0,0-2.9,4.448v8.872H31.139ZM15.713,44.863l.986.329-1.3,2.593-1.357-1.81ZM23.354,15.57a1.946,1.946,0,1,1,0-3.892ZM25.3,11.677h.168a7.558,7.558,0,0,0,4.7-1.62,7.557,7.557,0,0,0,4.7,1.62h.168v4.708a3.292,3.292,0,0,1-2.254,3.127l-.665.222v2.127l-1.946,1.3-1.946-1.3V19.734l-.665-.222A3.292,3.292,0,0,1,25.3,16.385Zm11.677,0a1.946,1.946,0,0,1,0,3.892ZM39.848,44.4a4.023,4.023,0,0,1-.924-2.559v-.6l-.732-.366a2.2,2.2,0,0,1-.846-3.184c.105-.158.2-.319.3-.482a3.892,3.892,0,0,0,3.224,1.714h.123a5.234,5.234,0,0,0,2.8,3.569v.6Zm1.022-7.424a1.946,1.946,0,1,1,0-3.892Zm-3.892-6.812v2.317a7.422,7.422,0,0,1-1.25,4.129,4.13,4.13,0,0,0-.7,2.3s0,.009,0,.013H33.91L32.2,28.66l1.052,1.4,2.829-5.658,2.435.812a8.708,8.708,0,0,0-1.537,4.949Zm-7.183-2.919-.241-.481.612-.816.612.816-.24.481Zm.223,1.946h.3l1.742,10.453-1.891,2.521-1.891-2.521Zm2.9-2.817-1.357-1.81,1.667-1.112.986.329ZM27.1,23.455l1.667,1.112-1.357,1.81-1.3-2.593Zm-2.851.95,2.829,5.658,1.052-1.4-1.71,10.264H23.354V30.166a8.707,8.707,0,0,0-1.537-4.949Zm-4.79,8.68a1.946,1.946,0,1,1,0,3.892Zm-.123,5.839h.123a3.868,3.868,0,0,0,1.946-.524v6.31l-4.865-1.622v-.595A5.234,5.234,0,0,0,19.339,38.924Zm-7.06,9.731-.241-.481.612-.816.612.816-.24.481Zm.2,1.946h.351l1.557,7.785H10.918Zm2.236-.5,1.025,1.366,2.829-5.658,2.793.931a2.916,2.916,0,0,1,2,2.77v8.872H16.368Zm22.266-.591a2.916,2.916,0,0,1,2-2.77L41.211,46a9.45,9.45,0,0,0,5.5,6.249v6.138H36.978V49.514Zm10.7,1.027a7.554,7.554,0,0,1-2.821-1.886H50.5A7.554,7.554,0,0,1,47.682,50.541Zm6.812-17.456a1.946,1.946,0,1,1,0,3.892ZM36.357,22.446l-2.3-.766v-.6a5.234,5.234,0,0,0,2.8-3.569h.123A3.869,3.869,0,0,0,38.924,17v.146a6.762,6.762,0,0,1-2.567,5.3ZM28.22,1.946h3.892a6.819,6.819,0,0,1,6.812,6.812v1.5a3.866,3.866,0,0,0-1.946-.524H34.863A5.631,5.631,0,0,1,30.854,8.07l-.689-.687-.688.688a5.709,5.709,0,0,1-4.009,1.661H23.354a3.868,3.868,0,0,0-1.946.524v-1.5A6.819,6.819,0,0,1,28.22,1.946ZM21.408,17.141v-.149a3.868,3.868,0,0,0,1.946.524h.123a5.234,5.234,0,0,0,2.8,3.569v.6l-2.3.766A6.762,6.762,0,0,1,21.408,17.141ZM3.892,35.032a1.948,1.948,0,0,1,1.946-1.946v3.892A1.948,1.948,0,0,1,3.892,35.032Zm2.114-3.892H5.839a3.868,3.868,0,0,0-1.946.524V28.22A2.923,2.923,0,0,1,6.812,25.3h.4l.285-.285a5.635,5.635,0,0,1,4.011-1.661H14.6a6.819,6.819,0,0,1,6.812,6.812v1.5a3.868,3.868,0,0,0-1.946-.524H17.888l-.639,1.279a1.207,1.207,0,0,1-2.225-.158L14.071,29.4a3.154,3.154,0,0,0-5.813-.413l-.136.273a2.93,2.93,0,0,0-2.116,1.876Zm1.779,6.654V32.112a.974.974,0,0,1,.973-.973h.6L10,29.86a1.207,1.207,0,0,1,2.225.158l.952,2.857a3.157,3.157,0,0,0,4.34,1.855v3.063a3.292,3.292,0,0,1-2.254,3.127l-.665.222v2.127l-1.946,1.3-1.946-1.3V41.142l-.665-.222a3.292,3.292,0,0,1-2.254-3.127Zm1.8,7.07,1.667,1.112L9.9,47.784,8.6,45.192ZM1.946,49.514a2.916,2.916,0,0,1,2-2.77l2.793-.931,2.829,5.658,1.025-1.366-1.656,8.28H1.946Zm56.44,0v8.872H48.655V52.248A9.45,9.45,0,0,0,54.153,46l2.237.746A2.916,2.916,0,0,1,58.386,49.514Zm-1.215-8.638-.732.366v.6a4.023,4.023,0,0,1-.924,2.559l-3.942-1.314v-.595a5.234,5.234,0,0,0,2.8-3.569h.123a3.892,3.892,0,0,0,3.224-1.714c.095.163.194.324.3.482a2.2,2.2,0,0,1-.846,3.184Z" transform="translate(0 0)"/>
        <path id="Trazado_1056628" data-name="Trazado 1056628" d="M11.962,90.128,13.338,91.5l4.58-4.58-4.58-4.58-1.376,1.376,2.231,2.231H0V87.9H14.193Z" transform="translate(0 -72.327)"/>
        <path id="Trazado_1056629" data-name="Trazado 1056629" d="M352.412,85.95l2.231-2.231-1.376-1.376-4.58,4.58,4.58,4.581,1.376-1.376L352.412,87.9h14.193V85.95Z" transform="translate(-306.274 -72.327)"/>
      </g>
    </g>
  </g>
</svg>
