<svg xmlns="http://www.w3.org/2000/svg" xmlns:xlink="http://www.w3.org/1999/xlink" width="113" height="113" viewBox="0 0 113 113">
  <defs>
    <filter id="Trazado_982547" x="0" y="0" width="113" height="113" filterUnits="userSpaceOnUse">
      <feOffset dy="3" input="SourceAlpha"/>
      <feGaussianBlur stdDeviation="3" result="blur"/>
      <feFlood flood-opacity="0.161"/>
      <feComposite operator="in" in2="blur"/>
      <feComposite in="SourceGraphic"/>
    </filter>
  </defs>
  <g id="Grupo_1224683" data-name="Grupo 1224683" transform="translate(-585.509 -9333.793)">
    <g id="Grupo_1224458" data-name="Grupo 1224458" transform="translate(0 5557)">
      <g id="Grupo_1224222" data-name="Grupo 1224222" transform="translate(0 1822.041)">
        <g id="Grupo_1224092" data-name="Grupo 1224092" transform="translate(-88.49 -2620.317)">
          <g id="Grupo_1223184" data-name="Grupo 1223184" transform="translate(683 4581.069)">
            <g id="Grupo_1211216" data-name="Grupo 1211216" transform="translate(0)">
              <g id="Grupo_1210737" data-name="Grupo 1210737">
                <g id="Grupo_1210537" data-name="Grupo 1210537">
                  <g id="Grupo_1164202" data-name="Grupo 1164202">
                    <g id="Grupo_1158168" data-name="Grupo 1158168">
                      <g id="Grupo_1152576" data-name="Grupo 1152576">
                        <g id="Grupo_1148633" data-name="Grupo 1148633">
                          <g id="Grupo_1148525" data-name="Grupo 1148525">
                            <g transform="matrix(1, 0, 0, 1, -9, -6)" filter="url(#Trazado_982547)">
                              <g id="Trazado_982547-2" data-name="Trazado 982547" transform="translate(9 6)" fill="#fdfbec">
                                <path d="M 47.49999618530273 93.5 C 41.28936767578125 93.5 35.26533126831055 92.28396606445312 29.59518241882324 89.88570404052734 C 24.11771583557129 87.56893157958984 19.19812965393066 84.251953125 14.97308921813965 80.02690124511719 C 10.74803638458252 75.80186462402344 7.431062698364258 70.88227844238281 5.114289283752441 65.40480804443359 C 2.716022968292236 59.73466110229492 1.499996185302734 53.71062469482422 1.499996185302734 47.49999618530273 C 1.499996185302734 41.28936767578125 2.716022968292236 35.26533126831055 5.114289283752441 29.59518241882324 C 7.431062698364258 24.11771583557129 10.74803638458252 19.19812965393066 14.97308921813965 14.97308921813965 C 19.19812965393066 10.74803638458252 24.11771583557129 7.431062698364258 29.59518241882324 5.114289283752441 C 35.26533126831055 2.716022968292236 41.28936767578125 1.499996185302734 47.49999618530273 1.499996185302734 C 53.71062469482422 1.499996185302734 59.73466110229492 2.716022968292236 65.40480804443359 5.114289283752441 C 70.88227844238281 7.431062698364258 75.80186462402344 10.74803638458252 80.02690124511719 14.97308921813965 C 84.251953125 19.19812965393066 87.56893157958984 24.11771583557129 89.88570404052734 29.59518241882324 C 92.28396606445312 35.26533126831055 93.5 41.28936767578125 93.5 47.49999618530273 C 93.5 53.71062469482422 92.28396606445312 59.73466110229492 89.88570404052734 65.40480804443359 C 87.56893157958984 70.88227844238281 84.251953125 75.80186462402344 80.02690124511719 80.02690124511719 C 75.80186462402344 84.251953125 70.88227844238281 87.56893157958984 65.40480804443359 89.88570404052734 C 59.73466110229492 92.28396606445312 53.71062469482422 93.5 47.49999618530273 93.5 Z" stroke="none"/>
                                <path d="M 47.49999618530273 2.999992370605469 C 41.4912109375 2.999992370605469 35.66376495361328 4.1761474609375 30.17950439453125 6.495796203613281 C 24.88084411621094 8.736953735351562 20.12152099609375 11.94598388671875 16.03375244140625 16.03375244140625 C 11.94598388671875 20.12152099609375 8.736953735351562 24.88084411621094 6.495796203613281 30.17950439453125 C 4.1761474609375 35.66376495361328 2.999992370605469 41.4912109375 2.999992370605469 47.49999618530273 C 2.999992370605469 53.50878143310547 4.1761474609375 59.33622741699219 6.495796203613281 64.82048797607422 C 8.736953735351562 70.11914825439453 11.94598388671875 74.87847137451172 16.03375244140625 78.96623992919922 C 20.12152099609375 83.05400848388672 24.88084411621094 86.26304626464844 30.17950439453125 88.50419616699219 C 35.66376495361328 90.82384490966797 41.4912109375 92 47.49999618530273 92 C 53.50878143310547 92 59.33622741699219 90.82384490966797 64.82048797607422 88.50419616699219 C 70.11914825439453 86.26304626464844 74.87847137451172 83.05400848388672 78.96623992919922 78.96623992919922 C 83.05400848388672 74.87847137451172 86.26304626464844 70.11914825439453 88.50419616699219 64.82048797607422 C 90.82384490966797 59.33622741699219 92 53.50878143310547 92 47.49999618530273 C 92 41.4912109375 90.82384490966797 35.66376495361328 88.50419616699219 30.17950439453125 C 86.26304626464844 24.88084411621094 83.05400848388672 20.12152099609375 78.96623992919922 16.03375244140625 C 74.87847137451172 11.94598388671875 70.11914825439453 8.736953735351562 64.82048797607422 6.495796203613281 C 59.33622741699219 4.1761474609375 53.50878143310547 2.999992370605469 47.49999618530273 2.999992370605469 M 47.49999618530273 -7.62939453125e-06 C 73.7335205078125 -7.62939453125e-06 95 21.26647186279297 95 47.49999618530273 C 95 73.7335205078125 73.7335205078125 95 47.49999618530273 95 C 21.26647186279297 95 -7.62939453125e-06 73.7335205078125 -7.62939453125e-06 47.49999618530273 C -7.62939453125e-06 21.26647186279297 21.26647186279297 -7.62939453125e-06 47.49999618530273 -7.62939453125e-06 Z" stroke="none" fill="#83793c"/>
                              </g>
                            </g>
                          </g>
                        </g>
                      </g>
                    </g>
                  </g>
                </g>
              </g>
            </g>
          </g>
        </g>
      </g>
    </g>
    <g id="brochure_3881290" transform="translate(608.397 9357.389)">
      <g id="Grupo_1224664" data-name="Grupo 1224664" transform="translate(1.049 1.049)">
        <g id="Grupo_1224649" data-name="Grupo 1224649" transform="translate(33.573)">
          <path id="Trazado_1056630" data-name="Trazado 1056630" d="M54.854,2.228a4.2,4.2,0,0,1-2.969,7.166H33V1H51.885A4.223,4.223,0,0,1,54.854,2.228Z" transform="translate(-33 -1)" fill="#f0d0b4"/>
        </g>
        <g id="Grupo_1224650" data-name="Grupo 1224650" transform="translate(0 4.197)">
          <path id="Trazado_1056631" data-name="Trazado 1056631" d="M53.458,9.2H1V40.671H11.492V51.163H45.065V35.772a2.155,2.155,0,0,1-2.235-.514l-.745-.745a2.171,2.171,0,0,1-.64-1.532,2.206,2.206,0,0,1,.241-.986,2.131,2.131,0,0,0,.063-1.8l-.157-.378a2.146,2.146,0,0,0-1.322-1.238,2.187,2.187,0,0,1-1.5-2.067V25.459a2.187,2.187,0,0,1,1.5-2.067,2.146,2.146,0,0,0,1.322-1.238l.157-.378a2.055,2.055,0,0,0,.168-.829,2.119,2.119,0,0,0-.231-.976,2.167,2.167,0,0,1,.4-2.518l.745-.745a2.171,2.171,0,0,1,1.532-.64,2.206,2.206,0,0,1,.986.241,2.131,2.131,0,0,0,1.8.063l.378-.157a2.146,2.146,0,0,0,1.238-1.322,2.187,2.187,0,0,1,2.067-1.5h1.049a2.187,2.187,0,0,1,2.067,1.5,2.146,2.146,0,0,0,1.238,1.322l.378.157a2.055,2.055,0,0,0,.829.168,2.119,2.119,0,0,0,.976-.231c.094-.042.189-.084.283-.115V5a4.2,4.2,0,0,1-4.2,4.2Z" transform="translate(-1 -5)" fill="#e6e9ed"/>
        </g>
        <g id="Grupo_1224651" data-name="Grupo 1224651" transform="translate(30.426 43.016)">
          <path id="Trazado_1056632" data-name="Trazado 1056632" d="M37.344,42v7.344H30Z" transform="translate(-30 -42)" fill="#b4dd7f"/>
        </g>
        <g id="Grupo_1224652" data-name="Grupo 1224652" transform="translate(18.885 8.393)">
          <path id="Trazado_1056633" data-name="Trazado 1056633" d="M26.344,9,19,16.344V9Z" transform="translate(-19 -9)" fill="#b4dd7f"/>
        </g>
        <g id="Grupo_1224653" data-name="Grupo 1224653" transform="translate(23.081 20.983)">
          <path id="Trazado_1056634" data-name="Trazado 1056634" d="M23,21H33.492v4.2H23Z" transform="translate(-23 -21)" fill="#ff826e"/>
        </g>
        <g id="Grupo_1224654" data-name="Grupo 1224654" transform="translate(52.458 41.966)">
          <path id="Trazado_1056635" data-name="Trazado 1056635" d="M51,41h4.2V53.59H51Z" transform="translate(-51 -41)" fill="#b4dd7f"/>
        </g>
        <g id="Grupo_1224655" data-name="Grupo 1224655" transform="translate(44.065 41.966)">
          <path id="Trazado_1056636" data-name="Trazado 1056636" d="M47.2,41V53.59H43V41Z" transform="translate(-43 -41)" fill="#b4dd7f"/>
        </g>
        <g id="Grupo_1224656" data-name="Grupo 1224656" transform="translate(48.261 41.966)">
          <path id="Trazado_1056637" data-name="Trazado 1056637" d="M47,41h4.2V53.59H47Z" transform="translate(-47 -41)" fill="#ff826e"/>
        </g>
        <g id="Grupo_1224657" data-name="Grupo 1224657" transform="translate(44.065 34.619)">
          <path id="Trazado_1056638" data-name="Trazado 1056638" d="M55.307,34.231l.283.115v7H43v-7c.094-.031.189-.073.283-.115A2.119,2.119,0,0,1,44.259,34a2.055,2.055,0,0,1,.829.168l.378.157A2.146,2.146,0,0,1,46.7,35.647a2.187,2.187,0,0,0,2.067,1.5H49.82a2.187,2.187,0,0,0,2.067-1.5,2.146,2.146,0,0,1,1.238-1.322l.378-.157a2.131,2.131,0,0,1,1.8.063Z" transform="translate(-43 -33.997)" fill="#aab2bd"/>
        </g>
        <g id="Grupo_1224658" data-name="Grupo 1224658" transform="translate(44.065 54.556)">
          <path id="Trazado_1056639" data-name="Trazado 1056639" d="M55.59,53,50.9,60.5a1.891,1.891,0,0,1-3.21,0L43,53H55.59Z" transform="translate(-43 -53)" fill="#aab2bd"/>
        </g>
        <g id="Grupo_1224659" data-name="Grupo 1224659" transform="translate(37.77 12.59)">
          <path id="Trazado_1056640" data-name="Trazado 1056640" d="M62.18,25.065v1.049a2.187,2.187,0,0,1-1.5,2.067,2.146,2.146,0,0,0-1.322,1.238L59.2,29.8a2.055,2.055,0,0,0-.168.829,2.119,2.119,0,0,0,.231.976,2.167,2.167,0,0,1-.4,2.518l-.745.745a2.171,2.171,0,0,1-1.532.64,2.028,2.028,0,0,1-.7-.126l-.283-.115a2.131,2.131,0,0,0-1.8-.063l-.378.157a2.146,2.146,0,0,0-1.238,1.322,2.187,2.187,0,0,1-2.067,1.5H49.065A2.187,2.187,0,0,1,47,36.68a2.146,2.146,0,0,0-1.238-1.322l-.378-.157a2.055,2.055,0,0,0-.829-.168,2.119,2.119,0,0,0-.976.231c-.094.042-.189.084-.283.115a2.155,2.155,0,0,1-2.235-.514l-.745-.745a2.171,2.171,0,0,1-.64-1.532,2.206,2.206,0,0,1,.241-.986,2.131,2.131,0,0,0,.063-1.8l-.157-.378A2.146,2.146,0,0,0,38.5,28.181,2.187,2.187,0,0,1,37,26.114V25.065A2.187,2.187,0,0,1,38.5,23a2.146,2.146,0,0,0,1.322-1.238l.157-.378a2.055,2.055,0,0,0,.168-.829,2.119,2.119,0,0,0-.231-.976,2.167,2.167,0,0,1,.4-2.518l.745-.745a2.171,2.171,0,0,1,1.532-.64,2.206,2.206,0,0,1,.986.241,2.131,2.131,0,0,0,1.8.063l.378-.157A2.146,2.146,0,0,0,47,14.5,2.187,2.187,0,0,1,49.065,13h1.049a2.187,2.187,0,0,1,2.067,1.5,2.146,2.146,0,0,0,1.238,1.322l.378.157a2.055,2.055,0,0,0,.829.168,2.119,2.119,0,0,0,.976-.231c.094-.042.189-.084.283-.115a2.155,2.155,0,0,1,2.235.514l.745.745a2.171,2.171,0,0,1,.64,1.532,2.206,2.206,0,0,1-.241.986,2.131,2.131,0,0,0-.063,1.8l.157.378A2.146,2.146,0,0,0,60.68,23a2.187,2.187,0,0,1,1.5,2.067Zm-6.295.525a6.295,6.295,0,1,0-6.295,6.295A6.3,6.3,0,0,0,55.885,25.59Z" transform="translate(-37 -13)" fill="#ffc729"/>
        </g>
        <g id="Grupo_1224660" data-name="Grupo 1224660" transform="translate(44.065 18.885)">
          <path id="Trazado_1056641" data-name="Trazado 1056641" d="M49.295,19A6.295,6.295,0,1,1,43,25.295,6.3,6.3,0,0,1,49.295,19Zm2.1,6.295a2.1,2.1,0,1,0-2.1,2.1A2.1,2.1,0,0,0,51.393,25.295Z" transform="translate(-43 -19)" fill="#fcd770"/>
        </g>
        <g id="Grupo_1224661" data-name="Grupo 1224661" transform="translate(0 39.868)">
          <path id="Trazado_1056642" data-name="Trazado 1056642" d="M11.492,39V49.492L1,39Z" transform="translate(-1 -39)" fill="#ff826e"/>
        </g>
        <g id="Grupo_1224662" data-name="Grupo 1224662" transform="translate(4.197 12.59)">
          <path id="Trazado_1056643" data-name="Trazado 1056643" d="M11.295,13v4.2H9.2v6.295H5V13Z" transform="translate(-5 -13)" fill="#a0d468"/>
        </g>
        <g id="Grupo_1224663" data-name="Grupo 1224663" transform="translate(8.393 16.787)">
          <path id="Trazado_1056644" data-name="Trazado 1056644" d="M15.295,17v6.295H9V17h6.295Z" transform="translate(-9 -17)" fill="#b4dd7f"/>
        </g>
      </g>
      <g id="Grupo_1224665" data-name="Grupo 1224665" transform="translate(0 0)">
        <path id="Trazado_1056645" data-name="Trazado 1056645" d="M49.344,18a7.344,7.344,0,1,0,7.344,7.344A7.352,7.352,0,0,0,49.344,18Zm0,12.59a5.246,5.246,0,1,1,5.246-5.246A5.252,5.252,0,0,1,49.344,30.59Z" transform="translate(2.065 0.885)"/>
        <path id="Trazado_1056646" data-name="Trazado 1056646" d="M49.147,22a3.147,3.147,0,1,0,3.147,3.147A3.151,3.151,0,0,0,49.147,22Zm0,4.2A1.049,1.049,0,1,1,50.2,25.147,1.051,1.051,0,0,1,49.147,26.2Z" transform="translate(2.261 1.081)"/>
        <path id="Trazado_1056647" data-name="Trazado 1056647" d="M62.828,22.642a1.073,1.073,0,0,1-.678-.625c-.054-.137-.109-.274-.169-.41a1.08,1.08,0,0,1,.04-.916,3.218,3.218,0,0,0-.6-3.736l-.739-.739a3.209,3.209,0,0,0-1.93-.919V5.246A5.252,5.252,0,0,0,53.508,0H33.573V8.393H0V41.352L11.106,52.458H44.065v3.449l4.849,7.759a2.942,2.942,0,0,0,4.99,0l4.849-7.759V37.161a3.209,3.209,0,0,0,1.93-.919l.739-.739a3.218,3.218,0,0,0,.6-3.736,1.079,1.079,0,0,1-.04-.917c.059-.134.114-.272.169-.409a1.077,1.077,0,0,1,.68-.625,3.22,3.22,0,0,0,2.219-3.065V25.706A3.22,3.22,0,0,0,62.828,22.642ZM40.8,20.69a1.079,1.079,0,0,1,.04.917c-.059.135-.115.273-.169.409a1.074,1.074,0,0,1-.68.625c-.042.014-.079.035-.12.05v-12.2H53.507a5.192,5.192,0,0,0,3.147-1.076v6.279a1.038,1.038,0,0,1-.624-.039c-.135-.059-.273-.115-.409-.169a1.074,1.074,0,0,1-.625-.68,3.221,3.221,0,0,0-3.065-2.217H50.886a3.22,3.22,0,0,0-3.065,2.22,1.075,1.075,0,0,1-.623.678c-.138.054-.276.109-.412.169a1.077,1.077,0,0,1-.916-.04,3.22,3.22,0,0,0-3.736.6l-.74.739a3.223,3.223,0,0,0-.6,3.737ZM37.77,50.36H34.007L37.77,46.6ZM35.671,2.1H53.507a3.147,3.147,0,0,1,0,6.295H35.671Zm2.1,8.393V43.63L31.04,50.36H20.983V17.221l6.729-6.729Zm-16.787,0h3.762l-3.762,3.762Zm-2.1,0V50.36H12.59V39.868H2.1V10.492ZM10.492,48.876l-6.91-6.91h6.91ZM39.868,50.36V29.766c.042.016.08.037.122.051a1.075,1.075,0,0,1,.678.623c.054.138.109.276.169.412a1.08,1.08,0,0,1-.04.916,3.218,3.218,0,0,0,.6,3.736l.739.74a3.209,3.209,0,0,0,1.93.919v13.2Zm16.787-8.393H46.163v-5.2a1.03,1.03,0,0,1,.624.039c.135.059.273.115.409.169a1.074,1.074,0,0,1,.625.68,3.221,3.221,0,0,0,3.065,2.218h1.045A3.22,3.22,0,0,0,55,37.648a1.075,1.075,0,0,1,.623-.678c.138-.054.276-.109.412-.169a1.041,1.041,0,0,1,.623-.038Zm-2.1,12.59V44.065h2.1V54.556ZM46.163,44.065h2.1V54.556h-2.1Zm4.2,0h2.1V54.556h-2.1Zm1.765,18.488a.872.872,0,0,1-1.43,0l-3.688-5.9h8.8Zm10.825-35.8a1.126,1.126,0,0,1-.776,1.071,3.169,3.169,0,0,0-1.979,1.858c-.044.112-.09.225-.137.335a3.168,3.168,0,0,0,.091,2.7,1.126,1.126,0,0,1-.209,1.306l-.739.739a1.126,1.126,0,0,1-1.306.209,3.173,3.173,0,0,0-2.7-.091q-.165.071-.337.138A3.168,3.168,0,0,0,53,36.994a1.125,1.125,0,0,1-1.071.775H50.886a1.126,1.126,0,0,1-1.071-.776,3.165,3.165,0,0,0-1.859-1.979c-.112-.044-.225-.09-.334-.137a3.105,3.105,0,0,0-1.244-.259,3.232,3.232,0,0,0-1.454.349,1.125,1.125,0,0,1-1.305-.209l-.74-.74a1.124,1.124,0,0,1-.209-1.305,3.166,3.166,0,0,0,.091-2.7q-.071-.165-.138-.337a3.168,3.168,0,0,0-1.98-1.858,1.123,1.123,0,0,1-.775-1.07V25.706a1.126,1.126,0,0,1,.776-1.071,3.165,3.165,0,0,0,1.979-1.859c.044-.112.09-.225.137-.334a3.168,3.168,0,0,0-.091-2.7,1.124,1.124,0,0,1,.209-1.305l.74-.74a1.119,1.119,0,0,1,1.305-.209,3.166,3.166,0,0,0,2.7.091q.165-.071.337-.138a3.168,3.168,0,0,0,1.858-1.98,1.125,1.125,0,0,1,1.071-.775h1.045A1.126,1.126,0,0,1,53,15.464a3.164,3.164,0,0,0,1.859,1.98c.112.044.225.09.334.137a3.172,3.172,0,0,0,2.7-.091A1.125,1.125,0,0,1,59.2,17.7l.739.739a1.126,1.126,0,0,1,.209,1.306,3.166,3.166,0,0,0-.091,2.7c.048.111.094.223.137.336a3.174,3.174,0,0,0,1.98,1.859,1.125,1.125,0,0,1,.776,1.071Z" transform="translate(0 0)"/>
        <path id="Trazado_1056648" data-name="Trazado 1056648" d="M22,26.295H34.59V20H22Zm2.1-4.2h8.393v2.1H24.1Z" transform="translate(1.081 0.983)"/>
        <path id="Trazado_1056649" data-name="Trazado 1056649" d="M26,12h8.393v2.1H26Z" transform="translate(1.278 0.59)"/>
        <path id="Trazado_1056650" data-name="Trazado 1056650" d="M26,16h8.393v2.1H26Z" transform="translate(1.278 0.787)"/>
        <path id="Trazado_1056651" data-name="Trazado 1056651" d="M22,28h2.1v2.1H22Z" transform="translate(1.081 1.376)"/>
        <path id="Trazado_1056652" data-name="Trazado 1056652" d="M26,28h8.393v2.1H26Z" transform="translate(1.278 1.376)"/>
        <path id="Trazado_1056653" data-name="Trazado 1056653" d="M22,32H34.59v2.1H22Z" transform="translate(1.081 1.573)"/>
        <path id="Trazado_1056654" data-name="Trazado 1056654" d="M22,44h8.393v2.1H22Z" transform="translate(1.081 2.163)"/>
        <path id="Trazado_1056655" data-name="Trazado 1056655" d="M22,40h8.393v2.1H22Z" transform="translate(1.081 1.966)"/>
        <path id="Trazado_1056656" data-name="Trazado 1056656" d="M22,36H34.59v2.1H22Z" transform="translate(1.081 1.77)"/>
        <path id="Trazado_1056657" data-name="Trazado 1056657" d="M16.59,16.2h-4.2V12H4V24.59H16.59ZM8.2,22.492H6.1V14.1h4.2v2.1H8.2Zm6.295,0h-4.2v-4.2h4.2Z" transform="translate(0.197 0.59)"/>
        <path id="Trazado_1056658" data-name="Trazado 1056658" d="M4,26H16.59v2.1H4Z" transform="translate(0.197 1.278)"/>
        <path id="Trazado_1056659" data-name="Trazado 1056659" d="M14,30h2.1v2.1H14Z" transform="translate(0.688 1.475)"/>
        <path id="Trazado_1056660" data-name="Trazado 1056660" d="M4,30h8.393v2.1H4Z" transform="translate(0.197 1.475)"/>
        <path id="Trazado_1056661" data-name="Trazado 1056661" d="M4,34H16.59v2.1H4Z" transform="translate(0.197 1.671)"/>
      </g>
    </g>
  </g>
</svg>
