<svg xmlns="http://www.w3.org/2000/svg" xmlns:xlink="http://www.w3.org/1999/xlink" width="113" height="113" viewBox="0 0 113 113">
  <defs>
    <filter id="Trazado_982547" x="0" y="0" width="113" height="113" filterUnits="userSpaceOnUse">
      <feOffset dy="3" input="SourceAlpha"/>
      <feGaussianBlur stdDeviation="3" result="blur"/>
      <feFlood flood-opacity="0.161"/>
      <feComposite operator="in" in2="blur"/>
      <feComposite in="SourceGraphic"/>
    </filter>
  </defs>
  <g id="Grupo_1224600" data-name="Grupo 1224600" transform="translate(-793.49 -5073.421)">
    <g id="Grupo_1209312" data-name="Grupo 1209312" transform="translate(0 3843.205)">
      <g id="Grupo_1208492" data-name="Grupo 1208492" transform="translate(0 -4397.209)">
        <g id="Grupo_1177675" data-name="Grupo 1177675" transform="translate(-4493 3707.152)">
          <g id="Grupo_1176928" data-name="Grupo 1176928" transform="translate(5295.49 1926.273)">
            <g id="Grupo_1172322" data-name="Grupo 1172322" transform="translate(0 0)">
              <g id="Grupo_1164700" data-name="Grupo 1164700">
                <g id="Grupo_1160931" data-name="Grupo 1160931">
                  <g id="Grupo_1160749" data-name="Grupo 1160749">
                    <g id="Grupo_1158891" data-name="Grupo 1158891">
                      <g id="Grupo_1157406" data-name="Grupo 1157406">
                        <g id="Grupo_1155793" data-name="Grupo 1155793">
                          <g id="Grupo_1154704" data-name="Grupo 1154704">
                            <g id="Grupo_1150790" data-name="Grupo 1150790">
                              <g id="Grupo_1154214" data-name="Grupo 1154214">
                                <g id="Grupo_1152583" data-name="Grupo 1152583">
                                  <g id="Grupo_1146973" data-name="Grupo 1146973">
                                    <g id="Grupo_1146954" data-name="Grupo 1146954">
                                      <g transform="matrix(1, 0, 0, 1, -9, -6)" filter="url(#Trazado_982547)">
                                        <g id="Trazado_982547-2" data-name="Trazado 982547" transform="translate(9 6)" fill="#fcf8db">
                                          <path d="M 47.5000114440918 93.49987030029297 C 41.28938293457031 93.49987030029297 35.26534652709961 92.28384399414062 29.5951976776123 89.88558959960938 C 24.11773109436035 87.56881713867188 19.19814491271973 84.25183868408203 14.97310447692871 80.02680206298828 C 10.74805164337158 75.80176544189453 7.43107795715332 70.88218688964844 5.114304542541504 65.40472412109375 C 2.716038227081299 59.73458862304688 1.500011444091797 53.71054840087891 1.500011444091797 47.49993515014648 C 1.500011444091797 41.28932189941406 2.716038227081299 35.26528167724609 5.114304542541504 29.59514808654785 C 7.43107795715332 24.1176815032959 10.74805164337158 19.1981086730957 14.97310447692871 14.97306823730469 C 19.19814491271973 10.74802875518799 24.11773109436035 7.431055068969727 29.5951976776123 5.11428165435791 C 35.26534652709961 2.716028451919556 41.28938293457031 1.500001788139343 47.5000114440918 1.500001788139343 C 53.71063995361328 1.500001788139343 59.73467636108398 2.716028451919556 65.40482330322266 5.11428165435791 C 70.88229370117188 7.431055068969727 75.8018798828125 10.74802875518799 80.02691650390625 14.97306823730469 C 84.25196838378906 19.1981086730957 87.56894683837891 24.1176815032959 89.88571929931641 29.59514808654785 C 92.28398132324219 35.26528167724609 93.50001525878906 41.28932189941406 93.50001525878906 47.49993515014648 C 93.50001525878906 53.71054840087891 92.28398132324219 59.73458862304688 89.88571929931641 65.40472412109375 C 87.56894683837891 70.88218688964844 84.25196838378906 75.80176544189453 80.02691650390625 80.02680206298828 C 75.8018798828125 84.25183868408203 70.88229370117188 87.56881713867188 65.40482330322266 89.88558959960938 C 59.73467636108398 92.28384399414062 53.71063995361328 93.49987030029297 47.5000114440918 93.49987030029297 Z" stroke="none"/>
                                          <path d="M 47.5000114440918 3 C 41.49122619628906 3 35.66378021240234 4.1761474609375 30.17951965332031 6.495796203613281 C 24.880859375 8.7369384765625 20.12153625488281 11.94596862792969 16.03376770019531 16.03373718261719 C 11.94598388671875 20.12149047851562 8.736968994140625 24.88081359863281 6.495811462402344 30.17947387695312 C 4.176162719726562 35.66371917724609 3.000007629394531 41.49116516113281 3.000007629394531 47.49993515014648 C 3.000007629394531 53.50870513916016 4.176162719726562 59.33615112304688 6.495811462402344 64.82039642333984 C 8.736968994140625 70.11905670166016 11.94598388671875 74.87837982177734 16.03376770019531 78.96613311767578 C 20.12153625488281 83.05390167236328 24.880859375 86.26293182373047 30.17951965332031 88.50407409667969 C 35.66378021240234 90.82372283935547 41.49122619628906 91.99987030029297 47.5000114440918 91.99987030029297 C 53.50879669189453 91.99987030029297 59.33624267578125 90.82372283935547 64.82050323486328 88.50407409667969 C 70.11916351318359 86.26293182373047 74.87848663330078 83.05390167236328 78.96625518798828 78.96613311767578 C 83.05403900146484 74.87837982177734 86.2630615234375 70.11905670166016 88.50421142578125 64.82039642333984 C 90.82386016845703 59.33615112304688 92.00001525878906 53.50870513916016 92.00001525878906 47.49993515014648 C 92.00001525878906 41.49116516113281 90.82386016845703 35.66371917724609 88.50421142578125 30.17947387695312 C 86.2630615234375 24.88081359863281 83.05403900146484 20.12149047851562 78.96625518798828 16.03373718261719 C 74.87848663330078 11.94596862792969 70.11916351318359 8.7369384765625 64.82050323486328 6.495796203613281 C 59.33624267578125 4.1761474609375 53.50879669189453 3 47.5000114440918 3 M 47.5000114440918 0 C 73.73353576660156 0 95.00001525878906 21.26644134521484 95.00001525878906 47.49993515014648 C 95.00001525878906 73.73342895507812 73.73353576660156 94.99987030029297 47.5000114440918 94.99987030029297 C 21.26648712158203 94.99987030029297 7.62939453125e-06 73.73342895507812 7.62939453125e-06 47.49993515014648 C 7.62939453125e-06 21.26644134521484 21.26648712158203 0 47.5000114440918 0 Z" stroke="none" fill="#83793c"/>
                                        </g>
                                      </g>
                                    </g>
                                  </g>
                                </g>
                              </g>
                            </g>
                          </g>
                        </g>
                      </g>
                    </g>
                  </g>
                </g>
              </g>
            </g>
          </g>
        </g>
      </g>
    </g>
    <g id="target_2139581" transform="translate(818.556 5092.567)">
      <path id="Trazado_1056430" data-name="Trazado 1056430" d="M24,320v18.664h5.894L32.841,320Z" transform="translate(-21.053 -280.708)" fill="#00587e"/>
      <path id="Trazado_1056431" data-name="Trazado 1056431" d="M24,235.788h8.841v-9.823A1.965,1.965,0,0,0,30.876,224H25.965A1.965,1.965,0,0,0,24,225.965Z" transform="translate(-21.053 -196.496)" fill="#00587e"/>
      <path id="Trazado_1056432" data-name="Trazado 1056432" d="M410.805,225.965v9.823h-6.876L400,227.929l1.965-1.965A1.97,1.97,0,0,1,403.929,224h4.911A1.97,1.97,0,0,1,410.805,225.965Z" transform="translate(-350.885 -196.496)" fill="#f249b4"/>
      <path id="Trazado_1056433" data-name="Trazado 1056433" d="M184.98,148.91a.982.982,0,0,1-.816-1.527l1.965-2.947a.982.982,0,0,1,1.635,1.09l-1.965,2.947A.981.981,0,0,1,184.98,148.91Z" transform="translate(-161.406 -126.317)" fill="#00587e"/>
      <path id="Trazado_1056434" data-name="Trazado 1056434" d="M298.947,148.911a.981.981,0,0,1-.818-.438l-1.965-2.947a.982.982,0,0,1,1.635-1.09l1.965,2.947a.982.982,0,0,1-.816,1.527Z" transform="translate(-259.654 -126.318)" fill="#00587e"/>
      <circle id="Elipse_13552" data-name="Elipse 13552" cx="9.898" cy="9.898" r="9.898" transform="translate(21.536 0.841)" fill="#00a8e7"/>
      <ellipse id="Elipse_13553" data-name="Elipse 13553" cx="6.298" cy="5.849" rx="6.298" ry="5.849" transform="translate(25.135 5.339)" fill="#ffec00"/>
      <path id="Trazado_1056435" data-name="Trazado 1056435" d="M8,121.249,9.965,124.2l1.965,1.965V124.2a2.947,2.947,0,0,0,2.947-2.947l2.947-.982.783-.392a2.161,2.161,0,0,0,1.181-1.912,2.137,2.137,0,0,0-2.558-2.1l-5.339,1.067a2.4,2.4,0,0,0-1.927,2.35A1.964,1.964,0,0,0,8,121.249Z" transform="translate(-7.018 -101.603)" fill="#58492f"/>
      <path id="Trazado_1056436" data-name="Trazado 1056436" d="M40,155.929v4.912h3.929v-2.947h1.965v-1.965h1.965L45.894,152l-2.947.982A2.947,2.947,0,0,1,40,155.929Z" transform="translate(-35.088 -133.337)" fill="#fac8b2"/>
      <path id="Trazado_1056437" data-name="Trazado 1056437" d="M408,117.963a2.139,2.139,0,0,0,1.181,1.912l.783.392h3.929v2.947h1.965v2.947h3.929c0-5.894-.879-6.876-1.965-6.876a2.4,2.4,0,0,0-1.927-2.35l-5.339-1.067A2.137,2.137,0,0,0,408,117.963Z" transform="translate(-357.903 -101.603)" fill="#b71e71"/>
      <path id="Trazado_1056438" data-name="Trazado 1056438" d="M408,154.947l1.965,2.947h1.965v2.947h3.929v-5.894h-1.965V152h-3.929v2.947Z" transform="translate(-357.903 -133.337)" fill="#fac8b2"/>
      <path id="Trazado_1056439" data-name="Trazado 1056439" transform="translate(0 0)" fill="none" stroke="#000" stroke-linecap="round" stroke-linejoin="round" stroke-miterlimit="10" stroke-width="16"/>
      <circle id="Elipse_13554" data-name="Elipse 13554" cx="1.8" cy="1.8" r="1.8" transform="translate(29.634 8.939)" fill="#e22526"/>
      <path id="Trazado_1056440" data-name="Trazado 1056440" d="M192,424h15.717v9.823H192Z" transform="translate(-168.425 -371.938)" fill="#8e4b19"/>
      <path id="Trazado_1056441" data-name="Trazado 1056441" d="M325.894,376H320v11.788h1.965a3.929,3.929,0,0,0,3.929-3.929Z" transform="translate(-280.708 -329.832)" fill="#aedef8"/>
      <path id="Trazado_1056442" data-name="Trazado 1056442" d="M24,235.788h3.929v-9.823A1.965,1.965,0,0,0,25.965,224h0A1.965,1.965,0,0,0,24,225.965Z" transform="translate(-21.053 -196.496)" fill="#aedef8"/>
      <path id="Trazado_1056443" data-name="Trazado 1056443" d="M144,433.823h5.894V424h-1.965A3.929,3.929,0,0,0,144,427.929Z" transform="translate(-126.319 -371.938)" fill="#aedef8"/>
      <path id="Trazado_1056444" data-name="Trazado 1056444" d="M459.929,235.788H456v-9.823A1.965,1.965,0,0,1,457.965,224h0a1.965,1.965,0,0,1,1.965,1.965Z" transform="translate(-400.009 -196.496)" fill="#fcd4ef"/>
      <path id="Trazado_1056445" data-name="Trazado 1056445" d="M320,326.876h5.894V324.42a1.473,1.473,0,0,0-1.473-1.473h-1.473v-1.473a1.473,1.473,0,0,0-2.947,0Z" transform="translate(-280.708 -280.708)" fill="#fac8b2"/>
      <path id="Trazado_1056446" data-name="Trazado 1056446" d="M225.823,352v.982a2.958,2.958,0,0,1-2.947,2.947,1.965,1.965,0,0,1-3.929,0,2.913,2.913,0,0,1-1.965-.756,1.176,1.176,0,0,1-.118-.108,2.94,2.94,0,0,1-.864-2.082V352Z" transform="translate(-189.478 -308.779)" fill="#ded7cb"/>
      <path id="Trazado_1056447" data-name="Trazado 1056447" d="M231.858,323.929H224a3.929,3.929,0,1,1,7.858,0Z" transform="translate(-196.496 -280.708)" fill="#fac8b2"/>
      <path id="Trazado_1056448" data-name="Trazado 1056448" d="M231.858,377.84v5.668H224V377.84a2.913,2.913,0,0,0,1.965.756,1.965,1.965,0,0,0,3.929,0A2.913,2.913,0,0,0,231.858,377.84Z" transform="translate(-196.496 -331.446)" fill="#fac8b2"/>
      <path id="Trazado_1056449" data-name="Trazado 1056449" d="M432.982,329.823h5.894l1.965-5.894L438.876,320H432Z" transform="translate(-378.956 -280.708)" fill="#931d5b"/>
      <g id="Grupo_1224597" data-name="Grupo 1224597" transform="translate(2.947 39.292)">
        <path id="Trazado_1056450" data-name="Trazado 1056450" d="M457.965,323.929h0a1.965,1.965,0,0,0,1.965-1.965V320H456v1.965A1.965,1.965,0,0,0,457.965,323.929Z" transform="translate(-402.956 -320)" fill="#fac8b2"/>
        <path id="Trazado_1056451" data-name="Trazado 1056451" d="M25.965,323.929h0A1.965,1.965,0,0,1,24,321.965V320h3.929v1.965a1.965,1.965,0,0,1-1.965,1.965Z" transform="translate(-24 -320)" fill="#fac8b2"/>
        <path id="Trazado_1056452" data-name="Trazado 1056452" d="M440,400l1.965,8.841h3.929V400Z" transform="translate(-388.92 -390.177)" fill="#fac8b2"/>
      </g>
      <path id="Trazado_1056453" data-name="Trazado 1056453" d="M31.858,475.929H24V472h5.894a1.965,1.965,0,0,1,1.965,1.965Z" transform="translate(-21.053 -414.044)" fill="#aedef8"/>
      <path id="Trazado_1056454" data-name="Trazado 1056454" d="M424,475.929h7.858V472h-5.894A1.965,1.965,0,0,0,424,473.965Z" transform="translate(-371.938 -414.044)" fill="#931d5b"/>
      <path id="Trazado_1056455" data-name="Trazado 1056455" d="M96,256h3.929v3.929H96Z" transform="translate(-84.212 -224.567)" fill="#aedef8"/>
      <path id="Trazado_1056456" data-name="Trazado 1056456" d="M129.965,259.929H128V256h3.929v1.965A1.965,1.965,0,0,1,129.965,259.929Z" transform="translate(-112.283 -224.567)" fill="#fac8b2"/>
      <path id="Trazado_1056457" data-name="Trazado 1056457" d="M129.823,249.965h-8.841a.982.982,0,1,1,0-1.965h8.841a.982.982,0,0,1,0,1.965Z" transform="translate(-105.265 -217.549)" fill="#ffec00"/>
      <path id="Trazado_1056458" data-name="Trazado 1056458" d="M387.929,259.929H384V256h1.965Z" transform="translate(-336.849 -224.567)" fill="#fcd4ef"/>
      <path id="Trazado_1056459" data-name="Trazado 1056459" d="M353.965,259.929h1.965V256H352v1.965A1.965,1.965,0,0,0,353.965,259.929Z" transform="translate(-308.779 -224.567)" fill="#fac8b2"/>
      <path id="Trazado_1056460" data-name="Trazado 1056460" d="M313.823,249.965h-8.841a.982.982,0,1,1,0-1.965h8.841a.982.982,0,1,1,0,1.965Z" transform="translate(-266.673 -217.549)" fill="#ffec00"/>
      <path id="Trazado_1056461" data-name="Trazado 1056461" d="M237.606,194.252l-1.965-1.965a.982.982,0,0,0-1.389,0l-1.965,1.965a.982.982,0,0,0,1.389,1.389l.288-.288v6.469a.982.982,0,1,0,1.965,0v-6.469l.288.288a.982.982,0,0,0,1.389-1.389Z" transform="translate(-203.513 -168.425)" fill="#e22526"/>
      <path id="Trazado_1056462" data-name="Trazado 1056462" d="M240,249.965,241.965,248l1.965,1.965v3.929l-1.965-.982-1.965.982Z" transform="translate(-210.531 -217.549)" fill="#acdd12"/>
      <path id="Trazado_1056463" data-name="Trazado 1056463" d="M234.947,64a2.947,2.947,0,1,0,2.947,2.947A2.95,2.95,0,0,0,234.947,64Zm0,3.929a.982.982,0,1,1,.982-.982A.983.983,0,0,1,234.947,67.929Z" transform="translate(-203.513 -56.142)"/>
      <path id="Trazado_1056464" data-name="Trazado 1056464" d="M206.876,32a6.876,6.876,0,1,0,6.876,6.876A6.884,6.884,0,0,0,206.876,32Zm0,11.788a4.912,4.912,0,1,1,4.911-4.912A4.917,4.917,0,0,1,206.876,43.788Z" transform="translate(-175.442 -28.071)"/>
      <path id="Trazado_1056465" data-name="Trazado 1056465" d="M186.007,18.854a10.805,10.805,0,1,0-14.4,0l-1.475,2.212a.982.982,0,1,0,1.635,1.09l1.418-2.127a10.786,10.786,0,0,0,11.247,0l1.418,2.127a.982.982,0,1,0,1.635-1.09Zm-16.042-8.049a8.841,8.841,0,1,1,8.841,8.841,8.851,8.851,0,0,1-8.841-8.841Z" transform="translate(-147.372)"/>
      <path id="Trazado_1056466" data-name="Trazado 1056466" d="M163.013,314.947h-.491v-.491a2.456,2.456,0,0,0-4.912,0V324.77h-1.965v-4.279a3.9,3.9,0,0,0,.982-2.6v-.982a.982.982,0,0,0-.982-.982h-.1a4.937,4.937,0,0,0-1.333-2.487l-.01-.01a4.914,4.914,0,0,0-8.282,2.5h-.1a.982.982,0,0,0-.982.982v.982a3.9,3.9,0,0,0,.982,2.6v4.281h-4.912A4.917,4.917,0,0,0,136,329.681v5.894a.982.982,0,0,0,.982.982h21.611a.982.982,0,0,0,.982-.982v-2.947h.982a4.917,4.917,0,0,0,4.912-4.912V317.4A2.459,2.459,0,0,0,163.013,314.947Zm-25.049,14.735a2.95,2.95,0,0,1,2.947-2.947h.982v7.858h-3.929Zm21.611-15.226a.491.491,0,0,1,.982,0v1.473a.982.982,0,0,0,.982.982h1.473a.492.492,0,0,1,.491.491v1.473h-3.929Zm-12.111,4.9c-.017-.015-.034-.03-.052-.044l-.031-.031a1.951,1.951,0,0,1-.577-1.388h7.858a1.915,1.915,0,0,1-.645,1.45l-.014.013a1.941,1.941,0,0,1-1.305.5.982.982,0,0,0-.982.982.94.94,0,0,1-.282.681l-.019.019a.963.963,0,0,1-1.362,0l-.019-.019a.94.94,0,0,1-.282-.681.982.982,0,0,0-.982-.982A1.941,1.941,0,0,1,147.465,319.356Zm3.27-5.392a2.964,2.964,0,0,1,2.085.862,3.008,3.008,0,0,1,.693,1.1h-5.556A2.952,2.952,0,0,1,150.735,313.965Zm-2.947,7.732c.045.012.09.024.136.035a2.955,2.955,0,0,0,5.622,0c.046-.01.091-.023.136-.035v3.074h-5.894Zm9.823,12.9H143.858v-7.858h13.752Zm2.947-3.929h-.982v-9.823H163.5v6.876A2.95,2.95,0,0,1,160.558,330.664Z" transform="translate(-119.301 -273.69)"/>
      <path id="Trazado_1056467" data-name="Trazado 1056467" d="M24.558,125.035H12.77v-.982a2.95,2.95,0,0,0-2.947-2.947v-.982h.982a.982.982,0,0,0,.982-.982v-.982h.982a.982.982,0,0,0,.879-1.422l-1.526-3.052a3.12,3.12,0,0,0-2.1-5.8l-5.339,1.068a3.39,3.39,0,0,0-2.607,2.463A2.952,2.952,0,0,0,0,114.23a.982.982,0,0,0,.165.545l1.965,2.947a.983.983,0,0,0,.123.15l1.677,1.677v1.727a2.952,2.952,0,0,0-1.965,2.778v32.416a.982.982,0,0,0,.982.982h7.858a.982.982,0,0,0,.982-.982V154.5a2.951,2.951,0,0,0-1.832-2.727l2.8-17.748a.98.98,0,0,0,.011-.153h0v-2.947h4.912a2.95,2.95,0,0,0,2.947-2.947V127h3.929a.982.982,0,1,0,0-1.965Zm-13.752-.982v8.841H7.858v-8.841a2.932,2.932,0,0,0-.169-.982H9.823a.983.983,0,0,1,.982.982Zm-7.1-7.5L2,113.98a.984.984,0,0,1,.95-.733.982.982,0,0,0,.982-.982,1.418,1.418,0,0,1,1.137-1.387l5.339-1.068a1.156,1.156,0,0,1,.743,2.167l-.783.391a.982.982,0,0,0-.439,1.318l1.254,2.508h-.375a.982.982,0,0,0-.982.982v.982H8.841a.982.982,0,0,0-.982.982v1.965H5.894v-1.965a.982.982,0,0,0-.288-.695Zm1.2,6.52a.983.983,0,0,1,.982.982v8.841H3.929v-8.841A.983.983,0,0,1,4.912,123.07Zm-.982,11.788H5.894v.982a.982.982,0,0,1-1.965,0Zm5.894,20.628H3.929v-1.965H8.841a.983.983,0,0,1,.982.982ZM8,151.557H3.929V138.618a2.946,2.946,0,0,0,3.929-2.778v-.982h2.78Zm4.769-22.593V127h1.965v1.965Zm5.894-.982a.983.983,0,0,1-.982.982H16.7V127h1.965Z" transform="translate(0 -94.584)"/>
      <path id="Trazado_1056468" data-name="Trazado 1056468" d="M327.575,133.644v-9.591a2.952,2.952,0,0,0-1.965-2.778v-1.151h2.947a.982.982,0,0,0,.982-.982c0-4.205-.37-7.025-2.067-7.7a3.39,3.39,0,0,0-2.613-2.488l-5.339-1.068a3.12,3.12,0,0,0-2.007,5.85l.24.12v1.358h-.982a.982.982,0,0,0-.817,1.527l1.965,2.947a.982.982,0,0,0,.817.437h.982v.982a2.952,2.952,0,0,0-2.914,2.507l-1.422,1.422h-10.4a.982.982,0,0,0,0,1.965h3.929v.982a2.95,2.95,0,0,0,2.947,2.947h5.287l1.612,3.225.964,9.643h0a.983.983,0,0,0,.018.115l1.7,7.645h-.74a2.95,2.95,0,0,0-2.947,2.947v1.965a.982.982,0,0,0,.982.982h7.858a.982.982,0,0,0,.982-.982v-12.61l1.914-5.743a.982.982,0,0,0-.053-.75Zm-.078,4.236-1.612,4.836h-4.3l-.786-7.858h.879v.982a2.946,2.946,0,0,0,5.516,1.441Zm-3.851-13.828a.982.982,0,1,1,1.965,0v8.841h-1.965Zm0,10.805h1.965v.982a.982.982,0,1,1-1.965,0Zm-2.947-16.7H319.26l-.655-.982h.129a.982.982,0,0,0,.982-.982v-2.947a.982.982,0,0,0-.543-.879l-.783-.391a1.156,1.156,0,0,1,.743-2.167l5.339,1.068a1.418,1.418,0,0,1,1.137,1.387.982.982,0,0,0,.982.982c.108,0,.256,0,.465.58a15.287,15.287,0,0,1,.508,4.332h-2.938a.982.982,0,0,0-.982.982v1.965h-1.965v-1.965A.982.982,0,0,0,320.7,118.159Zm-2.252,6.588a.982.982,0,0,0,.288-.695.983.983,0,0,1,.982-.982h2.134a2.933,2.933,0,0,0-.169.982v8.841h-1.357l-3.341-6.682Zm-7.571,3.235V127h1.965v1.965h-.982A.983.983,0,0,1,310.876,127.982Zm3.929.982V127h.375l.982,1.965Zm7.118,15.717h3.687v6.876h-2.159Zm3.687,10.805h-5.894V154.5a.983.983,0,0,1,.982-.982h4.911Z" transform="translate(-266.673 -94.584)"/>
      <path id="Trazado_1056469" data-name="Trazado 1056469" d="M235.929,198.469v-3.115l.288.288a.982.982,0,0,0,1.389-1.389l-1.965-1.965a.982.982,0,0,0-1.389,0l-1.965,1.965a.982.982,0,0,0,1.389,1.389l.288-.288v3.115l-1.677,1.677a.982.982,0,0,0-.288.695v3.929a.982.982,0,0,0,1.422.879l1.525-.763,1.525.763a.982.982,0,0,0,1.422-.879v-3.929a.982.982,0,0,0-.288-.695Zm0,4.711-.543-.271a.982.982,0,0,0-.879,0l-.543.271v-1.933l.982-.982.982.982Z" transform="translate(-203.513 -168.425)"/>
    </g>
  </g>
</svg>
