<svg xmlns="http://www.w3.org/2000/svg" xmlns:xlink="http://www.w3.org/1999/xlink" width="113" height="113" viewBox="0 0 113 113">
  <defs>
    <filter id="Trazado_982547" x="0" y="0" width="113" height="113" filterUnits="userSpaceOnUse">
      <feOffset dy="3" input="SourceAlpha"/>
      <feGaussianBlur stdDeviation="3" result="blur"/>
      <feFlood flood-opacity="0.161"/>
      <feComposite operator="in" in2="blur"/>
      <feComposite in="SourceGraphic"/>
    </filter>
    <clipPath id="clip-path">
      <path id="path3723" d="M0-682.665H62.906v62.906H0Z" transform="translate(0 682.665)"/>
    </clipPath>
  </defs>
  <g id="Grupo_1225301" data-name="Grupo 1225301" transform="translate(-271 -7597.76)">
    <g id="Grupo_1225188" data-name="Grupo 1225188" transform="translate(0 2856.764)">
      <g id="Grupo_1224643" data-name="Grupo 1224643" transform="translate(0 1927)">
        <g id="Grupo_1224291" data-name="Grupo 1224291" transform="translate(0 859.245)">
          <g id="Grupo_1224091" data-name="Grupo 1224091" transform="translate(-84.49 -2620.317)">
            <g id="Grupo_1223183" data-name="Grupo 1223183" transform="translate(364.49 4581.069)">
              <g id="Grupo_1211217" data-name="Grupo 1211217" transform="translate(0)">
                <g id="Grupo_1210736" data-name="Grupo 1210736">
                  <g id="Grupo_1210537" data-name="Grupo 1210537">
                    <g id="Grupo_1164202" data-name="Grupo 1164202">
                      <g id="Grupo_1158168" data-name="Grupo 1158168">
                        <g id="Grupo_1152576" data-name="Grupo 1152576">
                          <g id="Grupo_1148633" data-name="Grupo 1148633">
                            <g id="Grupo_1148525" data-name="Grupo 1148525">
                              <g transform="matrix(1, 0, 0, 1, -9, -6)" filter="url(#Trazado_982547)">
                                <g id="Trazado_982547-2" data-name="Trazado 982547" transform="translate(9 6)" fill="#fdfbec">
                                  <path d="M 47.49999618530273 93.5 C 41.28936767578125 93.5 35.26533126831055 92.28396606445312 29.59518241882324 89.88570404052734 C 24.11771583557129 87.56893157958984 19.19812965393066 84.251953125 14.97308921813965 80.02690124511719 C 10.74803638458252 75.80186462402344 7.431062698364258 70.88227844238281 5.114289283752441 65.40480804443359 C 2.716022968292236 59.73466110229492 1.499996185302734 53.71062469482422 1.499996185302734 47.49999618530273 C 1.499996185302734 41.28936767578125 2.716022968292236 35.26533126831055 5.114289283752441 29.59518241882324 C 7.431062698364258 24.11771583557129 10.74803638458252 19.19812965393066 14.97308921813965 14.97308921813965 C 19.19812965393066 10.74803638458252 24.11771583557129 7.431062698364258 29.59518241882324 5.114289283752441 C 35.26533126831055 2.716022968292236 41.28936767578125 1.499996185302734 47.49999618530273 1.499996185302734 C 53.71062469482422 1.499996185302734 59.73466110229492 2.716022968292236 65.40480804443359 5.114289283752441 C 70.88227844238281 7.431062698364258 75.80186462402344 10.74803638458252 80.02690124511719 14.97308921813965 C 84.251953125 19.19812965393066 87.56893157958984 24.11771583557129 89.88570404052734 29.59518241882324 C 92.28396606445312 35.26533126831055 93.5 41.28936767578125 93.5 47.49999618530273 C 93.5 53.71062469482422 92.28396606445312 59.73466110229492 89.88570404052734 65.40480804443359 C 87.56893157958984 70.88227844238281 84.251953125 75.80186462402344 80.02690124511719 80.02690124511719 C 75.80186462402344 84.251953125 70.88227844238281 87.56893157958984 65.40480804443359 89.88570404052734 C 59.73466110229492 92.28396606445312 53.71062469482422 93.5 47.49999618530273 93.5 Z" stroke="none"/>
                                  <path d="M 47.49999618530273 2.999992370605469 C 41.4912109375 2.999992370605469 35.66376495361328 4.1761474609375 30.17950439453125 6.495796203613281 C 24.88084411621094 8.736953735351562 20.12152099609375 11.94598388671875 16.03375244140625 16.03375244140625 C 11.94598388671875 20.12152099609375 8.736953735351562 24.88084411621094 6.495796203613281 30.17950439453125 C 4.1761474609375 35.66376495361328 2.999992370605469 41.4912109375 2.999992370605469 47.49999618530273 C 2.999992370605469 53.50878143310547 4.1761474609375 59.33622741699219 6.495796203613281 64.82048797607422 C 8.736953735351562 70.11914825439453 11.94598388671875 74.87847137451172 16.03375244140625 78.96623992919922 C 20.12152099609375 83.05400848388672 24.88084411621094 86.26304626464844 30.17950439453125 88.50419616699219 C 35.66376495361328 90.82384490966797 41.4912109375 92 47.49999618530273 92 C 53.50878143310547 92 59.33622741699219 90.82384490966797 64.82048797607422 88.50419616699219 C 70.11914825439453 86.26304626464844 74.87847137451172 83.05400848388672 78.96623992919922 78.96623992919922 C 83.05400848388672 74.87847137451172 86.26304626464844 70.11914825439453 88.50419616699219 64.82048797607422 C 90.82384490966797 59.33622741699219 92 53.50878143310547 92 47.49999618530273 C 92 41.4912109375 90.82384490966797 35.66376495361328 88.50419616699219 30.17950439453125 C 86.26304626464844 24.88084411621094 83.05400848388672 20.12152099609375 78.96623992919922 16.03375244140625 C 74.87847137451172 11.94598388671875 70.11914825439453 8.736953735351562 64.82048797607422 6.495796203613281 C 59.33622741699219 4.1761474609375 53.50878143310547 2.999992370605469 47.49999618530273 2.999992370605469 M 47.49999618530273 -7.62939453125e-06 C 73.7335205078125 -7.62939453125e-06 95 21.26647186279297 95 47.49999618530273 C 95 73.7335205078125 73.7335205078125 95 47.49999618530273 95 C 21.26647186279297 95 -7.62939453125e-06 73.7335205078125 -7.62939453125e-06 47.49999618530273 C -7.62939453125e-06 21.26647186279297 21.26647186279297 -7.62939453125e-06 47.49999618530273 -7.62939453125e-06 Z" stroke="none" fill="#83793c"/>
                                </g>
                              </g>
                            </g>
                          </g>
                        </g>
                      </g>
                    </g>
                  </g>
                </g>
              </g>
            </g>
          </g>
        </g>
      </g>
    </g>
    <g id="g3717" transform="translate(296.047 8300.472)">
      <g id="g3719" transform="translate(0 -682.665)">
        <g id="g3721" clip-path="url(#clip-path)">
          <g id="g3727" transform="translate(0.924 9.896)">
            <path id="path3729" d="M-178.633-237.541h-12.812a5.32,5.32,0,0,1-5.32-5.32v-7.066a11.726,11.726,0,0,1,11.726-11.726,11.726,11.726,0,0,1,11.726,11.726v7.066a5.32,5.32,0,0,1-5.32,5.32" transform="translate(196.765 261.651)" fill="#6c5e69"/>
          </g>
          <g id="g3731" transform="translate(11.257 9.896)">
            <path id="path3733" d="M-13.06,0h0a11.866,11.866,0,0,0-1.326.075,11.727,11.727,0,0,1,10.4,11.651v7.065a5.32,5.32,0,0,1-5.32,5.32h2.651a5.32,5.32,0,0,0,5.32-5.32V11.726A11.726,11.726,0,0,0-13.06,0" transform="translate(14.385)" fill="#574d56"/>
          </g>
          <g id="g3735" transform="translate(0.924 9.896)">
            <path id="path3737" d="M-16.606-55.821a11.671,11.671,0,0,0-1.686,6.06V-42.7a5.32,5.32,0,0,0,5.32,5.32H-.16a5.32,5.32,0,0,0,5.32-5.32v-7.066A11.726,11.726,0,0,0-6.566-61.487a11.68,11.68,0,0,0-7.744,2.922" transform="translate(18.292 61.487)" fill="none" stroke="#000" stroke-linecap="round" stroke-linejoin="round" stroke-miterlimit="10" stroke-width="1.5"/>
          </g>
          <g id="g3739" transform="translate(1.579 40.01)">
            <path id="path3741" d="M-197.794-203.865h-18.011a2.065,2.065,0,0,1-2.065-2.065v-7.557A11.071,11.071,0,0,1-206.8-224.558a11.071,11.071,0,0,1,11.071,11.071v7.557a2.065,2.065,0,0,1-2.065,2.065" transform="translate(217.87 224.558)" fill="#9ff497"/>
          </g>
          <g id="g3743" transform="translate(11.257 40.01)">
            <path id="path3745" d="M-13.722,0h0a11.18,11.18,0,0,0-1.393.087A11.073,11.073,0,0,1-5.437,11.071v7.557A2.065,2.065,0,0,1-7.5,20.693h2.785a2.065,2.065,0,0,0,2.065-2.065V11.071A11.071,11.071,0,0,0-13.722,0" transform="translate(15.115)" fill="#6ce79a"/>
          </g>
          <g id="g3747" transform="translate(1.579 40.01)">
            <path id="path3749" d="M-109.069,0h0A11.071,11.071,0,0,0-120.14,11.071v7.557a2.065,2.065,0,0,0,2.065,2.065h18.011A2.065,2.065,0,0,0-98,18.628V11.071A11.071,11.071,0,0,0-109.069,0Z" transform="translate(120.14)" fill="none" stroke="#000" stroke-linecap="round" stroke-linejoin="round" stroke-miterlimit="10" stroke-width="1.5"/>
          </g>
          <g id="g3751" transform="translate(10.435 36.63)">
            <path id="path3753" d="M-21.814-72.779h0a2.214,2.214,0,0,1-2.214-2.214v-5.173H-19.6v5.173a2.214,2.214,0,0,1-2.214,2.214" transform="translate(24.028 80.166)" fill="#ffb29f"/>
          </g>
          <g id="g3755" transform="translate(10.435 36.63)">
            <path id="path3757" d="M-21.814-72.779h0a2.214,2.214,0,0,1-2.214-2.214v-5.173H-19.6v5.173A2.214,2.214,0,0,1-21.814-72.779Z" transform="translate(24.028 80.166)" fill="none" stroke="#000" stroke-linecap="round" stroke-linejoin="round" stroke-miterlimit="10" stroke-width="1.5"/>
          </g>
          <g id="g3759" transform="translate(3.864 22.144)">
            <path id="path3761" d="M0-10.5V-3.72A8.785,8.785,0,0,0,8.785,5.065,8.785,8.785,0,0,0,17.57-3.72v-6.9a.741.741,0,0,0-.955-.708c-2.135.643-3.242.384-5.288-.212a.741.741,0,0,0-.652.113C8.385-9.7,4.157-9.94,1.016-11.188A.741.741,0,0,0,0-10.5" transform="translate(0 11.567)" fill="#ffe0cf"/>
          </g>
          <g id="g3763" transform="translate(11.348 22.354)">
            <path id="path3765" d="M-89.962-.316A8.419,8.419,0,0,1-91.7.038a.735.735,0,0,1,.091.355v6.9a8.787,8.787,0,0,1-7.484,8.689,8.843,8.843,0,0,0,1.3.1,8.785,8.785,0,0,0,8.785-8.785V.393a.741.741,0,0,0-.955-.709" transform="translate(99.093 0.348)" fill="#ffcfc0"/>
          </g>
          <g id="g3767" transform="translate(3.864 22.144)">
            <path id="path3769" d="M0-10.5V-3.72A8.785,8.785,0,0,0,8.785,5.065,8.785,8.785,0,0,0,17.57-3.72v-6.9a.741.741,0,0,0-.955-.708c-2.135.643-3.242.384-5.288-.212a.741.741,0,0,0-.652.113C8.385-9.7,4.157-9.94,1.016-11.188A.741.741,0,0,0,0-10.5Z" transform="translate(0 11.567)" fill="none" stroke="#000" stroke-linecap="round" stroke-linejoin="round" stroke-miterlimit="10" stroke-width="1.5"/>
          </g>
          <g id="g3771" transform="translate(6.522 51.963)">
            <path id="path3773" d="M-111.3-47.175h-10.339a.958.958,0,0,1-.958-.958v-2.871a.958.958,0,0,1,.958-.958H-111.3a.959.959,0,0,1,.959.958v2.871a.959.959,0,0,1-.959.958" transform="translate(122.596 51.964)" fill="#fbf7f7"/>
          </g>
          <g id="g3775" transform="translate(15.605 51.963)">
            <path id="path3777" d="M-21.814,0h-2.214a.958.958,0,0,1,.958.958V3.83a.958.958,0,0,1-.958.958h2.214a.959.959,0,0,0,.959-.958V.958A.959.959,0,0,0-21.814,0" transform="translate(24.028)" fill="#f7ebe7"/>
          </g>
          <g id="g3779" transform="translate(6.522 51.963)">
            <path id="path3781" d="M-111.3-47.175h-10.339a.958.958,0,0,1-.958-.958v-2.871a.958.958,0,0,1,.958-.958H-111.3a.959.959,0,0,1,.959.958v2.871A.959.959,0,0,1-111.3-47.175Z" transform="translate(122.596 51.964)" fill="none" stroke="#000" stroke-linecap="round" stroke-linejoin="round" stroke-miterlimit="10" stroke-width="1.5"/>
          </g>
          <g id="g3783" transform="translate(38.531 10.425)">
            <path id="path3785" d="M-145.1-388.117h-6a8.723,8.723,0,0,1-8.723-8.723v-18.945A11.726,11.726,0,0,1-148.1-427.511a11.726,11.726,0,0,1,11.726,11.726v18.945a8.723,8.723,0,0,1-8.723,8.723" transform="translate(159.826 427.511)" fill="#6c5e69"/>
          </g>
          <g id="g3787" transform="translate(48.633 10.425)">
            <path id="path3789" d="M-16,0h0a11.819,11.819,0,0,0-1.624.112,11.728,11.728,0,0,1,10.1,11.613V30.671a8.723,8.723,0,0,1-8.723,8.723H-13a8.724,8.724,0,0,0,8.723-8.723V11.726A11.726,11.726,0,0,0-16,0" transform="translate(17.623)" fill="#574d56"/>
          </g>
          <g id="g3791" transform="translate(38.531 10.425)">
            <path id="path3793" d="M-145.1-388.117h-6a8.723,8.723,0,0,1-8.723-8.723v-18.945A11.726,11.726,0,0,1-148.1-427.511a11.726,11.726,0,0,1,11.726,11.726v18.945A8.723,8.723,0,0,1-145.1-388.117Z" transform="translate(159.826 427.511)" fill="none" stroke="#000" stroke-linecap="round" stroke-linejoin="round" stroke-miterlimit="10" stroke-width="1.5"/>
          </g>
          <g id="g3795" transform="translate(39.186 40.01)">
            <path id="path3797" d="M-197.794-203.865h-18.012a2.065,2.065,0,0,1-2.065-2.065v-7.557A11.071,11.071,0,0,1-206.8-224.558a11.071,11.071,0,0,1,11.071,11.071v7.557a2.065,2.065,0,0,1-2.065,2.065" transform="translate(217.87 224.558)" fill="#ff6c53"/>
          </g>
          <g id="g3799" transform="translate(48.864 40.01)">
            <path id="path3801" d="M-13.722,0h0a11.18,11.18,0,0,0-1.393.087A11.073,11.073,0,0,1-5.437,11.071v7.557A2.065,2.065,0,0,1-7.5,20.693h2.786a2.065,2.065,0,0,0,2.065-2.065V11.071A11.071,11.071,0,0,0-13.722,0" transform="translate(15.115)" fill="#ff534a"/>
          </g>
          <g id="g3803" transform="translate(39.186 40.01)">
            <path id="path3805" d="M-144.173-203.865h5.443a2.065,2.065,0,0,0,2.065-2.065v-7.557a11.071,11.071,0,0,0-11.071-11.071,11.071,11.071,0,0,0-11.071,11.071v7.557a2.065,2.065,0,0,0,2.065,2.065h9.006" transform="translate(158.806 224.558)" fill="none" stroke="#000" stroke-linecap="round" stroke-linejoin="round" stroke-miterlimit="10" stroke-width="1.5"/>
          </g>
          <g id="g3807" transform="translate(48.043 36.63)">
            <path id="path3809" d="M-21.814-72.779h0a2.214,2.214,0,0,1-2.214-2.214v-5.173H-19.6v5.173a2.214,2.214,0,0,1-2.214,2.214" transform="translate(24.028 80.166)" fill="#ffb29f"/>
          </g>
          <g id="g3811" transform="translate(48.043 36.63)">
            <path id="path3813" d="M-21.814-72.779h0a2.214,2.214,0,0,1-2.214-2.214v-5.173H-19.6v5.173A2.214,2.214,0,0,1-21.814-72.779Z" transform="translate(24.028 80.166)" fill="none" stroke="#000" stroke-linecap="round" stroke-linejoin="round" stroke-miterlimit="10" stroke-width="1.5"/>
          </g>
          <g id="g3815" transform="translate(41.472 22.144)">
            <path id="path3817" d="M0-10.5V-3.72A8.785,8.785,0,0,0,8.785,5.065,8.785,8.785,0,0,0,17.57-3.72v-6.9a.741.741,0,0,0-.955-.708c-2.135.643-3.242.384-5.288-.212a.741.741,0,0,0-.652.113C8.385-9.7,4.157-9.94,1.016-11.188A.741.741,0,0,0,0-10.5" transform="translate(0 11.567)" fill="#ffe0cf"/>
          </g>
          <g id="g3819" transform="translate(48.956 22.354)">
            <path id="path3821" d="M-89.962-.316A8.419,8.419,0,0,1-91.7.038a.734.734,0,0,1,.091.355v6.9a8.786,8.786,0,0,1-7.484,8.689,8.842,8.842,0,0,0,1.3.1,8.785,8.785,0,0,0,8.785-8.785V.393a.741.741,0,0,0-.955-.709" transform="translate(99.093 0.348)" fill="#ffcfc0"/>
          </g>
          <g id="g3823" transform="translate(41.472 22.144)">
            <path id="path3825" d="M0-10.5V-3.72A8.785,8.785,0,0,0,8.785,5.065,8.785,8.785,0,0,0,17.57-3.72v-6.9a.741.741,0,0,0-.955-.708c-2.135.643-3.242.384-5.288-.212a.741.741,0,0,0-.652.113C8.385-9.7,4.157-9.94,1.016-11.188A.741.741,0,0,0,0-10.5Z" transform="translate(0 11.567)" fill="none" stroke="#000" stroke-linecap="round" stroke-linejoin="round" stroke-miterlimit="10" stroke-width="1.5"/>
          </g>
          <g id="g3827" transform="translate(44.351 50.357)">
            <path id="path3829" d="M-90.763-51.2h-6.614a2.6,2.6,0,0,1-2.6-2.6,2.6,2.6,0,0,1,2.6-2.6h6.614a2.6,2.6,0,0,1,2.6,2.6,2.6,2.6,0,0,1-2.6,2.6" transform="translate(99.976 56.401)" fill="#ffe270"/>
          </g>
          <g id="g3831" transform="translate(50.961 50.357)">
            <path id="path3833" d="M-25.645,0h-2.6a2.6,2.6,0,0,1,2.6,2.6,2.6,2.6,0,0,1-2.6,2.6h2.6a2.6,2.6,0,0,0,2.6-2.6,2.6,2.6,0,0,0-2.6-2.6" transform="translate(28.248)" fill="#ffd250"/>
          </g>
          <g id="g3835" transform="translate(44.351 50.357)">
            <path id="path3837" d="M-90.763-51.2h-6.614a2.6,2.6,0,0,1-2.6-2.6,2.6,2.6,0,0,1,2.6-2.6h6.614a2.6,2.6,0,0,1,2.6,2.6A2.6,2.6,0,0,1-90.763-51.2Z" transform="translate(99.976 56.401)" fill="none" stroke="#000" stroke-linecap="round" stroke-linejoin="round" stroke-miterlimit="10" stroke-width="1.5"/>
          </g>
          <g id="g3839" transform="translate(12.847 2.204)">
            <path id="path3841" d="M-354.389,0h-34.734a1.237,1.237,0,0,0-1.237,1.237v12.14a1.237,1.237,0,0,0,1.237,1.237h13.575a1.237,1.237,0,0,1,1.07.616l1.658,2.86a1.237,1.237,0,0,0,2.142,0l1.641-2.853a1.236,1.236,0,0,1,1.072-.62h13.577a1.237,1.237,0,0,0,1.237-1.237V1.237A1.236,1.236,0,0,0-354.389,0" transform="translate(390.36)" fill="#9ff497"/>
          </g>
          <g id="g3843" transform="translate(45.743 2.204)">
            <path id="path3845" d="M-30.3,0h-3.075a1.237,1.237,0,0,1,1.237,1.237v12.14a1.237,1.237,0,0,1-1.237,1.237H-30.3a1.237,1.237,0,0,0,1.237-1.237V1.237A1.236,1.236,0,0,0-30.3,0" transform="translate(33.373)" fill="#6ce79a"/>
          </g>
          <g id="g3847" transform="translate(20.327 6.418)">
            <path id="path3849" d="M-56.172-60.931l-2.468-5.93a.414.414,0,0,0-.764,0l-2.469,5.93" transform="translate(61.873 67.115)" fill="none" stroke="#000" stroke-linecap="round" stroke-linejoin="round" stroke-miterlimit="10" stroke-width="1.5"/>
          </g>
          <g id="g3851" transform="translate(21.421 10.766)">
            <path id="path3853" d="M0,0H3.512" fill="none" stroke="#000" stroke-linecap="round" stroke-linejoin="round" stroke-miterlimit="10" stroke-width="1.5"/>
          </g>
          <g id="g3855" transform="translate(36.874 6.418)">
            <path id="path3857" d="M-4.329,0H.933l-5.7,6.185H.494" transform="translate(4.768)" fill="none" stroke="#000" stroke-linecap="round" stroke-linejoin="round" stroke-miterlimit="10" stroke-width="1.5"/>
          </g>
          <g id="g3859" transform="translate(30.308 9.51)">
            <path id="path3861" d="M0,0H2.442" fill="none" stroke="#000" stroke-linecap="round" stroke-linejoin="round" stroke-miterlimit="10" stroke-width="1.5"/>
          </g>
          <g id="g3863" transform="translate(12.847 2.204)">
            <path id="path3865" d="M-241.944,0h-23.321A1.237,1.237,0,0,0-266.5,1.237v12.14a1.237,1.237,0,0,0,1.237,1.237h13.575a1.237,1.237,0,0,1,1.07.616l1.658,2.86a1.237,1.237,0,0,0,2.142,0l1.641-2.853a1.236,1.236,0,0,1,1.072-.62h13.577a1.237,1.237,0,0,0,1.237-1.237V1.237A1.237,1.237,0,0,0-230.531,0h-7.85" transform="translate(266.502)" fill="none" stroke="#000" stroke-linecap="round" stroke-linejoin="round" stroke-miterlimit="10" stroke-width="1.5"/>
          </g>
        </g>
      </g>
    </g>
  </g>
</svg>
