<svg xmlns="http://www.w3.org/2000/svg" xmlns:xlink="http://www.w3.org/1999/xlink" width="113" height="113" viewBox="0 0 113 113">
  <defs>
    <filter id="Trazado_982547" x="0" y="0" width="113" height="113" filterUnits="userSpaceOnUse">
      <feOffset dy="3" input="SourceAlpha"/>
      <feGaussianBlur stdDeviation="3" result="blur"/>
      <feFlood flood-opacity="0.161"/>
      <feComposite operator="in" in2="blur"/>
      <feComposite in="SourceGraphic"/>
    </filter>
  </defs>
  <g id="Grupo_1224612" data-name="Grupo 1224612" transform="translate(-413 -5449.421)">
    <g id="Grupo_1209316" data-name="Grupo 1209316" transform="translate(-699 4219.205)">
      <g id="Grupo_1209049" data-name="Grupo 1209049">
        <g id="Grupo_1208493" data-name="Grupo 1208493" transform="translate(0 -4397.209)">
          <g id="Grupo_1202104" data-name="Grupo 1202104" transform="translate(0 -1149.226)">
            <g id="Grupo_1201923" data-name="Grupo 1201923" transform="translate(-4174.49 4856.378)">
              <g id="Grupo_1176928" data-name="Grupo 1176928" transform="translate(5295.49 1926.273)">
                <g id="Grupo_1172322" data-name="Grupo 1172322" transform="translate(0 0)">
                  <g id="Grupo_1164700" data-name="Grupo 1164700">
                    <g id="Grupo_1160931" data-name="Grupo 1160931">
                      <g id="Grupo_1160749" data-name="Grupo 1160749">
                        <g id="Grupo_1158891" data-name="Grupo 1158891">
                          <g id="Grupo_1157406" data-name="Grupo 1157406">
                            <g id="Grupo_1155793" data-name="Grupo 1155793">
                              <g id="Grupo_1154704" data-name="Grupo 1154704">
                                <g id="Grupo_1150790" data-name="Grupo 1150790">
                                  <g id="Grupo_1154214" data-name="Grupo 1154214">
                                    <g id="Grupo_1152583" data-name="Grupo 1152583">
                                      <g id="Grupo_1146973" data-name="Grupo 1146973">
                                        <g id="Grupo_1146954" data-name="Grupo 1146954">
                                          <g transform="matrix(1, 0, 0, 1, -9, -6)" filter="url(#Trazado_982547)">
                                            <g id="Trazado_982547-2" data-name="Trazado 982547" transform="translate(9 6)" fill="#fcf8db">
                                              <path d="M 47.5000114440918 93.49987030029297 C 41.28938293457031 93.49987030029297 35.26534652709961 92.28384399414062 29.5951976776123 89.88558959960938 C 24.11773109436035 87.56881713867188 19.19814491271973 84.25183868408203 14.97310447692871 80.02680206298828 C 10.74805164337158 75.80176544189453 7.43107795715332 70.88218688964844 5.114304542541504 65.40472412109375 C 2.716038227081299 59.73458862304688 1.500011444091797 53.71054840087891 1.500011444091797 47.49993515014648 C 1.500011444091797 41.28932189941406 2.716038227081299 35.26528167724609 5.114304542541504 29.59514808654785 C 7.43107795715332 24.1176815032959 10.74805164337158 19.1981086730957 14.97310447692871 14.97306823730469 C 19.19814491271973 10.74802875518799 24.11773109436035 7.431055068969727 29.5951976776123 5.11428165435791 C 35.26534652709961 2.716028451919556 41.28938293457031 1.500001788139343 47.5000114440918 1.500001788139343 C 53.71063995361328 1.500001788139343 59.73467636108398 2.716028451919556 65.40482330322266 5.11428165435791 C 70.88229370117188 7.431055068969727 75.8018798828125 10.74802875518799 80.02691650390625 14.97306823730469 C 84.25196838378906 19.1981086730957 87.56894683837891 24.1176815032959 89.88571929931641 29.59514808654785 C 92.28398132324219 35.26528167724609 93.50001525878906 41.28932189941406 93.50001525878906 47.49993515014648 C 93.50001525878906 53.71054840087891 92.28398132324219 59.73458862304688 89.88571929931641 65.40472412109375 C 87.56894683837891 70.88218688964844 84.25196838378906 75.80176544189453 80.02691650390625 80.02680206298828 C 75.8018798828125 84.25183868408203 70.88229370117188 87.56881713867188 65.40482330322266 89.88558959960938 C 59.73467636108398 92.28384399414062 53.71063995361328 93.49987030029297 47.5000114440918 93.49987030029297 Z" stroke="none"/>
                                              <path d="M 47.5000114440918 3 C 41.49122619628906 3 35.66378021240234 4.1761474609375 30.17951965332031 6.495796203613281 C 24.880859375 8.7369384765625 20.12153625488281 11.94596862792969 16.03376770019531 16.03373718261719 C 11.94598388671875 20.12149047851562 8.736968994140625 24.88081359863281 6.495811462402344 30.17947387695312 C 4.176162719726562 35.66371917724609 3.000007629394531 41.49116516113281 3.000007629394531 47.49993515014648 C 3.000007629394531 53.50870513916016 4.176162719726562 59.33615112304688 6.495811462402344 64.82039642333984 C 8.736968994140625 70.11905670166016 11.94598388671875 74.87837982177734 16.03376770019531 78.96613311767578 C 20.12153625488281 83.05390167236328 24.880859375 86.26293182373047 30.17951965332031 88.50407409667969 C 35.66378021240234 90.82372283935547 41.49122619628906 91.99987030029297 47.5000114440918 91.99987030029297 C 53.50879669189453 91.99987030029297 59.33624267578125 90.82372283935547 64.82050323486328 88.50407409667969 C 70.11916351318359 86.26293182373047 74.87848663330078 83.05390167236328 78.96625518798828 78.96613311767578 C 83.05403900146484 74.87837982177734 86.2630615234375 70.11905670166016 88.50421142578125 64.82039642333984 C 90.82386016845703 59.33615112304688 92.00001525878906 53.50870513916016 92.00001525878906 47.49993515014648 C 92.00001525878906 41.49116516113281 90.82386016845703 35.66371917724609 88.50421142578125 30.17947387695312 C 86.2630615234375 24.88081359863281 83.05403900146484 20.12149047851562 78.96625518798828 16.03373718261719 C 74.87848663330078 11.94596862792969 70.11916351318359 8.7369384765625 64.82050323486328 6.495796203613281 C 59.33624267578125 4.1761474609375 53.50879669189453 3 47.5000114440918 3 M 47.5000114440918 0 C 73.73353576660156 0 95.00001525878906 21.26644134521484 95.00001525878906 47.49993515014648 C 95.00001525878906 73.73342895507812 73.73353576660156 94.99987030029297 47.5000114440918 94.99987030029297 C 21.26648712158203 94.99987030029297 7.62939453125e-06 73.73342895507812 7.62939453125e-06 47.49993515014648 C 7.62939453125e-06 21.26644134521484 21.26648712158203 0 47.5000114440918 0 Z" stroke="none" fill="#83793c"/>
                                            </g>
                                          </g>
                                        </g>
                                      </g>
                                    </g>
                                  </g>
                                </g>
                              </g>
                            </g>
                          </g>
                        </g>
                      </g>
                    </g>
                  </g>
                </g>
              </g>
            </g>
          </g>
        </g>
      </g>
    </g>
    <g id="Books" transform="translate(438.899 5473.319)">
      <path id="Trazado_1056563" data-name="Trazado 1056563" d="M27,3H56.441V39.8H27Z" transform="translate(-1.999 -0.08)" fill="#ff7956"/>
      <path id="Trazado_1056564" data-name="Trazado 1056564" d="M55,3h3.68V39.8H55Z" transform="translate(-4.238 -0.08)" fill="#ff5023"/>
      <path id="Trazado_1056565" data-name="Trazado 1056565" d="M56.362,49v5.52H5.76a2.76,2.76,0,0,1,0-5.52Z" transform="translate(-0.08 -3.758)" fill="#a78966"/>
      <path id="Trazado_1056566" data-name="Trazado 1056566" d="M56.362,55v5.52H5.76a2.76,2.76,0,0,1,0-5.52Z" transform="translate(-0.08 -4.238)" fill="#c0ab91"/>
      <path id="Trazado_1056567" data-name="Trazado 1056567" d="M56.362,43v5.52H5.76a2.76,2.76,0,0,1,0-5.52Z" transform="translate(-0.08 -3.279)" fill="#c0ab91"/>
      <path id="Trazado_1056568" data-name="Trazado 1056568" d="M57,49h3.68v5.52H57Z" transform="translate(-4.398 -3.758)" fill="#806749"/>
      <path id="Trazado_1056569" data-name="Trazado 1056569" d="M57,55h3.68v5.52H57Z" transform="translate(-4.398 -4.238)" fill="#a78966"/>
      <path id="Trazado_1056570" data-name="Trazado 1056570" d="M57,43h3.68v5.52H57Z" transform="translate(-4.398 -3.279)" fill="#a78966"/>
      <path id="Trazado_1056571" data-name="Trazado 1056571" d="M54.52,47V57.12l-2.76-1.84L49,57.12V47Z" transform="translate(-3.758 -3.598)" fill="#9cdd05"/>
      <path id="Trazado_1056572" data-name="Trazado 1056572" d="M54.76,47V57.12L52,55.28V47Z" transform="translate(-3.998 -3.598)" fill="#5eac24"/>
      <path id="Trazado_1056573" data-name="Trazado 1056573" d="M52.441,14.369V40.121H23V22.576A11.007,11.007,0,0,0,23.856,7H45.072Z" transform="translate(-1.679 -0.4)" fill="#fee9ab"/>
      <path id="Trazado_1056574" data-name="Trazado 1056574" d="M51,15.01h3.68V40.762H51Z" transform="translate(-3.918 -1.04)" fill="#ffde55"/>
      <path id="Trazado_1056575" data-name="Trazado 1056575" d="M54.351,14.361H47V7.01Z" transform="translate(-3.598 -0.401)" fill="#ffde55"/>
      <circle id="Elipse_13557" data-name="Elipse 13557" cx="9.5" cy="9.5" r="9.5" transform="translate(26.601 15.601)" fill="#ff7956"/>
      <path id="Trazado_1056576" data-name="Trazado 1056576" d="M48.041,26.2A9.2,9.2,0,0,1,37.01,35.217a9.2,9.2,0,0,0,0-18.033A9.2,9.2,0,0,1,48.041,26.2Z" transform="translate(-2.8 -1.199)" fill="#ff5023"/>
      <path id="Trazado_1056577" data-name="Trazado 1056577" d="M25.077,14.04a11.064,11.064,0,1,1-2.825-7.36A11.064,11.064,0,0,1,25.077,14.04Z" transform="translate(-0.076 -0.08)" fill="#c0ab91"/>
      <circle id="Elipse_13558" data-name="Elipse 13558" cx="7.5" cy="7.5" r="7.5" transform="translate(6.601 6.601)" fill="#bdfdff"/>
      <path id="Trazado_1056578" data-name="Trazado 1056578" d="M18.36,31V42.04a3.68,3.68,0,0,1-7.36,0V31Z" transform="translate(-0.72 -2.319)" fill="#898890"/>
      <path id="Trazado_1056579" data-name="Trazado 1056579" d="M16.68,26.83v3.837H13V26.83A10.9,10.9,0,0,0,16.68,26.83Z" transform="translate(-0.88 -1.986)" fill="#c6c5ca"/>
      <path id="Trazado_1056580" data-name="Trazado 1056580" d="M25.88,14.04A11.029,11.029,0,0,1,13,24.924,11.04,11.04,0,0,0,13,3.156,11.029,11.029,0,0,1,25.88,14.04Z" transform="translate(-0.88 -0.08)" fill="#a78966"/>
      <path id="Trazado_1056581" data-name="Trazado 1056581" d="M22.2,14.36a7.37,7.37,0,0,1-7.36,7.36,7.452,7.452,0,0,1-1.831-.23,7.369,7.369,0,0,0,0-14.261A7.452,7.452,0,0,1,14.841,7a7.37,7.37,0,0,1,7.36,7.36Z" transform="translate(-0.88 -0.4)" fill="#46f8ff"/>
      <path id="Trazado_1056582" data-name="Trazado 1056582" d="M16.84,26.83v3.837H15v-3.68a11.04,11.04,0,0,0,1.84-.156Z" transform="translate(-1.04 -1.986)" fill="#898890"/>
      <path id="Trazado_1056583" data-name="Trazado 1056583" d="M18.52,31V42.04A3.675,3.675,0,0,1,13,45.224a3.662,3.662,0,0,0,1.84-3.183V31Z" transform="translate(-0.88 -2.319)" fill="#57565c"/>
      <path id="Trazado_1056584" data-name="Trazado 1056584" d="M56.282,38.8h-.92V2.92a.92.92,0,0,0-.92-.92H25a.92.92,0,0,0-.92.92V5.68h-1.51A11.95,11.95,0,1,0,11.2,25.587v2.174h-.92a.92.92,0,0,0-.92.92V38.8H5.68a3.664,3.664,0,0,0-2.408,6.44c-.063.055-.133.1-.193.159a3.651,3.651,0,0,0,.193,5.361c-.063.055-.133.1-.193.159A3.68,3.68,0,0,0,5.68,57.2h50.6a.92.92,0,0,0,.92-.92V39.721A.92.92,0,0,0,56.282,38.8Zm-4.6,7.36h3.68v3.68h-3.68ZM25.921,3.84h27.6V38.8h-1.84V13.97a.92.92,0,0,0-.269-.65L44.046,5.95a.92.92,0,0,0-.653-.27H25.921Zm18.4,4.99,4.21,4.21h-4.21Zm-1.84-1.31v6.44a.92.92,0,0,0,.92.92h6.44V38.8h-27.6V22.571A11.9,11.9,0,0,0,24.023,7.52ZM18.561,38.8V28.681a.92.92,0,0,0-.92-.92h-.92V25.587a11.909,11.909,0,0,0,3.68-1.564V38.8ZM3.84,13.96a10.12,10.12,0,1,1,10.12,10.12A10.12,10.12,0,0,1,3.84,13.96Zm9.2,11.914c.3.024.609.047.92.047s.616-.023.92-.047v1.887H13.04ZM11.2,29.6h5.52v10.12a2.76,2.76,0,0,1-5.52,0ZM3.84,42.481a1.84,1.84,0,0,1,1.84-1.84H9.452a4.6,4.6,0,0,0,9.016,0H55.362v3.68h-3.68V43.4a.92.92,0,0,0-.92-.92h-5.52a.92.92,0,0,0-.92.92v.92H5.68A1.84,1.84,0,0,1,3.84,42.481Zm46,1.84V51.8l-1.329-.886a.92.92,0,0,0-1.021,0l-1.329.886V44.322ZM3.84,48a1.84,1.84,0,0,1,1.84-1.84H44.322v3.68H5.68A1.84,1.84,0,0,1,3.84,48Zm51.522,7.36H5.68a1.84,1.84,0,0,1,0-3.68H44.322v1.84a.92.92,0,0,0,1.431.765L48,52.786l2.249,1.5a.92.92,0,0,0,1.431-.764v-1.84h3.68Z" transform="translate(0)"/>
      <path id="Trazado_1056585" data-name="Trazado 1056585" d="M38.12,36.241A10.12,10.12,0,1,0,28,26.12,10.12,10.12,0,0,0,38.12,36.241Zm0-18.4a8.28,8.28,0,1,1-8.28,8.28,8.28,8.28,0,0,1,8.28-8.28Z" transform="translate(-2.079 -1.12)"/>
      <path id="Trazado_1056586" data-name="Trazado 1056586" d="M35.067,30.915a.92.92,0,0,0,1.3,0l7.806-7.806-1.3-1.3-7.156,7.156-1.952-1.952-1.3,1.3Z" transform="translate(-2.436 -1.584)"/>
      <path id="Trazado_1056587" data-name="Trazado 1056587" d="M22.561,14.28a8.28,8.28,0,1,0-8.28,8.28,8.28,8.28,0,0,0,8.28-8.28Zm-14.721,0a6.44,6.44,0,1,1,6.44,6.44,6.44,6.44,0,0,1-6.44-6.44Z" transform="translate(-0.32 -0.32)"/>
      <path id="Trazado_1056588" data-name="Trazado 1056588" d="M14.6,10A4.606,4.606,0,0,0,10,14.6h1.84a2.76,2.76,0,0,1,2.76-2.76Z" transform="translate(-0.64 -0.64)"/>
      <path id="Trazado_1056589" data-name="Trazado 1056589" d="M14,34h1.84v1.84H14Z" transform="translate(-0.96 -2.559)"/>
      <path id="Trazado_1056590" data-name="Trazado 1056590" d="M14,38h1.84v5.52H14Z" transform="translate(-0.96 -2.879)"/>
    </g>
  </g>
</svg>
