<svg xmlns="http://www.w3.org/2000/svg" xmlns:xlink="http://www.w3.org/1999/xlink" width="113" height="113" viewBox="0 0 113 113">
  <defs>
    <filter id="Trazado_982547" x="0" y="0" width="113" height="113" filterUnits="userSpaceOnUse">
      <feOffset dy="3" input="SourceAlpha"/>
      <feGaussianBlur stdDeviation="3" result="blur"/>
      <feFlood flood-opacity="0.161"/>
      <feComposite operator="in" in2="blur"/>
      <feComposite in="SourceGraphic"/>
    </filter>
  </defs>
  <g id="Grupo_1225323" data-name="Grupo 1225323" transform="translate(-1216.232 -7597.76)">
    <g id="Grupo_1225191" data-name="Grupo 1225191" transform="translate(0 2856.764)">
      <g id="Grupo_1224650" data-name="Grupo 1224650" transform="translate(0 1927)">
        <g id="Grupo_1224294" data-name="Grupo 1224294" transform="translate(0.723 859.245)">
          <g id="Grupo_1224094" data-name="Grupo 1224094" transform="translate(541.51 -2620.317)">
            <g id="Grupo_1223184" data-name="Grupo 1223184" transform="translate(683 4581.069)">
              <g id="Grupo_1211216" data-name="Grupo 1211216" transform="translate(0)">
                <g id="Grupo_1210737" data-name="Grupo 1210737">
                  <g id="Grupo_1210537" data-name="Grupo 1210537">
                    <g id="Grupo_1164202" data-name="Grupo 1164202">
                      <g id="Grupo_1158168" data-name="Grupo 1158168">
                        <g id="Grupo_1152576" data-name="Grupo 1152576">
                          <g id="Grupo_1148633" data-name="Grupo 1148633">
                            <g id="Grupo_1148525" data-name="Grupo 1148525">
                              <g transform="matrix(1, 0, 0, 1, -9, -6)" filter="url(#Trazado_982547)">
                                <g id="Trazado_982547-2" data-name="Trazado 982547" transform="translate(9 6)" fill="#fdfbec">
                                  <path d="M 47.49999618530273 93.5 C 41.28936767578125 93.5 35.26533126831055 92.28396606445312 29.59518241882324 89.88570404052734 C 24.11771583557129 87.56893157958984 19.19812965393066 84.251953125 14.97308921813965 80.02690124511719 C 10.74803638458252 75.80186462402344 7.431062698364258 70.88227844238281 5.114289283752441 65.40480804443359 C 2.716022968292236 59.73466110229492 1.499996185302734 53.71062469482422 1.499996185302734 47.49999618530273 C 1.499996185302734 41.28936767578125 2.716022968292236 35.26533126831055 5.114289283752441 29.59518241882324 C 7.431062698364258 24.11771583557129 10.74803638458252 19.19812965393066 14.97308921813965 14.97308921813965 C 19.19812965393066 10.74803638458252 24.11771583557129 7.431062698364258 29.59518241882324 5.114289283752441 C 35.26533126831055 2.716022968292236 41.28936767578125 1.499996185302734 47.49999618530273 1.499996185302734 C 53.71062469482422 1.499996185302734 59.73466110229492 2.716022968292236 65.40480804443359 5.114289283752441 C 70.88227844238281 7.431062698364258 75.80186462402344 10.74803638458252 80.02690124511719 14.97308921813965 C 84.251953125 19.19812965393066 87.56893157958984 24.11771583557129 89.88570404052734 29.59518241882324 C 92.28396606445312 35.26533126831055 93.5 41.28936767578125 93.5 47.49999618530273 C 93.5 53.71062469482422 92.28396606445312 59.73466110229492 89.88570404052734 65.40480804443359 C 87.56893157958984 70.88227844238281 84.251953125 75.80186462402344 80.02690124511719 80.02690124511719 C 75.80186462402344 84.251953125 70.88227844238281 87.56893157958984 65.40480804443359 89.88570404052734 C 59.73466110229492 92.28396606445312 53.71062469482422 93.5 47.49999618530273 93.5 Z" stroke="none"/>
                                  <path d="M 47.49999618530273 2.999992370605469 C 41.4912109375 2.999992370605469 35.66376495361328 4.1761474609375 30.17950439453125 6.495796203613281 C 24.88084411621094 8.736953735351562 20.12152099609375 11.94598388671875 16.03375244140625 16.03375244140625 C 11.94598388671875 20.12152099609375 8.736953735351562 24.88084411621094 6.495796203613281 30.17950439453125 C 4.1761474609375 35.66376495361328 2.999992370605469 41.4912109375 2.999992370605469 47.49999618530273 C 2.999992370605469 53.50878143310547 4.1761474609375 59.33622741699219 6.495796203613281 64.82048797607422 C 8.736953735351562 70.11914825439453 11.94598388671875 74.87847137451172 16.03375244140625 78.96623992919922 C 20.12152099609375 83.05400848388672 24.88084411621094 86.26304626464844 30.17950439453125 88.50419616699219 C 35.66376495361328 90.82384490966797 41.4912109375 92 47.49999618530273 92 C 53.50878143310547 92 59.33622741699219 90.82384490966797 64.82048797607422 88.50419616699219 C 70.11914825439453 86.26304626464844 74.87847137451172 83.05400848388672 78.96623992919922 78.96623992919922 C 83.05400848388672 74.87847137451172 86.26304626464844 70.11914825439453 88.50419616699219 64.82048797607422 C 90.82384490966797 59.33622741699219 92 53.50878143310547 92 47.49999618530273 C 92 41.4912109375 90.82384490966797 35.66376495361328 88.50419616699219 30.17950439453125 C 86.26304626464844 24.88084411621094 83.05400848388672 20.12152099609375 78.96623992919922 16.03375244140625 C 74.87847137451172 11.94598388671875 70.11914825439453 8.736953735351562 64.82048797607422 6.495796203613281 C 59.33622741699219 4.1761474609375 53.50878143310547 2.999992370605469 47.49999618530273 2.999992370605469 M 47.49999618530273 -7.62939453125e-06 C 73.7335205078125 -7.62939453125e-06 95 21.26647186279297 95 47.49999618530273 C 95 73.7335205078125 73.7335205078125 95 47.49999618530273 95 C 21.26647186279297 95 -7.62939453125e-06 73.7335205078125 -7.62939453125e-06 47.49999618530273 C -7.62939453125e-06 21.26647186279297 21.26647186279297 -7.62939453125e-06 47.49999618530273 -7.62939453125e-06 Z" stroke="none" fill="#83793c"/>
                                </g>
                              </g>
                            </g>
                          </g>
                        </g>
                      </g>
                    </g>
                  </g>
                </g>
              </g>
            </g>
          </g>
        </g>
      </g>
    </g>
    <g id="gossip_3321916" transform="translate(1241 7619)">
      <g id="Grupo_1225321" data-name="Grupo 1225321">
        <g id="Grupo_1225309" data-name="Grupo 1225309">
          <path id="Trazado_1057139" data-name="Trazado 1057139" d="M52,49v3.56a3.433,3.433,0,0,1-4.53,3.26L40,53.33V49.99A15.976,15.976,0,0,1,50.26,35.06L53,34l.06-.03A8.005,8.005,0,0,0,55.2,36.4l.8.6a9.993,9.993,0,0,1,4,8v4Z" fill="#fcd770"/>
        </g>
        <g id="Grupo_1225310" data-name="Grupo 1225310">
          <path id="Trazado_1057140" data-name="Trazado 1057140" d="M48,12a2.015,2.015,0,0,1-2,2H32l2.15-4.31L30,9l.09-.12a18.627,18.627,0,0,1,9.98-6.4A16.182,16.182,0,0,1,43.99,2h2.88a15.13,15.13,0,0,1,8.68,27.52l-3.33,2.33A8.142,8.142,0,0,1,52,30V24h1a3,3,0,0,0,0-6H52V16A4,4,0,0,0,48,12Z" fill="#b27946"/>
        </g>
        <g id="Grupo_1225311" data-name="Grupo 1225311">
          <path id="Trazado_1057141" data-name="Trazado 1057141" d="M40.07,2.48a18.628,18.628,0,0,0-9.98,6.4L30,9l4.15.69L32,14h4v5.17A6.677,6.677,0,0,1,35.38,22H30v2.76a1.236,1.236,0,0,1-2.34.56L26,22H9a1,1,0,0,1-1-1V3A1,1,0,0,1,9,2H43.99A16.182,16.182,0,0,0,40.07,2.48Z" fill="#e6e9ed"/>
        </g>
        <g id="Grupo_1225312" data-name="Grupo 1225312">
          <path id="Trazado_1057142" data-name="Trazado 1057142" d="M24,31V41a1,1,0,0,1-1,1H20v2.76a1.236,1.236,0,0,1-2.34.56L16,42H3a1,1,0,0,1-1-1V31a1,1,0,0,1,1-1H23A1,1,0,0,1,24,31Z" fill="#e6e9ed"/>
        </g>
        <g id="Grupo_1225313" data-name="Grupo 1225313">
          <path id="Trazado_1057143" data-name="Trazado 1057143" d="M26,51v6a1,1,0,0,1-1,1H22v2.59a1.414,1.414,0,0,1-2.41,1L16,58H11a1,1,0,0,1-1-1V51a1,1,0,0,1,1-1H25A1,1,0,0,1,26,51Z" fill="#ffeaa7"/>
        </g>
        <g id="Grupo_1225314" data-name="Grupo 1225314">
          <path id="Trazado_1057144" data-name="Trazado 1057144" d="M36,40V52H33a2.772,2.772,0,0,0-1,.18V40a1,1,0,0,1,1-1h2A1,1,0,0,1,36,40Z" fill="#969faa"/>
        </g>
        <g id="Grupo_1225315" data-name="Grupo 1225315">
          <path id="Trazado_1057145" data-name="Trazado 1057145" d="M60,49v2.1A10.9,10.9,0,0,1,45.05,61.22L37,58H33a3,3,0,0,1-2.12-5.12,2.838,2.838,0,0,1,1.12-.7A2.772,2.772,0,0,1,33,52h3l4,1.33,7.47,2.49A3.442,3.442,0,0,0,52,52.56V49Z" fill="#f0d0b4"/>
        </g>
        <g id="Grupo_1225316" data-name="Grupo 1225316">
          <path id="Trazado_1057146" data-name="Trazado 1057146" d="M52.22,31.85a7.756,7.756,0,0,0,.84,2.12L53,34l-2.74,1.06A15.851,15.851,0,0,0,46,37.5V32l-5.47,1.82a3.367,3.367,0,0,1-1.09.18A3.44,3.44,0,0,1,36,30.56V30h2a4,4,0,0,0,4-4H36l-2-2a6.9,6.9,0,0,0,2-4.83V14H46a2.015,2.015,0,0,0,2-2,4,4,0,0,1,4,4v2h1a3,3,0,0,1,0,6H52v6a8.142,8.142,0,0,0,.22,1.85Z" fill="#f0d0b4"/>
        </g>
        <g id="Grupo_1225317" data-name="Grupo 1225317">
          <path id="Trazado_1057147" data-name="Trazado 1057147" d="M36,26h6a4,4,0,0,1-4,4H36Z" fill="#ff826e"/>
        </g>
        <g id="Grupo_1225318" data-name="Grupo 1225318">
          <path id="Trazado_1057148" data-name="Trazado 1057148" d="M26,15a3,3,0,0,1-6,0,1,1,0,0,1,1-1h4a1,1,0,0,1,1,1Z" fill="#ff826e"/>
        </g>
        <g id="Grupo_1225319" data-name="Grupo 1225319">
          <circle id="Elipse_13594" data-name="Elipse 13594" cx="2" cy="2" r="2" transform="translate(26 6)" fill="#838f9b"/>
        </g>
        <g id="Grupo_1225320" data-name="Grupo 1225320">
          <circle id="Elipse_13595" data-name="Elipse 13595" cx="2" cy="2" r="2" transform="translate(16 6)" fill="#838f9b"/>
        </g>
      </g>
      <g id="Grupo_1225322" data-name="Grupo 1225322">
        <circle id="Elipse_13596" data-name="Elipse 13596" cx="1" cy="1" r="1" transform="translate(40 17)"/>
        <path id="Trazado_1057149" data-name="Trazado 1057149" d="M56.6,36.2l-.8-.6a7.024,7.024,0,0,1-2.417-3.347l2.739-1.917A16.126,16.126,0,0,0,46.875,1H9A2,2,0,0,0,7,3V21a2,2,0,0,0,2,2H25.382l1.383,2.765a2.236,2.236,0,0,0,4.235-1V23h2.559c-.087.1-.172.2-.266.293L32.586,24,35,26.414v4.145a4.441,4.441,0,0,0,5.846,4.213L45,33.388V37.06a17.093,17.093,0,0,0-6,12.929v1.957l-2-.667V40a2,2,0,0,0-2-2H33a2,2,0,0,0-2,2V51.556A3.987,3.987,0,0,0,33,59h3.808l7.872,3.149A11.9,11.9,0,0,0,61,51.1V45a11.057,11.057,0,0,0-4.4-8.8ZM46.875,3a14.126,14.126,0,0,1,8.1,25.7L53,30.077C53,30.051,53,30.026,53,30V25a4,4,0,0,0,0-8V16a5,5,0,0,0-4.158-4.915A2.993,2.993,0,0,0,46,9H45v2h1a1,1,0,0,1,0,2H33.618l1.1-2.2,1.117.186.328-1.973-4.235-.706a17.642,17.642,0,0,1,8.381-4.854A15.2,15.2,0,0,1,43.991,3ZM29,21v3.764a.245.245,0,0,1-.447.1L26.618,21H9V3H35.853A19.672,19.672,0,0,0,30.7,6.721,3,3,0,0,0,28,5H23V7h2.184A2.966,2.966,0,0,0,25,8a2.991,2.991,0,0,0,5.183,2.044l2.471.412L30.382,15H35v4.171A5.84,5.84,0,0,1,34.7,21ZM28,7a1,1,0,1,1-1,1A1,1,0,0,1,28,7Zm9,20h3.829A3.006,3.006,0,0,1,38,29H37Zm10,5.721,2.316-.772-.633-1.9-8.47,2.823A2.438,2.438,0,0,1,37.044,31H38a5.006,5.006,0,0,0,5-5V25H36.414L35.37,23.956A7.773,7.773,0,0,0,37,19.172V15h9a3,3,0,0,0,2.78-1.884A3,3,0,0,1,51,16v3h2a2,2,0,0,1,0,4H51v7a8.961,8.961,0,0,0,.7,3.429l-1.8.693A16.7,16.7,0,0,0,47,35.587V32.721ZM33,40h2V51H33ZM49.1,61a9.866,9.866,0,0,1-3.678-.708L37.192,57H33a2,2,0,1,1,0-4h2.838l11.315,3.772A4.442,4.442,0,0,0,53,52.559V50h6v1.1A9.911,9.911,0,0,1,49.1,61ZM59,48H53V45.236a8.522,8.522,0,0,1,.9-3.789l-1.789-.894A10.52,10.52,0,0,0,51,45.236v7.323a2.442,2.442,0,0,1-3.213,2.316L41,52.613V49.989a15.089,15.089,0,0,1,9.615-14l2.058-.791a8.939,8.939,0,0,0,1.926,2l.8.6A9.043,9.043,0,0,1,59,45Z"/>
        <path id="Trazado_1057150" data-name="Trazado 1057150" d="M13,53h2v2H13Z"/>
        <path id="Trazado_1057151" data-name="Trazado 1057151" d="M17,53h2v2H17Z"/>
        <path id="Trazado_1057152" data-name="Trazado 1057152" d="M21,53h2v2H21Z"/>
        <path id="Trazado_1057153" data-name="Trazado 1057153" d="M25,49H11a2,2,0,0,0-2,2v6a2,2,0,0,0,2,2h4.586l3.292,3.292A2.414,2.414,0,0,0,23,60.586V59h2a2,2,0,0,0,2-2V51A2,2,0,0,0,25,49Zm-4,8v3.586a.43.43,0,0,1-.707.293L16.414,57H11V51H25v6Z"/>
        <path id="Trazado_1057154" data-name="Trazado 1057154" d="M16.765,45.765a2.236,2.236,0,0,0,4.235-1V43h2a2,2,0,0,0,2-2V31a2,2,0,0,0-2-2H3a2,2,0,0,0-2,2V41a2,2,0,0,0,2,2H15.382ZM3,31H23V41H19v3.764a.245.245,0,0,1-.447.1L16.618,41H3Z"/>
        <path id="Trazado_1057155" data-name="Trazado 1057155" d="M5,37h8v2H5Z"/>
        <path id="Trazado_1057156" data-name="Trazado 1057156" d="M5,33h6v2H5Z"/>
        <path id="Trazado_1057157" data-name="Trazado 1057157" d="M13,33h8v2H13Z"/>
        <path id="Trazado_1057158" data-name="Trazado 1057158" d="M15,37h2v2H15Z"/>
        <path id="Trazado_1057159" data-name="Trazado 1057159" d="M19,37h2v2H19Z"/>
        <path id="Trazado_1057160" data-name="Trazado 1057160" d="M21,8a3,3,0,0,0-3-3H13V7h2.184A2.966,2.966,0,0,0,15,8a3,3,0,0,0,6,0ZM18,9a1,1,0,1,1,1-1A1,1,0,0,1,18,9Z"/>
        <path id="Trazado_1057161" data-name="Trazado 1057161" d="M25,13H21a2,2,0,0,0-2,2,4,4,0,0,0,8,0A2,2,0,0,0,25,13Zm-2,4a2,2,0,0,1-2-2h4A2,2,0,0,1,23,17Z"/>
      </g>
    </g>
  </g>
</svg>
