<svg xmlns="http://www.w3.org/2000/svg" xmlns:xlink="http://www.w3.org/1999/xlink" width="98" height="98" viewBox="0 0 98 98">
  <defs>
    <filter id="Trazado_982547" x="0" y="-0.001" width="98" height="98" filterUnits="userSpaceOnUse">
      <feOffset dy="3" input="SourceAlpha"/>
      <feGaussianBlur stdDeviation="3" result="blur"/>
      <feFlood flood-opacity="0.161"/>
      <feComposite operator="in" in2="blur"/>
      <feComposite in="SourceGraphic"/>
    </filter>
    <clipPath id="clip-path">
      <path id="path8121" d="M0-682.665H48.414v48.414H0Z" transform="translate(0 682.665)"/>
    </clipPath>
  </defs>
  <g id="Grupo_1224706" data-name="Grupo 1224706" transform="translate(-601 -9832.182)">
    <g id="Grupo_1224518" data-name="Grupo 1224518" transform="translate(405 3231.536)">
      <g id="Grupo_1208715" data-name="Grupo 1208715" transform="translate(5 4679.811)">
        <g id="Grupo_1208171" data-name="Grupo 1208171" transform="translate(0 -2047.18)">
          <g id="Grupo_1207739" data-name="Grupo 1207739" transform="translate(0 1882.462)">
            <g id="Grupo_1207712" data-name="Grupo 1207712">
              <g id="Grupo_1207285" data-name="Grupo 1207285" transform="translate(0 344.552)">
                <g id="Grupo_1206883" data-name="Grupo 1206883" transform="translate(0 -209)">
                  <g id="Grupo_1204569" data-name="Grupo 1204569" transform="translate(-81 -1890.336)">
                    <g id="Grupo_1203962" data-name="Grupo 1203962" transform="translate(281 3846.336)">
                      <g id="Grupo_1203498" data-name="Grupo 1203498" transform="translate(0)">
                        <g id="Grupo_1202589" data-name="Grupo 1202589">
                          <g id="Grupo_1172010" data-name="Grupo 1172010">
                            <g id="Grupo_1171046" data-name="Grupo 1171046">
                              <g id="Grupo_1148525" data-name="Grupo 1148525">
                                <g transform="matrix(1, 0, 0, 1, -9, -6)" filter="url(#Trazado_982547)">
                                  <g id="Trazado_982547-2" data-name="Trazado 982547" transform="translate(9 6)" fill="#fdfbec">
                                    <path d="M 39.99999237060547 78.49998474121094 C 34.8018684387207 78.49998474121094 29.76002502441406 77.48226165771484 25.0145263671875 75.47508239746094 C 20.43014717102051 73.53604888916016 16.31264877319336 70.75984954833984 12.77639198303223 67.22359466552734 C 9.240137100219727 63.68733596801758 6.463936805725098 59.5698356628418 4.524903297424316 54.98546981811523 C 2.517725706100464 50.23995971679688 1.500003457069397 45.19811630249023 1.500003457069397 39.99999237060547 C 1.500003457069397 34.8018684387207 2.517725706100464 29.76002502441406 4.524903297424316 25.0145263671875 C 6.463936805725098 20.43014717102051 9.240137100219727 16.31264877319336 12.77639198303223 12.77639198303223 C 16.31264877319336 9.240137100219727 20.43014717102051 6.463936805725098 25.0145263671875 4.524903297424316 C 29.76002502441406 2.517725706100464 34.8018684387207 1.500003457069397 39.99999237060547 1.500003457069397 C 45.19811630249023 1.500003457069397 50.23995971679688 2.517725706100464 54.98546981811523 4.524903297424316 C 59.5698356628418 6.463936805725098 63.68733596801758 9.240137100219727 67.22359466552734 12.77639198303223 C 70.75984954833984 16.31264877319336 73.53604888916016 20.43014717102051 75.47508239746094 25.0145263671875 C 77.48226165771484 29.76002502441406 78.49998474121094 34.8018684387207 78.49998474121094 39.99999237060547 C 78.49998474121094 45.19812393188477 77.48226165771484 50.23995971679688 75.47508239746094 54.98546981811523 C 73.53604888916016 59.5698356628418 70.75984954833984 63.68733596801758 67.22359466552734 67.22359466552734 C 63.68733596801758 70.75984954833984 59.5698356628418 73.53604888916016 54.98546981811523 75.47508239746094 C 50.23995971679688 77.48226165771484 45.19812393188477 78.49998474121094 39.99999237060547 78.49998474121094 Z" stroke="none"/>
                                    <path d="M 39.99999237060547 2.999992370605469 C 35.00370025634766 2.999992370605469 30.1584587097168 3.97784423828125 25.59884643554688 5.906402587890625 C 21.19327163696289 7.769805908203125 17.23603057861328 10.43805694580078 13.83704376220703 13.83704376220703 C 10.43805694580078 17.23603057861328 7.769805908203125 21.19327163696289 5.906402587890625 25.59884643554688 C 3.97784423828125 30.1584587097168 2.999992370605469 35.00370025634766 2.999992370605469 39.99999237060547 C 2.999992370605469 44.99628448486328 3.97784423828125 49.84152603149414 5.906402587890625 54.40113830566406 C 7.769805908203125 58.80671310424805 10.43805694580078 62.76395416259766 13.83704376220703 66.16294097900391 C 17.23603057861328 69.56191253662109 21.19327163696289 72.23016357421875 25.59884643554688 74.09356689453125 C 30.1584587097168 76.02212524414062 35.00370025634766 76.99997711181641 39.99999237060547 76.99997711181641 C 44.99628448486328 76.99997711181641 49.84152603149414 76.02212524414062 54.40113830566406 74.09356689453125 C 58.80671310424805 72.23016357421875 62.76395416259766 69.56191253662109 66.16294097900391 66.16294097900391 C 69.56191253662109 62.76395416259766 72.23016357421875 58.80671310424805 74.09356689453125 54.40113830566406 C 76.02212524414062 49.84152603149414 76.99997711181641 44.99628448486328 76.99997711181641 39.99999237060547 C 76.99997711181641 35.00370025634766 76.02212524414062 30.1584587097168 74.09356689453125 25.59884643554688 C 72.23016357421875 21.19327163696289 69.56191253662109 17.23603057861328 66.16294097900391 13.83704376220703 C 62.76395416259766 10.43805694580078 58.80671310424805 7.769805908203125 54.40113830566406 5.906402587890625 C 49.84152603149414 3.97784423828125 44.99628448486328 2.999992370605469 39.99999237060547 2.999992370605469 M 39.99999237060547 -7.62939453125e-06 C 62.09137725830078 -7.62939453125e-06 79.99997711181641 17.90860748291016 79.99997711181641 39.99999237060547 C 79.99997711181641 62.09137725830078 62.09137725830078 79.99997711181641 39.99999237060547 79.99997711181641 C 17.90860748291016 79.99997711181641 -7.62939453125e-06 62.09137725830078 -7.62939453125e-06 39.99999237060547 C -7.62939453125e-06 17.90860748291016 17.90860748291016 -7.62939453125e-06 39.99999237060547 -7.62939453125e-06 Z" stroke="none" fill="#83793c"/>
                                  </g>
                                </g>
                              </g>
                            </g>
                          </g>
                        </g>
                      </g>
                    </g>
                  </g>
                </g>
              </g>
              <g id="g8115" transform="translate(215.793 2790.01)">
                <g id="g8117" transform="translate(0 -682.665)">
                  <g id="g8119" clip-path="url(#clip-path)">
                    <g id="g8125" transform="translate(-33.259 0.709)">
                      <path id="path8127" d="M-338.457-377.826h-25.835v-25.108c5.31-7.679,37.755-5.416,25.835,25.108" transform="translate(364.292 406.667)" fill="#fbdf63"/>
                    </g>
                    <g id="g8129" transform="translate(-33.259 0.709)">
                      <path id="path8131" d="M-338.457-377.826h-.619c6.164-24.728-15.887-30.6-25.216-24.374v-.734c5.31-7.679,37.755-5.416,25.835,25.108" transform="translate(364.292 406.667)" fill="#f9d11f"/>
                    </g>
                  </g>
                </g>
                <g id="g8265" transform="translate(0 -682.665)">
                  <g id="g8267" clip-path="url(#clip-path)">
                    <g id="g8273" transform="translate(-33.259 51.036)">
                      <path id="path8275" d="M-338.457-377.654h-25.835v-25.1c5.31-7.676,37.755-5.413,25.835,25.1" transform="translate(364.292 406.481)" fill="#003343"/>
                    </g>
                    <g id="g8277" transform="translate(-33.259 51.036)">
                      <path id="path8279" d="M-338.457-377.654h-.619c6.164-24.717-15.887-30.585-25.216-24.362v-.734c5.31-7.676,37.755-5.413,25.835,25.1" transform="translate(364.292 406.481)" fill="#002439"/>
                    </g>
                  </g>
                </g>
                <g id="g8281" transform="translate(0 -682.665)">
                  <g id="g8283" clip-path="url(#clip-path)">
                    <g id="g8289" transform="translate(17.066 51.014)">
                      <path id="path8291" d="M-338.457-377.826h-25.835v-25.108c5.31-7.679,37.755-5.416,25.835,25.108" transform="translate(364.292 406.667)" fill="#ff7e50"/>
                    </g>
                    <g id="g8293" transform="translate(17.066 51.014)">
                      <path id="path8295" d="M-338.457-377.826h-.619c6.164-24.728-15.887-30.6-25.216-24.374v-.734c5.31-7.679,37.755-5.416,25.835,25.108" transform="translate(364.292 406.667)" fill="#ff6247"/>
                    </g>
                    <g id="g8297" transform="translate(2.941 54.225)">
                      <path id="path8299" d="M-233.028-131.751v15.573h-14.6c-12.2-25.649,14.6-34.273,14.6-15.573" transform="translate(250.816 141.808)" fill="#ffa68a"/>
                    </g>
                    <g id="g8301" transform="translate(2.941 54.225)">
                      <path id="path8303" d="M-233.028-131.751c-.9-16.1-20.23-9.82-14.176,15.573h-.427c-12.2-25.649,14.6-34.273,14.6-15.573" transform="translate(250.816 141.808)" fill="#ff7e50"/>
                    </g>
                  </g>
                </g>
              </g>
            </g>
          </g>
        </g>
      </g>
    </g>
    <g id="board_1731639_3_" data-name="board_1731639 (3)" transform="translate(623.976 9849.214)">
      <path id="Trazado_1056765" data-name="Trazado 1056765" d="M210.074,301.037a5.037,5.037,0,1,0-7.555,4.358v5.716h5.037v-5.716A5.03,5.03,0,0,0,210.074,301.037Zm0,0" transform="translate(-179.013 -264.939)" fill="#b8cbd9"/>
      <path id="Trazado_1056766" data-name="Trazado 1056766" d="M200,301.037a5.03,5.03,0,0,0,2.518,4.358V306c3.312-.517,5.876-4.042,5.876-8.323,0-.136-.011-.268-.016-.4A5.031,5.031,0,0,0,200,301.037Zm0,0" transform="translate(-179.013 -264.939)" fill="#e8eff4"/>
      <path id="Trazado_1056767" data-name="Trazado 1056767" d="M224,408h5.037v3.358H224Zm0,0" transform="translate(-200.494 -365.186)" fill="#4472b2"/>
      <path id="Trazado_1056768" data-name="Trazado 1056768" d="M120,24h26.864V42.469H120Zm0,0" transform="translate(-107.408 -21.482)" fill="#b8cbd9"/>
      <path id="Trazado_1056769" data-name="Trazado 1056769" d="M120,39.42a17.085,17.085,0,0,0,6.716,1.371,16.584,16.584,0,0,0,16.79-16.37c0-.142-.018-.279-.022-.42H120Zm0,0" transform="translate(-107.408 -21.482)" fill="#e8eff4"/>
      <path id="Trazado_1056770" data-name="Trazado 1056770" d="M192,8h11.753v3.358H192Zm0,0" transform="translate(-171.852 -7.161)" fill="#674025"/>
      <path id="Trazado_1056771" data-name="Trazado 1056771" d="M149.876,200,144,205.876h4.2L154.074,200" transform="translate(-128.889 -179.013)" fill="#976947"/>
      <path id="Trazado_1056772" data-name="Trazado 1056772" d="M260.2,200l5.876,5.876h-4.2L256,200" transform="translate(-229.136 -179.013)" fill="#976947"/>
      <path id="Trazado_1056773" data-name="Trazado 1056773" d="M120,344h1.679a1.679,1.679,0,0,1,0,3.358H120" transform="translate(-107.408 -307.902)" fill="#efbe9a"/>
      <path id="Trazado_1056774" data-name="Trazado 1056774" d="M23.111,416.395v-3.358A5.037,5.037,0,0,0,18.074,408H13.037A5.037,5.037,0,0,0,8,413.037v3.358" transform="translate(-7.161 -365.186)" fill="#d1a339"/>
      <path id="Trazado_1056775" data-name="Trazado 1056775" d="M20.592,416.395v-3.358A5.037,5.037,0,0,0,15.555,408H13.037A5.037,5.037,0,0,0,8,413.037v3.358" transform="translate(-7.161 -365.186)" fill="#f0d365"/>
      <g id="Grupo_1224705" data-name="Grupo 1224705" transform="translate(0.839 32.74)">
        <path id="Trazado_1056776" data-name="Trazado 1056776" d="M56,408v.84a2.518,2.518,0,1,0,5.037,0V408" transform="translate(-50.963 -397.926)" fill="#db9b7c"/>
        <path id="Trazado_1056777" data-name="Trazado 1056777" d="M11.358,344H9.679a1.679,1.679,0,0,0,0,3.358h1.679" transform="translate(-8 -340.642)" fill="#db9b7c"/>
        <path id="Trazado_1056778" data-name="Trazado 1056778" d="M48.395,312v5.876a4.2,4.2,0,0,1-8.395,0V312" transform="translate(-36.642 -312)" fill="#db9b7c"/>
      </g>
      <path id="Trazado_1056779" data-name="Trazado 1056779" d="M43.358,321.989a4.2,4.2,0,0,0,3.358-4.113V312H40v5.876A4.2,4.2,0,0,0,43.358,321.989Zm0,0" transform="translate(-35.803 -279.259)" fill="#efbe9a"/>
      <path id="Trazado_1056780" data-name="Trazado 1056780" d="M32.395,283.358c0,1.854-3.183,3.358-5.037,3.358H24v-3.358A3.358,3.358,0,0,1,27.358,280h5.037a3.358,3.358,0,0,1,3.358,3.358v3.358a3.358,3.358,0,0,1-3.358-3.358" transform="translate(-21.482 -250.618)" fill="#a66d43"/>
      <path id="Trazado_1056781" data-name="Trazado 1056781" d="M32.395,283.358a3.334,3.334,0,0,0,.143.92,3.742,3.742,0,0,0,.062-4.257c-.07,0-.135-.021-.206-.021H27.358A3.358,3.358,0,0,0,24,283.358v2.527a7,7,0,0,0,3.358.831C29.212,286.716,32.395,285.212,32.395,283.358Zm0,0" transform="translate(-21.482 -250.618)" fill="#c18e59"/>
      <path id="Trazado_1056782" data-name="Trazado 1056782" d="M456,344h1.679a1.679,1.679,0,0,1,0,3.358H456" transform="translate(-408.149 -307.902)" fill="#efbe9a"/>
      <path id="Trazado_1056783" data-name="Trazado 1056783" d="M359.111,416.395v-3.358A5.037,5.037,0,0,0,354.074,408h-5.037A5.037,5.037,0,0,0,344,413.037v3.358" transform="translate(-307.902 -365.186)" fill="#b64f86"/>
      <path id="Trazado_1056784" data-name="Trazado 1056784" d="M356.592,416.395v-3.358A5.037,5.037,0,0,0,351.555,408h-2.518A5.037,5.037,0,0,0,344,413.037v3.358" transform="translate(-307.902 -365.186)" fill="#e087a6"/>
      <path id="Trazado_1056785" data-name="Trazado 1056785" d="M392,408v.84a2.518,2.518,0,1,0,5.037,0V408" transform="translate(-350.865 -365.186)" fill="#db9b7c"/>
      <path id="Trazado_1056786" data-name="Trazado 1056786" d="M347.358,344h-1.679a1.679,1.679,0,1,0,0,3.358h1.679" transform="translate(-307.902 -307.902)" fill="#db9b7c"/>
      <path id="Trazado_1056787" data-name="Trazado 1056787" d="M384.395,312v5.876a4.2,4.2,0,1,1-8.395,0V312" transform="translate(-336.544 -279.26)" fill="#db9b7c"/>
      <path id="Trazado_1056788" data-name="Trazado 1056788" d="M379.358,321.989a4.2,4.2,0,0,0,3.358-4.113V312H376v5.876A4.2,4.2,0,0,0,379.358,321.989Zm0,0" transform="translate(-336.544 -279.259)" fill="#efbe9a"/>
      <path id="Trazado_1056789" data-name="Trazado 1056789" d="M368.395,283.358c0,1.854-3.183,3.358-5.037,3.358H360v-3.358A3.358,3.358,0,0,1,363.358,280h5.037a3.358,3.358,0,0,1,3.358,3.358v3.358a3.358,3.358,0,0,1-3.358-3.358" transform="translate(-322.223 -250.618)" fill="#a66d43"/>
      <path id="Trazado_1056790" data-name="Trazado 1056790" d="M368.395,283.358a3.335,3.335,0,0,0,.143.92,3.742,3.742,0,0,0,.062-4.257c-.07,0-.135-.021-.206-.021h-5.037A3.358,3.358,0,0,0,360,283.358v2.527a7,7,0,0,0,3.358.831C365.212,286.716,368.395,285.212,368.395,283.358Zm0,0" transform="translate(-322.223 -250.618)" fill="#c18e59"/>
      <path id="Trazado_1056791" data-name="Trazado 1056791" d="M28.592,280.395a4.2,4.2,0,0,1-3.57-1.993,7.853,7.853,0,0,1-4.825,1.993H16.839a.839.839,0,0,1-.839-.84V276.2a4.2,4.2,0,0,1,4.2-4.2h5.037a4.2,4.2,0,0,1,4.2,4.2v3.358A.839.839,0,0,1,28.592,280.395Zm-10.913-1.679H20.2c1.657,0,4.2-1.351,4.2-2.518a.839.839,0,0,1,1.679,0,2.523,2.523,0,0,0,1.679,2.375V276.2a2.522,2.522,0,0,0-2.518-2.518H20.2a2.522,2.522,0,0,0-2.518,2.518Zm0,0" transform="translate(-14.321 -243.457)"/>
      <path id="Trazado_1056792" data-name="Trazado 1056792" d="M37.037,344.395A5.042,5.042,0,0,1,32,339.358V336.84h1.679v2.518a3.358,3.358,0,1,0,6.716,0V336h1.679v3.358A5.042,5.042,0,0,1,37.037,344.395Zm0,0" transform="translate(-28.642 -300.741)"/>
      <path id="Trazado_1056793" data-name="Trazado 1056793" d="M4.2,341.037H2.518a2.518,2.518,0,0,1,0-5.037h.839v1.679H2.518a.84.84,0,0,0,0,1.679H4.2Zm0,0" transform="translate(0 -300.741)"/>
      <path id="Trazado_1056794" data-name="Trazado 1056794" d="M121.679,341.037H120v-1.679h1.679a.84.84,0,0,0,0-1.679h-.84V336h.84a2.518,2.518,0,1,1,0,5.037Zm0,0" transform="translate(-107.408 -300.741)"/>
      <path id="Trazado_1056795" data-name="Trazado 1056795" d="M15.95,410.074H.839a.839.839,0,0,1-.839-.84v-3.358A5.884,5.884,0,0,1,5.876,400h5.037a5.884,5.884,0,0,1,5.876,5.876v3.358A.839.839,0,0,1,15.95,410.074ZM1.679,408.395H15.111v-2.519a4.2,4.2,0,0,0-4.2-4.2H5.876a4.2,4.2,0,0,0-4.2,4.2Zm0,0" transform="translate(0 -358.025)"/>
      <path id="Trazado_1056796" data-name="Trazado 1056796" d="M51.358,412.2A3.361,3.361,0,0,1,48,408.84V408h1.679v.84a1.679,1.679,0,0,0,3.358,0V408h1.679v.84A3.361,3.361,0,0,1,51.358,412.2Zm0,0" transform="translate(-42.963 -365.186)"/>
      <path id="Trazado_1056797" data-name="Trazado 1056797" d="M32,448h1.679v4.2H32Zm0,0" transform="translate(-28.642 -400.988)"/>
      <path id="Trazado_1056798" data-name="Trazado 1056798" d="M112,448h1.679v4.2H112Zm0,0" transform="translate(-100.247 -400.988)"/>
      <path id="Trazado_1056799" data-name="Trazado 1056799" d="M364.592,280.395a4.2,4.2,0,0,1-3.57-1.993,7.853,7.853,0,0,1-4.825,1.993h-3.358a.839.839,0,0,1-.839-.84V276.2a4.2,4.2,0,0,1,4.2-4.2h5.037a4.2,4.2,0,0,1,4.2,4.2v3.358A.839.839,0,0,1,364.592,280.395Zm-10.913-1.679H356.2c1.657,0,4.2-1.351,4.2-2.518a.839.839,0,0,1,1.679,0,2.523,2.523,0,0,0,1.679,2.375V276.2a2.522,2.522,0,0,0-2.518-2.518H356.2a2.522,2.522,0,0,0-2.518,2.518Zm0,0" transform="translate(-315.062 -243.457)"/>
      <path id="Trazado_1056800" data-name="Trazado 1056800" d="M373.037,344.395A5.042,5.042,0,0,1,368,339.358V336.84h1.679v2.518a3.358,3.358,0,0,0,6.716,0V336h1.679v3.358A5.042,5.042,0,0,1,373.037,344.395Zm0,0" transform="translate(-329.383 -300.741)"/>
      <path id="Trazado_1056801" data-name="Trazado 1056801" d="M340.2,341.037h-1.679a2.518,2.518,0,0,1,0-5.037h.84v1.679h-.84a.84.84,0,0,0,0,1.679H340.2Zm0,0" transform="translate(-300.741 -300.741)"/>
      <path id="Trazado_1056802" data-name="Trazado 1056802" d="M457.679,341.037H456v-1.679h1.679a.84.84,0,0,0,0-1.679h-.84V336h.84a2.518,2.518,0,0,1,0,5.037Zm0,0" transform="translate(-408.149 -300.741)"/>
      <path id="Trazado_1056803" data-name="Trazado 1056803" d="M351.95,410.074H336.84a.839.839,0,0,1-.84-.84v-3.358A5.884,5.884,0,0,1,341.876,400h5.037a5.884,5.884,0,0,1,5.876,5.876v3.358A.839.839,0,0,1,351.95,410.074Zm-14.271-1.679h13.432v-2.519a4.2,4.2,0,0,0-4.2-4.2h-5.037a4.2,4.2,0,0,0-4.2,4.2Zm0,0" transform="translate(-300.741 -358.025)"/>
      <path id="Trazado_1056804" data-name="Trazado 1056804" d="M387.358,412.2A3.361,3.361,0,0,1,384,408.84V408h1.679v.84a1.679,1.679,0,0,0,3.358,0V408h1.679v.84A3.361,3.361,0,0,1,387.358,412.2Zm0,0" transform="translate(-343.704 -365.186)"/>
      <path id="Trazado_1056805" data-name="Trazado 1056805" d="M368,448h1.679v4.2H368Zm0,0" transform="translate(-329.383 -400.988)"/>
      <path id="Trazado_1056806" data-name="Trazado 1056806" d="M448,448h1.679v4.2H448Zm0,0" transform="translate(-400.988 -400.988)"/>
      <path id="Trazado_1056807" data-name="Trazado 1056807" d="M196.592,5.037H184.839A.839.839,0,0,1,184,4.2V.839A.839.839,0,0,1,184.839,0h11.753a.839.839,0,0,1,.839.839V4.2A.839.839,0,0,1,196.592,5.037ZM185.679,3.358h10.074V1.679H185.679Zm0,0" transform="translate(-164.692)"/>
      <path id="Trazado_1056808" data-name="Trazado 1056808" d="M139.7,36.148H112.84a.839.839,0,0,1-.84-.839V16.839a.839.839,0,0,1,.84-.839h7.555v1.679h-6.716v16.79h25.185V17.679h-6.716V16H139.7a.839.839,0,0,1,.84.839V35.308A.839.839,0,0,1,139.7,36.148Zm0,0" transform="translate(-100.247 -14.321)"/>
      <path id="Trazado_1056809" data-name="Trazado 1056809" d="M144,64h13.432v1.679H144Zm0,0" transform="translate(-128.889 -57.284)"/>
      <path id="Trazado_1056810" data-name="Trazado 1056810" d="M144,96h13.432v1.679H144Zm0,0" transform="translate(-128.889 -85.926)"/>
      <path id="Trazado_1056811" data-name="Trazado 1056811" d="M144,128h21.827v1.679H144Zm0,0" transform="translate(-128.889 -114.568)"/>
      <path id="Trazado_1056812" data-name="Trazado 1056812" d="M144,160h21.827v1.679H144Zm0,0" transform="translate(-128.889 -143.21)"/>
      <path id="Trazado_1056813" data-name="Trazado 1056813" d="M298.043,57.9a.859.859,0,0,1-.111-.007.84.84,0,0,1-.685-.567l-.839-2.518L298,54.277l.3.891,2.406-3.609,1.4.931-3.358,5.037a.839.839,0,0,1-.7.374Zm0,0" transform="translate(-265.302 -46.148)"/>
      <path id="Trazado_1056814" data-name="Trazado 1056814" d="M141.035,201.653h-4.2a.839.839,0,0,1-.594-1.433l5.876-5.876,1.187,1.187-4.443,4.443h1.823l5.631-5.631,1.187,1.187-5.876,5.876A.837.837,0,0,1,141.035,201.653Zm0,0" transform="translate(-121.727 -173.95)"/>
      <path id="Trazado_1056815" data-name="Trazado 1056815" d="M261.011,201.653h-4.2a.837.837,0,0,1-.594-.246l-5.876-5.876,1.187-1.187,5.631,5.631h1.823l-4.443-4.443,1.187-1.187,5.877,5.876a.839.839,0,0,1-.594,1.433Zm0,0" transform="translate(-224.073 -173.95)"/>
      <path id="Trazado_1056816" data-name="Trazado 1056816" d="M200.395,304.79h-5.037a.839.839,0,0,1-.839-.84v-5.257a5.876,5.876,0,1,1,6.716,0v5.257A.839.839,0,0,1,200.395,304.79Zm-4.2-1.679h3.358v-4.878a.838.838,0,0,1,.419-.726,4.2,4.2,0,1,0-4.2,0,.839.839,0,0,1,.419.726Zm0,0" transform="translate(-171.852 -257.778)"/>
      <path id="Trazado_1056817" data-name="Trazado 1056817" d="M200,400h10.074v1.679H200Zm0,0" transform="translate(-179.013 -358.025)"/>
      <path id="Trazado_1056818" data-name="Trazado 1056818" d="M240,440h1.679v2.518H240Zm0,0" transform="translate(-214.815 -393.828)"/>
      <path id="Trazado_1056819" data-name="Trazado 1056819" d="M240,336h1.679v7.555H240Zm0,0" transform="translate(-214.815 -300.741)"/>
      <path id="Trazado_1056820" data-name="Trazado 1056820" d="M152,352h5.876v1.679H152Zm0,0" transform="translate(-136.05 -315.062)"/>
      <path id="Trazado_1056821" data-name="Trazado 1056821" d="M288,352h5.876v1.679H288Zm0,0" transform="translate(-257.778 -315.062)"/>
    </g>
  </g>
</svg>
