<svg xmlns="http://www.w3.org/2000/svg" xmlns:xlink="http://www.w3.org/1999/xlink" width="113" height="113" viewBox="0 0 113 113">
  <defs>
    <filter id="Trazado_982547" x="0" y="0" width="113" height="113" filterUnits="userSpaceOnUse">
      <feOffset dy="3" input="SourceAlpha"/>
      <feGaussianBlur stdDeviation="3" result="blur"/>
      <feFlood flood-opacity="0.161"/>
      <feComposite operator="in" in2="blur"/>
      <feComposite in="SourceGraphic"/>
    </filter>
  </defs>
  <g id="Grupo_1225329" data-name="Grupo 1225329" transform="translate(-356 -8068)">
    <g id="Grupo_1225192" data-name="Grupo 1225192" transform="translate(365 8074)">
      <g id="Grupo_1209304" data-name="Grupo 1209304" transform="translate(0)">
        <g id="Grupo_1208492" data-name="Grupo 1208492" transform="translate(0)">
          <g id="Grupo_1177675" data-name="Grupo 1177675" transform="translate(0 0)">
            <g id="Grupo_1176928" data-name="Grupo 1176928" transform="translate(0)">
              <g id="Grupo_1172322" data-name="Grupo 1172322">
                <g id="Grupo_1164700" data-name="Grupo 1164700">
                  <g id="Grupo_1160931" data-name="Grupo 1160931">
                    <g id="Grupo_1160749" data-name="Grupo 1160749">
                      <g id="Grupo_1158891" data-name="Grupo 1158891">
                        <g id="Grupo_1157406" data-name="Grupo 1157406">
                          <g id="Grupo_1155793" data-name="Grupo 1155793">
                            <g id="Grupo_1154704" data-name="Grupo 1154704">
                              <g id="Grupo_1150790" data-name="Grupo 1150790">
                                <g id="Grupo_1154214" data-name="Grupo 1154214">
                                  <g id="Grupo_1152583" data-name="Grupo 1152583">
                                    <g id="Grupo_1146973" data-name="Grupo 1146973">
                                      <g id="Grupo_1146954" data-name="Grupo 1146954">
                                        <g transform="matrix(1, 0, 0, 1, -9, -6)" filter="url(#Trazado_982547)">
                                          <g id="Trazado_982547-2" data-name="Trazado 982547" transform="translate(9 6)" fill="#fcf8db">
                                            <path d="M 47.5000114440918 93.49987030029297 C 41.28938293457031 93.49987030029297 35.26534652709961 92.28384399414062 29.5951976776123 89.88558959960938 C 24.11773109436035 87.56881713867188 19.19814491271973 84.25183868408203 14.97310447692871 80.02680206298828 C 10.74805164337158 75.80176544189453 7.43107795715332 70.88218688964844 5.114304542541504 65.40472412109375 C 2.716038227081299 59.73458862304688 1.500011444091797 53.71054840087891 1.500011444091797 47.49993515014648 C 1.500011444091797 41.28932189941406 2.716038227081299 35.26528167724609 5.114304542541504 29.59514808654785 C 7.43107795715332 24.1176815032959 10.74805164337158 19.1981086730957 14.97310447692871 14.97306823730469 C 19.19814491271973 10.74802875518799 24.11773109436035 7.431055068969727 29.5951976776123 5.11428165435791 C 35.26534652709961 2.716028451919556 41.28938293457031 1.500001788139343 47.5000114440918 1.500001788139343 C 53.71063995361328 1.500001788139343 59.73467636108398 2.716028451919556 65.40482330322266 5.11428165435791 C 70.88229370117188 7.431055068969727 75.8018798828125 10.74802875518799 80.02691650390625 14.97306823730469 C 84.25196838378906 19.1981086730957 87.56894683837891 24.1176815032959 89.88571929931641 29.59514808654785 C 92.28398132324219 35.26528167724609 93.50001525878906 41.28932189941406 93.50001525878906 47.49993515014648 C 93.50001525878906 53.71054840087891 92.28398132324219 59.73458862304688 89.88571929931641 65.40472412109375 C 87.56894683837891 70.88218688964844 84.25196838378906 75.80176544189453 80.02691650390625 80.02680206298828 C 75.8018798828125 84.25183868408203 70.88229370117188 87.56881713867188 65.40482330322266 89.88558959960938 C 59.73467636108398 92.28384399414062 53.71063995361328 93.49987030029297 47.5000114440918 93.49987030029297 Z" stroke="none"/>
                                            <path d="M 47.5000114440918 3 C 41.49122619628906 3 35.66378021240234 4.1761474609375 30.17951965332031 6.495796203613281 C 24.880859375 8.7369384765625 20.12153625488281 11.94596862792969 16.03376770019531 16.03373718261719 C 11.94598388671875 20.12149047851562 8.736968994140625 24.88081359863281 6.495811462402344 30.17947387695312 C 4.176162719726562 35.66371917724609 3.000007629394531 41.49116516113281 3.000007629394531 47.49993515014648 C 3.000007629394531 53.50870513916016 4.176162719726562 59.33615112304688 6.495811462402344 64.82039642333984 C 8.736968994140625 70.11905670166016 11.94598388671875 74.87837982177734 16.03376770019531 78.96613311767578 C 20.12153625488281 83.05390167236328 24.880859375 86.26293182373047 30.17951965332031 88.50407409667969 C 35.66378021240234 90.82372283935547 41.49122619628906 91.99987030029297 47.5000114440918 91.99987030029297 C 53.50879669189453 91.99987030029297 59.33624267578125 90.82372283935547 64.82050323486328 88.50407409667969 C 70.11916351318359 86.26293182373047 74.87848663330078 83.05390167236328 78.96625518798828 78.96613311767578 C 83.05403900146484 74.87837982177734 86.2630615234375 70.11905670166016 88.50421142578125 64.82039642333984 C 90.82386016845703 59.33615112304688 92.00001525878906 53.50870513916016 92.00001525878906 47.49993515014648 C 92.00001525878906 41.49116516113281 90.82386016845703 35.66371917724609 88.50421142578125 30.17947387695312 C 86.2630615234375 24.88081359863281 83.05403900146484 20.12149047851562 78.96625518798828 16.03373718261719 C 74.87848663330078 11.94596862792969 70.11916351318359 8.7369384765625 64.82050323486328 6.495796203613281 C 59.33624267578125 4.1761474609375 53.50879669189453 3 47.5000114440918 3 M 47.5000114440918 0 C 73.73353576660156 0 95.00001525878906 21.26644134521484 95.00001525878906 47.49993515014648 C 95.00001525878906 73.73342895507812 73.73353576660156 94.99987030029297 47.5000114440918 94.99987030029297 C 21.26648712158203 94.99987030029297 7.62939453125e-06 73.73342895507812 7.62939453125e-06 47.49993515014648 C 7.62939453125e-06 21.26644134521484 21.26648712158203 0 47.5000114440918 0 Z" stroke="none" fill="#83793c"/>
                                          </g>
                                        </g>
                                      </g>
                                    </g>
                                  </g>
                                </g>
                              </g>
                            </g>
                          </g>
                        </g>
                      </g>
                    </g>
                  </g>
                </g>
              </g>
            </g>
          </g>
        </g>
      </g>
    </g>
    <g id="introvert_6911398_1_" data-name="introvert_6911398 (1)" transform="translate(324.679 8078.501)">
      <g id="Grupo_1225326" data-name="Grupo 1225326" transform="translate(65.461 16.054)">
        <path id="Trazado_1057162" data-name="Trazado 1057162" d="M154.614,431.274H115.145a22.285,22.285,0,0,1,39.469,0Z" transform="translate(-112.603 -370.192)" fill="#fea713"/>
        <path id="Trazado_1057163" data-name="Trazado 1057163" d="M140.151,419.974a22.312,22.312,0,0,0-14.465,11.3H115.146a22.315,22.315,0,0,1,25.005-11.3Z" transform="translate(-112.604 -370.196)" fill="#fe9901"/>
        <path id="Trazado_1057164" data-name="Trazado 1057164" d="M145,435.494H115.146a22.311,22.311,0,0,1,14.226-11.244" transform="translate(-112.604 -374.412)" fill="none" stroke="#000" stroke-linecap="round" stroke-linejoin="round" stroke-miterlimit="10" stroke-width="1.2"/>
        <path id="Trazado_1057165" data-name="Trazado 1057165" d="M295.426,424.28a22.315,22.315,0,0,1,14.209,11.24h-4.712" transform="translate(-267.624 -374.438)" fill="none" stroke="#000" stroke-linecap="round" stroke-linejoin="round" stroke-miterlimit="10" stroke-width="1.2"/>
        <path id="Trazado_1057166" data-name="Trazado 1057166" d="M141.56,95.054a7.246,7.246,0,0,1-5.389,7,17.046,17.046,0,0,1-11.279,13.879v1.487a5.61,5.61,0,0,1-5.7,5.608,5.668,5.668,0,0,1-5.513-5.7v-1.4a17.043,17.043,0,0,1-11.279-13.877,7.245,7.245,0,0,1-5.389-7,4.7,4.7,0,0,1,4.7-4.7h.547V85.585a17.03,17.03,0,0,1,17.03-17.03h0a17.03,17.03,0,0,1,17.03,17.03v4.768h.547a4.7,4.7,0,0,1,4.7,4.7Z" transform="translate(-97.005 -68.555)" fill="#ffdfcf"/>
        <path id="Trazado_1057167" data-name="Trazado 1057167" d="M125.093,115.866l-.2.073v1.488a5.61,5.61,0,0,1-5.705,5.608,5.669,5.669,0,0,1-5.513-5.7v-1.4a17.04,17.04,0,0,1-11.279-13.877,7.245,7.245,0,0,1-5.39-7,4.7,4.7,0,0,1,4.7-4.7h.547V85.589A17.045,17.045,0,0,1,123,68.967a16.237,16.237,0,0,0-12.6,15.826V99.706A16.234,16.234,0,0,0,125.093,115.866Z" transform="translate(-97.004 -68.558)" fill="#ffcebf"/>
        <g id="Grupo_1225324" data-name="Grupo 1225324" transform="translate(11.138 29.85)">
          <path id="Trazado_1057168" data-name="Trazado 1057168" d="M183.315,281.594a4.821,4.821,0,0,1-6.818,0" transform="translate(-176.497 -281.594)" fill="none" stroke="#000" stroke-linecap="round" stroke-linejoin="round" stroke-miterlimit="10" stroke-width="1.2"/>
          <path id="Trazado_1057169" data-name="Trazado 1057169" d="M293.659,281.594a4.821,4.821,0,0,1-6.818,0" transform="translate(-271.38 -281.594)" fill="none" stroke="#000" stroke-linecap="round" stroke-linejoin="round" stroke-miterlimit="10" stroke-width="1.2"/>
        </g>
        <g id="Grupo_1225325" data-name="Grupo 1225325" transform="translate(3.717 26.194)">
          <path id="Trazado_1057170" data-name="Trazado 1057170" d="M380.487,258.239a4.01,4.01,0,0,1,1.118-2.737" transform="translate(-344.484 -255.502)" fill="none" stroke="#000" stroke-linecap="round" stroke-linejoin="round" stroke-miterlimit="10" stroke-width="1.2"/>
          <path id="Trazado_1057171" data-name="Trazado 1057171" d="M124.649,258.239a4.01,4.01,0,0,0-1.118-2.737" transform="translate(-123.531 -255.502)" fill="none" stroke="#000" stroke-linecap="round" stroke-linejoin="round" stroke-miterlimit="10" stroke-width="1.2"/>
        </g>
        <path id="Trazado_1057172" data-name="Trazado 1057172" d="M238.486,340.167a4.821,4.821,0,0,1-6.818,0" transform="translate(-212.8 -302.111)" fill="none" stroke="#000" stroke-linecap="round" stroke-linejoin="round" stroke-miterlimit="10" stroke-width="1.2"/>
        <path id="Trazado_1057173" data-name="Trazado 1057173" d="M320.436,87.04a17.023,17.023,0,0,1,3.014,2.4,16.814,16.814,0,0,1,1.289,1.446" transform="translate(-289.13 -84.45)" fill="none" stroke="#000" stroke-linecap="round" stroke-linejoin="round" stroke-miterlimit="10" stroke-width="1.2"/>
        <path id="Trazado_1057174" data-name="Trazado 1057174" d="M160.846,92.646A17.122,17.122,0,0,1,164.7,89.09" transform="translate(-151.901 -86.213)" fill="none" stroke="#000" stroke-linecap="round" stroke-linejoin="round" stroke-miterlimit="10" stroke-width="1.2"/>
        <path id="Trazado_1057175" data-name="Trazado 1057175" d="M281.646,71.28c.4.085.792.185,1.181.3h0" transform="translate(-255.775 -70.898)" fill="none" stroke="#000" stroke-linecap="round" stroke-linejoin="round" stroke-miterlimit="10" stroke-width="1.2"/>
        <path id="Trazado_1057176" data-name="Trazado 1057176" d="M102.253,197.2v3.773h-.546a4.7,4.7,0,0,0-4.7,4.7,7.246,7.246,0,0,0,5.389,7,17.056,17.056,0,0,0,.453,2.268" transform="translate(-97.006 -179.175)" fill="none" stroke="#000" stroke-linecap="round" stroke-linejoin="round" stroke-miterlimit="10" stroke-width="1.2"/>
        <path id="Trazado_1057177" data-name="Trazado 1057177" d="M184.166,197.2v3.773h.546a4.7,4.7,0,0,1,4.7,4.7,7.245,7.245,0,0,1-5.389,7,17.046,17.046,0,0,1-11.279,13.878v1.488a5.61,5.61,0,0,1-5.705,5.607,5.668,5.668,0,0,1-5.513-5.7v-1.4a17.058,17.058,0,0,1-8.871-7.115" transform="translate(-144.858 -179.175)" fill="none" stroke="#000" stroke-linecap="round" stroke-linejoin="round" stroke-miterlimit="10" stroke-width="1.2"/>
      </g>
      <circle id="Elipse_13597" data-name="Elipse 13597" cx="2.292" cy="2.292" r="2.292" transform="translate(85.446 32.288)" fill="#6fd7a3"/>
      <circle id="Elipse_13598" data-name="Elipse 13598" cx="2.292" cy="2.292" r="2.292" transform="translate(85.446 32.288)" fill="none" stroke="#000" stroke-linecap="round" stroke-linejoin="round" stroke-miterlimit="10" stroke-width="1.2"/>
      <g id="Grupo_1225328" data-name="Grupo 1225328" transform="translate(60.321 7.499)">
        <path id="Trazado_1057178" data-name="Trazado 1057178" d="M201.408,18.23l-8.758,8.758a1.487,1.487,0,0,1-2.1,0l-8.758-8.758a.876.876,0,0,1,.619-1.5h5.231V8.329a.83.83,0,0,1,.83-.83h6.258a.83.83,0,0,1,.83.83v8.406h5.231A.876.876,0,0,1,201.408,18.23Z" transform="translate(-164.548 -7.499)" fill="#fd4755" stroke="#fe646f" stroke-miterlimit="10" stroke-width="1.2"/>
        <path id="Trazado_1057179" data-name="Trazado 1057179" d="M227.277,16.735h-2.142v-8.4a.83.83,0,0,1,.829-.831h3.087a.83.83,0,0,0-.831.831v7.461A.944.944,0,0,1,227.277,16.735Z" transform="translate(-202.042 -7.5)" fill="#fb2b3a"/>
        <path id="Trazado_1057180" data-name="Trazado 1057180" d="M193.142,83.176l-.492.492a1.488,1.488,0,0,1-2.1,0l-8.758-8.758a.876.876,0,0,1,.619-1.5h3.087a.876.876,0,0,0-.619,1.5Z" transform="translate(-164.547 -64.178)" fill="#fb2b3a"/>
        <path id="Trazado_1057181" data-name="Trazado 1057181" d="M199,20.638l2.409-2.409a.876.876,0,0,0-.619-1.5h-5.23V8.331a.83.83,0,0,0-.831-.831H188.47a.831.831,0,0,0-.831.831v8.405h-5.23a.876.876,0,0,0-.619,1.5l8.758,8.758a1.484,1.484,0,0,0,2.1,0l2.9-2.9" transform="translate(-164.548 -7.5)" fill="none" stroke="#000" stroke-linecap="round" stroke-linejoin="round" stroke-miterlimit="10" stroke-width="1.2"/>
        <path id="Trazado_1057182" data-name="Trazado 1057182" d="M72.228,97.344l8.758,8.758a1.487,1.487,0,0,1,0,2.1l-8.758,8.758a.876.876,0,0,1-1.5-.619v-5.231H61.151a.83.83,0,0,1-.83-.83v-6.258a.83.83,0,0,1,.83-.83h9.582V97.964A.876.876,0,0,1,72.228,97.344Z" transform="translate(-60.321 -84.534)" fill="#fd4755" stroke="#fe646f" stroke-miterlimit="10" stroke-width="1.2"/>
        <path id="Trazado_1057183" data-name="Trazado 1057183" d="M310.276,116.964l-8.758-8.758a1.487,1.487,0,0,1,0-2.1l8.758-8.758a.876.876,0,0,1,1.495.619V103.2h9.582a.83.83,0,0,1,.83.83v6.258a.83.83,0,0,1-.83.83H311.77v5.231A.876.876,0,0,1,310.276,116.964Z" transform="translate(-267.348 -84.534)" fill="#fd4755" stroke="#fe646f" stroke-miterlimit="10" stroke-width="1.2"/>
        <path id="Trazado_1057184" data-name="Trazado 1057184" d="M304.6,106.107a1.488,1.488,0,0,0,0,2.1l7.168,7.168v.971a.876.876,0,0,1-1.5.619l-8.758-8.758a1.486,1.486,0,0,1,0-2.1l8.758-8.757a.876.876,0,0,1,1.5.619v.971Z" transform="translate(-267.344 -84.538)" fill="#fb2b3a"/>
        <g id="Grupo_1225327" data-name="Grupo 1225327" transform="translate(0 18.661)">
          <path id="Trazado_1057185" data-name="Trazado 1057185" d="M63.408,147.772v-6.258a.83.83,0,0,1,.83-.83H61.152a.83.83,0,0,0-.83.83v6.258a.83.83,0,0,0,.83.83h3.086A.83.83,0,0,1,63.408,147.772Z" transform="translate(-60.322 -140.684)" fill="#fb2b3a"/>
        </g>
        <path id="Trazado_1057186" data-name="Trazado 1057186" d="M72.228,97.344l8.758,8.758a1.487,1.487,0,0,1,0,2.1l-8.758,8.758a.876.876,0,0,1-1.5-.619v-5.231H61.151a.83.83,0,0,1-.83-.83v-6.258a.83.83,0,0,1,.83-.83h9.582V97.964A.876.876,0,0,1,72.228,97.344Z" transform="translate(-60.321 -84.534)" fill="none" stroke="#000" stroke-linecap="round" stroke-linejoin="round" stroke-miterlimit="10" stroke-width="1.2"/>
        <path id="Trazado_1057187" data-name="Trazado 1057187" d="M310.276,116.964l-8.758-8.758a1.487,1.487,0,0,1,0-2.1l8.758-8.758a.876.876,0,0,1,1.495.619V103.2h9.582a.83.83,0,0,1,.83.83v6.258a.83.83,0,0,1-.83.83H311.77v5.231A.876.876,0,0,1,310.276,116.964Z" transform="translate(-267.348 -84.534)" fill="none" stroke="#000" stroke-linecap="round" stroke-linejoin="round" stroke-miterlimit="10" stroke-width="1.2"/>
      </g>
    </g>
  </g>
</svg>
