<svg xmlns="http://www.w3.org/2000/svg" xmlns:xlink="http://www.w3.org/1999/xlink" width="113" height="113" viewBox="0 0 113 113">
  <defs>
    <filter id="Trazado_982547" x="0" y="0" width="113" height="113" filterUnits="userSpaceOnUse">
      <feOffset dy="3" input="SourceAlpha"/>
      <feGaussianBlur stdDeviation="3" result="blur"/>
      <feFlood flood-opacity="0.161"/>
      <feComposite operator="in" in2="blur"/>
      <feComposite in="SourceGraphic"/>
    </filter>
  </defs>
  <g id="Grupo_1225409" data-name="Grupo 1225409" transform="translate(-3335.742 -8067.748)">
    <g id="Grupo_1225195" data-name="Grupo 1225195" transform="translate(2542.252 6333.791)">
      <g id="Grupo_1209304" data-name="Grupo 1209304" transform="translate(0 503.742)">
        <g id="Grupo_1208492" data-name="Grupo 1208492" transform="translate(0 -4397.209)">
          <g id="Grupo_1177675" data-name="Grupo 1177675" transform="translate(-4493 3707.152)">
            <g id="Grupo_1176928" data-name="Grupo 1176928" transform="translate(5295.49 1926.273)">
              <g id="Grupo_1172322" data-name="Grupo 1172322" transform="translate(0 0)">
                <g id="Grupo_1164700" data-name="Grupo 1164700">
                  <g id="Grupo_1160931" data-name="Grupo 1160931">
                    <g id="Grupo_1160749" data-name="Grupo 1160749">
                      <g id="Grupo_1158891" data-name="Grupo 1158891">
                        <g id="Grupo_1157406" data-name="Grupo 1157406">
                          <g id="Grupo_1155793" data-name="Grupo 1155793">
                            <g id="Grupo_1154704" data-name="Grupo 1154704">
                              <g id="Grupo_1150790" data-name="Grupo 1150790">
                                <g id="Grupo_1154214" data-name="Grupo 1154214">
                                  <g id="Grupo_1152583" data-name="Grupo 1152583">
                                    <g id="Grupo_1146973" data-name="Grupo 1146973">
                                      <g id="Grupo_1146954" data-name="Grupo 1146954">
                                        <g transform="matrix(1, 0, 0, 1, -9, -6)" filter="url(#Trazado_982547)">
                                          <g id="Trazado_982547-2" data-name="Trazado 982547" transform="translate(9 6)" fill="#fcf8db">
                                            <path d="M 47.5000114440918 93.49987030029297 C 41.28938293457031 93.49987030029297 35.26534652709961 92.28384399414062 29.5951976776123 89.88558959960938 C 24.11773109436035 87.56881713867188 19.19814491271973 84.25183868408203 14.97310447692871 80.02680206298828 C 10.74805164337158 75.80176544189453 7.43107795715332 70.88218688964844 5.114304542541504 65.40472412109375 C 2.716038227081299 59.73458862304688 1.500011444091797 53.71054840087891 1.500011444091797 47.49993515014648 C 1.500011444091797 41.28932189941406 2.716038227081299 35.26528167724609 5.114304542541504 29.59514808654785 C 7.43107795715332 24.1176815032959 10.74805164337158 19.1981086730957 14.97310447692871 14.97306823730469 C 19.19814491271973 10.74802875518799 24.11773109436035 7.431055068969727 29.5951976776123 5.11428165435791 C 35.26534652709961 2.716028451919556 41.28938293457031 1.500001788139343 47.5000114440918 1.500001788139343 C 53.71063995361328 1.500001788139343 59.73467636108398 2.716028451919556 65.40482330322266 5.11428165435791 C 70.88229370117188 7.431055068969727 75.8018798828125 10.74802875518799 80.02691650390625 14.97306823730469 C 84.25196838378906 19.1981086730957 87.56894683837891 24.1176815032959 89.88571929931641 29.59514808654785 C 92.28398132324219 35.26528167724609 93.50001525878906 41.28932189941406 93.50001525878906 47.49993515014648 C 93.50001525878906 53.71054840087891 92.28398132324219 59.73458862304688 89.88571929931641 65.40472412109375 C 87.56894683837891 70.88218688964844 84.25196838378906 75.80176544189453 80.02691650390625 80.02680206298828 C 75.8018798828125 84.25183868408203 70.88229370117188 87.56881713867188 65.40482330322266 89.88558959960938 C 59.73467636108398 92.28384399414062 53.71063995361328 93.49987030029297 47.5000114440918 93.49987030029297 Z" stroke="none"/>
                                            <path d="M 47.5000114440918 3 C 41.49122619628906 3 35.66378021240234 4.1761474609375 30.17951965332031 6.495796203613281 C 24.880859375 8.7369384765625 20.12153625488281 11.94596862792969 16.03376770019531 16.03373718261719 C 11.94598388671875 20.12149047851562 8.736968994140625 24.88081359863281 6.495811462402344 30.17947387695312 C 4.176162719726562 35.66371917724609 3.000007629394531 41.49116516113281 3.000007629394531 47.49993515014648 C 3.000007629394531 53.50870513916016 4.176162719726562 59.33615112304688 6.495811462402344 64.82039642333984 C 8.736968994140625 70.11905670166016 11.94598388671875 74.87837982177734 16.03376770019531 78.96613311767578 C 20.12153625488281 83.05390167236328 24.880859375 86.26293182373047 30.17951965332031 88.50407409667969 C 35.66378021240234 90.82372283935547 41.49122619628906 91.99987030029297 47.5000114440918 91.99987030029297 C 53.50879669189453 91.99987030029297 59.33624267578125 90.82372283935547 64.82050323486328 88.50407409667969 C 70.11916351318359 86.26293182373047 74.87848663330078 83.05390167236328 78.96625518798828 78.96613311767578 C 83.05403900146484 74.87837982177734 86.2630615234375 70.11905670166016 88.50421142578125 64.82039642333984 C 90.82386016845703 59.33615112304688 92.00001525878906 53.50870513916016 92.00001525878906 47.49993515014648 C 92.00001525878906 41.49116516113281 90.82386016845703 35.66371917724609 88.50421142578125 30.17947387695312 C 86.2630615234375 24.88081359863281 83.05403900146484 20.12149047851562 78.96625518798828 16.03373718261719 C 74.87848663330078 11.94596862792969 70.11916351318359 8.7369384765625 64.82050323486328 6.495796203613281 C 59.33624267578125 4.1761474609375 53.50879669189453 3 47.5000114440918 3 M 47.5000114440918 0 C 73.73353576660156 0 95.00001525878906 21.26644134521484 95.00001525878906 47.49993515014648 C 95.00001525878906 73.73342895507812 73.73353576660156 94.99987030029297 47.5000114440918 94.99987030029297 C 21.26648712158203 94.99987030029297 7.62939453125e-06 73.73342895507812 7.62939453125e-06 47.49993515014648 C 7.62939453125e-06 21.26644134521484 21.26648712158203 0 47.5000114440918 0 Z" stroke="none" fill="#83793c"/>
                                          </g>
                                        </g>
                                      </g>
                                    </g>
                                  </g>
                                </g>
                              </g>
                            </g>
                          </g>
                        </g>
                      </g>
                    </g>
                  </g>
                </g>
              </g>
            </g>
          </g>
        </g>
      </g>
    </g>
    <g id="sharing_12649763" transform="translate(3347.722 7984.303)">
      <g id="Grupo_1225338" data-name="Grupo 1225338" transform="translate(7.5 117.122)">
        <g id="Grupo_1225331" data-name="Grupo 1225331" transform="translate(29.741 6.432)">
          <path id="Trazado_1057188" data-name="Trazado 1057188" d="M219.929,188.731v-6.259a.809.809,0,0,0-.424-.712l-2.189-1.189a.885.885,0,0,1-.213-1.394l2.6-2.674a.806.806,0,0,0,.229-.564v-.461a15.538,15.538,0,0,1,1.768-7.216,13.364,13.364,0,0,0-14.557,0,15.538,15.538,0,0,1,1.768,7.216v.461a.806.806,0,0,0,.229.565l2.6,2.674a.885.885,0,0,1-.213,1.394l-2.189,1.189a.809.809,0,0,0-.424.712v6.259a2.994,2.994,0,0,1-1.169,2.371,13.371,13.371,0,0,0,13.359,0A2.993,2.993,0,0,1,219.929,188.731Z" transform="translate(-207.14 -166.107)" fill="#dff6fd"/>
          <path id="Trazado_1057189" data-name="Trazado 1057189" d="M230.373,224.311l-2.189-1.189a.885.885,0,0,1-.213-1.394l2.5-2.576a5.939,5.939,0,0,0-10.373,0l2.5,2.576a.885.885,0,0,1-.213,1.394l-2.189,1.189a.809.809,0,0,0-.289.268,5.941,5.941,0,0,0,10.752,0A.806.806,0,0,0,230.373,224.311Z" transform="translate(-218.008 -208.658)" fill="#99e6fc"/>
        </g>
        <g id="Grupo_1225337" data-name="Grupo 1225337" transform="translate(0 0)">
          <g id="Grupo_1225333" data-name="Grupo 1225333">
            <path id="Trazado_1057190" data-name="Trazado 1057190" d="M41.941,142.329l-2.6-2.674a.661.661,0,0,1-.187-.461v-.461a15.829,15.829,0,1,0-26.266,11.882,1.237,1.237,0,0,1,.426.929v10.821a1.227,1.227,0,0,0,1.227,1.227h14.5a1.227,1.227,0,0,0,1.227-1.227V157.7a2.564,2.564,0,0,1,2.566-2.563H36a3.152,3.152,0,0,0,3.153-3.15v-6.259a.661.661,0,0,1,.346-.581l2.189-1.189A1.034,1.034,0,0,0,41.941,142.329Z" transform="translate(-7.5 -122.93)" fill="#c96e59"/>
            <path id="Trazado_1057191" data-name="Trazado 1057191" d="M75.179,158.026l-2.6-2.674a.661.661,0,0,1-.187-.461v-.461a15.78,15.78,0,0,0-6.909-13.056,15.713,15.713,0,0,1,2.737,8.885v13.252a3.152,3.152,0,0,1-3.152,3.15,5.734,5.734,0,0,0-5.735,5.733v1.235a1.49,1.49,0,0,1-1.49,1.49H46.556v2.944a1.227,1.227,0,0,0,1.227,1.227h14.5a1.227,1.227,0,0,0,1.227-1.227V173.4a2.564,2.564,0,0,1,2.566-2.563h3.167a3.152,3.152,0,0,0,3.153-3.15v-6.259a.662.662,0,0,1,.346-.581l2.189-1.189A1.034,1.034,0,0,0,75.179,158.026Z" transform="translate(-40.738 -138.626)" fill="#bb5d4c"/>
            <g id="Grupo_1225332" data-name="Grupo 1225332" transform="translate(6.16 6.183)">
              <circle id="Elipse_13599" data-name="Elipse 13599" cx="9.637" cy="9.637" r="9.637" fill="#ffe177"/>
              <path id="Trazado_1057192" data-name="Trazado 1057192" d="M78.346,169.322a9.638,9.638,0,0,1-10.481,15.733,9.637,9.637,0,1,0,10.481-15.733Z" transform="translate(-65.033 -168.594)" fill="#ffd15b"/>
            </g>
          </g>
          <g id="Grupo_1225336" data-name="Grupo 1225336" transform="translate(39.305)">
            <path id="Trazado_1057193" data-name="Trazado 1057193" d="M271.638,142.329l2.6-2.674a.662.662,0,0,0,.187-.461v-.461a15.829,15.829,0,1,1,26.266,11.882,1.237,1.237,0,0,0-.426.929v10.821a1.227,1.227,0,0,1-1.227,1.227h-14.5a1.227,1.227,0,0,1-1.227-1.227V157.7a2.564,2.564,0,0,0-2.566-2.563h-3.167a3.152,3.152,0,0,1-3.153-3.15v-6.259a.661.661,0,0,0-.346-.581l-2.189-1.189A1.034,1.034,0,0,1,271.638,142.329Z" transform="translate(-271.345 -122.93)" fill="#ffdfcf"/>
            <g id="Grupo_1225334" data-name="Grupo 1225334" transform="translate(11.962 0.779)">
              <path id="Trazado_1057194" data-name="Trazado 1057194" d="M363.5,128.157a15.789,15.789,0,0,1,1.341,24.827,1.227,1.227,0,0,0-.419.923v8.473a1.49,1.49,0,0,1-1.49,1.49H351.64v2.944a1.227,1.227,0,0,0,1.227,1.227h14.5a1.227,1.227,0,0,0,1.227-1.227V155.993a1.227,1.227,0,0,1,.419-.923,15.8,15.8,0,0,0-5.512-26.913Z" transform="translate(-351.64 -128.157)" fill="#ffcebf"/>
            </g>
            <g id="Grupo_1225335" data-name="Grupo 1225335" transform="translate(9.299 6.183)">
              <circle id="Elipse_13600" data-name="Elipse 13600" cx="9.637" cy="9.637" r="9.637" fill="#cb97e7"/>
              <path id="Trazado_1057195" data-name="Trazado 1057195" d="M363.261,169.322a9.638,9.638,0,0,1-10.481,15.733,9.637,9.637,0,1,0,10.481-15.733Z" transform="translate(-349.948 -168.594)" fill="#bd80e1"/>
            </g>
          </g>
        </g>
      </g>
      <g id="Grupo_1225341" data-name="Grupo 1225341" transform="translate(7.5 116.105)">
        <path id="Trazado_1057196" data-name="Trazado 1057196" d="M220.447,274.063a5.939,5.939,0,0,0,10.593,0" transform="translate(-188.724 -250.532)" fill="none" stroke="#000" stroke-linejoin="round" stroke-miterlimit="10" stroke-width="1.2"/>
        <path id="Trazado_1057197" data-name="Trazado 1057197" d="M231.921,219.017a5.938,5.938,0,0,0-10.219,0" transform="translate(-189.792 -201.208)" fill="none" stroke="#000" stroke-linejoin="round" stroke-miterlimit="10" stroke-width="1.2"/>
        <g id="Grupo_1225339" data-name="Grupo 1225339" transform="translate(12.836 13.501)">
          <line id="Línea_1065" data-name="Línea 1065" y2="0.911" fill="none" stroke="#000" stroke-linecap="round" stroke-linejoin="round" stroke-miterlimit="10" stroke-width="1.2"/>
          <line id="Línea_1066" data-name="Línea 1066" y2="0.911" transform="translate(5.922)" fill="none" stroke="#000" stroke-linecap="round" stroke-linejoin="round" stroke-miterlimit="10" stroke-width="1.2"/>
        </g>
        <path id="Trazado_1057198" data-name="Trazado 1057198" d="M95.067,239.377a2.766,2.766,0,0,0,5.5,0" transform="translate(-82.022 -221.013)" fill="none" stroke="#000" stroke-linecap="round" stroke-linejoin="round" stroke-miterlimit="10" stroke-width="1.2"/>
        <g id="Grupo_1225340" data-name="Grupo 1225340" transform="translate(55.281 13.501)">
          <line id="Línea_1067" data-name="Línea 1067" y2="0.911" transform="translate(5.922)" fill="none" stroke="#000" stroke-linecap="round" stroke-linejoin="round" stroke-miterlimit="10" stroke-width="1.2"/>
          <line id="Línea_1068" data-name="Línea 1068" y2="0.911" fill="none" stroke="#000" stroke-linecap="round" stroke-linejoin="round" stroke-miterlimit="10" stroke-width="1.2"/>
        </g>
        <path id="Trazado_1057199" data-name="Trazado 1057199" d="M379.982,241.872a2.766,2.766,0,0,1,5.5,0" transform="translate(-324.493 -221.014)" fill="none" stroke="#000" stroke-linecap="round" stroke-linejoin="round" stroke-miterlimit="10" stroke-width="1.2"/>
        <circle id="Elipse_13601" data-name="Elipse 13601" cx="9.637" cy="9.637" r="9.637" transform="translate(6.16 7.2)" fill="none" stroke="#000" stroke-linecap="round" stroke-linejoin="round" stroke-miterlimit="10" stroke-width="1.2"/>
        <path id="Trazado_1057200" data-name="Trazado 1057200" d="M335.332,168.812a9.621,9.621,0,1,0,3.921-3.437" transform="translate(-285.162 -157.237)" fill="none" stroke="#000" stroke-linecap="round" stroke-linejoin="round" stroke-miterlimit="10" stroke-width="1.2"/>
        <path id="Trazado_1057201" data-name="Trazado 1057201" d="M10.785,148.373a15.92,15.92,0,0,0,2.107,2.244,1.237,1.237,0,0,1,.426.929v10.821a1.227,1.227,0,0,0,1.227,1.227h14.5a1.227,1.227,0,0,0,1.227-1.227V157.7a2.564,2.564,0,0,1,2.566-2.563H36a3.152,3.152,0,0,0,3.153-3.15v-6.259a.662.662,0,0,1,.346-.581l2.189-1.189a1.034,1.034,0,0,0,.248-1.628l-2.6-2.674a.661.661,0,0,1-.187-.461v-.461a15.829,15.829,0,1,0-30.839,5.027" transform="translate(-7.5 -121.914)" fill="none" stroke="#000" stroke-linecap="round" stroke-linejoin="round" stroke-miterlimit="10" stroke-width="1.2"/>
        <path id="Trazado_1057202" data-name="Trazado 1057202" d="M271.638,142.329l2.6-2.674a.662.662,0,0,0,.187-.461v-.461a15.829,15.829,0,1,1,26.266,11.882,1.237,1.237,0,0,0-.426.929v10.821a1.227,1.227,0,0,1-1.227,1.227h-14.5a1.227,1.227,0,0,1-1.227-1.227V157.7a2.564,2.564,0,0,0-2.566-2.563h-3.167a3.152,3.152,0,0,1-3.153-3.15v-6.259a.661.661,0,0,0-.346-.581l-2.189-1.189A1.034,1.034,0,0,1,271.638,142.329Z" transform="translate(-232.04 -121.913)" fill="none" stroke="#000" stroke-linecap="round" stroke-linejoin="round" stroke-miterlimit="10" stroke-width="1.2"/>
        <path id="Trazado_1057203" data-name="Trazado 1057203" d="M212.121,334.432a13.3,13.3,0,0,0,3.93,1.452" transform="translate(-181.638 -301.908)" fill="none" stroke="#000" stroke-linecap="round" stroke-linejoin="round" stroke-miterlimit="10" stroke-width="1.2"/>
        <path id="Trazado_1057204" data-name="Trazado 1057204" d="M222.311,168.178a13.365,13.365,0,0,0-14.3,0" transform="translate(-178.143 -158.657)" fill="none" stroke="#000" stroke-linejoin="round" stroke-miterlimit="10" stroke-width="1.2"/>
        <path id="Trazado_1057205" data-name="Trazado 1057205" d="M273.5,335.884a13.3,13.3,0,0,0,3.93-1.452" transform="translate(-233.874 -301.908)" fill="none" stroke="#000" stroke-linecap="round" stroke-linejoin="round" stroke-miterlimit="10" stroke-width="1.2"/>
        <path id="Trazado_1057206" data-name="Trazado 1057206" d="M198.94,119.982a20.846,20.846,0,0,0-24.215,0" transform="translate(-149.813 -116.105)" fill="none" stroke="#000" stroke-linecap="round" stroke-linejoin="round" stroke-miterlimit="10" stroke-width="1.2" stroke-dasharray="10 30"/>
        <path id="Trazado_1057207" data-name="Trazado 1057207" d="M160.36,358.083a20.836,20.836,0,0,0,28.5,0" transform="translate(-137.588 -322.035)" fill="none" stroke="#000" stroke-linecap="round" stroke-linejoin="round" stroke-miterlimit="10" stroke-width="1.2" stroke-dasharray="10 30"/>
      </g>
    </g>
  </g>
</svg>
