<svg xmlns="http://www.w3.org/2000/svg" xmlns:xlink="http://www.w3.org/1999/xlink" width="113" height="113" viewBox="0 0 113 113">
  <defs>
    <filter id="Trazado_982547" x="0" y="0" width="113" height="113" filterUnits="userSpaceOnUse">
      <feOffset dy="3" input="SourceAlpha"/>
      <feGaussianBlur stdDeviation="3" result="blur"/>
      <feFlood flood-opacity="0.161"/>
      <feComposite operator="in" in2="blur"/>
      <feComposite in="SourceGraphic"/>
    </filter>
    <clipPath id="clip-path">
      <path id="path5682" d="M0-682.665H71.132v71.132H0Z" transform="translate(0 682.665)"/>
    </clipPath>
  </defs>
  <g id="Grupo_1225410" data-name="Grupo 1225410" transform="translate(-3666.742 -8067.748)">
    <g id="Grupo_1225196" data-name="Grupo 1225196" transform="translate(2873.252 6333.791)">
      <g id="Grupo_1209304" data-name="Grupo 1209304" transform="translate(0 503.742)">
        <g id="Grupo_1208492" data-name="Grupo 1208492" transform="translate(0 -4397.209)">
          <g id="Grupo_1177675" data-name="Grupo 1177675" transform="translate(-4493 3707.152)">
            <g id="Grupo_1176928" data-name="Grupo 1176928" transform="translate(5295.49 1926.273)">
              <g id="Grupo_1172322" data-name="Grupo 1172322" transform="translate(0 0)">
                <g id="Grupo_1164700" data-name="Grupo 1164700">
                  <g id="Grupo_1160931" data-name="Grupo 1160931">
                    <g id="Grupo_1160749" data-name="Grupo 1160749">
                      <g id="Grupo_1158891" data-name="Grupo 1158891">
                        <g id="Grupo_1157406" data-name="Grupo 1157406">
                          <g id="Grupo_1155793" data-name="Grupo 1155793">
                            <g id="Grupo_1154704" data-name="Grupo 1154704">
                              <g id="Grupo_1150790" data-name="Grupo 1150790">
                                <g id="Grupo_1154214" data-name="Grupo 1154214">
                                  <g id="Grupo_1152583" data-name="Grupo 1152583">
                                    <g id="Grupo_1146973" data-name="Grupo 1146973">
                                      <g id="Grupo_1146954" data-name="Grupo 1146954">
                                        <g transform="matrix(1, 0, 0, 1, -9, -6)" filter="url(#Trazado_982547)">
                                          <g id="Trazado_982547-2" data-name="Trazado 982547" transform="translate(9 6)" fill="#fcf8db">
                                            <path d="M 47.5000114440918 93.49987030029297 C 41.28938293457031 93.49987030029297 35.26534652709961 92.28384399414062 29.5951976776123 89.88558959960938 C 24.11773109436035 87.56881713867188 19.19814491271973 84.25183868408203 14.97310447692871 80.02680206298828 C 10.74805164337158 75.80176544189453 7.43107795715332 70.88218688964844 5.114304542541504 65.40472412109375 C 2.716038227081299 59.73458862304688 1.500011444091797 53.71054840087891 1.500011444091797 47.49993515014648 C 1.500011444091797 41.28932189941406 2.716038227081299 35.26528167724609 5.114304542541504 29.59514808654785 C 7.43107795715332 24.1176815032959 10.74805164337158 19.1981086730957 14.97310447692871 14.97306823730469 C 19.19814491271973 10.74802875518799 24.11773109436035 7.431055068969727 29.5951976776123 5.11428165435791 C 35.26534652709961 2.716028451919556 41.28938293457031 1.500001788139343 47.5000114440918 1.500001788139343 C 53.71063995361328 1.500001788139343 59.73467636108398 2.716028451919556 65.40482330322266 5.11428165435791 C 70.88229370117188 7.431055068969727 75.8018798828125 10.74802875518799 80.02691650390625 14.97306823730469 C 84.25196838378906 19.1981086730957 87.56894683837891 24.1176815032959 89.88571929931641 29.59514808654785 C 92.28398132324219 35.26528167724609 93.50001525878906 41.28932189941406 93.50001525878906 47.49993515014648 C 93.50001525878906 53.71054840087891 92.28398132324219 59.73458862304688 89.88571929931641 65.40472412109375 C 87.56894683837891 70.88218688964844 84.25196838378906 75.80176544189453 80.02691650390625 80.02680206298828 C 75.8018798828125 84.25183868408203 70.88229370117188 87.56881713867188 65.40482330322266 89.88558959960938 C 59.73467636108398 92.28384399414062 53.71063995361328 93.49987030029297 47.5000114440918 93.49987030029297 Z" stroke="none"/>
                                            <path d="M 47.5000114440918 3 C 41.49122619628906 3 35.66378021240234 4.1761474609375 30.17951965332031 6.495796203613281 C 24.880859375 8.7369384765625 20.12153625488281 11.94596862792969 16.03376770019531 16.03373718261719 C 11.94598388671875 20.12149047851562 8.736968994140625 24.88081359863281 6.495811462402344 30.17947387695312 C 4.176162719726562 35.66371917724609 3.000007629394531 41.49116516113281 3.000007629394531 47.49993515014648 C 3.000007629394531 53.50870513916016 4.176162719726562 59.33615112304688 6.495811462402344 64.82039642333984 C 8.736968994140625 70.11905670166016 11.94598388671875 74.87837982177734 16.03376770019531 78.96613311767578 C 20.12153625488281 83.05390167236328 24.880859375 86.26293182373047 30.17951965332031 88.50407409667969 C 35.66378021240234 90.82372283935547 41.49122619628906 91.99987030029297 47.5000114440918 91.99987030029297 C 53.50879669189453 91.99987030029297 59.33624267578125 90.82372283935547 64.82050323486328 88.50407409667969 C 70.11916351318359 86.26293182373047 74.87848663330078 83.05390167236328 78.96625518798828 78.96613311767578 C 83.05403900146484 74.87837982177734 86.2630615234375 70.11905670166016 88.50421142578125 64.82039642333984 C 90.82386016845703 59.33615112304688 92.00001525878906 53.50870513916016 92.00001525878906 47.49993515014648 C 92.00001525878906 41.49116516113281 90.82386016845703 35.66371917724609 88.50421142578125 30.17947387695312 C 86.2630615234375 24.88081359863281 83.05403900146484 20.12149047851562 78.96625518798828 16.03373718261719 C 74.87848663330078 11.94596862792969 70.11916351318359 8.7369384765625 64.82050323486328 6.495796203613281 C 59.33624267578125 4.1761474609375 53.50879669189453 3 47.5000114440918 3 M 47.5000114440918 0 C 73.73353576660156 0 95.00001525878906 21.26644134521484 95.00001525878906 47.49993515014648 C 95.00001525878906 73.73342895507812 73.73353576660156 94.99987030029297 47.5000114440918 94.99987030029297 C 21.26648712158203 94.99987030029297 7.62939453125e-06 73.73342895507812 7.62939453125e-06 47.49993515014648 C 7.62939453125e-06 21.26644134521484 21.26648712158203 0 47.5000114440918 0 Z" stroke="none" fill="#83793c"/>
                                          </g>
                                        </g>
                                      </g>
                                    </g>
                                  </g>
                                </g>
                              </g>
                            </g>
                          </g>
                        </g>
                      </g>
                    </g>
                  </g>
                </g>
              </g>
            </g>
          </g>
        </g>
      </g>
    </g>
    <g id="g5676" transform="translate(3686.676 8768.347)">
      <g id="g5678" transform="translate(0 -682.665)">
        <g id="g5680" transform="translate(0 0)" clip-path="url(#clip-path)">
          <g id="g5686" transform="translate(50.348 39.5)">
            <path id="path5688" d="M-28.12,0l-3.271,3.784,3.271,3.875h2.812a3.831,3.831,0,0,0,3.83-3.83A3.83,3.83,0,0,0-25.308,0Z" transform="translate(31.391)" fill="#ffdcce"/>
          </g>
          <g id="g5690" transform="translate(24.828 50.817)">
            <path id="path5692" d="M-141.179,0l-5.683,2.418L-151.846,0-157.6,2.418a11.494,11.494,0,0,0,3.08,4.5v3.648l3.829,4.353,3.829-4.353,3.829,4.353,3.829-4.353V6.919c.154-.139.3-.28.451-.426a11.5,11.5,0,0,0,2.629-4.075Z" transform="translate(157.601)" fill="#78cbec"/>
          </g>
          <g id="g5694" transform="translate(24.828 51.758)">
            <path id="path5696" d="M-30.233,0l-3.517,1.478a11.492,11.492,0,0,0,3.08,4.5V9.626l3.829,4.353.134-.152A31.386,31.386,0,0,1-30.233,0" transform="translate(33.749)" fill="#34b5e1"/>
          </g>
          <g id="g5698" transform="translate(35.566 61.384)">
            <path id="path5700" d="M-65.844,0V4.877a3.819,3.819,0,0,1-1.122,2.708,3.815,3.815,0,0,1-2.707,1.122,3.83,3.83,0,0,1-3.83-3.83V0Z" transform="translate(73.502)" fill="#ffcabd"/>
          </g>
          <g id="g5702" transform="translate(27.907 61.384)">
            <path id="path5704" d="M-65.842,0V4.877a3.818,3.818,0,0,1-1.122,2.708,3.818,3.818,0,0,1-2.708,1.122A3.83,3.83,0,0,1-73.5,4.877V0h7.659Z" transform="translate(73.501)" fill="#ffdcce"/>
          </g>
          <g id="g5706" transform="translate(27.908 61.384)">
            <path id="path5708" d="M-18.449,0h-2.146V4.877a3.829,3.829,0,0,0,3.829,3.83,3.813,3.813,0,0,0,2.465-.9A26.874,26.874,0,0,1-18.449,0" transform="translate(20.595)" fill="#ffcabd"/>
          </g>
          <g id="g5710" transform="translate(17.513 33.333)">
            <path id="path5712" d="M-310.408-53.016h-6.584v-6.167H-339.93v6.167h-6.584v7.659h6.584v2.04a11.445,11.445,0,0,0,.731,4.036h21.477a11.448,11.448,0,0,0,.731-4.036v-2.04h6.584Z" transform="translate(346.514 59.183)" fill="#ff748f"/>
          </g>
          <g id="g5714" transform="translate(10.871 39.5)">
            <path id="path5716" d="M-57.105,0l3.271,3.784-3.271,3.875h-2.812a3.83,3.83,0,0,1-3.83-3.83A3.83,3.83,0,0,1-59.917,0Z" transform="translate(63.748)" fill="#ffdcce"/>
          </g>
          <g id="g5718" transform="translate(30.18 37.965)">
            <path id="path5720" d="M-92.607-46.3a5.386,5.386,0,0,1-5.386,5.386,5.386,5.386,0,0,1-5.386-5.386,5.386,5.386,0,0,1,5.386-5.386A5.386,5.386,0,0,1-92.607-46.3" transform="translate(103.378 51.689)" fill="#ffcabd"/>
          </g>
          <g id="g5722" transform="translate(51.289 18.228)">
            <path id="path5724" d="M0-46.7A5.432,5.432,0,0,0,5.432-41.27,5.432,5.432,0,0,0,10.865-46.7a5.432,5.432,0,0,0-5.432-5.432A5.432,5.432,0,0,0,0-46.7" transform="translate(0 52.135)" fill="#ffcabd"/>
          </g>
          <g id="g5726" transform="translate(16.816 1.042)">
            <path id="path5728" d="M0-97.584a21.139,21.139,0,0,1,18.75-11.351A21.143,21.143,0,0,1,37.5-97.584l-3.027,4.555H3.027Z" transform="translate(0 108.934)" fill="#ff9e8e"/>
          </g>
          <g id="g5730" transform="translate(16.816 1.482)">
            <path id="path5732" d="M-124.182,0a21.174,21.174,0,0,0-14.445,10.911l3.027,4.555h.826A24.684,24.684,0,0,1-124.182,0" transform="translate(138.626)" fill="#fb8978"/>
          </g>
          <g id="g5734" transform="translate(17.513 33.334)">
            <path id="path5736" d="M-103.98,0h-5.511V6.167h-6.584v7.659h6.584v2.041a11.445,11.445,0,0,0,.731,4.036h3.59q-.088-1.22-.089-2.471c0-7.993.159-13.572,1.279-17.43" transform="translate(116.074 0)" fill="#fd5f7e"/>
          </g>
          <g id="g5738" transform="translate(14.411 11.704)">
            <path id="path5740" d="M-363.75-90.215A21.153,21.153,0,0,1-384.9-69.061,21.153,21.153,0,0,1-406.06-90.215a21.082,21.082,0,0,1,2.4-9.8l.239.175a4.471,4.471,0,0,0,2.645.864,4.469,4.469,0,0,0,2.644-.864,4.47,4.47,0,0,1,2.644-.864,4.471,4.471,0,0,1,2.645.864,4.466,4.466,0,0,0,2.644.864,4.47,4.47,0,0,0,2.645-.864,4.47,4.47,0,0,1,2.644-.864,4.47,4.47,0,0,1,2.644.864,4.47,4.47,0,0,0,2.645.864,4.466,4.466,0,0,0,2.644-.864,4.471,4.471,0,0,1,2.645-.864,4.469,4.469,0,0,1,2.644.864,4.48,4.48,0,0,0,5.289,0l.239-.175a21.065,21.065,0,0,1,2.405,9.8" transform="translate(406.06 100.709)" fill="#ffdcce"/>
          </g>
          <g id="g5742" transform="translate(8.978 12.393)">
            <path id="path5744" d="M-201.575-264.158a24.566,24.566,0,0,1-12.272-21.181,24.148,24.148,0,0,1,1.771-9.1,4.468,4.468,0,0,1-2.224.6,4.471,4.471,0,0,1-2.645-.864l-.239-.175a21.037,21.037,0,0,0-2.034,5.849c-.123-.008-.246-.014-.371-.014a5.432,5.432,0,0,0-5.432,5.432,5.432,5.432,0,0,0,5.432,5.432,5.454,5.454,0,0,0,1.112-.114,21.173,21.173,0,0,0,16.9,14.141" transform="translate(225.022 294.885)" fill="#ffcabd"/>
          </g>
          <g id="g5746" transform="translate(19.864 23.913)">
            <path id="path5748" d="M-72.768-28.974c0,1.861-1.895,3.37-4.232,3.37s-4.232-1.509-4.232-3.37,1.895-3.37,4.232-3.37,4.232,1.509,4.232,3.37" transform="translate(81.232 32.344)" fill="#ff889e"/>
          </g>
          <g id="g5750" transform="translate(42.804 23.913)">
            <path id="path5752" d="M0-28.974c0,1.861,1.895,3.37,4.232,3.37s4.232-1.509,4.232-3.37-1.895-3.37-4.232-3.37S0-30.835,0-28.974" transform="translate(0 32.344)" fill="#ff889e"/>
          </g>
          <g id="g5754" transform="translate(24.549 21.601)">
            <path id="path5756" d="M-34.635-17.318a2.014,2.014,0,0,0-2.014-2.014,2.014,2.014,0,0,0-2.014,2.014" transform="translate(38.664 19.332)" fill="none" stroke="#000" stroke-linecap="round" stroke-linejoin="round" stroke-miterlimit="10" stroke-width="1.2"/>
          </g>
          <g id="g5758" transform="translate(42.555 21.601)">
            <path id="path5760" d="M0-17.318a2.014,2.014,0,0,1,2.014-2.014,2.014,2.014,0,0,1,2.014,2.014" transform="translate(0 19.332)" fill="none" stroke="#000" stroke-linecap="round" stroke-linejoin="round" stroke-miterlimit="10" stroke-width="1.2"/>
          </g>
          <g id="g5762" transform="translate(33.429 25.97)">
            <path id="path5764" d="M0,0A2.826,2.826,0,0,0,2.137.973,2.826,2.826,0,0,0,4.273,0" fill="none" stroke="#000" stroke-linecap="round" stroke-linejoin="round" stroke-miterlimit="10" stroke-width="1.2"/>
          </g>
          <g id="g5766" transform="translate(35.566 61.384)">
            <path id="path5768" d="M-65.842,0V4.877a3.818,3.818,0,0,1-1.122,2.708,3.814,3.814,0,0,1-2.707,1.122,3.83,3.83,0,0,1-3.83-3.83V0Z" transform="translate(73.501)" fill="none" stroke="#000" stroke-linecap="round" stroke-linejoin="round" stroke-miterlimit="10" stroke-width="1.2"/>
          </g>
          <g id="g5770" transform="translate(27.907 61.384)">
            <path id="path5772" d="M-65.842,0V4.877a3.818,3.818,0,0,1-1.122,2.708,3.818,3.818,0,0,1-2.708,1.122A3.83,3.83,0,0,1-73.5,4.877V0h7.659Z" transform="translate(73.501)" fill="none" stroke="#000" stroke-linecap="round" stroke-linejoin="round" stroke-miterlimit="10" stroke-width="1.2"/>
          </g>
          <g id="g5774" transform="translate(24.828 53.235)">
            <path id="path5776" d="M-110.34,0h-12.835a11.493,11.493,0,0,0,3.08,4.5V8.149h15.317V4.5c.154-.139.3-.28.451-.426A11.5,11.5,0,0,0-101.7,0h-4.477" transform="translate(123.174)" fill="none" stroke="#000" stroke-linecap="round" stroke-linejoin="round" stroke-miterlimit="10" stroke-width="1.2"/>
          </g>
          <g id="g5778" transform="translate(10.871 39.5)">
            <path id="path5780" d="M-57.107,0V7.659h-2.812a3.831,3.831,0,0,1-3.831-3.83A3.83,3.83,0,0,1-59.919,0Z" transform="translate(63.749)" fill="none" stroke="#000" stroke-linecap="round" stroke-linejoin="round" stroke-miterlimit="10" stroke-width="1.2"/>
          </g>
          <g id="g5782" transform="translate(53.619 39.5)">
            <path id="path5784" d="M0,0V7.659H2.812A3.83,3.83,0,1,0,2.812,0Z" fill="none" stroke="#000" stroke-linecap="round" stroke-linejoin="round" stroke-miterlimit="10" stroke-width="1.2"/>
          </g>
          <g id="g5786" transform="translate(2.818 32.206)">
            <path id="path5788" d="M-25.007-50.015l-2.909-2.909,2.909-2.909" transform="translate(27.916 55.833)" fill="none" stroke="#000" stroke-linecap="round" stroke-linejoin="round" stroke-miterlimit="10" stroke-width="1.2"/>
          </g>
          <g id="g5790" transform="translate(2.818 35.115)">
            <path id="path5792" d="M0,0H9.242" fill="none" stroke="#000" stroke-linecap="round" stroke-linejoin="round" stroke-miterlimit="10" stroke-width="1.2"/>
          </g>
          <g id="g5794" transform="translate(65.405 32.206)">
            <path id="path5796" d="M0-50.015l2.909-2.909L0-55.833" transform="translate(0 55.833)" fill="none" stroke="#000" stroke-linecap="round" stroke-linejoin="round" stroke-miterlimit="10" stroke-width="1.2"/>
          </g>
          <g id="g5798" transform="translate(59.072 35.115)">
            <path id="path5800" d="M-79.455,0H-88.7" transform="translate(88.697)" fill="none" stroke="#000" stroke-linecap="round" stroke-linejoin="round" stroke-miterlimit="10" stroke-width="1.2"/>
          </g>
          <g id="g5802" transform="translate(17.513 39.5)">
            <path id="path5804" d="M-209.033-118.082h4.477a11.451,11.451,0,0,0,.73-4.036v-2.04h6.584v-7.659h-5.878a21.043,21.043,0,0,1-12.175,3.851,21.05,21.05,0,0,1-12.175-3.851h-5.878v7.659h6.584v2.04a11.448,11.448,0,0,0,.731,4.036H-213.2" transform="translate(233.347 131.817)" fill="none" stroke="#000" stroke-linecap="round" stroke-linejoin="round" stroke-miterlimit="10" stroke-width="1.2"/>
          </g>
          <g id="g5806" transform="translate(30.18 42.671)">
            <path id="path5808" d="M-46.3-5.844a21.207,21.207,0,0,1-5.342-.68,5.439,5.439,0,0,0-.044.68A5.386,5.386,0,0,0-46.3-.458a5.386,5.386,0,0,0,5.386-5.386,5.458,5.458,0,0,0-.044-.68A21.211,21.211,0,0,1-46.3-5.844Z" transform="translate(51.691 6.524)" fill="none" stroke="#000" stroke-linecap="round" stroke-linejoin="round" stroke-miterlimit="10" stroke-width="1.2"/>
          </g>
          <g id="g5810" transform="translate(8.978 18.228)">
            <path id="path5812" d="M-46.7-34.128a21.248,21.248,0,0,1,.371-3.956c-.123-.008-.246-.014-.371-.014a5.432,5.432,0,0,0-5.432,5.432A5.432,5.432,0,0,0-46.7-27.233a5.451,5.451,0,0,0,1.111-.114A21.13,21.13,0,0,1-46.7-34.128Z" transform="translate(52.136 38.097)" fill="none" stroke="#000" stroke-linecap="round" stroke-linejoin="round" stroke-miterlimit="10" stroke-width="1.2"/>
          </g>
          <g id="g5814" transform="translate(55.61 18.228)">
            <path id="path5816" d="M-9.559,0c-.125,0-.248.006-.371.014a21.257,21.257,0,0,1,.37,3.956,21.121,21.121,0,0,1-1.112,6.781,5.459,5.459,0,0,0,1.112.114A5.432,5.432,0,0,0-4.126,5.432,5.432,5.432,0,0,0-9.559,0Z" transform="translate(10.671)" fill="none" stroke="#000" stroke-linecap="round" stroke-linejoin="round" stroke-miterlimit="10" stroke-width="1.2"/>
          </g>
          <g id="g5818" transform="translate(16.816 1.042)">
            <path id="path5820" d="M-52.462-36.084a21.266,21.266,0,0,0-6.1,7.154l.239.175a4.472,4.472,0,0,0,2.645.864,4.47,4.47,0,0,0,2.644-.864,4.469,4.469,0,0,1,2.644-.864,4.47,4.47,0,0,1,2.645.864,4.468,4.468,0,0,0,2.644.864,4.472,4.472,0,0,0,2.645-.864,4.469,4.469,0,0,1,2.644-.864,4.469,4.469,0,0,1,2.644.864,4.472,4.472,0,0,0,2.645.864,4.468,4.468,0,0,0,2.644-.864,4.471,4.471,0,0,1,2.645-.864,4.47,4.47,0,0,1,2.644.864,4.48,4.48,0,0,0,5.289,0l.239-.175a21.143,21.143,0,0,0-18.75-11.351,21.072,21.072,0,0,0-8.963,1.988" transform="translate(58.564 40.281)" fill="none" stroke="#000" stroke-linecap="round" stroke-linejoin="round" stroke-miterlimit="10" stroke-width="1.2"/>
          </g>
          <g id="g5822" transform="translate(14.411 11.704)">
            <path id="path5824" d="M-363.751-90.215a21.153,21.153,0,0,1-21.155,21.154,21.153,21.153,0,0,1-21.155-21.154,21.082,21.082,0,0,1,2.405-9.8l.239.175a4.47,4.47,0,0,0,2.645.864,4.47,4.47,0,0,0,2.644-.864,4.469,4.469,0,0,1,2.644-.864,4.47,4.47,0,0,1,2.645.864,4.467,4.467,0,0,0,2.644.864,4.47,4.47,0,0,0,2.645-.864,4.47,4.47,0,0,1,2.644-.864,4.47,4.47,0,0,1,2.644.864,4.47,4.47,0,0,0,2.645.864,4.466,4.466,0,0,0,2.644-.864,4.47,4.47,0,0,1,2.645-.864,4.469,4.469,0,0,1,2.644.864,4.48,4.48,0,0,0,5.289,0l.239-.175A21.065,21.065,0,0,1-363.751-90.215Z" transform="translate(406.062 100.709)" fill="none" stroke="#000" stroke-linecap="round" stroke-linejoin="round" stroke-miterlimit="10" stroke-width="1.2"/>
          </g>
          <g id="g5826" transform="translate(35.566 57.309)">
            <path id="path5828" d="M0-35.027V-39.1" transform="translate(0 39.101)" fill="none" stroke="#000" stroke-linecap="round" stroke-linejoin="round" stroke-miterlimit="10" stroke-width="1.2"/>
          </g>
        </g>
      </g>
    </g>
  </g>
</svg>
