<svg xmlns="http://www.w3.org/2000/svg" xmlns:xlink="http://www.w3.org/1999/xlink" width="113" height="113" viewBox="0 0 113 113">
  <defs>
    <filter id="Trazado_982547" x="0" y="0" width="113" height="113" filterUnits="userSpaceOnUse">
      <feOffset dy="3" input="SourceAlpha"/>
      <feGaussianBlur stdDeviation="3" result="blur"/>
      <feFlood flood-opacity="0.161"/>
      <feComposite operator="in" in2="blur"/>
      <feComposite in="SourceGraphic"/>
    </filter>
  </defs>
  <g id="Grupo_1225411" data-name="Grupo 1225411" transform="translate(-3335.742 -8474.748)">
    <g id="Grupo_1225197" data-name="Grupo 1225197" transform="translate(2542.252 6740.791)">
      <g id="Grupo_1209304" data-name="Grupo 1209304" transform="translate(0 503.742)">
        <g id="Grupo_1208492" data-name="Grupo 1208492" transform="translate(0 -4397.209)">
          <g id="Grupo_1177675" data-name="Grupo 1177675" transform="translate(-4493 3707.152)">
            <g id="Grupo_1176928" data-name="Grupo 1176928" transform="translate(5295.49 1926.273)">
              <g id="Grupo_1172322" data-name="Grupo 1172322" transform="translate(0 0)">
                <g id="Grupo_1164700" data-name="Grupo 1164700">
                  <g id="Grupo_1160931" data-name="Grupo 1160931">
                    <g id="Grupo_1160749" data-name="Grupo 1160749">
                      <g id="Grupo_1158891" data-name="Grupo 1158891">
                        <g id="Grupo_1157406" data-name="Grupo 1157406">
                          <g id="Grupo_1155793" data-name="Grupo 1155793">
                            <g id="Grupo_1154704" data-name="Grupo 1154704">
                              <g id="Grupo_1150790" data-name="Grupo 1150790">
                                <g id="Grupo_1154214" data-name="Grupo 1154214">
                                  <g id="Grupo_1152583" data-name="Grupo 1152583">
                                    <g id="Grupo_1146973" data-name="Grupo 1146973">
                                      <g id="Grupo_1146954" data-name="Grupo 1146954">
                                        <g transform="matrix(1, 0, 0, 1, -9, -6)" filter="url(#Trazado_982547)">
                                          <g id="Trazado_982547-2" data-name="Trazado 982547" transform="translate(9 6)" fill="#fcf8db">
                                            <path d="M 47.5000114440918 93.49987030029297 C 41.28938293457031 93.49987030029297 35.26534652709961 92.28384399414062 29.5951976776123 89.88558959960938 C 24.11773109436035 87.56881713867188 19.19814491271973 84.25183868408203 14.97310447692871 80.02680206298828 C 10.74805164337158 75.80176544189453 7.43107795715332 70.88218688964844 5.114304542541504 65.40472412109375 C 2.716038227081299 59.73458862304688 1.500011444091797 53.71054840087891 1.500011444091797 47.49993515014648 C 1.500011444091797 41.28932189941406 2.716038227081299 35.26528167724609 5.114304542541504 29.59514808654785 C 7.43107795715332 24.1176815032959 10.74805164337158 19.1981086730957 14.97310447692871 14.97306823730469 C 19.19814491271973 10.74802875518799 24.11773109436035 7.431055068969727 29.5951976776123 5.11428165435791 C 35.26534652709961 2.716028451919556 41.28938293457031 1.500001788139343 47.5000114440918 1.500001788139343 C 53.71063995361328 1.500001788139343 59.73467636108398 2.716028451919556 65.40482330322266 5.11428165435791 C 70.88229370117188 7.431055068969727 75.8018798828125 10.74802875518799 80.02691650390625 14.97306823730469 C 84.25196838378906 19.1981086730957 87.56894683837891 24.1176815032959 89.88571929931641 29.59514808654785 C 92.28398132324219 35.26528167724609 93.50001525878906 41.28932189941406 93.50001525878906 47.49993515014648 C 93.50001525878906 53.71054840087891 92.28398132324219 59.73458862304688 89.88571929931641 65.40472412109375 C 87.56894683837891 70.88218688964844 84.25196838378906 75.80176544189453 80.02691650390625 80.02680206298828 C 75.8018798828125 84.25183868408203 70.88229370117188 87.56881713867188 65.40482330322266 89.88558959960938 C 59.73467636108398 92.28384399414062 53.71063995361328 93.49987030029297 47.5000114440918 93.49987030029297 Z" stroke="none"/>
                                            <path d="M 47.5000114440918 3 C 41.49122619628906 3 35.66378021240234 4.1761474609375 30.17951965332031 6.495796203613281 C 24.880859375 8.7369384765625 20.12153625488281 11.94596862792969 16.03376770019531 16.03373718261719 C 11.94598388671875 20.12149047851562 8.736968994140625 24.88081359863281 6.495811462402344 30.17947387695312 C 4.176162719726562 35.66371917724609 3.000007629394531 41.49116516113281 3.000007629394531 47.49993515014648 C 3.000007629394531 53.50870513916016 4.176162719726562 59.33615112304688 6.495811462402344 64.82039642333984 C 8.736968994140625 70.11905670166016 11.94598388671875 74.87837982177734 16.03376770019531 78.96613311767578 C 20.12153625488281 83.05390167236328 24.880859375 86.26293182373047 30.17951965332031 88.50407409667969 C 35.66378021240234 90.82372283935547 41.49122619628906 91.99987030029297 47.5000114440918 91.99987030029297 C 53.50879669189453 91.99987030029297 59.33624267578125 90.82372283935547 64.82050323486328 88.50407409667969 C 70.11916351318359 86.26293182373047 74.87848663330078 83.05390167236328 78.96625518798828 78.96613311767578 C 83.05403900146484 74.87837982177734 86.2630615234375 70.11905670166016 88.50421142578125 64.82039642333984 C 90.82386016845703 59.33615112304688 92.00001525878906 53.50870513916016 92.00001525878906 47.49993515014648 C 92.00001525878906 41.49116516113281 90.82386016845703 35.66371917724609 88.50421142578125 30.17947387695312 C 86.2630615234375 24.88081359863281 83.05403900146484 20.12149047851562 78.96625518798828 16.03373718261719 C 74.87848663330078 11.94596862792969 70.11916351318359 8.7369384765625 64.82050323486328 6.495796203613281 C 59.33624267578125 4.1761474609375 53.50879669189453 3 47.5000114440918 3 M 47.5000114440918 0 C 73.73353576660156 0 95.00001525878906 21.26644134521484 95.00001525878906 47.49993515014648 C 95.00001525878906 73.73342895507812 73.73353576660156 94.99987030029297 47.5000114440918 94.99987030029297 C 21.26648712158203 94.99987030029297 7.62939453125e-06 73.73342895507812 7.62939453125e-06 47.49993515014648 C 7.62939453125e-06 21.26644134521484 21.26648712158203 0 47.5000114440918 0 Z" stroke="none" fill="#83793c"/>
                                          </g>
                                        </g>
                                      </g>
                                    </g>
                                  </g>
                                </g>
                              </g>
                            </g>
                          </g>
                        </g>
                      </g>
                    </g>
                  </g>
                </g>
              </g>
            </g>
          </g>
        </g>
      </g>
    </g>
    <g id="empathy_5871920" transform="translate(3327.577 8495.438)">
      <g id="Grupo_1225346" data-name="Grupo 1225346" transform="translate(38.072 0.961)">
        <path id="Trazado_1057208" data-name="Trazado 1057208" d="M325.434,372.354c0-12.73-8.86-14.992-8.86-14.992l-3.87,11.126v3.866Z" transform="translate(-278.344 -312.522)" fill="#f2d48b"/>
        <path id="Trazado_1057209" data-name="Trazado 1057209" d="M99.974,372.354c0-12.73,8.86-14.992,8.86-14.992l3.87,11.126v3.866Z" transform="translate(-92.879 -312.522)" fill="#f5c372"/>
        <path id="Trazado_1057210" data-name="Trazado 1057210" d="M108.234,23.7A16.21,16.21,0,0,0,85.328,8.947a6.191,6.191,0,0,1-5.122,0A16.21,16.21,0,0,0,57.3,23.7V34.963h50.933Z" transform="translate(-55.675 -7.5)" fill="#5f66ad"/>
        <path id="Trazado_1057211" data-name="Trazado 1057211" d="M397.181,221.778v13.915a3.686,3.686,0,1,0,7.372,0V221.778Z" transform="translate(-351.994 -194.315)" fill="#5f66ad"/>
        <path id="Trazado_1057212" data-name="Trazado 1057212" d="M64.674,221.778v13.915a3.686,3.686,0,1,1-7.372,0V221.778Z" transform="translate(-55.676 -194.315)" fill="#4c5694"/>
        <path id="Trazado_1057213" data-name="Trazado 1057213" d="M71.655,16.534A21.63,21.63,0,0,1,73.618,7.5l-.113,0a16.212,16.212,0,0,0-16.2,16.2V34.964H81.886A21.7,21.7,0,0,1,71.655,16.534Z" transform="translate(-55.675 -7.501)" fill="#4c5694"/>
        <path id="Trazado_1057214" data-name="Trazado 1057214" d="M98.936,78.589a20.916,20.916,0,0,1,40.26,0Z" transform="translate(-91.974 -56.194)" fill="#66d1a7"/>
        <circle id="Elipse_13602" data-name="Elipse 13602" cx="5.791" cy="5.791" r="5.791" transform="translate(42.604 22.279)" fill="#c7856a"/>
        <path id="Trazado_1057215" data-name="Trazado 1057215" d="M116.154,64.93A20.929,20.929,0,0,0,98.936,79.965H105.7A23.571,23.571,0,0,1,116.154,64.93Z" transform="translate(-91.974 -57.569)" fill="#2cc28f"/>
        <path id="Trazado_1057216" data-name="Trazado 1057216" d="M134.67,158.22c0,11.548-9.361,19.606-20.91,19.606s-20.91-8.058-20.91-19.606a20.924,20.924,0,0,1,.779-5.673h0a48.6,48.6,0,0,1,40.26,0h0A20.924,20.924,0,0,1,134.67,158.22Z" transform="translate(-86.667 -130.15)" fill="#da9d81"/>
        <path id="Trazado_1057217" data-name="Trazado 1057217" d="M69.454,188.811A23.574,23.574,0,0,1,59.086,160.9a37.932,37.932,0,0,0-7.511,2.735h0a5.791,5.791,0,1,0,.028,11.338C53.906,182.736,60.91,188.019,69.454,188.811Z" transform="translate(-44.612 -141.24)" fill="#c7856a"/>
        <g id="Grupo_1225344" data-name="Grupo 1225344" transform="translate(12.446 27.932)">
          <ellipse id="Elipse_13603" data-name="Elipse 13603" cx="3.948" cy="3.144" rx="3.948" ry="3.144" fill="#e4e3f5"/>
          <ellipse id="Elipse_13604" data-name="Elipse 13604" cx="3.948" cy="3.144" rx="3.948" ry="3.144" transform="translate(21.398)" fill="#e4e3f5"/>
        </g>
        <path id="Trazado_1057218" data-name="Trazado 1057218" d="M173.83,335.424c-8.352-8.162-22.187,6.01-.41,17.676a.869.869,0,0,0,.821,0C196.017,341.434,182.182,327.262,173.83,335.424Z" transform="translate(-146.737 -291.288)" fill="#71dcfb"/>
        <path id="Trazado_1057219" data-name="Trazado 1057219" d="M167.592,337.677a12.387,12.387,0,0,1,.905-4.662c-7.125-.185-12.5,10.755,4.923,20.091a.869.869,0,0,0,.82,0,38.487,38.487,0,0,0,4.843-3.041A12.423,12.423,0,0,1,167.592,337.677Z" transform="translate(-146.738 -291.294)" fill="#2fc5f1"/>
        <g id="Grupo_1225345" data-name="Grupo 1225345" transform="translate(7.095 55.966)">
          <path id="Trazado_1057220" data-name="Trazado 1057220" d="M295.269,444.171h-8.863a3.866,3.866,0,1,0,0,7.732h8.863a3.866,3.866,0,1,0,0-7.732Z" transform="translate(-259.141 -444.171)" fill="#da9d81"/>
          <path id="Trazado_1057221" data-name="Trazado 1057221" d="M103.84,444.171H112.7a3.866,3.866,0,1,1,0,7.732H103.84a3.866,3.866,0,1,1,0-7.732Z" transform="translate(-99.974 -444.171)" fill="#da9d81"/>
        </g>
      </g>
      <g id="Grupo_1225347" data-name="Grupo 1225347" transform="translate(37.111)">
        <path id="Trazado_1057222" data-name="Trazado 1057222" d="M171.154,201.114a2.843,2.843,0,0,0-2.84,2.84.961.961,0,1,0,1.922,0,.918.918,0,1,1,1.836,0,.961.961,0,1,0,1.922,0A2.843,2.843,0,0,0,171.154,201.114Z" transform="translate(-151.498 -175.338)"/>
        <path id="Trazado_1057223" data-name="Trazado 1057223" d="M302.205,201.114a2.843,2.843,0,0,0-2.84,2.84.961.961,0,1,0,1.922,0,.918.918,0,0,1,1.836,0,.961.961,0,1,0,1.922,0A2.844,2.844,0,0,0,302.205,201.114Z" transform="translate(-265.753 -175.338)"/>
        <path id="Trazado_1057224" data-name="Trazado 1057224" d="M238.527,233.146a.961.961,0,0,0-1.356.093,1.68,1.68,0,0,1-2.537,0,.961.961,0,1,0-1.449,1.263,3.6,3.6,0,0,0,5.436,0A.961.961,0,0,0,238.527,233.146Z" transform="translate(-207.849 -203.058)"/>
        <path id="Trazado_1057225" data-name="Trazado 1057225" d="M205.565,381.843a.961.961,0,0,0-.961.961v1.081a.961.961,0,1,0,1.922,0V382.8A.961.961,0,0,0,205.565,381.843Z" transform="translate(-183.137 -332.904)"/>
        <path id="Trazado_1057226" data-name="Trazado 1057226" d="M293.358,384.847a.961.961,0,0,0,.961-.961V382.8a.961.961,0,1,0-1.922,0v1.081A.961.961,0,0,0,293.358,384.847Z" transform="translate(-259.678 -332.904)"/>
        <path id="Trazado_1057227" data-name="Trazado 1057227" d="M241.486,390.263a.961.961,0,0,0-1.356.093,1,1,0,0,1-1.517,0,.961.961,0,1,0-1.449,1.263,2.927,2.927,0,0,0,4.416,0A.961.961,0,0,0,241.486,390.263Z" transform="translate(-211.317 -340.038)"/>
        <path id="Trazado_1057228" data-name="Trazado 1057228" d="M86.563,5.03a17.169,17.169,0,0,0-19.235-3.5,5.22,5.22,0,0,1-4.325,0A17.172,17.172,0,0,0,45.925,3.2a.961.961,0,0,0,1.119,1.563,15.25,15.25,0,0,1,15.162-1.48,7.142,7.142,0,0,0,5.918,0A15.25,15.25,0,0,1,89.67,17.165v5.918a6.8,6.8,0,0,0-3.692-.787,21.877,21.877,0,0,0-41.627,0,6.8,6.8,0,0,0-3.692.787V17.165a15.233,15.233,0,0,1,3.709-9.96.961.961,0,0,0-1.454-1.257,17.155,17.155,0,0,0-4.177,11.218v7.478a6.732,6.732,0,0,0,0,8.775V42.34a4.647,4.647,0,0,0,9.294,0v-.225a20.5,20.5,0,0,0,3.916,3.517,13.084,13.084,0,0,0-3.03,2.212c-3.894,3.8-4.712,9.139-4.712,12.95a4.833,4.833,0,0,0,4.827,4.827H57.9a4.834,4.834,0,0,0,4.5-3.081c.614.368,1.249.731,1.9,1.082a1.826,1.826,0,0,0,1.728,0c.656-.351,1.291-.714,1.9-1.082a4.834,4.834,0,0,0,4.5,3.081H81.3a4.833,4.833,0,0,0,4.827-4.827h0c0-3.814-.819-9.158-4.72-12.957a13.043,13.043,0,0,0-3.023-2.2A20.5,20.5,0,0,0,82.3,42.115v.225a4.647,4.647,0,1,0,9.294,0V33.419a6.732,6.732,0,0,0,0-8.775V17.166A17.049,17.049,0,0,0,86.563,5.03ZM86.49,33.859a21.5,21.5,0,0,0,.546-4.828A22.423,22.423,0,0,0,86.5,24.2a4.829,4.829,0,0,1-.011,9.657ZM39.033,29.031a4.834,4.834,0,0,1,4.8-4.828,22.319,22.319,0,0,0-.535,4.829,21.5,21.5,0,0,0,.546,4.828A4.835,4.835,0,0,1,39.033,29.031Zm4.351,16.034A2.728,2.728,0,0,1,40.66,42.34V34.978a6.79,6.79,0,0,0,3.729.784,19.875,19.875,0,0,0,1.72,3.69V42.34A2.728,2.728,0,0,1,43.385,45.064Zm6.81,4.221a11.294,11.294,0,0,1,2.091-1.636c-.61,2.942.542,5.9,2.36,8.317H49.034a4.829,4.829,0,0,0-2.55.73A13.671,13.671,0,0,1,50.194,49.285ZM57.9,63.7H49.034a2.9,2.9,0,0,1,0-5.81H57.9a2.907,2.907,0,0,1,2.9,3.07h0A2.908,2.908,0,0,1,57.9,63.7ZM65.165,61.9c-.855-.459-1.677-.936-2.45-1.421A4.835,4.835,0,0,0,57.9,55.966H57.14c-8-8.884,1.336-16.062,7.353-10.18a.961.961,0,0,0,1.344,0c6.05-5.913,15.3,1.346,7.353,10.18-.368,0-.823,0-1,.006a4.836,4.836,0,0,0-4.575,4.511c-.773.485-1.6.962-2.45,1.421ZM81.3,63.7H72.432a2.9,2.9,0,1,1,0-5.81H81.3a2.908,2.908,0,0,1,2.9,2.729c0,.009,0,.017,0,.026A2.908,2.908,0,0,1,81.3,63.7Zm2.55-7a4.832,4.832,0,0,0-2.55-.73H75.685c1.8-2.4,2.971-5.353,2.36-8.317a11.3,11.3,0,0,1,2.094,1.638A13.671,13.671,0,0,1,83.846,56.7ZM76.578,44.52c-2.608-3.266-7.577-3.891-11.413-.715-3.843-3.183-8.813-2.545-11.413.715a17.861,17.861,0,0,1-8.536-15.489,20.1,20.1,0,0,1,.637-5.009,47.522,47.522,0,0,1,19.312-4.069,48.888,48.888,0,0,1,8.889.819.961.961,0,0,0,.351-1.89,50.826,50.826,0,0,0-9.24-.851,50.15,50.15,0,0,0-18.5,3.535,19.951,19.951,0,0,1,37,0,45.579,45.579,0,0,0-5.514-1.836.961.961,0,0,0-.494,1.858,40.272,40.272,0,0,1,6.821,2.441,20.024,20.024,0,0,1,.636,5.008A17.856,17.856,0,0,1,76.578,44.52ZM89.67,42.34a2.725,2.725,0,1,1-5.449,0V39.452a19.941,19.941,0,0,0,1.721-3.691,6.794,6.794,0,0,0,3.729-.784V42.34Z" transform="translate(-37.111)"/>
      </g>
    </g>
  </g>
</svg>
