<svg xmlns="http://www.w3.org/2000/svg" xmlns:xlink="http://www.w3.org/1999/xlink" width="103" height="103" viewBox="0 0 103 103">
  <defs>
    <filter id="Trazado_904820" x="0" y="0" width="103" height="103" filterUnits="userSpaceOnUse">
      <feOffset dy="3" input="SourceAlpha"/>
      <feGaussianBlur stdDeviation="3" result="blur"/>
      <feFlood flood-opacity="0.161"/>
      <feComposite operator="in" in2="blur"/>
      <feComposite in="SourceGraphic"/>
    </filter>
  </defs>
  <g id="Grupo_1225300" data-name="Grupo 1225300" transform="translate(-171 -5061)">
    <g id="Grupo_1224646" data-name="Grupo 1224646" transform="translate(5 3411)">
      <g id="Grupo_1208498" data-name="Grupo 1208498" transform="translate(175 1656)">
        <g id="Grupo_1207936" data-name="Grupo 1207936" transform="translate(0 0)">
          <g id="Grupo_1201662" data-name="Grupo 1201662">
            <g id="Grupo_1173585" data-name="Grupo 1173585">
              <g id="Grupo_1173428" data-name="Grupo 1173428">
                <g id="Grupo_1171958" data-name="Grupo 1171958">
                  <g id="Grupo_1167341" data-name="Grupo 1167341">
                    <g id="Grupo_1166792" data-name="Grupo 1166792">
                      <g transform="matrix(1, 0, 0, 1, -9, -6)" filter="url(#Trazado_904820)">
                        <g id="Trazado_904820-2" data-name="Trazado 904820" transform="translate(9 6)" fill="#edf3fc">
                          <path d="M 42.49999618530273 83.49997711181641 C 36.96437454223633 83.49997711181641 31.59512519836426 82.41616058349609 26.54140853881836 80.27861785888672 C 21.65933799743652 78.21367645263672 17.27447891235352 75.25721740722656 13.50861930847168 71.49135589599609 C 9.742773056030273 67.72550964355469 6.786302089691162 63.34065246582031 4.721360683441162 58.45858001708984 C 2.583819627761841 53.40486145019531 1.499996185302734 48.03561401367188 1.499996185302734 42.49999237060547 C 1.499996185302734 36.96437072753906 2.583819627761841 31.59512138366699 4.721360683441162 26.54140472412109 C 6.786302089691162 21.65933418273926 9.742773056030273 17.27447509765625 13.50861930847168 13.50861549377441 C 17.27447891235352 9.742769241333008 21.65933799743652 6.786310195922852 26.54140853881836 4.721368789672852 C 31.59512519836426 2.58382773399353 36.96437454223633 1.500004172325134 42.49999618530273 1.500004172325134 C 48.03561782836914 1.500004172325134 53.40486526489258 2.58382773399353 58.45858383178711 4.721368789672852 C 63.34065628051758 6.786310195922852 67.72551727294922 9.742769241333008 71.49137115478516 13.50861549377441 C 75.25721740722656 17.27447509765625 78.21369171142578 21.65933418273926 80.27863311767578 26.54140472412109 C 82.41617584228516 31.59512138366699 83.5 36.96437072753906 83.5 42.49999237060547 C 83.5 48.03561401367188 82.41617584228516 53.40486145019531 80.27863311767578 58.45858001708984 C 78.21369171142578 63.34065246582031 75.25721740722656 67.72550964355469 71.49137115478516 71.49135589599609 C 67.72551727294922 75.25721740722656 63.34065628051758 78.21367645263672 58.45858383178711 80.27861785888672 C 53.40486526489258 82.41616058349609 48.03561782836914 83.49997711181641 42.49999618530273 83.49997711181641 Z" stroke="none"/>
                          <path d="M 42.49999618530273 2.999992370605469 C 37.16621017456055 2.999992370605469 31.99355697631836 4.043952941894531 27.1257438659668 6.102874755859375 C 22.42246246337891 8.092178344726562 18.19786071777344 10.94069671630859 14.56927490234375 14.56927490234375 C 10.94070434570312 18.19786071777344 8.092185974121094 22.42245864868164 6.102874755859375 27.12572479248047 C 4.043952941894531 31.99355316162109 2.999992370605469 37.16620635986328 2.999992370605469 42.49999237060547 C 2.999992370605469 47.83377838134766 4.043952941894531 53.00641632080078 6.102874755859375 57.87424468994141 C 8.092185974121094 62.5775260925293 10.94070434570312 66.8021240234375 14.56927490234375 70.43070220947266 C 18.19786071777344 74.05927276611328 22.42246246337891 76.90779113769531 27.1257438659668 78.89710998535156 C 31.99355697631836 80.95601654052734 37.16621017456055 81.99997711181641 42.49999618530273 81.99997711181641 C 47.83378219604492 81.99997711181641 53.00643539428711 80.95601654052734 57.87425231933594 78.89710998535156 C 62.57752990722656 76.90779113769531 66.80213165283203 74.05927276611328 70.43071746826172 70.43070220947266 C 74.05928802490234 66.8021240234375 76.90780639648438 62.5775260925293 78.89711761474609 57.87424468994141 C 80.95603942871094 53.00641632080078 82 47.83377838134766 82 42.49999237060547 C 82 37.16620635986328 80.95603942871094 31.99355316162109 78.89711761474609 27.12572479248047 C 76.90780639648438 22.42245864868164 74.05928802490234 18.19786071777344 70.43071746826172 14.56927490234375 C 66.80213165283203 10.94069671630859 62.57752990722656 8.092178344726562 57.87425231933594 6.102874755859375 C 53.00643539428711 4.043952941894531 47.83378219604492 2.999992370605469 42.49999618530273 2.999992370605469 M 42.49999618530273 -7.62939453125e-06 C 65.97209167480469 -7.62939453125e-06 85 19.02788543701172 85 42.49999237060547 C 85 65.97208404541016 65.97209167480469 84.99997711181641 42.49999618530273 84.99997711181641 C 19.02790069580078 84.99997711181641 -7.62939453125e-06 65.97208404541016 -7.62939453125e-06 42.49999237060547 C -7.62939453125e-06 19.02788543701172 19.02790069580078 -7.62939453125e-06 42.49999618530273 -7.62939453125e-06 Z" stroke="none" fill="#2f4f7e"/>
                        </g>
                      </g>
                    </g>
                  </g>
                </g>
              </g>
            </g>
          </g>
        </g>
      </g>
    </g>
    <g id="inspire-idea_14781822_1_" data-name="inspire-idea_14781822 (1)" transform="translate(189.011 5075.235)">
      <g id="Grupo_1173811" data-name="Grupo 1173811" transform="translate(7.75 7.5)">
        <path id="Trazado_1030754" data-name="Trazado 1030754" d="M118.589,345.619v-3.77a2.293,2.293,0,0,0,1.863-2.252v-6.483h11.841V339.6a2.293,2.293,0,0,0,1.863,2.252l.322,3.247Z" transform="translate(-107.097 -299.354)" fill="#ca6e59"/>
        <path id="Trazado_1030755" data-name="Trazado 1030755" d="M60.639,17.7c0,7.46-4.015,16.322-14.235,13.39l-8.528-3.879a3.367,3.367,0,0,1-.222-4.98L38.515,22l.6-.592a3.558,3.558,0,0,1,.713-6.1.314.314,0,0,0,.184-.365,3.378,3.378,0,0,1-.094-.8,3.288,3.288,0,0,1,3.251-3.322,3.255,3.255,0,0,1,.632.063,1.543,1.543,0,0,1,.246-.249,1.313,1.313,0,0,0,.545-1.146,3.665,3.665,0,0,1,5.134-.362.309.309,0,0,0,.464-.074,3.217,3.217,0,0,1,5.506,0,.31.31,0,0,0,.465.074,3.652,3.652,0,0,1,.731-.485C60.639,9.779,60.639,15.013,60.639,17.7Z" transform="translate(-33.663 -7.5)" fill="#73788c"/>
        <path id="Trazado_1030756" data-name="Trazado 1030756" d="M153.453,31.08a3.342,3.342,0,0,1-1.216,2.59l-9.753,5.3h-8.719l-3.125-1.421A15.32,15.32,0,0,0,141.122,15.1a3.629,3.629,0,0,1,1.651-.4,3.679,3.679,0,0,1,2.753,1.243l.171.837.62.558a3.252,3.252,0,0,1,.631-.063A3.288,3.288,0,0,1,150.2,20.6a3.4,3.4,0,0,1-.171,1.063,3.555,3.555,0,0,1,.974,6.2A3.311,3.311,0,0,1,153.453,31.08Z" transform="translate(-117.899 -13.953)" fill="#5e6577"/>
        <path id="Trazado_1030757" data-name="Trazado 1030757" d="M68.438,200.319a5.676,5.676,0,0,0,4.324-5.513h0a2.257,2.257,0,0,0-2.257-2.257H68.438l-22.738,0H43.632a2.257,2.257,0,0,0-2.257,2.257h0a5.676,5.676,0,0,0,4.324,5.513Z" transform="translate(-37.889 -173.363)" fill="#ca6e59"/>
        <path id="Trazado_1030758" data-name="Trazado 1030758" d="M100.171,130.954a2.246,2.246,0,0,1,2.933.966,9.015,9.015,0,0,0,.752,1.143l.49.652c.207.605.669,3.434,1.31,3.434v8.612a7.184,7.184,0,0,1-2.453,5.407l-4.461,3.9a4.789,4.789,0,0,1-3.153,1.184H92.943a4.789,4.789,0,0,1-3.153-1.184l-4.461-3.9a7.184,7.184,0,0,1-2.454-5.407v-8.612a1.525,1.525,0,0,0,1.417-1.042l.982-3.833a2.245,2.245,0,0,1,3.093-1.3l.144.069,1.156.443a12.8,12.8,0,0,0,9.157,0l1.156-.443Z" transform="translate(-75.086 -117.962)" fill="#d78878"/>
        <path id="Trazado_1030759" data-name="Trazado 1030759" d="M170.7,300.148c-2.46,0-2.569-2.27-2.528-3.094a.31.31,0,0,1,.311-.294h4.427a.31.31,0,0,1,.311.3C173.237,297.892,173.075,300.148,170.7,300.148Z" transform="translate(-151.53 -266.769)" fill="#eaf6ff"/>
        <path id="Trazado_1030760" data-name="Trazado 1030760" d="M14.569,439.825l-6.508-.015a.311.311,0,0,1-.311-.311V433.72a.312.312,0,0,1,.167-.277,10.059,10.059,0,0,1,2.711-.933l.75-.15,6.613,2.453Z" transform="translate(-7.75 -388.31)" fill="#9be69d"/>
        <path id="Trazado_1030761" data-name="Trazado 1030761" d="M298.084,435.283l-2.51,4.1-8.666.006-3.136-5.491c.034-.035,6.339-2.015,6.339-2.015l.428.082a10.061,10.061,0,0,1,2.834,1Z" transform="translate(-255.154 -387.88)" fill="#9be69d"/>
        <path id="Trazado_1030762" data-name="Trazado 1030762" d="M122.419,418.39l.947,4.757-3.423,4.144-10.394.012-3.943-4.346,1.471-4.543A10.646,10.646,0,0,0,122.419,418.39Z" transform="translate(-95.461 -375.788)" fill="#eaf6ff"/>
        <path id="Trazado_1030763" data-name="Trazado 1030763" d="M49.36,409.138l-2.831-10.18a1.14,1.14,0,0,0-1.429-.785l-6.294,1.918a.493.493,0,0,0-.308.673l1.328,3.006a.312.312,0,0,0,.215.178l3.235.742a.311.311,0,0,1,.185.481l-1.755,2.516a.311.311,0,0,0-.038.283l.423,1.168Z" transform="translate(-35.272 -357.623)" fill="#bbf49b"/>
        <path id="Trazado_1030764" data-name="Trazado 1030764" d="M243.879,408.921l2.835-10.192a1.139,1.139,0,0,1,1.429-.784l6.294,1.917a.494.494,0,0,1,.308.673l-1.328,3.007a.311.311,0,0,1-.215.178l-3.235.742a.311.311,0,0,0-.186.481l1.756,2.516a.311.311,0,0,1,.038.283l-.424,1.183Z" transform="translate(-219.397 -357.418)" fill="#bbf49b"/>
        <g id="Grupo_1173808" data-name="Grupo 1173808" transform="translate(38.381 28.126)">
          <path id="Trazado_1030765" data-name="Trazado 1030765" d="M390.253,387.922v3.987a12.144,12.144,0,0,1-.273,2.417,8.487,8.487,0,0,1-.982,1.767c-.628,1.058-.353,2.146-.349,3.376l-.8.509h-7.858v-1.707a4.288,4.288,0,0,0-1.128-2.9,3.549,3.549,0,0,1-.932-2.395v-1.718a2.1,2.1,0,0,1,.9-1.723Z" transform="translate(-377.933 -376.605)" fill="#d78878"/>
          <g id="Grupo_1173807" data-name="Grupo 1173807" transform="translate(9.59 6.695)">
            <path id="Trazado_1030766" data-name="Trazado 1030766" d="M473.155,344.019v3.953a.829.829,0,0,1-.333.742c-.249.249-1.123-.132-1.5-.129l-.676-.723-.219-2.57.717-.554a1.39,1.39,0,0,1,1.354-1.388C472.953,343.52,473.155,343.755,473.155,344.019Z" transform="translate(-470.425 -343.35)" fill="#d78878"/>
            <path id="Trazado_1030767" data-name="Trazado 1030767" d="M481.66,344.729v3.124a1.392,1.392,0,0,1-2.516.817l-.089-.094a1.391,1.391,0,0,0,1.379-1.391v-3.121a1.382,1.382,0,0,0-.2-.723h.037A1.391,1.391,0,0,1,481.66,344.729Z" transform="translate(-478.159 -343.34)" fill="#ca6e59"/>
          </g>
          <path id="Trazado_1030768" data-name="Trazado 1030768" d="M476.73,386.87v4.159a6.78,6.78,0,0,1-.954,3.468,6.783,6.783,0,0,0-.953,3.494l0,.733a.311.311,0,0,1-.311.312h-.957l0-1.045a6.794,6.794,0,0,1,.954-3.494,6.782,6.782,0,0,0,.954-3.468v-3.979Z" transform="translate(-463.64 -375.662)" fill="#ca6e59"/>
          <path id="Trazado_1030769" data-name="Trazado 1030769" d="M391.441,281.365V292.6c0,.807-1.32,1.466-2.127,1.466L390,292.23l-.948-.9v-9.963a1.468,1.468,0,0,1,.865-1.335A1.356,1.356,0,0,1,391.441,281.365Z" transform="translate(-387.899 -279.899)" fill="#d78878"/>
          <path id="Trazado_1030770" data-name="Trazado 1030770" d="M417.712,332.187v3.685c0,.594-.965,1.108-1.475,1.337a1.47,1.47,0,0,1-.868-1.337l-.358-.079v-3.479l.358-.127a1.469,1.469,0,0,1,.868-1.337C417.467,331.007,417.712,331.593,417.712,332.187Z" transform="translate(-411.167 -325.45)" fill="#d78878"/>
          <path id="Trazado_1030771" data-name="Trazado 1030771" d="M447.314,332.187v3.908c0,.593-1.073,1.107-1.583,1.336a1.468,1.468,0,0,1-.868-1.336l-.349-.223v-3.527l.349-.158a1.469,1.469,0,0,1,.868-1.337C447.121,331.039,447.314,331.593,447.314,332.187Z" transform="translate(-437.611 -325.45)" fill="#d78878"/>
          <path id="Trazado_1030772" data-name="Trazado 1030772" d="M399.579,280.236v10.633a.663.663,0,0,1-1.321,0V280.236a1.47,1.47,0,0,0-.864-1.335,1.443,1.443,0,0,1,.6-.131h.117A1.47,1.47,0,0,1,399.579,280.236Z" transform="translate(-395.376 -278.77)" fill="#ca6e59"/>
          <path id="Trazado_1030773" data-name="Trazado 1030773" d="M429.016,331.066v3.685a1.471,1.471,0,0,1-1.466,1.467h-.118a1.433,1.433,0,0,1-.6-.13,1.47,1.47,0,0,0,.868-1.337v-3.685a1.469,1.469,0,0,0-.868-1.337,1.433,1.433,0,0,1,.6-.129h.118A1.471,1.471,0,0,1,429.016,331.066Z" transform="translate(-421.764 -324.33)" fill="#ca6e59"/>
          <path id="Trazado_1030774" data-name="Trazado 1030774" d="M458.436,331.066v3.908a1.471,1.471,0,0,1-1.467,1.466h-.117a1.428,1.428,0,0,1-.6-.13,1.468,1.468,0,0,0,.867-1.336v-3.908a1.47,1.47,0,0,0-.867-1.337,1.429,1.429,0,0,1,.6-.129h.117A1.472,1.472,0,0,1,458.436,331.066Z" transform="translate(-448.133 -324.33)" fill="#ca6e59"/>
          <path id="Trazado_1030775" data-name="Trazado 1030775" d="M399.345,367.084a3.154,3.154,0,0,1-.067.645c-.273,1.3-2.213,1.466-3.588,1.609a4.387,4.387,0,0,0-2.6-.354c-.822.254-1.338,1.575-1.35,1.566l-2.692-1.408v-1.326l2.6-1.869a2.911,2.911,0,0,1,1.664-.542l4.315-.041A1.72,1.72,0,0,1,399.345,367.084Z" transform="translate(-387.897 -356.388)" fill="#ca6e59"/>
          <path id="Trazado_1030776" data-name="Trazado 1030776" d="M390.548,380.988l1.228-1.652a.311.311,0,0,1,.212-.123l2.653-.322a2.105,2.105,0,0,0,1.451-2.019.708.708,0,0,0-.713-.693h-3.9a2.635,2.635,0,0,0-1.512.476l-3.369,2.358Z" transform="translate(-385.697 -366.079)" fill="#d78878"/>
        </g>
        <g id="Grupo_1173810" data-name="Grupo 1173810" transform="translate(28.488 1.466)">
          <path id="Trazado_1030777" data-name="Trazado 1030777" d="M303.313,29.942A12.078,12.078,0,0,1,291.32,42.206c-2.188,0-6.991-1.606-7.616-3.349l.118-.477a.307.307,0,0,0-.027-.217,11.321,11.321,0,0,1,17.531-13.706A10.747,10.747,0,0,1,303.313,29.942Z" transform="translate(-282.516 -21.635)" fill="#eaf6ff"/>
          <path id="Trazado_1030778" data-name="Trazado 1030778" d="M306.129,59.755a11.339,11.339,0,0,1-16.993,7.24.309.309,0,0,0-.22-.04l-4.669.89a.312.312,0,0,1-.361-.381l1.038-4.2a12.209,12.209,0,0,0,17.622-14.4A11.294,11.294,0,0,1,306.129,59.755Z" transform="translate(-283.736 -46.042)" fill="#d8ecfe"/>
          <g id="Grupo_1173809" data-name="Grupo 1173809" transform="translate(5.479 2.82)">
            <path id="Trazado_1030779" data-name="Trazado 1030779" d="M345.707,55.338c0,3.033-3.186,5.968-6.282,5.968-.47,0-.977.319-1.8-.892a6.6,6.6,0,0,0-.811-1.427,5.619,5.619,0,0,1,3.171-9.3C344.242,49.682,345.707,52.639,345.707,55.338Z" transform="translate(-335.361 -49.594)" fill="#ffe177"/>
            <path id="Trazado_1030780" data-name="Trazado 1030780" d="M364.711,54.456a5.6,5.6,0,0,1-1.43,3.744,6.785,6.785,0,0,0-1.361,4.046V62.6l-5.657.018v-.31a9.5,9.5,0,0,0-.7-3.091,5.69,5.69,0,0,0,1.361.164c3.1,0,5.778-2.016,5.778-5.049a5.525,5.525,0,0,0-4.607-5.4,5.624,5.624,0,0,1,6.612,5.532Z" transform="translate(-353.473 -48.837)" fill="#ffd15b"/>
            <path id="Trazado_1030781" data-name="Trazado 1030781" d="M366.765,179.51l.879,1.718c0,.932-.558,1.718-2.566,1.718h-.441a1.687,1.687,0,0,1-1.687-1.687V179.51h3.814Z" transform="translate(-360.091 -165.962)" fill="#5e6577"/>
            <path id="Trazado_1030782" data-name="Trazado 1030782" d="M386.864,179.511v1.748a1.687,1.687,0,0,1-1.687,1.687h-1.7a1.686,1.686,0,0,0,1.686-1.687v-1.748Z" transform="translate(-378.486 -165.963)" fill="#4d5263"/>
            <path id="Trazado_1030783" data-name="Trazado 1030783" d="M354.162,160.567c0,.373.226.8,0,1.042a6.8,6.8,0,0,1-2.255.535h-4.15a1.305,1.305,0,0,1-1.253-1.352,1.409,1.409,0,0,1,.367-.957,1.207,1.207,0,0,1,.886-.4h4.15C352.6,159.439,354.162,159.82,354.162,160.567Z" transform="translate(-345.349 -147.972)" fill="#73788c"/>
            <path id="Trazado_1030784" data-name="Trazado 1030784" d="M402.136,160.792a1.407,1.407,0,0,1-.367.956,1.208,1.208,0,0,1-.886.4h-2.273a1.206,1.206,0,0,0,.886-.4,1.407,1.407,0,0,0,.367-.956,1.306,1.306,0,0,0-1.253-1.353h2.273A1.306,1.306,0,0,1,402.136,160.792Z" transform="translate(-392.053 -147.972)" fill="#5e6577"/>
          </g>
        </g>
      </g>
      <g id="Grupo_1173820" data-name="Grupo 1173820" transform="translate(7.75 7.5)">
        <g id="Grupo_1173812" data-name="Grupo 1173812" transform="translate(3.486 19.189)">
          <path id="Trazado_1030785" data-name="Trazado 1030785" d="M45.648,200.334a5.676,5.676,0,0,1-4.272-5.5h0a2.257,2.257,0,0,1,2.257-2.257H45.7" transform="translate(-41.376 -192.577)" fill="none" stroke="#000" stroke-linecap="round" stroke-linejoin="round" stroke-miterlimit="10" stroke-width="1"/>
          <path id="Trazado_1030786" data-name="Trazado 1030786" d="M307.008,232.041a5.686,5.686,0,0,1-3.951,3.658" transform="translate(-275.926 -227.949)" fill="none" stroke="#000" stroke-linecap="round" stroke-linejoin="round" stroke-miterlimit="10" stroke-width="1"/>
        </g>
        <path id="Trazado_1030787" data-name="Trazado 1030787" d="M209.872,132.207a12.8,12.8,0,0,0,2.782-.72l1.156-.443.192-.09a2.245,2.245,0,0,1,3.08,1.3" transform="translate(-188.916 -117.962)" fill="none" stroke="#000" stroke-linecap="round" stroke-linejoin="round" stroke-miterlimit="10" stroke-width="1"/>
        <path id="Trazado_1030788" data-name="Trazado 1030788" d="M105.656,141.465v4.428A7.184,7.184,0,0,1,103.2,151.3l-4.461,3.9a4.789,4.789,0,0,1-3.153,1.184H92.943A4.789,4.789,0,0,1,89.79,155.2l-4.461-3.9a7.183,7.183,0,0,1-2.454-5.407v-8.612a1.525,1.525,0,0,0,1.417-1.042l.982-3.833a2.245,2.245,0,0,1,3.093-1.3l.144.069,1.156.443a12.787,12.787,0,0,0,2.764.718" transform="translate(-75.086 -118.094)" fill="none" stroke="#000" stroke-linecap="round" stroke-linejoin="round" stroke-miterlimit="10" stroke-width="1"/>
        <g id="Grupo_1173814" data-name="Grupo 1173814" transform="translate(12.599 18.204)">
          <g id="Grupo_1173813" data-name="Grupo 1173813">
            <path id="Trazado_1030789" data-name="Trazado 1030789" d="M184.269,262.089a2.4,2.4,0,0,1-2.18,0" transform="translate(-176.612 -253.896)" fill="none" stroke="#000" stroke-linecap="round" stroke-linejoin="round" stroke-miterlimit="10" stroke-width="1"/>
            <path id="Trazado_1030790" data-name="Trazado 1030790" d="M133.253,183.584a4.147,4.147,0,0,0-3.987,0" transform="translate(-129.266 -183.073)" fill="none" stroke="#000" stroke-linecap="round" stroke-linejoin="round" stroke-miterlimit="10" stroke-width="1"/>
            <path id="Trazado_1030791" data-name="Trazado 1030791" d="M221.473,183.584a4.147,4.147,0,0,0-3.987,0" transform="translate(-208.339 -183.073)" fill="none" stroke="#000" stroke-linecap="round" stroke-linejoin="round" stroke-miterlimit="10" stroke-width="1"/>
            <line id="Línea_813" data-name="Línea 813" y1="1.766" transform="translate(11.14 2.994)" fill="none" stroke="#000" stroke-linecap="round" stroke-linejoin="round" stroke-miterlimit="10" stroke-width="1"/>
            <line id="Línea_814" data-name="Línea 814" y1="1.766" transform="translate(1.993 2.994)" fill="none" stroke="#000" stroke-linecap="round" stroke-linejoin="round" stroke-miterlimit="10" stroke-width="1"/>
          </g>
          <path id="Trazado_1030792" data-name="Trazado 1030792" d="M170.7,300.148c-3,0-2.5-3.388-2.5-3.388h5S173.611,300.148,170.7,300.148Z" transform="translate(-164.129 -284.973)" fill="none" stroke="#000" stroke-linecap="round" stroke-linejoin="round" stroke-miterlimit="10" stroke-width="1"/>
        </g>
        <path id="Trazado_1030793" data-name="Trazado 1030793" d="M65.188,11.984a3.206,3.206,0,0,0-3.1-1.1A3.732,3.732,0,0,0,58.54,8.247a3.672,3.672,0,0,0-2.662,1.146,3.224,3.224,0,0,0-5.872,0,3.672,3.672,0,0,0-2.662-1.146A3.732,3.732,0,0,0,43.8,10.885a3.2,3.2,0,0,0-.632-.063,3.287,3.287,0,0,0-3.252,3.321,3.38,3.38,0,0,0,.171,1.063,3.555,3.555,0,0,0-.974,6.2,3.35,3.35,0,0,0-1.234,5.809" transform="translate(-33.666 -7.5)" fill="none" stroke="#000" stroke-linecap="round" stroke-linejoin="round" stroke-miterlimit="10" stroke-width="1"/>
        <path id="Trazado_1030794" data-name="Trazado 1030794" d="M61.794,142.236a3.255,3.255,0,0,1-1.467-.595" transform="translate(-54.876 -127.733)" fill="none" stroke="#000" stroke-linecap="round" stroke-linejoin="round" stroke-miterlimit="10" stroke-width="1"/>
        <path id="Trazado_1030795" data-name="Trazado 1030795" d="M105.6,40.2a3.086,3.086,0,0,1,1.956,1.3" transform="translate(-95.455 -36.809)" fill="none" stroke="#000" stroke-linecap="round" stroke-linejoin="round" stroke-miterlimit="10" stroke-width="1"/>
        <path id="Trazado_1030796" data-name="Trazado 1030796" d="M268.117,40.183a3.09,3.09,0,0,0-1.571,1.2" transform="translate(-239.714 -36.794)" fill="none" stroke="#000" stroke-linecap="round" stroke-linejoin="round" stroke-miterlimit="10" stroke-width="1"/>
        <path id="Trazado_1030797" data-name="Trazado 1030797" d="M302.472,33.3q-.052.328-.124.658a11.672,11.672,0,0,1-17.6,7.388l-5.418,1.033,1.338-5.416A11.642,11.642,0,0,1,289,20" transform="translate(-251.14 -18.706)" fill="none" stroke="#000" stroke-linecap="round" stroke-linejoin="round" stroke-miterlimit="10" stroke-width="1"/>
        <path id="Trazado_1030798" data-name="Trazado 1030798" d="M407.545,19.544q.418.06.838.151a11.655,11.655,0,0,1,9.044,9.564" transform="translate(-366.094 -18.295)" fill="none" stroke="#000" stroke-linecap="round" stroke-linejoin="round" stroke-miterlimit="10" stroke-width="1"/>
        <g id="Grupo_1173815" data-name="Grupo 1173815" transform="translate(33.967 4.289)">
          <path id="Trazado_1030799" data-name="Trazado 1030799" d="M337.8,60.137a6.628,6.628,0,0,0-.989-1.9,5.613,5.613,0,1,1,8.345-.028,6.924,6.924,0,0,0-1.006,1.909" transform="translate(-335.355 -48.863)" fill="none" stroke="#000" stroke-linecap="round" stroke-linejoin="round" stroke-miterlimit="10" stroke-width="1"/>
          <line id="Línea_815" data-name="Línea 815" y1="4.127" transform="translate(5.613 7.124)" fill="none" stroke="#000" stroke-linecap="round" stroke-linejoin="round" stroke-miterlimit="10" stroke-width="1"/>
          <path id="Trazado_1030800" data-name="Trazado 1030800" d="M368.429,186.134v.639a2.074,2.074,0,0,1-2.074,2.074h-1.364a2.074,2.074,0,0,1-2.074-2.074v-.639" transform="translate(-360.06 -171.902)" fill="none" stroke="#000" stroke-linecap="round" stroke-linejoin="round" stroke-miterlimit="10" stroke-width="1"/>
          <path id="Trazado_1030801" data-name="Trazado 1030801" d="M355.873,160.517h-5.586a1.419,1.419,0,0,1-1.419-1.419v-.084a1.419,1.419,0,0,1,1.419-1.419h5.586a1.419,1.419,0,0,1,1.419,1.419v.084A1.419,1.419,0,0,1,355.873,160.517Z" transform="translate(-347.466 -146.321)" fill="none" stroke="#000" stroke-linecap="round" stroke-linejoin="round" stroke-miterlimit="10" stroke-width="1"/>
          <line id="Línea_816" data-name="Línea 816" x2="3.594" transform="translate(3.891 7.115)" fill="none" stroke="#000" stroke-linecap="round" stroke-linejoin="round" stroke-miterlimit="10" stroke-width="1"/>
        </g>
        <path id="Trazado_1030802" data-name="Trazado 1030802" d="M346.53,432.2l.26.05a10.042,10.042,0,0,1,2.833,1" transform="translate(-311.405 -388.162)" fill="none" stroke="#000" stroke-linecap="round" stroke-linejoin="round" stroke-miterlimit="10" stroke-width="1"/>
        <path id="Trazado_1030803" data-name="Trazado 1030803" d="M250.768,358.351v3.866a2.293,2.293,0,0,0,1.863,2.252" transform="translate(-225.572 -321.974)" fill="none" stroke="#000" stroke-linecap="round" stroke-linejoin="round" stroke-miterlimit="10" stroke-width="1"/>
        <path id="Trazado_1030804" data-name="Trazado 1030804" d="M118.589,417.362h0a10.648,10.648,0,0,0,15.568,0h0" transform="translate(-107.097 -374.867)" fill="none" stroke="#000" stroke-linecap="round" stroke-linejoin="round" stroke-miterlimit="10" stroke-width="1"/>
        <path id="Trazado_1030805" data-name="Trazado 1030805" d="M11.036,366.093l-.408.082A10.037,10.037,0,0,0,7.75,367.2m13.355-8.845v3.866a2.293,2.293,0,0,1-1.863,2.252l-.119.023" transform="translate(-7.75 -321.974)" fill="none" stroke="#000" stroke-linecap="round" stroke-linejoin="round" stroke-miterlimit="10" stroke-width="1"/>
        <g id="Grupo_1173816" data-name="Grupo 1173816" transform="translate(2.898 40.501)">
          <path id="Trazado_1030806" data-name="Trazado 1030806" d="M45.4,404.808l-1.627-5.85a1.14,1.14,0,0,0-1.429-.785l-6.294,1.918a.493.493,0,0,0-.308.673l1.391,3.149,3.836.88-2.111,3.025.478,1.335" transform="translate(-35.703 -398.124)" fill="none" stroke="#000" stroke-linecap="round" stroke-linejoin="round" stroke-miterlimit="10" stroke-width="1"/>
          <line id="Línea_817" data-name="Línea 817" x1="0.236" y1="0.849" transform="translate(10.673 10.18)" fill="none" stroke="#000" stroke-linecap="round" stroke-linejoin="round" stroke-miterlimit="10" stroke-width="1"/>
          <path id="Trazado_1030807" data-name="Trazado 1030807" d="M244.868,409.154l2.836-10.2a1.139,1.139,0,0,1,1.429-.784l6.294,1.917a.494.494,0,0,1,.308.673l-1.391,3.149-3.836.88,2.111,3.026-.479,1.334" transform="translate(-223.182 -398.125)" fill="none" stroke="#000" stroke-linecap="round" stroke-linejoin="round" stroke-miterlimit="10" stroke-width="1"/>
        </g>
        <g id="Grupo_1173819" data-name="Grupo 1173819" transform="translate(38.388 28.156)">
          <g id="Grupo_1173817" data-name="Grupo 1173817" transform="translate(10.307 6.695)">
            <path id="Trazado_1030808" data-name="Trazado 1030808" d="M480.195,345.016a1.39,1.39,0,0,0-1.389-1.39h0a1.391,1.391,0,0,0-1.391,1.391v3.121a1.391,1.391,0,0,0,1.391,1.391h0a1.391,1.391,0,0,0,1.391-1.391Z" transform="translate(-477.412 -343.626)" fill="none" stroke="#000" stroke-linecap="round" stroke-linejoin="round" stroke-miterlimit="10" stroke-width="1"/>
            <path id="Trazado_1030809" data-name="Trazado 1030809" d="M490.831,400.563" transform="translate(-489.44 -394.66)" fill="none" stroke="#000" stroke-linecap="round" stroke-linejoin="round" stroke-miterlimit="10" stroke-width="1"/>
          </g>
          <g id="Grupo_1173818" data-name="Grupo 1173818" transform="translate(11.183 11.247)">
            <path id="Trazado_1030810" data-name="Trazado 1030810" d="M487.764,387.53v4.158a6.754,6.754,0,0,1-.953,3.43h0a6.787,6.787,0,0,0-.953,3.494l0,1.045" transform="translate(-485.858 -387.53)" fill="none" stroke="#000" stroke-linecap="round" stroke-linejoin="round" stroke-miterlimit="10" stroke-width="1"/>
          </g>
          <path id="Trazado_1030811" data-name="Trazado 1030811" d="M433.859,414.75a5.688,5.688,0,0,1,1.215,5.2l-.043.166" transform="translate(-428.067 -400.681)" fill="none" stroke="#000" stroke-linecap="round" stroke-linejoin="round" stroke-miterlimit="10" stroke-width="1"/>
          <path id="Trazado_1030812" data-name="Trazado 1030812" d="M389.115,291.747V280.523a1.47,1.47,0,0,1,1.466-1.466h.117a1.47,1.47,0,0,1,1.466,1.466v9.119" transform="translate(-387.962 -279.057)" fill="none" stroke="#000" stroke-linecap="round" stroke-linejoin="round" stroke-miterlimit="10" stroke-width="1"/>
          <path id="Trazado_1030813" data-name="Trazado 1030813" d="M418.532,331.359A1.47,1.47,0,0,1,420,329.893h.118a1.47,1.47,0,0,1,1.466,1.466V334.7" transform="translate(-414.33 -324.622)" fill="none" stroke="#000" stroke-linecap="round" stroke-linejoin="round" stroke-miterlimit="10" stroke-width="1"/>
          <path id="Trazado_1030814" data-name="Trazado 1030814" d="M447.947,334.661v-3.3a1.47,1.47,0,0,1,1.466-1.466h.118A1.47,1.47,0,0,1,451,331.359v1.4" transform="translate(-440.695 -324.622)" fill="none" stroke="#000" stroke-linecap="round" stroke-linejoin="round" stroke-miterlimit="10" stroke-width="1"/>
          <path id="Trazado_1030815" data-name="Trazado 1030815" d="M382.85,381.277l1.307-1.759,2.619-.338a2.1,2.1,0,0,0,1.451-2,.713.713,0,0,0-.713-.712h-3.737a2.635,2.635,0,0,0-1.512.476L378.9,379.3a2.1,2.1,0,0,0-.9,1.724v1.718a3.545,3.545,0,0,0,.932,2.395,4.289,4.289,0,0,1,1.128,2.9v1.706" transform="translate(-377.999 -366.368)" fill="none" stroke="#000" stroke-linecap="round" stroke-linejoin="round" stroke-miterlimit="10" stroke-width="1"/>
        </g>
      </g>
    </g>
  </g>
</svg>
