<svg xmlns="http://www.w3.org/2000/svg" xmlns:xlink="http://www.w3.org/1999/xlink" width="113" height="113" viewBox="0 0 113 113">
  <defs>
    <filter id="Trazado_982547" x="0" y="0" width="113" height="113" filterUnits="userSpaceOnUse">
      <feOffset dy="3" input="SourceAlpha"/>
      <feGaussianBlur stdDeviation="3" result="blur"/>
      <feFlood flood-opacity="0.161"/>
      <feComposite operator="in" in2="blur"/>
      <feComposite in="SourceGraphic"/>
    </filter>
  </defs>
  <g id="Grupo_1225414" data-name="Grupo 1225414" transform="translate(-3335.742 -10157.716)">
    <g id="Grupo_1225204" data-name="Grupo 1225204" transform="translate(3344.742 10163.716)">
      <g id="Grupo_1209304" data-name="Grupo 1209304" transform="translate(0 0)">
        <g id="Grupo_1208492" data-name="Grupo 1208492">
          <g id="Grupo_1177675" data-name="Grupo 1177675">
            <g id="Grupo_1176928" data-name="Grupo 1176928">
              <g id="Grupo_1172322" data-name="Grupo 1172322">
                <g id="Grupo_1164700" data-name="Grupo 1164700">
                  <g id="Grupo_1160931" data-name="Grupo 1160931">
                    <g id="Grupo_1160749" data-name="Grupo 1160749">
                      <g id="Grupo_1158891" data-name="Grupo 1158891">
                        <g id="Grupo_1157406" data-name="Grupo 1157406">
                          <g id="Grupo_1155793" data-name="Grupo 1155793">
                            <g id="Grupo_1154704" data-name="Grupo 1154704">
                              <g id="Grupo_1150790" data-name="Grupo 1150790">
                                <g id="Grupo_1154214" data-name="Grupo 1154214">
                                  <g id="Grupo_1152583" data-name="Grupo 1152583">
                                    <g id="Grupo_1146973" data-name="Grupo 1146973">
                                      <g id="Grupo_1146954" data-name="Grupo 1146954">
                                        <g transform="matrix(1, 0, 0, 1, -9, -6)" filter="url(#Trazado_982547)">
                                          <g id="Trazado_982547-2" data-name="Trazado 982547" transform="translate(9 6)" fill="#fcf8db">
                                            <path d="M 47.5000114440918 93.49987030029297 C 41.28938293457031 93.49987030029297 35.26534652709961 92.28384399414062 29.5951976776123 89.88558959960938 C 24.11773109436035 87.56881713867188 19.19814491271973 84.25183868408203 14.97310447692871 80.02680206298828 C 10.74805164337158 75.80176544189453 7.43107795715332 70.88218688964844 5.114304542541504 65.40472412109375 C 2.716038227081299 59.73458862304688 1.500011444091797 53.71054840087891 1.500011444091797 47.49993515014648 C 1.500011444091797 41.28932189941406 2.716038227081299 35.26528167724609 5.114304542541504 29.59514808654785 C 7.43107795715332 24.1176815032959 10.74805164337158 19.1981086730957 14.97310447692871 14.97306823730469 C 19.19814491271973 10.74802875518799 24.11773109436035 7.431055068969727 29.5951976776123 5.11428165435791 C 35.26534652709961 2.716028451919556 41.28938293457031 1.500001788139343 47.5000114440918 1.500001788139343 C 53.71063995361328 1.500001788139343 59.73467636108398 2.716028451919556 65.40482330322266 5.11428165435791 C 70.88229370117188 7.431055068969727 75.8018798828125 10.74802875518799 80.02691650390625 14.97306823730469 C 84.25196838378906 19.1981086730957 87.56894683837891 24.1176815032959 89.88571929931641 29.59514808654785 C 92.28398132324219 35.26528167724609 93.50001525878906 41.28932189941406 93.50001525878906 47.49993515014648 C 93.50001525878906 53.71054840087891 92.28398132324219 59.73458862304688 89.88571929931641 65.40472412109375 C 87.56894683837891 70.88218688964844 84.25196838378906 75.80176544189453 80.02691650390625 80.02680206298828 C 75.8018798828125 84.25183868408203 70.88229370117188 87.56881713867188 65.40482330322266 89.88558959960938 C 59.73467636108398 92.28384399414062 53.71063995361328 93.49987030029297 47.5000114440918 93.49987030029297 Z" stroke="none"/>
                                            <path d="M 47.5000114440918 3 C 41.49122619628906 3 35.66378021240234 4.1761474609375 30.17951965332031 6.495796203613281 C 24.880859375 8.7369384765625 20.12153625488281 11.94596862792969 16.03376770019531 16.03373718261719 C 11.94598388671875 20.12149047851562 8.736968994140625 24.88081359863281 6.495811462402344 30.17947387695312 C 4.176162719726562 35.66371917724609 3.000007629394531 41.49116516113281 3.000007629394531 47.49993515014648 C 3.000007629394531 53.50870513916016 4.176162719726562 59.33615112304688 6.495811462402344 64.82039642333984 C 8.736968994140625 70.11905670166016 11.94598388671875 74.87837982177734 16.03376770019531 78.96613311767578 C 20.12153625488281 83.05390167236328 24.880859375 86.26293182373047 30.17951965332031 88.50407409667969 C 35.66378021240234 90.82372283935547 41.49122619628906 91.99987030029297 47.5000114440918 91.99987030029297 C 53.50879669189453 91.99987030029297 59.33624267578125 90.82372283935547 64.82050323486328 88.50407409667969 C 70.11916351318359 86.26293182373047 74.87848663330078 83.05390167236328 78.96625518798828 78.96613311767578 C 83.05403900146484 74.87837982177734 86.2630615234375 70.11905670166016 88.50421142578125 64.82039642333984 C 90.82386016845703 59.33615112304688 92.00001525878906 53.50870513916016 92.00001525878906 47.49993515014648 C 92.00001525878906 41.49116516113281 90.82386016845703 35.66371917724609 88.50421142578125 30.17947387695312 C 86.2630615234375 24.88081359863281 83.05403900146484 20.12149047851562 78.96625518798828 16.03373718261719 C 74.87848663330078 11.94596862792969 70.11916351318359 8.7369384765625 64.82050323486328 6.495796203613281 C 59.33624267578125 4.1761474609375 53.50879669189453 3 47.5000114440918 3 M 47.5000114440918 0 C 73.73353576660156 0 95.00001525878906 21.26644134521484 95.00001525878906 47.49993515014648 C 95.00001525878906 73.73342895507812 73.73353576660156 94.99987030029297 47.5000114440918 94.99987030029297 C 21.26648712158203 94.99987030029297 7.62939453125e-06 73.73342895507812 7.62939453125e-06 47.49993515014648 C 7.62939453125e-06 21.26644134521484 21.26648712158203 0 47.5000114440918 0 Z" stroke="none" fill="#83793c"/>
                                          </g>
                                        </g>
                                      </g>
                                    </g>
                                  </g>
                                </g>
                              </g>
                            </g>
                          </g>
                        </g>
                      </g>
                    </g>
                  </g>
                </g>
              </g>
            </g>
          </g>
        </g>
      </g>
    </g>
    <g id="world_1678483" transform="translate(3358.64 10177.34)">
      <path id="Trazado_1057348" data-name="Trazado 1057348" d="M281.057,203.5c6.374,6.374,10.331,23.75-11.352,23.75-6.42.481-6.82-4.371-4.022-5.858l.923-30.71" transform="translate(-228.66 -165.45)" fill="#ff5572"/>
      <path id="Trazado_1057349" data-name="Trazado 1057349" d="M282.7,267.694c-4.777,3.07-4.535,11.469-1.318,14.685a12.4,12.4,0,0,1-7.1.7c-4.342-.7-3.993-7.012-3.993-7.012l4.547-13.115" transform="translate(-234.082 -228.157)" fill="#ea2853"/>
      <path id="Trazado_1057350" data-name="Trazado 1057350" d="M215.825,43.321c15.435,3.525,8.72-6.5,11.029-16.609s-4.77-16.1-14.587-18.34-18.795.08-21.1,10.187-12.712,16.225,2.723,19.75Zm0,0" transform="translate(-160.6 -6.584)" fill="#ffc627"/>
      <path id="Trazado_1057351" data-name="Trazado 1057351" d="M199.968,20.569c-2.309,10.106-8.489,17.19-.67,18.976l-5.412-1.236c-15.435-3.526-5.032-9.644-2.724-19.751s11.288-12.43,21.1-10.187c-4.974-1.136-9.99,2.091-12.3,12.2Zm0,0" transform="translate(-160.599 -6.582)" fill="#ff9929"/>
      <path id="Trazado_1057352" data-name="Trazado 1057352" d="M274.1,85.7l-1.884,8.247a12.773,12.773,0,0,1-14.962,9.686l-.017,0c-.109-.022-.217-.045-.326-.07a12.778,12.778,0,0,1-9.612-15.3l1.884-8.247c5.576.8,11.417-.661,14.521-6.188.4,6.327,5.025,10.177,10.4,11.88Zm0,0" transform="translate(-213.859 -64.052)" fill="#ffcfa2"/>
      <path id="Trazado_1057353" data-name="Trazado 1057353" d="M259.21,144.443a12.786,12.786,0,0,1-1.956-.236l-.017,0c-.109-.021-.217-.045-.326-.07a12.778,12.778,0,0,1-9.612-15.3l1.884-8.247a18.649,18.649,0,0,0,4.72.095l-2.1,9.182a12.779,12.779,0,0,0,7.4,14.584Zm0,0" transform="translate(-213.86 -104.625)" fill="#e8b07e"/>
      <path id="Trazado_1057354" data-name="Trazado 1057354" d="M48.633,218.36a20.266,20.266,0,1,1-20.266-20.266A20.266,20.266,0,0,1,48.633,218.36Zm0,0" transform="translate(-6.596 -171.88)" fill="#49b2a5"/>
      <path id="Trazado_1057355" data-name="Trazado 1057355" d="M95.141,241.745a20.265,20.265,0,0,1,.018-39.409,20.266,20.266,0,0,1-.018,39.409Zm0,0" transform="translate(-68.645 -175.561)" fill="#6fc9c0"/>
      <path id="Trazado_1057356" data-name="Trazado 1057356" d="M28.1,206.395a21.765,21.765,0,0,1-5.918-.909h0c-2.207-.595-3.71-1.071-4.86.079-4.871,4.871,1.31,18.013-8.932,16.21a20.278,20.278,0,0,1,23.16-23.43c.107.2.211.417.309.651,1.132,2.67,1.576,7.4-3.759,7.4Zm0,0" transform="translate(-6.589 -171.88)" fill="#2c8c2c"/>
      <path id="Trazado_1057357" data-name="Trazado 1057357" d="M27.8,410.911a19.918,19.918,0,0,1,1.226,2.835A20.29,20.29,0,0,1,16.481,401.2,20.313,20.313,0,0,1,27.8,410.911Zm0,0" transform="translate(-13.866 -348.112)" fill="#e6e6e6"/>
      <path id="Trazado_1057358" data-name="Trazado 1057358" d="M169.294,341.539h0c-.43.1-.867.192-1.309.268a20.448,20.448,0,0,1-2.319.261h0a2.579,2.579,0,0,1-.547-2.038c.491-2.593,5.365-4.6,6.031-8.6.725-4.349,7.462-2.072,8.5-4.352s-5.7-5.7-3.628-7.773,4.769-2.694,8.524-.878a20.262,20.262,0,0,1-15.248,23.117Zm0,0" transform="translate(-142.798 -275.355)" fill="#2c8c2c"/>
      <path id="Trazado_1057359" data-name="Trazado 1057359" d="M169.556,341.539h0a20.183,20.183,0,0,1-4.176-1.509c.491-2.593,5.365-4.6,6.031-8.6.724-4.349,7.462-2.072,8.5-4.352s-5.7-5.7-3.628-7.773,4.768-2.694,8.524-.878a20.262,20.262,0,0,1-15.248,23.118Zm0,0" transform="translate(-143.061 -275.355)" fill="#3fa543"/>
      <path id="Trazado_1057360" data-name="Trazado 1057360" d="M120.453,212.3a21.766,21.766,0,0,1-5.918-.909,20.179,20.179,0,0,1,9.677-6.491c1.132,2.67,1.576,7.4-3.759,7.4Zm0,0" transform="translate(-98.945 -177.787)" fill="#3fa543"/>
      <path id="Trazado_1057361" data-name="Trazado 1057361" d="M271.568,416.414v6.653q-.9.047-1.865.045c-6.419.481-6.82-4.371-4.022-5.859C266.97,416.57,269.207,416.609,271.568,416.414Zm0,0" transform="translate(-228.66 -361.31)" fill="#ffcfa2"/>
      <path id="Trazado_1057362" data-name="Trazado 1057362" d="M303.524,207.516a1.006,1.006,0,0,0-1.7,1.071,6.58,6.58,0,0,0,4.135,2.935,6.687,6.687,0,0,0,1.488.169,6.581,6.581,0,0,0,3.511-1.017,1.006,1.006,0,0,0-1.07-1.7,4.612,4.612,0,0,1-6.358-1.452Zm0,0" transform="translate(-261.313 -179.646)"/>
      <path id="Trazado_1057363" data-name="Trazado 1057363" d="M64.53,7.655a1.006,1.006,0,1,0-1.54,1.3c2.5,2.967,3.265,6.653,2.282,10.954a33.648,33.648,0,0,0-.513,8.8c.111,3.246.2,5.809-1.173,6.941-1.156.954-3.509,1.057-7.177.312a13.73,13.73,0,0,0,2.928-5.843l1.884-8.247a1.006,1.006,0,0,0-.677-1.183,15.7,15.7,0,0,1-6.64-3.942,10.911,10.911,0,0,1-3.056-7.041,1.006,1.006,0,0,0-1.882-.43,10.912,10.912,0,0,1-5.809,5.017,15.7,15.7,0,0,1-7.692.669,1.006,1.006,0,0,0-1.123.772L32.458,23.98a13.7,13.7,0,0,0-.323,3.928,21.124,21.124,0,0,0-6.112-2.274,17.208,17.208,0,0,1,2.16-5.279A33.676,33.676,0,0,0,31.544,12.2c1.014-4.436,3.416-7.47,7.142-9.019,3.376-1.4,7.787-1.546,12.756-.411A24.744,24.744,0,0,1,60.2,6.424a1.006,1.006,0,1,0,1.157-1.647A26.728,26.728,0,0,0,51.89.807C46.511-.422,41.678-.244,37.913,1.322c-4.3,1.788-7.181,5.395-8.331,10.43A32.056,32.056,0,0,1,26.4,19.421a18.822,18.822,0,0,0-2.371,5.907,21.273,21.273,0,1,0-2.258,42.425,21.088,21.088,0,0,0,14.605-5.808,7.147,7.147,0,0,0,3.782.9q.439,0,.924-.035c10.89-.01,14.961-4.317,16.458-7.931,2.236-5.4-.006-12.41-3.6-16.635q.393-.283.764-.592l.3.068a25.311,25.311,0,0,0,5.493.75A6.617,6.617,0,0,0,64.868,37.2c2.135-1.762,2.028-4.913,1.9-8.562a32.089,32.089,0,0,1,.464-8.289c1.13-4.949.221-9.222-2.7-12.7ZM34.419,24.428,36.1,17.067a20.34,20.34,0,0,0,2.037.1,14.047,14.047,0,0,0,11.1-4.77c1.161,4.5,4.614,8.018,9.813,9.909l-1.682,7.363A11.765,11.765,0,0,1,43.613,38.6l-.04-.009c-.1-.019-.194-.039-.3-.064a11.833,11.833,0,0,1-2.063-.676,21.41,21.41,0,0,0-6.868-8.518,11.663,11.663,0,0,1,.074-4.9ZM21.771,27.22a19.351,19.351,0,0,1,2.517.164c.693,1.54,1,3.621.271,4.848-.507.847-1.533,1.276-3.05,1.276a21.639,21.639,0,0,1-5.946-.952c-2.164-.587-4.033-1.093-5.544.418C7.8,35.2,7.6,38.794,7.425,41.967q-.022.422-.047.838a1.007,1.007,0,0,0,.945,1.065l.06,0a1.006,1.006,0,0,0,1-.946c.017-.281.032-.563.048-.848.161-2.952.328-6,2.006-7.68.63-.631,1.44-.482,3.595.1a23.34,23.34,0,0,0,6.473,1.022c2.834,0,4.162-1.227,4.777-2.256a6.969,6.969,0,0,0,.3-5.437,19.333,19.333,0,0,1,13.775,13.6,7.292,7.292,0,0,0-7.849,1.8,2.4,2.4,0,0,0-.273,3.078,13.045,13.045,0,0,0,1.9,2.376c.7.752,2,2.152,1.793,2.614-.2.429-1.588.586-2.606.7-2.288.258-5.421.613-5.97,3.9-.316,1.9-1.809,3.333-3.252,4.719a11.7,11.7,0,0,0-2.415,2.835,3.413,3.413,0,0,0-.352,2.274,19.178,19.178,0,0,1-5.4-.9,21.07,21.07,0,0,0-1.114-2.505A21.208,21.208,0,0,0,3.415,52.309q-.2-.619-.352-1.255c.17.009.337.014.5.014a4.964,4.964,0,0,0,5.242-3.94,1.006,1.006,0,0,0-1.932-.563c-.494,1.691-1.42,2.756-4.195,2.44A19.262,19.262,0,0,1,21.771,27.22ZM34.512,59.61a3.784,3.784,0,0,0,.421.928A19.059,19.059,0,0,1,23.415,65.67c-.429-.962.179-1.764,2.083-3.592,1.6-1.538,3.417-3.282,3.843-5.84.278-1.671,1.777-1.959,4.21-2.234,1.743-.2,3.544-.4,4.212-1.868.766-1.684-.784-3.349-2.151-4.818A11.866,11.866,0,0,1,34,45.347c-.269-.491-.167-.591-.07-.689,1.181-1.181,3.168-2.526,6.906-.9a19.362,19.362,0,0,1,.193,2.721,19.074,19.074,0,0,1-1.677,7.87,7.692,7.692,0,0,0-2.8.706,3.978,3.978,0,0,0-2.039,4.555ZM4.481,54.955a19.183,19.183,0,0,1,8.563,8.314c.087.165.17.333.252.5a19.384,19.384,0,0,1-8.815-8.816ZM41.045,60.8c-.025,0-.05,0-.075,0-2.9.217-4.239-.76-4.524-1.748a1.959,1.959,0,0,1,1.049-2.218,11.488,11.488,0,0,1,3.913-.618l.5-.03v4.6c-.283.006-.568.01-.859.01ZM55.68,54.108c-1.578,3.81-5.621,6.055-11.765,6.572V56.016c2.675-.3,5.464-1.041,7.291-3.493a1.006,1.006,0,0,0-1.614-1.2C47.8,53.725,44.547,54,41.6,54.186A21.32,21.32,0,0,0,42.13,40.31q.343.1.692.178c.112.026.224.05.337.072l.037.008a13.745,13.745,0,0,0,2.239.261c.16.006.319.008.479.008A13.7,13.7,0,0,0,52.2,39.31c3.245,3.648,5.435,10.085,3.483,14.8Zm0,0" transform="translate(0 0)"/>
      <path id="Trazado_1057364" data-name="Trazado 1057364" d="M280.57,154.321a1.007,1.007,0,0,0,1.211-.748,1.56,1.56,0,1,1,3.037.717,1.006,1.006,0,0,0,.749,1.211,1.019,1.019,0,0,0,.232.027,1.007,1.007,0,0,0,.979-.775,3.573,3.573,0,1,0-6.955-1.642A1.007,1.007,0,0,0,280.57,154.321Zm0,0" transform="translate(-242.336 -130.46)"/>
      <path id="Trazado_1057365" data-name="Trazado 1057365" d="M362.309,173.608a1.006,1.006,0,0,0,1.211-.748,1.56,1.56,0,0,1,3.037.717,1.006,1.006,0,0,0,.748,1.211.992.992,0,0,0,.232.027,1.007,1.007,0,0,0,.979-.776,3.573,3.573,0,0,0-6.955-1.641,1.006,1.006,0,0,0,.748,1.211Zm0,0" transform="translate(-313.259 -147.195)"/>
      <path id="Trazado_1057366" data-name="Trazado 1057366" d="M123.831,340.176a1.007,1.007,0,0,0-1.876.73,5.515,5.515,0,0,0,10.278,0,1.006,1.006,0,0,0-1.876-.729,3.5,3.5,0,0,1-6.526,0Zm0,0" transform="translate(-105.323 -294.605)"/>
      <path id="Trazado_1057367" data-name="Trazado 1057367" d="M86.257,292.575a1.006,1.006,0,0,0,1.006-1.006,1.853,1.853,0,0,1,3.706,0,1.006,1.006,0,1,0,2.013,0,3.866,3.866,0,0,0-7.732,0,1.006,1.006,0,0,0,1.006,1.006Zm0,0" transform="translate(-73.535 -249.631)"/>
      <path id="Trazado_1057368" data-name="Trazado 1057368" d="M179.823,292.575a1.006,1.006,0,0,0,1.006-1.006,1.853,1.853,0,0,1,3.706,0,1.006,1.006,0,1,0,2.013,0,3.866,3.866,0,0,0-7.732,0,1.006,1.006,0,0,0,1.006,1.006Zm0,0" transform="translate(-154.72 -249.631)"/>
    </g>
  </g>
</svg>
