<svg xmlns="http://www.w3.org/2000/svg" xmlns:xlink="http://www.w3.org/1999/xlink" width="113" height="113" viewBox="0 0 113 113">
  <defs>
    <filter id="Trazado_982547" x="0" y="0" width="113" height="113" filterUnits="userSpaceOnUse">
      <feOffset dy="3" input="SourceAlpha"/>
      <feGaussianBlur stdDeviation="3" result="blur"/>
      <feFlood flood-opacity="0.161"/>
      <feComposite operator="in" in2="blur"/>
      <feComposite in="SourceGraphic"/>
    </filter>
  </defs>
  <g id="Grupo_1225275" data-name="Grupo 1225275" transform="translate(-1112 -1519.143)">
    <g id="Grupo_1224649" data-name="Grupo 1224649" transform="translate(0 -3554.277)">
      <g id="Grupo_1209313" data-name="Grupo 1209313" transform="translate(0 3843.205)">
        <g id="Grupo_1209049" data-name="Grupo 1209049">
          <g id="Grupo_1208493" data-name="Grupo 1208493" transform="translate(0 -4397.209)">
            <g id="Grupo_1202104" data-name="Grupo 1202104" transform="translate(0 -1149.226)">
              <g id="Grupo_1201923" data-name="Grupo 1201923" transform="translate(-4174.49 4856.378)">
                <g id="Grupo_1176928" data-name="Grupo 1176928" transform="translate(5295.49 1926.273)">
                  <g id="Grupo_1172322" data-name="Grupo 1172322" transform="translate(0 0)">
                    <g id="Grupo_1164700" data-name="Grupo 1164700">
                      <g id="Grupo_1160931" data-name="Grupo 1160931">
                        <g id="Grupo_1160749" data-name="Grupo 1160749">
                          <g id="Grupo_1158891" data-name="Grupo 1158891">
                            <g id="Grupo_1157406" data-name="Grupo 1157406">
                              <g id="Grupo_1155793" data-name="Grupo 1155793">
                                <g id="Grupo_1154704" data-name="Grupo 1154704">
                                  <g id="Grupo_1150790" data-name="Grupo 1150790">
                                    <g id="Grupo_1154214" data-name="Grupo 1154214">
                                      <g id="Grupo_1152583" data-name="Grupo 1152583">
                                        <g id="Grupo_1146973" data-name="Grupo 1146973">
                                          <g id="Grupo_1146954" data-name="Grupo 1146954">
                                            <g transform="matrix(1, 0, 0, 1, -9, -6)" filter="url(#Trazado_982547)">
                                              <g id="Trazado_982547-2" data-name="Trazado 982547" transform="translate(9 6)" fill="#fcf8db">
                                                <path d="M 47.5000114440918 93.49987030029297 C 41.28938293457031 93.49987030029297 35.26534652709961 92.28384399414062 29.5951976776123 89.88558959960938 C 24.11773109436035 87.56881713867188 19.19814491271973 84.25183868408203 14.97310447692871 80.02680206298828 C 10.74805164337158 75.80176544189453 7.43107795715332 70.88218688964844 5.114304542541504 65.40472412109375 C 2.716038227081299 59.73458862304688 1.500011444091797 53.71054840087891 1.500011444091797 47.49993515014648 C 1.500011444091797 41.28932189941406 2.716038227081299 35.26528167724609 5.114304542541504 29.59514808654785 C 7.43107795715332 24.1176815032959 10.74805164337158 19.1981086730957 14.97310447692871 14.97306823730469 C 19.19814491271973 10.74802875518799 24.11773109436035 7.431055068969727 29.5951976776123 5.11428165435791 C 35.26534652709961 2.716028451919556 41.28938293457031 1.500001788139343 47.5000114440918 1.500001788139343 C 53.71063995361328 1.500001788139343 59.73467636108398 2.716028451919556 65.40482330322266 5.11428165435791 C 70.88229370117188 7.431055068969727 75.8018798828125 10.74802875518799 80.02691650390625 14.97306823730469 C 84.25196838378906 19.1981086730957 87.56894683837891 24.1176815032959 89.88571929931641 29.59514808654785 C 92.28398132324219 35.26528167724609 93.50001525878906 41.28932189941406 93.50001525878906 47.49993515014648 C 93.50001525878906 53.71054840087891 92.28398132324219 59.73458862304688 89.88571929931641 65.40472412109375 C 87.56894683837891 70.88218688964844 84.25196838378906 75.80176544189453 80.02691650390625 80.02680206298828 C 75.8018798828125 84.25183868408203 70.88229370117188 87.56881713867188 65.40482330322266 89.88558959960938 C 59.73467636108398 92.28384399414062 53.71063995361328 93.49987030029297 47.5000114440918 93.49987030029297 Z" stroke="none"/>
                                                <path d="M 47.5000114440918 3 C 41.49122619628906 3 35.66378021240234 4.1761474609375 30.17951965332031 6.495796203613281 C 24.880859375 8.7369384765625 20.12153625488281 11.94596862792969 16.03376770019531 16.03373718261719 C 11.94598388671875 20.12149047851562 8.736968994140625 24.88081359863281 6.495811462402344 30.17947387695312 C 4.176162719726562 35.66371917724609 3.000007629394531 41.49116516113281 3.000007629394531 47.49993515014648 C 3.000007629394531 53.50870513916016 4.176162719726562 59.33615112304688 6.495811462402344 64.82039642333984 C 8.736968994140625 70.11905670166016 11.94598388671875 74.87837982177734 16.03376770019531 78.96613311767578 C 20.12153625488281 83.05390167236328 24.880859375 86.26293182373047 30.17951965332031 88.50407409667969 C 35.66378021240234 90.82372283935547 41.49122619628906 91.99987030029297 47.5000114440918 91.99987030029297 C 53.50879669189453 91.99987030029297 59.33624267578125 90.82372283935547 64.82050323486328 88.50407409667969 C 70.11916351318359 86.26293182373047 74.87848663330078 83.05390167236328 78.96625518798828 78.96613311767578 C 83.05403900146484 74.87837982177734 86.2630615234375 70.11905670166016 88.50421142578125 64.82039642333984 C 90.82386016845703 59.33615112304688 92.00001525878906 53.50870513916016 92.00001525878906 47.49993515014648 C 92.00001525878906 41.49116516113281 90.82386016845703 35.66371917724609 88.50421142578125 30.17947387695312 C 86.2630615234375 24.88081359863281 83.05403900146484 20.12149047851562 78.96625518798828 16.03373718261719 C 74.87848663330078 11.94596862792969 70.11916351318359 8.7369384765625 64.82050323486328 6.495796203613281 C 59.33624267578125 4.1761474609375 53.50879669189453 3 47.5000114440918 3 M 47.5000114440918 0 C 73.73353576660156 0 95.00001525878906 21.26644134521484 95.00001525878906 47.49993515014648 C 95.00001525878906 73.73342895507812 73.73353576660156 94.99987030029297 47.5000114440918 94.99987030029297 C 21.26648712158203 94.99987030029297 7.62939453125e-06 73.73342895507812 7.62939453125e-06 47.49993515014648 C 7.62939453125e-06 21.26644134521484 21.26648712158203 0 47.5000114440918 0 Z" stroke="none" fill="#83793c"/>
                                              </g>
                                            </g>
                                          </g>
                                        </g>
                                      </g>
                                    </g>
                                  </g>
                                </g>
                              </g>
                            </g>
                          </g>
                        </g>
                      </g>
                    </g>
                  </g>
                </g>
              </g>
            </g>
          </g>
        </g>
      </g>
    </g>
    <g id="abacus_4261309" transform="translate(1139 1540)">
      <g id="Grupo_1225273" data-name="Grupo 1225273">
        <g id="Grupo_1225258" data-name="Grupo 1225258">
          <path id="Trazado_1056933" data-name="Trazado 1056933" d="M42,39h1a3.995,3.995,0,0,0-4,4v4H33v-.15A7.854,7.854,0,0,1,40.86,39Z" fill="#fcd770"/>
        </g>
        <g id="Grupo_1225259" data-name="Grupo 1225259">
          <path id="Trazado_1056934" data-name="Trazado 1056934" d="M31,49a2.006,2.006,0,0,1,2-2h6V43a4,4,0,0,1,8,0v6a6,6,0,0,1-6,6H33a2.006,2.006,0,0,1-2-2Z" fill="#fcd770"/>
        </g>
        <g id="Grupo_1225260" data-name="Grupo 1225260">
          <path id="Trazado_1056935" data-name="Trazado 1056935" d="M14,52a1,1,0,0,1,1-1,2.968,2.968,0,0,1,2.82,2A2.772,2.772,0,0,1,18,54v6a1,1,0,0,1-1,1H15a1,1,0,0,1-1-1V52Z" fill="#d3a06c"/>
        </g>
        <g id="Grupo_1225261" data-name="Grupo 1225261">
          <path id="Trazado_1056936" data-name="Trazado 1056936" d="M17.83,53h5.71a4.225,4.225,0,0,0,.63.83A4.025,4.025,0,0,0,27,55H41a6,6,0,0,0,6-6v4a8,8,0,0,1-8,8H17a1,1,0,0,0,1-1V54a2.772,2.772,0,0,0-.18-1Z" fill="#969faa"/>
        </g>
        <g id="Grupo_1225262" data-name="Grupo 1225262">
          <path id="Trazado_1056937" data-name="Trazado 1056937" d="M32,13l-1.79.89A4.02,4.02,0,0,0,28,17.47V19H26a3.995,3.995,0,0,0-4,4,3.313,3.313,0,0,0,.04.55,3.979,3.979,0,0,1-1.56-5.44,3.971,3.971,0,0,1,.75-6.7A4.1,4.1,0,0,1,20.97,10a4,4,0,0,1,4-4c.04,0,.09.01.13.01a3.961,3.961,0,0,1,5.79-2.5,3.953,3.953,0,0,1,5.69-.55,3.965,3.965,0,0,1,6.83-.02,3.957,3.957,0,0,1,5.67.57,3.952,3.952,0,0,1,5.78,2.5c.05,0,.09-.01.14-.01a4,4,0,0,1,4,4,3.887,3.887,0,0,1-.27,1.41,3.96,3.96,0,0,1,.75,6.7,3.954,3.954,0,0,1-1.52,5.42A3.076,3.076,0,0,0,58,23a4,4,0,0,0-4-4H52V13a4,4,0,0,1-4,4,3.932,3.932,0,0,1-2.24-.69,3.973,3.973,0,0,1-7.52,0A3.932,3.932,0,0,1,36,17,4,4,0,0,1,32,13Z" fill="#656d78"/>
        </g>
        <g id="Grupo_1225263" data-name="Grupo 1225263">
          <path id="Trazado_1056938" data-name="Trazado 1056938" d="M29,33.36V47.18a1.968,1.968,0,0,0-.83-.18H28a2,2,0,0,0-2,2H25V32a1,1,0,0,1,1-1h2a1.231,1.231,0,0,1,.2.02A1,1,0,0,1,29,32Z" fill="#b27946"/>
        </g>
        <g id="Grupo_1225264" data-name="Grupo 1225264">
          <path id="Trazado_1056939" data-name="Trazado 1056939" d="M5,57v3a1,1,0,0,1-1,1H2a1,1,0,0,1-1-1V32a1,1,0,0,1,1-1H4a1,1,0,0,1,1,1V57Z" fill="#b27946"/>
        </g>
        <g id="Grupo_1225265" data-name="Grupo 1225265">
          <path id="Trazado_1056940" data-name="Trazado 1056940" d="M31,53a2.006,2.006,0,0,0,2,2H27a4.025,4.025,0,0,1-2.83-1.17,4.225,4.225,0,0,1-.63-.83A3.989,3.989,0,0,1,23,51a2,2,0,0,1,2-2h1a2,2,0,0,1,2-2h.17a2.056,2.056,0,0,1,1.42.58L31,49Z" fill="#f0d0b4"/>
        </g>
        <g id="Grupo_1225266" data-name="Grupo 1225266">
          <path id="Trazado_1056941" data-name="Trazado 1056941" d="M58,23a3.076,3.076,0,0,1-.04.53A3.983,3.983,0,0,1,54,27H52V19h2A4,4,0,0,1,58,23Z" fill="#f0d0b4"/>
        </g>
        <g id="Grupo_1225267" data-name="Grupo 1225267">
          <path id="Trazado_1056942" data-name="Trazado 1056942" d="M52,27v2A10,10,0,0,1,42,39H38a9.995,9.995,0,0,1-9-5.64V32a1,1,0,0,0-.8-.98A10.327,10.327,0,0,1,28,29V17.47a4.02,4.02,0,0,1,2.21-3.58L32,13a4,4,0,0,0,4,4,3.932,3.932,0,0,0,2.24-.69,3.973,3.973,0,0,0,7.52,0A3.932,3.932,0,0,0,48,17a4,4,0,0,0,4-4V27Z" fill="#f0d0b4"/>
        </g>
        <g id="Grupo_1225268" data-name="Grupo 1225268">
          <path id="Trazado_1056943" data-name="Trazado 1056943" d="M28,19v8H26a4,4,0,0,1-3.96-3.45A3.313,3.313,0,0,1,22,23a3.995,3.995,0,0,1,4-4Z" fill="#f0d0b4"/>
        </g>
        <g id="Grupo_1225269" data-name="Grupo 1225269">
          <path id="Trazado_1056944" data-name="Trazado 1056944" d="M15,49a2.015,2.015,0,0,1-2,2H11a2.006,2.006,0,0,1-2-2,2.015,2.015,0,0,1,2-2h2A2.006,2.006,0,0,1,15,49Z" fill="#ff826e"/>
        </g>
        <g id="Grupo_1225270" data-name="Grupo 1225270">
          <path id="Trazado_1056945" data-name="Trazado 1056945" d="M20.41,39.59A1.955,1.955,0,0,1,21,41a2.006,2.006,0,0,1-2,2H17a2.015,2.015,0,0,1-2-2,2.006,2.006,0,0,1,2-2h2A1.955,1.955,0,0,1,20.41,39.59Z" fill="#ff826e"/>
        </g>
        <g id="Grupo_1225271" data-name="Grupo 1225271">
          <path id="Trazado_1056946" data-name="Trazado 1056946" d="M13,31a2.006,2.006,0,0,1,2,2,2.015,2.015,0,0,1-2,2H11a2.006,2.006,0,0,1-2-2,2.015,2.015,0,0,1,2-2Z" fill="#ff826e"/>
        </g>
        <g id="Grupo_1225272" data-name="Grupo 1225272">
          <path id="Trazado_1056947" data-name="Trazado 1056947" d="M36,31h8a4,4,0,0,1-8,0Z" fill="#ff826e"/>
        </g>
      </g>
      <g id="Grupo_1225274" data-name="Grupo 1225274">
        <path id="Trazado_1056948" data-name="Trazado 1056948" d="M35,31a5,5,0,0,0,10,0V30H35Zm7.829,1a3,3,0,0,1-5.658,0Z"/>
        <path id="Trazado_1056949" data-name="Trazado 1056949" d="M37,25h2a4,4,0,0,0-8,0h2a2,2,0,0,1,4,0Z"/>
        <path id="Trazado_1056950" data-name="Trazado 1056950" d="M45,21a4,4,0,0,0-4,4h2a2,2,0,0,1,4,0h2A4,4,0,0,0,45,21Z"/>
        <path id="Trazado_1056951" data-name="Trazado 1056951" d="M62,15a4.944,4.944,0,0,0-2.1-4.057A4.73,4.73,0,0,0,60,10a5.007,5.007,0,0,0-4.416-4.966A4.984,4.984,0,0,0,51,2a4.808,4.808,0,0,0-1.688.307,5.031,5.031,0,0,0-5.673-.72,4.965,4.965,0,0,0-7.291.015,5.028,5.028,0,0,0-5.694.705A4.812,4.812,0,0,0,28.966,2a4.984,4.984,0,0,0-4.584,3.034A5.006,5.006,0,0,0,19.966,10a4.723,4.723,0,0,0,.1.943,4.96,4.96,0,0,0-.786,7.408,4.81,4.81,0,0,0-.31,1.7,5,5,0,0,0,2.187,4.123A5,5,0,0,0,26,28h1v1c0,.334.02.668.05,1H26a2,2,0,0,0-2,2H15.816A3,3,0,0,0,13,30H11a3,3,0,0,0-2.816,2H6a2,2,0,0,0-2-2H2a2,2,0,0,0-2,2V60a2,2,0,0,0,2,2H4a2,2,0,0,0,2-2V58h7v2a2,2,0,0,0,2,2H39a9.01,9.01,0,0,0,9-9V49.057c0-.019,0-.038,0-.058V43a4.967,4.967,0,0,0-1.465-3.535c-.11-.11-.238-.195-.357-.293A11.015,11.015,0,0,0,53,29V28h1a5,5,0,0,0,4.857-3.86A5,5,0,0,0,61,20.047a4.806,4.806,0,0,0-.31-1.7A4.943,4.943,0,0,0,62,15ZM26,26a3,3,0,0,1,0-6h1v6ZM46,43h0v6.028A5,5,0,0,1,41,54H33A1,1,0,0,1,32,53V49a1,1,0,0,1,1-1h5.466l1.7,2.555,1.664-1.109L40,46.7V43a3,3,0,0,1,2.99-3H43a3,3,0,0,1,3,3ZM22.1,52H18.444a4,4,0,0,0-2.653-1.92c.01-.026.016-.054.025-.08h6.368A2.96,2.96,0,0,0,22,51,5.005,5.005,0,0,0,22.1,52ZM8.184,48H6V42h8.184A3,3,0,0,0,17,44h2a3,3,0,0,0,2.816-2H24v6H15.816A3,3,0,0,0,13,46H11A3,3,0,0,0,8.184,48ZM16,41a1,1,0,0,1,1-1h2a1,1,0,0,1,0,2H17A1,1,0,0,1,16,41Zm-5,7h2a1,1,0,0,1,0,2H11a1,1,0,0,1,0-2Zm14,2h2V49a1,1,0,0,1,1-1h.172a.993.993,0,0,1,.707.292L30,49.414V53a2.96,2.96,0,0,0,.184,1H27a3,3,0,0,1-3-3,1,1,0,0,1,1-1Zm12.8-9.276a6.8,6.8,0,0,1,1-.393A4.955,4.955,0,0,0,38,43v3H34.062a6.808,6.808,0,0,1,3.73-5.276ZM32.05,46.169A2.989,2.989,0,0,0,30.617,47.2l-.324-.324A3.048,3.048,0,0,0,30,46.636V36.544a10.846,10.846,0,0,0,5.631,3.176A8.768,8.768,0,0,0,32.05,46.169ZM28,32V46a2.983,2.983,0,0,0-2,.775V32ZM11,32h2a1,1,0,0,1,0,2H11a1,1,0,0,1,0-2ZM8.184,34A3,3,0,0,0,11,36h2a3,3,0,0,0,2.816-2H24v6H21.816A3,3,0,0,0,19,38H17a3,3,0,0,0-2.816,2H6V34ZM2,60V32H4L4,60Zm4-4V50H8.184A3,3,0,0,0,11,52h2v4Zm10,4H15V52a2,2,0,0,1,2,2v6Zm23,0H19V54h4.026A4.98,4.98,0,0,0,27,56H41a6.975,6.975,0,0,0,4.922-2.03A7.005,7.005,0,0,1,39,60Zm3-22H38a8.935,8.935,0,0,1-8-4.9V32a2,2,0,0,0-.89-1.662A9.067,9.067,0,0,1,29,29V17.472a2.986,2.986,0,0,1,1.658-2.683l.595-.3A4.977,4.977,0,0,0,37.79,17.67a4.968,4.968,0,0,0,8.42,0,4.941,4.941,0,0,0,4.79-.7V29A9.01,9.01,0,0,1,42,38ZM54,26H53V20h1a3,3,0,0,1,0,6Zm4.858-8.668-.663.528.412.74a2.819,2.819,0,0,1,.082,2.723A4.991,4.991,0,0,0,54,18H53V13H51a3,3,0,0,1-4.679,2.486l-1.075-.728-.43,1.226a2.975,2.975,0,0,1-5.632,0l-.43-1.226-1.075.728A3,3,0,1,1,36,10V8a4.991,4.991,0,0,0-4.934,4.349l-1.3.651A4.974,4.974,0,0,0,27,17.472V18H26a4.993,4.993,0,0,0-4.7,3.368,2.841,2.841,0,0,1,.062-2.769l.411-.739-.661-.527a2.966,2.966,0,0,1,.561-5.023l.826-.4-.326-.857a2.958,2.958,0,0,1-.2-1.054A3,3,0,0,1,24.9,7l.972.05.2-.786A3,3,0,0,1,30.406,4.39l.738.408.527-.659a2.939,2.939,0,0,1,4.257-.413l.9.765.6-1.016a2.971,2.971,0,0,1,5.125-.015l.6,1,.9-.747a2.938,2.938,0,0,1,4.239.428l.526.658.738-.408a2.993,2.993,0,0,1,4.334,1.872l.2.786.812-.034c.054,0,.107-.008.094-.013a2.973,2.973,0,0,1,2.8,4.056l-.323.855.823.4a2.966,2.966,0,0,1,.562,5.023Z"/>
      </g>
    </g>
  </g>
</svg>
