<svg xmlns="http://www.w3.org/2000/svg" xmlns:xlink="http://www.w3.org/1999/xlink" width="113" height="113" viewBox="0 0 113 113">
  <defs>
    <filter id="Trazado_982547" x="0" y="-0.001" width="113" height="113" filterUnits="userSpaceOnUse">
      <feOffset dy="3" input="SourceAlpha"/>
      <feGaussianBlur stdDeviation="3" result="blur"/>
      <feFlood flood-opacity="0.161"/>
      <feComposite operator="in" in2="blur"/>
      <feComposite in="SourceGraphic"/>
    </filter>
    <clipPath id="clip-path">
      <path id="path4017" d="M0-682.665H64.693v64.693H0Z" transform="translate(0 682.665)"/>
    </clipPath>
  </defs>
  <g id="Grupo_1225390" data-name="Grupo 1225390" transform="translate(-900.509 -13125.355)">
    <g id="Grupo_1225224" data-name="Grupo 1225224" transform="translate(0 8384.358)">
      <g id="Grupo_1224648" data-name="Grupo 1224648" transform="translate(0 1927)">
        <g id="Grupo_1224293" data-name="Grupo 1224293" transform="translate(0 859.245)">
          <g id="Grupo_1224093" data-name="Grupo 1224093" transform="translate(226.51 -2620.317)">
            <g id="Grupo_1223184" data-name="Grupo 1223184" transform="translate(683 4581.069)">
              <g id="Grupo_1211216" data-name="Grupo 1211216" transform="translate(0)">
                <g id="Grupo_1210737" data-name="Grupo 1210737">
                  <g id="Grupo_1210537" data-name="Grupo 1210537">
                    <g id="Grupo_1164202" data-name="Grupo 1164202">
                      <g id="Grupo_1158168" data-name="Grupo 1158168">
                        <g id="Grupo_1152576" data-name="Grupo 1152576">
                          <g id="Grupo_1148633" data-name="Grupo 1148633">
                            <g id="Grupo_1148525" data-name="Grupo 1148525">
                              <g transform="matrix(1, 0, 0, 1, -9, -6)" filter="url(#Trazado_982547)">
                                <g id="Trazado_982547-2" data-name="Trazado 982547" transform="translate(9 6)" fill="#fdfbec">
                                  <path d="M 47.49999618530273 93.5 C 41.28936767578125 93.5 35.26533126831055 92.28396606445312 29.59518241882324 89.88570404052734 C 24.11771583557129 87.56893157958984 19.19812965393066 84.251953125 14.97308921813965 80.02690124511719 C 10.74803638458252 75.80186462402344 7.431062698364258 70.88227844238281 5.114289283752441 65.40480804443359 C 2.716022968292236 59.73466110229492 1.499996185302734 53.71062469482422 1.499996185302734 47.49999618530273 C 1.499996185302734 41.28936767578125 2.716022968292236 35.26533126831055 5.114289283752441 29.59518241882324 C 7.431062698364258 24.11771583557129 10.74803638458252 19.19812965393066 14.97308921813965 14.97308921813965 C 19.19812965393066 10.74803638458252 24.11771583557129 7.431062698364258 29.59518241882324 5.114289283752441 C 35.26533126831055 2.716022968292236 41.28936767578125 1.499996185302734 47.49999618530273 1.499996185302734 C 53.71062469482422 1.499996185302734 59.73466110229492 2.716022968292236 65.40480804443359 5.114289283752441 C 70.88227844238281 7.431062698364258 75.80186462402344 10.74803638458252 80.02690124511719 14.97308921813965 C 84.251953125 19.19812965393066 87.56893157958984 24.11771583557129 89.88570404052734 29.59518241882324 C 92.28396606445312 35.26533126831055 93.5 41.28936767578125 93.5 47.49999618530273 C 93.5 53.71062469482422 92.28396606445312 59.73466110229492 89.88570404052734 65.40480804443359 C 87.56893157958984 70.88227844238281 84.251953125 75.80186462402344 80.02690124511719 80.02690124511719 C 75.80186462402344 84.251953125 70.88227844238281 87.56893157958984 65.40480804443359 89.88570404052734 C 59.73466110229492 92.28396606445312 53.71062469482422 93.5 47.49999618530273 93.5 Z" stroke="none"/>
                                  <path d="M 47.49999618530273 2.999992370605469 C 41.4912109375 2.999992370605469 35.66376495361328 4.1761474609375 30.17950439453125 6.495796203613281 C 24.88084411621094 8.736953735351562 20.12152099609375 11.94598388671875 16.03375244140625 16.03375244140625 C 11.94598388671875 20.12152099609375 8.736953735351562 24.88084411621094 6.495796203613281 30.17950439453125 C 4.1761474609375 35.66376495361328 2.999992370605469 41.4912109375 2.999992370605469 47.49999618530273 C 2.999992370605469 53.50878143310547 4.1761474609375 59.33622741699219 6.495796203613281 64.82048797607422 C 8.736953735351562 70.11914825439453 11.94598388671875 74.87847137451172 16.03375244140625 78.96623992919922 C 20.12152099609375 83.05400848388672 24.88084411621094 86.26304626464844 30.17950439453125 88.50419616699219 C 35.66376495361328 90.82384490966797 41.4912109375 92 47.49999618530273 92 C 53.50878143310547 92 59.33622741699219 90.82384490966797 64.82048797607422 88.50419616699219 C 70.11914825439453 86.26304626464844 74.87847137451172 83.05400848388672 78.96623992919922 78.96623992919922 C 83.05400848388672 74.87847137451172 86.26304626464844 70.11914825439453 88.50419616699219 64.82048797607422 C 90.82384490966797 59.33622741699219 92 53.50878143310547 92 47.49999618530273 C 92 41.4912109375 90.82384490966797 35.66376495361328 88.50419616699219 30.17950439453125 C 86.26304626464844 24.88084411621094 83.05400848388672 20.12152099609375 78.96623992919922 16.03375244140625 C 74.87847137451172 11.94598388671875 70.11914825439453 8.736953735351562 64.82048797607422 6.495796203613281 C 59.33622741699219 4.1761474609375 53.50878143310547 2.999992370605469 47.49999618530273 2.999992370605469 M 47.49999618530273 -7.62939453125e-06 C 73.7335205078125 -7.62939453125e-06 95 21.26647186279297 95 47.49999618530273 C 95 73.7335205078125 73.7335205078125 95 47.49999618530273 95 C 21.26647186279297 95 -7.62939453125e-06 73.7335205078125 -7.62939453125e-06 47.49999618530273 C -7.62939453125e-06 21.26647186279297 21.26647186279297 -7.62939453125e-06 47.49999618530273 -7.62939453125e-06 Z" stroke="none" fill="#83793c"/>
                                </g>
                              </g>
                            </g>
                          </g>
                        </g>
                      </g>
                    </g>
                  </g>
                </g>
              </g>
            </g>
          </g>
        </g>
      </g>
    </g>
    <g id="g4011" transform="translate(924.663 13829.173)">
      <g id="g4013" transform="translate(0 -682.665)">
        <g id="g4015" clip-path="url(#clip-path)">
          <g id="g4021" transform="translate(0.948 33.812)">
            <path id="path4023" d="M-188.612-190.122l9.33-9.33a1.846,1.846,0,0,0,0-2.61,1.846,1.846,0,0,0-2.61,0l2.378-2.378a1.846,1.846,0,0,0,0-2.61h0a1.846,1.846,0,0,0-2.61,0l-1.246,1.246a1.846,1.846,0,0,0,0-2.61h0a1.846,1.846,0,0,0-2.61,0l-1.541,1.541a1.846,1.846,0,0,0,0-2.61,1.846,1.846,0,0,0-2.61,0l-10.12,10.12a6.652,6.652,0,0,0-1.884,3.785l-.286,2.056-5.934,5.934,7.155,7.155,5.577-5.577Z" transform="translate(208.357 210.024)" fill="#ffcebf"/>
          </g>
          <g id="g4025" transform="translate(18.47 33.812)">
            <path id="path4027" d="M-110.354-101l-1.39,1.39-8.491-8.491a9.868,9.868,0,0,1-1.672-2.229l.7-.7a1.845,1.845,0,0,1,1.305-.541,1.841,1.841,0,0,1,1.305.541,1.845,1.845,0,0,1,0,2.61l1.542-1.541a1.84,1.84,0,0,1,1.3-.541,1.841,1.841,0,0,1,1.305.541,1.845,1.845,0,0,1,0,2.61l1.247-1.246a1.84,1.84,0,0,1,1.3-.541,1.841,1.841,0,0,1,1.305.541,1.845,1.845,0,0,1,0,2.61l-2.378,2.378a1.835,1.835,0,0,1,1.305-.541,1.835,1.835,0,0,1,1.305.541,1.845,1.845,0,0,1,0,2.61" transform="translate(121.906 111.573)" fill="#ffb09e"/>
          </g>
          <g id="g4029" transform="translate(0.948 41.234)">
            <path id="path4031" d="M-277.738-30.1l-9.33,9.33-7.013,4.112-5.577,5.577-7.155-7.155h0l5.2,5.2,5.577-5.577,7.011-4.11,9.331-9.331a1.833,1.833,0,0,0,.536-1.193c.038,0,.075,0,.112,0a1.835,1.835,0,0,1,1.305.541,1.845,1.845,0,0,1,0,2.61" transform="translate(306.813 33.253)" fill="#ffb09e"/>
          </g>
          <g id="g4033" transform="translate(8.103 33.812)">
            <path id="path4035" d="M0-282.668l5.577-5.577,7.012-4.111,9.33-9.33a1.846,1.846,0,0,0,0-2.61,1.846,1.846,0,0,0-2.61,0l2.378-2.378a1.846,1.846,0,0,0,0-2.61h0a1.845,1.845,0,0,0-2.61,0l-1.246,1.246a1.846,1.846,0,0,0,0-2.61,1.846,1.846,0,0,0-2.61,0l-1.541,1.541a1.845,1.845,0,0,0,0-2.61,1.845,1.845,0,0,0-2.61,0l-2.842,2.842" transform="translate(0 312.259)" fill="none" stroke="#000" stroke-linecap="round" stroke-linejoin="round" stroke-miterlimit="10" stroke-width="1"/>
          </g>
          <g id="g4037" transform="translate(0.948 40.358)">
            <path id="path4039" d="M-116.735,0l-4.115,4.115A6.65,6.65,0,0,0-122.735,7.9l-.287,2.056-5.934,5.934" transform="translate(128.956)" fill="none" stroke="#000" stroke-linecap="round" stroke-linejoin="round" stroke-miterlimit="10" stroke-width="1"/>
          </g>
          <g id="g4041" transform="translate(21.146 41.775)">
            <path id="path4043" d="M-59.862,0l-6.267,6.267" transform="translate(66.129)" fill="none" stroke="#000" stroke-linecap="round" stroke-linejoin="round" stroke-miterlimit="10" stroke-width="1"/>
          </g>
          <g id="g4045" transform="translate(18.481 38.032)">
            <path id="path4047" d="M-71.2,0l-7.454,7.454" transform="translate(78.657)" fill="none" stroke="#000" stroke-linecap="round" stroke-linejoin="round" stroke-miterlimit="10" stroke-width="1"/>
          </g>
          <g id="g4049" transform="translate(16.05 36.963)">
            <path id="path4051" d="M-54.765,0-60.5,5.733" transform="translate(60.499)" fill="none" stroke="#000" stroke-linecap="round" stroke-linejoin="round" stroke-miterlimit="10" stroke-width="1"/>
          </g>
          <g id="g4053" transform="translate(10.766 48.083)">
            <path id="path4055" d="M-171.38-21.962l-5.557,6.049a5.493,5.493,0,0,1-2.248,1.475l-2.643.915a3.183,3.183,0,0,1-2.4-.129l-2.494-1.176-2.6-2.6,3.119-3.119a4.614,4.614,0,0,1,6.525,0l.54.54,3.35-3.35a3.087,3.087,0,0,1,4.365,0,1.018,1.018,0,0,1,.042,1.4" transform="translate(189.321 24.262)" fill="#ffcebf"/>
          </g>
          <g id="g4057" transform="translate(11.526 48.142)">
            <path id="path4059" d="M-166.575-14.954a1.013,1.013,0,0,1-.257.675l-5.557,6.049a5.487,5.487,0,0,1-2.248,1.475l-2.643.916a3.19,3.19,0,0,1-2.4-.129l-2.493-1.176-1.841-1.841,2.493,1.176a3.184,3.184,0,0,0,2.4.128l2.643-.915a5.487,5.487,0,0,0,2.248-1.475l5.557-6.049a1.015,1.015,0,0,0,.217-.4,3.068,3.068,0,0,1,1.582.845,1.015,1.015,0,0,1,.3.72" transform="translate(184.013 16.52)" fill="#ffb09e"/>
          </g>
          <g id="g4061" transform="translate(10.766 48.083)">
            <path id="path4063" d="M-50.382-23.849a4.611,4.611,0,0,1,4.37,1.217l.54.54,3.35-3.349a3.087,3.087,0,0,1,4.365,0,1.019,1.019,0,0,1,.042,1.4L-43.272-18a5.5,5.5,0,0,1-2.248,1.475l-2.643.915a3.184,3.184,0,0,1-2.4-.129l-2.494-1.176-2.6-2.6" transform="translate(55.656 26.345)" fill="none" stroke="#000" stroke-linecap="round" stroke-linejoin="round" stroke-miterlimit="10" stroke-width="1"/>
          </g>
          <g id="g4065" transform="translate(34.129 1.289)">
            <path id="path4067" d="M-94.291-92.546l-9.33,9.33a1.846,1.846,0,0,0,0,2.61,1.846,1.846,0,0,0,2.61,0l-2.378,2.378a1.846,1.846,0,0,0,0,2.61h0a1.846,1.846,0,0,0,2.61,0l1.246-1.246a1.846,1.846,0,0,0,0,2.61h0a1.846,1.846,0,0,0,2.61,0l1.541-1.541a1.846,1.846,0,0,0,0,2.61,1.846,1.846,0,0,0,2.61,0l10.12-10.12a6.652,6.652,0,0,0,1.884-3.785l.286-2.056,5.934-5.934-7.155-7.155-5.577,5.577Z" transform="translate(104.162 102.234)" fill="#d78878"/>
          </g>
          <g id="g4069" transform="translate(42.369 6.448)">
            <path id="path4071" d="M-204.19-19.07l-5.935,5.935-.286,2.056A6.645,6.645,0,0,1-212.3-7.3l-10.12,10.121a1.845,1.845,0,0,1-1.305.541,1.841,1.841,0,0,1-1.305-.541,1.839,1.839,0,0,1-.533-1.463,1.844,1.844,0,0,0,1.147-.533l10.12-10.121a6.653,6.653,0,0,0,1.885-3.784l.286-2.056,5.935-5.935Z" transform="translate(225.566 21.067)" fill="#ca6f59"/>
          </g>
          <g id="g4073" transform="translate(34.129 1.289)">
            <path id="path4075" d="M-214.553,0l-5.577,5.577-7.012,4.111-9.33,9.33a1.846,1.846,0,0,0,0,2.61,1.846,1.846,0,0,0,2.61,0l-2.378,2.378a1.846,1.846,0,0,0,0,2.61h0a1.846,1.846,0,0,0,2.61,0l1.246-1.246a1.846,1.846,0,0,0,0,2.61h0a1.846,1.846,0,0,0,2.61,0l1.541-1.541a1.846,1.846,0,0,0,0,2.61,1.846,1.846,0,0,0,2.61,0l10.12-10.12a6.651,6.651,0,0,0,1.884-3.785l.287-2.056,5.934-5.934" transform="translate(237.014)" fill="none" stroke="#000" stroke-linecap="round" stroke-linejoin="round" stroke-miterlimit="10" stroke-width="1"/>
          </g>
          <g id="g4077" transform="translate(37.28 16.651)">
            <path id="path4079" d="M0-59.862l6.267-6.267" transform="translate(0 66.129)" fill="none" stroke="#000" stroke-linecap="round" stroke-linejoin="round" stroke-miterlimit="10" stroke-width="1"/>
          </g>
          <g id="g4081" transform="translate(38.758 19.206)">
            <path id="path4083" d="M0-71.2l7.454-7.454" transform="translate(0 78.657)" fill="none" stroke="#000" stroke-linecap="round" stroke-linejoin="round" stroke-miterlimit="10" stroke-width="1"/>
          </g>
          <g id="g4085" transform="translate(42.909 21.996)">
            <path id="path4087" d="M0-54.765,5.733-60.5" transform="translate(0 60.499)" fill="none" stroke="#000" stroke-linecap="round" stroke-linejoin="round" stroke-miterlimit="10" stroke-width="1"/>
          </g>
          <g id="g4089" transform="translate(35.729 5.697)">
            <path id="path4091" d="M-2.445-82.283l5.557-6.049a5.493,5.493,0,0,1,2.248-1.475L8-90.721a3.183,3.183,0,0,1,2.4.129L12.9-89.417l2.6,2.6L12.377-83.7a4.614,4.614,0,0,1-6.525,0l-.54-.54-3.35,3.35a3.087,3.087,0,0,1-4.365,0,1.018,1.018,0,0,1-.042-1.4" transform="translate(2.701 90.896)" fill="#d78878"/>
          </g>
          <g id="g4093" transform="translate(35.729 5.697)">
            <path id="path4095" d="M-123.443-80.4a4.611,4.611,0,0,1-4.37-1.217l-.54-.54L-131.7-78.8a3.087,3.087,0,0,1-4.365,0,1.018,1.018,0,0,1-.042-1.4l5.557-6.049a5.5,5.5,0,0,1,2.248-1.475l2.643-.915a3.184,3.184,0,0,1,2.4.129l2.494,1.176,2.6,2.6" transform="translate(136.365 88.813)" fill="none" stroke="#000" stroke-linecap="round" stroke-linejoin="round" stroke-miterlimit="10" stroke-width="1"/>
          </g>
          <g id="g4097" transform="translate(1.289 0.948)">
            <path id="path4099" d="M-92.546-188.612l9.33,9.33a1.846,1.846,0,0,0,2.61,0,1.846,1.846,0,0,0,0-2.61l2.378,2.378a1.846,1.846,0,0,0,2.61,0h0a1.846,1.846,0,0,0,0-2.61l-1.246-1.246a1.846,1.846,0,0,0,2.61,0h0a1.846,1.846,0,0,0,0-2.61l-1.541-1.541a1.846,1.846,0,0,0,2.61,0,1.846,1.846,0,0,0,0-2.61l-10.12-10.12a6.652,6.652,0,0,0-3.785-1.884l-2.056-.286-5.934-5.934-7.155,7.155,5.577,5.577Z" transform="translate(102.234 208.357)" fill="#a54f3e"/>
          </g>
          <g id="g4101" transform="translate(6.185 0.948)">
            <path id="path4103" d="M-235.9-186.562a1.841,1.841,0,0,1-.541,1.305,1.841,1.841,0,0,1-1.782.478,1.835,1.835,0,0,0-.478-.829l-10.121-10.12a6.646,6.646,0,0,0-3.784-1.885l-2.056-.286-5.935-5.935,2.259-2.259,5.935,5.935,2.056.286a6.645,6.645,0,0,1,3.784,1.885l10.121,10.12a1.845,1.845,0,0,1,.541,1.305" transform="translate(260.599 206.093)" fill="#883f2d"/>
          </g>
          <g id="g4105" transform="translate(1.289 8.103)">
            <path id="path4107" d="M0,0,5.577,5.577,9.688,12.59l9.33,9.33a1.846,1.846,0,0,0,2.61-2.61l2.378,2.378a1.846,1.846,0,0,0,2.61,0h0a1.846,1.846,0,0,0,0-2.61l-1.246-1.246a1.846,1.846,0,0,0,2.61-2.61L26.44,13.68a1.846,1.846,0,1,0,2.61-2.61L27.006,9.025" fill="none" stroke="#000" stroke-linecap="round" stroke-linejoin="round" stroke-miterlimit="10" stroke-width="1"/>
          </g>
          <g id="g4109" transform="translate(8.444 0.948)">
            <path id="path4111" d="M-159.413-124.356l-4.913-4.913a6.651,6.651,0,0,0-3.785-1.884l-2.056-.287-5.934-5.934" transform="translate(176.101 137.374)" fill="none" stroke="#000" stroke-linecap="round" stroke-linejoin="round" stroke-miterlimit="10" stroke-width="1"/>
          </g>
          <g id="g4113" transform="translate(16.651 21.146)">
            <path id="path4115" d="M-59.862-59.862l-6.267-6.267" transform="translate(66.129 66.129)" fill="none" stroke="#000" stroke-linecap="round" stroke-linejoin="round" stroke-miterlimit="10" stroke-width="1"/>
          </g>
          <g id="g4117" transform="translate(19.206 18.481)">
            <path id="path4119" d="M-71.2-71.2l-7.454-7.454" transform="translate(78.657 78.657)" fill="none" stroke="#000" stroke-linecap="round" stroke-linejoin="round" stroke-miterlimit="10" stroke-width="1"/>
          </g>
          <g id="g4121" transform="translate(21.996 16.05)">
            <path id="path4123" d="M-54.765-54.765-60.5-60.5" transform="translate(60.499 60.499)" fill="none" stroke="#000" stroke-linecap="round" stroke-linejoin="round" stroke-miterlimit="10" stroke-width="1"/>
          </g>
          <g id="g4125" transform="translate(5.697 10.766)">
            <path id="path4127" d="M-82.283-171.38l-6.049-5.557a5.493,5.493,0,0,1-1.475-2.248l-.915-2.643a3.183,3.183,0,0,1,.129-2.4l1.176-2.494,2.6-2.6L-83.7-186.2a4.614,4.614,0,0,1,0,6.525l-.54.54,3.35,3.35a3.087,3.087,0,0,1,0,4.365,1.018,1.018,0,0,1-1.4.042" transform="translate(90.896 189.321)" fill="#a54f3e"/>
          </g>
          <g id="g4129" transform="translate(5.697 10.766)">
            <path id="path4131" d="M-80.4-50.382a4.611,4.611,0,0,1-1.217,4.37l-.54.54,3.349,3.35a3.087,3.087,0,0,1,0,4.365,1.019,1.019,0,0,1-1.4.042l-6.049-5.557a5.5,5.5,0,0,1-1.475-2.248l-.915-2.643a3.184,3.184,0,0,1,.129-2.4l1.176-2.494,2.6-2.6" transform="translate(88.813 55.656)" fill="none" stroke="#000" stroke-linecap="round" stroke-linejoin="round" stroke-miterlimit="10" stroke-width="1"/>
          </g>
          <g id="g4133" transform="translate(33.812 34.129)">
            <path id="path4135" d="M-190.122-94.291l-9.33-9.33a1.846,1.846,0,0,0-2.61,0,1.846,1.846,0,0,0,0,2.61l-2.378-2.378a1.846,1.846,0,0,0-2.61,0h0a1.846,1.846,0,0,0,0,2.61l1.246,1.246a1.846,1.846,0,0,0-2.61,0h0a1.846,1.846,0,0,0,0,2.61l1.541,1.541a1.846,1.846,0,0,0-2.61,0,1.846,1.846,0,0,0,0,2.61l10.12,10.12a6.652,6.652,0,0,0,3.785,1.884l2.056.286,5.934,5.934,7.155-7.155-5.577-5.577Z" transform="translate(210.024 104.162)" fill="#ffdfcf"/>
          </g>
          <g id="g4137" transform="translate(33.812 34.129)">
            <path id="path4139" d="M-113.239-17.408a9.936,9.936,0,0,1-1.113,1.33l-9.22,9.219-.98-.981a1.845,1.845,0,0,1-.541-1.305,1.841,1.841,0,0,1,.541-1.305,1.845,1.845,0,0,1,2.61,0l-1.541-1.542a1.84,1.84,0,0,1-.541-1.3,1.841,1.841,0,0,1,.541-1.305,1.845,1.845,0,0,1,2.61,0l-1.246-1.247a1.84,1.84,0,0,1-.541-1.3,1.841,1.841,0,0,1,.541-1.305,1.845,1.845,0,0,1,2.61,0l2.378,2.378a1.836,1.836,0,0,1-.541-1.305,1.835,1.835,0,0,1,.541-1.305,1.845,1.845,0,0,1,2.61,0Z" transform="translate(125.093 19.23)" fill="#ffcebf"/>
          </g>
          <g id="g4141" transform="translate(41.234 34.129)">
            <path id="path4143" d="M-143.425-282.906l5.2-5.2-5.577-5.577-4.11-7.011-9.331-9.331a1.833,1.833,0,0,0-1.193-.536c0-.038,0-.075,0-.112a1.835,1.835,0,0,1,.541-1.305,1.845,1.845,0,0,1,2.61,0l9.33,9.33,4.111,7.013,5.577,5.577Z" transform="translate(158.44 312.523)" fill="#ffcebf"/>
          </g>
          <g id="g4145" transform="translate(33.812 34.129)">
            <path id="path4147" d="M-282.668-214.553l-5.577-5.577-4.111-7.012-9.33-9.33a1.845,1.845,0,0,0-2.61,0,1.846,1.846,0,0,0,0,2.61l-2.378-2.378a1.846,1.846,0,0,0-2.61,0h0a1.845,1.845,0,0,0,0,2.61l1.246,1.246a1.846,1.846,0,0,0-2.61,0h0a1.846,1.846,0,0,0,0,2.61l1.541,1.541a1.846,1.846,0,0,0-2.61,0,1.846,1.846,0,0,0,0,2.61l10.12,10.12a6.651,6.651,0,0,0,3.785,1.884l2.056.287,5.934,5.934" transform="translate(312.259 237.014)" fill="none" stroke="#000" stroke-linecap="round" stroke-linejoin="round" stroke-miterlimit="10" stroke-width="1"/>
          </g>
          <g id="g4149" transform="translate(41.775 37.28)">
            <path id="path4151" d="M0,0,6.267,6.267" fill="none" stroke="#000" stroke-linecap="round" stroke-linejoin="round" stroke-miterlimit="10" stroke-width="1"/>
          </g>
          <g id="g4153" transform="translate(38.032 38.758)">
            <path id="path4155" d="M0,0,7.454,7.454" fill="none" stroke="#000" stroke-linecap="round" stroke-linejoin="round" stroke-miterlimit="10" stroke-width="1"/>
          </g>
          <g id="g4157" transform="translate(36.963 42.909)">
            <path id="path4159" d="M0,0,5.733,5.733" fill="none" stroke="#000" stroke-linecap="round" stroke-linejoin="round" stroke-miterlimit="10" stroke-width="1"/>
          </g>
          <g id="g4161" transform="translate(48.083 35.729)">
            <path id="path4163" d="M-21.962-2.445l6.049,5.557a5.494,5.494,0,0,1,1.475,2.248L-13.524,8a3.183,3.183,0,0,1-.129,2.4L-14.828,12.9l-2.6,2.6-3.119-3.119a4.614,4.614,0,0,1,0-6.525l.54-.54-3.35-3.35a3.087,3.087,0,0,1,0-4.365,1.018,1.018,0,0,1,1.4-.042" transform="translate(24.262 2.701)" fill="#ffdfcf"/>
          </g>
          <g id="g4165" transform="translate(48.116 35.729)">
            <path id="path4167" d="M-101.024-125.176l-1.176,2.493-1.953,1.953,1.175-2.493a3.178,3.178,0,0,0,.129-2.4l-.915-2.642a5.5,5.5,0,0,0-1.475-2.248l-6.048-5.558a1.01,1.01,0,0,0-.312-.188,3.078,3.078,0,0,1,.871-1.723,1.015,1.015,0,0,1,.72-.3,1.013,1.013,0,0,1,.675.256l6.048,5.557a5.488,5.488,0,0,1,1.475,2.248l.916,2.643a3.191,3.191,0,0,1-.129,2.4" transform="translate(111.6 138.28)" fill="#ffcebf"/>
          </g>
          <g id="g4169" transform="translate(54.916 40.539)">
            <path id="path4171" d="M0-127.884l2.6-2.6,1.176-2.493a3.183,3.183,0,0,0,.129-2.4L2.99-138.02a5.5,5.5,0,0,0-1.475-2.248l-1.093-1" transform="translate(0 141.272)" fill="none" stroke="#000" stroke-linecap="round" stroke-linejoin="round" stroke-miterlimit="10" stroke-width="1"/>
          </g>
          <g id="g4173" transform="translate(48.083 35.729)">
            <path id="path4175" d="M-37.846-17.038l-1.663-1.528a1.018,1.018,0,0,0-1.4.042,3.087,3.087,0,0,0,0,4.365l3.35,3.35-.54.54A4.611,4.611,0,0,0-39.312-5.9" transform="translate(41.808 18.822)" fill="none" stroke="#000" stroke-linecap="round" stroke-linejoin="round" stroke-miterlimit="10" stroke-width="1"/>
          </g>
          <g id="g4177" transform="translate(19.778 22.928)">
            <path id="path4179" d="M-219.572-120.059a7.366,7.366,0,0,0-.006-10.411,7.366,7.366,0,0,0-10.411-.006,7.366,7.366,0,0,0-10.411.006,7.366,7.366,0,0,0-.007,10.411l9.418,9.418a1.414,1.414,0,0,0,2,0Z" transform="translate(242.558 132.627)" fill="#fe76a8"/>
          </g>
          <g id="g4181" transform="translate(30.189 22.932)">
            <path id="path4183" d="M-120.118-120.022l-9.418,9.418a1.413,1.413,0,0,1-2,0l-1.157-1.157,9.191-9.192a7.366,7.366,0,0,0-.006-10.411,7.375,7.375,0,0,0-1.612-1.222,7.339,7.339,0,0,1,4.995,2.154,7.366,7.366,0,0,1,.008,10.41" transform="translate(132.693 132.586)" fill="#ff5795"/>
          </g>
          <g id="g4185" transform="translate(19.778 22.928)">
            <path id="path4187" d="M-219.572-120.059a7.366,7.366,0,0,0-.006-10.411,7.366,7.366,0,0,0-10.411-.006,7.366,7.366,0,0,0-10.411.006,7.366,7.366,0,0,0-.007,10.411l9.418,9.418a1.414,1.414,0,0,0,2,0Z" transform="translate(242.558 132.627)" fill="none" stroke="#000" stroke-linecap="round" stroke-linejoin="round" stroke-miterlimit="10" stroke-width="1"/>
          </g>
        </g>
      </g>
    </g>
  </g>
</svg>
