<svg xmlns="http://www.w3.org/2000/svg" xmlns:xlink="http://www.w3.org/1999/xlink" width="98" height="98" viewBox="0 0 98 98">
  <defs>
    <filter id="Trazado_982547" x="0" y="0" width="98" height="98" filterUnits="userSpaceOnUse">
      <feOffset dy="3" input="SourceAlpha"/>
      <feGaussianBlur stdDeviation="3" result="blur"/>
      <feFlood flood-opacity="0.161"/>
      <feComposite operator="in" in2="blur"/>
      <feComposite in="SourceGraphic"/>
    </filter>
    <clipPath id="clip-path">
      <path id="path8121" d="M0-682.665H48.414v48.414H0Z" transform="translate(0 682.665)"/>
    </clipPath>
  </defs>
  <g id="Grupo_1224535" data-name="Grupo 1224535" transform="translate(-1036 -1204.181)">
    <g id="Grupo_1209299" data-name="Grupo 1209299" transform="translate(840 -5396.464)">
      <g id="Grupo_1208715" data-name="Grupo 1208715" transform="translate(5 4679.811)">
        <g id="Grupo_1208171" data-name="Grupo 1208171" transform="translate(0 -2047.18)">
          <g id="Grupo_1207739" data-name="Grupo 1207739" transform="translate(0 1882.462)">
            <g id="Grupo_1207712" data-name="Grupo 1207712">
              <g id="Grupo_1207285" data-name="Grupo 1207285" transform="translate(0 344.552)">
                <g id="Grupo_1206883" data-name="Grupo 1206883" transform="translate(0 -209)">
                  <g id="Grupo_1204569" data-name="Grupo 1204569" transform="translate(-81 -1890.336)">
                    <g id="Grupo_1203962" data-name="Grupo 1203962" transform="translate(281 3846.336)">
                      <g id="Grupo_1203498" data-name="Grupo 1203498" transform="translate(0)">
                        <g id="Grupo_1202589" data-name="Grupo 1202589">
                          <g id="Grupo_1172010" data-name="Grupo 1172010">
                            <g id="Grupo_1171046" data-name="Grupo 1171046">
                              <g id="Grupo_1148525" data-name="Grupo 1148525">
                                <g transform="matrix(1, 0, 0, 1, -9, -6)" filter="url(#Trazado_982547)">
                                  <g id="Trazado_982547-2" data-name="Trazado 982547" transform="translate(9 6)" fill="#fdfbec">
                                    <path d="M 39.99999237060547 78.49998474121094 C 34.8018684387207 78.49998474121094 29.76002502441406 77.48226165771484 25.0145263671875 75.47508239746094 C 20.43014717102051 73.53604888916016 16.31264877319336 70.75984954833984 12.77639198303223 67.22359466552734 C 9.240137100219727 63.68733596801758 6.463936805725098 59.5698356628418 4.524903297424316 54.98546981811523 C 2.517725706100464 50.23995971679688 1.500003457069397 45.19811630249023 1.500003457069397 39.99999237060547 C 1.500003457069397 34.8018684387207 2.517725706100464 29.76002502441406 4.524903297424316 25.0145263671875 C 6.463936805725098 20.43014717102051 9.240137100219727 16.31264877319336 12.77639198303223 12.77639198303223 C 16.31264877319336 9.240137100219727 20.43014717102051 6.463936805725098 25.0145263671875 4.524903297424316 C 29.76002502441406 2.517725706100464 34.8018684387207 1.500003457069397 39.99999237060547 1.500003457069397 C 45.19811630249023 1.500003457069397 50.23995971679688 2.517725706100464 54.98546981811523 4.524903297424316 C 59.5698356628418 6.463936805725098 63.68733596801758 9.240137100219727 67.22359466552734 12.77639198303223 C 70.75984954833984 16.31264877319336 73.53604888916016 20.43014717102051 75.47508239746094 25.0145263671875 C 77.48226165771484 29.76002502441406 78.49998474121094 34.8018684387207 78.49998474121094 39.99999237060547 C 78.49998474121094 45.19812393188477 77.48226165771484 50.23995971679688 75.47508239746094 54.98546981811523 C 73.53604888916016 59.5698356628418 70.75984954833984 63.68733596801758 67.22359466552734 67.22359466552734 C 63.68733596801758 70.75984954833984 59.5698356628418 73.53604888916016 54.98546981811523 75.47508239746094 C 50.23995971679688 77.48226165771484 45.19812393188477 78.49998474121094 39.99999237060547 78.49998474121094 Z" stroke="none"/>
                                    <path d="M 39.99999237060547 2.999992370605469 C 35.00370025634766 2.999992370605469 30.1584587097168 3.97784423828125 25.59884643554688 5.906402587890625 C 21.19327163696289 7.769805908203125 17.23603057861328 10.43805694580078 13.83704376220703 13.83704376220703 C 10.43805694580078 17.23603057861328 7.769805908203125 21.19327163696289 5.906402587890625 25.59884643554688 C 3.97784423828125 30.1584587097168 2.999992370605469 35.00370025634766 2.999992370605469 39.99999237060547 C 2.999992370605469 44.99628448486328 3.97784423828125 49.84152603149414 5.906402587890625 54.40113830566406 C 7.769805908203125 58.80671310424805 10.43805694580078 62.76395416259766 13.83704376220703 66.16294097900391 C 17.23603057861328 69.56191253662109 21.19327163696289 72.23016357421875 25.59884643554688 74.09356689453125 C 30.1584587097168 76.02212524414062 35.00370025634766 76.99997711181641 39.99999237060547 76.99997711181641 C 44.99628448486328 76.99997711181641 49.84152603149414 76.02212524414062 54.40113830566406 74.09356689453125 C 58.80671310424805 72.23016357421875 62.76395416259766 69.56191253662109 66.16294097900391 66.16294097900391 C 69.56191253662109 62.76395416259766 72.23016357421875 58.80671310424805 74.09356689453125 54.40113830566406 C 76.02212524414062 49.84152603149414 76.99997711181641 44.99628448486328 76.99997711181641 39.99999237060547 C 76.99997711181641 35.00370025634766 76.02212524414062 30.1584587097168 74.09356689453125 25.59884643554688 C 72.23016357421875 21.19327163696289 69.56191253662109 17.23603057861328 66.16294097900391 13.83704376220703 C 62.76395416259766 10.43805694580078 58.80671310424805 7.769805908203125 54.40113830566406 5.906402587890625 C 49.84152603149414 3.97784423828125 44.99628448486328 2.999992370605469 39.99999237060547 2.999992370605469 M 39.99999237060547 -7.62939453125e-06 C 62.09137725830078 -7.62939453125e-06 79.99997711181641 17.90860748291016 79.99997711181641 39.99999237060547 C 79.99997711181641 62.09137725830078 62.09137725830078 79.99997711181641 39.99999237060547 79.99997711181641 C 17.90860748291016 79.99997711181641 -7.62939453125e-06 62.09137725830078 -7.62939453125e-06 39.99999237060547 C -7.62939453125e-06 17.90860748291016 17.90860748291016 -7.62939453125e-06 39.99999237060547 -7.62939453125e-06 Z" stroke="none" fill="#83793c"/>
                                  </g>
                                </g>
                              </g>
                            </g>
                          </g>
                        </g>
                      </g>
                    </g>
                  </g>
                </g>
              </g>
              <g id="g8115" transform="translate(215.793 2790.01)">
                <g id="g8117" transform="translate(0 -682.665)">
                  <g id="g8119" clip-path="url(#clip-path)">
                    <g id="g8125" transform="translate(-33.259 0.709)">
                      <path id="path8127" d="M-338.457-377.826h-25.835v-25.108c5.31-7.679,37.755-5.416,25.835,25.108" transform="translate(364.292 406.667)" fill="#fbdf63"/>
                    </g>
                    <g id="g8129" transform="translate(-33.259 0.709)">
                      <path id="path8131" d="M-338.457-377.826h-.619c6.164-24.728-15.887-30.6-25.216-24.374v-.734c5.31-7.679,37.755-5.416,25.835,25.108" transform="translate(364.292 406.667)" fill="#f9d11f"/>
                    </g>
                  </g>
                </g>
                <g id="g8265" transform="translate(0 -682.665)">
                  <g id="g8267" clip-path="url(#clip-path)">
                    <g id="g8273" transform="translate(-33.259 51.036)">
                      <path id="path8275" d="M-338.457-377.654h-25.835v-25.1c5.31-7.676,37.755-5.413,25.835,25.1" transform="translate(364.292 406.481)" fill="#003343"/>
                    </g>
                    <g id="g8277" transform="translate(-33.259 51.036)">
                      <path id="path8279" d="M-338.457-377.654h-.619c6.164-24.717-15.887-30.585-25.216-24.362v-.734c5.31-7.676,37.755-5.413,25.835,25.1" transform="translate(364.292 406.481)" fill="#002439"/>
                    </g>
                  </g>
                </g>
                <g id="g8281" transform="translate(0 -682.665)">
                  <g id="g8283" clip-path="url(#clip-path)">
                    <g id="g8289" transform="translate(17.066 51.014)">
                      <path id="path8291" d="M-338.457-377.826h-25.835v-25.108c5.31-7.679,37.755-5.416,25.835,25.108" transform="translate(364.292 406.667)" fill="#ff7e50"/>
                    </g>
                    <g id="g8293" transform="translate(17.066 51.014)">
                      <path id="path8295" d="M-338.457-377.826h-.619c6.164-24.728-15.887-30.6-25.216-24.374v-.734c5.31-7.679,37.755-5.416,25.835,25.108" transform="translate(364.292 406.667)" fill="#ff6247"/>
                    </g>
                    <g id="g8297" transform="translate(2.941 54.225)">
                      <path id="path8299" d="M-233.028-131.751v15.573h-14.6c-12.2-25.649,14.6-34.273,14.6-15.573" transform="translate(250.816 141.808)" fill="#ffa68a"/>
                    </g>
                    <g id="g8301" transform="translate(2.941 54.225)">
                      <path id="path8303" d="M-233.028-131.751c-.9-16.1-20.23-9.82-14.176,15.573h-.427c-12.2-25.649,14.6-34.273,14.6-15.573" transform="translate(250.816 141.808)" fill="#ff7e50"/>
                    </g>
                  </g>
                </g>
              </g>
            </g>
          </g>
        </g>
      </g>
    </g>
    <g id="Outline_Color-1" data-name="Outline Color-1" transform="translate(1057.978 1223.145)">
      <g id="_16" data-name="16" transform="translate(2 2.024)">
        <path id="Trazado_1056208" data-name="Trazado 1056208" d="M40.03,49.17H33.358v4.17H5V45H44.2a4.17,4.17,0,1,1,0,8.341H40.03Z" transform="translate(-2.498 -9.155)" fill="#f9b52d"/>
        <circle id="Elipse_13542" data-name="Elipse 13542" cx="1.668" cy="1.668" r="1.668" transform="translate(38.366 0.814)" fill="#38a554"/>
        <circle id="Elipse_13543" data-name="Elipse 13543" cx="1.668" cy="1.668" r="1.668" transform="translate(8.341 0.814)" fill="#38a554"/>
        <circle id="Elipse_13544" data-name="Elipse 13544" cx="1.668" cy="1.668" r="1.668" transform="translate(0.834 5.819)" fill="#e53e3e"/>
        <circle id="Elipse_13545" data-name="Elipse 13545" cx="1.668" cy="1.668" r="1.668" transform="translate(45.873 6.653)" fill="#e53e3e"/>
        <path id="Trazado_1056209" data-name="Trazado 1056209" d="M45.672,57.506v1.668l-3.336-1.668L39,59.175V50h6.672v7.506Z" transform="translate(-8.14 -9.985)" fill="#e53e3e"/>
        <path id="Trazado_1056210" data-name="Trazado 1056210" d="M33.026,55v3.336H3V55H33.026Z" transform="translate(-2.166 -10.815)" fill="#38a554"/>
        <path id="Trazado_1056211" data-name="Trazado 1056211" d="M49.173,43.2a7.506,7.506,0,0,1-5.3,12.811H39.7V52.677h4.17a4.17,4.17,0,1,0,0-8.341H3V41H43.869a7.506,7.506,0,0,1,5.3,2.2Z" transform="translate(-2.166 -8.492)" fill="#38a554"/>
        <g id="Grupo_1224534" data-name="Grupo 1224534" transform="translate(6.672 11.657)">
          <path id="Trazado_1056212" data-name="Trazado 1056212" d="M51.336,27.578l-1.668,1.668L48,27.578V25.46a3.336,3.336,0,0,0,3.336,0Z" transform="translate(-16.306 -17.57)" fill="#e0a328"/>
          <path id="Trazado_1056213" data-name="Trazado 1056213" d="M52.672,19.336V21A3.336,3.336,0,1,1,46,21V19.336a3.336,3.336,0,1,1,6.672,0Z" transform="translate(-15.974 -16)" fill="#e0a328"/>
          <path id="Trazado_1056214" data-name="Trazado 1056214" d="M15.336,27.578l-1.668,1.668L12,27.578V25.46a3.336,3.336,0,0,0,3.336,0Z" transform="translate(-10.332 -17.57)" fill="#e0a328"/>
          <path id="Trazado_1056215" data-name="Trazado 1056215" d="M16.672,19.336V21A3.336,3.336,0,1,1,10,21V19.336a3.336,3.336,0,1,1,6.672,0Z" transform="translate(-10 -16)" fill="#e0a328"/>
        </g>
        <path id="Trazado_1056216" data-name="Trazado 1056216" d="M33.336,25.578l-1.668,1.668L30,25.578V23.46a3.336,3.336,0,0,0,3.336,0Z" transform="translate(-6.647 -5.581)" fill="#f9b52d"/>
        <path id="Trazado_1056217" data-name="Trazado 1056217" d="M34.672,17.336V19A3.336,3.336,0,0,1,28,19V17.336a3.336,3.336,0,1,1,6.672,0Z" transform="translate(-6.315 -4.011)" fill="#f9b52d"/>
        <path id="Trazado_1056218" data-name="Trazado 1056218" d="M56.013,35.506H41V29.668L46.838,28l1.668,1.668L50.175,28l5.838,1.668Z" transform="translate(-8.472 -6.334)" fill="#3f79da"/>
        <path id="Trazado_1056219" data-name="Trazado 1056219" d="M20.013,35.506H5V29.668L10.838,28l1.668,1.668L14.175,28l5.838,1.668Z" transform="translate(-2.498 -6.334)" fill="#3f79da"/>
        <path id="Trazado_1056220" data-name="Trazado 1056220" d="M38.013,35.175H23V27.668L28.838,26l1.668,1.668L32.175,26l5.838,1.668v7.506Z" transform="translate(-5.485 -6.002)" fill="#4686f2"/>
        <circle id="Elipse_13546" data-name="Elipse 13546" cx="1.668" cy="1.668" r="1.668" transform="translate(23.353 0.814)" fill="#4686f2"/>
        <path id="Trazado_1056221" data-name="Trazado 1056221" d="M4.609,26.345A.834.834,0,0,0,4,27.179v5.838a.834.834,0,0,0,.834.834H49.873a.834.834,0,0,0,.834-.834V27.179a.834.834,0,0,0-.609-.834l-5.23-1.46V23.843a4.17,4.17,0,0,0,1.668-3.336V18.838a4.17,4.17,0,1,0-8.341,0v1.668a4.17,4.17,0,0,0,1.668,3.336v1.051l-4.17,1.184v-.567a.834.834,0,0,0-.609-.834l-5.23-1.46V22.175a4.17,4.17,0,0,0,1.668-3.336V17.17a4.17,4.17,0,0,0-8.341,0v1.668a4.17,4.17,0,0,0,1.668,3.336v1.051l-5.23,1.451a.834.834,0,0,0-.609.834v.559l-4.17-1.184V23.843a4.17,4.17,0,0,0,1.668-3.336V18.838a4.17,4.17,0,1,0-8.341,0v1.668a4.17,4.17,0,0,0,1.668,3.336v1.051Zm2.727,4.17v1.668H5.668V27.8l4.762-1.36,1.076,1.076v4.662H9V30.515Zm5-5.838a4.646,4.646,0,0,0,.834-.092v.584L12.34,26l-.834-.834v-.584a4.645,4.645,0,0,0,.834.092Zm15.013-1.668a4.646,4.646,0,0,0,.834-.092V23.5l-.834.834-.834-.834v-.584a4.645,4.645,0,0,0,.834.092Zm10.009,7.506v1.668H35.694V27.8l4.762-1.36,1.076,1.076v4.662h-2.5V30.515Zm5-5.838a4.646,4.646,0,0,0,.834-.092v.584L42.366,26l-.834-.834v-.584a4.646,4.646,0,0,0,.834.092Zm6.672,7.506H47.371V30.515H45.7v1.668H43.2V27.521l1.076-1.076,4.762,1.36ZM39.864,18.838a2.5,2.5,0,1,1,5,0v1.668a2.5,2.5,0,0,1-5,0Zm-5.838,8.341v5H32.358V28.847H30.69v3.336h-2.5v-6.33l1.076-1.076,4.762,1.36ZM24.851,17.17a2.5,2.5,0,0,1,5,0v1.668a2.5,2.5,0,0,1-5,0Zm-4.17,8.966,4.762-1.36,1.076,1.076v6.33h-2.5V28.847H22.349v3.336H20.681Zm-1.668,6.047H17.345V30.515H15.677v1.668h-2.5V27.521l1.076-1.076,4.762,1.36ZM9.838,18.838a2.5,2.5,0,1,1,5,0v1.668a2.5,2.5,0,0,1-5,0Z" transform="translate(-2.332 -3.845)"/>
        <path id="Trazado_1056222" data-name="Trazado 1056222" d="M43.7,40H2.834A.834.834,0,0,0,2,40.834V44.17A.834.834,0,0,0,2.834,45h.834v6.672H2.834A.834.834,0,0,0,2,52.511v3.336a.834.834,0,0,0,.834.834H32.026v.834a.834.834,0,0,0,1.209.742L36.2,56.781l2.961,1.476a.83.83,0,0,0,1.209-.742v-.834H43.7A8.341,8.341,0,0,0,43.7,40ZM3.668,55.013V53.345H32.026v1.668ZM38.7,56.164,36.571,55.1a.834.834,0,0,0-.751,0l-2.127,1.059V49.175h5ZM32.86,47.506H12.009v1.668H32.026v2.5H5.336v-2.5H7V47.506H5.336V45H43.7a3.336,3.336,0,0,1,0,6.672H40.366v-2.5H43.7V47.506ZM43.7,55.013H40.366V53.345H43.7a5,5,0,1,0,0-10.009H3.668V41.668H43.7a6.672,6.672,0,0,1,0,13.345Z" transform="translate(-2 -8.326)"/>
        <path id="Trazado_1056223" data-name="Trazado 1056223" d="M4.506,12.013A2.5,2.5,0,0,0,5.34,7.158V6.174a.834.834,0,0,1,.834-.834H9.66a2.5,2.5,0,0,0,4.7,0H24.673a2.5,2.5,0,0,0,4.7,0H39.686a2.5,2.5,0,0,0,4.7,0h3.486a.834.834,0,0,1,.834.834V7.992a2.5,2.5,0,1,0,1.668,0V6.174a2.5,2.5,0,0,0-2.5-2.5H44.39a2.5,2.5,0,0,0-4.7,0H29.377a2.5,2.5,0,0,0-4.7,0H14.364a2.5,2.5,0,0,0-4.7,0H6.174a2.5,2.5,0,0,0-2.5,2.5v.984a2.5,2.5,0,0,0,.834,4.854Zm45.039-.834a.834.834,0,1,1,.834-.834A.834.834,0,0,1,49.545,11.178ZM42.038,3.672a.834.834,0,1,1-.834.834A.834.834,0,0,1,42.038,3.672Zm-15.013,0a.834.834,0,1,1-.834.834A.834.834,0,0,1,27.025,3.672Zm-15.013,0a.834.834,0,1,1-.834.834A.834.834,0,0,1,12.012,3.672Zm-7.506,5a.834.834,0,1,1-.834.834A.834.834,0,0,1,4.506,8.676Z" transform="translate(-2.004 -2.024)"/>
        <path id="Trazado_1056224" data-name="Trazado 1056224" d="M10,49h1.668v1.668H10Z" transform="translate(-3.328 -9.819)"/>
      </g>
    </g>
  </g>
</svg>
