<svg xmlns="http://www.w3.org/2000/svg" xmlns:xlink="http://www.w3.org/1999/xlink" width="98" height="98" viewBox="0 0 98 98">
  <defs>
    <filter id="Trazado_982547" x="0" y="0" width="98" height="98" filterUnits="userSpaceOnUse">
      <feOffset dy="3" input="SourceAlpha"/>
      <feGaussianBlur stdDeviation="3" result="blur"/>
      <feFlood flood-opacity="0.161"/>
      <feComposite operator="in" in2="blur"/>
      <feComposite in="SourceGraphic"/>
    </filter>
    <clipPath id="clip-path">
      <path id="path8121" d="M0-682.665H48.414v48.414H0Z" transform="translate(0 682.665)"/>
    </clipPath>
  </defs>
  <g id="Grupo_1224552" data-name="Grupo 1224552" transform="translate(-196 -1365.893)">
    <g id="Grupo_1209302" data-name="Grupo 1209302" transform="translate(0 -5234.751)">
      <g id="Grupo_1208715" data-name="Grupo 1208715" transform="translate(5 4679.811)">
        <g id="Grupo_1208171" data-name="Grupo 1208171" transform="translate(0 -2047.18)">
          <g id="Grupo_1207739" data-name="Grupo 1207739" transform="translate(0 1882.462)">
            <g id="Grupo_1207712" data-name="Grupo 1207712">
              <g id="Grupo_1207285" data-name="Grupo 1207285" transform="translate(0 344.552)">
                <g id="Grupo_1206883" data-name="Grupo 1206883" transform="translate(0 -209)">
                  <g id="Grupo_1204569" data-name="Grupo 1204569" transform="translate(-81 -1890.336)">
                    <g id="Grupo_1203962" data-name="Grupo 1203962" transform="translate(281 3846.336)">
                      <g id="Grupo_1203498" data-name="Grupo 1203498" transform="translate(0)">
                        <g id="Grupo_1202589" data-name="Grupo 1202589">
                          <g id="Grupo_1172010" data-name="Grupo 1172010">
                            <g id="Grupo_1171046" data-name="Grupo 1171046">
                              <g id="Grupo_1148525" data-name="Grupo 1148525">
                                <g transform="matrix(1, 0, 0, 1, -9, -6)" filter="url(#Trazado_982547)">
                                  <g id="Trazado_982547-2" data-name="Trazado 982547" transform="translate(9 6)" fill="#fdfbec">
                                    <path d="M 39.99999237060547 78.49998474121094 C 34.8018684387207 78.49998474121094 29.76002502441406 77.48226165771484 25.0145263671875 75.47508239746094 C 20.43014717102051 73.53604888916016 16.31264877319336 70.75984954833984 12.77639198303223 67.22359466552734 C 9.240137100219727 63.68733596801758 6.463936805725098 59.5698356628418 4.524903297424316 54.98546981811523 C 2.517725706100464 50.23995971679688 1.500003457069397 45.19811630249023 1.500003457069397 39.99999237060547 C 1.500003457069397 34.8018684387207 2.517725706100464 29.76002502441406 4.524903297424316 25.0145263671875 C 6.463936805725098 20.43014717102051 9.240137100219727 16.31264877319336 12.77639198303223 12.77639198303223 C 16.31264877319336 9.240137100219727 20.43014717102051 6.463936805725098 25.0145263671875 4.524903297424316 C 29.76002502441406 2.517725706100464 34.8018684387207 1.500003457069397 39.99999237060547 1.500003457069397 C 45.19811630249023 1.500003457069397 50.23995971679688 2.517725706100464 54.98546981811523 4.524903297424316 C 59.5698356628418 6.463936805725098 63.68733596801758 9.240137100219727 67.22359466552734 12.77639198303223 C 70.75984954833984 16.31264877319336 73.53604888916016 20.43014717102051 75.47508239746094 25.0145263671875 C 77.48226165771484 29.76002502441406 78.49998474121094 34.8018684387207 78.49998474121094 39.99999237060547 C 78.49998474121094 45.19812393188477 77.48226165771484 50.23995971679688 75.47508239746094 54.98546981811523 C 73.53604888916016 59.5698356628418 70.75984954833984 63.68733596801758 67.22359466552734 67.22359466552734 C 63.68733596801758 70.75984954833984 59.5698356628418 73.53604888916016 54.98546981811523 75.47508239746094 C 50.23995971679688 77.48226165771484 45.19812393188477 78.49998474121094 39.99999237060547 78.49998474121094 Z" stroke="none"/>
                                    <path d="M 39.99999237060547 2.999992370605469 C 35.00370025634766 2.999992370605469 30.1584587097168 3.97784423828125 25.59884643554688 5.906402587890625 C 21.19327163696289 7.769805908203125 17.23603057861328 10.43805694580078 13.83704376220703 13.83704376220703 C 10.43805694580078 17.23603057861328 7.769805908203125 21.19327163696289 5.906402587890625 25.59884643554688 C 3.97784423828125 30.1584587097168 2.999992370605469 35.00370025634766 2.999992370605469 39.99999237060547 C 2.999992370605469 44.99628448486328 3.97784423828125 49.84152603149414 5.906402587890625 54.40113830566406 C 7.769805908203125 58.80671310424805 10.43805694580078 62.76395416259766 13.83704376220703 66.16294097900391 C 17.23603057861328 69.56191253662109 21.19327163696289 72.23016357421875 25.59884643554688 74.09356689453125 C 30.1584587097168 76.02212524414062 35.00370025634766 76.99997711181641 39.99999237060547 76.99997711181641 C 44.99628448486328 76.99997711181641 49.84152603149414 76.02212524414062 54.40113830566406 74.09356689453125 C 58.80671310424805 72.23016357421875 62.76395416259766 69.56191253662109 66.16294097900391 66.16294097900391 C 69.56191253662109 62.76395416259766 72.23016357421875 58.80671310424805 74.09356689453125 54.40113830566406 C 76.02212524414062 49.84152603149414 76.99997711181641 44.99628448486328 76.99997711181641 39.99999237060547 C 76.99997711181641 35.00370025634766 76.02212524414062 30.1584587097168 74.09356689453125 25.59884643554688 C 72.23016357421875 21.19327163696289 69.56191253662109 17.23603057861328 66.16294097900391 13.83704376220703 C 62.76395416259766 10.43805694580078 58.80671310424805 7.769805908203125 54.40113830566406 5.906402587890625 C 49.84152603149414 3.97784423828125 44.99628448486328 2.999992370605469 39.99999237060547 2.999992370605469 M 39.99999237060547 -7.62939453125e-06 C 62.09137725830078 -7.62939453125e-06 79.99997711181641 17.90860748291016 79.99997711181641 39.99999237060547 C 79.99997711181641 62.09137725830078 62.09137725830078 79.99997711181641 39.99999237060547 79.99997711181641 C 17.90860748291016 79.99997711181641 -7.62939453125e-06 62.09137725830078 -7.62939453125e-06 39.99999237060547 C -7.62939453125e-06 17.90860748291016 17.90860748291016 -7.62939453125e-06 39.99999237060547 -7.62939453125e-06 Z" stroke="none" fill="#83793c"/>
                                  </g>
                                </g>
                              </g>
                            </g>
                          </g>
                        </g>
                      </g>
                    </g>
                  </g>
                </g>
              </g>
              <g id="g8115" transform="translate(215.793 2790.01)">
                <g id="g8117" transform="translate(0 -682.665)">
                  <g id="g8119" clip-path="url(#clip-path)">
                    <g id="g8125" transform="translate(-33.259 0.709)">
                      <path id="path8127" d="M-338.457-377.826h-25.835v-25.108c5.31-7.679,37.755-5.416,25.835,25.108" transform="translate(364.292 406.667)" fill="#fbdf63"/>
                    </g>
                    <g id="g8129" transform="translate(-33.259 0.709)">
                      <path id="path8131" d="M-338.457-377.826h-.619c6.164-24.728-15.887-30.6-25.216-24.374v-.734c5.31-7.679,37.755-5.416,25.835,25.108" transform="translate(364.292 406.667)" fill="#f9d11f"/>
                    </g>
                  </g>
                </g>
                <g id="g8265" transform="translate(0 -682.665)">
                  <g id="g8267" clip-path="url(#clip-path)">
                    <g id="g8273" transform="translate(-33.259 51.036)">
                      <path id="path8275" d="M-338.457-377.654h-25.835v-25.1c5.31-7.676,37.755-5.413,25.835,25.1" transform="translate(364.292 406.481)" fill="#003343"/>
                    </g>
                    <g id="g8277" transform="translate(-33.259 51.036)">
                      <path id="path8279" d="M-338.457-377.654h-.619c6.164-24.717-15.887-30.585-25.216-24.362v-.734c5.31-7.676,37.755-5.413,25.835,25.1" transform="translate(364.292 406.481)" fill="#002439"/>
                    </g>
                  </g>
                </g>
                <g id="g8281" transform="translate(0 -682.665)">
                  <g id="g8283" clip-path="url(#clip-path)">
                    <g id="g8289" transform="translate(17.066 51.014)">
                      <path id="path8291" d="M-338.457-377.826h-25.835v-25.108c5.31-7.679,37.755-5.416,25.835,25.108" transform="translate(364.292 406.667)" fill="#ff7e50"/>
                    </g>
                    <g id="g8293" transform="translate(17.066 51.014)">
                      <path id="path8295" d="M-338.457-377.826h-.619c6.164-24.728-15.887-30.6-25.216-24.374v-.734c5.31-7.679,37.755-5.416,25.835,25.108" transform="translate(364.292 406.667)" fill="#ff6247"/>
                    </g>
                    <g id="g8297" transform="translate(2.941 54.225)">
                      <path id="path8299" d="M-233.028-131.751v15.573h-14.6c-12.2-25.649,14.6-34.273,14.6-15.573" transform="translate(250.816 141.808)" fill="#ffa68a"/>
                    </g>
                    <g id="g8301" transform="translate(2.941 54.225)">
                      <path id="path8303" d="M-233.028-131.751c-.9-16.1-20.23-9.82-14.176,15.573h-.427c-12.2-25.649,14.6-34.273,14.6-15.573" transform="translate(250.816 141.808)" fill="#ff7e50"/>
                    </g>
                  </g>
                </g>
              </g>
            </g>
          </g>
        </g>
      </g>
    </g>
    <g id="project_17931487" transform="translate(214.831 1336.951)">
      <g id="Grupo_1224551" data-name="Grupo 1224551" transform="translate(1.023 51.853)">
        <g id="Grupo_1224536" data-name="Grupo 1224536" transform="translate(7.672 6.241)">
          <path id="Trazado_1056225" data-name="Trazado 1056225" d="M71.065,110.912h40.488V142.9H71.065Z" transform="translate(-71.065 -110.912)" fill="#e8f0fe" fill-rule="evenodd"/>
        </g>
        <g id="Grupo_1224537" data-name="Grupo 1224537" transform="translate(7.672 6.241)">
          <path id="Trazado_1056226" data-name="Trazado 1056226" d="M71.065,110.912h40.488v1.437H71.065Z" transform="translate(-71.065 -110.912)" fill="#cce4ff" fill-rule="evenodd"/>
        </g>
        <g id="Grupo_1224538" data-name="Grupo 1224538" transform="translate(5.243 3.155)">
          <path id="Trazado_1056227" data-name="Trazado 1056227" d="M50.148,84.337H95.494v3.086H50.148Z" transform="translate(-50.148 -84.337)" fill="#fe646f" fill-rule="evenodd"/>
        </g>
        <g id="Grupo_1224539" data-name="Grupo 1224539" transform="translate(26.114 42.612)">
          <path id="Trazado_1056228" data-name="Trazado 1056228" d="M231.685,427.726a1.8,1.8,0,1,0-1.8-1.8A1.805,1.805,0,0,0,231.685,427.726Z" transform="translate(-229.883 -424.122)" fill="#26a6fe" fill-rule="evenodd"/>
        </g>
        <g id="Grupo_1224540" data-name="Grupo 1224540" transform="translate(30.57 27.368)">
          <path id="Trazado_1056229" data-name="Trazado 1056229" d="M295.351,299.529H272.87l-4.612-3.341,4.612-3.341h22.481c.345,0,.63.468.63,1.042v4.6C295.982,299.061,295.7,299.529,295.351,299.529Z" transform="translate(-268.258 -292.846)" fill="#ffd54f" fill-rule="evenodd"/>
        </g>
        <g id="Grupo_1224541" data-name="Grupo 1224541" transform="translate(0 25.042)">
          <path id="Trazado_1056230" data-name="Trazado 1056230" d="M14.351,291.516A9.351,9.351,0,1,0,5,282.166,9.369,9.369,0,0,0,14.351,291.516Z" transform="translate(-5 -272.815)" fill="#26a6fe" fill-rule="evenodd"/>
        </g>
        <g id="Grupo_1224542" data-name="Grupo 1224542" transform="translate(2.439 27.478)">
          <path id="Trazado_1056231" data-name="Trazado 1056231" d="M32.914,307.617A6.913,6.913,0,1,0,26,300.705a6.926,6.926,0,0,0,6.912,6.912Z" transform="translate(-26.002 -293.79)" fill="#e8f0fe" fill-rule="evenodd"/>
        </g>
        <g id="Grupo_1224543" data-name="Grupo 1224543" transform="translate(11.471 0)">
          <path id="Trazado_1056232" data-name="Trazado 1056232" d="M116.983,74.024V77.3h-8.342V74.16a1.79,1.79,0,0,0-.883-1.556,8.312,8.312,0,0,1-3.975-7.015,8.937,8.937,0,0,1,17.845,0,8.29,8.29,0,0,1-3.8,6.9,1.788,1.788,0,0,0-.843,1.533Z" transform="translate(-103.783 -57.164)" fill="#ffd54f" fill-rule="evenodd"/>
        </g>
        <g id="Grupo_1224544" data-name="Grupo 1224544" transform="translate(16.329 20.131)">
          <path id="Trazado_1056233" data-name="Trazado 1056233" d="M145.615,230.526h8.342v2.044a2.052,2.052,0,0,1-2.047,2.044h-4.247a2.052,2.052,0,0,1-2.047-2.044v-2.044Z" transform="translate(-145.615 -230.526)" fill="#b1beeb" fill-rule="evenodd"/>
        </g>
        <g id="Grupo_1224545" data-name="Grupo 1224545" transform="translate(23.118 0.508)">
          <path id="Trazado_1056234" data-name="Trazado 1056234" d="M205.633,77.887v3.272H204.08V77.718a1.85,1.85,0,0,1,.873-1.583,8.452,8.452,0,0,0-.544-14.6,8.465,8.465,0,0,1,5.87,7.917,8.29,8.29,0,0,1-3.8,6.9A1.789,1.789,0,0,0,205.633,77.887Z" transform="translate(-204.08 -61.535)" fill="#ffc328" fill-rule="evenodd"/>
        </g>
        <g id="Grupo_1224546" data-name="Grupo 1224546" transform="translate(22.268 20.131)">
          <path id="Trazado_1056235" data-name="Trazado 1056235" d="M197.614,230.526h1.553v2.044a2.052,2.052,0,0,1-2.047,2.044h-.355a2.426,2.426,0,0,0,.849-1.845v-2.243Z" transform="translate(-196.764 -230.526)" fill="#99a8e5" fill-rule="evenodd"/>
        </g>
        <g id="Grupo_1224547" data-name="Grupo 1224547" transform="translate(30.57 27.368)">
          <path id="Trazado_1056236" data-name="Trazado 1056236" d="M272.87,292.847l-4.612,3.341,4.612,3.341v-6.683Z" transform="translate(-268.258 -292.847)" fill="#365e7d" fill-rule="evenodd"/>
        </g>
        <g id="Grupo_1224548" data-name="Grupo 1224548" transform="translate(55.118 27.368)">
          <path id="Trazado_1056237" data-name="Trazado 1056237" d="M479.654,292.847v6.683H482.2c.345,0,.63-.468.63-1.039v-4.6c0-.574-.285-1.042-.63-1.042Z" transform="translate(-479.654 -292.847)" fill="#fe646f" fill-rule="evenodd"/>
        </g>
        <g id="Grupo_1224549" data-name="Grupo 1224549" transform="translate(8.893 25.039)">
          <path id="Trazado_1056238" data-name="Trazado 1056238" d="M82.038,272.787a9.352,9.352,0,0,1,0,18.7c-.153,0-.305,0-.458-.013a9.35,9.35,0,0,0,0-18.678C81.733,272.794,81.885,272.787,82.038,272.787Z" transform="translate(-81.58 -272.787)" fill="#0593fc" fill-rule="evenodd"/>
        </g>
        <g id="Grupo_1224550" data-name="Grupo 1224550" transform="translate(8.966 27.478)">
          <path id="Trazado_1056239" data-name="Trazado 1056239" d="M82.593,293.79a6.913,6.913,0,0,1,0,13.827c-.129,0-.259,0-.385-.01a6.913,6.913,0,0,0,0-13.8c.126-.007.256-.013.385-.013Z" transform="translate(-82.208 -293.79)" fill="#cce4ff" fill-rule="evenodd"/>
        </g>
      </g>
      <path id="Trazado_1056240" data-name="Trazado 1056240" d="M33.405,63.593a.811.811,0,0,1,.811-.811h9.665a.811.811,0,1,1,0,1.623H34.217A.811.811,0,0,1,33.405,63.593Zm.811,3.607h9.665a.811.811,0,1,0,0-1.623H34.217a.811.811,0,1,0,0,1.623Zm0,2.8h9.665a.811.811,0,1,0,0-1.623H34.217a.811.811,0,1,0,0,1.623Zm0,2.8h9.665a.811.811,0,1,0,0-1.623H34.217a.811.811,0,1,0,0,1.623Zm25.622,7.3v4.557c0,1.049-.617,1.84-1.436,1.84h-8.6v3.325a.811.811,0,0,1-.811.811H29.762v3.041a2.6,2.6,0,1,1-1.623,0V90.628H19.52A10.069,10.069,0,1,1,8.1,76.256v-17.3H6.5a.812.812,0,0,1-.811-.811V55.091a.811.811,0,0,1,.811-.811h7.754a9.968,9.968,0,0,1,14.495,0H51.4a.812.812,0,0,1,.811.811v3.055a.811.811,0,0,1-.811.811H49.806v19.3h8.6c.818,0,1.436.791,1.436,1.84ZM29.926,96.134a.974.974,0,1,0-.976.972A.975.975,0,0,0,29.926,96.134ZM55.075,84.869V83.325H36.957v1.544ZM35.334,84.09V80.656l-2.371,1.716Zm19.741-4.212H36.957V81.7H55.075ZM29.955,55.9a8.883,8.883,0,0,1,.669,1.432H50.588V55.9ZM13.483,60.308a7.418,7.418,0,0,0,3.557,6.259,2.6,2.6,0,0,1,1.253,2.227v2.293h1.291V64.3H18.543a2.663,2.663,0,1,1,2.664-2.661v9.445H21.8V61.642A2.664,2.664,0,1,1,24.466,64.3H23.425v6.784h1.5V68.659a2.605,2.605,0,0,1,1.2-2.194,7.419,7.419,0,0,0,3.4-6.158,7.8,7.8,0,0,0-8.023-7.53,7.8,7.8,0,0,0-8.019,7.53Zm4.81,13.614a1.214,1.214,0,0,0,1.212,1.212h4.209a1.214,1.214,0,0,0,1.212-1.212V72.71H18.293v1.212Zm1.291-12.28a1.041,1.041,0,1,0-1.042,1.038h1.042Zm4.882,1.038a1.04,1.04,0,1,0-1.041-1.038V62.68ZM7.314,57.335h5.072a8.882,8.882,0,0,1,.668-1.432H7.314Zm11.7,28.684a8.447,8.447,0,1,0-8.446,8.446A8.456,8.456,0,0,0,19.016,86.019Zm29.167.473H36.145a.817.817,0,0,1-.115-.009l-.022,0a.8.8,0,0,1-.112-.027l0,0a.817.817,0,0,1-.1-.043l-.014-.007a.816.816,0,0,1-.1-.059l-.007,0L31.1,83.029a.811.811,0,0,1,0-1.315l4.567-3.3.007,0a.816.816,0,0,1,.1-.059l.014-.007a.791.791,0,0,1,.1-.043l0,0a.8.8,0,0,1,.111-.027l.023,0a.815.815,0,0,1,.115-.009H48.183v-19.3H31.043a8.725,8.725,0,0,1,.106,1.35,9.036,9.036,0,0,1-4.128,7.51.969.969,0,0,0-.471.841v5.263a2.838,2.838,0,0,1-2.835,2.835H19.505a2.838,2.838,0,0,1-2.835-2.835V68.794a.97.97,0,0,0-.5-.855,9.031,9.031,0,0,1-4.314-7.631,8.726,8.726,0,0,1,.106-1.35H9.722V75.985c.28-.023.562-.036.848-.036a10.072,10.072,0,0,1,9.617,13.056h28V86.492Zm10.033-6.4a.776.776,0,0,0-.029-.217H56.7v4.99h1.489a.777.777,0,0,0,.029-.217ZM18.224,86.019a7.655,7.655,0,1,1-7.655-7.655A7.663,7.663,0,0,1,18.224,86.019Zm-1.623,0a6.032,6.032,0,1,0-6.032,6.032A6.039,6.039,0,0,0,16.6,86.019ZM11.379,85.7l-.031-4.2a.812.812,0,0,0-.811-.806h-.006a.811.811,0,0,0-.806.817l.033,4.514a.811.811,0,0,0,.214.543l1.6,1.741a.811.811,0,0,0,1.2-1.1Z"/>
    </g>
  </g>
</svg>
