<svg xmlns="http://www.w3.org/2000/svg" xmlns:xlink="http://www.w3.org/1999/xlink" width="98" height="98" viewBox="0 0 98 98">
  <defs>
    <filter id="Trazado_982547" x="0" y="0" width="98" height="98" filterUnits="userSpaceOnUse">
      <feOffset dy="3" input="SourceAlpha"/>
      <feGaussianBlur stdDeviation="3" result="blur"/>
      <feFlood flood-opacity="0.161"/>
      <feComposite operator="in" in2="blur"/>
      <feComposite in="SourceGraphic"/>
    </filter>
    <clipPath id="clip-path">
      <path id="path8121" d="M0-682.665H48.414v48.414H0Z" transform="translate(0 682.665)"/>
    </clipPath>
  </defs>
  <g id="Grupo_1224555" data-name="Grupo 1224555" transform="translate(-616 -1365.893)">
    <g id="Grupo_1209301" data-name="Grupo 1209301" transform="translate(420 -5234.751)">
      <g id="Grupo_1208715" data-name="Grupo 1208715" transform="translate(5 4679.811)">
        <g id="Grupo_1208171" data-name="Grupo 1208171" transform="translate(0 -2047.18)">
          <g id="Grupo_1207739" data-name="Grupo 1207739" transform="translate(0 1882.462)">
            <g id="Grupo_1207712" data-name="Grupo 1207712">
              <g id="Grupo_1207285" data-name="Grupo 1207285" transform="translate(0 344.552)">
                <g id="Grupo_1206883" data-name="Grupo 1206883" transform="translate(0 -209)">
                  <g id="Grupo_1204569" data-name="Grupo 1204569" transform="translate(-81 -1890.336)">
                    <g id="Grupo_1203962" data-name="Grupo 1203962" transform="translate(281 3846.336)">
                      <g id="Grupo_1203498" data-name="Grupo 1203498" transform="translate(0)">
                        <g id="Grupo_1202589" data-name="Grupo 1202589">
                          <g id="Grupo_1172010" data-name="Grupo 1172010">
                            <g id="Grupo_1171046" data-name="Grupo 1171046">
                              <g id="Grupo_1148525" data-name="Grupo 1148525">
                                <g transform="matrix(1, 0, 0, 1, -9, -6)" filter="url(#Trazado_982547)">
                                  <g id="Trazado_982547-2" data-name="Trazado 982547" transform="translate(9 6)" fill="#fdfbec">
                                    <path d="M 39.99999237060547 78.49998474121094 C 34.8018684387207 78.49998474121094 29.76002502441406 77.48226165771484 25.0145263671875 75.47508239746094 C 20.43014717102051 73.53604888916016 16.31264877319336 70.75984954833984 12.77639198303223 67.22359466552734 C 9.240137100219727 63.68733596801758 6.463936805725098 59.5698356628418 4.524903297424316 54.98546981811523 C 2.517725706100464 50.23995971679688 1.500003457069397 45.19811630249023 1.500003457069397 39.99999237060547 C 1.500003457069397 34.8018684387207 2.517725706100464 29.76002502441406 4.524903297424316 25.0145263671875 C 6.463936805725098 20.43014717102051 9.240137100219727 16.31264877319336 12.77639198303223 12.77639198303223 C 16.31264877319336 9.240137100219727 20.43014717102051 6.463936805725098 25.0145263671875 4.524903297424316 C 29.76002502441406 2.517725706100464 34.8018684387207 1.500003457069397 39.99999237060547 1.500003457069397 C 45.19811630249023 1.500003457069397 50.23995971679688 2.517725706100464 54.98546981811523 4.524903297424316 C 59.5698356628418 6.463936805725098 63.68733596801758 9.240137100219727 67.22359466552734 12.77639198303223 C 70.75984954833984 16.31264877319336 73.53604888916016 20.43014717102051 75.47508239746094 25.0145263671875 C 77.48226165771484 29.76002502441406 78.49998474121094 34.8018684387207 78.49998474121094 39.99999237060547 C 78.49998474121094 45.19812393188477 77.48226165771484 50.23995971679688 75.47508239746094 54.98546981811523 C 73.53604888916016 59.5698356628418 70.75984954833984 63.68733596801758 67.22359466552734 67.22359466552734 C 63.68733596801758 70.75984954833984 59.5698356628418 73.53604888916016 54.98546981811523 75.47508239746094 C 50.23995971679688 77.48226165771484 45.19812393188477 78.49998474121094 39.99999237060547 78.49998474121094 Z" stroke="none"/>
                                    <path d="M 39.99999237060547 2.999992370605469 C 35.00370025634766 2.999992370605469 30.1584587097168 3.97784423828125 25.59884643554688 5.906402587890625 C 21.19327163696289 7.769805908203125 17.23603057861328 10.43805694580078 13.83704376220703 13.83704376220703 C 10.43805694580078 17.23603057861328 7.769805908203125 21.19327163696289 5.906402587890625 25.59884643554688 C 3.97784423828125 30.1584587097168 2.999992370605469 35.00370025634766 2.999992370605469 39.99999237060547 C 2.999992370605469 44.99628448486328 3.97784423828125 49.84152603149414 5.906402587890625 54.40113830566406 C 7.769805908203125 58.80671310424805 10.43805694580078 62.76395416259766 13.83704376220703 66.16294097900391 C 17.23603057861328 69.56191253662109 21.19327163696289 72.23016357421875 25.59884643554688 74.09356689453125 C 30.1584587097168 76.02212524414062 35.00370025634766 76.99997711181641 39.99999237060547 76.99997711181641 C 44.99628448486328 76.99997711181641 49.84152603149414 76.02212524414062 54.40113830566406 74.09356689453125 C 58.80671310424805 72.23016357421875 62.76395416259766 69.56191253662109 66.16294097900391 66.16294097900391 C 69.56191253662109 62.76395416259766 72.23016357421875 58.80671310424805 74.09356689453125 54.40113830566406 C 76.02212524414062 49.84152603149414 76.99997711181641 44.99628448486328 76.99997711181641 39.99999237060547 C 76.99997711181641 35.00370025634766 76.02212524414062 30.1584587097168 74.09356689453125 25.59884643554688 C 72.23016357421875 21.19327163696289 69.56191253662109 17.23603057861328 66.16294097900391 13.83704376220703 C 62.76395416259766 10.43805694580078 58.80671310424805 7.769805908203125 54.40113830566406 5.906402587890625 C 49.84152603149414 3.97784423828125 44.99628448486328 2.999992370605469 39.99999237060547 2.999992370605469 M 39.99999237060547 -7.62939453125e-06 C 62.09137725830078 -7.62939453125e-06 79.99997711181641 17.90860748291016 79.99997711181641 39.99999237060547 C 79.99997711181641 62.09137725830078 62.09137725830078 79.99997711181641 39.99999237060547 79.99997711181641 C 17.90860748291016 79.99997711181641 -7.62939453125e-06 62.09137725830078 -7.62939453125e-06 39.99999237060547 C -7.62939453125e-06 17.90860748291016 17.90860748291016 -7.62939453125e-06 39.99999237060547 -7.62939453125e-06 Z" stroke="none" fill="#83793c"/>
                                  </g>
                                </g>
                              </g>
                            </g>
                          </g>
                        </g>
                      </g>
                    </g>
                  </g>
                </g>
              </g>
              <g id="g8115" transform="translate(215.793 2790.01)">
                <g id="g8117" transform="translate(0 -682.665)">
                  <g id="g8119" clip-path="url(#clip-path)">
                    <g id="g8125" transform="translate(-33.259 0.709)">
                      <path id="path8127" d="M-338.457-377.826h-25.835v-25.108c5.31-7.679,37.755-5.416,25.835,25.108" transform="translate(364.292 406.667)" fill="#fbdf63"/>
                    </g>
                    <g id="g8129" transform="translate(-33.259 0.709)">
                      <path id="path8131" d="M-338.457-377.826h-.619c6.164-24.728-15.887-30.6-25.216-24.374v-.734c5.31-7.679,37.755-5.416,25.835,25.108" transform="translate(364.292 406.667)" fill="#f9d11f"/>
                    </g>
                  </g>
                </g>
                <g id="g8265" transform="translate(0 -682.665)">
                  <g id="g8267" clip-path="url(#clip-path)">
                    <g id="g8273" transform="translate(-33.259 51.036)">
                      <path id="path8275" d="M-338.457-377.654h-25.835v-25.1c5.31-7.676,37.755-5.413,25.835,25.1" transform="translate(364.292 406.481)" fill="#003343"/>
                    </g>
                    <g id="g8277" transform="translate(-33.259 51.036)">
                      <path id="path8279" d="M-338.457-377.654h-.619c6.164-24.717-15.887-30.585-25.216-24.362v-.734c5.31-7.676,37.755-5.413,25.835,25.1" transform="translate(364.292 406.481)" fill="#002439"/>
                    </g>
                  </g>
                </g>
                <g id="g8281" transform="translate(0 -682.665)">
                  <g id="g8283" clip-path="url(#clip-path)">
                    <g id="g8289" transform="translate(17.066 51.014)">
                      <path id="path8291" d="M-338.457-377.826h-25.835v-25.108c5.31-7.679,37.755-5.416,25.835,25.108" transform="translate(364.292 406.667)" fill="#ff7e50"/>
                    </g>
                    <g id="g8293" transform="translate(17.066 51.014)">
                      <path id="path8295" d="M-338.457-377.826h-.619c6.164-24.728-15.887-30.6-25.216-24.374v-.734c5.31-7.679,37.755-5.416,25.835,25.108" transform="translate(364.292 406.667)" fill="#ff6247"/>
                    </g>
                    <g id="g8297" transform="translate(2.941 54.225)">
                      <path id="path8299" d="M-233.028-131.751v15.573h-14.6c-12.2-25.649,14.6-34.273,14.6-15.573" transform="translate(250.816 141.808)" fill="#ffa68a"/>
                    </g>
                    <g id="g8301" transform="translate(2.941 54.225)">
                      <path id="path8303" d="M-233.028-131.751c-.9-16.1-20.23-9.82-14.176,15.573h-.427c-12.2-25.649,14.6-34.273,14.6-15.573" transform="translate(250.816 141.808)" fill="#ff7e50"/>
                    </g>
                  </g>
                </g>
              </g>
            </g>
          </g>
        </g>
      </g>
    </g>
    <g id="analysis_4930486_2_" data-name="analysis_4930486 (2)" transform="translate(604.637 1386.255)">
      <g id="Grupo_1224553" data-name="Grupo 1224553" transform="translate(40.252 0.722)">
        <path id="Trazado_1056241" data-name="Trazado 1056241" d="M79.513,82.032H47.8a.77.77,0,0,1-.77-.77V37.813a.77.77,0,0,1,.77-.77H79.513a.77.77,0,0,1,.77.77V81.262A.77.77,0,0,1,79.513,82.032Z" transform="translate(-47.029 -34.2)" fill="#918291"/>
        <path id="Trazado_1056242" data-name="Trazado 1056242" d="M77.03,106.065V67.235a.192.192,0,0,1,.192-.192h27.094a.192.192,0,0,1,.192.192v38.83a.192.192,0,0,1-.192.192H77.222A.192.192,0,0,1,77.03,106.065Z" transform="translate(-74.143 -61.312)" fill="#eaf6ff"/>
        <path id="Trazado_1056243" data-name="Trazado 1056243" d="M79.627,106.261H77.22a.192.192,0,0,1-.192-.192V67.239a.192.192,0,0,1,.192-.192h2.406a.192.192,0,0,0-.192.192v38.829A.192.192,0,0,0,79.627,106.261Z" transform="translate(-74.141 -61.316)" fill="#d8ecfe"/>
        <path id="Trazado_1056244" data-name="Trazado 1056244" d="M0,0H3.067V4.806H0Z" transform="translate(23.206 34.311) rotate(-69.156)" fill="#918291"/>
        <path id="Trazado_1056245" data-name="Trazado 1056245" d="M160.352,9.071l-.576-1.45A.192.192,0,0,0,159.6,7.5h-6.221a.192.192,0,0,0-.179.121l-.576,1.45a.192.192,0,0,1-.179.121h-2.312a.385.385,0,0,0-.385.385V14a.385.385,0,0,0,.385.385h12.712a.385.385,0,0,0,.385-.385V9.578a.385.385,0,0,0-.385-.385h-2.312A.192.192,0,0,1,160.352,9.071Z" transform="translate(-139.86 -7.5)" fill="#fff0ad"/>
        <path id="Trazado_1056246" data-name="Trazado 1056246" d="M152.539,30.284h-2.406a.385.385,0,0,1-.385-.385V25.472a.385.385,0,0,1,.385-.385h2.13a.393.393,0,0,0-.109.273v4.53A.389.389,0,0,0,152.539,30.284Z" transform="translate(-139.862 -23.394)" fill="#ffe177"/>
        <circle id="Elipse_13547" data-name="Elipse 13547" cx="9.459" cy="9.459" r="9.459" transform="translate(6.635 20.509)" fill="#fff0ad"/>
        <path id="Trazado_1056247" data-name="Trazado 1056247" d="M126.466,239.438a9.461,9.461,0,1,1,0-18.8,9.462,9.462,0,0,0,0,18.8Z" transform="translate(-109.312 -200.069)" fill="#ffe177"/>
        <circle id="Elipse_13548" data-name="Elipse 13548" cx="5.98" cy="5.98" r="5.98" transform="translate(10.114 23.988)" fill="#99e6fc"/>
        <path id="Trazado_1056248" data-name="Trazado 1056248" d="M158.364,268.3a5.916,5.916,0,0,0,.923.27,5.981,5.981,0,1,1,0-11.718,5.981,5.981,0,0,0-.923,11.448Z" transform="translate(-141.989 -232.744)" fill="#62dbfb"/>
        <path id="Trazado_1056249" data-name="Trazado 1056249" d="M338.381,348.283l-1.051,2.762a.77.77,0,0,1-.993.447L325.2,347.257a.384.384,0,0,1-.222-.5l1.324-3.482a.385.385,0,0,1,.5-.223l11.132,4.235A.77.77,0,0,1,338.381,348.283Z" transform="translate(-298.207 -310.737)" fill="#fff0ad"/>
        <path id="Trazado_1056250" data-name="Trazado 1056250" d="M184.981,148.24l-2.761,7.315a.193.193,0,0,1-.329.054l-.956-1.166a.192.192,0,0,0-.27-.027L161.6,170.032l-.043-.015a5.958,5.958,0,0,1-3.26-2.99L177.864,151a.193.193,0,0,0,.027-.271l-.956-1.166a.193.193,0,0,1,.118-.312l7.716-1.267A.193.193,0,0,1,184.981,148.24Z" transform="translate(-147.589 -134.459)" fill="#91deb6"/>
        <path id="Trazado_1056251" data-name="Trazado 1056251" d="M162.554,333.48l-.953.781-.043-.015a5.958,5.958,0,0,1-3.26-2.99l1.9-1.558a6.011,6.011,0,0,0,1.581,3.108A5.927,5.927,0,0,0,162.554,333.48Z" transform="translate(-147.589 -298.688)" fill="#6ed5a1"/>
        <path id="Trazado_1056252" data-name="Trazado 1056252" d="M423.889,379.924l-1.051,2.762a.77.77,0,0,1-.993.447l-2.275-.865,1.518-4.212.014-.015,2.341.89A.77.77,0,0,1,423.889,379.924Z" transform="translate(-383.716 -342.378)" fill="#fd8087"/>
      </g>
      <g id="Grupo_1224554" data-name="Grupo 1224554" transform="translate(39.53 0)">
        <path id="Trazado_1056253" data-name="Trazado 1056253" d="M68.067,124.381H41.022a.048.048,0,0,1-.048-.048V85.422a.722.722,0,0,0-1.444,0v38.911a1.493,1.493,0,0,0,1.492,1.492H68.067a.722.722,0,0,0,0-1.444Z" transform="translate(-39.53 -76.548)"/>
        <path id="Trazado_1056254" data-name="Trazado 1056254" d="M80.236,36.6l-6.008-2.285V22.529a.911.911,0,0,0,1.331-.456l2.759-7.313a.914.914,0,0,0-1-1.228l-3.088.507v-9.7a1.493,1.493,0,0,0-1.492-1.492H64.342V2.8a1.108,1.108,0,0,0-1.107-1.107H61.282L60.839.577A.909.909,0,0,0,59.989,0H53.768a.909.909,0,0,0-.85.577l-.443,1.116H50.522A1.108,1.108,0,0,0,49.416,2.8v.044H41.022A1.493,1.493,0,0,0,39.53,4.335v1.17a.722.722,0,1,0,1.444,0V4.335a.049.049,0,0,1,.048-.048h8.394V5.73H43.332a.915.915,0,0,0-.914.914v38.83a.915.915,0,0,0,.914.914H70.426a.915.915,0,0,0,.914-.914v-5.9l1.444.549v7.665a.048.048,0,0,1-.048.048h-1.3a.722.722,0,0,0,0,1.444h1.3a1.493,1.493,0,0,0,1.492-1.492V40.668l3.9,1.482a1.492,1.492,0,0,0,1.925-.864L81.1,38.524A1.494,1.494,0,0,0,80.236,36.6Zm-12.416.087L68.9,33.834l7.856,2.988-1.035,2.872Zm-1.1-1.18-1.181-.449q.173-.365.319-.748c.1-.254.181-.512.256-.771l1.183.45ZM53.24,38.857a8.737,8.737,0,1,1,8.318-15.182L59.916,25.02a6.7,6.7,0,1,0-3.584,12.374,6.812,6.812,0,0,0,.92-.063,6.7,6.7,0,0,0,5.763-7.273l1.806-1.48A8.735,8.735,0,0,1,53.24,38.857ZM52.159,27.509A5.268,5.268,0,0,1,58.721,26l-7.439,6.094A5.253,5.253,0,0,1,52.159,27.509Zm9.418,3.727a5.264,5.264,0,0,1-4.52,4.664,5.294,5.294,0,0,1-1.2.026ZM69.1,32.365a1.1,1.1,0,0,0-1.221.3l-1.455-.553a10.147,10.147,0,0,0-.388-4.53l3.857-3.16v8.245Zm2.237.851V23.239l1.444-1.183V33.765Zm3.191-12.51-.376-.459a.918.918,0,0,0-1.286-.126L54.139,35.463a5.3,5.3,0,0,1-.974-.586,5.23,5.23,0,0,1-1.283-1.41l19.1-15.65a.914.914,0,0,0,.127-1.285l-.374-.457,5.906-.97Zm-1.8-16.419a.049.049,0,0,1,.048.048v9.942l-1.444.237V6.645a.915.915,0,0,0-.914-.914H64.342V4.287ZM50.859,3.136h1.975a.909.909,0,0,0,.85-.577l.443-1.116h5.5l.443,1.116a.909.909,0,0,0,.85.577H62.9V6.89H50.859ZM69.9,44.945H43.861V7.174h5.555v.053a1.108,1.108,0,0,0,1.107,1.107H63.235a1.108,1.108,0,0,0,1.107-1.107V7.174H69.9V14.75l-.3.049a.915.915,0,0,0-.56,1.482l.62.757-6.957,5.7a10.189,10.189,0,1,0-3.468,17.71L60.694,42.9a.919.919,0,0,0,.684.44.907.907,0,0,0,.1.005.92.92,0,0,0,.665-.285l1.066-1.125.846,1.046a.914.914,0,0,0,1.245.175l1.1-.785h1.271a.722.722,0,0,0,0-1.444h-1.44a.912.912,0,0,0-.531.17l-.833.594-.917-1.134a.914.914,0,0,0-1.374-.054l-1,1.056-.969-1.626a10.175,10.175,0,0,0,4.216-3.6l1.456.554a1.108,1.108,0,0,0,.712,1.034l2.905,1.1ZM79.75,38.01,78.7,40.773a.048.048,0,0,1-.062.028l-1.563-.594,1.035-2.872,1.613.613a.048.048,0,0,1,.028.062Z" transform="translate(-39.53 0)"/>
        <path id="Trazado_1056255" data-name="Trazado 1056255" d="M115.824,106.685a.722.722,0,1,0,0-1.444h-8.848V103.81h1.12a.912.912,0,0,0,.707-.335l1.978-2.412,1.518,2.41a.722.722,0,0,0,.582.336h.029a.722.722,0,0,0,.578-.29l1.291-1.727.612.946a.722.722,0,0,0,1.212-.785l-.9-1.394.875-1.17a.722.722,0,0,0-1.156-.864l-.555.743-1.3-2a.914.914,0,0,0-1.475-.083L110.935,98.6l-1.029-1.633a.722.722,0,0,0-1.172-.069l-1.757,2.176V97.439a.722.722,0,0,0-1.444,0v8.331a.915.915,0,0,0,.914.914h9.377Zm-3.074-8.024,1.192,1.841-.982,1.313-1.215-1.928Zm-3.528-.071.747,1.186-2.124,2.591h-.869v-1Z" transform="translate(-99.181 -87.33)"/>
        <path id="Trazado_1056256" data-name="Trazado 1056256" d="M232.73,98.987h8.377a.722.722,0,1,0,0-1.444H232.73a.722.722,0,1,0,0,1.444Z" transform="translate(-213.483 -88.155)"/>
        <path id="Trazado_1056257" data-name="Trazado 1056257" d="M232.73,128.987h7.5a.722.722,0,1,0,0-1.444h-7.5a.722.722,0,1,0,0,1.444Z" transform="translate(-213.483 -115.268)"/>
        <path id="Trazado_1056258" data-name="Trazado 1056258" d="M232.73,157.987h6.442a.722.722,0,0,0,0-1.444H232.73a.722.722,0,1,0,0,1.444Z" transform="translate(-213.483 -141.477)"/>
        <path id="Trazado_1056259" data-name="Trazado 1056259" d="M232.73,187.553h4.82a.722.722,0,0,0,0-1.444h-4.82a.722.722,0,1,0,0,1.444Z" transform="translate(-213.483 -168.197)"/>
      </g>
    </g>
  </g>
</svg>
