<svg xmlns="http://www.w3.org/2000/svg" xmlns:xlink="http://www.w3.org/1999/xlink" width="113" height="113" viewBox="0 0 113 113">
  <defs>
    <filter id="Trazado_982547" x="0" y="0" width="113" height="113" filterUnits="userSpaceOnUse">
      <feOffset dy="3" input="SourceAlpha"/>
      <feGaussianBlur stdDeviation="3" result="blur"/>
      <feFlood flood-opacity="0.161"/>
      <feComposite operator="in" in2="blur"/>
      <feComposite in="SourceGraphic"/>
    </filter>
  </defs>
  <g id="Grupo_1225404" data-name="Grupo 1225404" transform="translate(-787 -1378.359)">
    <g id="Grupo_1224607" data-name="Grupo 1224607" transform="translate(-325 -3695.062)">
      <g id="Grupo_1209313" data-name="Grupo 1209313" transform="translate(0 3843.205)">
        <g id="Grupo_1209049" data-name="Grupo 1209049">
          <g id="Grupo_1208493" data-name="Grupo 1208493" transform="translate(0 -4397.209)">
            <g id="Grupo_1202104" data-name="Grupo 1202104" transform="translate(0 -1149.226)">
              <g id="Grupo_1201923" data-name="Grupo 1201923" transform="translate(-4174.49 4856.378)">
                <g id="Grupo_1176928" data-name="Grupo 1176928" transform="translate(5295.49 1926.273)">
                  <g id="Grupo_1172322" data-name="Grupo 1172322" transform="translate(0 0)">
                    <g id="Grupo_1164700" data-name="Grupo 1164700">
                      <g id="Grupo_1160931" data-name="Grupo 1160931">
                        <g id="Grupo_1160749" data-name="Grupo 1160749">
                          <g id="Grupo_1158891" data-name="Grupo 1158891">
                            <g id="Grupo_1157406" data-name="Grupo 1157406">
                              <g id="Grupo_1155793" data-name="Grupo 1155793">
                                <g id="Grupo_1154704" data-name="Grupo 1154704">
                                  <g id="Grupo_1150790" data-name="Grupo 1150790">
                                    <g id="Grupo_1154214" data-name="Grupo 1154214">
                                      <g id="Grupo_1152583" data-name="Grupo 1152583">
                                        <g id="Grupo_1146973" data-name="Grupo 1146973">
                                          <g id="Grupo_1146954" data-name="Grupo 1146954">
                                            <g transform="matrix(1, 0, 0, 1, -9, -6)" filter="url(#Trazado_982547)">
                                              <g id="Trazado_982547-2" data-name="Trazado 982547" transform="translate(9 6)" fill="#fcf8db">
                                                <path d="M 47.5000114440918 93.49987030029297 C 41.28938293457031 93.49987030029297 35.26534652709961 92.28384399414062 29.5951976776123 89.88558959960938 C 24.11773109436035 87.56881713867188 19.19814491271973 84.25183868408203 14.97310447692871 80.02680206298828 C 10.74805164337158 75.80176544189453 7.43107795715332 70.88218688964844 5.114304542541504 65.40472412109375 C 2.716038227081299 59.73458862304688 1.500011444091797 53.71054840087891 1.500011444091797 47.49993515014648 C 1.500011444091797 41.28932189941406 2.716038227081299 35.26528167724609 5.114304542541504 29.59514808654785 C 7.43107795715332 24.1176815032959 10.74805164337158 19.1981086730957 14.97310447692871 14.97306823730469 C 19.19814491271973 10.74802875518799 24.11773109436035 7.431055068969727 29.5951976776123 5.11428165435791 C 35.26534652709961 2.716028451919556 41.28938293457031 1.500001788139343 47.5000114440918 1.500001788139343 C 53.71063995361328 1.500001788139343 59.73467636108398 2.716028451919556 65.40482330322266 5.11428165435791 C 70.88229370117188 7.431055068969727 75.8018798828125 10.74802875518799 80.02691650390625 14.97306823730469 C 84.25196838378906 19.1981086730957 87.56894683837891 24.1176815032959 89.88571929931641 29.59514808654785 C 92.28398132324219 35.26528167724609 93.50001525878906 41.28932189941406 93.50001525878906 47.49993515014648 C 93.50001525878906 53.71054840087891 92.28398132324219 59.73458862304688 89.88571929931641 65.40472412109375 C 87.56894683837891 70.88218688964844 84.25196838378906 75.80176544189453 80.02691650390625 80.02680206298828 C 75.8018798828125 84.25183868408203 70.88229370117188 87.56881713867188 65.40482330322266 89.88558959960938 C 59.73467636108398 92.28384399414062 53.71063995361328 93.49987030029297 47.5000114440918 93.49987030029297 Z" stroke="none"/>
                                                <path d="M 47.5000114440918 3 C 41.49122619628906 3 35.66378021240234 4.1761474609375 30.17951965332031 6.495796203613281 C 24.880859375 8.7369384765625 20.12153625488281 11.94596862792969 16.03376770019531 16.03373718261719 C 11.94598388671875 20.12149047851562 8.736968994140625 24.88081359863281 6.495811462402344 30.17947387695312 C 4.176162719726562 35.66371917724609 3.000007629394531 41.49116516113281 3.000007629394531 47.49993515014648 C 3.000007629394531 53.50870513916016 4.176162719726562 59.33615112304688 6.495811462402344 64.82039642333984 C 8.736968994140625 70.11905670166016 11.94598388671875 74.87837982177734 16.03376770019531 78.96613311767578 C 20.12153625488281 83.05390167236328 24.880859375 86.26293182373047 30.17951965332031 88.50407409667969 C 35.66378021240234 90.82372283935547 41.49122619628906 91.99987030029297 47.5000114440918 91.99987030029297 C 53.50879669189453 91.99987030029297 59.33624267578125 90.82372283935547 64.82050323486328 88.50407409667969 C 70.11916351318359 86.26293182373047 74.87848663330078 83.05390167236328 78.96625518798828 78.96613311767578 C 83.05403900146484 74.87837982177734 86.2630615234375 70.11905670166016 88.50421142578125 64.82039642333984 C 90.82386016845703 59.33615112304688 92.00001525878906 53.50870513916016 92.00001525878906 47.49993515014648 C 92.00001525878906 41.49116516113281 90.82386016845703 35.66371917724609 88.50421142578125 30.17947387695312 C 86.2630615234375 24.88081359863281 83.05403900146484 20.12149047851562 78.96625518798828 16.03373718261719 C 74.87848663330078 11.94596862792969 70.11916351318359 8.7369384765625 64.82050323486328 6.495796203613281 C 59.33624267578125 4.1761474609375 53.50879669189453 3 47.5000114440918 3 M 47.5000114440918 0 C 73.73353576660156 0 95.00001525878906 21.26644134521484 95.00001525878906 47.49993515014648 C 95.00001525878906 73.73342895507812 73.73353576660156 94.99987030029297 47.5000114440918 94.99987030029297 C 21.26648712158203 94.99987030029297 7.62939453125e-06 73.73342895507812 7.62939453125e-06 47.49993515014648 C 7.62939453125e-06 21.26644134521484 21.26648712158203 0 47.5000114440918 0 Z" stroke="none" fill="#83793c"/>
                                              </g>
                                            </g>
                                          </g>
                                        </g>
                                      </g>
                                    </g>
                                  </g>
                                </g>
                              </g>
                            </g>
                          </g>
                        </g>
                      </g>
                    </g>
                  </g>
                </g>
              </g>
            </g>
          </g>
        </g>
      </g>
    </g>
    <g id="Books" transform="translate(811.845 1401.203)">
      <path id="Trazado_1056815" data-name="Trazado 1056815" d="M27,3H57.565V41.207H27Z" transform="translate(-1.121 -0.045)" fill="#ff7956"/>
      <path id="Trazado_1056816" data-name="Trazado 1056816" d="M55,3h3.821V41.207H55Z" transform="translate(-2.376 -0.045)" fill="#ff5023"/>
      <path id="Trazado_1056817" data-name="Trazado 1056817" d="M58.4,49v5.731H5.866a2.866,2.866,0,1,1,0-5.731Z" transform="translate(-0.045 -2.107)" fill="#a78966"/>
      <path id="Trazado_1056818" data-name="Trazado 1056818" d="M58.4,55v5.731H5.866a2.866,2.866,0,1,1,0-5.731Z" transform="translate(-0.045 -2.376)" fill="#c0ab91"/>
      <path id="Trazado_1056819" data-name="Trazado 1056819" d="M58.4,43v5.731H5.866a2.866,2.866,0,1,1,0-5.731Z" transform="translate(-0.045 -1.838)" fill="#c0ab91"/>
      <path id="Trazado_1056820" data-name="Trazado 1056820" d="M57,49h3.821v5.731H57Z" transform="translate(-2.466 -2.107)" fill="#806749"/>
      <path id="Trazado_1056821" data-name="Trazado 1056821" d="M57,55h3.821v5.731H57Z" transform="translate(-2.466 -2.376)" fill="#a78966"/>
      <path id="Trazado_1056822" data-name="Trazado 1056822" d="M57,43h3.821v5.731H57Z" transform="translate(-2.466 -1.838)" fill="#a78966"/>
      <path id="Trazado_1056823" data-name="Trazado 1056823" d="M54.731,47V57.507L51.866,55.6,49,57.507V47Z" transform="translate(-2.107 -2.017)" fill="#9cdd05"/>
      <path id="Trazado_1056824" data-name="Trazado 1056824" d="M54.866,47V57.507L52,55.6V47Z" transform="translate(-2.241 -2.017)" fill="#5eac24"/>
      <path id="Trazado_1056825" data-name="Trazado 1056825" d="M53.565,14.651V41.386H23V23.171A11.428,11.428,0,0,0,23.888,7H45.915Z" transform="translate(-0.941 -0.224)" fill="#fee9ab"/>
      <path id="Trazado_1056826" data-name="Trazado 1056826" d="M51,15.01h3.821V41.745H51Z" transform="translate(-2.197 -0.583)" fill="#ffde55"/>
      <path id="Trazado_1056827" data-name="Trazado 1056827" d="M54.632,14.642H47V7.01Z" transform="translate(-2.017 -0.225)" fill="#ffde55"/>
      <circle id="Elipse_13577" data-name="Elipse 13577" cx="9.5" cy="9.5" r="9.5" transform="translate(27.655 16.655)" fill="#ff7956"/>
      <path id="Trazado_1056828" data-name="Trazado 1056828" d="M48.463,26.552A9.552,9.552,0,0,1,37.01,35.912a9.556,9.556,0,0,0,0-18.721,9.552,9.552,0,0,1,11.453,9.361Z" transform="translate(-1.569 -0.672)" fill="#ff5023"/>
      <path id="Trazado_1056829" data-name="Trazado 1056829" d="M25.922,14.462a11.487,11.487,0,1,1-2.932-7.641A11.487,11.487,0,0,1,25.922,14.462Z" transform="translate(-0.042 -0.045)" fill="#c0ab91"/>
      <circle id="Elipse_13578" data-name="Elipse 13578" cx="7.5" cy="7.5" r="7.5" transform="translate(6.655 6.655)" fill="#bdfdff"/>
      <path id="Trazado_1056830" data-name="Trazado 1056830" d="M18.641,31V42.462a3.821,3.821,0,0,1-7.641,0V31Z" transform="translate(-0.403 -1.3)" fill="#898890"/>
      <path id="Trazado_1056831" data-name="Trazado 1056831" d="M16.821,26.83v3.983H13V26.83A11.319,11.319,0,0,0,16.821,26.83Z" transform="translate(-0.493 -1.113)" fill="#c6c5ca"/>
      <path id="Trazado_1056832" data-name="Trazado 1056832" d="M26.372,14.462A11.451,11.451,0,0,1,13,25.762a11.462,11.462,0,0,0,0-22.6,11.451,11.451,0,0,1,13.372,11.3Z" transform="translate(-0.493 -0.045)" fill="#a78966"/>
      <path id="Trazado_1056833" data-name="Trazado 1056833" d="M22.552,14.641a7.652,7.652,0,0,1-7.641,7.641,7.737,7.737,0,0,1-1.9-.239,7.65,7.65,0,0,0,0-14.805A7.737,7.737,0,0,1,14.911,7a7.652,7.652,0,0,1,7.641,7.641Z" transform="translate(-0.494 -0.224)" fill="#46f8ff"/>
      <path id="Trazado_1056834" data-name="Trazado 1056834" d="M16.91,26.83v3.983H15V26.992a11.462,11.462,0,0,0,1.91-.162Z" transform="translate(-0.583 -1.113)" fill="#898890"/>
      <path id="Trazado_1056835" data-name="Trazado 1056835" d="M18.731,31V42.462A3.815,3.815,0,0,1,13,45.767a3.8,3.8,0,0,0,1.91-3.3V31Z" transform="translate(-0.493 -1.3)" fill="#57565c"/>
      <path id="Trazado_1056836" data-name="Trazado 1056836" d="M58.355,40.207H57.4V2.955A.955.955,0,0,0,56.445,2H25.879a.955.955,0,0,0-.955.955V5.821H23.357a12.407,12.407,0,1,0-11.8,20.667v2.257H10.6a.955.955,0,0,0-.955.955V40.207H5.821a3.8,3.8,0,0,0-2.5,6.686c-.066.057-.139.1-.2.165a3.79,3.79,0,0,0,.2,5.566c-.066.057-.138.1-.2.165a3.821,3.821,0,0,0,2.7,6.521H58.355a.955.955,0,0,0,.955-.955V41.162A.955.955,0,0,0,58.355,40.207Zm-4.776,7.641H57.4v3.821H53.579ZM26.834,3.91H55.49v36.3h-1.91V14.427a.955.955,0,0,0-.28-.675L45.651,6.1a.955.955,0,0,0-.678-.28H26.834Zm19.1,5.181,4.371,4.371H45.938Zm-1.91-1.36v6.686a.955.955,0,0,0,.955.955h6.686V40.207H23.014V23.357a12.352,12.352,0,0,0,1.85-15.626ZM19.193,40.207V29.7a.955.955,0,0,0-.955-.955h-.955V26.488A12.364,12.364,0,0,0,21.1,24.864V40.207ZM3.91,14.417A10.507,10.507,0,1,1,14.417,24.924,10.507,10.507,0,0,1,3.91,14.417Zm9.552,12.369c.316.025.632.049.955.049s.639-.024.955-.049v1.959h-1.91Zm-1.91,3.869h5.731V41.162a2.866,2.866,0,0,1-5.731,0ZM3.91,44.028a1.91,1.91,0,0,1,1.91-1.91H9.737a4.776,4.776,0,0,0,9.361,0H57.4v3.821H53.579v-.955a.955.955,0,0,0-.955-.955H46.893a.955.955,0,0,0-.955.955v.955H5.821A1.91,1.91,0,0,1,3.91,44.028Zm47.759,1.91V53.7l-1.38-.92a.955.955,0,0,0-1.06,0l-1.38.92V45.938ZM3.91,49.759a1.91,1.91,0,0,1,1.91-1.91H45.938v3.821H5.821A1.91,1.91,0,0,1,3.91,49.759ZM57.4,57.4H5.821a1.91,1.91,0,1,1,0-3.821H45.938v1.91a.955.955,0,0,0,1.485.795l2.335-1.559,2.335,1.557a.955.955,0,0,0,1.485-.793v-1.91H57.4Z" transform="translate(0)"/>
      <path id="Trazado_1056837" data-name="Trazado 1056837" d="M38.507,37.014A10.507,10.507,0,1,0,28,26.507,10.507,10.507,0,0,0,38.507,37.014Zm0-19.1a8.6,8.6,0,1,1-8.6,8.6,8.6,8.6,0,0,1,8.6-8.6Z" transform="translate(-1.166 -0.628)"/>
      <path id="Trazado_1056838" data-name="Trazado 1056838" d="M35.166,31.263a.955.955,0,0,0,1.351,0l8.1-8.1-1.351-1.351-7.429,7.429L33.815,27.21l-1.351,1.351Z" transform="translate(-1.366 -0.888)"/>
      <path id="Trazado_1056839" data-name="Trazado 1056839" d="M23.193,14.6a8.6,8.6,0,1,0-8.6,8.6,8.6,8.6,0,0,0,8.6-8.6ZM7.91,14.6A6.686,6.686,0,1,1,14.6,21.283,6.686,6.686,0,0,1,7.91,14.6Z" transform="translate(-0.179 -0.179)"/>
      <path id="Trazado_1056840" data-name="Trazado 1056840" d="M14.776,10A4.782,4.782,0,0,0,10,14.776h1.91a2.866,2.866,0,0,1,2.866-2.866Z" transform="translate(-0.359 -0.359)"/>
      <path id="Trazado_1056841" data-name="Trazado 1056841" d="M14,34h1.91v1.91H14Z" transform="translate(-0.538 -1.435)"/>
      <path id="Trazado_1056842" data-name="Trazado 1056842" d="M14,38h1.91v5.731H14Z" transform="translate(-0.538 -1.614)"/>
    </g>
  </g>
</svg>
